<?xml version="1.0" encoding="UTF-8"?>
<svg xmlns="http://www.w3.org/2000/svg" width="1501" height="326" viewBox="0 0 1501 326" fill="none">
  <g clip-path="url(#clip0_1344_5996)">
    <path d="M1386.04 326C1368.65 326 1352.08 323.283 1336.32 317.85C1320.57 312.417 1306.85 304.81 1295.17 295.03C1283.49 285.25 1274.93 273.976 1269.49 261.208C1266.78 255.503 1266.78 250.205 1269.49 245.315C1272.48 240.425 1277.37 237.301 1284.16 235.943C1289.05 234.856 1293.81 235.671 1298.43 238.387C1303.32 240.833 1306.98 244.636 1309.43 249.798C1312.69 256.589 1317.99 262.837 1325.32 268.543C1332.93 274.247 1342.03 278.866 1352.62 282.397C1363.22 285.929 1374.36 287.695 1386.04 287.695C1399.08 287.695 1411.03 285.658 1421.9 281.583C1433.04 277.508 1442 271.667 1448.79 264.06C1455.59 256.182 1458.98 246.537 1458.98 235.127C1458.98 220.729 1453.28 207.825 1441.87 196.415C1430.73 185.005 1412.26 177.942 1386.45 175.225C1352.76 171.965 1326.27 162.049 1306.98 145.477C1287.7 128.906 1278.05 108.395 1278.05 83.945C1278.05 66.015 1283.08 50.8017 1293.13 38.305C1303.18 25.8083 1316.76 16.3 1333.88 9.77999C1351.27 3.26 1370.55 0 1391.74 0C1408.32 0 1422.71 2.30916 1434.94 6.92748C1447.44 11.5458 1458.3 17.93 1467.54 26.08C1476.78 34.23 1484.79 43.8742 1491.58 55.0125C1495.39 60.9892 1496.88 66.6942 1496.06 72.1275C1495.52 77.2892 1492.94 81.3642 1488.32 84.3525C1483.16 87.6125 1477.59 88.2917 1471.61 86.39C1465.64 84.4883 1461.16 80.9567 1458.17 75.795C1453.82 67.9167 1448.52 61.2608 1442.27 55.8275C1436.03 50.3942 1428.69 46.1833 1420.27 43.195C1411.85 39.935 1401.93 38.305 1390.52 38.305C1370.42 38.0333 1353.58 41.8367 1339.99 49.715C1326.41 57.3217 1319.62 69.1392 1319.62 85.1675C1319.62 93.3175 1321.65 101.196 1325.73 108.803C1330.08 116.138 1337.82 122.522 1348.96 127.955C1360.37 133.388 1376.67 137.192 1397.86 139.365C1430.19 142.625 1455.31 152.541 1473.24 169.112C1491.45 185.412 1500.55 207.01 1500.55 233.905C1500.55 249.39 1497.29 262.837 1490.77 274.247C1484.52 285.658 1475.96 295.302 1465.09 303.18C1454.5 310.787 1442.27 316.492 1428.42 320.295C1414.84 324.098 1400.71 326 1386.04 326Z" fill="#1E1E1E"></path>
    <path d="M1386.04 326C1368.65 326 1352.08 323.283 1336.32 317.85C1320.57 312.417 1306.85 304.81 1295.17 295.03C1283.49 285.25 1274.93 273.976 1269.49 261.208C1266.78 255.503 1266.78 250.205 1269.49 245.315C1272.48 240.425 1277.37 237.301 1284.16 235.943C1289.05 234.856 1293.81 235.671 1298.43 238.387C1303.32 240.833 1306.98 244.636 1309.43 249.798C1312.69 256.589 1317.99 262.837 1325.32 268.543C1332.93 274.247 1342.03 278.866 1352.62 282.397C1363.22 285.929 1374.36 287.695 1386.04 287.695C1399.08 287.695 1411.03 285.658 1421.9 281.583C1433.04 277.508 1442 271.667 1448.79 264.06C1455.59 256.182 1458.98 246.537 1458.98 235.127C1458.98 220.729 1453.28 207.825 1441.87 196.415C1430.73 185.005 1412.26 177.942 1386.45 175.225C1352.76 171.965 1326.27 162.049 1306.98 145.477C1287.7 128.906 1278.05 108.395 1278.05 83.945C1278.05 66.015 1283.08 50.8017 1293.13 38.305C1303.18 25.8083 1316.76 16.3 1333.88 9.77999C1351.27 3.26 1370.55 0 1391.74 0C1408.32 0 1422.71 2.30916 1434.94 6.92748C1447.44 11.5458 1458.3 17.93 1467.54 26.08C1476.78 34.23 1484.79 43.8742 1491.58 55.0125C1495.39 60.9892 1496.88 66.6942 1496.06 72.1275C1495.52 77.2892 1492.94 81.3642 1488.32 84.3525C1483.16 87.6125 1477.59 88.2917 1471.61 86.39C1465.64 84.4883 1461.16 80.9567 1458.17 75.795C1453.82 67.9167 1448.52 61.2608 1442.27 55.8275C1436.03 50.3942 1428.69 46.1833 1420.27 43.195C1411.85 39.935 1401.93 38.305 1390.52 38.305C1370.42 38.0333 1353.58 41.8367 1339.99 49.715C1326.41 57.3217 1319.62 69.1392 1319.62 85.1675C1319.62 93.3175 1321.65 101.196 1325.73 108.803C1330.08 116.138 1337.82 122.522 1348.96 127.955C1360.37 133.388 1376.67 137.192 1397.86 139.365C1430.19 142.625 1455.31 152.541 1473.24 169.112C1491.45 185.412 1500.55 207.01 1500.55 233.905C1500.55 249.39 1497.29 262.837 1490.77 274.247C1484.52 285.658 1475.96 295.302 1465.09 303.18C1454.5 310.787 1442.27 316.492 1428.42 320.295C1414.84 324.098 1400.71 326 1386.04 326Z" fill="black" fill-opacity="0.2"></path>
    <path d="M575.932 321.924C569.956 321.924 564.93 319.886 560.855 315.811C556.78 311.736 554.742 306.71 554.742 300.734V24.856C554.742 18.6077 556.78 13.5818 560.855 9.77851C564.93 5.70351 569.956 3.66602 575.932 3.66602C582.181 3.66602 587.206 5.70351 591.01 9.77851C595.085 13.5818 597.122 18.6077 597.122 24.856V141.809H786.202V24.856C786.202 18.6077 788.24 13.5818 792.315 9.77851C796.39 5.70351 801.416 3.66602 807.392 3.66602C813.641 3.66602 818.666 5.70351 822.47 9.77851C826.273 13.5818 828.175 18.6077 828.175 24.856V300.734C828.175 306.71 826.273 311.736 822.47 315.811C818.666 319.886 813.641 321.924 807.392 321.924C801.416 321.924 796.39 319.886 792.315 315.811C788.24 311.736 786.202 306.71 786.202 300.734V179.299H597.122V300.734C597.122 306.71 595.085 311.736 591.01 315.811C587.206 319.886 582.181 321.924 575.932 321.924Z" fill="#1E1E1E"></path>
    <path d="M575.932 321.924C569.956 321.924 564.93 319.886 560.855 315.811C556.78 311.736 554.742 306.71 554.742 300.734V24.856C554.742 18.6077 556.78 13.5818 560.855 9.77851C564.93 5.70351 569.956 3.66602 575.932 3.66602C582.181 3.66602 587.206 5.70351 591.01 9.77851C595.085 13.5818 597.122 18.6077 597.122 24.856V141.809H786.202V24.856C786.202 18.6077 788.24 13.5818 792.315 9.77851C796.39 5.70351 801.416 3.66602 807.392 3.66602C813.641 3.66602 818.666 5.70351 822.47 9.77851C826.273 13.5818 828.175 18.6077 828.175 24.856V300.734C828.175 306.71 826.273 311.736 822.47 315.811C818.666 319.886 813.641 321.924 807.392 321.924C801.416 321.924 796.39 319.886 792.315 315.811C788.24 311.736 786.202 306.71 786.202 300.734V179.299H597.122V300.734C597.122 306.71 595.085 311.736 591.01 315.811C587.206 319.886 582.181 321.924 575.932 321.924Z" fill="black" fill-opacity="0.2"></path>
    <path d="M379.461 321.924C373.485 321.924 368.459 319.886 364.384 315.811C360.309 311.736 358.271 306.71 358.271 300.734V3.66602H400.651V300.734C400.651 306.71 398.614 311.736 394.539 315.811C390.464 319.886 385.438 321.924 379.461 321.924ZM270.251 42.786C264.546 42.786 259.792 41.0202 255.989 37.4885C252.457 33.6852 250.691 28.931 250.691 23.226C250.691 17.521 252.457 12.9027 255.989 9.37101C259.792 5.56768 264.546 3.66602 270.251 3.66602H488.264C493.969 3.66602 498.587 5.56768 502.119 9.37101C505.922 12.9027 507.824 17.521 507.824 23.226C507.824 28.931 505.922 33.6852 502.119 37.4885C498.587 41.0202 493.969 42.786 488.264 42.786H270.251Z" fill="#1E1E1E"></path>
    <path d="M379.461 321.924C373.485 321.924 368.459 319.886 364.384 315.811C360.309 311.736 358.271 306.71 358.271 300.734V3.66602H400.651V300.734C400.651 306.71 398.614 311.736 394.539 315.811C390.464 319.886 385.438 321.924 379.461 321.924ZM270.251 42.786C264.546 42.786 259.792 41.0202 255.989 37.4885C252.457 33.6852 250.691 28.931 250.691 23.226C250.691 17.521 252.457 12.9027 255.989 9.37101C259.792 5.56768 264.546 3.66602 270.251 3.66602H488.264C493.969 3.66602 498.587 5.56768 502.119 9.37101C505.922 12.9027 507.824 17.521 507.824 23.226C507.824 28.931 505.922 33.6852 502.119 37.4885C498.587 41.0202 493.969 42.786 488.264 42.786H270.251Z" fill="black" fill-opacity="0.2"></path>
    <path d="M21.19 321.924C15.2133 321.924 10.1875 319.886 6.1125 315.811C2.0375 311.736 0 306.71 0 300.734V24.856C0 18.6077 2.0375 13.5818 6.1125 9.77851C10.1875 5.70351 15.2133 3.66602 21.19 3.66602H205.38C211.628 3.66602 216.654 5.56768 220.458 9.37101C224.261 12.9027 226.163 17.6568 226.163 23.6335C226.163 29.3385 224.261 33.9568 220.458 37.4885C216.654 41.0202 211.628 42.786 205.38 42.786H42.38V141.809H159.333C165.581 141.809 170.607 143.71 174.41 147.514C178.213 151.045 180.115 155.663 180.115 161.368C180.115 167.074 178.213 171.828 174.41 175.631C170.607 179.163 165.581 180.929 159.333 180.929H42.38V282.804H205.38C211.628 282.804 216.654 284.569 220.458 288.101C224.261 291.633 226.163 296.251 226.163 301.956C226.163 307.933 224.261 312.823 220.458 316.626C216.654 320.158 211.628 321.924 205.38 321.924H21.19Z" fill="#1E1E1E"></path>
    <path d="M21.19 321.924C15.2133 321.924 10.1875 319.886 6.1125 315.811C2.0375 311.736 0 306.71 0 300.734V24.856C0 18.6077 2.0375 13.5818 6.1125 9.77851C10.1875 5.70351 15.2133 3.66602 21.19 3.66602H205.38C211.628 3.66602 216.654 5.56768 220.458 9.37101C224.261 12.9027 226.163 17.6568 226.163 23.6335C226.163 29.3385 224.261 33.9568 220.458 37.4885C216.654 41.0202 211.628 42.786 205.38 42.786H42.38V141.809H159.333C165.581 141.809 170.607 143.71 174.41 147.514C178.213 151.045 180.115 155.663 180.115 161.368C180.115 167.074 178.213 171.828 174.41 175.631C170.607 179.163 165.581 180.929 159.333 180.929H42.38V282.804H205.38C211.628 282.804 216.654 284.569 220.458 288.101C224.261 291.633 226.163 296.251 226.163 301.956C226.163 307.933 224.261 312.823 220.458 316.626C216.654 320.158 211.628 321.924 205.38 321.924H21.19Z" fill="black" fill-opacity="0.2"></path>
    <circle cx="1049.06" cy="163.059" r="147.681" fill="white"></circle>
    <circle cx="1049.06" cy="163.059" r="147.681" stroke="#1E1E1E" stroke-width="29.2438"></circle>
    <circle cx="1049.06" cy="163.059" r="147.681" stroke="black" stroke-opacity="0.2" stroke-width="29.2438"></circle>
    <path d="M1038.88 287.16L1038.52 137.244" stroke="#1E1E1E" stroke-width="12.9114" stroke-linecap="round"></path>
    <path d="M1038.88 287.16L1038.52 137.244" stroke="black" stroke-opacity="0.2" stroke-width="12.9114" stroke-linecap="round"></path>
    <path d="M1098.8 202.782C1089.79 205.316 1080.08 204.107 1071.22 201.36C1063.15 198.861 1056.23 195.225 1051.91 192.662C1054.26 188.226 1058.27 181.515 1063.85 175.178C1069.99 168.214 1077.64 162.122 1086.65 159.589C1095.66 157.055 1105.37 158.264 1114.24 161.01C1122.3 163.51 1129.23 167.146 1133.54 169.709C1131.19 174.145 1127.18 180.855 1121.6 187.193C1115.47 194.157 1107.81 200.248 1098.8 202.782Z" fill="#FFDE03"></path>
    <path d="M1098.8 202.782C1089.79 205.316 1080.08 204.107 1071.22 201.36C1063.15 198.861 1056.23 195.225 1051.91 192.662C1054.26 188.226 1058.27 181.515 1063.85 175.178C1069.99 168.214 1077.64 162.122 1086.65 159.589C1095.66 157.055 1105.37 158.264 1114.24 161.01C1122.3 163.51 1129.23 167.146 1133.54 169.709C1131.19 174.145 1127.18 180.855 1121.6 187.193C1115.47 194.157 1107.81 200.248 1098.8 202.782Z" stroke="#1E1E1E" stroke-width="12.9114"></path>
    <path d="M1098.8 202.782C1089.79 205.316 1080.08 204.107 1071.22 201.36C1063.15 198.861 1056.23 195.225 1051.91 192.662C1054.26 188.226 1058.27 181.515 1063.85 175.178C1069.99 168.214 1077.64 162.122 1086.65 159.589C1095.66 157.055 1105.37 158.264 1114.24 161.01C1122.3 163.51 1129.23 167.146 1133.54 169.709C1131.19 174.145 1127.18 180.855 1121.6 187.193C1115.47 194.157 1107.81 200.248 1098.8 202.782Z" stroke="black" stroke-opacity="0.2" stroke-width="12.9114"></path>
    <path d="M978.833 192.949C987.204 196.456 996.696 196.461 1005.58 194.876C1013.65 193.436 1020.77 190.766 1025.28 188.796C1023.52 184.199 1020.43 177.254 1015.8 170.493C1010.7 163.048 1004.04 156.285 995.664 152.777C987.293 149.27 977.802 149.266 968.916 150.851C960.848 152.29 953.732 154.96 949.221 156.931C950.98 161.528 954.068 168.473 958.7 175.233C963.802 182.679 970.462 189.442 978.833 192.949Z" fill="#7B1FA2"></path>
    <path d="M978.833 192.949C987.204 196.456 996.696 196.461 1005.58 194.876C1013.65 193.436 1020.77 190.766 1025.28 188.796C1023.52 184.199 1020.43 177.254 1015.8 170.493C1010.7 163.048 1004.04 156.285 995.664 152.777C987.293 149.27 977.802 149.266 968.916 150.851C960.848 152.29 953.732 154.96 949.221 156.931C950.98 161.528 954.068 168.473 958.7 175.233C963.802 182.679 970.462 189.442 978.833 192.949Z" stroke="#1E1E1E" stroke-width="12.9114"></path>
    <path d="M978.833 192.949C987.204 196.456 996.696 196.461 1005.58 194.876C1013.65 193.436 1020.77 190.766 1025.28 188.796C1023.52 184.199 1020.43 177.254 1015.8 170.493C1010.7 163.048 1004.04 156.285 995.664 152.777C987.293 149.27 977.802 149.266 968.916 150.851C960.848 152.29 953.732 154.96 949.221 156.931C950.98 161.528 954.068 168.473 958.7 175.233C963.802 182.679 970.462 189.442 978.833 192.949Z" stroke="black" stroke-opacity="0.2" stroke-width="12.9114"></path>
    <path d="M1097.63 125.611C1088.82 134.063 1076.89 138.456 1065.26 140.565C1054.47 142.52 1044.46 142.418 1038.54 142.072C1038.45 136.146 1038.77 126.138 1041.18 115.447C1043.78 103.917 1048.68 92.1847 1057.5 83.7326C1066.32 75.2804 1078.25 70.8877 1089.88 68.7789C1100.66 66.8235 1110.67 66.9256 1116.59 67.2717C1116.68 73.1977 1116.36 83.2053 1113.95 93.8965C1111.35 105.427 1106.45 117.159 1097.63 125.611Z" fill="#FF0266"></path>
    <path d="M1097.63 125.611C1088.82 134.063 1076.89 138.456 1065.26 140.565C1054.47 142.52 1044.46 142.418 1038.54 142.072C1038.45 136.146 1038.77 126.138 1041.18 115.447C1043.78 103.917 1048.68 92.1847 1057.5 83.7326C1066.32 75.2804 1078.25 70.8877 1089.88 68.7789C1100.66 66.8235 1110.67 66.9256 1116.59 67.2717C1116.68 73.1977 1116.36 83.2053 1113.95 93.8965C1111.35 105.427 1106.45 117.159 1097.63 125.611Z" stroke="#1E1E1E" stroke-width="12.9114"></path>
    <path d="M1097.63 125.611C1088.82 134.063 1076.89 138.456 1065.26 140.565C1054.47 142.52 1044.46 142.418 1038.54 142.072C1038.45 136.146 1038.77 126.138 1041.18 115.447C1043.78 103.917 1048.68 92.1847 1057.5 83.7326C1066.32 75.2804 1078.25 70.8877 1089.88 68.7789C1100.66 66.8235 1110.67 66.9256 1116.59 67.2717C1116.68 73.1977 1116.36 83.2053 1113.95 93.8965C1111.35 105.427 1106.45 117.159 1097.63 125.611Z" stroke="black" stroke-opacity="0.2" stroke-width="12.9114"></path>
    <path d="M1098.91 287.2C1098.91 287.524 1098.75 288.636 1096.69 290.435C1094.65 292.222 1091.31 294.126 1086.63 295.854C1077.33 299.291 1064.05 301.546 1049.06 301.546C1034.07 301.546 1020.78 299.291 1011.48 295.854C1006.8 294.126 1003.47 292.222 1001.42 290.435C999.36 288.636 999.204 287.524 999.204 287.2C999.204 286.876 999.36 285.765 1001.42 283.965C1003.47 282.178 1006.8 280.275 1011.48 278.547C1020.78 275.109 1034.07 272.854 1049.06 272.854C1064.05 272.854 1077.33 275.109 1086.63 278.547C1091.31 280.275 1094.65 282.178 1096.69 283.965C1098.75 285.765 1098.91 286.876 1098.91 287.2Z" fill="#69F0AE"></path>
    <path d="M1098.91 287.2C1098.91 287.524 1098.75 288.636 1096.69 290.435C1094.65 292.222 1091.31 294.126 1086.63 295.854C1077.33 299.291 1064.05 301.546 1049.06 301.546C1034.07 301.546 1020.78 299.291 1011.48 295.854C1006.8 294.126 1003.47 292.222 1001.42 290.435C999.36 288.636 999.204 287.524 999.204 287.2C999.204 286.876 999.36 285.765 1001.42 283.965C1003.47 282.178 1006.8 280.275 1011.48 278.547C1020.78 275.109 1034.07 272.854 1049.06 272.854C1064.05 272.854 1077.33 275.109 1086.63 278.547C1091.31 280.275 1094.65 282.178 1096.69 283.965C1098.75 285.765 1098.91 286.876 1098.91 287.2Z" stroke="#1E1E1E" stroke-width="12.9114"></path>
    <path d="M1098.91 287.2C1098.91 287.524 1098.75 288.636 1096.69 290.435C1094.65 292.222 1091.31 294.126 1086.63 295.854C1077.33 299.291 1064.05 301.546 1049.06 301.546C1034.07 301.546 1020.78 299.291 1011.48 295.854C1006.8 294.126 1003.47 292.222 1001.42 290.435C999.36 288.636 999.204 287.524 999.204 287.2C999.204 286.876 999.36 285.765 1001.42 283.965C1003.47 282.178 1006.8 280.275 1011.48 278.547C1020.78 275.109 1034.07 272.854 1049.06 272.854C1064.05 272.854 1077.33 275.109 1086.63 278.547C1091.31 280.275 1094.65 282.178 1096.69 283.965C1098.75 285.765 1098.91 286.876 1098.91 287.2Z" stroke="black" stroke-opacity="0.2" stroke-width="12.9114"></path>
  </g>
  <defs>
    <clipPath id="clip0_1344_5996">
      <rect width="1501" height="326" fill="white"></rect>
    </clipPath>
  </defs>
</svg>
