<svg width="194" height="80" viewBox="0 0 194 80" fill="none" xmlns="http://www.w3.org/2000/svg">
<g clip-path="url(#clip0_2107_11236)">
<rect width="194" height="80" fill="white"/>
<path d="M0 23.2489H29.0641C29.0641 23.2489 15.6006 23.2489 15.6006 30.4937V65.1392H24.79V29.8481C24.79 23.2489 31.2724 23.2489 31.2724 23.2489H40.4618V15H0V23.2489Z" fill="#1E1E1E"/>
<path d="M90.6506 28.1983V15H81.8174V28.1983H76.4747V35.1561H77.3295C77.3295 35.1561 81.8174 35.1561 81.8174 40.1055C81.8174 42.2574 81.8174 56.1013 81.8174 56.1013C81.8174 61.1941 85.8778 65.211 90.8643 65.211H96.9193V57.3207C96.9193 57.3207 94.8535 57.3207 93.4288 57.3207C91.9328 57.3207 90.6506 56.0295 90.6506 54.5232V40.7511C90.6506 35.443 79.4666 35.1561 77.6145 35.1561H96.9193V28.1983H90.6506Z" fill="#1E1E1E"/>
<path d="M122.059 27.3376C116.645 27.7679 112.015 33.4346 111.944 43.4051C112.015 38.4557 114.223 34.8692 119.281 34.8692C124.838 34.8692 126.618 39.0295 126.618 43.6203V65.211H135.523V40.6076C135.523 32 128.471 26.8354 122.059 27.3376ZM103.111 15V65.211H111.944V15H103.111Z" fill="#1E1E1E"/>
<path d="M151.876 65.211V28.1983H142.972V65.211H151.876ZM147.389 23.8945C150.737 23.8945 153.372 21.9578 153.372 19.4473C153.372 17.0084 150.737 15 147.389 15C144.112 15 141.476 17.0084 141.476 19.4473C141.476 21.9578 144.112 23.8945 147.389 23.8945Z" fill="#1E1E1E"/>
<path d="M73.4014 46.4388C73.4014 34.1013 64.6394 27 55.1651 27C45.6907 27 37 34.1013 37 46.4388C37 58.7764 45.5483 65.7342 55.1651 65.8059C62.6448 65.7342 69.4834 61.5738 72.1904 53.9705H62.5023C60.7214 56.6245 57.9432 57.9156 55.1651 57.9156C51.0334 57.9156 46.9017 54.9747 46.0469 48.9494H73.2589C73.3301 48.0886 73.4014 47.2996 73.4014 46.4388ZM46.3319 42.135C48.1127 37.4008 51.3896 34.962 55.1651 34.8903C59.0118 34.962 62.2174 37.4008 64.0695 42.135H46.3319Z" fill="#1E1E1E"/>
<path d="M184.153 44.9019C181.024 49.2205 176.702 45.7954 174.988 44.1574L174.318 43.4128C170.965 39.9133 167.537 38.2007 158 38.2007V28C171.412 28 174.392 34.5523 176.18 40.8068L176.925 39.7643L184.898 28H196C196 28 185.271 43.3383 184.153 44.9019Z" fill="#1E1E1E"/>
<path d="M168.535 49.0981C171.582 44.7795 175.79 48.2046 177.459 49.8426L178.112 50.5872C181.376 54.0867 184.714 55.7993 194 55.7993L194 66C180.941 66 178.039 59.4477 176.298 53.1933L175.573 54.2357L167.81 66L157 66C157 66 167.447 50.6617 168.535 49.0981Z" fill="#7B1FA2"/>
</g>
<defs>
<clipPath id="clip0_2107_11236">
<rect width="194" height="80" fill="white"/>
</clipPath>
</defs>
</svg>
