<svg width="140" height="140" viewBox="0 0 140 140" fill="none" xmlns="http://www.w3.org/2000/svg">
<path fill-rule="evenodd" clip-rule="evenodd" d="M6.27726 98.9321C6.27759 98.9328 6.27791 98.9335 6.27823 98.9342C31.6844 92.2126 50.767 94.004 63.9151 97.2054C70.3198 98.7878 75.9083 100.832 81.1776 102.76C92.1066 106.758 101.663 110.254 114.282 108.085C120.89 106.906 127.086 104.475 132.819 100.901C121.446 124.005 97.6443 140 70.0367 140C41.6701 140 17.2447 123.203 6.24805 98.9449C6.24805 98.9449 6.2581 98.9405 6.27726 98.9321Z" fill="#7B1FA2"/>
<path d="M139.997 70.7452C123.229 58.2097 105.276 56.9233 93.9756 58.2537C65.5757 61.5937 50.4406 84.8666 24.94 81.9562C15.2739 80.853 7.17477 75.9533 0.0151593 69.2885C-0.207079 79.2199 2.02091 89.9622 6.25865 98.9666C31.6648 92.2451 50.7829 94.0033 63.9309 97.2047C84.4151 102.415 95.4715 111.198 114.164 108.131C120.798 106.948 127.066 104.498 132.817 100.901C137.266 91.843 139.901 81.5703 139.997 70.7452Z" fill="#954CB5"/>
<path fill-rule="evenodd" clip-rule="evenodd" d="M32.3382 33.8672C23.9973 33.8229 15.6234 35.2398 7.75773 38.0273L7.74055 38.0595C2.87469 47.1869 0.0136719 57.8529 0.0136719 69.2997L0.0146412 69.3007C0.0146437 69.3005 0.0146461 69.3002 0.0146486 69.3C6.35768 75.115 14.314 80.7684 24.9538 81.9742C38.6941 83.5423 49.4195 77.5037 60.8326 71.0779C70.6011 65.578 80.8733 59.7945 93.9707 58.2542C105.261 56.9249 123.245 58.2517 140 70.7551C139.998 70.734 139.997 70.7232 139.997 70.7232C139.997 58.31 137.204 47.2428 132.259 37.8235C114.429 50.6989 100.303 52.7887 90.7574 52.3814C78.9781 51.8822 70.4571 47.4257 62.0152 43.0105C53.2311 38.4165 44.5327 33.8672 32.3382 33.8672Z" fill="#B079C7"/>
<path d="M69.974 3.5414e-05C57.1298 0.0127896 44.6187 3.43573 33.6472 10.1424C22.6756 16.849 13.4323 26.6946 7.75391 38.0336C15.6285 35.2389 24.0375 33.8228 32.3893 33.8672C56.1224 33.8007 66.6712 51.3681 90.8491 52.3836C100.438 52.7863 114.626 50.5735 132.258 37.8225C126.316 26.4072 117.334 16.8401 106.36 10.1728C95.3851 3.50555 82.8005 -0.0128771 69.974 3.5414e-05Z" fill="#CAA5DA"/>
</svg>
