<svg xmlns="http://www.w3.org/2000/svg" width="531" height="531" viewBox="0 0 531 531" fill="none"><path d="M372.339 265.536C378.493 267.984 383.815 272.742 384.855 279.282C396.885 354.898 374.921 408.884 280.026 423.275C199.688 435.459 103.625 333.604 113.736 271.955C115.044 263.979 121.914 258.53 129.364 255.397C195.186 227.716 136.629 188.236 146.108 150.12C148.586 140.156 160.811 138.543 169.942 143.238C227.034 172.594 201.121 123.386 259.583 109.395C272.051 106.411 280.986 119.305 279.079 131.982C272.768 173.926 312.282 161.457 356.513 158.644C376.645 157.364 381.883 186.232 370.273 202.729C353.365 226.752 345.937 255.034 372.339 265.536Z" fill="#FF0266"></path><path d="M252.479 410.952C211.703 397.422 190.136 386.304 162.589 353.924C148.815 337.734 140.085 307.292 144.949 281.673C150.454 252.676 178.612 253.307 182.162 210.872C183.904 189.825 181.125 176.161 167.421 158.919C211.125 168.858 217.173 186.957 222.032 231.895C232.438 215.424 237.36 206.706 230.58 181.552C227.293 169.354 224.038 156.142 229.692 144.845C236.21 131.824 248.16 125.484 263.111 123.398C254.412 167.135 259.701 175.32 284.617 210.872C290.9 173.66 322.313 173.901 355.177 176.076C332.086 190.694 322.654 200.957 321.4 214.591C320.081 228.936 328.256 242.137 335.277 254.717C341.393 265.675 346.067 275.443 349.82 285.796C358.185 308.871 360.482 334.653 352.347 357.81C340.697 390.973 313.108 404.258 252.479 410.952ZM252.479 410.952C234.5 350.532 274.76 334.389 299.247 296.74C305.383 287.305 297.591 274.479 286.628 277.023V277.023C263.013 282.503 269.624 314.76 279.051 337.094C282.398 345.022 285.272 353.625 286.765 362.385C287.895 369.01 279.628 371.244 275.191 366.197C241.842 328.261 184.383 314.071 228.557 351.025C236.473 357.646 214.822 316.834 211.854 284.01C210.274 266.542 234.703 252.696 240.097 269.385V269.385C245.429 285.883 212.256 284.651 197.795 294.217C192.455 297.749 189.499 303.893 190.861 310.912" stroke="black" stroke-width="4" stroke-linecap="round"></path></svg>