<svg xmlns="http://www.w3.org/2000/svg" width="531" height="531" viewBox="0 0 531 531" fill="none"><g clip-path="url(#clip0_946_415)"><path d="M391.91 207.656C398.033 210.177 403.39 214.934 404.446 221.472C417.569 302.69 394.261 360.706 292.515 376.135C206.266 389.215 103.062 279.333 114.915 213.528C116.348 205.574 123.212 200.138 130.645 196.964C201.495 166.708 122.995 119.862 131.565 77.7429C133.612 67.6817 145.9 66.0479 155.146 70.5111C222.057 102.808 216.043 39.9438 287.322 24.2742C299.843 21.5217 308.842 34.2244 306.35 46.7996C296.777 95.0982 336.651 81.2697 383.108 79.1323C403.26 78.2052 408.956 108.323 396.994 124.566C374.43 155.206 360.889 194.883 391.91 207.656Z" fill="#FF0266"></path><path d="M263.07 362.963C219.484 348.501 196.431 336.617 166.986 302.006C152.263 284.701 142.931 252.161 148.13 224.777C154.014 193.782 184.113 194.457 187.907 149.098C189.77 126.601 186.799 111.995 172.151 93.5656C218.866 104.189 225.33 123.535 230.525 171.569C241.823 153.685 247.073 144.353 239.309 116.471C235.921 104.302 232.827 91.1702 238.141 79.7092C244.966 64.9862 258.004 57.8894 274.434 55.5969C265.135 102.347 270.788 111.096 297.422 149.098C304.137 109.321 337.715 109.58 372.843 111.904C347.328 128.057 337.415 139.235 336.633 154.561C335.898 168.949 343.768 182.104 350.838 194.655C358.216 207.754 363.674 219.2 367.969 231.584C376.011 254.774 378.139 280.365 370.633 303.733C358.675 340.965 329.335 355.647 263.07 362.963ZM263.07 362.963C244.312 299.929 287.52 281.888 314.639 243.617C322.657 232.302 312.515 216.678 298.675 215.789V215.789C270.027 213.948 271.828 249.122 280.021 276.635C282.283 284.232 284.181 292.257 285.251 300.224C286.251 307.677 277.004 310.112 272.052 304.452C239.171 266.869 190.818 259.856 237.499 298.907C246.342 306.304 254.636 242.638 268.052 200.098C273.691 182.218 299.468 168.232 305.234 186.072V186.072C310.933 203.706 278.971 207.073 261.111 202.127C245.267 197.74 231.339 198.555 233.366 209" stroke="black" stroke-width="4" stroke-linecap="round"></path><path d="M271.942 322.309C278.484 323.332 284.638 326.995 286.963 333.195C313.838 404.89 303.087 462.174 212.972 495.209C136.68 523.178 22.2259 442.538 19.8331 380.111C19.5235 372.035 25.1909 365.349 31.7988 360.695C90.0214 319.688 16.3451 286.139 16.4097 245.228C16.4259 234.96 28.0866 230.887 37.9965 233.572C100.695 250.564 70.0952 204.245 126.007 178.188C137.627 172.772 149.106 183.534 148.989 196.353C148.591 239.928 174.486 229.538 210.516 222.192C230.282 218.162 243.484 248.933 240.531 268.889C236.922 293.276 244.188 317.971 271.942 322.309Z" fill="#FF0266"></path><path d="M183.52 488.63C140.865 483.508 117.513 476.918 84.059 450.685C67.332 437.569 52.7029 409.481 52.3571 383.407C51.9657 353.895 79.6838 348.895 74.695 306.605C72.2034 285.633 66.7537 272.798 49.8852 258.637C94.6934 259.656 104.23 276.184 117.959 319.249C124.869 301.033 127.952 291.508 116.29 268.212C110.635 256.916 104.809 244.619 108.096 232.422C111.884 218.361 122.329 209.765 136.564 204.737C136.766 249.331 143.581 256.295 175.09 286.162C173.822 248.444 204.652 242.413 237.289 237.986C217.579 256.918 210.384 268.856 211.875 282.466C213.445 296.786 224.09 308.091 233.479 319.016C241.659 328.534 248.189 337.173 253.932 346.569C266.732 367.511 274.127 392.316 270.777 416.63C265.978 451.451 241.595 469.974 183.52 488.63ZM183.52 488.63C153.847 433.013 190.077 409.161 206.559 367.383C210.689 356.914 200.495 345.901 190.26 350.581V350.581C168.213 360.663 181.127 390.952 194.821 410.956C199.682 418.057 204.215 425.914 207.426 434.2C209.855 440.466 202.2 444.304 196.846 440.244C156.597 409.725 97.4633 407.285 148.122 434.681C157.2 439.59 127.841 403.919 118.383 372.347C113.35 355.545 134.525 337.103 143.141 352.381V352.381C151.657 367.483 118.905 372.895 106.644 385.154C102.116 389.681 100.445 396.291 103.18 402.897" stroke="black" stroke-width="4" stroke-linecap="round"></path><path d="M497.586 363.794C503.42 366.927 508.221 372.209 508.569 378.822C512.586 455.283 485.069 506.663 389.188 511.001C308.014 514.674 223.187 403.287 239.721 343.042C241.86 335.248 249.265 330.551 257.003 328.219C325.369 307.608 271.286 262.193 284.718 225.284C288.229 215.636 300.531 215.373 309.259 220.779C363.619 254.451 347.269 192.415 408.102 182.482C420.754 180.416 428.383 194.173 425.016 206.543C413.457 249.014 451.525 245.447 494.402 249.807C514.471 251.849 516.659 282.288 503.505 297.582C483.437 320.915 472.169 350.144 497.586 363.794Z" fill="#FF0266"></path><path d="M363.088 495.85C323.959 478.11 303.68 464.787 279.689 429.692C267.693 412.144 262.21 380.953 269.739 355.987C278.261 327.729 306.197 331.316 314.187 289.489C318.132 268.742 316.804 254.861 304.988 236.275C347.405 250.752 351.517 269.385 351.627 314.586C363.706 299.299 369.517 291.147 365.418 265.419C363.431 252.944 361.583 239.463 368.393 228.823C376.243 216.558 388.793 211.51 403.881 211.007C390.633 253.587 395.033 262.282 416.075 300.257C426.234 263.91 457.448 267.452 489.901 273.068C465.402 285.179 454.943 294.394 452.263 307.82C449.443 321.947 456.186 335.934 461.846 349.182C466.777 360.723 470.399 370.928 473.043 381.618C478.936 405.444 478.511 431.325 467.987 453.498C452.917 485.253 424.085 495.566 363.088 495.85ZM363.088 495.85C351.558 433.876 393.292 422.053 421.599 387.186C428.693 378.448 422.292 364.874 411.122 366.252V366.252C387.062 369.22 390.246 401.993 397.274 425.194C399.769 433.43 401.723 442.288 402.288 451.156C402.715 457.863 394.259 459.216 390.377 453.731C361.199 412.499 305.55 392.35 345.596 433.741C352.772 441.158 335.53 398.296 336.028 365.342C336.293 347.805 362.042 336.602 365.652 353.766V353.766C369.221 370.734 336.36 366.021 320.975 374.015C315.293 376.967 311.707 382.766 312.324 389.889" stroke="black" stroke-width="4" stroke-linecap="round"></path></g><defs><clipPath id="clip0_946_415"><rect width="531" height="531" fill="white"></rect></clipPath></defs></svg>