<?xml version="1.0" encoding="UTF-8"?>
<svg xmlns="http://www.w3.org/2000/svg" width="512" height="512" viewBox="0 0 512 512" fill="none">
  <path d="M504.937 243.415H198.238C184.008 243.415 169.36 241.053 158.162 232.273C136.242 215.088 131.817 192.188 140.642 167.901C146.386 152.092 161.284 140.51 178.104 140.402C203.515 140.24 217.3 155.922 217.3 178.244" stroke="black" stroke-width="12" stroke-linecap="round"></path>
  <path d="M130.082 250.276L61.1163 250.276C46.3579 250.276 30.4206 248.218 20.6849 237.126C12.5312 227.837 10.0615 216.756 12.2683 204.955C15.3921 188.25 31.8407 174.453 48.2791 178.767C59.93 181.824 66.1543 191.547 66.1543 204.396" stroke="black" stroke-width="12" stroke-linecap="round"></path>
  <path d="M441.981 321.326L242.132 321.326C234.885 321.326 227.308 323.066 222.767 328.714C209.517 345.199 219.712 367.387 240.822 367.387" stroke="black" stroke-width="12" stroke-linecap="round"></path>
  <path d="M470.636 280.655H151.047C140.455 280.655 129.696 281.967 120.404 287.052C81.2774 308.464 71.0817 353.501 90.0495 387.527C92.0796 391.168 94.7157 394.464 97.8509 397.212C122.352 418.689 157.406 418.173 174.64 396.214C179.939 389.463 181.124 383.755 182.876 375.354V375.354C187.474 353.299 167.55 328.377 145.024 328.744C133.821 328.927 125.465 333.97 119.791 342.887" stroke="black" stroke-width="12" stroke-linecap="round"></path>
</svg>
