<?xml version="1.0" encoding="UTF-8"?>
<svg xmlns="http://www.w3.org/2000/svg" width="512" height="512" viewBox="0 0 512 512" fill="none">
  <g clip-path="url(#clip0_856_121)">
    <path d="M366.969 177.228C338.084 182.874 324.376 187.748 302.161 198.018M384.868 220.952C375.871 226.066 370.111 228.11 356.538 227.951M441.332 265.148C405.784 268.133 390.58 273.971 363.307 284.241M471.262 315.455C461.642 320.591 456.129 323.451 427.426 325.502" stroke="black" stroke-width="12"></path>
    <path d="M128.714 249.645C155.911 256.059 152.517 266.531 149.313 279.412C148.073 284.397 141.265 287.129 137.375 283.773L128.547 276.158C124.498 272.665 126.696 266.021 132.029 265.631L146.376 264.582C149.057 264.386 151.544 265.999 152.456 268.528C158.991 286.63 161.614 294.536 160.766 305.08C160.499 308.395 158.724 311.497 155.736 312.959C147.246 317.113 136.851 315.65 118.235 306.632C101.7 298.622 90.5542 281.447 92.6155 263.189C94.3766 247.59 99.5289 237.907 109.218 227.204C109.635 226.744 110.1 226.306 110.585 225.917C125.783 213.721 132.96 214.205 154.463 210.405M154.463 210.405L359.562 153.457C362.448 152.656 365.542 152.873 368.268 154.114C415.658 175.689 421.347 192.544 410.742 235.877C409.651 240.333 406.196 243.838 401.782 245.09L178.962 308.279C176.023 309.112 173.72 305.385 175.622 302.994C201.315 270.706 202.544 233.059 154.463 210.405Z" stroke="black" stroke-width="12"></path>
    <path d="M173.487 348.001C207.782 356.085 204.767 368.239 203.396 384.83C203.128 388.078 199.321 389.964 196.686 388.046L192.501 384.999C189.202 382.597 187.474 378.588 187.994 374.541V374.541C188.773 368.475 191.72 362.895 196.291 358.832L204.966 351.123C205.806 350.376 206.911 349.918 208.035 349.925C233.687 350.089 217.547 387.122 212.421 405.576C211.531 408.783 209.839 411.876 206.88 413.399C197.039 418.461 184.972 416.622 162.399 405.342C145.961 397.127 134.993 380.087 136.55 361.776C138.163 342.813 143.88 331.616 155.196 319.148C155.613 318.688 156.08 318.249 156.565 317.86C173.363 304.375 181.261 304.917 204.994 300.731M204.994 300.731L431.482 237.94C434.365 237.141 437.464 237.363 440.189 238.598C493.078 262.57 499.215 281.165 487.261 329.535C486.16 333.99 482.705 337.498 478.29 338.748L230.933 408.789C227.994 409.621 225.706 405.905 227.631 403.533C256.612 367.8 258.418 325.881 204.994 300.731Z" stroke="black" stroke-width="12" stroke-linecap="round"></path>
    <path d="M16.8516 -214.355H508.852V-216.355H16.8516V-214.355ZM509.852 -213.355V278.645H511.852V-213.355H509.852ZM508.852 279.645H16.8516V281.645H508.852V279.645ZM15.8516 278.645V-213.355H13.8516V278.645H15.8516ZM16.8516 279.645C16.2993 279.645 15.8516 279.197 15.8516 278.645H13.8516C13.8516 280.301 15.1947 281.645 16.8516 281.645V279.645ZM509.852 278.645C509.852 279.197 509.404 279.645 508.852 279.645V281.645C510.508 281.645 511.852 280.301 511.852 278.645H509.852ZM508.852 -214.355C509.404 -214.355 509.852 -213.908 509.852 -213.355H511.852C511.852 -215.012 510.508 -216.355 508.852 -216.355V-214.355ZM16.8516 -216.355C15.1947 -216.355 13.8516 -215.012 13.8516 -213.355H15.8516C15.8516 -213.908 16.2993 -214.355 16.8516 -214.355V-216.355Z" fill="black" fill-opacity="0.1"></path>
    <path d="M49.5341 325.69C72.0476 331 69.2642 341.851 64.0929 353.837C62.1961 358.234 50.5229 358.639 48.7593 354.188V354.188C48.442 353.387 48.3645 352.508 48.5704 351.671C51.6986 338.962 58.1537 336.783 72.5391 337.115C73.0115 337.125 73.5096 337.199 73.9628 337.332C97.6975 344.314 83.9368 369.841 79.1033 385.334C78.1128 388.509 76.4428 391.623 73.4556 393.084C64.9647 397.239 54.5701 395.776 35.9542 386.758C19.419 378.747 8.27338 361.572 10.3347 343.315C12.0958 327.716 17.2481 318.032 26.9373 307.33C27.3541 306.869 27.8194 306.431 28.3037 306.043C43.5021 293.846 50.6791 294.331 72.1827 290.531M72.1827 290.531L96.7781 284.732M72.1827 290.531C119.731 312.934 119.055 350 94.1857 382.045C92.2572 384.531 94.8176 388.389 97.7903 387.361L135.668 374.255" stroke="black" stroke-width="12" stroke-linecap="round"></path>
  </g>
  <defs>
    <clipPath id="clip0_856_121">
      <rect width="512" height="512" fill="white"></rect>
    </clipPath>
  </defs>
</svg>
