<svg xmlns="http://www.w3.org/2000/svg" width="512" height="512" viewBox="0 0 512 512" fill="none"><path d="M406 155C406 235.652 340.839 301 260.5 301C180.161 301 115 235.652 115 155C115 74.3478 180.161 9 260.5 9C340.839 9 406 74.3478 406 155Z" fill="#FFDE03" fill-opacity="0.1" stroke="#333333" stroke-width="12"></path><circle cx="260.5" cy="357.5" r="145.5" fill="#FF0266" fill-opacity="0.1" stroke="#333333" stroke-width="12"></circle><path d="M306 254.5C306 334.839 240.652 400 160 400C79.3478 400 14 334.839 14 254.5C14 174.161 79.3478 109 160 109C240.652 109 306 174.161 306 254.5Z" fill="#7B1FA2" fill-opacity="0.1" stroke="#333333" stroke-width="12"></path><path d="M497 254.5C497 334.839 431.652 400 351 400C270.348 400 205 334.839 205 254.5C205 174.161 270.348 109 351 109C431.652 109 497 174.161 497 254.5Z" fill="#69F0AE" fill-opacity="0.1" stroke="#333333" stroke-width="12"></path></svg>