<?xml version="1.0" encoding="UTF-8"?>
<svg xmlns="http://www.w3.org/2000/svg" width="512" height="512" viewBox="0 0 512 512" fill="none">
  <path d="M257.835 483C193.488 461.639 159.454 444.086 115.982 392.963C94.2462 367.402 80.4689 319.338 88.1441 278.891C96.8313 233.109 141.267 234.106 146.869 167.108C149.619 133.878 145.233 112.304 123.608 85.0824C192.576 100.774 202.118 129.349 209.788 200.299C227.599 172.091 235.229 158.287 220.156 110.145C216.383 98.0947 213.937 85.1996 217.737 73.1581C226.448 45.5544 247.374 32.8026 274.613 29C260.885 98.0538 269.231 110.976 308.551 167.108C318.465 108.355 368.038 108.736 419.899 112.17C376.728 139.514 363.81 157.206 366.767 185.532C368.262 199.855 374.992 212.97 382.252 225.407C399.334 254.667 410.095 277.572 417.95 305.791C424.528 329.425 426.123 354.459 421.093 378.47C406.906 446.178 365.197 471.142 257.835 483ZM257.835 483C229.462 387.607 292.997 362.119 331.639 302.676C341.322 287.779 329.026 267.53 311.719 271.55V271.55C274.451 280.206 284.884 331.124 299.76 366.374C305.041 378.89 309.578 392.471 311.937 406.301C313.721 416.763 300.664 420.292 293.658 412.32C241.028 352.44 150.383 330.049 220.084 388.385C232.674 398.922 197.864 333.376 193.619 281.349C191.427 254.484 232.075 234.346 238.584 260.502C238.782 261.298 238.919 262.117 238.994 262.961C241.346 289.502 195.48 284.335 172.616 298.017C163.515 303.463 158.358 313.509 160.597 325.054" stroke="white" stroke-width="12" stroke-linecap="round"></path>
</svg>
