<svg xmlns="http://www.w3.org/2000/svg" width="400" height="400" viewBox="0 0 400 400" fill="none"><g clip-path="url(#clip0_1646_21598)"><path fill-rule="evenodd" clip-rule="evenodd" d="M17.9325 282.663C17.9334 282.665 17.9342 282.667 17.9351 282.669C90.5242 263.464 145.046 268.582 182.612 277.729C200.911 282.25 216.878 288.091 231.934 293.599C263.159 305.022 290.463 315.011 326.519 308.813C345.398 305.446 363.102 298.499 379.481 288.288C346.987 354.3 278.983 400 200.104 400C119.056 400 49.269 352.007 17.8501 282.699C17.8501 282.699 17.8784 282.687 17.9325 282.663Z" fill="#1E1E1E"></path><path d="M399.991 202.13C352.082 166.315 300.79 162.639 268.502 166.441C187.359 175.983 144.116 242.477 71.2574 234.162C43.6399 231.01 20.4994 217.011 0.0433123 197.969C-0.591655 226.344 5.77404 257.036 17.8819 282.763C90.471 263.559 145.094 268.582 182.66 277.729C241.186 292.615 272.776 317.711 326.182 308.946C345.137 305.566 363.045 298.569 379.479 288.291C392.188 262.41 399.719 233.059 399.991 202.13Z" fill="#1E1E1E" fill-opacity="0.8"></path><path fill-rule="evenodd" clip-rule="evenodd" d="M92.3952 96.7636C68.5644 96.637 44.6396 100.685 22.1665 108.649L22.1169 108.742C8.21439 134.82 0.0400391 165.295 0.0400391 198L0.0445532 198.005C0.0445705 198.003 0.0445877 198.001 0.044605 198C18.1676 214.614 40.8999 230.767 71.2994 234.212C110.557 238.692 141.202 221.439 173.81 203.079C201.72 187.366 231.07 170.841 268.491 166.44C300.748 162.643 352.13 166.433 400 202.156C399.995 202.097 399.992 202.067 399.992 202.067C399.992 166.6 392.014 134.979 377.884 108.067C326.941 144.854 286.58 150.825 259.308 149.661C225.652 148.235 201.307 135.502 177.187 122.887C152.089 109.762 127.237 96.7636 92.3952 96.7636Z" fill="#1E1E1E" fill-opacity="0.6"></path><path d="M199.929 0.000101183C163.231 0.0365417 127.485 9.8164 96.1376 28.9782C64.7903 48.14 38.3807 76.2702 22.1567 108.668C44.6556 100.683 68.6814 96.6366 92.5435 96.7635C160.353 96.5734 190.492 146.766 259.572 149.667C286.968 150.818 327.507 144.496 377.883 108.064C360.906 75.4493 335.244 48.1146 303.888 29.0652C272.532 10.0159 236.576 -0.0367919 199.929 0.000101183Z" fill="#1E1E1E" fill-opacity="0.4"></path></g><defs><clipPath id="clip0_1646_21598"><rect width="400" height="400" fill="white"></rect></clipPath></defs></svg>