<?xml version="1.0" encoding="UTF-8"?>
<svg xmlns="http://www.w3.org/2000/svg" width="512" height="512" viewBox="0 0 512 512" fill="none">
  <g clip-path="url(#clip0_856_111)">
    <path d="M368.303 339.857C376.877 341.283 385.941 342.922 395.586 344.793C396.263 344.925 396.942 345.133 397.575 345.405C439.197 363.32 448.216 390.471 453.771 420.159C455.796 430.979 450.557 441.956 440.812 447.078C395.272 471.01 370.375 473.541 322.736 449.708C318.942 447.81 314.339 448.4 311.223 451.279C259.402 499.157 251.883 501.261 176.77 486.436C173.387 485.768 170.093 484.513 167.091 482.815C146.298 471.05 127.616 462.724 124.12 448.739C122.335 441.596 117.304 433.638 110.046 432.401C93.8134 429.635 80.9443 420.953 72.5255 408.529C72.0295 407.797 71.6446 406.969 71.3893 406.123C60.2335 369.144 82.9116 356.17 133.611 343.738C134.102 343.617 134.613 343.532 135.117 343.488C137.845 343.248 140.524 343.007 143.159 342.766" stroke="white" stroke-width="12"></path>
    <path d="M260.451 78.4185C201.046 77.3716 173.697 90.4865 142.85 102.751C141.552 103.267 141.147 104.867 142.254 105.719C173.593 129.844 366.83 131.288 382.643 109.599C383.232 108.792 382.774 107.77 381.876 107.332C345.134 89.4214 298.42 79.0876 260.451 78.4185Z" stroke="white" stroke-width="12"></path>
    <path d="M108.992 85.6699C157.651 139.103 377.344 136.268 408.157 96.9704M108.992 85.6699C167.033 44.344 366.61 46.5603 408.157 96.9704M108.992 85.6699L142.162 341.113C142.443 343.276 144.409 344.823 146.571 344.539C157.217 343.138 163.815 341.047 169.11 334.261C171.68 330.97 173.328 326.966 173.684 322.806C173.805 321.395 173.75 320.206 173.502 319.225C170.833 308.658 152.507 321.092 153.254 331.966C153.629 337.428 155.562 344.182 158.808 353.214C159.184 354.259 159.951 355.09 160.981 355.506C211.956 376.057 324.861 377.33 365.452 341.843C367.207 340.309 368.196 338.127 368.417 335.807L369.336 326.161L408.157 96.9704" stroke="white" stroke-width="12"></path>
  </g>
  <defs>
    <clipPath id="clip0_856_111">
      <rect width="512" height="512" fill="white"></rect>
    </clipPath>
  </defs>
</svg>
