<svg xmlns="http://www.w3.org/2000/svg" width="609" height="368" viewBox="0 0 609 368" fill="none"><circle cx="305" cy="184" r="184" fill="#69F0AE"></circle><mask id="mask0_1376_13452" style="mask-type:alpha" maskUnits="userSpaceOnUse" x="0" y="0" width="609" height="363"><rect width="609" height="362.524" fill="#C4C4C4"></rect></mask><g mask="url(#mask0_1376_13452)"><path d="M282.515 109.055C280.622 112.358 281.568 117.301 282.429 120.699C283.923 126.13 286.204 131.33 289.203 136.145C291.134 139.401 293.408 142.443 295.24 145.746C297.079 149.12 298.565 152.662 299.678 156.321C301.762 163.53 303.068 170.928 303.576 178.397C304.313 186.714 304.805 195.126 304.94 203.503C305.358 220.304 304.94 237.104 304.51 253.893C304.301 262.306 304.436 270.706 304.363 279.118C304.289 287.531 303.711 295.895 300.674 303.761C300.256 304.83 302.039 305.294 302.457 304.224C307.768 290.632 305.899 275.708 306.207 261.45C306.563 244.661 307.141 227.884 306.957 211.095C306.871 202.707 306.6 194.318 306.047 185.942C305.675 178.325 304.784 170.739 303.379 163.236C302.075 156.227 299.582 149.475 296.002 143.251C294.023 139.959 291.748 136.846 289.855 133.484C288.316 130.805 286.973 128.026 285.835 125.167C284.242 121.445 283.435 117.454 283.462 113.427C283.495 112.524 283.636 111.627 283.88 110.754C283.88 110.611 284.126 110.089 284.089 110.16C284.052 110.231 284.089 110.077 284.163 110.017C284.74 109.019 283.142 108.116 282.576 109.114L282.515 109.055Z" fill="black"></path><path d="M305.813 289.658C314.095 256.519 314.804 222.034 307.89 188.604C306.157 180.358 303.723 172.337 301.264 164.27C299.253 157.749 296.119 151.603 291.993 146.091C283.658 134.886 271.978 126.308 259.363 120.034C258.007 119.242 256.569 118.589 255.073 118.085C253.753 117.783 252.395 117.663 251.04 117.729C248.417 117.735 245.863 118.537 243.737 120.022C242.644 120.812 241.795 121.877 241.284 123.1C240.772 124.323 240.617 125.659 240.836 126.961C241.192 129.266 242.422 131.5 244.991 131.94C246.408 132.135 247.853 132.004 249.208 131.559C250.618 130.931 251.818 129.935 252.675 128.684C253.509 127.681 254.016 126.461 254.132 125.179C254.248 123.898 253.968 122.611 253.327 121.484C251.999 119.012 249.442 117.301 246.995 115.947C245.487 115.05 243.819 114.434 242.077 114.129C239.941 113.781 237.776 113.622 235.61 113.653C229.21 113.743 222.91 115.209 217.168 117.943C212.398 120.319 206.767 124.276 205.206 129.48C204.234 132.688 206.325 135.658 208.894 137.429C212.287 139.722 216.603 140.72 220.623 141.421C229.755 142.939 239.06 143.231 248.274 142.288C253.61 141.789 258.81 140.482 264.171 140.114C269.346 139.64 274.568 140.042 279.6 141.302C286.178 143.12 291.428 147.54 297.87 149.62C305.247 151.996 313.202 150.523 320.148 147.576C330.918 142.901 340.804 136.519 349.397 128.696C353.83 124.838 357.73 120.445 361.003 115.626C362.487 113.335 363.723 110.902 364.691 108.366C365.191 107.355 365.428 106.242 365.38 105.122C365.225 103.948 364.806 102.82 364.151 101.819C363.421 100.684 362.428 99.7289 361.25 99.0297C360.072 98.3305 358.741 97.9064 357.364 97.7914C354.008 97.5181 350.614 99.2885 347.885 101.023C342.389 104.528 338.86 109.744 335.59 115.139C332.652 120.046 329.922 125.072 326.603 129.741C323.627 133.936 320.013 138.166 315.144 140.352C312.725 141.433 310.051 141.872 307.399 141.623C306.44 141.54 304.214 141.409 303.636 140.732C303.139 139.862 302.794 138.919 302.616 137.94C302.366 137.076 302.165 136.199 302.014 135.314C300.784 127.959 303.403 120.485 306.931 114.069C308.746 110.825 310.8 107.712 313.079 104.754C315.261 101.624 317.801 98.7426 320.652 96.1636C323.373 93.8943 326.9 92.7355 330.488 92.9317C332.104 93.0367 333.666 93.5398 335.025 94.3932C336.598 95.4626 336.795 97.6726 336.254 99.336C335.16 102.901 331.644 104.802 328.152 105.526C323.615 106.477 318.992 105.134 314.824 103.423C312.727 102.572 310.676 101.621 308.677 100.572C306.822 99.5015 305.113 98.2124 303.587 96.7339C300.622 94.2139 298.324 91.0441 296.887 87.4899C295.94 84.8284 295.252 80.242 297.735 78.1271C298.799 77.3494 300.1 76.9335 301.434 76.9442C302.768 76.955 304.061 77.3918 305.112 78.1865C306.146 79.1553 306.955 80.3259 307.485 81.6203C308.263 83.1965 308.86 84.8499 309.267 86.5512C310.061 89.9889 310.269 93.5287 309.882 97.0309C309.29 103.434 307.109 109.604 303.526 115.02L304.755 114.699C295.522 110.243 283.854 105.764 278.863 96.4131C277.558 93.9784 276.875 91.2773 276.871 88.5355C276.742 87.4896 276.953 86.4309 277.474 85.5056C278.214 84.5608 279.241 83.863 280.412 83.5095C281.698 83.0508 283.119 83.093 284.374 83.6273C285.628 84.1616 286.619 85.1461 287.137 86.373C287.739 87.7738 287.997 89.2902 287.89 90.8034C287.783 92.3166 287.315 93.7853 286.522 95.0942C282.711 102.033 273.478 102.96 266.249 101.724C262.648 101.003 259.102 100.042 255.638 98.8489C251.95 97.7438 248.409 96.5794 244.77 95.5219C240.946 94.4288 237.073 93.4545 233.188 92.5515C230.238 91.8742 225.922 91.2921 225.123 87.8582C224.929 86.5204 225.075 85.1569 225.548 83.8858C226.022 82.6147 226.808 81.4742 227.84 80.5629C229.942 78.6499 233.643 78.7806 236.348 79.0182C242.353 79.6959 247.896 82.4673 251.938 86.8126C255.761 90.8406 259.093 97.3042 257.741 102.924C256.987 105.921 255.333 108.637 252.989 110.729C250.644 112.822 247.712 114.199 244.561 114.687C237.755 115.774 230.77 115.013 224.385 112.489C221.212 111.215 218.221 109.554 215.484 107.546C214.094 106.53 212.772 105.431 211.525 104.255C210.067 103.146 208.893 101.727 208.095 100.108C207.124 97.3874 209.251 94.8447 211.439 93.3713C213.603 91.8902 216.255 91.2304 218.89 91.5178C232.328 92.5515 244.598 98.6468 255.22 106.406C265.843 114.164 275.371 123.789 284.58 133.282C286.301 135.053 288.575 136.645 291.157 135.563C293.481 134.589 294.846 132.165 295.768 130.003C298.227 124.216 295.288 118.596 291.108 114.343C288.945 112.159 286.459 110.297 283.731 108.818C282.699 108.259 281.764 109.804 282.809 110.362C286.094 112.127 288.992 114.491 291.342 117.325C293.592 120.093 295.584 123.872 294.686 127.484C294.12 129.765 292.375 134.185 289.362 134.149C287.469 134.149 286.117 132.26 284.936 131.06L281.137 127.163C270.97 116.838 260.236 106.643 247.561 99.2291C241.322 95.4878 234.514 92.7173 227.385 91.0188C223.991 90.1591 220.504 89.6924 216.996 89.6286C214.321 89.7696 211.764 90.7405 209.706 92.3971C208.647 93.1153 207.768 94.0518 207.13 95.1388C206.492 96.2258 206.112 97.4362 206.017 98.6825C206.017 102.021 208.992 104.469 211.328 106.513C216.749 111.329 223.399 114.663 230.594 116.172C234.187 116.892 237.866 117.116 241.524 116.838C244.941 116.725 248.284 115.842 251.286 114.259C254.129 112.58 256.442 110.18 257.974 107.321C259.488 104.607 260.073 101.5 259.646 98.4449C258.11 86.3374 245.618 76.4399 233.053 77.1884C230.029 77.3667 227.533 77.9489 225.602 80.3371C223.862 82.3834 223.015 85.0046 223.242 87.6444C223.672 90.8406 226.389 92.611 229.389 93.4783C233.422 94.6665 237.59 95.4031 241.684 96.5081C245.778 97.6131 249.725 98.8845 253.72 100.073C257.668 101.454 261.711 102.57 265.818 103.411C273.047 104.6 282.158 103.982 286.928 97.8508C290.309 93.5021 291.563 85.5769 285.92 82.2738C281.801 79.8975 275.371 82.4996 275.125 87.3117C274.486 99.8588 285.883 107.285 296.112 112.442C298.682 113.737 301.301 114.949 303.895 116.196C304.103 116.301 304.344 116.328 304.571 116.271C304.798 116.214 304.995 116.077 305.124 115.887C312.021 105.633 314.96 90.2227 308.271 79.2083C307.716 78.1685 306.914 77.2703 305.931 76.5868C304.949 75.9034 303.813 75.454 302.616 75.2755C301.492 75.0744 300.335 75.1285 299.236 75.4337C298.137 75.7389 297.126 76.2867 296.284 77.034C294.292 78.9826 294.108 82.3332 294.452 84.8997C295.034 88.3218 296.54 91.535 298.817 94.215C303.735 100.382 310.915 104.338 318.574 106.56C325.115 108.461 334.053 107.891 337.545 101.249C338.774 98.8726 339.033 95.4388 336.955 93.4189C334.877 91.399 331.226 90.9 328.533 91.1257C321.291 91.7317 316.927 97.1379 312.796 102.306C304.374 112.857 296.088 127.436 301.829 140.958C302.087 141.576 302.235 142.146 302.862 142.431C303.457 142.674 304.08 142.846 304.718 142.942C306.063 143.257 307.441 143.424 308.825 143.441C311.376 143.459 313.898 142.919 316.202 141.861C320.91 139.734 324.488 135.777 327.463 131.785C330.701 127.186 333.689 122.427 336.414 117.527C339.574 112.168 342.856 106.679 348.168 103.031C351.008 101.094 354.819 98.8607 358.409 99.7043C359.775 100.032 361.009 100.749 361.949 101.761C362.889 102.774 363.493 104.036 363.683 105.384C363.594 106.579 363.242 107.741 362.651 108.794C362.104 110.091 361.472 111.353 360.757 112.572C359.293 115.088 357.602 117.473 355.704 119.701C347.971 128.886 337.852 136.336 327.242 142.146C319.865 146.198 311.886 149.703 303.169 148.895C296.444 148.265 291.293 144.142 285.354 141.481C275.851 137.251 265.265 137.702 255.183 139.401C251.361 140.1 247.497 140.568 243.614 140.803C238.898 141.021 234.172 140.966 229.463 140.637C224.632 140.401 219.847 139.603 215.214 138.261C212.251 137.334 208.427 135.884 207.173 132.807C205.193 127.995 211.82 123.183 215.349 120.925C220.515 117.863 226.35 116.011 232.389 115.519C236.409 115.139 241.438 114.949 245.077 116.826C247.684 118.169 250.843 119.915 252.011 122.707C252.257 123.421 252.351 124.176 252.287 124.926C252.224 125.676 252.004 126.406 251.641 127.072C251.278 127.738 250.78 128.326 250.176 128.801C249.572 129.276 248.875 129.628 248.126 129.836C246.651 130.145 244.868 130.407 243.762 129.171C242.911 128.01 242.506 126.598 242.618 125.179C242.778 122.196 245.815 120.319 248.507 119.689C249.826 119.403 251.179 119.299 252.528 119.38C254.196 119.523 255.812 120.018 257.261 120.83C263.718 123.903 269.828 127.614 275.494 131.904C286.559 140.364 295.534 151.426 299.567 164.591C302.026 172.848 304.485 181.035 306.304 189.483C308.031 197.844 309.263 206.294 309.993 214.791C311.434 231.475 311.022 248.261 308.763 264.861C307.641 272.992 306.086 281.063 304.104 289.04C303.833 290.157 305.604 290.632 305.886 289.515L305.813 289.658Z" fill="black"></path><path d="M299.763 309.239C298.927 302.205 302.504 295.515 308.148 291.178C311.027 288.844 314.52 287.328 318.238 286.797C321.956 286.266 325.754 286.742 329.208 288.172C336.806 291.392 342.659 297.547 349.593 301.836C356.897 306.454 365.06 309.654 373.629 311.258C388.665 313.896 404.759 310.165 415.676 299.472C421.196 293.951 424.827 286.925 426.078 279.344C427.762 270.16 427.897 260.619 428.34 251.327C429.262 231.805 429.434 212.272 429.434 192.738C429.434 174.013 429.434 155.275 429.016 136.538C428.118 99.9656 425.045 62.9658 413.549 27.9028C412.32 24.1244 410.709 20.4055 409.787 16.532C409.025 13.3239 408.484 9.11779 411.017 6.45628C413.722 3.5809 419.734 3.48585 423.397 4.27004C427.061 5.05424 431.549 8.83263 429.434 12.9199C428.475 14.7735 426.25 15.6765 424.406 16.4845C422.143 17.5301 419.857 18.5044 417.521 19.3955C413.437 20.9876 409.237 22.2862 404.956 23.2808C396.276 25.2413 387.018 25.6572 378.522 22.6986C375.018 21.5105 371.563 19.4668 370.272 15.8785C369.926 15.1977 369.843 14.4195 370.039 13.6849C370.236 12.9502 370.698 12.3079 371.342 11.8744C373.039 10.8407 375.608 11.0783 377.489 11.1615C385.602 11.6192 393.353 14.5615 399.62 19.5618C413.144 30.1128 417.926 47.6622 415.197 63.8332C414.029 70.7008 411.177 81.6558 401.55 79.2082C392.378 76.915 390.485 67.1007 389.882 59.2587C389.649 56.0031 389.329 52.3792 390.829 49.3375C392.329 46.2958 395.833 45.5472 398.095 48.1493C400.357 50.7514 400.861 54.3278 400.898 57.4289C401.029 60.6016 400.524 63.7688 399.411 66.7561C398.181 69.7741 395.526 72.2811 391.911 71.6395C388.296 70.9979 385.764 67.2789 384.067 64.2847C381.989 60.4826 380.452 56.3596 378.719 52.403C376.85 48.1137 375.03 43.8244 373.1 39.5469C370.334 33.2971 366.707 25.8829 359.576 23.3759C354.4 21.5461 347.085 22.6273 344.405 27.8197C342.696 31.1347 343.556 34.8536 345.056 38.0736C346.886 41.6366 348.939 45.0887 351.203 48.4107C355.371 55.0764 359.674 61.6707 364.408 67.9799C373.395 79.9686 384.079 91.1612 397.689 98.314C404.968 102.14 413.144 105.3 421.381 102.52C429.385 99.823 435.606 93.5019 441.311 87.7155C447.592 81.3715 453.402 74.6058 458.695 67.469C462.912 61.7182 467.105 53.6862 462.15 47.0918C461.238 45.8626 460.016 44.879 458.6 44.2343C457.185 43.5897 455.622 43.3054 454.06 43.4085C450.495 43.6818 447.323 45.7848 444.864 48.1612C442.094 50.9488 439.91 54.2294 438.434 57.821C436.909 61.3262 435.901 65.4016 437.094 69.1443C437.563 70.7208 438.409 72.1683 439.565 73.3697C440.72 74.5711 442.152 75.4926 443.745 76.0595C447.298 77.1645 450.556 75.4416 453.273 73.3505C461.191 67.2433 468.765 60.6726 476.486 54.3397L499.452 35.3883L511.464 25.5384C514.574 22.9838 518.3 20.5243 520.488 17.1142C524.545 10.805 518.791 4.3057 511.882 4.15124C507.665 4.05618 503.694 5.83844 500.079 7.71576C496.514 9.43645 493.249 11.6855 490.403 14.3814C485.62 19.2292 483.137 27.5226 488.288 33.0238C490.747 35.6616 494.436 36.8616 497.89 37.9072C501.751 39.0954 505.661 40.1252 509.62 40.9965C524.644 44.2877 540.491 45.3808 555.687 42.4342C563.13 41.0414 570.294 38.5063 576.908 34.9249C580.114 33.1679 583.147 31.1317 585.969 28.8415C587.199 27.9028 588.354 26.8216 588.133 25.2057C587.935 24.4712 587.568 23.7894 587.059 23.2113C586.55 22.6331 585.913 22.1736 585.195 21.8669C570.441 13.3833 551.679 16.4251 535.869 20.0252C527.004 22.0333 518.25 24.3977 509.337 26.1562C499.473 28.1283 489.484 29.4581 479.436 30.1366C469.551 30.7984 459.624 30.6274 449.769 29.6257C445.392 29.1623 440.475 28.7108 436.811 26.0611C433.43 23.6848 431.426 19.146 434.045 15.5221C436.504 12.1595 441.249 10.7694 445.282 10.5436C449.406 10.3313 453.518 11.1497 457.22 12.9199C464.929 16.6033 470.031 23.8868 472.293 31.7406C474.583 39.7526 474.122 48.2664 470.978 56.0031C467.695 63.9758 461.277 69.7859 454.613 75.1921C448.319 80.3013 442.184 85.3986 436.995 91.6127C432.219 97.3567 428.128 103.602 424.799 110.231C417.989 124.122 413.702 139.041 412.123 154.336C407.882 190.861 416.857 227.195 422.512 263.102C423.742 270.979 425.229 279.011 424.639 287.008C424.123 293.828 421.775 300.993 415.418 304.747C412.209 306.648 408.337 307.753 406.087 310.855C404.242 313.397 403.923 316.795 406.308 319.077C407.764 320.297 409.386 321.32 411.127 322.118C413.267 323.267 415.439 324.348 417.643 325.362C421.589 327.165 425.636 328.751 429.766 330.115C445.368 335.26 463.084 337.755 479.449 334.867C486.405 333.816 493.023 331.248 498.8 327.358C501.376 325.558 503.638 323.372 505.501 320.883C507.419 318.292 509.755 314.597 509.066 311.258C508.378 307.92 504.271 306.672 501.296 305.52C488.617 300.674 475.096 298.217 461.462 298.284C461.217 298.284 460.982 298.378 460.81 298.545C460.637 298.712 460.539 298.938 460.539 299.175C460.539 299.411 460.637 299.638 460.81 299.805C460.982 299.972 461.217 300.066 461.462 300.066C471.102 300.024 480.704 301.259 489.997 303.737C494.614 304.948 499.134 306.481 503.521 308.324C505.845 309.322 507.726 310.569 507.21 313.373C506.78 315.213 505.996 316.959 504.898 318.518C497.202 330.59 480.58 334.107 466.92 334.19C448.444 334.34 430.217 330.062 413.869 321.738C410.304 319.897 404.365 317.568 407.095 312.72C409.148 309.096 413.845 308.122 417.152 305.912C422.623 302.252 425.217 296.216 426.102 290.038C427.135 282.909 426.102 275.661 425.106 268.544C423.693 258.943 422.008 249.39 420.348 239.837C417.053 220.827 413.808 201.816 412.972 182.556C411.668 151.663 417.373 118.252 437.868 93.4425C442.989 87.5293 448.714 82.1314 454.958 77.3309C461.339 72.1742 467.72 66.7323 471.42 59.3775C478.33 45.666 476.547 27.0117 464.818 16.1756C462.1 13.6218 458.846 11.6633 455.275 10.4331C451.705 9.20301 447.902 8.73009 444.126 9.04651C437.708 9.71188 429.299 13.8586 431.094 21.356C433.024 29.3762 442.602 30.8614 449.671 31.5743C459.526 32.576 469.452 32.747 479.338 32.0852C488.887 31.4381 498.385 30.2119 507.775 28.4137C516.972 26.6671 525.996 24.2789 535.094 22.1758C543.54 20.2153 552.147 18.5281 560.913 18.4093C565.313 18.3088 569.708 18.7479 573.994 19.7163C575.801 20.1302 577.576 20.6662 579.306 21.3203C581.26 22.057 584.223 23.0313 585.686 24.6116C587.408 26.5245 583.227 28.8177 581.998 29.7801C580.473 30.8653 578.908 31.8753 577.301 32.81C573.949 34.7559 570.418 36.3986 566.753 37.7171C559.48 40.2912 551.86 41.832 544.13 42.2916C528.369 43.3372 512.337 40.7945 497.411 36.0537C493.526 34.8655 489.309 33.0833 487.87 29.0316C487.269 27.0873 487.158 25.0324 487.545 23.038C487.932 21.0436 488.807 19.1674 490.096 17.5657C492.628 14.1913 496.329 11.8387 500.042 9.83071C503.939 7.72764 508.55 5.35129 513.185 6.0642C516.873 6.65828 520.832 9.75941 519.996 13.7754C519.16 17.7915 514.341 20.9045 511.23 23.4591L488.252 42.3035L464.757 61.5757C460.933 64.7243 457.122 67.873 453.273 70.9979C449.917 73.7307 445.786 76.1902 441.827 72.9227C434.45 66.863 440.487 55.1001 445.81 49.7296C448.405 47.1156 452.142 44.4779 456.126 45.2145C460.109 45.9512 462.273 49.7177 462.543 53.401C462.826 57.7735 460.453 61.8014 457.982 65.2828C455.277 69.1206 452.314 72.8039 449.265 76.4041C443.697 83.2266 437.463 89.5171 430.651 95.1891C427.333 98.0195 423.407 100.105 419.156 101.296C414.472 102.484 409.824 101.522 405.41 99.823C398.065 96.8721 391.267 92.7825 385.284 87.7155C373.199 77.7111 364.015 64.8788 355.691 51.9039C353.527 48.5414 351.425 45.1432 349.335 41.7451C347.122 38.1805 344.159 33.511 345.892 29.1742C348.474 22.6986 358.064 23.4472 362.687 27.0473C365.776 29.6953 368.216 32.9748 369.83 36.6478C371.748 40.5212 373.383 44.5373 375.104 48.5295C377.022 52.902 378.932 57.2586 380.833 61.5994C382.08 64.801 383.927 67.7534 386.28 70.3087C387.291 71.4458 388.583 72.3176 390.036 72.8431C391.489 73.3687 393.056 73.5309 394.591 73.3148C395.921 73.0244 397.162 72.4382 398.217 71.6029C399.271 70.7675 400.109 69.706 400.665 68.5027C403.27 62.9244 403.629 56.6078 401.673 50.7871C400.837 48.4107 399.386 45.9155 396.755 45.0363C395.549 44.6602 394.252 44.661 393.047 45.0385C391.841 45.4161 390.79 46.1512 390.042 47.1394C388.247 49.4206 387.866 52.5812 387.841 55.3496C387.819 59.2663 388.231 63.1739 389.071 67.0056C390.583 73.7426 395.071 80.2656 402.681 81.1924C410.599 82.1548 414.373 75.2515 416.008 68.8829C419.918 53.6149 417.533 36.2676 406.898 23.9462C402.084 18.3798 395.856 14.1176 388.825 11.5773C385.346 10.3332 381.696 9.59253 377.993 9.37919C374.932 9.21285 370.506 8.93958 368.699 11.91C367.285 14.2151 368.465 17.0904 369.928 19.0391C371.967 21.5794 374.779 23.4371 377.969 24.3502C386.01 27.1186 394.776 27.0117 403.062 25.4195C411.509 23.8101 419.657 20.9823 427.233 17.031C430.147 15.4864 432.151 13.0031 431.573 9.66436C431.225 8.02904 430.418 6.5178 429.241 5.29604C428.063 4.07429 426.561 3.18909 424.897 2.73731C421.107 1.69682 417.083 1.7588 413.328 2.91553C411.901 3.35069 410.618 4.14423 409.611 5.21509C408.605 6.28596 407.91 7.5958 407.599 9.01086C407.061 12.1942 407.331 15.456 408.386 18.5163C409.615 22.6155 411.201 26.5958 412.492 30.6713C417.927 48.2814 421.692 66.3329 423.742 84.6025C428.155 121.507 427.602 158.875 427.553 195.97C427.553 215.504 427.307 235.037 426.324 254.547C425.844 263.732 425.844 273.356 423.508 282.315C421.536 289.861 417.009 296.552 410.648 301.325C397.296 311.461 379.481 312.28 363.928 306.743C355.47 303.725 348.204 298.949 341.183 293.578C335.343 289.111 328.79 284.453 320.971 284.596C308.172 284.822 296.382 296.632 297.869 309.144C298.005 310.272 299.849 310.332 299.714 309.144L299.763 309.239Z" fill="black"></path><path d="M27.1191 289.267C35.3565 287.342 43.089 290.109 49.7772 294.945C56.4655 299.781 61.6293 305.924 67.5553 311.366C81.4236 324.103 99.8163 333.038 119.328 331.066C126.287 330.365 133.676 328.38 138.852 323.568C144.372 318.423 145.429 311.045 143.831 304.058C143.106 300.85 141.667 297.666 138.766 295.741C137.755 295.032 136.561 294.606 135.315 294.512C134.07 294.418 132.822 294.658 131.709 295.206C128.991 296.656 127.897 299.721 127.614 302.537C127.31 306.654 127.883 310.787 129.299 314.681C130.497 318.55 132.922 321.958 136.233 324.424C139.443 326.633 143.378 327.635 147.298 327.24C155.634 326.515 162.851 321.524 171.162 320.764C173.336 320.56 175.529 320.754 177.629 321.334C178.858 321.679 180.776 322.285 181.317 323.58C182.35 326.04 177.629 326.717 176.117 326.669C171.555 326.515 167.289 323.628 164.129 320.657C160.461 317.282 157.802 313.013 156.433 308.3C155.486 304.736 155.413 300.078 159.63 298.593C163.22 297.321 167.744 298.759 170.695 300.874C172.797 302.407 175.17 305.306 174.482 308.003C173.707 311.069 169.564 309.322 167.855 308.288C160.183 303.833 155.486 295.682 153.654 287.412C152.789 283.45 152.516 279.389 152.843 275.352C153.2 270.694 154.503 266.132 155.4 261.557C157.195 252.385 158.597 243.153 160.564 234.016C162.175 226.613 164.166 219.092 168.027 212.45C169.765 209.429 171.947 206.667 174.506 204.252C177.356 201.529 180.609 199.231 184.157 197.432C185.952 196.564 188.62 195.804 190.305 197.432C191.633 198.727 190.797 200.913 189.936 202.184C188.608 203.956 186.75 205.291 184.612 206.01C181.998 207.116 179.317 208.069 176.584 208.862C171.445 210.371 166.207 211.5 161.007 212.807L161.904 213.032C157.259 208.566 153.071 203.676 149.401 198.43C147.501 195.796 145.392 193.309 143.093 190.992C141.397 189.198 129.975 177.245 128.463 184.683C127.799 187.914 129.446 191.812 130.922 194.663C132.311 197.165 134.239 199.349 136.577 201.067C142.745 206.106 149.539 210.381 156.802 213.793C158.4 214.529 161.83 216.49 163.675 215.539C165.519 214.589 163.92 210.787 163.466 209.408C161.902 205.133 161.136 200.623 161.203 196.089C161.412 192.311 162.605 187.368 165.482 184.528C165.695 184.285 165.954 184.084 166.244 183.934C166.478 183.827 166.527 183.863 166.588 183.934C167.252 184.433 167.252 185.835 167.289 186.56C167.486 191.253 166.06 196.065 164.548 200.521C163.753 202.77 162.684 204.92 161.363 206.925C160.5 208.111 160.067 209.54 160.134 210.989C160.367 213.056 161.695 214.636 162.593 216.431C163.257 217.955 163.616 219.588 163.65 221.243C163.878 226.686 163.594 232.139 162.802 237.532C162.076 243.687 161.302 249.89 159.962 255.949C157.503 267.07 154.023 278.144 155.449 289.658C155.824 292.654 156.504 295.607 157.478 298.474C157.847 299.555 159.566 298.937 159.249 297.999C156.335 289.384 156.544 280.461 158.253 271.633C159.74 263.91 161.941 256.353 163.171 248.559C164.4 240.301 165.74 231.924 165.629 223.524C165.748 220.98 165.356 218.438 164.474 216.038C163.429 213.662 161.08 211.535 162.359 208.909C162.875 207.828 163.589 206.854 164.24 205.82C165.188 204.129 165.947 202.344 166.502 200.497C167.651 197.084 168.474 193.576 168.961 190.017C169.195 188.14 169.847 181.534 166.084 182.199C164.646 182.461 163.625 183.886 162.888 184.991C161.244 187.567 160.153 190.436 159.679 193.427C158.634 199.772 160.441 205.654 162.248 211.678C162.457 212.379 162.543 213.104 162.74 213.805C162.826 214.137 162.531 214.173 162.839 214.019H162.273C160.305 213.567 158.416 212.838 156.667 211.856C151.432 209.254 146.431 206.233 141.716 202.826C138.028 200.176 134.106 197.384 132.2 193.19C131.155 190.932 130 188.021 130.282 185.502C130.528 183.209 132.741 184.564 133.971 185.372C138.557 188.33 142.43 192.738 145.872 196.849C147.851 199.226 149.487 201.804 151.392 204.216C154.097 207.691 157.06 210.971 160.257 214.03C161.486 215.219 163.097 214.256 164.609 213.888C166.859 213.341 169.121 212.807 171.371 212.248C175.753 211.215 180.055 209.885 184.243 208.268C187.317 207.08 190.206 205.678 191.792 202.683C192.923 200.568 193.28 197.741 191.165 196.077C188.706 194.176 185.51 194.96 182.989 196.208C180.126 197.717 177.445 199.53 174.998 201.614C170.672 205.208 167.207 209.667 164.843 214.684C158.978 226.684 157.466 240.396 155.081 253.323C154.331 257.423 153.556 261.51 152.708 265.585C151.871 269.004 151.271 272.474 150.913 275.97C150.44 282.492 151.521 289.032 154.072 295.088C156.596 301.262 161.076 306.506 166.871 310.07C168.777 311.175 171.285 312.245 173.547 311.556C174.358 311.279 175.062 310.768 175.563 310.092C176.064 309.417 176.339 308.609 176.35 307.777C177.063 297.797 156.814 291.143 154.22 302.371C153.458 305.698 154.491 309.322 155.831 312.376C157.315 315.672 159.396 318.686 161.978 321.275C166.158 325.529 172.982 330.139 179.387 328.261C180.256 328.081 181.063 327.688 181.73 327.12C182.398 326.552 182.903 325.828 183.198 325.018C183.666 323.117 182.141 321.572 180.531 320.728C174.703 317.699 167.683 319.398 161.855 321.406C156.027 323.414 149.142 326.8 142.589 325.434C134.979 323.841 131.291 316.891 129.975 310.07C129.225 306.161 128.229 296.668 134.586 296.442C140.942 296.216 142.552 304.831 142.749 309.251C142.946 312.099 142.397 314.95 141.153 317.54C139.909 320.13 138.01 322.374 135.631 324.067C130.713 327.513 124.565 328.998 118.603 329.509C101.931 330.947 86.6365 324.352 73.8132 314.431C63.8914 306.708 56.4409 295.349 44.6995 289.967C39.1082 287.407 32.6676 286.218 26.6765 287.711C25.5208 287.972 25.9634 289.54 27.1191 289.267Z" fill="black"></path><path d="M298.202 308.431C298.215 309.951 297.626 311.418 296.554 312.53C295.468 313.327 294.206 313.868 292.866 314.111C288.625 315.218 284.252 315.786 279.858 315.798C274.86 315.579 269.906 314.782 265.105 313.421C260.261 312.233 255.269 311.14 250.56 309.584C247.327 308.526 243.011 306.791 240.933 303.999C239.065 301.492 244.216 301.623 245.569 301.718C248.696 302.009 251.801 302.497 254.863 303.179C259.396 304.043 263.937 304.886 268.486 305.71C286.608 309.001 305.702 312.031 323.984 308.217C328.562 307.252 333.018 305.81 337.274 303.916C338.774 303.251 340.704 302.431 340.778 300.589C340.852 298.985 339.45 297.714 338.147 296.941C334.987 295.076 330.942 295.753 327.623 296.823C323.714 298.233 319.972 300.041 316.459 302.217C309.39 306.411 302.751 312.067 299.247 319.457C295.989 326.254 295.214 334.452 298.411 341.403C299.177 343.051 300.161 344.596 301.337 346.001L301.743 344.516C297.528 345.287 293.168 344.48 289.546 342.258L289.325 343.886C292.706 343.138 296.05 342.235 299.333 341.165C302.456 340.306 305.477 339.131 308.345 337.66C310.201 336.591 311.812 334.773 311.234 332.551C310.656 330.329 308.542 329.331 306.599 328.701C304.583 328.159 302.528 327.762 300.452 327.513C298.189 327.133 295.927 326.769 293.665 326.42C288.993 325.707 284.297 325.054 279.588 324.626C275.955 324.143 272.272 324.123 268.633 324.566C265.719 325.066 264.33 326.943 265.24 329.866C265.949 331.869 267.447 333.521 269.408 334.464C270.503 334.955 271.691 335.22 272.897 335.242C274.104 335.265 275.302 335.044 276.416 334.595C280.608 333.121 284.555 330.163 287.874 327.323C296.481 320.016 301.066 309.809 304.079 299.353C304.142 299.125 304.109 298.881 303.987 298.676C303.865 298.471 303.663 298.322 303.427 298.26C303.191 298.199 302.939 298.231 302.726 298.349C302.514 298.467 302.359 298.662 302.296 298.89C299.837 307.279 296.493 315.667 290.481 322.297C288.136 324.847 285.496 327.127 282.612 329.093C279.182 331.47 274.104 335.141 269.863 332.658C267.945 331.541 264.945 327.382 268.264 326.468C270.92 325.731 273.994 326.028 276.711 326.194C284.69 326.814 292.628 327.857 300.489 329.319C302.541 329.549 304.566 329.967 306.537 330.567C307.728 330.883 308.744 331.638 309.365 332.67C309.98 334.108 308.812 335.296 307.644 336.02C304.873 337.499 301.93 338.656 298.878 339.466C295.595 340.536 292.251 341.427 288.882 342.187C288.708 342.234 288.551 342.329 288.432 342.461C288.313 342.593 288.237 342.756 288.213 342.93C288.19 343.104 288.22 343.28 288.299 343.438C288.379 343.595 288.505 343.726 288.661 343.815C292.722 346.246 297.587 347.096 302.271 346.191C302.426 346.147 302.566 346.066 302.679 345.954C302.791 345.842 302.871 345.704 302.912 345.554C302.953 345.403 302.953 345.245 302.912 345.094C302.87 344.943 302.79 344.806 302.677 344.694C297.452 338.361 297.243 329.497 300.083 322.119C303.156 314.194 309.918 308.17 317.295 303.809C320.851 301.559 324.668 299.721 328.668 298.332C330.629 297.622 332.732 297.358 334.815 297.559C336.499 297.785 340.962 299.876 338.036 301.563C333.839 303.726 329.33 305.268 324.66 306.138C319.872 307.185 314.995 307.801 310.091 307.98C300.433 308.175 290.779 307.474 281.26 305.888C272.531 304.617 263.851 302.954 255.207 301.278C252.293 300.655 249.346 300.179 246.38 299.852C244.241 299.674 241.056 299.437 239.458 301.159C237.86 302.882 239.593 305.247 241.155 306.506C244.067 308.758 247.409 310.433 250.99 311.437C255.798 312.839 260.691 314.039 265.56 315.216C270.177 316.503 274.935 317.265 279.735 317.485C284.005 317.479 288.258 316.969 292.399 315.964C294.919 315.406 297.685 314.669 299.075 312.4C299.755 311.152 300.129 309.77 300.169 308.36C300.267 307.172 298.423 307.172 298.325 308.36L298.202 308.431Z" fill="black"></path><path d="M461.449 298.426C447.261 298.486 433.528 302.359 420.705 308.051C407.439 313.932 395.427 321.738 383.132 329.307C376.53 333.383 368.489 337.624 360.498 334.892L361.137 335.985C363.363 328.689 374.502 330.472 380.206 331.458C400.557 334.957 420.414 340.751 439.368 348.722C443.056 350.29 446.745 352.393 450.876 352.892C453.999 353.284 457.49 352.298 458.474 349.066C459.384 346.037 457.367 342.65 454.626 341.189C450.937 339.193 446.4 340.001 442.442 340.856C435.532 342.112 428.718 343.815 422.045 345.953C419.255 346.795 416.605 348.019 414.176 349.589C412.75 350.587 411.078 352.12 411.14 353.986C411.213 356.611 414.828 358.477 416.93 359.356C420.19 360.752 423.779 361.273 427.319 360.865C430.43 360.437 434.438 358.489 433.356 354.817C432.778 352.892 431.02 351.253 429.729 349.72C428.229 347.969 426.668 346.278 425.045 344.646C418.646 338.23 411.36 332.701 403.394 328.214C397.603 324.958 387.964 320.325 389.206 312.423C389.857 308.241 393.595 305.187 397.271 303.322C401.688 301.275 406.395 299.874 411.238 299.163C419.906 297.583 429.04 296.585 436.565 291.761C439.891 289.704 442.597 286.835 444.409 283.444C446.22 279.547 447.222 275.344 447.359 271.075C448.06 260.88 447.999 250.591 448.134 240.372C448.282 229.845 448.318 219.318 448.245 208.791C448.109 187.689 447.605 166.575 446.56 145.508C446.204 138.177 445.515 130.157 441.224 123.86C438.212 119.428 433.59 117.111 428.819 114.83C424.049 112.549 418.578 109.911 413.131 109.091C411.73 108.877 409.517 108.639 408.521 109.923C407.181 111.657 407.636 114.604 408.312 116.481C410.365 122.232 415.529 126.914 420.151 130.799C424.295 134.28 428.758 137.928 433.983 139.734C440.555 141.971 447.579 142.687 454.49 141.825C462.261 140.72 466.945 134.696 470.35 128.339C472.01 125.226 473.793 120.937 470.461 118.216C469.28 117.365 467.877 116.848 466.41 116.722C464.942 116.596 463.468 116.867 462.15 117.503C458.634 119.119 456.912 123.016 456.003 126.438C454.731 131.174 453.806 135.99 453.236 140.851C452.571 145.92 452.205 151.021 452.142 156.131C452.255 160.04 452.128 163.952 451.761 167.846C451.306 171.09 450.384 174.619 447.9 177.007C444.581 180.215 439.786 179.942 435.839 178.041C431.34 175.878 427.725 172.349 424.049 169.117L412.172 158.685L400.062 148.051C396.816 145.2 393.595 142.11 389.476 140.506C386.046 139.128 382.014 139.08 379.333 141.896C377.047 144.273 377.022 147.695 377.895 150.677C379.046 154.114 380.87 157.305 383.268 160.076C386.194 163.699 389.169 167.311 392.316 170.769C403.984 183.566 420.274 195.245 438.95 192.822C453.913 190.873 463.613 179.324 472.072 168.357C476.436 162.689 480.678 156.903 485.94 151.901C489.813 148.182 502.39 137.643 505.488 147.362C507.874 154.836 499.907 162.915 492.124 161.62L492.776 162.713C494.86 157.219 498.02 152.165 502.083 147.825C505.771 143.857 510.812 139.508 516.701 139.449C518.008 139.394 519.312 139.59 520.54 140.024C521.768 140.458 522.895 141.123 523.857 141.98C525.996 144.059 526.451 147.124 526.242 149.94C525.736 154.897 523.442 159.523 519.762 163.01C511.328 171.423 499.206 173.407 487.563 173.312C481.084 173.312 474.629 172.575 468.15 172.468C462.666 172.385 457.207 173.229 453.052 176.936C446.56 182.746 444.593 192.382 442.737 200.366C440.984 208.06 439.683 215.843 438.839 223.678C437.118 239.541 436.774 256.056 440.315 271.716C442.774 282.707 448.122 295.86 460.392 299.425C461.749 299.805 462.953 299.839 464.36 299.973C465.589 300.092 465.777 298.533 464.547 298.415C451.257 297.036 445.208 283.871 442.417 272.786C438.507 256.983 438.888 240.111 440.61 224.071C441.451 216.054 442.793 208.095 444.63 200.236C445.504 196.279 446.616 192.375 447.962 188.544C449.683 183.791 452.277 178.967 456.9 176.389C462.47 173.288 469.564 174.286 475.686 174.631C482.291 175.171 488.927 175.243 495.542 174.844C506.226 173.93 516.861 170.092 523.451 161.537C526.471 157.756 528.106 153.113 528.098 148.336C527.963 143.334 525.061 139.211 519.91 138.035C514.759 136.859 509.742 138.985 505.734 142.039C501.202 145.582 497.402 149.919 494.534 154.824C493.126 157.205 491.93 159.697 490.956 162.274C490.892 162.5 490.923 162.743 491.043 162.947C491.162 163.152 491.361 163.303 491.595 163.367C498.493 164.495 505.292 159.802 507.222 153.422C507.75 151.843 507.885 150.166 507.618 148.527C507.351 146.889 506.689 145.333 505.685 143.988C503.312 141.16 499.329 141.302 496.108 142.514C489.862 144.891 484.624 150.273 480.358 155.085C475.871 160.147 471.936 165.636 467.744 170.924C463.551 176.211 459.138 181.237 453.667 185.087C447.505 189.479 439.957 191.671 432.311 191.289C413.869 190.338 399.804 177.15 388.8 163.961C386.031 160.922 383.561 157.641 381.423 154.158C379.85 151.342 378.19 147.338 379.85 144.225C382.026 140.126 387.091 141.065 390.509 142.895C394.64 145.116 397.997 148.574 401.464 151.616L424.332 171.708C429.889 176.591 437.72 183.803 445.921 180.37C452.068 177.803 453.519 170.733 453.888 164.923C454.146 160.919 453.888 156.903 454.072 152.887C454.254 147.862 454.738 142.851 455.523 137.88C456.047 133.385 457.048 128.954 458.511 124.656C459.851 121.21 462.605 117.931 466.797 118.489C476.547 119.796 464.498 134.922 460.834 137.5C455.548 141.243 447.851 140.649 441.741 139.663C438.519 139.213 435.373 138.354 432.385 137.108C430.25 136.052 428.242 134.773 426.397 133.294C421.184 129.758 416.547 125.489 412.639 120.628C410.953 118.616 409.869 116.195 409.504 113.63C409.504 112.941 409.431 111.491 409.996 110.98C410.562 110.469 411.459 110.719 411.951 110.754C414.297 111.047 416.592 111.642 418.774 112.525C421.504 113.499 424.172 114.652 426.803 115.887C431.204 117.943 435.987 120.046 438.987 123.931C443.573 129.872 444.274 137.928 444.642 145.093C445.159 155.002 445.491 164.935 445.761 174.856C446.327 194.921 446.507 214.993 446.302 235.073C446.204 245.117 446.007 255.153 445.712 265.181C445.466 273.629 445.06 282.576 437.942 288.505C431.475 293.9 422.66 295.397 414.582 296.822C406.504 298.248 396.816 299.638 390.841 305.769C389.596 306.956 388.638 308.393 388.034 309.979C387.431 311.564 387.197 313.259 387.349 314.942C387.872 318.015 389.49 320.814 391.923 322.855C394.615 325.163 397.577 327.157 400.751 328.796C404.504 330.856 408.132 333.122 411.619 335.581C415.254 338.19 418.696 341.041 421.922 344.112C425.236 347.1 428.234 350.4 430.872 353.962C434.118 358.714 426.336 359.451 423.237 359.13C420.139 358.809 416.143 357.716 413.881 355.352C413.156 354.603 412.787 353.95 413.279 352.976C413.79 352.149 414.498 351.452 415.344 350.944C417.746 349.441 420.353 348.269 423.09 347.462C429.431 345.473 435.894 343.866 442.442 342.65C446.314 341.866 451.515 340.607 454.822 343.47C455.558 344.057 456.123 344.82 456.462 345.682C456.8 346.545 456.901 347.478 456.753 348.389C456.497 349.21 455.971 349.928 455.254 350.432C454.536 350.936 453.668 351.199 452.781 351.181C448.761 351.395 444.901 349.114 441.36 347.617C437.007 345.755 432.606 344.009 428.155 342.377C419.042 339.039 409.745 336.187 400.308 333.834C395.587 332.67 390.837 331.624 386.059 330.697C382.011 329.788 377.903 329.152 373.764 328.796C368.268 328.511 361.186 329.604 359.404 335.497C359.342 335.726 359.375 335.968 359.494 336.174C359.613 336.38 359.81 336.533 360.043 336.602C366.694 338.836 373.567 336.602 379.469 333.501C385.776 330.198 391.603 326.016 397.677 322.344C410.082 314.847 423.102 307.956 437.167 303.856C445.05 301.516 452.146 300.217 460.392 300.131C460.636 300.131 461.965 300.103 462.138 299.936C462.311 299.769 462.408 299.542 462.408 299.306C462.408 299.069 462.311 298.843 462.138 298.676C461.965 298.508 461.731 298.415 461.486 298.415L461.449 298.426Z" fill="black"></path><path d="M427.676 109.768C433.455 101.237 441.692 94.3217 450.065 88.2621C459.352 81.6572 469.078 75.648 479.178 70.2731C483.715 67.8136 488.301 65.4491 492.924 63.1441C496.846 61.1717 501.813 58.6528 506.374 60.0311C506.971 60.2041 507.526 60.4908 508.006 60.8742C508.487 61.2576 508.883 61.7301 509.172 62.2637C509.461 62.7974 509.636 63.3814 509.688 63.9815C509.739 64.5816 509.666 65.1857 509.472 65.758C508.538 68.8235 505.624 70.5107 502.661 71.4375C499.492 72.3062 496.279 73.0161 493.035 73.5644C491.449 73.8852 489.518 74.4198 488.19 73.2079C487.724 72.7394 487.372 72.1764 487.159 71.5598C486.947 70.9432 486.879 70.2885 486.961 69.6434C487.342 66.6611 490.33 64.5699 492.739 63.0609C495.209 61.5226 497.875 60.3005 500.669 59.4251C506.38 57.7381 512.347 57.0107 518.312 57.2745C524.396 57.4771 530.457 58.1045 536.447 59.1518C542.078 60.0667 549.356 60.5776 553.45 64.9144C554.429 65.8752 555.155 67.0488 555.568 68.3367C555.981 69.6246 556.068 70.9895 555.823 72.3168C555.098 75.2397 552.135 76.7011 549.393 77.5804C542.807 79.5551 536.009 80.7988 529.132 81.2875C515.189 82.5469 501.161 81.8578 487.182 82.5945C476.393 82.998 465.706 84.7798 455.401 87.8937C445.971 90.9117 436.75 95.6406 430.258 103.09C428.687 104.895 427.292 106.836 426.09 108.889C425.996 109.09 425.983 109.317 426.052 109.527C426.122 109.738 426.27 109.915 426.467 110.026C426.664 110.137 426.897 110.173 427.121 110.128C427.344 110.082 427.542 109.958 427.676 109.78C433.43 100.025 443.499 93.8465 454.233 90.1631C465.63 86.2422 477.765 84.757 489.789 84.2223C504.887 83.5925 520.07 84.3886 535.082 82.3806C538.876 81.881 542.637 81.1669 546.344 80.2419C549.246 79.5171 552.381 78.7329 554.766 76.8794C559.29 73.3742 558.294 67.1957 554.606 63.4649C550.192 58.9973 542.889 58.3676 536.939 57.3933C530.466 56.2284 523.91 55.5531 517.329 55.3734C511.064 55.1778 504.814 56.0877 498.887 58.0587C496.042 59.0638 493.34 60.4132 490.846 62.0747C488.51 63.6669 486.113 65.6392 485.35 68.4671C485.038 69.5629 485.044 70.7211 485.37 71.8135C485.695 72.9059 486.327 73.8902 487.195 74.6575C489.654 76.618 493.157 75.3228 495.911 74.7644C501.592 73.5762 509.141 72.6376 511.218 66.4472C511.604 65.3455 511.676 64.1635 511.425 63.0259C511.174 61.8883 510.61 60.8372 509.792 59.9835C509.001 59.2768 508.071 58.7307 507.057 58.3776C506.043 58.0245 504.967 57.8716 503.891 57.928C498.629 57.928 494.055 60.6132 489.481 62.8945C478.654 68.2846 468.135 74.2341 457.97 80.7171C448.135 87.1095 438.299 94.2386 430.615 103.067C428.997 104.913 427.498 106.853 426.127 108.877C425.476 109.839 427.062 110.73 427.713 109.768H427.676Z" fill="black"></path><path d="M158.904 296.905C157.785 292.949 160.539 288.897 163.256 286.212C165.973 283.526 170.289 280.532 174.592 280.508C180.296 280.508 185.804 283.871 190.378 286.794C195.311 290.163 200.511 293.151 205.931 295.729C216.529 300.351 228.651 302.585 240.048 299.555C252.343 296.275 261.871 287.21 273.969 283.479C279.816 281.65 286.103 281.6 291.981 283.336C296.702 284.726 302.124 287.412 303.439 292.414C303.52 292.623 303.679 292.795 303.884 292.897C304.09 292.998 304.328 293.021 304.55 292.962C304.773 292.902 304.964 292.764 305.086 292.574C305.208 292.385 305.252 292.158 305.21 291.939C304.066 287.59 300.193 284.691 296.124 282.944C291.586 280.974 286.636 280.055 281.665 280.259C267.932 280.948 257.457 290.644 245.409 295.788C233.016 301.099 219.233 299.543 207.111 294.291C201.222 291.737 196.046 288.232 190.673 284.845C185.989 281.899 180.37 278.69 174.592 278.726C169.674 278.726 164.928 281.863 161.695 285.225C158.621 288.398 155.855 292.937 157.133 297.416C157.214 297.625 157.373 297.798 157.578 297.899C157.784 298 158.022 298.024 158.244 297.964C158.467 297.904 158.658 297.766 158.78 297.576C158.902 297.387 158.946 297.16 158.904 296.941V296.905Z" fill="black"></path><path d="M455.461 304.034C456.015 309.334 459.519 313.54 463.834 316.594C466.156 318.223 468.69 319.549 471.371 320.538C473.83 321.453 476.743 322.178 479.301 321.109C483.924 319.184 483.714 313.076 480.813 309.821C478.805 307.812 476.246 306.398 473.436 305.745C470.122 304.843 466.755 304.129 463.355 303.607C455.115 302.153 446.745 301.508 438.372 301.682C438.127 301.682 437.893 301.776 437.72 301.943C437.547 302.11 437.45 302.337 437.45 302.573C437.45 302.809 437.547 303.036 437.72 303.203C437.893 303.37 438.127 303.464 438.372 303.464C444.565 303.313 450.761 303.639 456.9 304.438C462.741 304.997 468.508 306.128 474.112 307.813C476.561 308.477 478.693 309.948 480.137 311.971C480.7 312.859 481.019 313.871 481.062 314.911C481.105 315.951 480.871 316.985 480.383 317.912C477.579 322.368 469.859 318.174 466.65 316.249C462.125 313.528 457.859 309.358 457.293 303.987C457.183 302.799 455.338 302.799 455.449 303.987L455.461 304.034Z" fill="black"></path></g></svg>