<svg xmlns="http://www.w3.org/2000/svg" width="717" height="425" viewBox="0 0 717 425" fill="none"><g clip-path="url(#clip0_1411_13543)"><ellipse cx="145" cy="111" rx="71" ry="45" fill="#FFDE03"></ellipse><path d="M341.912 236.21L433.644 252.888L383.608 60.042C371.818 120.867 341.912 236.21 341.912 236.21Z" fill="#F8F8F8"></path><path d="M210.568 191.615C155.73 205.324 116.013 218.128 64.0614 235.445C49.9615 240.145 63.8616 253.601 163.635 231.117C214.864 219.572 236.472 239.775 259.561 235.445C249.137 231.117 241.594 183.859 210.568 191.615Z" fill="#F8F8F8"></path><path d="M697.375 302.924C723.959 314.869 720.308 366.555 689.035 375.893C639.557 390.669 554.573 313.399 506.613 345.663C386.736 426.306 151.673 366.823 157.632 366.555C230.298 363.289 276.283 357.357 322.351 334.477L362.76 310.187C447.424 250.956 541.426 232.853 697.375 302.924Z" fill="#F8F8F8"></path><path d="M121.075 149.003C78.3625 159.681 44.0806 170.922 3.61669 184.41C-7.36551 188.07 3.46105 198.551 81.1726 181.038C121.075 172.046 173.902 173.17 191.886 169.798C166.596 161.93 145.241 142.962 121.075 149.003Z" fill="#F8F8F8"></path><path d="M21.3696 177.499C65.1509 180.627 168.827 144.375 144.845 160.463C120.863 176.552 141.597 123.265 141.597 123.265C139.772 123.265 137.132 120.423 141.597 120.423C144.011 120.423 142.409 113.522 142.409 113.522C142.409 113.522 140.787 111.153 144.845 109.462C149.716 107.432 146.063 102.967 148.093 102.967C150.122 102.967 147.802 106.771 150.934 108.65C154.994 111.086 156.212 112.71 147.281 112.71C144.428 112.71 148.499 114.74 152.558 114.74C156.618 114.74 153.37 119.611 153.37 119.611C153.37 119.611 157.443 119.205 156.212 121.641C154.981 124.077 152.599 121.315 152.558 124.483C152.371 139.194 164.129 153.989 178.134 160.463C198.721 169.98 299.721 181.097 290.89 172.576C282.059 164.055 268.474 176.947 244.336 189.436C216.105 204.043 175.616 225.571 132.697 230.438C94.2127 234.802 39.7579 239.53 21.3696 226.5C-19.754 197.359 80.9 183.506 184.5 181.5C236.918 180.485 309.201 193.359 351.5 181.5" stroke="black" stroke-width="2" stroke-linecap="round"></path><path d="M364.324 337.323C383.608 363.384 346.603 395.177 317.936 350.353C308.725 335.95 258.519 264.876 236.628 228.912M236.628 228.912C236.628 228.912 333.414 216.403 364.324 216.403C364.324 216.403 360.699 229.654 354.421 234.943C339.306 247.676 383.608 56.9141 383.608 56.9141M236.628 228.912L437.814 254.817M383.608 56.9141L437.814 254.817M383.608 56.9141L511.304 182.653M538.928 211.376L511.304 182.653M714.053 136.137L665.06 311.263C628.576 325.857 570.198 240.223 472.214 254.817M714.053 136.137C714.053 136.137 635.872 154.257 608.77 161.155C581.667 168.054 511.304 182.653 511.304 182.653M714.053 136.137L437.814 254.817M472.214 254.817C399.714 265.615 361.272 311.263 306.47 344.62C258.519 373.808 175.126 386.317 119.878 368.596M472.214 254.817H437.814" stroke="black" stroke-width="2" stroke-linecap="round" stroke-linejoin="round"></path></g><defs><clipPath id="clip0_1411_13543"><rect width="717" height="424.043" fill="white"></rect></clipPath></defs></svg>