<svg xmlns="http://www.w3.org/2000/svg" width="1920" height="1080" viewBox="0 0 1920 1080" fill="none"><rect width="1920" height="1080" fill="white"></rect><path d="M409.093 558.754C406.714 551.972 403.983 537.742 403.43 534.795C403.361 534.428 403.296 534.071 403.231 533.703C381.003 407.224 473.133 258.221 628.116 218.738C783.324 179.197 974.528 209.267 1039.74 351.119L1045.5 368.254" stroke="#7B1FA2" stroke-width="49"></path><path d="M361.408 576.254C358.314 569.084 355.592 554.087 354.816 549.57C354.666 548.693 354.519 547.816 354.371 546.939C329.007 395.988 430.388 224.248 610.616 176.887C785.481 130.936 996.942 166.344 1079.14 322.114C1084.71 332.668 1088.27 344.115 1090.78 355.74V355.74" stroke="#69F0AE" stroke-width="49"></path><path d="M314.246 594.254C313.476 592.804 312.845 591.139 312.329 589.411C309.583 580.223 309.173 570.53 308.024 561.035C286.815 385.877 402.051 190.066 601.601 135.012C799.041 80.5394 1030.19 126.612 1123.44 308.814C1130.57 322.74 1133.84 338.219 1134.5 353.754V353.754" stroke="#FFDE03" stroke-width="49"></path><path d="M270.229 618.254C266.505 612.57 264.306 602.164 263.345 596.616C262.916 594.143 262.562 591.668 262.186 589.187C231.377 385.851 355.637 152.534 584.262 88.0562C804.367 25.9812 1077.76 93.1843 1167.28 296.37C1175.39 314.779 1178.83 334.776 1180 354.754V354.754" stroke="#FF0266" stroke-width="49"></path><path d="M669.962 520.43C424.483 553.542 253.613 627.393 253.613 713.184C253.613 829.899 569.872 924.516 959.997 924.516C1350.12 924.516 1666.38 829.899 1666.38 713.184C1666.38 654.447 1586.29 601.308 1456.99 563.007M719.515 514.414C794.577 506.284 875.557 501.852 959.997 501.852C963.241 501.852 966.48 501.858 969.713 501.871" stroke="black" stroke-width="4"></path><path d="M664.618 503.649C386.206 539.772 190.457 625.421 190.457 725.329C190.457 857.875 534.992 965.325 959.997 965.325C1385 965.325 1729.54 857.875 1729.54 725.329C1729.54 651.227 1621.85 584.969 1452.62 540.945M715.144 497.738C792.059 489.693 874.396 485.334 959.997 485.334C963.241 485.334 966.48 485.34 969.714 485.352" stroke="black" stroke-width="4"></path><path d="M189 722.9V806.659C189 854.659 217.196 898.492 262.069 915.533C696.916 1080.66 1249.94 1073.42 1658.39 915.746C1702.8 898.604 1730.51 855.042 1730.51 807.441V722.9" stroke="black" stroke-width="4"></path><path d="M1357.4 707.84C1357.4 736.539 1383.18 796.992 1373.43 818.121C1359.67 847.956 1295.27 848.336 1270.92 848.336C1229.34 848.336 1292.79 802.907 1292.79 733.682C1292.79 664.458 1236.14 594.643 1277.73 594.643C1294.25 594.643 1323.12 569.409 1335.54 585.899C1354.38 610.925 1357.4 666.111 1357.4 707.84Z" fill="#F8F8F8"></path><path d="M1449.22 517.398C1449.22 552.196 1493.59 718.849 1482.26 746.705C1458.94 762.738 1420.72 765.652 1374.4 765.652C1340.31 765.652 1348.41 617.846 1322.91 565.98C1317.18 501.708 1294.24 486.306 1271.9 480.962C1249.55 475.617 1255.15 418.104 1258.78 397.4C1264.44 375.856 1313.5 376.426 1358.86 362.907C1366.79 360.545 1371.33 402.292 1374.4 423.635C1389.52 439.152 1387.51 421.697 1399.18 434.809C1412.72 450.018 1395.46 473.374 1406.95 495.536C1421.54 523.653 1449.22 490.899 1449.22 517.398Z" fill="#F8F8F8"></path><path d="M1038.38 589.172C1052.46 667.866 1056.95 712.66 1058.49 793.83M1058.49 793.83C976.615 813.377 939.406 812.598 900.01 780.988C898.006 779.38 896.956 776.839 897.149 774.277C903.463 690.323 909.839 640.885 924.11 554.8C924.474 552.605 925.741 550.633 927.598 549.408L970.32 521.21M1058.49 793.83L1073.96 795.587L1169.87 806.482L1187.66 808.503M970.32 521.21L976.248 534.826C977.369 537.399 979.787 539.202 982.571 539.563C1084.05 552.72 1144.76 553.762 1253.4 551.33C1309.7 542.677 1342.54 535.572 1398.04 522.653C1401.66 521.811 1404.23 518.58 1404.23 514.863V500.358M970.32 521.21C968.739 498.038 968.774 481.726 969.982 453.172C970.163 448.899 973.686 445.526 977.963 445.526H997.004M1404.23 500.358L1440.52 509.931C1443.41 510.692 1445.64 513.028 1446.29 515.944C1465.62 602.631 1473.8 654.341 1480.28 743.348C1480.58 747.444 1477.72 751.112 1473.67 751.809L1368.65 769.889M1404.23 500.358C1404.86 471.208 1401.69 462.412 1396.97 435.247C1396.25 431.062 1392.41 428.114 1388.19 428.563L1368.04 430.703C1363.38 431.199 1360.14 435.583 1361.03 440.187L1363.19 451.255C1364.06 455.714 1361.04 460.001 1356.55 460.691L1342.75 462.812C1338.29 463.496 1334.15 460.369 1333.59 455.898L1332.6 447.926C1332.02 443.299 1327.62 440.147 1323.05 441.082L1308.51 444.061C1304.46 444.891 1301.71 448.672 1302.16 452.783L1303.66 466.248C1304.11 470.284 1301.47 474.016 1297.51 474.928L1284.08 478.022C1279.07 479.177 1274.29 475.37 1274.29 470.226V463.811C1274.29 458.074 1268.44 454.254 1263.05 456.215C1251.96 460.249 1243.01 461.783 1231.91 459.533C1226.46 458.427 1220.92 462.232 1220.92 467.793V472.279C1220.92 476.697 1217.34 480.279 1212.92 480.279H1196.43C1192.02 480.279 1188.43 476.697 1188.43 472.279V461.725C1188.43 456.592 1183.67 452.84 1178.61 453.667C1168.67 455.289 1160.65 455.184 1150.92 452.503C1145.45 450.995 1139.71 454.817 1139.71 460.493V465.328C1139.71 469.747 1136.12 473.328 1131.71 473.328H1114.45C1110.03 473.328 1106.45 469.747 1106.45 465.328V458.221C1106.45 453.223 1101.92 449.496 1096.95 450.064C1086.91 451.213 1078.85 450.685 1068.89 448.356C1063.67 447.134 1058.49 450.935 1058.49 456.301V462.239C1058.49 466.657 1054.91 470.239 1050.49 470.239H1031.69C1027.27 470.239 1023.69 466.657 1023.69 462.239V455.823C1023.69 450.603 1018.8 447.087 1013.6 447.543C1009.27 447.923 1004.47 447.475 997.004 445.526M1368.65 769.889L1376.19 815.765C1376.76 819.248 1374.96 822.714 1371.77 824.229C1298.56 859.031 1257.89 855.998 1192.11 823.835C1189.39 822.504 1187.66 819.718 1187.66 816.688V808.503M1368.65 769.889L1333.17 586.107C1332.28 581.518 1327.67 578.67 1323.21 580.078C1298.89 587.765 1276.02 597.437 1220.92 589.172M1187.66 808.503L1207.77 642.461M997.004 445.526C998.224 423.27 1000.41 409.723 1007.94 385.544C1008.6 383.414 1010.14 381.656 1012.17 380.724C1043.19 366.452 1063.71 360.821 1101.01 353.772C1101.54 353.674 1102.08 353.626 1102.61 353.633C1184.61 354.647 1243.88 354.397 1353.51 360.99C1356.98 361.199 1359.95 363.625 1360.81 366.989L1367.87 394.554L1371.74 427.763M1058.49 392.238C1109.83 398.125 1144.73 399.666 1220.92 398.416M1253.4 435.486C1251.09 420.085 1251.16 410.854 1252.86 396.54C1253.18 393.856 1254.88 391.516 1257.34 390.401C1281.15 379.626 1296.3 379.074 1322.24 377.564M941.702 577.588C968.329 588.495 983.007 590.136 1008.99 589.172" stroke="black" stroke-width="4"></path><path d="M1252.08 259.315L1165.87 292.668L1180.09 201.332L1252.08 259.315Z" fill="#FFDE03"></path><path d="M1183.87 372.084V278.522M1183.87 278.522V228.962C1183.87 226.804 1186.08 225.351 1188.06 226.209L1233.61 245.92C1235.9 246.913 1236.05 250.113 1233.85 251.308L1183.87 278.522Z" stroke="black" stroke-width="4" stroke-linecap="round"></path><path d="M900 721.957C762.091 695.042 656.103 708.413 595.564 756.467C595.425 756.577 595.27 756.679 595.113 756.763C544.129 784.236 545.885 760.946 559.831 739.05C570.093 726.843 571.916 726.093 581.734 730.325C582.363 730.596 582.893 731.084 583.158 731.716C590.043 748.174 555.623 765.986 499 763.957" stroke="black" stroke-width="4" stroke-linecap="round"></path><path d="M781.264 621.302C790.12 642.741 760.229 629.037 728.652 642.081C697.075 655.125 672.076 692.257 663.22 670.818C654.363 649.379 667.896 610.472 699.473 597.428C731.05 584.383 772.407 599.863 781.264 621.302Z" fill="#F8F8F8"></path><path d="M657.03 723.872C629.984 678.107 632.871 593.81 712.294 576.648C795.455 558.679 838.754 655.5 844.928 714.587" stroke="black" stroke-width="4" stroke-linecap="round"></path><path d="M675.157 720.335C644.977 643.335 656.116 611.661 711.186 592.202C711.332 592.15 711.491 592.107 711.644 592.079C760.59 583.108 786.659 602.094 828.57 711.935" stroke="black" stroke-width="4" stroke-linecap="round"></path><path d="M621.245 323.795L688.863 584.606C705.116 577.983 714.656 575.697 730.863 574.438L672.757 309.248C672.301 307.167 671.325 305.237 669.918 303.637L669.39 303.036C652.897 284.273 621.951 295.175 620.859 320.132C620.805 321.365 620.935 322.6 621.245 323.795Z" stroke="black" stroke-width="4" stroke-linecap="round"></path><path d="M638.639 339.742C634.369 322.769 633.994 314.758 644.716 310.265C645.827 309.799 647.032 309.544 648.236 309.59C656.374 309.901 661.53 316.067 665.679 333.466C666.724 337.848 665.293 342.565 661.703 345.284C656.722 349.057 652.771 350.051 646.156 348.079C642.33 346.938 639.612 343.613 638.639 339.742Z" fill="white" stroke="black" stroke-width="4" stroke-linecap="round"></path></svg>