<svg width="32" height="32" viewBox="0 0 32 32" fill="none" xmlns="http://www.w3.org/2000/svg">
<g clip-path="url(#clip0_79_2)">
<path fill-rule="evenodd" clip-rule="evenodd" d="M1.4349 22.6131L1.43512 22.6136C7.24225 21.0772 11.604 21.4867 14.6093 22.2184C16.0732 22.5801 17.3506 23.0473 18.555 23.488C21.053 24.4019 23.2374 25.2009 26.1217 24.7052C27.6321 24.4357 29.0483 23.88 30.3587 23.0631C27.7592 28.344 22.3188 32 16.0085 32C9.52469 32 3.94174 28.1607 1.42822 22.616C1.42822 22.616 1.43052 22.615 1.4349 22.6131Z" fill="#7B1FA2"/>
<path d="M31.9993 16.1705C28.1666 13.3052 24.0631 13.0112 21.4801 13.3153C14.9887 14.0787 11.5293 19.3982 5.70057 18.733C3.49118 18.4808 1.63995 17.3609 0.00346498 15.8375C-0.0473323 18.1075 0.461922 20.5629 1.43055 22.6211C7.23767 21.0847 11.6075 21.4866 14.6128 22.2183C19.2949 23.4093 21.8221 25.4168 26.0946 24.7158C27.611 24.4454 29.0437 23.8854 30.3582 23.0632C31.3751 20.9928 31.9774 18.6448 31.9993 16.1705Z" fill="#954CB5"/>
<path fill-rule="evenodd" clip-rule="evenodd" d="M7.39164 7.74095C5.48515 7.73083 3.57111 8.05469 1.77324 8.69183L1.76932 8.69919C0.657121 10.7855 0.00317383 13.2234 0.00317383 15.8398L0.00339538 15.84C0.00339481 15.8401 0.00339595 15.84 0.00339538 15.84C1.45323 17.1692 3.27182 18.4612 5.70377 18.7368C8.84441 19.0953 11.2959 17.715 13.9046 16.2463C16.1374 14.9891 18.4854 13.6672 21.4791 13.3151C24.0597 13.0113 28.1703 13.3146 32 16.1725C31.9996 16.1676 31.9994 16.1652 31.9994 16.1652C31.9994 13.3279 31.361 10.7982 30.2307 8.64525C26.1552 11.5882 22.9264 12.0659 20.7446 11.9728C18.0522 11.8587 16.1045 10.84 14.175 9.83085C12.1672 8.78079 10.179 7.74095 7.39164 7.74095Z" fill="#B079C7"/>
<path d="M15.994 8.09457e-06C13.0581 0.00292334 10.1985 0.78531 7.69068 2.31826C5.18289 3.8512 3.07013 6.10162 1.77222 8.69339C3.57212 8.05461 5.49418 7.73093 7.40316 7.74107C12.8279 7.72587 15.239 11.7413 20.7654 11.9734C22.9572 12.0654 26.2001 11.5597 30.2303 8.64514C28.8721 6.03593 26.8191 3.84917 24.3108 2.32521C21.8022 0.801269 18.9257 -0.00294334 15.994 8.09457e-06Z" fill="#CAA5DA"/>
</g>
<defs>
<clipPath id="clip0_79_2">
<rect width="32" height="32" fill="white"/>
</clipPath>
</defs>
</svg>
