<svg xmlns="http://www.w3.org/2000/svg" width="1920" height="1080" viewBox="0 0 1920 1080" fill="none"><path d="M1231.93 261.156C1254.63 301.445 1193.06 303.623 1161.22 303.623C1140.55 303.623 1103.56 293.029 1103.56 261.156C1103.56 229.283 1129.37 214.334 1161.22 214.334C1193.06 214.334 1207.99 218.69 1231.93 261.156Z" fill="#69F0AE"></path><path d="M816.368 321.045C816.368 343.897 782.629 362.423 759.8 362.423C736.969 362.423 707.583 363.498 707.583 340.645C707.583 317.793 718.461 303.804 759.8 279.667C785.908 264.423 816.368 298.192 816.368 321.045Z" fill="#FFDE03"></path><path d="M1664.89 233.933C1664.89 251.372 1642.06 249.177 1624.64 249.177C1607.22 249.177 1588.74 229.595 1588.74 212.155C1588.74 194.715 1607.22 186.021 1624.64 186.021C1642.06 186.021 1664.89 216.493 1664.89 233.933Z" fill="#FF0266"></path><path d="M1521.46 288.695C1521.46 288.695 1565.84 267.531 1590.56 262.323C1617.63 256.622 1652.54 217.422 1823.51 377.072C1883.96 433.531 1726.73 332.085 1661.09 314.352C1611.36 300.919 1521.46 288.695 1521.46 288.695Z" fill="#F8F8F8"></path><path d="M1448.66 389.948C1448.66 389.948 1699.52 355.227 1816.1 562.778C1886.82 688.674 1837.86 783.813 1732.34 865.489C1605.26 963.849 1402.59 949.244 1301.55 830.645C1200.51 712.045 1667.07 595.445 1448.66 389.948Z" fill="#F8F8F8"></path><path d="M580.386 448.308C667.414 438.508 721.255 367.73 764.232 367.73C819.713 367.73 852.087 403.8 916.27 416.867" stroke="black" stroke-width="4" stroke-linecap="round"></path><path d="M1451.49 390.461C1451.49 390.461 1514.55 409.548 1560.28 454.978C1599.86 494.307 1629.08 538.822 1629.08 538.822" stroke="black" stroke-width="4" stroke-linecap="round"></path><path d="M1503.71 507.789C1503.71 507.789 1599.51 524.395 1656.55 549.711C1713.27 574.884 1789.81 636.278 1789.81 636.278" stroke="black" stroke-width="4" stroke-linecap="round"></path><path d="M1169.92 246.029L1171.88 245.624L1169.92 246.029ZM1145.17 269.985L1144.49 268.106L1145.17 269.985ZM1187.95 285.408C1188.65 286.263 1189.91 286.388 1190.77 285.687C1191.62 284.987 1191.75 283.727 1191.05 282.873L1187.95 285.408ZM1176.17 246.029L1177.93 246.992L1178.02 246.819L1178.08 246.63L1176.17 246.029ZM1171.83 337.423C1186.15 291.101 1174.86 260.012 1171.88 245.624L1167.96 246.434C1171 261.114 1181.97 291.097 1168.01 336.241L1171.83 337.423ZM1144.49 268.106C1143.31 268.534 1142.34 268.953 1141.6 269.376C1140.96 269.739 1140.09 270.323 1139.69 271.255C1139.44 271.82 1139.39 272.483 1139.62 273.135C1139.84 273.728 1140.23 274.132 1140.55 274.387C1141.15 274.872 1141.95 275.177 1142.65 275.394C1144.14 275.85 1146.27 276.21 1148.68 276.54C1151.13 276.873 1154.01 277.192 1157.06 277.538C1163.21 278.234 1170.07 279.045 1175.93 280.329C1178.86 280.971 1181.47 281.719 1183.58 282.6C1185.73 283.496 1187.17 284.454 1187.95 285.408L1191.05 282.873C1189.65 281.173 1187.51 279.904 1185.12 278.908C1182.7 277.899 1179.83 277.09 1176.79 276.422C1170.69 275.086 1163.63 274.256 1157.51 273.563C1154.44 273.215 1151.61 272.902 1149.22 272.576C1146.8 272.246 1144.97 271.92 1143.83 271.57C1143.22 271.383 1143.04 271.255 1143.05 271.266C1143.07 271.284 1143.26 271.441 1143.38 271.775C1143.53 272.168 1143.48 272.56 1143.36 272.842C1143.2 273.206 1143.02 273.17 1143.58 272.849C1144.04 272.588 1144.77 272.259 1145.85 271.864L1144.49 268.106ZM1171.88 245.624C1171.33 242.982 1171.67 241.239 1172.18 240.253C1172.69 239.259 1173.31 239.063 1173.58 239.059C1173.8 239.056 1174.26 239.156 1174.6 240.009C1174.97 240.92 1175.14 242.662 1174.27 245.429L1178.08 246.63C1179.11 243.348 1179.15 240.587 1178.31 238.517C1177.46 236.389 1175.66 235.028 1173.53 235.059C1171.46 235.089 1169.65 236.422 1168.62 238.427C1167.59 240.439 1167.28 243.165 1167.96 246.434L1171.88 245.624ZM1174.42 245.066C1172.27 248.988 1169.88 252.838 1165.55 256.65C1161.21 260.476 1154.79 264.353 1144.49 268.106L1145.85 271.864C1156.49 267.994 1163.38 263.896 1168.2 259.652C1173.04 255.392 1175.68 251.075 1177.93 246.992L1174.42 245.066Z" fill="black"></path><path d="M1627.18 537.188C1596.72 537.188 1440.84 522.906 1382.1 589.329C1323.35 655.751 1359.01 735.898 1319 824.528C1277.71 915.994 1155.82 920.35 1155.82 920.35" stroke="black" stroke-width="4" stroke-linecap="round"></path><path d="M1000.71 497.444C990.595 461.993 1022.88 356.977 1135.47 338.466M1040.69 489.414C1015.34 380.203 1115.35 345.272 1168.65 335.744" stroke="black" stroke-width="4"></path><path d="M1452.04 391.822C1542.33 445.178 1504.25 507.789 1504.25 507.789C1504.25 507.789 1451.49 499.622 1409.07 499.622C1385.53 499.622 1256.22 493.633 1161.58 551.344M790.528 694.686C832.981 689.268 871.206 681.904 860.475 673.675C839.593 657.662 748.89 666.522 790.528 694.686ZM790.528 694.686C744.964 700.502 694.529 704.078 694.529 704.078M790.528 694.686C793.254 696.53 796.546 698.456 800.462 700.463C837.148 719.269 927.886 685.913 951.372 673.675C1028.67 633.396 1075.21 597.104 1163.28 550.841" stroke="black" stroke-width="4" stroke-linecap="round"></path><path d="M1622.28 261.32C1619.02 245.531 1622.28 202.9 1622.28 207.256C1622.28 207.256 1627.64 214.191 1641.87 217.056C1648.29 218.349 1633.89 226.856 1612.49 228.489" stroke="black" stroke-width="4" stroke-linecap="round"></path><path d="M766.963 367.731C768.776 348.947 771.314 313.205 766.963 311.245C761.524 308.795 763.427 330.845 749.285 330.981C735.143 331.117 770.906 330.572 778.793 339.284" stroke="black" stroke-width="4" stroke-linecap="round"></path><path d="M644.801 535.596C647.182 535.569 649.616 535.555 652.103 535.555C868.585 535.555 962.413 504.34 1067.21 483.288C1091.54 479.313 1106.63 477.609 1133.25 477.033M644.801 535.596C555.729 536.614 540.338 556.189 550.933 558.422C564.004 561.176 598.244 552.27 644.801 535.596ZM644.801 535.596C716.276 509.997 816.779 466.09 914.275 417.955C1064.4 343.836 1138.19 335.744 1169.2 335.744C1202.92 335.744 1297.2 339.555 1365.73 356.977M1452.76 390.733C1526.37 372.948 1703.18 348.921 1821.54 395.088C1824.62 396.288 1744.12 261.699 1624.46 261.699C1576.45 261.699 1520.79 293.856 1478.09 318.518L1475.6 319.955C1428.8 346.98 1365.73 356.977 1365.73 356.977M1452.76 390.733C1421.82 376.816 1388.12 364.249 1365.73 356.977M1452.76 390.733C1429.92 395.647 1372.26 411.792 1324.39 437.054C1323.69 437.425 1322.98 437.791 1322.28 438.15M1322.28 438.15C1262.91 468.337 1194.13 455.928 1217.78 437.054C1226.72 429.922 1269.7 429.448 1322.28 438.15ZM1322.28 438.15C1382.34 448.09 1454.93 470.001 1503.66 507.635M1132.49 476.766C1132.49 476.766 1200.97 477.548 1244.53 482.21C1287.35 486.792 1353.32 500.177 1353.32 500.177" stroke="black" stroke-width="4" stroke-linecap="round"></path><path d="M701 964C693.138 1011.12 618.948 1046.14 507 1027.46C395.053 1008.78 321.139 988.122 329 941C414.436 956.528 513.842 903.276 556 941C598.158 978.724 680 932.5 701 964Z" fill="#F8F8F8"></path><path d="M386.489 768.627L388.486 768.744L388.486 768.744L386.489 768.627ZM373.603 870.609L371.634 870.256L371.634 870.256L373.603 870.609ZM420.051 927.865L421.972 927.309L421.972 927.309L420.051 927.865ZM422.23 935.39L424.151 934.833L424.151 934.833L422.23 935.39ZM419.455 939.824L419.76 941.801L419.76 941.801L419.455 939.824ZM326.336 939.364L326.206 941.36L326.206 941.36L326.336 939.364ZM335.747 852.804L337.742 852.668L337.742 852.668L335.747 852.804ZM343.816 764.253L345.751 764.76L345.751 764.76L343.816 764.253ZM343.924 763.048L345.918 762.886L345.918 762.886L343.924 763.048ZM335.862 663.972L337.856 663.809L337.856 663.809L335.862 663.972ZM335.348 662.393L333.639 663.432L333.639 663.432L335.348 662.393ZM326.007 590.255C326.424 589.233 325.933 588.065 324.911 587.648C323.888 587.231 322.721 587.722 322.303 588.745L326.007 590.255ZM416.261 563.884C416.186 562.782 415.232 561.949 414.13 562.024C413.028 562.098 412.195 563.052 412.27 564.154L416.261 563.884ZM386.632 767.811L384.715 767.24L384.715 767.24L386.632 767.811ZM429.582 744.773L431.568 744.536L431.568 744.536L429.582 744.773ZM429.39 746.42L431.267 747.108L431.267 747.108L429.39 746.42ZM386.659 863.042L388.537 863.73L388.537 863.73L386.659 863.042ZM386.498 863.867L388.497 863.933L388.497 863.933L386.498 863.867ZM403.942 903.579L405.234 902.052L405.234 902.052L403.942 903.579ZM373.795 872.552L371.934 873.285L371.934 873.285L373.795 872.552ZM409.255 916.709L408.552 918.581L408.552 918.581L409.255 916.709ZM323.086 936.4L321.108 936.694L321.108 936.694L323.086 936.4ZM325.284 900.644L327.205 901.199L327.23 901.113L327.247 901.026L325.284 900.644ZM309.679 902.457L307.999 903.542L307.999 903.542L309.679 902.457ZM335.594 854.116L337.505 854.707L337.505 854.707L335.594 854.116ZM309.642 898.81L311.353 899.845L311.353 899.845L309.642 898.81ZM326.5 387L328.194 388.064L328.2 388.054L328.207 388.044L326.5 387ZM334.029 374.692L332.338 373.624L332.33 373.636L332.323 373.649L334.029 374.692ZM334.173 371.134L332.396 372.051L332.396 372.051L334.173 371.134ZM339.054 303.547L340.28 305.127L340.28 305.127L339.054 303.547ZM339.601 303.2L338.701 301.414L338.701 301.414L339.601 303.2ZM403.336 329.074L401.411 329.618L401.411 329.618L403.336 329.074ZM402.793 347.221L404.288 345.892L404.288 345.892L402.793 347.221ZM406.914 351.857L408.409 350.528L408.409 350.528L406.914 351.857ZM406.424 353.317L406.803 355.281L406.803 355.281L406.424 353.317ZM402.755 354.026L402.375 352.062L402.375 352.062L402.755 354.026ZM399.896 357.48L401.895 357.494L401.895 357.494L399.896 357.48ZM399.749 377.766L397.749 377.751L397.749 377.751L399.749 377.766ZM397.996 380.789L397.009 379.049L397.009 379.049L397.996 380.789ZM381.973 385.138L381.972 383.138L381.972 383.138L381.973 385.138ZM379.801 385.859L381.03 387.437L381.03 387.437L379.801 385.859ZM372.273 394.948L370.464 394.095L370.464 394.095L372.273 394.948ZM369.134 397.117L369.23 399.114L369.23 399.114L369.134 397.117ZM363.687 397.378L363.783 399.375L363.783 399.375L363.687 397.378ZM443.571 452.596L442.352 454.182C442.996 454.677 443.876 454.734 444.578 454.324C445.28 453.915 445.665 453.121 445.551 452.317L443.571 452.596ZM434.09 438.191L432.128 437.805L431.882 439.058L432.915 439.809L434.09 438.191ZM445.895 391.767L443.896 391.815L443.896 391.815L445.895 391.767ZM445.602 390.431L443.767 391.226L443.767 391.226L445.602 390.431ZM437.825 366.284L435.872 366.716L435.872 366.716L437.825 366.284ZM437.748 365.288L435.752 365.165L435.752 365.165L437.748 365.288ZM442.922 335.408L444.712 336.299L444.712 336.299L442.922 335.408ZM444.471 333.889L445.319 335.7L445.319 335.7L444.471 333.889ZM467.503 342.717L469.488 342.469L469.488 342.469L467.503 342.717ZM466.102 387.944L468.069 387.584L468.069 387.583L466.102 387.944ZM459.446 480.924L461.422 481.235L461.422 481.235L459.446 480.924ZM398.388 477.381L400.373 477.133L400.23 475.994L399.175 475.542L398.388 477.381ZM412.136 563.908C412.183 565.012 413.116 565.868 414.22 565.821C415.323 565.774 416.18 564.841 416.133 563.738L412.136 563.908ZM316.608 567.147C316.966 568.192 318.103 568.75 319.148 568.392C320.193 568.035 320.75 566.898 320.393 565.853L316.608 567.147ZM403.458 330.05L401.458 330.014L401.458 330.014L403.458 330.05ZM403.319 337.873L405.318 337.908L405.318 337.908L403.319 337.873ZM403.254 338.41L405.206 338.847L405.206 338.847L403.254 338.41ZM401.983 344.08L403.935 344.518L403.935 344.518L401.983 344.08ZM467.466 343.761L469.431 344.131L469.431 344.131L467.466 343.761ZM465.45 358.635L467.445 358.783L467.445 358.783L465.45 358.635ZM465.499 359.372L463.54 359.777L463.54 359.777L465.499 359.372ZM466.135 386.451L464.184 386.011L464.184 386.011L466.135 386.451ZM455.971 483.877L455.939 485.877L455.939 485.877L455.971 483.877ZM374.736 458.226L375.765 456.511C374.978 456.038 373.97 456.162 373.321 456.812C372.672 457.461 372.549 458.468 373.021 459.255L374.736 458.226ZM365.404 391.886L364.179 393.468L364.179 393.468L365.404 391.886ZM405.846 423.327L404.538 424.84L404.577 424.873L404.617 424.904L405.846 423.327ZM416.134 362.027C416.125 360.923 415.222 360.035 414.118 360.044C413.013 360.053 412.125 360.956 412.134 362.061L416.134 362.027ZM360.547 393.735L362.511 394.111L362.511 394.111L360.547 393.735ZM425.501 438.191L424.273 439.77L425.501 438.191ZM309.48 411.537C308.949 412.505 309.302 413.721 310.271 414.253C311.239 414.785 312.455 414.431 312.986 413.463L309.48 411.537ZM303.595 433.219C303.992 432.188 303.478 431.031 302.448 430.634C301.417 430.237 300.26 430.75 299.862 431.781L303.595 433.219ZM414.119 378.223L412.214 377.615L414.119 378.223ZM384.492 768.51C381.923 812.319 378.239 833.388 371.634 870.256L375.572 870.962C382.187 834.033 385.903 812.785 388.486 768.744L384.492 768.51ZM418.13 928.421L420.309 935.946L424.151 934.833L421.972 927.309L418.13 928.421ZM419.15 937.847C399.084 940.946 376.4 940.623 326.466 937.368L326.206 941.36C376.095 944.612 399.199 944.976 419.76 941.801L419.15 937.847ZM337.742 852.668C335.552 820.473 336.095 801.563 345.751 764.76L341.882 763.745C332.097 801.04 331.537 820.393 333.751 852.94L337.742 852.668ZM345.918 762.886L337.856 663.809L333.869 664.134L341.931 763.21L345.918 762.886ZM337.057 661.355C328.374 647.065 322.817 636.316 320.795 625.657C318.792 615.098 320.228 604.423 326.007 590.255L322.303 588.745C316.331 603.387 314.677 614.865 316.865 626.403C319.035 637.841 324.951 649.134 333.639 663.432L337.057 661.355ZM412.27 564.154C413.816 586.993 415.296 617.116 414.437 634.345L418.432 634.544C419.304 617.047 417.806 586.698 416.261 563.884L412.27 564.154ZM414.437 634.345C411.604 691.145 397.69 723.679 384.715 767.24L388.549 768.382C401.43 725.134 415.568 691.963 418.432 634.544L414.437 634.345ZM414.448 634.681L427.596 745.01L431.568 744.536L418.42 634.208L414.448 634.681ZM427.512 745.732L384.781 862.353L388.537 863.73L431.267 747.108L427.512 745.732ZM384.5 863.801C384.189 873.179 385.135 880.547 388.029 887.103C390.924 893.662 395.682 899.213 402.651 905.107L405.234 902.052C398.515 896.371 394.246 891.283 391.688 885.488C389.129 879.69 388.197 872.99 388.497 863.933L384.5 863.801ZM371.934 873.285C382.707 900.606 391.624 911.012 404.624 916.955L406.287 913.317C394.696 908.018 386.293 898.796 375.656 871.818L371.934 873.285ZM404.624 916.955C405.9 917.538 407.208 918.076 408.552 918.581L409.959 914.836C408.689 914.359 407.468 913.857 406.287 913.317L404.624 916.955ZM325.064 936.105C323.925 928.455 323.539 922.148 324.281 915.353L320.304 914.919C319.513 922.169 319.939 928.843 321.108 936.694L325.064 936.105ZM324.281 915.353C324.753 911.026 325.687 906.463 327.205 901.199L323.362 900.09C321.794 905.529 320.806 910.321 320.304 914.919L324.281 915.353ZM323.468 913.518C316.976 908.8 314.283 905.898 311.359 901.371L307.999 903.542C311.244 908.566 314.314 911.811 321.117 916.754L323.468 913.518ZM327.247 901.026C330.071 886.512 331.333 878.025 333.819 867.902L329.935 866.948C327.418 877.193 326.107 885.942 323.32 900.262L327.247 901.026ZM333.819 867.902C334.801 863.906 335.972 859.661 337.505 854.707L333.684 853.525C332.129 858.548 330.936 862.869 329.935 866.948L333.819 867.902ZM311.353 899.845C317.165 890.238 322.86 882.549 333.467 868.638L330.286 866.212C319.682 880.119 313.867 887.963 307.931 897.775L311.353 899.845ZM311.359 901.371C311.073 900.928 311.058 900.333 311.353 899.845L307.931 897.775C306.866 899.536 306.86 901.778 307.999 903.542L311.359 901.371ZM337.856 663.809C337.784 662.934 337.507 662.095 337.057 661.355L333.639 663.432C333.771 663.65 333.849 663.891 333.869 664.134L337.856 663.809ZM345.751 764.76C345.909 764.157 345.969 763.518 345.918 762.886L341.931 763.21C341.945 763.381 341.929 763.568 341.882 763.745L345.751 764.76ZM333.751 852.94C333.765 853.137 333.741 853.34 333.684 853.525L337.505 854.707C337.709 854.048 337.789 853.352 337.742 852.668L333.751 852.94ZM326.466 937.368C325.746 937.321 325.164 936.778 325.064 936.105L321.108 936.694C321.493 939.28 323.657 941.193 326.206 941.36L326.466 937.368ZM420.309 935.946C420.571 936.853 419.986 937.718 419.15 937.847L419.76 941.801C423.068 941.29 425.06 937.973 424.151 934.833L420.309 935.946ZM402.651 905.107C405.326 907.369 405.849 911.253 403.85 913.943L407.06 916.329C410.412 911.819 409.4 905.575 405.234 902.052L402.651 905.107ZM421.972 927.309C420.245 921.344 415.564 916.943 409.959 914.836L408.552 918.581C413.167 920.315 416.807 923.853 418.13 928.421L421.972 927.309ZM384.781 862.353C384.611 862.816 384.516 863.309 384.5 863.801L388.497 863.933C388.5 863.865 388.514 863.793 388.537 863.73L384.781 862.353ZM371.634 870.256C371.454 871.265 371.557 872.327 371.934 873.285L375.656 871.818C375.552 871.555 375.521 871.245 375.572 870.962L371.634 870.256ZM427.596 745.01C427.625 745.254 427.596 745.501 427.512 745.732L431.267 747.108C431.568 746.286 431.671 745.405 431.568 744.536L427.596 745.01ZM388.486 768.744C388.493 768.621 388.515 768.494 388.549 768.382L384.715 767.24C384.592 767.654 384.517 768.085 384.492 768.51L388.486 768.744ZM328.207 388.044L335.735 375.736L332.323 373.649L324.794 385.956L328.207 388.044ZM335.951 370.217C327.629 354.079 322.768 342.536 322.882 332.692C322.993 323.134 327.836 314.783 340.28 305.127L337.828 301.967C324.9 311.999 319.014 321.368 318.883 332.645C318.755 343.635 324.14 356.041 332.396 372.051L335.951 370.217ZM340.5 304.987C351.541 299.429 365.204 299.971 376.988 304.822C388.787 309.678 398.325 318.691 401.411 329.618L405.26 328.531C401.75 316.101 391.095 306.302 378.511 301.123C365.913 295.938 351.006 295.221 338.701 301.414L340.5 304.987ZM401.299 348.55L405.42 353.185L408.409 350.528L404.288 345.892L401.299 348.55ZM406.044 351.353L402.375 352.062L403.134 355.989L406.803 355.281L406.044 351.353ZM397.896 357.465L397.749 377.751L401.749 377.78L401.895 357.494L397.896 357.465ZM397.009 379.049C394.509 380.467 392.458 381.468 390.206 382.129C387.964 382.788 385.431 383.137 381.972 383.138L381.973 387.138C385.713 387.137 388.641 386.759 391.334 385.967C394.018 385.178 396.379 384.005 398.983 382.528L397.009 379.049ZM378.571 384.281C374.576 387.394 372.406 389.975 370.464 394.095L374.082 395.801C375.718 392.332 377.451 390.225 381.03 387.437L378.571 384.281ZM369.038 395.119L363.591 395.38L363.783 399.375L369.23 399.114L369.038 395.119ZM445.551 452.317C445.084 449.005 444.331 446.306 442.694 443.767C441.078 441.259 438.699 439.066 435.266 436.573L432.915 439.809C436.195 442.192 438.111 444.039 439.332 445.934C440.534 447.798 441.165 449.863 441.591 452.876L445.551 452.317ZM436.053 438.576C437.686 430.263 440.656 423.255 443.289 415.828C445.902 408.459 448.115 400.83 447.895 391.718L443.896 391.815C444.099 400.191 442.08 407.27 439.52 414.491C436.98 421.652 433.836 429.112 432.128 437.805L436.053 438.576ZM439.744 365.412C440.84 347.724 441.345 343.06 444.712 336.299L441.132 334.516C437.342 342.124 436.838 347.626 435.752 365.165L439.744 365.412ZM445.319 335.7C451.031 333.026 455.831 332.399 459.213 333.531C462.383 334.592 464.821 337.386 465.519 342.965L469.488 342.469C468.655 335.803 465.49 331.414 460.482 329.738C455.687 328.133 449.737 329.215 443.623 332.077L445.319 335.7ZM464.135 388.305C472.104 431.737 462.088 451.278 457.471 480.613L461.422 481.235C465.912 452.708 476.202 431.908 468.069 387.584L464.135 388.305ZM396.404 477.629C397.823 488.971 401.428 501.812 404.792 516.013C408.176 530.296 411.379 546.164 412.136 563.908L416.133 563.738C415.359 545.619 412.09 529.464 408.684 515.091C405.259 500.635 401.756 488.188 400.373 477.133L396.404 477.629ZM401.458 330.014L401.319 337.837L405.318 337.908L405.457 330.085L401.458 330.014ZM401.303 337.972L400.031 343.643L403.935 344.518L405.206 338.847L401.303 337.972ZM465.5 343.39C464.466 348.874 463.811 353.701 463.456 358.487L467.445 358.783C467.787 354.169 468.42 349.493 469.431 344.131L465.5 343.39ZM463.54 359.777C465.547 369.493 466.132 377.374 464.184 386.011L468.086 386.891C470.208 377.484 469.525 368.976 467.458 358.968L463.54 359.777ZM456.002 481.877C421.295 481.333 399.84 470.955 375.765 456.511L373.707 459.941C398.07 474.558 420.235 485.317 455.939 485.877L456.002 481.877ZM364.179 393.468C366.149 394.993 368.068 396.48 369.938 397.93L372.389 394.768C370.518 393.318 368.599 391.831 366.629 390.305L364.179 393.468ZM369.938 397.93C376.594 403.09 381.624 406.895 386.21 410.361C390.797 413.827 394.934 416.95 399.82 420.759L402.28 417.604C397.366 413.775 393.206 410.634 388.622 407.17C384.038 403.706 379.024 399.913 372.389 394.768L369.938 397.93ZM399.742 420.695L404.538 424.84L407.154 421.814L402.358 417.669L399.742 420.695ZM402.955 419.79L416.025 378.831L412.214 377.615L399.145 418.574L402.955 419.79ZM416.261 377.269L416.134 362.027L412.134 362.061L412.261 377.303L416.261 377.269ZM373.021 459.255C376.132 464.435 379.173 468.137 383.059 471.21C386.917 474.26 391.514 476.614 397.601 479.22L399.175 475.542C393.182 472.977 388.976 470.789 385.54 468.072C382.132 465.378 379.388 462.088 376.45 457.196L373.021 459.255ZM401.319 337.837C401.318 337.883 401.313 337.928 401.303 337.972L405.206 338.847C405.275 338.539 405.313 338.224 405.318 337.908L401.319 337.837ZM457.471 480.613C457.352 481.365 456.713 481.888 456.002 481.877L455.939 485.877C458.683 485.92 461 483.914 461.422 481.235L457.471 480.613ZM468.069 387.583C468.029 387.365 468.034 387.122 468.086 386.891L464.184 386.011C464.016 386.754 463.995 387.542 464.135 388.305L468.069 387.583ZM465.519 342.965C465.534 343.085 465.53 343.232 465.5 343.39L469.431 344.131C469.53 343.606 469.559 343.04 469.488 342.469L465.519 342.965ZM444.712 336.299C444.846 336.03 445.064 335.819 445.319 335.7L443.623 332.077C442.535 332.587 441.661 333.454 441.132 334.516L444.712 336.299ZM439.778 365.853C439.748 365.716 439.735 365.558 439.744 365.412L435.752 365.165C435.72 365.677 435.76 366.208 435.872 366.716L439.778 365.853ZM447.895 391.718C447.877 391.004 447.722 390.293 447.437 389.636L443.767 391.226C443.846 391.41 443.891 391.613 443.896 391.815L447.895 391.718ZM362.511 394.111C362.661 393.324 363.569 392.995 364.179 393.468L366.629 390.305C363.642 387.992 359.29 389.662 358.582 393.359L362.511 394.111ZM363.591 395.38C362.926 395.412 362.378 394.804 362.511 394.111L358.582 393.359C357.968 396.566 360.502 399.533 363.783 399.375L363.591 395.38ZM370.464 394.095C370.333 394.373 370.145 394.606 369.926 394.777L372.4 397.921C373.112 397.36 373.689 396.634 374.082 395.801L370.464 394.095ZM369.926 394.777C369.659 394.988 369.353 395.104 369.038 395.119L369.23 399.114C370.424 399.057 371.519 398.614 372.4 397.921L369.926 394.777ZM381.972 383.138C380.791 383.139 379.575 383.499 378.571 384.281L381.03 387.437C381.262 387.256 381.59 387.138 381.973 387.138L381.972 383.138ZM397.749 377.751C397.745 378.31 397.451 378.799 397.009 379.049L398.983 382.528C400.707 381.55 401.735 379.723 401.749 377.78L397.749 377.751ZM402.375 352.062C399.782 352.563 397.915 354.83 397.896 357.465L401.895 357.494C401.901 356.75 402.427 356.126 403.134 355.989L402.375 352.062ZM405.42 353.185C404.855 352.55 405.181 351.52 406.044 351.353L406.803 355.281C409.011 354.854 409.886 352.19 408.409 350.528L405.42 353.185ZM404.288 345.892C403.958 345.521 403.825 345.009 403.935 344.518L400.031 343.643C399.641 345.386 400.111 347.214 401.299 348.55L404.288 345.892ZM401.411 329.618C401.443 329.731 401.461 329.864 401.458 330.014L405.457 330.085C405.467 329.577 405.407 329.051 405.26 328.531L401.411 329.618ZM340.28 305.127C340.355 305.069 340.433 305.02 340.5 304.987L338.701 301.414C338.387 301.572 338.091 301.762 337.828 301.967L340.28 305.127ZM463.456 358.487C463.423 358.925 463.454 359.36 463.54 359.777L467.458 358.968C467.444 358.901 467.441 358.838 467.445 358.783L463.456 358.487ZM335.719 375.761C336.782 374.08 336.85 371.96 335.951 370.217L332.396 372.051C332.657 372.558 332.628 373.165 332.338 373.624L335.719 375.761ZM404.617 424.904C407.414 427.085 411.063 429.816 414.636 432.489C418.22 435.17 421.726 437.789 424.273 439.77L426.728 436.612C424.145 434.603 420.602 431.956 417.031 429.286C413.449 426.606 409.835 423.901 407.076 421.749L404.617 424.904ZM424.273 439.77C427.861 442.56 430.472 444.694 433.145 446.869C435.82 449.046 438.55 451.258 442.352 454.182L444.79 451.011C441.032 448.121 438.336 445.936 435.67 443.767C433.001 441.595 430.357 439.433 426.728 436.612L424.273 439.77ZM447.437 389.636C446.97 388.559 445.801 385.308 444.612 381.958C443.45 378.682 442.282 375.35 441.865 374.276L438.136 375.724C438.525 376.725 439.656 379.952 440.843 383.295C442.002 386.563 443.231 389.99 443.767 391.226L447.437 389.636ZM441.865 374.276C440.885 371.752 440.948 371.99 440.903 371.706C440.813 371.145 440.71 370.069 439.778 365.853L435.872 366.716C436.776 370.804 436.862 371.773 436.953 372.337C437.087 373.179 437.32 373.623 438.136 375.724L441.865 374.276ZM427.415 438.771C432.186 423.02 437.206 398.707 441.96 375.4L438.041 374.6C433.272 397.978 428.292 422.079 423.587 437.611L427.415 438.771ZM312.986 413.463C317.234 405.729 322.307 397.434 328.194 388.064L324.807 385.936C318.913 395.318 313.787 403.695 309.48 411.537L312.986 413.463ZM320.393 565.853C295.836 494.045 291.476 464.667 303.595 433.219L299.862 431.781C287.166 464.73 292.075 495.411 316.608 567.147L320.393 565.853ZM416.025 378.831C416.186 378.326 416.265 377.799 416.261 377.269L412.261 377.303C412.262 377.409 412.246 377.514 412.214 377.615L416.025 378.831Z" fill="black"></path><path d="M386.489 768.627L388.486 768.744L388.486 768.744L386.489 768.627ZM373.603 870.609L371.634 870.256L371.634 870.256L373.603 870.609ZM420.051 927.865L421.972 927.309L421.972 927.309L420.051 927.865ZM422.23 935.39L424.151 934.833L424.151 934.833L422.23 935.39ZM419.455 939.824L419.76 941.801L419.76 941.801L419.455 939.824ZM326.336 939.364L326.206 941.36L326.206 941.36L326.336 939.364ZM335.747 852.804L337.742 852.668L337.742 852.668L335.747 852.804ZM343.816 764.253L345.751 764.76L345.751 764.76L343.816 764.253ZM343.924 763.048L345.918 762.886L345.918 762.886L343.924 763.048ZM335.862 663.972L337.856 663.809L337.856 663.809L335.862 663.972ZM335.348 662.393L333.639 663.432L333.639 663.432L335.348 662.393ZM326.007 590.255C326.424 589.233 325.933 588.065 324.911 587.648C323.888 587.231 322.721 587.722 322.303 588.745L326.007 590.255ZM416.261 563.884C416.186 562.782 415.232 561.949 414.13 562.024C413.028 562.098 412.195 563.052 412.27 564.154L416.261 563.884ZM386.632 767.811L384.715 767.24L384.715 767.24L386.632 767.811ZM429.582 744.773L431.568 744.536L431.568 744.536L429.582 744.773ZM429.39 746.42L431.267 747.108L431.267 747.108L429.39 746.42ZM386.659 863.042L388.537 863.73L388.537 863.73L386.659 863.042ZM386.498 863.867L388.497 863.933L388.497 863.933L386.498 863.867ZM403.942 903.579L405.234 902.052L405.234 902.052L403.942 903.579ZM373.795 872.552L371.934 873.285L371.934 873.285L373.795 872.552ZM409.255 916.709L408.552 918.581L408.552 918.581L409.255 916.709ZM323.086 936.4L321.108 936.694L321.108 936.694L323.086 936.4ZM325.284 900.644L327.205 901.199L327.23 901.113L327.247 901.026L325.284 900.644ZM309.679 902.457L307.999 903.542L307.999 903.542L309.679 902.457ZM335.594 854.116L337.505 854.707L337.505 854.707L335.594 854.116ZM309.642 898.81L311.353 899.845L311.353 899.845L309.642 898.81ZM326.5 387L328.194 388.064L328.2 388.054L328.207 388.044L326.5 387ZM334.029 374.692L332.338 373.624L332.33 373.636L332.323 373.649L334.029 374.692ZM334.173 371.134L332.396 372.051L332.396 372.051L334.173 371.134ZM339.054 303.547L340.28 305.127L340.28 305.127L339.054 303.547ZM339.601 303.2L338.701 301.414L338.701 301.414L339.601 303.2ZM403.336 329.074L401.411 329.618L401.411 329.618L403.336 329.074ZM402.793 347.221L404.288 345.892L404.288 345.892L402.793 347.221ZM406.914 351.857L408.409 350.528L408.409 350.528L406.914 351.857ZM406.424 353.317L406.803 355.281L406.803 355.281L406.424 353.317ZM402.755 354.026L402.375 352.062L402.375 352.062L402.755 354.026ZM399.896 357.48L401.895 357.494L401.895 357.494L399.896 357.48ZM399.749 377.766L397.749 377.751L397.749 377.751L399.749 377.766ZM397.996 380.789L397.009 379.049L397.009 379.049L397.996 380.789ZM381.973 385.138L381.972 383.138L381.972 383.138L381.973 385.138ZM379.801 385.859L381.03 387.437L381.03 387.437L379.801 385.859ZM372.273 394.948L370.464 394.095L370.464 394.095L372.273 394.948ZM369.134 397.117L369.23 399.114L369.23 399.114L369.134 397.117ZM363.687 397.378L363.783 399.375L363.783 399.375L363.687 397.378ZM443.571 452.596L442.352 454.182C442.996 454.677 443.876 454.734 444.578 454.324C445.28 453.915 445.665 453.121 445.551 452.317L443.571 452.596ZM434.09 438.191L432.128 437.805L431.882 439.058L432.915 439.809L434.09 438.191ZM445.895 391.767L443.896 391.815L443.896 391.815L445.895 391.767ZM445.602 390.431L443.767 391.226L443.767 391.226L445.602 390.431ZM437.825 366.284L435.872 366.716L435.872 366.716L437.825 366.284ZM437.748 365.288L435.752 365.165L435.752 365.165L437.748 365.288ZM442.922 335.408L444.712 336.299L444.712 336.299L442.922 335.408ZM444.471 333.889L445.319 335.7L445.319 335.7L444.471 333.889ZM467.503 342.717L469.488 342.469L469.488 342.469L467.503 342.717ZM466.102 387.944L468.069 387.584L468.069 387.583L466.102 387.944ZM459.446 480.924L461.422 481.235L461.422 481.235L459.446 480.924ZM398.388 477.381L400.373 477.133L400.23 475.994L399.175 475.542L398.388 477.381ZM412.136 563.908C412.183 565.012 413.116 565.868 414.22 565.821C415.323 565.774 416.18 564.841 416.133 563.738L412.136 563.908ZM316.608 567.147C316.966 568.192 318.103 568.75 319.148 568.392C320.193 568.035 320.75 566.898 320.393 565.853L316.608 567.147ZM403.458 330.05L401.458 330.014L401.458 330.014L403.458 330.05ZM403.319 337.873L405.318 337.908L405.318 337.908L403.319 337.873ZM403.254 338.41L405.206 338.847L405.206 338.847L403.254 338.41ZM401.983 344.08L403.935 344.518L403.935 344.518L401.983 344.08ZM467.466 343.761L469.431 344.131L469.431 344.131L467.466 343.761ZM465.45 358.635L467.445 358.783L467.445 358.783L465.45 358.635ZM465.499 359.372L463.54 359.777L463.54 359.777L465.499 359.372ZM466.135 386.451L464.184 386.011L464.184 386.011L466.135 386.451ZM455.971 483.877L455.939 485.877L455.939 485.877L455.971 483.877ZM374.736 458.226L375.765 456.511C374.978 456.038 373.97 456.162 373.321 456.812C372.672 457.461 372.549 458.468 373.021 459.255L374.736 458.226ZM365.404 391.886L364.179 393.468L364.179 393.468L365.404 391.886ZM405.846 423.327L404.538 424.84L404.577 424.873L404.617 424.904L405.846 423.327ZM416.134 362.027C416.125 360.923 415.222 360.035 414.118 360.044C413.013 360.053 412.125 360.956 412.134 362.061L416.134 362.027ZM360.547 393.735L362.511 394.111L362.511 394.111L360.547 393.735ZM425.501 438.191L424.273 439.77L425.501 438.191ZM309.48 411.537C308.949 412.505 309.302 413.721 310.271 414.253C311.239 414.785 312.455 414.431 312.986 413.463L309.48 411.537ZM303.595 433.219C303.992 432.188 303.478 431.031 302.448 430.634C301.417 430.237 300.26 430.75 299.862 431.781L303.595 433.219ZM414.119 378.223L412.214 377.615L414.119 378.223ZM384.492 768.51C381.923 812.319 378.239 833.388 371.634 870.256L375.572 870.962C382.187 834.033 385.903 812.785 388.486 768.744L384.492 768.51ZM418.13 928.421L420.309 935.946L424.151 934.833L421.972 927.309L418.13 928.421ZM419.15 937.847C399.084 940.946 376.4 940.623 326.466 937.368L326.206 941.36C376.095 944.612 399.199 944.976 419.76 941.801L419.15 937.847ZM337.742 852.668C335.552 820.473 336.095 801.563 345.751 764.76L341.882 763.745C332.097 801.04 331.537 820.393 333.751 852.94L337.742 852.668ZM345.918 762.886L337.856 663.809L333.869 664.134L341.931 763.21L345.918 762.886ZM337.057 661.355C328.374 647.065 322.817 636.316 320.795 625.657C318.792 615.098 320.228 604.423 326.007 590.255L322.303 588.745C316.331 603.387 314.677 614.865 316.865 626.403C319.035 637.841 324.951 649.134 333.639 663.432L337.057 661.355ZM412.27 564.154C413.816 586.993 415.296 617.116 414.437 634.345L418.432 634.544C419.304 617.047 417.806 586.698 416.261 563.884L412.27 564.154ZM414.437 634.345C411.604 691.145 397.69 723.679 384.715 767.24L388.549 768.382C401.43 725.134 415.568 691.963 418.432 634.544L414.437 634.345ZM414.448 634.681L427.596 745.01L431.568 744.536L418.42 634.208L414.448 634.681ZM427.512 745.732L384.781 862.353L388.537 863.73L431.267 747.108L427.512 745.732ZM384.5 863.801C384.189 873.179 385.135 880.547 388.029 887.103C390.924 893.662 395.682 899.213 402.651 905.107L405.234 902.052C398.515 896.371 394.246 891.283 391.688 885.488C389.129 879.69 388.197 872.99 388.497 863.933L384.5 863.801ZM371.934 873.285C382.707 900.606 391.624 911.012 404.624 916.955L406.287 913.317C394.696 908.018 386.293 898.796 375.656 871.818L371.934 873.285ZM404.624 916.955C405.9 917.538 407.208 918.076 408.552 918.581L409.959 914.836C408.689 914.359 407.468 913.857 406.287 913.317L404.624 916.955ZM325.064 936.105C323.925 928.455 323.539 922.148 324.281 915.353L320.304 914.919C319.513 922.169 319.939 928.843 321.108 936.694L325.064 936.105ZM324.281 915.353C324.753 911.026 325.687 906.463 327.205 901.199L323.362 900.09C321.794 905.529 320.806 910.321 320.304 914.919L324.281 915.353ZM323.468 913.518C316.976 908.8 314.283 905.898 311.359 901.371L307.999 903.542C311.244 908.566 314.314 911.811 321.117 916.754L323.468 913.518ZM327.247 901.026C330.071 886.512 331.333 878.025 333.819 867.902L329.935 866.948C327.418 877.193 326.107 885.942 323.32 900.262L327.247 901.026ZM333.819 867.902C334.801 863.906 335.972 859.661 337.505 854.707L333.684 853.525C332.129 858.548 330.936 862.869 329.935 866.948L333.819 867.902ZM311.353 899.845C317.165 890.238 322.86 882.549 333.467 868.638L330.286 866.212C319.682 880.119 313.867 887.963 307.931 897.775L311.353 899.845ZM311.359 901.371C311.073 900.928 311.058 900.333 311.353 899.845L307.931 897.775C306.866 899.536 306.86 901.778 307.999 903.542L311.359 901.371ZM337.856 663.809C337.784 662.934 337.507 662.095 337.057 661.355L333.639 663.432C333.771 663.65 333.849 663.891 333.869 664.134L337.856 663.809ZM345.751 764.76C345.909 764.157 345.969 763.518 345.918 762.886L341.931 763.21C341.945 763.381 341.929 763.568 341.882 763.745L345.751 764.76ZM333.751 852.94C333.765 853.137 333.741 853.34 333.684 853.525L337.505 854.707C337.709 854.048 337.789 853.352 337.742 852.668L333.751 852.94ZM326.466 937.368C325.746 937.321 325.164 936.778 325.064 936.105L321.108 936.694C321.493 939.28 323.657 941.193 326.206 941.36L326.466 937.368ZM420.309 935.946C420.571 936.853 419.986 937.718 419.15 937.847L419.76 941.801C423.068 941.29 425.06 937.973 424.151 934.833L420.309 935.946ZM402.651 905.107C405.326 907.369 405.849 911.253 403.85 913.943L407.06 916.329C410.412 911.819 409.4 905.575 405.234 902.052L402.651 905.107ZM421.972 927.309C420.245 921.344 415.564 916.943 409.959 914.836L408.552 918.581C413.167 920.315 416.807 923.853 418.13 928.421L421.972 927.309ZM384.781 862.353C384.611 862.816 384.516 863.309 384.5 863.801L388.497 863.933C388.5 863.865 388.514 863.793 388.537 863.73L384.781 862.353ZM371.634 870.256C371.454 871.265 371.557 872.327 371.934 873.285L375.656 871.818C375.552 871.555 375.521 871.245 375.572 870.962L371.634 870.256ZM427.596 745.01C427.625 745.254 427.596 745.501 427.512 745.732L431.267 747.108C431.568 746.286 431.671 745.405 431.568 744.536L427.596 745.01ZM388.486 768.744C388.493 768.621 388.515 768.494 388.549 768.382L384.715 767.24C384.592 767.654 384.517 768.085 384.492 768.51L388.486 768.744ZM328.207 388.044L335.735 375.736L332.323 373.649L324.794 385.956L328.207 388.044ZM335.951 370.217C327.629 354.079 322.768 342.536 322.882 332.692C322.993 323.134 327.836 314.783 340.28 305.127L337.828 301.967C324.9 311.999 319.014 321.368 318.883 332.645C318.755 343.635 324.14 356.041 332.396 372.051L335.951 370.217ZM340.5 304.987C351.541 299.429 365.204 299.971 376.988 304.822C388.787 309.678 398.325 318.691 401.411 329.618L405.26 328.531C401.75 316.101 391.095 306.302 378.511 301.123C365.913 295.938 351.006 295.221 338.701 301.414L340.5 304.987ZM401.299 348.55L405.42 353.185L408.409 350.528L404.288 345.892L401.299 348.55ZM406.044 351.353L402.375 352.062L403.134 355.989L406.803 355.281L406.044 351.353ZM397.896 357.465L397.749 377.751L401.749 377.78L401.895 357.494L397.896 357.465ZM397.009 379.049C394.509 380.467 392.458 381.468 390.206 382.129C387.964 382.788 385.431 383.137 381.972 383.138L381.973 387.138C385.713 387.137 388.641 386.759 391.334 385.967C394.018 385.178 396.379 384.005 398.983 382.528L397.009 379.049ZM378.571 384.281C374.576 387.394 372.406 389.975 370.464 394.095L374.082 395.801C375.718 392.332 377.451 390.225 381.03 387.437L378.571 384.281ZM369.038 395.119L363.591 395.38L363.783 399.375L369.23 399.114L369.038 395.119ZM445.551 452.317C445.084 449.005 444.331 446.306 442.694 443.767C441.078 441.259 438.699 439.066 435.266 436.573L432.915 439.809C436.195 442.192 438.111 444.039 439.332 445.934C440.534 447.798 441.165 449.863 441.591 452.876L445.551 452.317ZM436.053 438.576C437.686 430.263 440.656 423.255 443.289 415.828C445.902 408.459 448.115 400.83 447.895 391.718L443.896 391.815C444.099 400.191 442.08 407.27 439.52 414.491C436.98 421.652 433.836 429.112 432.128 437.805L436.053 438.576ZM439.744 365.412C440.84 347.724 441.345 343.06 444.712 336.299L441.132 334.516C437.342 342.124 436.838 347.626 435.752 365.165L439.744 365.412ZM445.319 335.7C451.031 333.026 455.831 332.399 459.213 333.531C462.383 334.592 464.821 337.386 465.519 342.965L469.488 342.469C468.655 335.803 465.49 331.414 460.482 329.738C455.687 328.133 449.737 329.215 443.623 332.077L445.319 335.7ZM464.135 388.305C472.104 431.737 462.088 451.278 457.471 480.613L461.422 481.235C465.912 452.708 476.202 431.908 468.069 387.584L464.135 388.305ZM396.404 477.629C397.823 488.971 401.428 501.812 404.792 516.013C408.176 530.296 411.379 546.164 412.136 563.908L416.133 563.738C415.359 545.619 412.09 529.464 408.684 515.091C405.259 500.635 401.756 488.188 400.373 477.133L396.404 477.629ZM401.458 330.014L401.319 337.837L405.318 337.908L405.457 330.085L401.458 330.014ZM401.303 337.972L400.031 343.643L403.935 344.518L405.206 338.847L401.303 337.972ZM465.5 343.39C464.466 348.874 463.811 353.701 463.456 358.487L467.445 358.783C467.787 354.169 468.42 349.493 469.431 344.131L465.5 343.39ZM463.54 359.777C465.547 369.493 466.132 377.374 464.184 386.011L468.086 386.891C470.208 377.484 469.525 368.976 467.458 358.968L463.54 359.777ZM456.002 481.877C421.295 481.333 399.84 470.955 375.765 456.511L373.707 459.941C398.07 474.558 420.235 485.317 455.939 485.877L456.002 481.877ZM364.179 393.468C366.149 394.993 368.068 396.48 369.938 397.93L372.389 394.768C370.518 393.318 368.599 391.831 366.629 390.305L364.179 393.468ZM369.938 397.93C376.594 403.09 381.624 406.895 386.21 410.361C390.797 413.827 394.934 416.95 399.82 420.759L402.28 417.604C397.366 413.775 393.206 410.634 388.622 407.17C384.038 403.706 379.024 399.913 372.389 394.768L369.938 397.93ZM399.742 420.695L404.538 424.84L407.154 421.814L402.358 417.669L399.742 420.695ZM402.955 419.79L416.025 378.831L412.214 377.615L399.145 418.574L402.955 419.79ZM416.261 377.269L416.134 362.027L412.134 362.061L412.261 377.303L416.261 377.269ZM373.021 459.255C376.132 464.435 379.173 468.137 383.059 471.21C386.917 474.26 391.514 476.614 397.601 479.22L399.175 475.542C393.182 472.977 388.976 470.789 385.54 468.072C382.132 465.378 379.388 462.088 376.45 457.196L373.021 459.255ZM401.319 337.837C401.318 337.883 401.313 337.928 401.303 337.972L405.206 338.847C405.275 338.539 405.313 338.224 405.318 337.908L401.319 337.837ZM457.471 480.613C457.352 481.365 456.713 481.888 456.002 481.877L455.939 485.877C458.683 485.92 461 483.914 461.422 481.235L457.471 480.613ZM468.069 387.583C468.029 387.365 468.034 387.122 468.086 386.891L464.184 386.011C464.016 386.754 463.995 387.542 464.135 388.305L468.069 387.583ZM465.519 342.965C465.534 343.085 465.53 343.232 465.5 343.39L469.431 344.131C469.53 343.606 469.559 343.04 469.488 342.469L465.519 342.965ZM444.712 336.299C444.846 336.03 445.064 335.819 445.319 335.7L443.623 332.077C442.535 332.587 441.661 333.454 441.132 334.516L444.712 336.299ZM439.778 365.853C439.748 365.716 439.735 365.558 439.744 365.412L435.752 365.165C435.72 365.677 435.76 366.208 435.872 366.716L439.778 365.853ZM447.895 391.718C447.877 391.004 447.722 390.293 447.437 389.636L443.767 391.226C443.846 391.41 443.891 391.613 443.896 391.815L447.895 391.718ZM362.511 394.111C362.661 393.324 363.569 392.995 364.179 393.468L366.629 390.305C363.642 387.992 359.29 389.662 358.582 393.359L362.511 394.111ZM363.591 395.38C362.926 395.412 362.378 394.804 362.511 394.111L358.582 393.359C357.968 396.566 360.502 399.533 363.783 399.375L363.591 395.38ZM370.464 394.095C370.333 394.373 370.145 394.606 369.926 394.777L372.4 397.921C373.112 397.36 373.689 396.634 374.082 395.801L370.464 394.095ZM369.926 394.777C369.659 394.988 369.353 395.104 369.038 395.119L369.23 399.114C370.424 399.057 371.519 398.614 372.4 397.921L369.926 394.777ZM381.972 383.138C380.791 383.139 379.575 383.499 378.571 384.281L381.03 387.437C381.262 387.256 381.59 387.138 381.973 387.138L381.972 383.138ZM397.749 377.751C397.745 378.31 397.451 378.799 397.009 379.049L398.983 382.528C400.707 381.55 401.735 379.723 401.749 377.78L397.749 377.751ZM402.375 352.062C399.782 352.563 397.915 354.83 397.896 357.465L401.895 357.494C401.901 356.75 402.427 356.126 403.134 355.989L402.375 352.062ZM405.42 353.185C404.855 352.55 405.181 351.52 406.044 351.353L406.803 355.281C409.011 354.854 409.886 352.19 408.409 350.528L405.42 353.185ZM404.288 345.892C403.958 345.521 403.825 345.009 403.935 344.518L400.031 343.643C399.641 345.386 400.111 347.214 401.299 348.55L404.288 345.892ZM401.411 329.618C401.443 329.731 401.461 329.864 401.458 330.014L405.457 330.085C405.467 329.577 405.407 329.051 405.26 328.531L401.411 329.618ZM340.28 305.127C340.355 305.069 340.433 305.02 340.5 304.987L338.701 301.414C338.387 301.572 338.091 301.762 337.828 301.967L340.28 305.127ZM463.456 358.487C463.423 358.925 463.454 359.36 463.54 359.777L467.458 358.968C467.444 358.901 467.441 358.838 467.445 358.783L463.456 358.487ZM335.719 375.761C336.782 374.08 336.85 371.96 335.951 370.217L332.396 372.051C332.657 372.558 332.628 373.165 332.338 373.624L335.719 375.761ZM404.617 424.904C407.414 427.085 411.063 429.816 414.636 432.489C418.22 435.17 421.726 437.789 424.273 439.77L426.728 436.612C424.145 434.603 420.602 431.956 417.031 429.286C413.449 426.606 409.835 423.901 407.076 421.749L404.617 424.904ZM424.273 439.77C427.861 442.56 430.472 444.694 433.145 446.869C435.82 449.046 438.55 451.258 442.352 454.182L444.79 451.011C441.032 448.121 438.336 445.936 435.67 443.767C433.001 441.595 430.357 439.433 426.728 436.612L424.273 439.77ZM447.437 389.636C446.97 388.559 445.801 385.308 444.612 381.958C443.45 378.682 442.282 375.35 441.865 374.276L438.136 375.724C438.525 376.725 439.656 379.952 440.843 383.295C442.002 386.563 443.231 389.99 443.767 391.226L447.437 389.636ZM441.865 374.276C440.885 371.752 440.948 371.99 440.903 371.706C440.813 371.145 440.71 370.069 439.778 365.853L435.872 366.716C436.776 370.804 436.862 371.773 436.953 372.337C437.087 373.179 437.32 373.623 438.136 375.724L441.865 374.276ZM427.415 438.771C432.186 423.02 437.206 398.707 441.96 375.4L438.041 374.6C433.272 397.978 428.292 422.079 423.587 437.611L427.415 438.771ZM312.986 413.463C317.234 405.729 322.307 397.434 328.194 388.064L324.807 385.936C318.913 395.318 313.787 403.695 309.48 411.537L312.986 413.463ZM320.393 565.853C295.836 494.045 291.476 464.667 303.595 433.219L299.862 431.781C287.166 464.73 292.075 495.411 316.608 567.147L320.393 565.853ZM416.025 378.831C416.186 378.326 416.265 377.799 416.261 377.269L412.261 377.303C412.262 377.409 412.246 377.514 412.214 377.615L416.025 378.831Z" fill="black" fill-opacity="0.2"></path><path d="M306.328 495.999C325.618 589.576 376 613.999 260.166 647.109C210 661.448 150.248 582.324 137.5 495.999C124.752 409.675 145.952 378.35 202.5 369.999C241.016 364.311 285.305 353.623 306.328 403.999C316.171 427.585 302.263 468.472 306.328 495.999Z" fill="#7B1FA2"></path><path d="M325.891 387.72L327.522 388.877C328.015 388.182 328.014 387.251 327.519 386.558C327.024 385.865 326.144 385.561 325.326 385.802L325.891 387.72ZM322.792 589.826L324.385 591.035L324.441 590.961L324.491 590.881L322.792 589.826ZM318.449 567.218L316.536 567.801C316.764 568.549 317.407 569.096 318.182 569.2C318.957 569.305 319.722 568.948 320.14 568.287L318.449 567.218ZM359.348 395.268L360.438 396.945C361.294 396.389 361.594 395.276 361.133 394.365C360.671 393.453 359.597 393.036 358.642 393.397L359.348 395.268ZM291 416.999L292.838 416.211L292.834 416.201L292.83 416.192L291 416.999ZM262.5 433.044C262.508 431.939 261.619 431.038 260.514 431.029C259.41 431.021 258.508 431.91 258.5 433.015L262.5 433.044ZM241.358 490.868L242.928 492.107L241.358 490.868ZM226.324 496.957L226.526 494.967L226.324 496.957ZM383.567 469.84L384.654 468.161L383.567 469.84ZM379.401 470.756L381.092 471.824L379.401 470.756ZM391.822 478.689L390.123 477.634L391.822 478.689ZM390.904 474.587L391.99 472.908L390.904 474.587ZM225.475 624.287L226.039 622.368L225.475 624.287ZM223.687 623.419L222.522 625.045L223.687 623.419ZM292.187 412.705L291.271 410.927L292.187 412.705ZM295.186 419.485L294.48 417.614L295.186 419.485ZM291.369 417.86L289.531 418.648L289.531 418.648L291.369 417.86ZM317.801 399.128L316.169 397.971L317.801 399.128ZM316.728 400.059L315.812 398.281L316.728 400.059ZM163.213 413.219L164.687 414.571L163.213 413.219ZM162.099 414.965L160.25 414.201L162.099 414.965ZM300.92 434.082L302.839 434.647L300.92 434.082ZM302.153 432.433L303.243 434.11L302.153 432.433ZM287.931 398.894L288.495 400.813L287.931 398.894ZM284.938 398.131L283.535 399.556L284.938 398.131ZM288.495 400.813L326.456 389.639L325.326 385.802L287.366 396.975L288.495 400.813ZM324.26 386.563L316.169 397.971L319.432 400.285L327.522 388.877L324.26 386.563ZM315.812 398.281L291.271 410.927L293.103 414.483L317.644 401.837L315.812 398.281ZM241.829 384.187C214.473 386.806 198.621 389.112 187.545 393.08C176.288 397.113 170.019 402.844 161.74 411.867L164.687 414.571C172.807 405.721 178.546 400.554 188.894 396.846C199.423 393.073 214.775 390.795 242.21 388.169L241.829 384.187ZM224.911 626.206C251.628 634.055 268.86 635.743 283.358 629.956C297.777 624.201 309.083 611.19 324.385 591.035L321.199 588.616C305.795 608.906 295.106 620.96 281.875 626.241C268.723 631.491 252.648 630.186 226.039 622.368L224.911 626.206ZM324.491 590.881L393.521 479.744L390.123 477.634L321.093 588.77L324.491 590.881ZM391.99 472.908L384.654 468.161L382.481 471.519L389.817 476.266L391.99 472.908ZM377.71 469.688L316.758 566.15L320.14 568.287L381.092 471.824L377.71 469.688ZM320.362 566.635C298.224 493.993 293.679 465.702 302.839 434.647L299.002 433.516C289.459 465.87 294.431 495.268 316.536 567.801L320.362 566.635ZM303.243 434.11L360.438 396.945L358.258 393.591L301.063 430.756L303.243 434.11ZM358.642 393.397L294.48 417.614L295.892 421.357L360.054 397.139L358.642 393.397ZM286.341 396.705C283.647 394.054 281.175 391.883 278.625 390.065L276.303 393.322C278.623 394.976 280.93 396.992 283.535 399.556L286.341 396.705ZM293.207 417.073L292.838 416.211L289.162 417.787L289.531 418.648L293.207 417.073ZM292.83 416.192L292.646 415.776L288.987 417.391L289.17 417.807L292.83 416.192ZM160.25 414.201C151.961 434.258 146.725 452.524 149.672 467.717L153.599 466.955C150.901 453.045 155.661 435.778 163.947 415.729L160.25 414.201ZM242.928 492.107C249.513 483.766 254.39 476.136 257.622 466.965C260.852 457.803 262.395 447.231 262.5 433.044L258.5 433.015C258.397 446.934 256.883 457.03 253.85 465.636C250.82 474.232 246.229 481.469 239.789 489.629L242.928 492.107ZM159.18 481.461L163.288 484.59L165.712 481.408L161.604 478.279L159.18 481.461ZM163.524 484.745C185.152 496.828 201.729 496.464 226.121 498.946L226.526 494.967C201.729 492.443 186.199 492.831 165.475 481.253L163.524 484.745ZM162.506 483.157C166.165 529.278 173.221 559.102 183.375 580.243C193.568 601.464 206.817 613.798 222.522 625.045L224.851 621.793C209.481 610.786 196.787 598.929 186.981 578.512C177.136 558.015 170.136 528.756 166.494 482.841L162.506 483.157ZM239.789 489.629C236.689 493.556 231.642 495.488 226.526 494.967L226.121 498.946C232.456 499.591 238.896 497.214 242.928 492.107L239.789 489.629ZM384.654 468.161C382.318 466.649 379.197 467.335 377.71 469.688L381.092 471.824C381.389 471.354 382.013 471.217 382.481 471.519L384.654 468.161ZM393.521 479.744C394.959 477.429 394.278 474.389 391.99 472.908L389.817 476.266C390.275 476.563 390.411 477.171 390.123 477.634L393.521 479.744ZM226.039 622.368C225.615 622.243 225.199 622.042 224.851 621.793L222.522 625.045C223.246 625.564 224.07 625.959 224.911 626.206L226.039 622.368ZM149.672 467.717C150.808 473.573 154.797 478.121 159.18 481.461L161.604 478.279C157.602 475.23 154.47 471.447 153.599 466.955L149.672 467.717ZM242.21 388.169C254.497 386.992 266.982 386.679 276.303 393.322L278.625 390.065C267.944 382.453 253.994 383.022 241.829 384.187L242.21 388.169ZM291.271 410.927C288.92 412.139 287.919 414.971 288.987 417.391L292.646 415.776C292.433 415.292 292.633 414.725 293.103 414.483L291.271 410.927ZM294.48 417.614C293.979 417.803 293.418 417.564 293.207 417.073L289.531 418.648C290.585 421.108 293.388 422.301 295.892 421.357L294.48 417.614ZM316.169 397.971C316.077 398.102 315.954 398.208 315.812 398.281L317.644 401.837C318.356 401.47 318.969 400.938 319.432 400.285L316.169 397.971ZM161.74 411.867C161.117 412.545 160.605 413.344 160.25 414.201L163.947 415.729C164.12 415.311 164.377 414.91 164.687 414.571L161.74 411.867ZM302.839 434.647C302.902 434.433 303.045 434.239 303.243 434.11L301.063 430.756C300.076 431.398 299.338 432.375 299.002 433.516L302.839 434.647ZM287.366 396.975C287.021 397.077 286.624 396.984 286.341 396.705L283.535 399.556C284.827 400.827 286.721 401.335 288.495 400.813L287.366 396.975Z" fill="black"></path><path d="M431.689 351.806C432.375 355.375 432.159 358.665 431.354 361.073C430.527 363.548 429.259 364.662 428.123 364.881C426.986 365.099 425.396 364.534 423.711 362.541C422.071 360.603 420.651 357.627 419.966 354.058C419.28 350.49 419.496 347.199 420.301 344.792C421.128 342.316 422.396 341.202 423.532 340.984C424.668 340.766 426.258 341.331 427.944 343.324C429.584 345.261 431.004 348.238 431.689 351.806Z" stroke="black" stroke-width="4"></path><path d="M422.931 340.416C420.81 335.299 417.203 332.049 413.826 332.698C409.504 333.528 407.197 340.43 408.673 348.114C410.149 355.797 414.849 361.353 419.171 360.522C419.925 360.378 420.618 360.048 421.24 359.561" stroke="black" stroke-width="4"></path><path d="M430.052 364.48L437.5 363.001M483.854 353.297L466 357.501" stroke="black" stroke-width="4" stroke-linecap="round"></path><path d="M479.581 332.019C480.658 331.774 481.333 330.703 481.089 329.626C480.845 328.549 479.774 327.873 478.696 328.118L479.581 332.019ZM442.397 338.96C443.48 338.741 444.18 337.686 443.96 336.603C443.741 335.52 442.686 334.821 441.603 335.04L442.397 338.96ZM463.558 331.55C462.481 331.794 461.806 332.865 462.05 333.942C462.294 335.02 463.365 335.695 464.442 335.451L463.558 331.55ZM423.017 342.886L442.397 338.96L441.603 335.04L422.223 338.966L423.017 342.886ZM464.442 335.451L479.581 332.019L478.696 328.118L463.558 331.55L464.442 335.451Z" fill="black"></path><path d="M483.623 351.036C482.538 351.245 481.828 352.293 482.036 353.378C482.245 354.462 483.293 355.173 484.378 354.964L483.623 351.036ZM487.255 340.681C487.925 344.169 487.659 346.686 486.937 348.325C486.252 349.88 485.123 350.748 483.623 351.036L484.378 354.964C487.2 354.422 489.396 352.664 490.597 349.938C491.761 347.298 491.943 343.882 491.184 339.926L487.255 340.681ZM479.516 332.032C480.958 331.755 482.481 332.182 483.877 333.525C485.303 334.896 486.595 337.246 487.255 340.681L491.184 339.926C490.414 335.918 488.826 332.735 486.65 330.642C484.443 328.52 481.641 327.551 478.761 328.104L479.516 332.032Z" fill="black"></path><path d="M416 332L470.512 322.709" stroke="black" stroke-width="4" stroke-linecap="round"></path><path d="M480.443 329.817C477.802 323.112 473.12 322.208 470.512 322.709" stroke="black" stroke-width="4"></path></svg>