<svg xmlns="http://www.w3.org/2000/svg" width="1920" height="1080" viewBox="0 0 1920 1080" fill="none"><ellipse cx="454.212" cy="318.736" rx="112.834" ry="71.1854" fill="#FFDE03"></ellipse><path d="M860.634 512.58L1053.44 547.625L948.273 142.416C923.492 270.221 860.634 512.58 860.634 512.58Z" fill="#F8F8F8"></path><path d="M584.575 481.915C469.316 510.72 385.837 537.623 276.645 574.011C247.01 583.886 276.225 612.159 485.93 564.915C593.605 540.658 639.02 583.107 687.55 574.011C665.64 564.916 649.786 465.617 584.575 481.915Z" fill="#F8F8F8"></path><path d="M1607.75 652.759C1663.63 677.858 1655.95 786.461 1590.22 806.083C1486.23 837.129 1307.61 674.77 1206.81 742.562C954.847 912.01 460.789 787.023 473.314 786.461C626.043 779.599 722.695 767.135 819.522 719.059L904.454 668.021C1082.4 543.564 1279.98 505.525 1607.75 652.759Z" fill="#F8F8F8"></path><path d="M396.476 392.377C306.703 414.813 234.649 438.431 149.602 466.773C126.519 474.465 149.274 496.486 312.61 459.689C396.476 440.795 507.51 443.156 545.309 436.071C492.155 419.539 447.268 379.682 396.476 392.377Z" fill="#F8F8F8"></path><path d="M186.915 452.254C278.935 458.825 496.843 382.653 446.437 416.458C396.031 450.263 439.611 338.297 439.611 338.297C435.776 338.297 430.225 332.326 439.611 332.326C444.685 332.326 441.318 317.825 441.318 317.825C441.318 317.825 437.907 312.848 446.437 309.295C456.676 305.03 448.997 295.646 453.263 295.646C457.529 295.646 452.652 303.639 459.236 307.589C467.768 312.707 470.328 316.119 451.557 316.119C445.56 316.119 454.116 320.384 462.649 320.384C471.181 320.384 464.355 330.62 464.355 330.62C464.355 330.62 472.916 329.767 470.328 334.885C467.74 340.003 462.734 334.199 462.649 340.856C462.255 371.767 486.968 402.855 516.404 416.458C559.673 436.454 771.957 459.815 753.396 441.909C734.835 424.004 706.282 451.093 655.548 477.336C596.213 508.027 511.112 553.262 420.904 563.489C340.018 572.659 271.25 560.152 239.969 544.645C97.0418 473.793 735.902 399.539 885.83 436.922" stroke="black" stroke-width="4" stroke-linecap="round"></path><path d="M907.741 725.04C948.273 779.798 870.494 846.603 810.243 752.419C790.882 722.155 685.358 572.813 639.348 497.247M639.348 497.247C639.348 497.247 842.775 470.963 907.741 470.963C907.741 470.963 900.121 498.806 886.926 509.918C855.158 536.672 948.273 135.844 948.273 135.844M639.348 497.247L1062.2 551.677M948.273 135.844L1062.2 551.677M948.273 135.844L1216.67 400.046M1274.73 460.399L1216.67 400.046M1642.81 302.308L1539.83 670.281C1463.15 700.947 1340.45 521.013 1134.5 551.677M1642.81 302.308C1642.81 302.308 1478.49 340.38 1421.52 354.876C1364.56 369.372 1216.67 400.046 1216.67 400.046M1642.81 302.308L1062.2 551.677M1134.5 551.677C982.125 574.366 901.325 670.281 786.142 740.372C685.358 801.701 510.082 827.985 393.961 790.75M1134.5 551.677H1062.2" stroke="black" stroke-width="4" stroke-linecap="round" stroke-linejoin="round"></path></svg>