<svg xmlns="http://www.w3.org/2000/svg" width="1920" height="1080" viewBox="0 0 1920 1080" fill="none"><path d="M504.499 431C500.091 563.305 668.5 621.5 668.5 621.5C668.5 621.5 734.881 690.544 788.5 717.5C828.444 737.581 860.469 727.45 897.5 752.5C975.918 805.547 978.5 981 978.5 981H1212.5L1179.5 820.5C1179.5 820.5 1301.44 802.018 1356.5 752.5C1408.72 705.531 1424.08 662.042 1441.5 594C1464.07 505.858 1457.49 447.044 1426.5 361.5C1367.24 197.941 1243.8 128.485 1074.5 88.4997C946.305 58.2235 860.941 69.4364 738.5 118C601.73 172.246 509.398 283.947 504.499 431Z" fill="#FAF9FF" stroke="#FAF9FF" stroke-width="3" stroke-linecap="round" stroke-linejoin="round"></path><path d="M494.992 381.775C467.486 382.43 467.967 417.907 459.933 435.985C453.408 450.667 450.512 466.885 450.512 483.245" stroke="white" stroke-width="4" stroke-linecap="round"></path><path d="M489.433 384.555C466.153 402.191 461.839 431.197 453.293 456.834" stroke="white" stroke-width="4" stroke-linecap="round"></path><path d="M1228 275.5C1226.27 263.775 1254.72 251.5 1247.5 233C1239.5 212.5 1235.86 186.785 1201.83 189M1069 140C1069 140 1101.52 143.762 1121.79 149.496C1149.1 157.225 1166.77 159.019 1189.29 178.483C1205.47 192.477 1207.43 202.567 1201.83 217.466C1197.63 228.642 1179.77 235.458 1179.77 235.458" stroke="black" stroke-width="4" stroke-linecap="round"></path><path d="M1135.51 487.303C1135.4 488.402 1136.2 489.381 1137.3 489.489C1138.4 489.598 1139.38 488.794 1139.49 487.695L1135.51 487.303ZM1000 302.499L1000.71 300.629L1000 302.499ZM731.499 354.499L729.503 354.376L731.499 354.499ZM766 435.499L765.645 437.467L765.645 437.467L766 435.499ZM841 443.999L840.798 445.989C840.865 445.996 840.933 445.999 841 445.999L841 443.999ZM805 403.499L804.446 405.421L805 403.499ZM776 364.999L777.947 364.542L777.947 364.542L776 364.999ZM931.5 329.999L931.921 328.044L931.5 329.999ZM1080 403.499L1078.8 405.096L1080 403.499ZM1092 468.999L1093.9 469.624L1092 468.999ZM931.5 542.499L931.589 544.497C931.609 544.496 931.628 544.495 931.648 544.494L931.5 542.499ZM888 532.499L889.524 531.204L889.524 531.204L888 532.499ZM941.5 507.999L941.305 506.009L941.297 506.009L941.5 507.999ZM1070.5 450.999L1072.49 450.814L1070.5 450.999ZM866.567 439.257C865.881 438.391 864.623 438.246 863.758 438.932C862.892 439.618 862.747 440.876 863.433 441.741L866.567 439.257ZM853 401.499L852.966 399.499L853 401.499ZM1139.49 487.695C1144.55 436.352 1128.09 396.436 1101.19 365.926C1074.34 335.472 1037.14 314.446 1000.71 300.629L999.291 304.369C1035.36 318.052 1071.91 338.776 1098.19 368.572C1124.41 398.312 1140.45 437.146 1135.51 487.303L1139.49 487.695ZM1000.71 300.629C955.513 283.486 889.107 278.917 833.467 287.419C805.639 291.671 780.337 299.216 761.661 310.219C742.991 321.218 730.641 335.874 729.503 354.376L733.496 354.622C734.519 337.98 745.613 324.316 763.691 313.665C781.764 303.018 806.515 295.583 834.071 291.373C889.2 282.949 954.883 287.525 999.291 304.369L1000.71 300.629ZM729.503 354.376C728.597 369.106 727.36 387.916 731.392 403.938C733.417 411.986 736.796 419.453 742.311 425.383C747.849 431.338 755.432 435.627 765.645 437.467L766.355 433.531C756.92 431.831 750.14 427.928 745.24 422.659C740.318 417.365 737.187 410.577 735.271 402.962C731.42 387.657 732.58 369.508 733.496 354.622L729.503 354.376ZM765.645 437.467C771.412 438.506 790.258 440.64 807.544 442.505C816.213 443.44 824.526 444.311 830.672 444.948C833.745 445.267 836.276 445.527 838.039 445.707C838.921 445.798 839.61 445.868 840.08 445.916C840.314 445.94 840.494 445.958 840.615 445.97C840.675 445.976 840.721 445.981 840.752 445.984C840.767 445.986 840.779 445.987 840.786 445.988C840.79 445.988 840.793 445.988 840.795 445.989C840.796 445.989 840.797 445.989 840.797 445.989C840.798 445.989 840.798 445.989 841 443.999C841.202 442.009 841.202 442.009 841.201 442.009C841.201 442.009 841.2 442.009 841.199 442.009C841.197 442.009 841.194 442.008 841.19 442.008C841.183 442.007 841.171 442.006 841.156 442.005C841.125 442.001 841.08 441.997 841.019 441.991C840.899 441.978 840.719 441.96 840.485 441.936C840.017 441.889 839.328 441.818 838.447 441.728C836.685 441.548 834.155 441.288 831.084 440.969C824.942 440.332 816.635 439.462 807.973 438.528C790.598 436.654 771.943 434.538 766.355 433.531L765.645 437.467ZM841 443.999C841 445.999 841.001 445.999 841.002 445.999C841.002 445.999 841.003 445.999 841.005 445.999C841.007 445.999 841.009 445.999 841.013 445.999C841.019 445.999 841.028 445.999 841.039 445.999C841.062 445.999 841.094 445.999 841.135 445.998C841.216 445.997 841.334 445.995 841.485 445.992C841.787 445.985 842.224 445.971 842.776 445.943C843.88 445.887 845.449 445.776 847.327 445.556C851.074 445.115 856.105 444.232 861.165 442.448C866.213 440.668 871.408 437.951 875.36 433.771C879.354 429.546 882 423.903 882 416.499H878C878 422.845 875.771 427.514 872.453 431.023C869.092 434.578 864.537 437.017 859.835 438.675C855.145 440.329 850.426 441.164 846.86 441.583C845.083 441.792 843.604 441.896 842.575 441.948C842.061 441.974 841.66 441.987 841.391 441.993C841.256 441.996 841.155 441.998 841.089 441.998C841.056 441.999 841.032 441.999 841.017 441.999C841.01 441.999 841.004 441.999 841.002 441.999C841 441.999 840.999 441.999 840.999 441.999C840.999 441.999 840.999 441.999 840.999 441.999C840.999 441.999 841 441.999 841 443.999ZM805.554 401.577C788.596 396.691 782.218 382.757 777.947 364.542L774.053 365.455C778.375 383.893 785.229 399.884 804.446 405.421L805.554 401.577ZM777.947 364.542C776.736 359.375 777.494 354.994 779.742 351.202C782.024 347.354 785.929 343.965 791.242 341.037C801.893 335.165 817.648 331.44 835.202 329.365C870.272 325.219 911.57 327.756 931.079 331.954L931.921 328.044C911.93 323.742 870.185 321.201 834.733 325.392C817.027 327.485 800.651 331.282 789.311 337.534C783.627 340.667 779.071 344.491 776.302 349.162C773.499 353.889 772.618 359.335 774.053 365.455L777.947 364.542ZM931.079 331.954C967.019 339.688 982.424 341.881 999.644 350.137C1016.91 358.416 1035.96 372.779 1078.8 405.096L1081.2 401.902C1038.54 369.719 1019.1 355.028 1001.37 346.53C983.6 338.008 967.504 335.701 931.921 328.044L931.079 331.954ZM1078.8 405.096C1091.73 414.851 1096.82 422.953 1097.74 432.152C1098.68 441.623 1095.29 452.59 1090.1 468.374L1093.9 469.624C1099.01 454.106 1102.77 442.246 1101.72 431.754C1100.64 420.989 1094.58 411.992 1081.2 401.902L1078.8 405.096ZM1090.1 468.374C1085.12 483.524 1072.93 495.684 1057.11 505.407C1041.31 515.12 1022.1 522.274 1003.42 527.491C984.767 532.704 966.739 535.96 953.369 537.911C946.686 538.887 941.174 539.536 937.335 539.941C935.416 540.143 933.916 540.284 932.897 540.375C932.388 540.42 931.999 540.453 931.739 540.474C931.609 540.485 931.511 540.492 931.446 540.497C931.414 540.5 931.39 540.502 931.374 540.503C931.366 540.503 931.36 540.504 931.356 540.504C931.355 540.504 931.353 540.504 931.353 540.504C931.352 540.505 931.352 540.505 931.5 542.499C931.648 544.494 931.649 544.493 931.651 544.493C931.652 544.493 931.654 544.493 931.656 544.493C931.661 544.493 931.668 544.492 931.677 544.491C931.695 544.49 931.722 544.488 931.757 544.485C931.826 544.48 931.929 544.472 932.064 544.461C932.334 544.439 932.732 544.405 933.252 544.359C934.29 544.267 935.812 544.123 937.755 543.919C941.639 543.509 947.205 542.854 953.947 541.869C967.425 539.902 985.63 536.616 1004.5 531.344C1023.36 526.075 1042.97 518.799 1059.21 508.814C1075.43 498.839 1088.5 486.032 1093.9 469.624L1090.1 468.374ZM931.5 542.499C931.411 540.501 931.412 540.501 931.412 540.501C931.411 540.501 931.411 540.501 931.411 540.501C931.411 540.501 931.41 540.501 931.408 540.501C931.405 540.501 931.4 540.502 931.392 540.502C931.378 540.502 931.356 540.503 931.326 540.504C931.265 540.507 931.174 540.51 931.053 540.514C930.812 540.522 930.454 540.532 929.992 540.541C929.069 540.559 927.735 540.573 926.101 540.553C922.83 540.515 918.377 540.345 913.634 539.822C908.88 539.299 903.896 538.428 899.539 537.01C895.14 535.578 891.615 533.663 889.524 531.204L886.476 533.794C889.272 537.083 893.627 539.292 898.301 540.814C903.016 542.348 908.297 543.259 913.196 543.798C918.106 544.339 922.696 544.513 926.054 544.553C927.735 544.573 929.111 544.559 930.071 544.541C930.551 544.531 930.927 544.52 931.184 544.512C931.313 544.508 931.412 544.504 931.48 544.502C931.514 544.5 931.54 544.499 931.559 544.498C931.568 544.498 931.575 544.498 931.58 544.497C931.582 544.497 931.584 544.497 931.586 544.497C931.586 544.497 931.587 544.497 931.588 544.497C931.588 544.497 931.589 544.497 931.5 542.499ZM889.524 531.204C887.936 529.336 887.717 527.946 887.971 526.884C888.254 525.696 889.255 524.347 891.251 522.906C895.24 520.026 902.07 517.583 909.669 515.62C917.193 513.676 925.2 512.267 931.345 511.343C934.413 510.881 937.008 510.542 938.834 510.319C939.747 510.207 940.467 510.124 940.957 510.069C941.203 510.042 941.391 510.022 941.517 510.008C941.58 510.002 941.627 509.997 941.658 509.993C941.674 509.992 941.686 509.991 941.693 509.99C941.697 509.989 941.7 509.989 941.701 509.989C941.702 509.989 941.703 509.989 941.703 509.989C941.703 509.989 941.703 509.989 941.5 507.999C941.297 506.009 941.296 506.009 941.295 506.01C941.295 506.01 941.294 506.01 941.292 506.01C941.29 506.01 941.286 506.01 941.282 506.011C941.273 506.012 941.26 506.013 941.243 506.015C941.208 506.019 941.158 506.024 941.092 506.031C940.96 506.045 940.766 506.066 940.514 506.094C940.01 506.15 939.276 506.235 938.348 506.348C936.492 506.576 933.86 506.92 930.75 507.387C924.538 508.321 916.38 509.755 908.668 511.747C901.031 513.72 893.556 516.308 888.91 519.663C886.587 521.34 884.688 523.409 884.08 525.955C883.443 528.626 884.343 531.285 886.476 533.794L889.524 531.204ZM941.5 507.999C941.695 509.99 941.696 509.989 941.697 509.989C941.698 509.989 941.7 509.989 941.702 509.989C941.707 509.988 941.713 509.988 941.722 509.987C941.739 509.985 941.764 509.983 941.796 509.979C941.862 509.973 941.959 509.963 942.087 509.95C942.342 509.923 942.719 509.884 943.21 509.83C944.192 509.723 945.628 509.561 947.452 509.339C951.1 508.895 956.304 508.212 962.534 507.255C974.987 505.341 991.572 502.326 1008.05 497.925C1024.49 493.532 1040.97 487.72 1053.12 480.158C1065.2 472.646 1073.62 462.991 1072.49 450.814L1068.51 451.184C1069.42 460.998 1062.74 469.464 1051.01 476.762C1039.36 484.011 1023.33 489.701 1007.01 494.06C990.728 498.411 974.298 501.4 961.926 503.301C955.744 504.251 950.582 504.929 946.969 505.368C945.162 505.588 943.743 505.749 942.777 505.854C942.294 505.906 941.924 505.945 941.676 505.971C941.552 505.984 941.459 505.993 941.397 505.999C941.365 506.003 941.342 506.005 941.327 506.006C941.319 506.007 941.314 506.008 941.31 506.008C941.308 506.008 941.307 506.008 941.306 506.008C941.305 506.009 941.305 506.009 941.5 507.999ZM1072.49 450.814C1071.69 442.208 1066.33 434.177 1058.83 427.066C1051.3 419.926 1041.39 413.502 1031.01 408.115C1020.61 402.723 1009.67 398.332 1000.03 395.286C990.432 392.256 981.94 390.499 976.5 390.499V394.499C981.31 394.499 989.327 396.102 998.821 399.1C1008.26 402.081 1018.99 406.386 1029.17 411.666C1039.36 416.952 1048.92 423.176 1056.08 429.969C1063.28 436.792 1067.84 443.979 1068.51 451.184L1072.49 450.814ZM976.5 390.499C966.17 390.499 960.852 391.205 955.218 393.808C952.467 395.079 949.681 396.781 946.241 398.966C942.778 401.165 938.603 403.885 932.967 407.287L935.033 410.711C940.722 407.279 944.959 404.519 948.386 402.343C951.835 400.152 954.415 398.585 956.895 397.439C961.723 395.209 966.33 394.499 976.5 394.499V390.499ZM932.967 407.287C926.886 410.956 923.327 415.85 920.805 420.994C919.552 423.549 918.551 426.174 917.63 428.722C916.697 431.302 915.863 433.754 914.903 436.123C912.994 440.831 910.729 444.831 906.844 447.704C902.971 450.568 897.227 452.499 888 452.499V456.499C897.772 456.499 904.447 454.451 909.223 450.92C913.987 447.397 916.599 442.585 918.61 437.626C919.608 435.162 920.494 432.567 921.392 430.082C922.302 427.565 923.243 425.107 924.396 422.755C926.685 418.087 929.788 413.876 935.033 410.711L932.967 407.287ZM888 452.499C882.768 452.499 877.478 449.379 873.306 445.953C871.259 444.273 869.564 442.587 868.381 441.321C867.791 440.689 867.331 440.165 867.021 439.802C866.867 439.621 866.75 439.48 866.673 439.387C866.635 439.341 866.607 439.306 866.589 439.284C866.58 439.273 866.574 439.265 866.57 439.26C866.568 439.258 866.567 439.257 866.567 439.256C866.567 439.256 866.566 439.256 866.567 439.256C866.567 439.256 866.567 439.256 866.567 439.256C866.567 439.256 866.567 439.257 865 440.499C863.433 441.741 863.433 441.742 863.433 441.742C863.434 441.743 863.434 441.743 863.434 441.744C863.435 441.745 863.436 441.746 863.437 441.747C863.439 441.75 863.442 441.754 863.446 441.758C863.453 441.767 863.463 441.779 863.475 441.795C863.5 441.826 863.536 441.869 863.582 441.925C863.674 442.037 863.807 442.197 863.979 442.399C864.323 442.802 864.823 443.371 865.459 444.052C866.728 445.411 868.551 447.225 870.767 449.045C875.119 452.619 881.329 456.499 888 456.499V452.499ZM882 416.499C882 411.894 880.822 408.348 878.705 405.704C876.6 403.075 873.729 401.538 870.701 400.639C864.783 398.884 857.599 399.421 852.966 399.499L853.034 403.499C858.088 403.414 864.404 402.944 869.564 404.474C872.075 405.219 874.138 406.399 875.582 408.203C877.014 409.992 878 412.595 878 416.499H882ZM852.966 399.499C844.834 399.636 837.083 401.512 829.616 402.602C822.039 403.71 814.341 404.109 805.554 401.577L804.446 405.421C814.004 408.175 822.341 407.708 830.195 406.56C838.159 405.397 845.236 403.63 853.034 403.499L852.966 399.499Z" fill="black"></path><path d="M580.5 299C580.5 299 570.622 310.982 567.5 317.5C561.428 330.18 567.233 337.094 563 350.5C559.46 361.711 551.061 367.252 551.5 379C551.915 390.095 556.305 390.462 557.5 401.5C558.929 414.701 550.355 419.272 551.5 432.5C552.662 445.929 561.106 453.16 573 459.5C591.158 469.179 625 451 625 451" stroke="black" stroke-width="4" stroke-linecap="round"></path><path d="M585.576 365.345L605 371.5C619 374.5 621.674 374.384 626 371.5C632 367.5 630.558 362.055 632.5 361.5" stroke="black" stroke-width="4" stroke-linecap="round"></path><path d="M579.259 406.017C578.163 405.874 577.16 406.646 577.017 407.741C576.874 408.837 577.646 409.84 578.741 409.983L579.259 406.017ZM629.5 423L628.459 424.708L629.5 423ZM673.5 478L674.574 476.313L673.5 478ZM729.752 496.985C730.848 497.122 731.848 496.344 731.985 495.248C732.122 494.152 731.344 493.152 730.248 493.015L729.752 496.985ZM579 408C578.741 409.983 578.741 409.983 578.741 409.983C578.741 409.983 578.742 409.983 578.742 409.983C578.743 409.983 578.744 409.984 578.745 409.984C578.749 409.984 578.754 409.985 578.761 409.986C578.776 409.988 578.798 409.991 578.828 409.995C578.889 410.003 578.979 410.015 579.099 410.032C579.339 410.065 579.695 410.116 580.157 410.184C581.079 410.32 582.42 410.528 584.086 410.81C587.419 411.375 592.044 412.239 597.211 413.434C607.607 415.838 619.965 419.532 628.459 424.708L630.541 421.292C621.466 415.763 608.575 411.957 598.112 409.537C592.851 408.32 588.145 407.441 584.754 406.867C583.058 406.579 581.689 406.367 580.742 406.227C580.269 406.157 579.9 406.105 579.649 406.07C579.523 406.052 579.427 406.039 579.362 406.031C579.329 406.026 579.304 406.023 579.287 406.02C579.278 406.019 579.271 406.018 579.267 406.018C579.264 406.018 579.262 406.017 579.261 406.017C579.26 406.017 579.26 406.017 579.26 406.017C579.259 406.017 579.259 406.017 579 408ZM628.459 424.708C639.669 431.538 644.652 441.106 649.825 451.239C654.97 461.32 660.307 471.976 672.426 479.687L674.574 476.313C663.486 469.258 658.568 459.57 653.387 449.421C648.234 439.324 642.821 428.774 630.541 421.292L628.459 424.708ZM672.426 479.687C682.451 486.066 696.86 490.375 708.59 493.087C714.487 494.451 719.769 495.424 723.578 496.056C725.483 496.373 727.021 496.604 728.086 496.757C728.618 496.833 729.032 496.89 729.314 496.927C729.455 496.946 729.563 496.96 729.637 496.97C729.674 496.975 729.702 496.978 729.721 496.981C729.731 496.982 729.738 496.983 729.743 496.983C729.746 496.984 729.748 496.984 729.749 496.984C729.75 496.984 729.751 496.984 729.751 496.984C729.752 496.985 729.752 496.985 730 495C730.248 493.015 730.248 493.015 730.248 493.015C730.248 493.015 730.248 493.015 730.247 493.015C730.247 493.015 730.245 493.015 730.243 493.015C730.239 493.014 730.233 493.014 730.225 493.013C730.209 493.01 730.183 493.007 730.149 493.003C730.082 492.994 729.979 492.981 729.844 492.963C729.574 492.926 729.173 492.872 728.654 492.797C727.615 492.648 726.106 492.421 724.233 492.11C720.486 491.488 715.288 490.53 709.491 489.19C697.83 486.494 683.989 482.303 674.574 476.313L672.426 479.687Z" fill="black"></path><path d="M1222 401.999C1222 401.999 1238.14 397.909 1248.5 398.999C1262.17 400.438 1267.55 415.319 1281 412.499C1288.8 410.864 1298.5 401.999 1298.5 401.999" stroke="black" stroke-width="4" stroke-linecap="round"></path><path d="M1174.5 322.5C1174.5 322.5 1198 336 1201 356.5" stroke="black" stroke-width="4" stroke-linecap="round"></path><path d="M1096 311C1096 311 1130.8 328.885 1154.5 327.5C1185.65 325.68 1224.5 289 1224.5 289" stroke="black" stroke-width="4" stroke-linecap="round"></path><path d="M1008 266.5C1008 266.5 1047.86 255.06 1072.22 253.85C1093.13 252.812 1107.71 268.405 1125.66 257.9C1139.79 249.633 1147.09 239.019 1147.97 222.969C1148.88 206.37 1128.26 185 1128.26 185" stroke="black" stroke-width="4" stroke-linecap="round"></path><path d="M1144 648.499C1144 648.499 1108.25 619.17 1106 592.999C1102.32 550.118 1148.01 533.609 1189 520.499C1231.1 507.033 1262.85 511.545 1301.5 532.999C1318.86 542.634 1323.29 556.033 1341 564.999C1356.77 572.981 1378.5 569.499 1385 592.999C1394.46 627.214 1392.25 644.081 1368.5 673.999C1356.19 689.505 1340.66 689.279 1328 704.499C1314.93 720.207 1318.88 736.501 1305 751.499C1282.14 776.199 1255.61 769.425 1223.5 779.499C1200.98 786.564 1189.1 796.143 1165.5 796.499C1138.57 796.905 1099.5 776.499 1099.5 776.499" stroke="black" stroke-width="4" stroke-linecap="round"></path><path d="M691.001 420C691.001 420 683.532 392.164 671.001 380C659.158 368.504 633.001 361.5 633.001 361.5C633.001 361.5 588.62 337.106 583.001 309.5C579.706 293.314 575.502 278.299 588.001 267.5C597.186 259.564 608.73 268.703 618.501 261.5C630.119 252.934 622.798 237.712 633.001 227.5C642.95 217.542 655.081 221.883 666.001 213C676.18 204.719 675.063 193.249 686.001 186C697.812 178.172 708.613 184.389 721.501 178.5C736.396 171.694 738.811 158.121 754.001 152C768.201 146.278 778.835 153.807 793.001 148C801.772 144.404 804.489 137.942 813.501 135C824.824 131.303 832.499 138.096 844.001 135C854.549 132.161 857.807 123.734 868.501 121.5C886.095 117.825 912.501 135 912.501 135" stroke="black" stroke-width="4" stroke-linecap="round"></path><path d="M556.5 446.5C556.5 446.5 573.544 509.188 594 535C615.903 562.638 633.83 575.053 666 589.5C714.594 611.323 753.282 578.455 802 600C816.796 606.543 838 620.5 838 620.5" stroke="black" stroke-width="4" stroke-linecap="round"></path><path d="M804 601C804 601 776.835 643.654 784.001 668C792.666 697.438 822.406 700.504 852.501 706.5C871.459 710.277 913 706.5 913 706.5" stroke="black" stroke-width="4" stroke-linecap="round"></path><path d="M862.135 504.815C834.888 495.162 871.206 448 871.206 448C871.206 448 880.12 454.642 887.5 455C894.88 455.358 909 449.833 909 449.833C909 449.833 892.442 515.55 862.135 504.815Z" stroke="black" stroke-width="4" stroke-linecap="round"></path><path d="M866.499 542.5C865.754 533.196 884.2 526 885.499 528C891.993 538.003 905.499 540.5 905.499 540.5C905.499 540.5 894.681 548.585 887 550C877.368 551.774 867.28 552.263 866.499 542.5Z" fill="#FF0266" stroke="black" stroke-width="4" stroke-linecap="round" stroke-linejoin="round"></path><path d="M924.998 562C924.998 562 921.561 587.085 931.499 593C952.499 605.5 983.955 576.301 1014 558.5C1044.83 540.236 1073.5 496.5 1073.5 496.5" stroke="black" stroke-width="4" stroke-linecap="round" stroke-linejoin="round"></path><path d="M824.5 613.499C824.5 613.499 803.999 665.999 829.5 678.999C881.496 705.506 869.036 661.876 866.999 640.999C862.999 599.999 873.799 587.977 896.499 590.499C945.999 595.999 911.499 623.499 914.499 657.999C917.113 688.047 907.995 707.552 920.499 734.999C932.637 761.641 955.924 764.867 972.499 788.999C1004.37 835.405 1012.5 927.499 1012.5 927.499" stroke="black" stroke-width="4" stroke-linecap="round" stroke-linejoin="round"></path><path d="M1157.5 648.999C1157.5 648.999 1107.5 642.999 1107.5 680.499C1107.5 694.66 1083.06 714.291 1093 753.499C1111 824.499 1131.5 928.499 1131.5 928.499" stroke="black" stroke-width="4" stroke-linecap="round" stroke-linejoin="round"></path><path d="M1361.5 375.5C1361.5 375.5 1442.69 450.672 1421.5 500.5C1413.2 520.01 1406.71 535.604 1386.5 542C1364.6 548.93 1313.5 541.5 1313.5 541.5" stroke="black" stroke-width="4" stroke-linecap="round" stroke-linejoin="round"></path><path d="M1385.5 544C1385.5 544 1388.57 555.96 1385.5 562.5C1382.31 569.29 1370.5 574.5 1370.5 574.5" stroke="black" stroke-width="4" stroke-linecap="round" stroke-linejoin="round"></path><path d="M1368 412.5C1368 412.5 1368 432.917 1368 446M1368 446C1366.05 449.71 1363 455.5 1363 455.5M1368 446C1376.2 444.243 1389 441.5 1389 441.5" stroke="black" stroke-width="4" stroke-linecap="round" stroke-linejoin="round"></path><path d="M1313 300C1313 300 1350.42 321.816 1360 345.5C1376.98 387.48 1313 451.5 1313 451.5" stroke="black" stroke-width="4" stroke-linecap="round" stroke-linejoin="round"></path><path d="M924.5 239.001C924.5 239.001 908.156 184.152 928 161.001C946 140 939.806 128.05 960 126.001C994.5 122.501 1035.87 108.561 1064.5 135.501C1085.87 155.611 1090.5 206.001 1090.5 206.001" stroke="black" stroke-width="4" stroke-linecap="round" stroke-linejoin="round"></path><path d="M921.5 227C921.5 227 949.087 232.086 965.5 227C991.349 218.99 989.997 189.488 1014.5 178C1022.89 174.068 1037 170.5 1037 170.5" stroke="black" stroke-width="4" stroke-linecap="round" stroke-linejoin="round"></path><path d="M971.5 122.999C971.5 122.999 942.451 114.624 924 117.499C913.261 119.173 897.5 125.999 897.5 125.999" stroke="black" stroke-width="4" stroke-linecap="round" stroke-linejoin="round"></path><path d="M620 262C620 262 629.11 275.748 638 280.5C649.913 286.868 672.5 283 672.5 283" stroke="black" stroke-width="4" stroke-linecap="round" stroke-linejoin="round"></path><path d="M790.5 149C790.5 149 789.683 174.139 785.499 187.5C781.245 201.084 768.31 205.783 768.999 220C769.507 230.476 779.999 244.5 779.999 244.5" stroke="black" stroke-width="4" stroke-linecap="round" stroke-linejoin="round"></path><path d="M686.5 217C686.5 217 694.235 225.82 701 228C710.015 230.906 717.015 219.406 725 224.5C730.392 227.94 733.5 238.5 733.5 238.5" stroke="black" stroke-width="4" stroke-linecap="round" stroke-linejoin="round"></path><path d="M1246.5 230.5C1246.5 230.5 1249.36 232.148 1258 240C1272.12 252.823 1259.33 270.54 1267 288C1269.21 293.037 1273.5 300.5 1273.5 300.5" stroke="black" stroke-width="4" stroke-linecap="round" stroke-linejoin="round"></path><path d="M1265 249.499C1282.5 249.499 1280.77 248.931 1296 258.499C1311.23 268.066 1318 312.286 1308 333.499C1300.11 350.241 1274.87 348.213 1272 366.499C1271.27 371.128 1272 378.499 1272 378.499" stroke="black" stroke-width="4" stroke-linecap="round" stroke-linejoin="round"></path><path d="M585 520.5C585 520.5 606.136 508.266 619.5 512C630.073 514.954 630.524 529.734 641.5 529.5C647.121 529.38 655 524.5 655 524.5" stroke="black" stroke-width="4" stroke-linecap="round" stroke-linejoin="round"></path><path d="M867.451 551.381C867.661 550.579 867.182 549.759 866.381 549.549L853.322 546.124C852.521 545.914 851.701 546.393 851.491 547.194C851.281 547.995 851.76 548.815 852.561 549.026L864.168 552.07L861.124 563.678C860.914 564.479 861.393 565.299 862.194 565.509C862.995 565.719 863.815 565.24 864.026 564.439L867.451 551.381ZM624.538 693.846L866.757 552.295L865.243 549.705L623.024 691.256L624.538 693.846Z" fill="#FF0266"></path><path d="M299.704 718.001L316.792 670.321H324.216L341.304 718.001H334.584L330.68 706.801H310.328L306.424 718.001H299.704ZM312.312 701.041H328.696L319.608 674.865H321.4L312.312 701.041Z" fill="black"></path><path d="M346.608 718.001V683.505H352.432V690.545L351.6 689.457C352.453 687.281 353.819 685.617 355.696 684.465C357.573 683.313 359.685 682.737 362.032 682.737C364.72 682.737 367.131 683.483 369.264 684.977C371.44 686.47 372.933 688.433 373.744 690.865L372.08 690.929C372.976 688.241 374.491 686.214 376.624 684.849C378.757 683.441 381.125 682.737 383.728 682.737C386.117 682.737 388.272 683.291 390.192 684.401C392.155 685.51 393.712 687.046 394.864 689.009C396.016 690.971 396.592 693.19 396.592 695.665V718.001H390.576V697.585C390.576 695.665 390.235 694.043 389.552 692.721C388.869 691.398 387.931 690.374 386.736 689.649C385.584 688.881 384.219 688.497 382.64 688.497C381.104 688.497 379.717 688.881 378.48 689.649C377.285 690.374 376.325 691.419 375.6 692.785C374.917 694.107 374.576 695.707 374.576 697.585V718.001H368.56V697.585C368.56 695.665 368.219 694.043 367.536 692.721C366.853 691.398 365.915 690.374 364.72 689.649C363.568 688.881 362.203 688.497 360.624 688.497C359.088 688.497 357.701 688.881 356.464 689.649C355.269 690.374 354.309 691.419 353.584 692.785C352.901 694.107 352.56 695.707 352.56 697.585V718.001H346.608Z" fill="black"></path><path d="M406.277 732.081C405.509 732.081 404.741 732.017 403.973 731.889C403.205 731.803 402.479 731.611 401.797 731.313V726.001C402.266 726.043 402.842 726.129 403.525 726.257C404.25 726.385 404.954 726.449 405.637 726.449C407.642 726.449 409.157 726.001 410.181 725.105C411.247 724.209 412.25 722.694 413.189 720.561L415.365 715.377L415.237 720.561L400.517 683.505H406.981L418.437 712.945H416.517L427.909 683.505H434.501L418.949 722.097C418.223 723.931 417.285 725.617 416.133 727.153C415.023 728.689 413.658 729.883 412.037 730.737C410.415 731.633 408.495 732.081 406.277 732.081Z" fill="black"></path><path d="M455.619 732.081C453.187 732.081 450.925 731.697 448.835 730.929C446.787 730.161 445.016 729.094 443.523 727.729C442.072 726.406 440.963 724.849 440.195 723.057L445.763 720.497C446.36 722.118 447.491 723.483 449.155 724.593C450.861 725.745 452.995 726.321 455.555 726.321C457.517 726.321 459.288 725.937 460.867 725.169C462.488 724.443 463.768 723.334 464.707 721.841C465.645 720.39 466.115 718.619 466.115 716.529V708.785L467.203 709.937C466.008 712.283 464.28 714.075 462.019 715.313C459.8 716.55 457.347 717.169 454.659 717.169C451.416 717.169 448.515 716.422 445.955 714.929C443.395 713.393 441.389 711.323 439.939 708.721C438.488 706.075 437.763 703.153 437.763 699.953C437.763 696.71 438.488 693.787 439.939 691.185C441.389 688.582 443.373 686.534 445.891 685.041C448.451 683.505 451.352 682.737 454.595 682.737C457.283 682.737 459.715 683.355 461.891 684.593C464.109 685.787 465.88 687.451 467.203 689.585L466.307 691.185V683.505H472.131V716.529C472.131 719.515 471.427 722.182 470.019 724.529C468.611 726.875 466.648 728.71 464.131 730.033C461.656 731.398 458.819 732.081 455.619 732.081ZM455.171 711.409C457.219 711.409 459.053 710.897 460.675 709.873C462.339 708.849 463.661 707.483 464.643 705.777C465.624 704.027 466.115 702.086 466.115 699.953C466.115 697.862 465.624 695.942 464.643 694.193C463.661 692.443 462.339 691.057 460.675 690.033C459.053 689.009 457.219 688.497 455.171 688.497C453.08 688.497 451.181 689.009 449.475 690.033C447.768 691.057 446.424 692.443 445.443 694.193C444.504 695.899 444.035 697.819 444.035 699.953C444.035 702.086 444.504 704.027 445.443 705.777C446.424 707.483 447.747 708.849 449.411 709.873C451.117 710.897 453.037 711.409 455.171 711.409Z" fill="black"></path><path d="M497.038 718.769C493.795 718.769 490.873 717.979 488.27 716.401C485.71 714.822 483.683 712.667 482.19 709.937C480.697 707.206 479.95 704.155 479.95 700.785C479.95 697.329 480.697 694.257 482.19 691.569C483.683 688.838 485.71 686.683 488.27 685.105C490.873 683.526 493.795 682.737 497.038 682.737C499.897 682.737 502.435 683.355 504.654 684.593C506.873 685.787 508.622 687.409 509.902 689.457L508.942 690.929V669.553H514.958V718.001H509.134V710.641L509.902 711.665C508.707 713.926 506.958 715.675 504.654 716.913C502.393 718.15 499.854 718.769 497.038 718.769ZM497.55 713.009C499.726 713.009 501.667 712.475 503.374 711.409C505.081 710.342 506.425 708.891 507.406 707.057C508.43 705.179 508.942 703.089 508.942 700.785C508.942 698.438 508.43 696.347 507.406 694.513C506.425 692.635 505.081 691.163 503.374 690.097C501.667 689.03 499.726 688.497 497.55 688.497C495.417 688.497 493.475 689.051 491.726 690.161C490.019 691.227 488.675 692.678 487.694 694.513C486.713 696.305 486.222 698.395 486.222 700.785C486.222 703.089 486.713 705.179 487.694 707.057C488.675 708.891 490.019 710.342 491.726 711.409C493.433 712.475 495.374 713.009 497.55 713.009Z" fill="black"></path><path d="M534.283 718.769C532.021 718.769 530.016 718.363 528.267 717.553C526.56 716.699 525.216 715.547 524.235 714.097C523.253 712.603 522.763 710.897 522.763 708.977C522.763 707.142 523.147 705.499 523.915 704.049C524.725 702.555 525.963 701.297 527.627 700.273C529.333 699.249 531.467 698.523 534.027 698.097L546.827 695.985V700.977L535.371 702.897C533.152 703.281 531.531 703.985 530.507 705.009C529.525 706.033 529.035 707.291 529.035 708.785C529.035 710.193 529.589 711.366 530.699 712.305C531.851 713.243 533.28 713.713 534.987 713.713C537.163 713.713 539.04 713.265 540.619 712.369C542.24 711.43 543.499 710.171 544.395 708.593C545.333 707.014 545.803 705.265 545.803 703.345V694.577C545.803 692.699 545.099 691.185 543.691 690.033C542.325 688.838 540.512 688.241 538.251 688.241C536.288 688.241 534.539 688.753 533.003 689.777C531.509 690.758 530.4 692.081 529.675 693.745L524.491 691.057C525.131 689.478 526.155 688.07 527.563 686.833C528.971 685.553 530.613 684.55 532.491 683.825C534.368 683.099 536.331 682.737 538.379 682.737C541.024 682.737 543.349 683.249 545.355 684.273C547.36 685.254 548.917 686.641 550.027 688.433C551.179 690.182 551.755 692.23 551.755 694.577V718.001H545.931V711.473L547.019 711.857C546.293 713.222 545.312 714.417 544.075 715.441C542.837 716.465 541.387 717.275 539.723 717.873C538.059 718.47 536.245 718.769 534.283 718.769Z" fill="black"></path><path d="M560.983 718.001V669.553H566.935V718.001H560.983Z" fill="black"></path><path d="M586.283 718.769C584.021 718.769 582.016 718.363 580.267 717.553C578.56 716.699 577.216 715.547 576.235 714.097C575.253 712.603 574.763 710.897 574.763 708.977C574.763 707.142 575.147 705.499 575.915 704.049C576.725 702.555 577.963 701.297 579.627 700.273C581.333 699.249 583.467 698.523 586.027 698.097L598.827 695.985V700.977L587.371 702.897C585.152 703.281 583.531 703.985 582.507 705.009C581.525 706.033 581.035 707.291 581.035 708.785C581.035 710.193 581.589 711.366 582.699 712.305C583.851 713.243 585.28 713.713 586.987 713.713C589.163 713.713 591.04 713.265 592.619 712.369C594.24 711.43 595.499 710.171 596.395 708.593C597.333 707.014 597.803 705.265 597.803 703.345V694.577C597.803 692.699 597.099 691.185 595.691 690.033C594.325 688.838 592.512 688.241 590.251 688.241C588.288 688.241 586.539 688.753 585.003 689.777C583.509 690.758 582.4 692.081 581.675 693.745L576.491 691.057C577.131 689.478 578.155 688.07 579.563 686.833C580.971 685.553 582.613 684.55 584.491 683.825C586.368 683.099 588.331 682.737 590.379 682.737C593.024 682.737 595.349 683.249 597.355 684.273C599.36 685.254 600.917 686.641 602.027 688.433C603.179 690.182 603.755 692.23 603.755 694.577V718.001H597.931V711.473L599.019 711.857C598.293 713.222 597.312 714.417 596.075 715.441C594.837 716.465 593.387 717.275 591.723 717.873C590.059 718.47 588.245 718.769 586.283 718.769Z" fill="black"></path></svg>