<svg xmlns="http://www.w3.org/2000/svg" width="1920" height="1080" viewBox="0 0 1920 1080" fill="none"><g clip-path="url(#clip0_62_8645)"><path d="M708.657 1049.38C665.986 1138.69 683.938 1209.15 649.553 1192.72C615.168 1176.29 599.949 1094.1 642.62 1004.79C685.291 915.474 769.693 852.865 804.078 869.293C838.462 885.721 751.328 960.065 708.657 1049.38Z" fill="#F8F8F8"></path><path d="M271.411 1016.88C294.619 1204 214.095 1218.75 131.315 1143.1C89.6546 1136.63 119.444 1029.38 137.674 911.977C155.904 794.569 179.437 695.526 221.098 701.994C264.358 709.592 364.39 781.564 351.651 825.608C357.109 864.459 279.574 964.313 271.411 1016.88Z" fill="#F8F8F8"></path><path d="M573 987.88C498.988 906.101 471.895 863.376 451.504 724.274C451.454 723.939 451.429 723.589 451.428 723.25C451.351 697.332 445.497 673.294 462.756 630.167C464.14 626.707 462.703 622.712 459.364 621.057L417.684 600.397C413.032 598.091 407.576 601.476 407.576 606.669V608.044C407.576 611.678 410.386 614.715 414.01 614.989C496.711 621.25 537.177 607.917 566.28 597.736C569.976 596.443 571.875 592.373 570.713 588.633C566.575 575.319 565.324 564.362 565.5 560.499C565.705 555.999 569 541.999 569 536.999C569 532.527 562.802 527.516 563.5 510.499C564.198 493.482 571.5 491.999 569 480.999C566.995 472.176 541.83 466.892 531.947 465.145C529.498 464.713 527.413 463.084 526.518 460.764C512.827 425.249 513.76 398.086 512.043 363.786C512.015 363.225 512.053 362.659 512.159 362.107L517.608 333.654C518.147 330.843 516.851 327.936 514.421 326.422C400.301 255.32 321.745 289.92 265.156 331.273C238.541 350.722 220.6 380.118 214.981 412.6C200.795 494.607 210.674 550.258 264.642 610.554C266.719 612.874 267.096 616.304 265.487 618.971L206.197 717.265C205.854 717.834 205.59 718.462 205.42 719.104C158.435 896.734 137.937 991.024 131 1131" stroke="black" stroke-width="4" stroke-linecap="round"></path><path d="M564.292 1011.61L565.821 1012.9L565.861 1012.85L565.899 1012.8L564.292 1011.61ZM763.001 784.591L764.993 784.78L763.001 784.591ZM669.517 1105.24C669.372 1106.33 670.142 1107.34 671.237 1107.48C672.332 1107.63 673.337 1106.86 673.483 1105.76L669.517 1105.24ZM273 743C273 741.895 272.105 741 271 741C269.895 741 269 741.895 269 743H273ZM380.768 1120.35L378.771 1120.23L378.763 1120.37L378.774 1120.51L380.768 1120.35ZM292.693 755.764L292.354 753.793L292.693 755.764ZM394.861 1212.55L396.39 1213.84L394.861 1212.55ZM771.162 909.598L772.201 911.307L771.162 909.598ZM770.064 910.638L768.412 909.51L770.064 910.638ZM404.669 815.354L406.475 814.495L404.669 815.354ZM404.405 814.642L406.336 814.122L404.405 814.642ZM739.01 846.665L737.276 845.667L739.01 846.665ZM644.506 903.368L642.899 902.177L644.506 903.368ZM644.563 903.29L646.218 904.413L644.563 903.29ZM565.899 1012.8L646.113 904.559L642.899 902.177L562.685 1010.42L565.899 1012.8ZM646.218 904.413C646.73 903.658 677.834 857.811 708.027 820.279C723.166 801.46 737.919 784.933 748.421 777.14C751.035 775.201 753.288 773.877 755.144 773.177C757.031 772.466 758.208 772.509 758.91 772.819C759.539 773.096 760.274 773.808 760.756 775.701C761.242 777.613 761.385 780.444 761.01 784.403L764.993 784.78C765.385 780.623 765.282 777.269 764.632 774.715C763.978 772.144 762.687 770.112 760.523 769.159C758.432 768.237 756.048 768.562 753.733 769.435C751.384 770.32 748.791 771.885 746.037 773.928C735.067 782.068 720.019 798.99 704.91 817.772C674.606 855.442 643.423 901.408 642.908 902.168L646.218 904.413ZM761.01 784.403C760.038 794.692 756.168 806.449 751.469 817.479C746.781 828.482 741.325 838.63 737.276 845.667L740.744 847.662C744.838 840.543 750.377 830.246 755.148 819.047C759.908 807.875 763.963 795.674 764.993 784.78L761.01 784.403ZM744.621 854.543C760.833 848.564 776.511 841.743 791.242 835.142C805.997 828.529 819.759 822.156 832.243 817.017C844.736 811.875 855.796 808.035 865.116 806.448C874.466 804.857 881.699 805.596 886.867 809.148L889.133 805.852C882.697 801.427 874.193 800.846 864.445 802.505C854.668 804.169 843.271 808.152 830.72 813.318C818.161 818.488 804.293 824.909 789.606 831.491C774.895 838.084 759.318 844.859 743.236 850.79L744.621 854.543ZM886.867 809.148C887.973 809.909 888.516 810.76 888.729 811.689C888.954 812.671 888.858 813.954 888.275 815.602C887.093 818.942 884.137 823.158 879.661 828.029C870.764 837.713 856.534 849.28 841.128 860.623C810.358 883.279 775.332 904.723 770.123 907.889L772.201 911.307C777.428 908.13 812.58 886.61 843.5 863.844C858.939 852.477 873.433 840.72 882.607 830.735C887.167 825.773 890.584 821.068 892.046 816.936C892.785 814.848 893.078 812.757 892.628 810.794C892.165 808.778 890.967 807.113 889.133 805.852L886.867 809.148ZM768.412 909.51C765.009 914.496 742.373 947.91 719.561 987.775C708.156 1007.71 696.691 1029.28 687.561 1049.73C678.447 1070.15 671.595 1089.59 669.517 1105.24L673.483 1105.76C675.483 1090.7 682.142 1071.68 691.214 1051.36C700.27 1031.07 711.665 1009.63 723.033 989.762C745.769 950.029 768.338 916.713 771.716 911.765L768.412 909.51ZM402.864 816.214C418.905 849.908 416.193 875.874 407.72 918.602C399.236 961.382 385.063 1020.61 378.771 1120.23L382.764 1120.48C389.036 1021.17 403.149 962.214 411.643 919.38C420.148 876.495 423.104 849.422 406.475 814.495L402.864 816.214ZM378.774 1120.51L385.821 1210.44L389.809 1210.13L382.761 1120.2L378.774 1120.51ZM396.39 1213.84L565.821 1012.9L562.763 1010.32L393.332 1211.26L396.39 1213.84ZM269 743C269 748.744 273.628 752.744 278.383 755.041C283.208 757.373 289.058 758.419 293.033 757.735L292.354 753.793C289.412 754.3 284.415 753.513 280.123 751.44C275.761 749.332 273 746.354 273 743H269ZM293.033 757.735C330.161 751.343 355.991 760.272 373.275 773.415C390.63 786.611 399.514 804.169 402.474 815.161L406.336 814.122C403.178 802.393 393.847 784.032 375.696 770.23C357.474 756.375 330.507 747.225 292.354 753.793L293.033 757.735ZM385.821 1210.44C386.241 1215.79 392.932 1217.94 396.39 1213.84L393.332 1211.26C392.179 1212.63 389.949 1211.91 389.809 1210.13L385.821 1210.44ZM770.123 907.889C769.399 908.33 768.897 908.799 768.412 909.51L771.716 911.765C771.872 911.536 771.953 911.459 772.201 911.307L770.123 907.889ZM406.475 814.495C406.415 814.368 406.37 814.246 406.336 814.122L402.474 815.161C402.573 815.53 402.704 815.88 402.864 816.214L406.475 814.495ZM737.276 845.667C734.521 850.458 739.178 856.55 744.621 854.543L743.236 850.79C741.559 851.409 739.716 849.449 740.744 847.662L737.276 845.667ZM646.113 904.559C646.114 904.557 646.112 904.559 646.109 904.565C646.107 904.567 646.106 904.568 646.107 904.566C646.108 904.565 646.114 904.557 646.121 904.548C646.14 904.524 646.158 904.499 646.178 904.472C646.194 904.449 646.208 904.428 646.218 904.413L642.908 902.168C642.906 902.171 642.905 902.172 642.906 902.171C642.906 902.17 642.909 902.166 642.913 902.16C642.918 902.154 642.924 902.145 642.931 902.136C642.938 902.126 642.945 902.117 642.95 902.111C642.952 902.108 642.954 902.106 642.954 902.105C642.955 902.104 642.955 902.104 642.954 902.105C642.952 902.108 642.947 902.114 642.941 902.122C642.935 902.13 642.929 902.138 642.921 902.148C642.914 902.157 642.907 902.167 642.899 902.177L646.113 904.559Z" fill="black"></path><path d="M1408.36 334.107L1409.78 333.616L1408.36 334.107ZM1616.49 359.922L1616.84 361.382L1616.49 359.922ZM1727.18 143.98C1726.43 144.334 1726.11 145.229 1726.47 145.977C1726.82 146.726 1727.71 147.046 1728.46 146.691L1727.18 143.98ZM1484.34 266.464C1478.6 265.89 1470.18 267.765 1461.1 271.266C1451.96 274.788 1441.95 280.037 1432.98 286.418C1424.03 292.79 1416.03 300.35 1411.01 308.525C1405.97 316.718 1403.85 325.655 1406.94 334.597L1409.78 333.616C1407.07 325.779 1408.83 317.788 1413.56 310.096C1418.3 302.386 1425.96 295.102 1434.72 288.862C1443.48 282.631 1453.26 277.5 1462.17 274.065C1471.14 270.608 1479.03 268.947 1484.04 269.449L1484.34 266.464ZM1406.94 334.597C1410.78 345.67 1421.02 353.948 1435.08 359.889C1449.17 365.842 1467.34 369.559 1487.49 371.357C1527.8 374.956 1576.36 370.906 1616.84 361.382L1616.15 358.462C1575.96 367.919 1527.71 371.936 1487.75 368.369C1467.77 366.585 1449.94 362.911 1436.25 357.125C1422.52 351.327 1413.21 343.519 1409.78 333.616L1406.94 334.597ZM1829.35 180.831C1829.35 160.149 1819.39 143.423 1801.42 135.693C1783.54 127.997 1758.05 129.354 1727.18 143.98L1728.46 146.691C1758.9 132.275 1783.43 131.217 1800.24 138.449C1816.96 145.645 1826.35 161.188 1826.35 180.831H1829.35ZM1771.22 271.046C1788.77 253.899 1803.27 236.44 1813.39 220.769C1823.47 205.168 1829.35 191.113 1829.35 180.831H1826.35C1826.35 190.196 1820.89 203.626 1810.87 219.142C1800.9 234.587 1786.55 251.876 1769.13 268.9L1771.22 271.046ZM1616.84 361.382C1653.05 352.861 1688.34 335.097 1719.4 313.622L1717.69 311.154C1686.85 332.48 1651.91 350.049 1616.15 358.462L1616.84 361.382Z" fill="black"></path><rect x="1426.11" y="287.318" width="99.2261" height="104.873" fill="#7B1FA2"></rect><circle cx="1622.95" cy="251.822" r="146.822" fill="#FFDE03"></circle><path d="M1769.37 105L1850.06 244.764H1688.67L1769.37 105Z" fill="#69F0AE"></path><path d="M1408.36 334.107C1422.88 376.056 1535.82 378.903 1616.49 359.922C1647.15 352.93 1703.62 323.458 1703.62 306.678C1703.62 285.704 1677.57 291.351 1674.58 312.325C1672.96 323.619 1658.44 384.123 1693.94 376.056C1729.43 367.989 1769.77 264.729 1752.02 274.41C1734.27 284.09 1722.98 347.014 1745.57 340.561C1763.64 335.398 1786.31 285.704 1770.17 267.553" stroke="black" stroke-width="3"></path><path d="M660.839 703.22L662.257 702.729L660.839 703.22ZM789.13 719.132L789.474 720.592L789.13 719.132ZM857.109 585.507C856.36 585.861 856.041 586.756 856.396 587.505C856.75 588.253 857.645 588.573 858.393 588.218L857.109 585.507ZM707.73 660.952C704.054 660.585 698.756 661.782 693.137 663.948C687.46 666.136 681.249 669.394 675.683 673.356C670.128 677.309 665.133 682.021 661.979 687.15C658.815 692.296 657.44 697.986 659.422 703.71L662.257 702.729C660.658 698.11 661.679 693.366 664.535 688.721C667.402 684.057 672.054 679.62 677.422 675.8C682.778 671.988 688.767 668.848 694.216 666.747C699.723 664.624 704.478 663.642 707.432 663.937L707.73 660.952ZM659.422 703.71C661.862 710.759 668.354 715.952 677.084 719.641C685.844 723.343 697.109 725.642 709.561 726.754C734.474 728.978 764.471 726.475 789.474 720.592L788.787 717.671C764.065 723.488 734.391 725.958 709.828 723.765C697.541 722.669 686.616 720.412 678.252 716.878C669.858 713.331 664.292 708.608 662.257 702.729L659.422 703.71ZM920.911 608.741C920.911 595.794 914.656 585.258 903.346 580.39C892.115 575.558 876.225 576.452 857.109 585.507L858.393 588.218C877.068 579.372 892.009 578.778 902.16 583.146C912.231 587.48 917.911 596.833 917.911 608.741H920.911ZM884.905 664.761C895.749 654.168 904.714 643.374 910.979 633.671C917.2 624.038 920.911 615.255 920.911 608.741H917.911C917.911 614.338 914.625 622.497 908.459 632.044C902.339 641.521 893.527 652.145 882.809 662.615L884.905 664.761ZM789.474 720.592C811.885 715.319 833.702 704.332 852.886 691.066L851.18 688.599C832.212 701.715 810.738 712.507 788.787 717.671L789.474 720.592Z" fill="black"></path><circle cx="793.108" cy="652.5" r="90.5" fill="#FFDE03"></circle><path d="M660.839 703.221C669.789 729.078 739.405 730.833 789.13 719.133C808.026 714.823 842.833 696.657 842.833 686.314C842.833 673.385 826.779 676.866 824.932 689.795C823.938 696.756 814.987 734.05 836.866 729.078C858.745 724.105 883.608 660.457 872.669 666.424C861.729 672.391 854.767 711.177 868.691 707.199C879.829 704.016 893.802 673.385 883.857 662.197" stroke="black" stroke-width="3"></path><path d="M1025.07 501.451L1026.48 500.96L1025.07 501.451ZM1188.09 521.671L1188.43 523.131L1188.09 521.671ZM1274.64 352.238C1273.9 352.593 1273.58 353.487 1273.93 354.236C1274.29 354.985 1275.18 355.304 1275.93 354.95L1274.64 352.238ZM1084.61 448.145C1080.04 447.688 1073.38 449.18 1066.25 451.927C1059.07 454.696 1051.21 458.819 1044.16 463.833C1037.13 468.839 1030.83 474.79 1026.86 481.243C1022.88 487.716 1021.18 494.818 1023.65 501.942L1026.48 500.96C1024.4 494.941 1025.75 488.785 1029.42 482.815C1033.1 476.826 1039.06 471.15 1045.9 466.278C1052.74 461.413 1060.38 457.407 1067.33 454.726C1074.35 452.023 1080.46 450.745 1084.31 451.131L1084.61 448.145ZM1023.65 501.942C1026.69 510.741 1034.82 517.276 1045.87 521.945C1056.95 526.625 1071.21 529.541 1087.01 530.952C1118.62 533.774 1156.7 530.598 1188.43 523.131L1187.74 520.211C1156.29 527.611 1118.54 530.754 1087.28 527.964C1071.65 526.568 1057.72 523.695 1047.04 519.181C1036.32 514.655 1029.12 508.59 1026.48 500.96L1023.65 501.942ZM1355.14 381.396C1355.14 365.084 1347.27 351.856 1333.06 345.743C1318.94 339.665 1298.88 340.76 1274.64 352.238L1275.93 354.95C1299.72 343.681 1318.83 342.885 1331.88 348.499C1344.84 354.078 1352.14 366.124 1352.14 381.396H1355.14ZM1309.51 452.291C1323.27 438.847 1334.64 425.153 1342.58 412.855C1350.48 400.626 1355.14 389.549 1355.14 381.396H1352.14C1352.14 388.632 1347.9 399.084 1340.06 411.227C1332.27 423.301 1321.05 436.824 1307.41 450.145L1309.51 452.291ZM1188.43 523.131C1216.85 516.445 1244.52 502.51 1268.87 485.674L1267.17 483.206C1243.04 499.893 1215.7 513.633 1187.74 520.211L1188.43 523.131Z" fill="black"></path><rect x="1038.97" y="464.803" width="77.7198" height="82.1429" fill="#7B1FA2"></rect><circle cx="1193.14" cy="437" r="115" fill="#FFDE03"></circle><path d="M1025.07 501.451C1036.44 534.309 1124.9 536.539 1188.09 521.671C1212.1 516.195 1256.33 493.111 1256.33 479.968C1256.33 463.539 1235.93 467.962 1233.58 484.391C1232.32 493.237 1220.95 540.627 1248.75 534.309C1276.55 527.99 1308.14 447.111 1294.24 454.693C1280.34 462.276 1271.49 511.561 1289.19 506.506C1303.34 502.462 1321.1 463.539 1308.46 449.322" stroke="black" stroke-width="3"></path></g><defs><clipPath id="clip0_62_8645"><rect width="1920" height="1080" fill="white"></rect></clipPath></defs></svg>