<svg xmlns="http://www.w3.org/2000/svg" width="1920" height="1080" viewBox="0 0 1920 1080" fill="none"><path d="M1844.96 457.302C1846.01 477.387 1862.54 499.286 1871.36 517.362C1902.75 581.678 1891.99 753.593 1710.25 707.25C1707.2 706.472 1703.89 705.048 1701.14 703.506C1588.19 640.095 1773.8 842.96 1517 759.499C1265.04 677.612 1420.66 623.254 1430.52 523.215C1431.14 516.876 1429.11 510.31 1426 504.751C1266.68 219.971 1625.44 263.62 1669 275.499C1710.53 286.826 1834.88 264.72 1844.96 457.302Z" fill="#7B1FA2"></path><path d="M1197.48 140.103C1197.48 223.774 1211.98 759 1019 622.5C951.072 574.454 514.844 543.959 452.999 531C339.141 507.144 497.999 297.22 497.999 243C497.999 159.329 914.518 -6.59967 1004.5 6.60281C1094.48 19.8053 1197.48 56.4317 1197.48 140.103Z" fill="#FFDE03"></path><path d="M1693.5 307.501C1738.5 458.501 1570.5 336.001 1462 490.501C1353.5 645.001 993.5 410.001 1063.5 286.001C1133.5 162.001 1232.5 22.7464 1341 65.0008C1449.5 107.255 1648.5 156.501 1693.5 307.501Z" fill="#69F0AE"></path><path d="M1193.08 698.707C1203.13 717.214 1201.29 754.461 1198.03 775.266C1186.12 851.173 1132.22 1016.22 873.499 1065.5C533.665 1130.24 303.487 758.31 453 651C602.512 543.69 757.573 312.079 854.355 494.169C940.354 655.974 1147.9 615.512 1193.08 698.707Z" fill="#FAF9FF"></path><path d="M1668.69 735.313C1671.84 743.129 1671.09 751.74 1668.18 759.648C1644.16 824.968 1659.96 850.43 1316 932.999C966.874 1016.81 962.239 807.792 962.47 696.589C962.488 687.488 958.683 678.502 952.727 671.621C766.982 457.054 1147.54 409.612 1261.89 496.227C1279.99 509.936 1307.01 518.194 1328.66 511.353C1474.29 465.34 1632.86 646.318 1668.69 735.313Z" fill="#FF0266"></path><path d="M786.023 293.478L785.706 291.503C785.626 291.516 785.547 291.533 785.47 291.556L786.023 293.478ZM1344.67 258.062C1345.45 257.281 1345.45 256.015 1344.67 255.234L1331.95 242.506C1331.16 241.725 1329.9 241.725 1329.12 242.506C1328.34 243.287 1328.34 244.553 1329.12 245.334L1340.43 256.648L1329.12 267.962C1328.34 268.743 1328.34 270.009 1329.12 270.79C1329.9 271.571 1331.16 271.571 1331.95 270.79L1344.67 258.062ZM480.647 774.228L479.303 775.709C479.525 775.911 479.79 776.06 480.078 776.145L480.647 774.228ZM1404.57 854.212C1405.35 853.431 1405.35 852.165 1404.57 851.384L1391.84 838.656C1391.06 837.875 1389.8 837.875 1389.01 838.656C1388.23 839.437 1388.23 840.703 1389.01 841.484L1400.33 852.798L1389.01 864.112C1388.23 864.893 1388.23 866.159 1389.01 866.94C1389.8 867.721 1391.06 867.721 1391.84 866.94L1404.57 854.212ZM1806.17 438.773C1806.95 437.992 1806.95 436.726 1806.17 435.945L1793.45 423.217C1792.66 422.436 1791.4 422.436 1790.62 423.217C1789.84 423.998 1789.84 425.264 1790.62 426.045L1801.93 437.359L1790.62 448.673C1789.84 449.454 1789.84 450.72 1790.62 451.501C1791.4 452.282 1792.66 452.282 1793.45 451.501L1806.17 438.773ZM508.141 680.435L507.346 682.27C507.597 682.379 507.867 682.435 508.141 682.435V680.435ZM702.069 680.435L702.122 678.436C702.104 678.435 702.087 678.435 702.069 678.435V680.435ZM1057.52 689.765L1057.47 691.764C1057.49 691.765 1057.5 691.765 1057.52 691.765V689.765ZM1230.77 691.179C1231.55 690.398 1231.55 689.132 1230.77 688.351L1218.04 675.623C1217.26 674.842 1216 674.842 1215.22 675.623C1214.43 676.404 1214.43 677.67 1215.22 678.451L1226.53 689.765L1215.22 701.079C1214.43 701.86 1214.43 703.126 1215.22 703.907C1216 704.688 1217.26 704.688 1218.04 703.907L1230.77 691.179ZM821.804 541.896C822.585 541.115 822.585 539.849 821.804 539.068L809.076 526.34C808.295 525.559 807.029 525.559 806.248 526.34C805.467 527.121 805.467 528.387 806.248 529.168L817.561 540.482L806.248 551.796C805.467 552.577 805.467 553.843 806.248 554.624C807.029 555.405 808.295 555.405 809.076 554.624L821.804 541.896ZM1770.82 647.966C1771.61 647.185 1771.61 645.918 1770.82 645.137L1758.1 632.41C1757.32 631.628 1756.05 631.628 1755.27 632.41C1754.49 633.191 1754.49 634.457 1755.27 635.238L1766.58 646.552L1755.27 657.865C1754.49 658.646 1754.49 659.913 1755.27 660.694C1756.05 661.475 1757.32 661.475 1758.1 660.694L1770.82 647.966ZM1847.41 541.896C1848.2 541.115 1848.2 539.849 1847.41 539.068L1834.69 526.34C1833.91 525.559 1832.64 525.559 1831.86 526.34C1831.08 527.121 1831.08 528.387 1831.86 529.168L1843.17 540.482L1831.86 551.796C1831.08 552.577 1831.08 553.843 1831.86 554.624C1832.64 555.405 1833.91 555.405 1834.69 554.624L1847.41 541.896ZM612.96 813.513L613.53 811.596L613.53 811.596L612.96 813.513ZM915.577 976.978C916.358 976.197 916.358 974.93 915.577 974.149L902.849 961.421C902.068 960.64 900.802 960.64 900.021 961.421C899.24 962.202 899.24 963.469 900.021 964.25L911.334 975.564L900.021 986.877C899.24 987.658 899.24 988.925 900.021 989.706C900.802 990.487 902.068 990.487 902.849 989.706L915.577 976.978ZM1100.18 915.595C1100.96 914.814 1100.96 913.548 1100.18 912.767L1087.45 900.039C1086.67 899.258 1085.4 899.258 1084.62 900.039C1083.84 900.82 1083.84 902.086 1084.62 902.867L1095.93 914.181L1084.62 925.494C1083.84 926.275 1083.84 927.542 1084.62 928.323C1085.4 929.104 1086.67 929.104 1087.45 928.323L1100.18 915.595ZM1001.08 572.171C1001.23 571.076 1000.45 570.071 999.359 569.927L981.513 567.579C980.418 567.434 979.413 568.205 979.269 569.301C979.125 570.396 979.896 571.4 980.991 571.544L996.855 573.632L994.767 589.495C994.623 590.59 995.394 591.595 996.489 591.739C997.584 591.883 998.589 591.112 998.733 590.017L1001.08 572.171ZM988.685 648.514C989.768 648.3 990.473 647.248 990.259 646.164L986.774 628.505C986.561 627.421 985.509 626.716 984.425 626.93C983.341 627.144 982.636 628.196 982.85 629.279L985.948 644.977L970.251 648.075C969.167 648.288 968.462 649.34 968.676 650.424C968.89 651.508 969.941 652.213 971.025 651.999L988.685 648.514ZM1607.83 309.624C1608.61 308.843 1608.61 307.576 1607.83 306.795L1595.1 294.067C1594.32 293.286 1593.05 293.286 1592.27 294.067C1591.49 294.848 1591.49 296.115 1592.27 296.896L1603.58 308.21L1592.27 319.523C1591.49 320.304 1591.49 321.571 1592.27 322.352C1593.05 323.133 1594.32 323.133 1595.1 322.352L1607.83 309.624ZM1404.57 497.21C1405.35 496.429 1405.35 495.162 1404.57 494.381L1391.84 481.653C1391.06 480.872 1389.8 480.872 1389.01 481.653C1388.23 482.434 1388.23 483.701 1389.01 484.482L1400.33 495.795L1389.01 507.109C1388.23 507.89 1388.23 509.156 1389.01 509.938C1389.8 510.719 1391.06 510.719 1391.84 509.938L1404.57 497.21ZM1418.32 119.091C1419.1 118.31 1419.1 117.044 1418.32 116.263L1405.59 103.535C1404.81 102.754 1403.54 102.754 1402.76 103.535C1401.98 104.316 1401.98 105.583 1402.76 106.364L1414.07 117.677L1402.76 128.991C1401.98 129.772 1401.98 131.038 1402.76 131.819C1403.54 132.6 1404.81 132.6 1405.59 131.819L1418.32 119.091ZM1381.5 203.554C1382.28 202.773 1382.28 201.507 1381.5 200.726L1368.77 187.998C1367.99 187.217 1366.72 187.217 1365.94 187.998C1365.16 188.779 1365.16 190.045 1365.94 190.826L1377.25 202.14L1365.94 213.454C1365.16 214.235 1365.16 215.501 1365.94 216.282C1366.72 217.063 1367.99 217.063 1368.77 216.282L1381.5 203.554ZM1395.24 321.9C1396.02 321.119 1396.02 319.853 1395.24 319.072L1382.51 306.344C1381.73 305.563 1380.47 305.563 1379.69 306.344C1378.9 307.125 1378.9 308.391 1379.69 309.172L1391 320.486L1379.69 331.8C1378.9 332.581 1378.9 333.847 1379.69 334.628C1380.47 335.409 1381.73 335.409 1382.51 334.628L1395.24 321.9ZM1163.8 295.464C1164.9 295.335 1165.68 294.341 1165.56 293.244L1163.45 275.367C1163.33 274.27 1162.33 273.485 1161.23 273.614C1160.14 273.743 1159.35 274.737 1159.48 275.834L1161.35 291.725L1145.46 293.593C1144.36 293.722 1143.58 294.715 1143.71 295.812C1143.83 296.909 1144.83 297.694 1145.93 297.565L1163.8 295.464ZM1118.34 389.176C1119.12 388.395 1119.12 387.128 1118.34 386.347L1105.61 373.62C1104.83 372.838 1103.57 372.838 1102.79 373.62C1102.01 374.401 1102.01 375.667 1102.79 376.448L1114.1 387.762L1102.79 399.075C1102.01 399.856 1102.01 401.123 1102.79 401.904C1103.57 402.685 1104.83 402.685 1105.61 401.904L1118.34 389.176ZM1100.18 329.757C1100.96 328.976 1100.96 327.71 1100.18 326.929L1087.45 314.201C1086.67 313.42 1085.4 313.42 1084.62 314.201C1083.84 314.982 1083.84 316.248 1084.62 317.029L1095.93 328.343L1084.62 339.657C1083.84 340.438 1083.84 341.704 1084.62 342.485C1085.4 343.266 1086.67 343.266 1087.45 342.485L1100.18 329.757ZM944.023 184.26C943.641 183.224 942.49 182.694 941.454 183.077L924.57 189.315C923.534 189.698 923.004 190.849 923.387 191.885C923.77 192.921 924.92 193.45 925.956 193.068L940.964 187.522L946.51 202.53C946.893 203.566 948.043 204.096 949.079 203.713C950.115 203.33 950.645 202.18 950.262 201.144L944.023 184.26ZM662.548 395.167C663.112 394.218 662.8 392.991 661.851 392.426L646.378 383.229C645.428 382.665 644.201 382.977 643.637 383.926C643.072 384.876 643.384 386.103 644.334 386.668L658.088 394.843L649.912 408.597C649.348 409.546 649.66 410.773 650.61 411.338C651.559 411.902 652.786 411.59 653.351 410.64L662.548 395.167ZM622.289 340.62L622.842 342.542L622.842 342.542L622.289 340.62ZM637.754 245.354L636.603 243.717C636.163 244.027 635.866 244.501 635.78 245.033L637.754 245.354ZM854.266 97.5437L852.739 96.252C852.596 96.4216 852.481 96.6138 852.401 96.821L854.266 97.5437ZM1086.43 46.4142C1087.21 45.6332 1087.21 44.3668 1086.43 43.5858L1073.7 30.8579C1072.92 30.0768 1071.65 30.0768 1070.87 30.8579C1070.09 31.6389 1070.09 32.9052 1070.87 33.6863L1082.19 45L1070.87 56.3137C1070.09 57.0948 1070.09 58.3611 1070.87 59.1421C1071.65 59.9232 1072.92 59.9232 1073.7 59.1421L1086.43 46.4142ZM731.072 240.282C731.797 239.449 731.709 238.186 730.875 237.461L717.295 225.646C716.462 224.921 715.199 225.009 714.474 225.843C713.749 226.676 713.837 227.939 714.67 228.664L726.741 239.166L716.239 251.237C715.514 252.07 715.602 253.334 716.436 254.059C717.269 254.784 718.532 254.696 719.257 253.863L731.072 240.282ZM1000.51 138.734C1001.29 137.953 1001.29 136.687 1000.51 135.906L987.785 123.178C987.004 122.397 985.737 122.397 984.956 123.178C984.175 123.959 984.175 125.225 984.956 126.006L996.27 137.32L984.956 148.633C984.175 149.415 984.175 150.681 984.956 151.462C985.737 152.243 987.004 152.243 987.785 151.462L1000.51 138.734ZM943.562 60.655C944.343 59.874 944.343 58.6076 943.562 57.8266L930.834 45.0987C930.053 44.3176 928.786 44.3176 928.005 45.0987C927.224 45.8797 927.224 47.1461 928.005 47.9271L939.319 59.2408L928.005 70.5545C927.224 71.3356 927.224 72.6019 928.005 73.3829C928.786 74.164 930.053 74.164 930.834 73.3829L943.562 60.655ZM869.427 1035.41C870.208 1034.63 870.208 1033.37 869.427 1032.59L856.699 1019.86C855.918 1019.08 854.652 1019.08 853.871 1019.86C853.09 1020.64 853.09 1021.91 853.871 1022.69L865.184 1034L853.871 1045.31C853.09 1046.09 853.09 1047.36 853.871 1048.14C854.652 1048.92 855.918 1048.92 856.699 1048.14L869.427 1035.41ZM1483.12 790.374C1483.9 789.593 1483.9 788.327 1483.12 787.546L1470.4 774.818C1469.61 774.037 1468.35 774.037 1467.57 774.818C1466.79 775.599 1466.79 776.865 1467.57 777.646L1478.88 788.96L1467.57 800.273C1466.79 801.055 1466.79 802.321 1467.57 803.102C1468.35 803.883 1469.61 803.883 1470.4 803.102L1483.12 790.374ZM1508.16 660.733C1508.94 659.952 1508.94 658.686 1508.16 657.905L1495.43 645.177C1494.65 644.396 1493.39 644.396 1492.61 645.177C1491.83 645.958 1491.83 647.225 1492.61 648.006L1503.92 659.319L1492.61 670.633C1491.83 671.414 1491.83 672.68 1492.61 673.461C1493.39 674.242 1494.65 674.242 1495.43 673.461L1508.16 660.733ZM1586.22 738.812C1587.01 738.031 1587.01 736.765 1586.22 735.984L1573.5 723.256C1572.72 722.475 1571.45 722.475 1570.67 723.256C1569.89 724.037 1569.89 725.303 1570.67 726.084L1581.98 737.398L1570.67 748.712C1569.89 749.493 1569.89 750.759 1570.67 751.54C1571.45 752.321 1572.72 752.321 1573.5 751.54L1586.22 738.812ZM623.703 738.812C624.484 738.031 624.484 736.765 623.703 735.984L610.975 723.256C610.194 722.475 608.927 722.475 608.146 723.256C607.365 724.037 607.365 725.303 608.146 726.084L619.46 737.398L608.146 748.712C607.365 749.493 607.365 750.759 608.146 751.54C608.927 752.321 610.194 752.321 610.975 751.54L623.703 738.812ZM1450.23 663.175L1448.65 661.946L1450.23 663.175ZM1354.03 785.633L1352.54 786.967L1354.03 785.633ZM883.668 133.636L885.219 132.373L883.668 133.636ZM1022.13 49.2611L1023.77 50.4089L1022.13 49.2611ZM991.283 93.2826L992.921 94.4304L991.283 93.2826ZM822.865 178.566L824.73 179.289L822.865 178.566ZM573.766 419.144L575.461 420.206L573.766 419.144ZM579.773 414.765L579.28 412.827L579.773 414.765ZM1054.85 385.739L1056.05 384.143L1054.85 385.739ZM851.401 353.224L850.052 354.701L851.401 353.224ZM1275.99 317.358L1274.53 318.733L1275.99 317.358ZM1250.92 121.949L1249.28 120.803L1250.92 121.949ZM744.491 437.484L744.806 439.459L744.491 437.484ZM1082.1 174.777L1083.65 176.041L1082.1 174.777ZM1089.63 171.101L1089.58 169.102L1089.63 171.101ZM783.038 1029.72L784.679 1028.58L783.038 1029.72ZM742.273 491.587L740.728 490.317L742.273 491.587ZM1251 199.359L1249.62 200.803L1251 199.359ZM653.298 911.394L651.449 912.156L651.449 912.156L653.298 911.394ZM656.944 915.869L658.064 914.212L656.944 915.869ZM1032.92 332.344L1031.32 331.144L1032.92 332.344ZM1382.4 585.311L1381.4 583.577L1382.4 585.311ZM817.387 611.801L815.816 613.038L817.387 611.801ZM1354.01 709.971L1352.41 708.771L1354.01 709.971ZM456.822 389.351L455.47 387.877L456.822 389.351ZM460.814 387.111L460.26 385.189L460.814 387.111ZM1174.5 589.063L1175.81 590.579L1174.5 589.063ZM721.083 186.772L722.234 188.408L721.083 186.772ZM1140.98 810.47L1141.81 808.647L1140.98 810.47ZM908.694 485.268L907.333 483.802L908.694 485.268ZM742.349 746.362L744.056 745.319L742.349 746.362ZM743.88 852.384L744.45 850.467L743.88 852.384ZM1488.14 310.963L1489.52 312.413L1488.14 310.963ZM1672.06 541.054L1671.39 539.169L1672.06 541.054ZM883.673 62.7822L882.146 61.4905L883.673 62.7822ZM957.329 910.82L955.833 912.148L957.329 910.82ZM607.211 587.658L605.844 586.198L607.211 587.658ZM609.63 585.985L610.513 587.78L609.63 585.985ZM558.683 738.314L557.847 736.497L558.683 738.314ZM1276.13 493.368L1277.44 491.853L1276.13 493.368ZM968.299 807.157L969.606 805.642L968.299 807.157ZM1275.98 368.329L1274.52 366.96L1275.98 368.329ZM1658.49 643.713L1657.09 645.145L1658.49 643.713ZM1450.42 734.961L1449.11 736.474L1450.42 734.961ZM1434.04 362.419L1432.66 360.97L1434.04 362.419ZM0 573.91C0.153424 573.91 0.307029 573.91 0.460815 573.91C0.6146 573.91 0.768566 573.91 0.922711 573.91C1.07686 573.91 1.23118 573.91 1.38568 573.91C1.54018 573.91 1.69486 573.91 1.84972 573.91C2.00458 573.91 2.15962 573.91 2.31483 573.91C2.47004 573.91 2.62543 573.91 2.78099 573.91C2.93656 573.91 3.0923 573.91 3.24821 573.91C3.40413 573.91 3.56022 573.91 3.71648 573.91C3.87275 573.91 4.02918 573.91 4.18579 573.91C4.3424 573.91 4.49919 573.91 4.65614 573.91C4.8131 573.91 4.97023 573.91 5.12752 573.91C5.28482 573.91 5.44229 573.91 5.59993 573.91C5.75757 573.91 5.91538 573.91 6.07336 573.91C6.23134 573.91 6.38949 573.91 6.54781 573.91C6.70613 573.91 6.86461 573.91 7.02327 573.91C7.18192 573.91 7.34074 573.91 7.49973 573.91C7.65872 573.91 7.81787 573.91 7.9772 573.91C8.13652 573.91 8.296 573.91 8.45565 573.91C8.61531 573.91 8.77512 573.91 8.9351 573.91C9.09508 573.91 9.25523 573.91 9.41553 573.91C9.57584 573.91 9.73631 573.91 9.89694 573.91C10.0576 573.91 10.2184 573.91 10.3793 573.91C10.5403 573.91 10.7014 573.91 10.8627 573.91C11.024 573.91 11.1854 573.91 11.347 573.91C11.5086 573.91 11.6704 573.91 11.8323 573.91C11.9942 573.91 12.1563 573.91 12.3185 573.91C12.4807 573.91 12.6431 573.91 12.8057 573.91C12.9682 573.91 13.1309 573.91 13.2938 573.91C13.4566 573.91 13.6196 573.91 13.7828 573.91C13.946 573.91 14.1093 573.91 14.2728 573.91C14.4363 573.91 14.5999 573.91 14.7637 573.91C14.9275 573.91 15.0914 573.91 15.2555 573.91C15.4196 573.91 15.5839 573.91 15.7483 573.91C15.9127 573.91 16.0772 573.91 16.2419 573.91C16.4066 573.91 16.5714 573.91 16.7364 573.91C16.9014 573.91 17.0666 573.91 17.2319 573.91C17.3972 573.91 17.5626 573.91 17.7282 573.91C17.8938 573.91 18.0596 573.91 18.2255 573.91C18.3913 573.91 18.5574 573.91 18.7236 573.91C18.8898 573.91 19.0561 573.91 19.2226 573.91C19.389 573.91 19.5556 573.91 19.7224 573.91C19.8892 573.91 20.0561 573.91 20.2231 573.91C20.3902 573.91 20.5574 573.91 20.7247 573.91C20.892 573.91 21.0595 573.91 21.2271 573.91C21.3948 573.91 21.5625 573.91 21.7304 573.91C21.8983 573.91 22.0664 573.91 22.2346 573.91C22.4028 573.91 22.5711 573.91 22.7395 573.91C22.908 573.91 23.0766 573.91 23.2453 573.91C23.4141 573.91 23.583 573.91 23.752 573.91C23.921 573.91 24.0901 573.91 24.2594 573.91C24.4287 573.91 24.5981 573.91 24.7677 573.91C24.9373 573.91 25.107 573.91 25.2768 573.91C25.4466 573.91 25.6166 573.91 25.7867 573.91C25.9568 573.91 26.127 573.91 26.2974 573.91C26.4677 573.91 26.6382 573.91 26.8089 573.91C26.9795 573.91 27.1502 573.91 27.3211 573.91C27.492 573.91 27.663 573.91 27.8342 573.91C28.0053 573.91 28.1766 573.91 28.348 573.91C28.5194 573.91 28.691 573.91 28.8627 573.91C29.0343 573.91 29.2061 573.91 29.378 573.91C29.55 573.91 29.722 573.91 29.8942 573.91C30.0664 573.91 30.2387 573.91 30.4111 573.91C30.5835 573.91 30.7561 573.91 30.9288 573.91C31.1014 573.91 31.2742 573.91 31.4472 573.91C31.6201 573.91 31.7931 573.91 31.9663 573.91C32.1395 573.91 32.3128 573.91 32.4862 573.91C32.6596 573.91 32.8332 573.91 33.0068 573.91C33.1805 573.91 33.3543 573.91 33.5282 573.91C33.7021 573.91 33.8761 573.91 34.0502 573.91C34.2244 573.91 34.3986 573.91 34.573 573.91C34.7474 573.91 34.9219 573.91 35.0965 573.91C35.2711 573.91 35.4459 573.91 35.6207 573.91C35.7955 573.91 35.9705 573.91 36.1456 573.91C36.3207 573.91 36.4959 573.91 36.6712 573.91C36.8465 573.91 37.0219 573.91 37.1975 573.91C37.373 573.91 37.5487 573.91 37.7244 573.91C37.9002 573.91 38.0761 573.91 38.2521 573.91C38.428 573.91 38.6041 573.91 38.7804 573.91C38.9566 573.91 39.1329 573.91 39.3093 573.91C39.4858 573.91 39.6623 573.91 39.839 573.91C40.0156 573.91 40.1924 573.91 40.3693 573.91C40.5461 573.91 40.7231 573.91 40.9002 573.91C41.0773 573.91 41.2545 573.91 41.4318 573.91C41.6091 573.91 41.7865 573.91 41.964 573.91C42.1415 573.91 42.3192 573.91 42.4969 573.91C42.6746 573.91 42.8525 573.91 43.0304 573.91C43.2083 573.91 43.3864 573.91 43.5645 573.91C43.7426 573.91 43.9209 573.91 44.0992 573.91C44.2776 573.91 44.456 573.91 44.6346 573.91C44.8131 573.91 44.9918 573.91 45.1705 573.91C45.3493 573.91 45.5282 573.91 45.7071 573.91C45.8861 573.91 46.0651 573.91 46.2443 573.91C46.4234 573.91 46.6027 573.91 46.782 573.91C46.9614 573.91 47.1408 573.91 47.3203 573.91C47.4999 573.91 47.6795 573.91 47.8593 573.91C48.039 573.91 48.2188 573.91 48.3987 573.91C48.5787 573.91 48.7587 573.91 48.9388 573.91C49.1189 573.91 49.2991 573.91 49.4794 573.91C49.6597 573.91 49.8401 573.91 50.0206 573.91C50.2011 573.91 50.3817 573.91 50.5623 573.91C50.743 573.91 50.9238 573.91 51.1046 573.91C51.2855 573.91 51.4664 573.91 51.6475 573.91C51.8285 573.91 52.0096 573.91 52.1908 573.91C52.372 573.91 52.5533 573.91 52.7347 573.91C52.9161 573.91 53.0976 573.91 53.2792 573.91C53.4607 573.91 53.6424 573.91 53.8241 573.91C54.0058 573.91 54.1877 573.91 54.3696 573.91C54.5515 573.91 54.7335 573.91 54.9155 573.91C55.0976 573.91 55.2798 573.91 55.462 573.91C55.6443 573.91 55.8266 573.91 56.009 573.91C56.1914 573.91 56.3739 573.91 56.5565 573.91C56.7391 573.91 56.9217 573.91 57.1044 573.91C57.2872 573.91 57.47 573.91 57.6529 573.91C57.8358 573.91 58.0188 573.91 58.2018 573.91C58.3849 573.91 58.568 573.91 58.7512 573.91C58.9344 573.91 59.1177 573.91 59.3011 573.91C59.4845 573.91 59.6679 573.91 59.8514 573.91C60.0349 573.91 60.2185 573.91 60.4022 573.91C60.5859 573.91 60.7696 573.91 60.9534 573.91C61.1373 573.91 61.3212 573.91 61.5051 573.91C61.6891 573.91 61.8731 573.91 62.0573 573.91C62.2414 573.91 62.4256 573.91 62.6098 573.91C62.7941 573.91 62.9784 573.91 63.1628 573.91C63.3472 573.91 63.5317 573.91 63.7162 573.91C63.9008 573.91 64.0854 573.91 64.2701 573.91C64.4548 573.91 64.6395 573.91 64.8243 573.91C65.0091 573.91 65.194 573.91 65.379 573.91C65.5639 573.91 65.749 573.91 65.9341 573.91C66.1191 573.91 66.3043 573.91 66.4895 573.91C66.6747 573.91 66.86 573.91 67.0454 573.91C67.2307 573.91 67.4161 573.91 67.6016 573.91C67.7871 573.91 67.9726 573.91 68.1582 573.91C68.3438 573.91 68.5295 573.91 68.7152 573.91C68.901 573.91 69.0868 573.91 69.2726 573.91C69.4585 573.91 69.6444 573.91 69.8303 573.91C70.0163 573.91 70.2023 573.91 70.3884 573.91C70.5745 573.91 70.7607 573.91 70.9469 573.91C71.1331 573.91 71.3194 573.91 71.5057 573.91C71.692 573.91 71.8784 573.91 72.0648 573.91C72.2513 573.91 72.4378 573.91 72.6243 573.91C72.8109 573.91 72.9975 573.91 73.1841 573.91C73.3708 573.91 73.5575 573.91 73.7443 573.91C73.9311 573.91 74.1179 573.91 74.3048 573.91C74.4916 573.91 74.6786 573.91 74.8655 573.91C75.0525 573.91 75.2396 573.91 75.4266 573.91C75.6137 573.91 75.8009 573.91 75.988 573.91C76.1752 573.91 76.3625 573.91 76.5498 573.91C76.737 573.91 76.9244 573.91 77.1118 573.91C77.2991 573.91 77.4866 573.91 77.674 573.91C77.8615 573.91 78.049 573.91 78.2366 573.91C78.4242 573.91 78.6118 573.91 78.7995 573.91C78.9871 573.91 79.1749 573.91 79.3626 573.91C79.5504 573.91 79.7382 573.91 79.926 573.91C80.1139 573.91 80.3017 573.91 80.4897 573.91C80.6776 573.91 80.8656 573.91 81.0536 573.91C81.2416 573.91 81.4297 573.91 81.6178 573.91C81.8059 573.91 81.994 573.91 82.1822 573.91C82.3704 573.91 82.5586 573.91 82.7469 573.91C82.9351 573.91 83.1234 573.91 83.3118 573.91C83.5001 573.91 83.6885 573.91 83.8769 573.91C84.0653 573.91 84.2538 573.91 84.4422 573.91C84.6307 573.91 84.8193 573.91 85.0078 573.91C85.1964 573.91 85.385 573.91 85.5736 573.91C85.7623 573.91 85.9509 573.91 86.1396 573.91C86.3283 573.91 86.5171 573.91 86.7058 573.91C86.8946 573.91 87.0834 573.91 87.2722 573.91C87.4611 573.91 87.6499 573.91 87.8388 573.91C88.0277 573.91 88.2167 573.91 88.4056 573.91C88.5946 573.91 88.7836 573.91 88.9726 573.91C89.1616 573.91 89.3507 573.91 89.5398 573.91C89.7288 573.91 89.9179 573.91 90.1071 573.91C90.2962 573.91 90.4854 573.91 90.6746 573.91C90.8638 573.91 91.053 573.91 91.2422 573.91C91.4315 573.91 91.6207 573.91 91.81 573.91C91.9993 573.91 92.1886 573.91 92.378 573.91C92.5673 573.91 92.7567 573.91 92.9461 573.91C93.1355 573.91 93.3249 573.91 93.5143 573.91C93.7038 573.91 93.8932 573.91 94.0827 573.91C94.2722 573.91 94.4617 573.91 94.6512 573.91C94.8407 573.91 95.0303 573.91 95.2198 573.91C95.4094 573.91 95.599 573.91 95.7886 573.91C95.9782 573.91 96.1678 573.91 96.3574 573.91C96.5471 573.91 96.7367 573.91 96.9264 573.91C97.1161 573.91 97.3058 573.91 97.4955 573.91C97.6852 573.91 97.8749 573.91 98.0646 573.91C98.2544 573.91 98.4441 573.91 98.6339 573.91C98.8237 573.91 99.0134 573.91 99.2032 573.91C99.393 573.91 99.5828 573.91 99.7727 573.91C99.9625 573.91 100.152 573.91 100.342 573.91C100.532 573.91 100.722 573.91 100.912 573.91C101.102 573.91 101.291 573.91 101.481 573.91C101.671 573.91 101.861 573.91 102.051 573.91C102.241 573.91 102.431 573.91 102.621 573.91C102.811 573.91 103.001 573.91 103.191 573.91C103.381 573.91 103.57 573.91 103.76 573.91C103.95 573.91 104.14 573.91 104.33 573.91C104.52 573.91 104.71 573.91 104.9 573.91C105.09 573.91 105.28 573.91 105.47 573.91C105.66 573.91 105.85 573.91 106.04 573.91C106.23 573.91 106.42 573.91 106.61 573.91C106.8 573.91 106.99 573.91 107.18 573.91C107.37 573.91 107.56 573.91 107.75 573.91C107.94 573.91 108.13 573.91 108.32 573.91C108.51 573.91 108.7 573.91 108.89 573.91C109.08 573.91 109.27 573.91 109.46 573.91C109.65 573.91 109.84 573.91 110.03 573.91C110.22 573.91 110.41 573.91 110.6 573.91C110.79 573.91 110.98 573.91 111.17 573.91C111.36 573.91 111.55 573.91 111.74 573.91C111.93 573.91 112.12 573.91 112.31 573.91C112.5 573.91 112.689 573.91 112.879 573.91C113.069 573.91 113.259 573.91 113.449 573.91C113.639 573.91 113.829 573.91 114.019 573.91C114.209 573.91 114.399 573.91 114.588 573.91C114.778 573.91 114.968 573.91 115.158 573.91C115.348 573.91 115.538 573.91 115.728 573.91C115.917 573.91 116.107 573.91 116.297 573.91C116.487 573.91 116.677 573.91 116.866 573.91C117.056 573.91 117.246 573.91 117.436 573.91C117.625 573.91 117.815 573.91 118.005 573.91C118.194 573.91 118.384 573.91 118.574 573.91C118.763 573.91 118.953 573.91 119.143 573.91C119.332 573.91 119.522 573.91 119.712 573.91C119.901 573.91 120.091 573.91 120.28 573.91C120.47 573.91 120.659 573.91 120.849 573.91C121.039 573.91 121.228 573.91 121.418 573.91C121.607 573.91 121.796 573.91 121.986 573.91C122.175 573.91 122.365 573.91 122.554 573.91C122.744 573.91 122.933 573.91 123.122 573.91C123.312 573.91 123.501 573.91 123.69 573.91C123.88 573.91 124.069 573.91 124.258 573.91C124.447 573.91 124.636 573.91 124.826 573.91C125.015 573.91 125.204 573.91 125.393 573.91C125.582 573.91 125.771 573.91 125.96 573.91C126.15 573.91 126.339 573.91 126.528 573.91C126.717 573.91 126.906 573.91 127.095 573.91C127.284 573.91 127.473 573.91 127.661 573.91C127.85 573.91 128.039 573.91 128.228 573.91C128.417 573.91 128.606 573.91 128.794 573.91C128.983 573.91 129.172 573.91 129.361 573.91C129.549 573.91 129.738 573.91 129.927 573.91C130.115 573.91 130.304 573.91 130.492 573.91C130.681 573.91 130.87 573.91 131.058 573.91C131.247 573.91 131.435 573.91 131.623 573.91C131.812 573.91 132 573.91 132.189 573.91C132.377 573.91 132.565 573.91 132.753 573.91C132.942 573.91 133.13 573.91 133.318 573.91C133.506 573.91 133.694 573.91 133.883 573.91C134.071 573.91 134.259 573.91 134.447 573.91C134.635 573.91 134.823 573.91 135.011 573.91C135.199 573.91 135.386 573.91 135.574 573.91C135.762 573.91 135.95 573.91 136.138 573.91C136.325 573.91 136.513 573.91 136.701 573.91C136.889 573.91 137.076 573.91 137.264 573.91C137.451 573.91 137.639 573.91 137.826 573.91C138.014 573.91 138.201 573.91 138.389 573.91C138.576 573.91 138.763 573.91 138.951 573.91C139.138 573.91 139.325 573.91 139.512 573.91C139.7 573.91 139.887 573.91 140.074 573.91C140.261 573.91 140.448 573.91 140.635 573.91C140.822 573.91 141.009 573.91 141.196 573.91C141.383 573.91 141.569 573.91 141.756 573.91C141.943 573.91 142.13 573.91 142.316 573.91C142.503 573.91 142.69 573.91 142.876 573.91C143.063 573.91 143.249 573.91 143.436 573.91C143.622 573.91 143.808 573.91 143.995 573.91C144.181 573.91 144.367 573.91 144.554 573.91C144.74 573.91 144.926 573.91 145.112 573.91C145.298 573.91 145.484 573.91 145.67 573.91C145.856 573.91 146.042 573.91 146.228 573.91C146.414 573.91 146.6 573.91 146.785 573.91C146.971 573.91 147.157 573.91 147.342 573.91C147.528 573.91 147.713 573.91 147.899 573.91C148.084 573.91 148.27 573.91 148.455 573.91C148.641 573.91 148.826 573.91 149.011 573.91C149.196 573.91 149.381 573.91 149.567 573.91C149.752 573.91 149.937 573.91 150.122 573.91C150.307 573.91 150.491 573.91 150.676 573.91C150.861 573.91 151.046 573.91 151.231 573.91C151.415 573.91 151.6 573.91 151.784 573.91C151.969 573.91 152.153 573.91 152.338 573.91C152.522 573.91 152.707 573.91 152.891 573.91C153.075 573.91 153.259 573.91 153.443 573.91C153.628 573.91 153.812 573.91 153.996 573.91C154.179 573.91 154.363 573.91 154.547 573.91C154.731 573.91 154.915 573.91 155.098 573.91C155.282 573.91 155.466 573.91 155.649 573.91C155.833 573.91 156.016 573.91 156.2 573.91C156.383 573.91 156.566 573.91 156.75 573.91C156.933 573.91 157.116 573.91 157.299 573.91C157.482 573.91 157.665 573.91 157.848 573.91C158.031 573.91 158.214 573.91 158.396 573.91C158.579 573.91 158.762 573.91 158.944 573.91C159.127 573.91 159.309 573.91 159.492 573.91C159.674 573.91 159.857 573.91 160.039 573.91C160.221 573.91 160.403 573.91 160.585 573.91C160.767 573.91 160.949 573.91 161.131 573.91C161.313 573.91 161.495 573.91 161.677 573.91C161.858 573.91 162.04 573.91 162.222 573.91C162.403 573.91 162.585 573.91 162.766 573.91C162.948 573.91 163.129 573.91 163.31 573.91C163.491 573.91 163.672 573.91 163.853 573.91C164.034 573.91 164.215 573.91 164.396 573.91C164.577 573.91 164.758 573.91 164.939 573.91C165.119 573.91 165.3 573.91 165.48 573.91C165.661 573.91 165.841 573.91 166.022 573.91C166.202 573.91 166.382 573.91 166.562 573.91C166.742 573.91 166.922 573.91 167.102 573.91C167.282 573.91 167.462 573.91 167.642 573.91C167.821 573.91 168.001 573.91 168.181 573.91C168.36 573.91 168.54 573.91 168.719 573.91C168.898 573.91 169.078 573.91 169.257 573.91C169.436 573.91 169.615 573.91 169.794 573.91C169.973 573.91 170.152 573.91 170.331 573.91C170.509 573.91 170.688 573.91 170.867 573.91C171.045 573.91 171.224 573.91 171.402 573.91C171.58 573.91 171.758 573.91 171.937 573.91C172.115 573.91 172.293 573.91 172.471 573.91C172.649 573.91 172.827 573.91 173.004 573.91C173.182 573.91 173.36 573.91 173.537 573.91C173.715 573.91 173.892 573.91 174.069 573.91C174.247 573.91 174.424 573.91 174.601 573.91C174.778 573.91 174.955 573.91 175.132 573.91C175.309 573.91 175.486 573.91 175.662 573.91C175.839 573.91 176.015 573.91 176.192 573.91C176.368 573.91 176.545 573.91 176.721 573.91C176.897 573.91 177.073 573.91 177.249 573.91C177.425 573.91 177.601 573.91 177.777 573.91C177.953 573.91 178.128 573.91 178.304 573.91C178.479 573.91 178.655 573.91 178.83 573.91C179.005 573.91 179.181 573.91 179.356 573.91C179.531 573.91 179.706 573.91 179.881 573.91C180.056 573.91 180.23 573.91 180.405 573.91C180.58 573.91 180.754 573.91 180.928 573.91C181.103 573.91 181.277 573.91 181.451 573.91C181.625 573.91 181.799 573.91 181.973 573.91C182.147 573.91 182.321 573.91 182.495 573.91C182.668 573.91 182.842 573.91 183.015 573.91C183.189 573.91 183.362 573.91 183.535 573.91C183.708 573.91 183.881 573.91 184.054 573.91C184.227 573.91 184.4 573.91 184.573 573.91C184.746 573.91 184.918 573.91 185.091 573.91C185.263 573.91 185.435 573.91 185.607 573.91C185.78 573.91 185.952 573.91 186.124 573.91C186.296 573.91 186.467 573.91 186.639 573.91C186.811 573.91 186.982 573.91 187.154 573.91C187.325 573.91 187.496 573.91 187.668 573.91C187.839 573.91 188.01 573.91 188.181 573.91C188.351 573.91 188.522 573.91 188.693 573.91C188.864 573.91 189.034 573.91 189.204 573.91C189.375 573.91 189.545 573.91 189.715 573.91C189.885 573.91 190.055 573.91 190.225 573.91C190.395 573.91 190.565 573.91 190.734 573.91C190.904 573.91 191.073 573.91 191.242 573.91C191.412 573.91 191.581 573.91 191.75 573.91C191.919 573.91 192.088 573.91 192.257 573.91C192.425 573.91 192.594 573.91 192.762 573.91C192.931 573.91 193.099 573.91 193.267 573.91C193.436 573.91 193.604 573.91 193.772 573.91C193.939 573.91 194.107 573.91 194.275 573.91C194.442 573.91 194.61 573.91 194.777 573.91C194.945 573.91 195.112 573.91 195.279 573.91C195.446 573.91 195.613 573.91 195.78 573.91C195.946 573.91 196.113 573.91 196.28 573.91C196.446 573.91 196.612 573.91 196.779 573.91C196.945 573.91 197.111 573.91 197.277 573.91C197.443 573.91 197.608 573.91 197.774 573.91C197.94 573.91 198.105 573.91 198.27 573.91C198.436 573.91 198.601 573.91 198.766 573.91C198.931 573.91 199.096 573.91 199.26 573.91C199.425 573.91 199.59 573.91 199.754 573.91C199.918 573.91 200.083 573.91 200.247 573.91C200.411 573.91 200.575 573.91 200.739 573.91C200.902 573.91 201.066 573.91 201.23 573.91C201.393 573.91 201.556 573.91 201.72 573.91C201.883 573.91 202.046 573.91 202.209 573.91C202.371 573.91 202.534 573.91 202.697 573.91C202.859 573.91 203.022 573.91 203.184 573.91C203.346 573.91 203.508 573.91 203.67 573.91C203.832 573.91 203.994 573.91 204.155 573.91C204.317 573.91 204.479 573.91 204.64 573.91C204.801 573.91 204.962 573.91 205.123 573.91C205.284 573.91 205.445 573.91 205.606 573.91C205.766 573.91 205.927 573.91 206.087 573.91C206.247 573.91 206.408 573.91 206.568 573.91C206.728 573.91 206.887 573.91 207.047 573.91C207.207 573.91 207.366 573.91 207.525 573.91C207.685 573.91 207.844 573.91 208.003 573.91C208.162 573.91 208.321 573.91 208.479 573.91C208.638 573.91 208.797 573.91 208.955 573.91C209.113 573.91 209.271 573.91 209.429 573.91C209.587 573.91 209.745 573.91 209.903 573.91C210.061 573.91 210.218 573.91 210.375 573.91C210.533 573.91 210.69 573.91 210.847 573.91C211.004 573.91 211.16 573.91 211.317 573.91C211.474 573.91 211.63 573.91 211.786 573.91C211.943 573.91 212.099 573.91 212.255 573.91C212.411 573.91 212.566 573.91 212.722 573.91C212.878 573.91 213.033 573.91 213.188 573.91C213.343 573.91 213.498 573.91 213.653 573.91C213.808 573.91 213.963 573.91 214.117 573.91C214.272 573.91 214.426 573.91 214.58 573.91C214.735 573.91 214.889 573.91 215.042 573.91C215.196 573.91 215.35 573.91 215.503 573.91C215.657 573.91 215.81 573.91 215.963 573.91C216.116 573.91 216.269 573.91 216.422 573.91C216.574 573.91 216.727 573.91 216.879 573.91C217.031 573.91 217.184 573.91 217.336 573.91C217.488 573.91 217.639 573.91 217.791 573.91C217.943 573.91 218.094 573.91 218.245 573.91C218.396 573.91 218.547 573.91 218.698 573.91C218.849 573.91 219 573.91 219.15 573.91C219.301 573.91 219.451 573.91 219.601 573.91C219.751 573.91 219.901 573.91 220.051 573.91C220.201 573.91 220.35 573.91 220.5 573.91C220.649 573.91 220.798 573.91 220.947 573.91C221.096 573.91 221.245 573.91 221.393 573.91C221.542 573.91 221.69 573.91 221.838 573.91C221.987 573.91 222.135 573.91 222.282 573.91C222.43 573.91 222.578 573.91 222.725 573.91C222.873 573.91 223.02 573.91 223.167 573.91C223.314 573.91 223.461 573.91 223.607 573.91C223.754 573.91 223.9 573.91 224.047 573.91C224.193 573.91 224.339 573.91 224.485 573.91C224.631 573.91 224.776 573.91 224.922 573.91C225.067 573.91 225.212 573.91 225.357 573.91C225.502 573.91 225.647 573.91 225.792 573.91C225.937 573.91 226.081 573.91 226.225 573.91C226.369 573.91 226.513 573.91 226.657 573.91C226.801 573.91 226.945 573.91 227.088 573.91C227.232 573.91 227.375 573.91 227.518 573.91C227.661 573.91 227.804 573.91 227.946 573.91C228.089 573.91 228.231 573.91 228.373 573.91C228.516 573.91 228.658 573.91 228.799 573.91C228.941 573.91 229.083 573.91 229.224 573.91C229.365 573.91 229.506 573.91 229.647 573.91C229.788 573.91 229.929 573.91 230.07 573.91C230.21 573.91 230.35 573.91 230.49 573.91C230.631 573.91 230.77 573.91 230.91 573.91C231.05 573.91 231.189 573.91 231.328 573.91C231.468 573.91 231.607 573.91 231.745 573.91C231.884 573.91 232.023 573.91 232.161 573.91C232.3 573.91 232.438 573.91 232.576 573.91C232.714 573.91 232.851 573.91 232.989 573.91C233.127 573.91 233.264 573.91 233.401 573.91C233.538 573.91 233.675 573.91 233.811 573.91C233.948 573.91 234.085 573.91 234.221 573.91C234.357 573.91 234.493 573.91 234.629 573.91C234.765 573.91 234.9 573.91 235.035 573.91C235.171 573.91 235.306 573.91 235.441 573.91C235.576 573.91 235.71 573.91 235.845 573.91C235.979 573.91 236.113 573.91 236.247 573.91C236.381 573.91 236.515 573.91 236.649 573.91C236.782 573.91 236.916 573.91 237.049 573.91C237.182 573.91 237.315 573.91 237.447 573.91C237.58 573.91 237.712 573.91 237.844 573.91C237.977 573.91 238.109 573.91 238.24 573.91C238.372 573.91 238.504 573.91 238.635 573.91C238.766 573.91 238.897 573.91 239.028 573.91C239.159 573.91 239.289 573.91 239.42 573.91C239.55 573.91 239.68 573.91 239.81 573.91C239.94 573.91 240.07 573.91 240.199 573.91C240.328 573.91 240.458 573.91 240.587 573.91C240.716 573.91 240.844 573.91 240.973 573.91C241.101 573.91 241.229 573.91 241.357 573.91C241.485 573.91 241.613 573.91 241.741 573.91C241.868 573.91 241.996 573.91 242.123 573.91C242.25 573.91 242.377 573.91 242.503 573.91C242.63 573.91 242.756 573.91 242.882 573.91C243.008 573.91 243.134 573.91 243.26 573.91C243.386 573.91 243.511 573.91 243.636 573.91C243.761 573.91 243.886 573.91 244.011 573.91C244.135 573.91 244.26 573.91 244.384 573.91C244.508 573.91 244.632 573.91 244.756 573.91C244.88 573.91 245.003 573.91 245.126 573.91C245.25 573.91 245.372 573.91 245.495 573.91C245.618 573.91 245.74 573.91 245.863 573.91C245.985 573.91 246.107 573.91 246.229 573.91C246.35 573.91 246.472 573.91 246.593 573.91C246.714 573.91 246.835 573.91 246.956 573.91C247.077 573.91 247.197 573.91 247.318 573.91C247.438 573.91 247.558 573.91 247.677 573.91C247.797 573.91 247.917 573.91 248.036 573.91C248.155 573.91 248.274 573.91 248.393 573.91C248.512 573.91 248.63 573.91 248.748 573.91C248.867 573.91 248.985 573.91 249.102 573.91C249.22 573.91 249.337 573.91 249.455 573.91C249.572 573.91 249.689 573.91 249.806 573.91C249.922 573.91 250.039 573.91 250.155 573.91C250.271 573.91 250.387 573.91 250.503 573.91C250.618 573.91 250.734 573.91 250.849 573.91C250.964 573.91 251.079 573.91 251.194 573.91C251.308 573.91 251.423 573.91 251.537 573.91C251.651 573.91 251.765 573.91 251.878 573.91C251.992 573.91 252.105 573.91 252.218 573.91C252.331 573.91 252.444 573.91 252.557 573.91C252.669 573.91 252.782 573.91 252.894 573.91C253.006 573.91 253.117 573.91 253.229 573.91C253.34 573.91 253.451 573.91 253.562 573.91C253.673 573.91 253.784 573.91 253.894 573.91C254.005 573.91 254.115 573.91 254.225 573.91C254.335 573.91 254.444 573.91 254.554 573.91C254.663 573.91 254.772 573.91 254.881 573.91C254.99 573.91 255.098 573.91 255.207 573.91C255.315 573.91 255.423 573.91 255.531 573.91C255.638 573.91 255.746 573.91 255.853 573.91C255.96 573.91 256.067 573.91 256.174 573.91C256.28 573.91 256.387 573.91 256.493 573.91C256.599 573.91 256.705 573.91 256.81 573.91C256.916 573.91 257.021 573.91 257.126 573.91C257.231 573.91 257.336 573.91 257.44 573.91C257.545 573.91 257.649 573.91 257.753 573.91V569.91C257.649 569.91 257.545 569.91 257.44 569.91C257.336 569.91 257.231 569.91 257.126 569.91C257.021 569.91 256.916 569.91 256.81 569.91C256.705 569.91 256.599 569.91 256.493 569.91C256.387 569.91 256.28 569.91 256.174 569.91C256.067 569.91 255.96 569.91 255.853 569.91C255.746 569.91 255.638 569.91 255.531 569.91C255.423 569.91 255.315 569.91 255.207 569.91C255.098 569.91 254.99 569.91 254.881 569.91C254.772 569.91 254.663 569.91 254.554 569.91C254.444 569.91 254.335 569.91 254.225 569.91C254.115 569.91 254.005 569.91 253.894 569.91C253.784 569.91 253.673 569.91 253.562 569.91C253.451 569.91 253.34 569.91 253.229 569.91C253.117 569.91 253.006 569.91 252.894 569.91C252.782 569.91 252.669 569.91 252.557 569.91C252.444 569.91 252.331 569.91 252.218 569.91C252.105 569.91 251.992 569.91 251.878 569.91C251.765 569.91 251.651 569.91 251.537 569.91C251.423 569.91 251.308 569.91 251.194 569.91C251.079 569.91 250.964 569.91 250.849 569.91C250.734 569.91 250.618 569.91 250.503 569.91C250.387 569.91 250.271 569.91 250.155 569.91C250.039 569.91 249.922 569.91 249.806 569.91C249.689 569.91 249.572 569.91 249.455 569.91C249.337 569.91 249.22 569.91 249.102 569.91C248.985 569.91 248.867 569.91 248.748 569.91C248.63 569.91 248.512 569.91 248.393 569.91C248.274 569.91 248.155 569.91 248.036 569.91C247.917 569.91 247.797 569.91 247.677 569.91C247.558 569.91 247.438 569.91 247.318 569.91C247.197 569.91 247.077 569.91 246.956 569.91C246.835 569.91 246.714 569.91 246.593 569.91C246.472 569.91 246.35 569.91 246.229 569.91C246.107 569.91 245.985 569.91 245.863 569.91C245.74 569.91 245.618 569.91 245.495 569.91C245.372 569.91 245.25 569.91 245.126 569.91C245.003 569.91 244.88 569.91 244.756 569.91C244.632 569.91 244.508 569.91 244.384 569.91C244.26 569.91 244.135 569.91 244.011 569.91C243.886 569.91 243.761 569.91 243.636 569.91C243.511 569.91 243.386 569.91 243.26 569.91C243.134 569.91 243.008 569.91 242.882 569.91C242.756 569.91 242.63 569.91 242.503 569.91C242.377 569.91 242.25 569.91 242.123 569.91C241.996 569.91 241.868 569.91 241.741 569.91C241.613 569.91 241.485 569.91 241.357 569.91C241.229 569.91 241.101 569.91 240.973 569.91C240.844 569.91 240.716 569.91 240.587 569.91C240.458 569.91 240.328 569.91 240.199 569.91C240.07 569.91 239.94 569.91 239.81 569.91C239.68 569.91 239.55 569.91 239.42 569.91C239.289 569.91 239.159 569.91 239.028 569.91C238.897 569.91 238.766 569.91 238.635 569.91C238.504 569.91 238.372 569.91 238.24 569.91C238.109 569.91 237.977 569.91 237.844 569.91C237.712 569.91 237.58 569.91 237.447 569.91C237.315 569.91 237.182 569.91 237.049 569.91C236.916 569.91 236.782 569.91 236.649 569.91C236.515 569.91 236.381 569.91 236.247 569.91C236.113 569.91 235.979 569.91 235.845 569.91C235.71 569.91 235.576 569.91 235.441 569.91C235.306 569.91 235.171 569.91 235.035 569.91C234.9 569.91 234.765 569.91 234.629 569.91C234.493 569.91 234.357 569.91 234.221 569.91C234.085 569.91 233.948 569.91 233.811 569.91C233.675 569.91 233.538 569.91 233.401 569.91C233.264 569.91 233.127 569.91 232.989 569.91C232.851 569.91 232.714 569.91 232.576 569.91C232.438 569.91 232.3 569.91 232.161 569.91C232.023 569.91 231.884 569.91 231.745 569.91C231.607 569.91 231.468 569.91 231.328 569.91C231.189 569.91 231.05 569.91 230.91 569.91C230.77 569.91 230.631 569.91 230.49 569.91C230.35 569.91 230.21 569.91 230.07 569.91C229.929 569.91 229.788 569.91 229.647 569.91C229.506 569.91 229.365 569.91 229.224 569.91C229.083 569.91 228.941 569.91 228.799 569.91C228.658 569.91 228.516 569.91 228.373 569.91C228.231 569.91 228.089 569.91 227.946 569.91C227.804 569.91 227.661 569.91 227.518 569.91C227.375 569.91 227.232 569.91 227.088 569.91C226.945 569.91 226.801 569.91 226.657 569.91C226.513 569.91 226.369 569.91 226.225 569.91C226.081 569.91 225.937 569.91 225.792 569.91C225.647 569.91 225.502 569.91 225.357 569.91C225.212 569.91 225.067 569.91 224.922 569.91C224.776 569.91 224.631 569.91 224.485 569.91C224.339 569.91 224.193 569.91 224.047 569.91C223.9 569.91 223.754 569.91 223.607 569.91C223.461 569.91 223.314 569.91 223.167 569.91C223.02 569.91 222.873 569.91 222.725 569.91C222.578 569.91 222.43 569.91 222.282 569.91C222.135 569.91 221.987 569.91 221.838 569.91C221.69 569.91 221.542 569.91 221.393 569.91C221.245 569.91 221.096 569.91 220.947 569.91C220.798 569.91 220.649 569.91 220.5 569.91C220.35 569.91 220.201 569.91 220.051 569.91C219.901 569.91 219.751 569.91 219.601 569.91C219.451 569.91 219.301 569.91 219.15 569.91C219 569.91 218.849 569.91 218.698 569.91C218.547 569.91 218.396 569.91 218.245 569.91C218.094 569.91 217.943 569.91 217.791 569.91C217.639 569.91 217.488 569.91 217.336 569.91C217.184 569.91 217.031 569.91 216.879 569.91C216.727 569.91 216.574 569.91 216.422 569.91C216.269 569.91 216.116 569.91 215.963 569.91C215.81 569.91 215.657 569.91 215.503 569.91C215.35 569.91 215.196 569.91 215.042 569.91C214.889 569.91 214.735 569.91 214.58 569.91C214.426 569.91 214.272 569.91 214.117 569.91C213.963 569.91 213.808 569.91 213.653 569.91C213.498 569.91 213.343 569.91 213.188 569.91C213.033 569.91 212.878 569.91 212.722 569.91C212.566 569.91 212.411 569.91 212.255 569.91C212.099 569.91 211.943 569.91 211.786 569.91C211.63 569.91 211.474 569.91 211.317 569.91C211.16 569.91 211.004 569.91 210.847 569.91C210.69 569.91 210.533 569.91 210.375 569.91C210.218 569.91 210.061 569.91 209.903 569.91C209.745 569.91 209.587 569.91 209.429 569.91C209.271 569.91 209.113 569.91 208.955 569.91C208.797 569.91 208.638 569.91 208.479 569.91C208.321 569.91 208.162 569.91 208.003 569.91C207.844 569.91 207.685 569.91 207.525 569.91C207.366 569.91 207.207 569.91 207.047 569.91C206.887 569.91 206.728 569.91 206.568 569.91C206.408 569.91 206.247 569.91 206.087 569.91C205.927 569.91 205.766 569.91 205.606 569.91C205.445 569.91 205.284 569.91 205.123 569.91C204.962 569.91 204.801 569.91 204.64 569.91C204.479 569.91 204.317 569.91 204.155 569.91C203.994 569.91 203.832 569.91 203.67 569.91C203.508 569.91 203.346 569.91 203.184 569.91C203.022 569.91 202.859 569.91 202.697 569.91C202.534 569.91 202.371 569.91 202.209 569.91C202.046 569.91 201.883 569.91 201.72 569.91C201.556 569.91 201.393 569.91 201.23 569.91C201.066 569.91 200.902 569.91 200.739 569.91C200.575 569.91 200.411 569.91 200.247 569.91C200.083 569.91 199.918 569.91 199.754 569.91C199.59 569.91 199.425 569.91 199.26 569.91C199.096 569.91 198.931 569.91 198.766 569.91C198.601 569.91 198.436 569.91 198.27 569.91C198.105 569.91 197.94 569.91 197.774 569.91C197.608 569.91 197.443 569.91 197.277 569.91C197.111 569.91 196.945 569.91 196.779 569.91C196.612 569.91 196.446 569.91 196.28 569.91C196.113 569.91 195.946 569.91 195.78 569.91C195.613 569.91 195.446 569.91 195.279 569.91C195.112 569.91 194.945 569.91 194.777 569.91C194.61 569.91 194.442 569.91 194.275 569.91C194.107 569.91 193.939 569.91 193.772 569.91C193.604 569.91 193.436 569.91 193.267 569.91C193.099 569.91 192.931 569.91 192.762 569.91C192.594 569.91 192.425 569.91 192.257 569.91C192.088 569.91 191.919 569.91 191.75 569.91C191.581 569.91 191.412 569.91 191.242 569.91C191.073 569.91 190.904 569.91 190.734 569.91C190.565 569.91 190.395 569.91 190.225 569.91C190.055 569.91 189.885 569.91 189.715 569.91C189.545 569.91 189.375 569.91 189.204 569.91C189.034 569.91 188.864 569.91 188.693 569.91C188.522 569.91 188.351 569.91 188.181 569.91C188.01 569.91 187.839 569.91 187.668 569.91C187.496 569.91 187.325 569.91 187.154 569.91C186.982 569.91 186.811 569.91 186.639 569.91C186.467 569.91 186.296 569.91 186.124 569.91C185.952 569.91 185.78 569.91 185.607 569.91C185.435 569.91 185.263 569.91 185.091 569.91C184.918 569.91 184.746 569.91 184.573 569.91C184.4 569.91 184.227 569.91 184.054 569.91C183.881 569.91 183.708 569.91 183.535 569.91C183.362 569.91 183.189 569.91 183.015 569.91C182.842 569.91 182.668 569.91 182.495 569.91C182.321 569.91 182.147 569.91 181.973 569.91C181.799 569.91 181.625 569.91 181.451 569.91C181.277 569.91 181.103 569.91 180.928 569.91C180.754 569.91 180.58 569.91 180.405 569.91C180.23 569.91 180.056 569.91 179.881 569.91C179.706 569.91 179.531 569.91 179.356 569.91C179.181 569.91 179.005 569.91 178.83 569.91C178.655 569.91 178.479 569.91 178.304 569.91C178.128 569.91 177.953 569.91 177.777 569.91C177.601 569.91 177.425 569.91 177.249 569.91C177.073 569.91 176.897 569.91 176.721 569.91C176.545 569.91 176.368 569.91 176.192 569.91C176.015 569.91 175.839 569.91 175.662 569.91C175.486 569.91 175.309 569.91 175.132 569.91C174.955 569.91 174.778 569.91 174.601 569.91C174.424 569.91 174.247 569.91 174.069 569.91C173.892 569.91 173.715 569.91 173.537 569.91C173.36 569.91 173.182 569.91 173.004 569.91C172.827 569.91 172.649 569.91 172.471 569.91C172.293 569.91 172.115 569.91 171.937 569.91C171.758 569.91 171.58 569.91 171.402 569.91C171.224 569.91 171.045 569.91 170.867 569.91C170.688 569.91 170.509 569.91 170.331 569.91C170.152 569.91 169.973 569.91 169.794 569.91C169.615 569.91 169.436 569.91 169.257 569.91C169.078 569.91 168.898 569.91 168.719 569.91C168.54 569.91 168.36 569.91 168.181 569.91C168.001 569.91 167.821 569.91 167.642 569.91C167.462 569.91 167.282 569.91 167.102 569.91C166.922 569.91 166.742 569.91 166.562 569.91C166.382 569.91 166.202 569.91 166.022 569.91C165.841 569.91 165.661 569.91 165.48 569.91C165.3 569.91 165.119 569.91 164.939 569.91C164.758 569.91 164.577 569.91 164.396 569.91C164.215 569.91 164.034 569.91 163.853 569.91C163.672 569.91 163.491 569.91 163.31 569.91C163.129 569.91 162.948 569.91 162.766 569.91C162.585 569.91 162.403 569.91 162.222 569.91C162.04 569.91 161.858 569.91 161.677 569.91C161.495 569.91 161.313 569.91 161.131 569.91C160.949 569.91 160.767 569.91 160.585 569.91C160.403 569.91 160.221 569.91 160.039 569.91C159.857 569.91 159.674 569.91 159.492 569.91C159.309 569.91 159.127 569.91 158.944 569.91C158.762 569.91 158.579 569.91 158.396 569.91C158.214 569.91 158.031 569.91 157.848 569.91C157.665 569.91 157.482 569.91 157.299 569.91C157.116 569.91 156.933 569.91 156.75 569.91C156.566 569.91 156.383 569.91 156.2 569.91C156.016 569.91 155.833 569.91 155.649 569.91C155.466 569.91 155.282 569.91 155.098 569.91C154.915 569.91 154.731 569.91 154.547 569.91C154.363 569.91 154.179 569.91 153.996 569.91C153.812 569.91 153.628 569.91 153.443 569.91C153.259 569.91 153.075 569.91 152.891 569.91C152.707 569.91 152.522 569.91 152.338 569.91C152.153 569.91 151.969 569.91 151.784 569.91C151.6 569.91 151.415 569.91 151.231 569.91C151.046 569.91 150.861 569.91 150.676 569.91C150.491 569.91 150.307 569.91 150.122 569.91C149.937 569.91 149.752 569.91 149.567 569.91C149.381 569.91 149.196 569.91 149.011 569.91C148.826 569.91 148.641 569.91 148.455 569.91C148.27 569.91 148.084 569.91 147.899 569.91C147.713 569.91 147.528 569.91 147.342 569.91C147.157 569.91 146.971 569.91 146.785 569.91C146.6 569.91 146.414 569.91 146.228 569.91C146.042 569.91 145.856 569.91 145.67 569.91C145.484 569.91 145.298 569.91 145.112 569.91C144.926 569.91 144.74 569.91 144.554 569.91C144.367 569.91 144.181 569.91 143.995 569.91C143.808 569.91 143.622 569.91 143.436 569.91C143.249 569.91 143.063 569.91 142.876 569.91C142.69 569.91 142.503 569.91 142.316 569.91C142.13 569.91 141.943 569.91 141.756 569.91C141.569 569.91 141.383 569.91 141.196 569.91C141.009 569.91 140.822 569.91 140.635 569.91C140.448 569.91 140.261 569.91 140.074 569.91C139.887 569.91 139.7 569.91 139.512 569.91C139.325 569.91 139.138 569.91 138.951 569.91C138.763 569.91 138.576 569.91 138.389 569.91C138.201 569.91 138.014 569.91 137.826 569.91C137.639 569.91 137.451 569.91 137.264 569.91C137.076 569.91 136.889 569.91 136.701 569.91C136.513 569.91 136.325 569.91 136.138 569.91C135.95 569.91 135.762 569.91 135.574 569.91C135.386 569.91 135.199 569.91 135.011 569.91C134.823 569.91 134.635 569.91 134.447 569.91C134.259 569.91 134.071 569.91 133.883 569.91C133.694 569.91 133.506 569.91 133.318 569.91C133.13 569.91 132.942 569.91 132.753 569.91C132.565 569.91 132.377 569.91 132.189 569.91C132 569.91 131.812 569.91 131.623 569.91C131.435 569.91 131.247 569.91 131.058 569.91C130.87 569.91 130.681 569.91 130.492 569.91C130.304 569.91 130.115 569.91 129.927 569.91C129.738 569.91 129.549 569.91 129.361 569.91C129.172 569.91 128.983 569.91 128.794 569.91C128.606 569.91 128.417 569.91 128.228 569.91C128.039 569.91 127.85 569.91 127.661 569.91C127.473 569.91 127.284 569.91 127.095 569.91C126.906 569.91 126.717 569.91 126.528 569.91C126.339 569.91 126.15 569.91 125.96 569.91C125.771 569.91 125.582 569.91 125.393 569.91C125.204 569.91 125.015 569.91 124.826 569.91C124.636 569.91 124.447 569.91 124.258 569.91C124.069 569.91 123.88 569.91 123.69 569.91C123.501 569.91 123.312 569.91 123.122 569.91C122.933 569.91 122.744 569.91 122.554 569.91C122.365 569.91 122.175 569.91 121.986 569.91C121.796 569.91 121.607 569.91 121.418 569.91C121.228 569.91 121.039 569.91 120.849 569.91C120.659 569.91 120.47 569.91 120.28 569.91C120.091 569.91 119.901 569.91 119.712 569.91C119.522 569.91 119.332 569.91 119.143 569.91C118.953 569.91 118.763 569.91 118.574 569.91C118.384 569.91 118.194 569.91 118.005 569.91C117.815 569.91 117.625 569.91 117.436 569.91C117.246 569.91 117.056 569.91 116.866 569.91C116.677 569.91 116.487 569.91 116.297 569.91C116.107 569.91 115.917 569.91 115.728 569.91C115.538 569.91 115.348 569.91 115.158 569.91C114.968 569.91 114.778 569.91 114.588 569.91C114.399 569.91 114.209 569.91 114.019 569.91C113.829 569.91 113.639 569.91 113.449 569.91C113.259 569.91 113.069 569.91 112.879 569.91C112.689 569.91 112.5 569.91 112.31 569.91C112.12 569.91 111.93 569.91 111.74 569.91C111.55 569.91 111.36 569.91 111.17 569.91C110.98 569.91 110.79 569.91 110.6 569.91C110.41 569.91 110.22 569.91 110.03 569.91C109.84 569.91 109.65 569.91 109.46 569.91C109.27 569.91 109.08 569.91 108.89 569.91C108.7 569.91 108.51 569.91 108.32 569.91C108.13 569.91 107.94 569.91 107.75 569.91C107.56 569.91 107.37 569.91 107.18 569.91C106.99 569.91 106.8 569.91 106.61 569.91C106.42 569.91 106.23 569.91 106.04 569.91C105.85 569.91 105.66 569.91 105.47 569.91C105.28 569.91 105.09 569.91 104.9 569.91C104.71 569.91 104.52 569.91 104.33 569.91C104.14 569.91 103.95 569.91 103.76 569.91C103.57 569.91 103.381 569.91 103.191 569.91C103.001 569.91 102.811 569.91 102.621 569.91C102.431 569.91 102.241 569.91 102.051 569.91C101.861 569.91 101.671 569.91 101.481 569.91C101.291 569.91 101.102 569.91 100.912 569.91C100.722 569.91 100.532 569.91 100.342 569.91C100.152 569.91 99.9625 569.91 99.7727 569.91C99.5828 569.91 99.393 569.91 99.2032 569.91C99.0134 569.91 98.8237 569.91 98.6339 569.91C98.4441 569.91 98.2544 569.91 98.0646 569.91C97.8749 569.91 97.6852 569.91 97.4955 569.91C97.3058 569.91 97.1161 569.91 96.9264 569.91C96.7367 569.91 96.5471 569.91 96.3574 569.91C96.1678 569.91 95.9782 569.91 95.7886 569.91C95.599 569.91 95.4094 569.91 95.2198 569.91C95.0303 569.91 94.8407 569.91 94.6512 569.91C94.4617 569.91 94.2722 569.91 94.0827 569.91C93.8932 569.91 93.7038 569.91 93.5143 569.91C93.3249 569.91 93.1355 569.91 92.9461 569.91C92.7567 569.91 92.5673 569.91 92.378 569.91C92.1886 569.91 91.9993 569.91 91.81 569.91C91.6207 569.91 91.4315 569.91 91.2422 569.91C91.053 569.91 90.8638 569.91 90.6746 569.91C90.4854 569.91 90.2962 569.91 90.1071 569.91C89.9179 569.91 89.7288 569.91 89.5398 569.91C89.3507 569.91 89.1616 569.91 88.9726 569.91C88.7836 569.91 88.5946 569.91 88.4056 569.91C88.2167 569.91 88.0277 569.91 87.8388 569.91C87.6499 569.91 87.4611 569.91 87.2722 569.91C87.0834 569.91 86.8946 569.91 86.7058 569.91C86.5171 569.91 86.3283 569.91 86.1396 569.91C85.9509 569.91 85.7623 569.91 85.5736 569.91C85.385 569.91 85.1964 569.91 85.0078 569.91C84.8193 569.91 84.6307 569.91 84.4422 569.91C84.2538 569.91 84.0653 569.91 83.8769 569.91C83.6885 569.91 83.5001 569.91 83.3118 569.91C83.1234 569.91 82.9351 569.91 82.7469 569.91C82.5586 569.91 82.3704 569.91 82.1822 569.91C81.994 569.91 81.8059 569.91 81.6178 569.91C81.4297 569.91 81.2416 569.91 81.0536 569.91C80.8656 569.91 80.6776 569.91 80.4897 569.91C80.3017 569.91 80.1139 569.91 79.926 569.91C79.7382 569.91 79.5504 569.91 79.3626 569.91C79.1749 569.91 78.9871 569.91 78.7995 569.91C78.6118 569.91 78.4242 569.91 78.2366 569.91C78.049 569.91 77.8615 569.91 77.674 569.91C77.4866 569.91 77.2991 569.91 77.1118 569.91C76.9244 569.91 76.737 569.91 76.5498 569.91C76.3625 569.91 76.1752 569.91 75.988 569.91C75.8009 569.91 75.6137 569.91 75.4266 569.91C75.2396 569.91 75.0525 569.91 74.8655 569.91C74.6786 569.91 74.4916 569.91 74.3048 569.91C74.1179 569.91 73.9311 569.91 73.7443 569.91C73.5575 569.91 73.3708 569.91 73.1841 569.91C72.9975 569.91 72.8109 569.91 72.6243 569.91C72.4378 569.91 72.2513 569.91 72.0648 569.91C71.8784 569.91 71.692 569.91 71.5057 569.91C71.3194 569.91 71.1331 569.91 70.9469 569.91C70.7607 569.91 70.5745 569.91 70.3884 569.91C70.2023 569.91 70.0163 569.91 69.8303 569.91C69.6444 569.91 69.4585 569.91 69.2726 569.91C69.0868 569.91 68.901 569.91 68.7152 569.91C68.5295 569.91 68.3438 569.91 68.1582 569.91C67.9726 569.91 67.7871 569.91 67.6016 569.91C67.4161 569.91 67.2307 569.91 67.0454 569.91C66.86 569.91 66.6747 569.91 66.4895 569.91C66.3043 569.91 66.1191 569.91 65.9341 569.91C65.749 569.91 65.5639 569.91 65.379 569.91C65.194 569.91 65.0091 569.91 64.8243 569.91C64.6395 569.91 64.4548 569.91 64.2701 569.91C64.0854 569.91 63.9008 569.91 63.7162 569.91C63.5317 569.91 63.3472 569.91 63.1628 569.91C62.9784 569.91 62.7941 569.91 62.6098 569.91C62.4256 569.91 62.2414 569.91 62.0573 569.91C61.8731 569.91 61.6891 569.91 61.5051 569.91C61.3212 569.91 61.1373 569.91 60.9534 569.91C60.7696 569.91 60.5859 569.91 60.4022 569.91C60.2185 569.91 60.0349 569.91 59.8514 569.91C59.6679 569.91 59.4845 569.91 59.3011 569.91C59.1177 569.91 58.9344 569.91 58.7512 569.91C58.568 569.91 58.3849 569.91 58.2018 569.91C58.0188 569.91 57.8358 569.91 57.6529 569.91C57.47 569.91 57.2872 569.91 57.1044 569.91C56.9217 569.91 56.7391 569.91 56.5565 569.91C56.3739 569.91 56.1914 569.91 56.009 569.91C55.8266 569.91 55.6443 569.91 55.462 569.91C55.2798 569.91 55.0976 569.91 54.9155 569.91C54.7335 569.91 54.5515 569.91 54.3696 569.91C54.1877 569.91 54.0058 569.91 53.8241 569.91C53.6424 569.91 53.4607 569.91 53.2792 569.91C53.0976 569.91 52.9161 569.91 52.7347 569.91C52.5533 569.91 52.372 569.91 52.1908 569.91C52.0096 569.91 51.8285 569.91 51.6475 569.91C51.4664 569.91 51.2855 569.91 51.1046 569.91C50.9238 569.91 50.743 569.91 50.5623 569.91C50.3817 569.91 50.2011 569.91 50.0206 569.91C49.8401 569.91 49.6597 569.91 49.4794 569.91C49.2991 569.91 49.1189 569.91 48.9388 569.91C48.7587 569.91 48.5787 569.91 48.3987 569.91C48.2188 569.91 48.039 569.91 47.8593 569.91C47.6795 569.91 47.4999 569.91 47.3203 569.91C47.1408 569.91 46.9614 569.91 46.782 569.91C46.6027 569.91 46.4234 569.91 46.2443 569.91C46.0651 569.91 45.8861 569.91 45.7071 569.91C45.5282 569.91 45.3493 569.91 45.1705 569.91C44.9918 569.91 44.8131 569.91 44.6346 569.91C44.456 569.91 44.2776 569.91 44.0992 569.91C43.9209 569.91 43.7426 569.91 43.5645 569.91C43.3864 569.91 43.2083 569.91 43.0304 569.91C42.8525 569.91 42.6746 569.91 42.4969 569.91C42.3192 569.91 42.1415 569.91 41.964 569.91C41.7865 569.91 41.6091 569.91 41.4318 569.91C41.2545 569.91 41.0773 569.91 40.9002 569.91C40.7231 569.91 40.5461 569.91 40.3693 569.91C40.1924 569.91 40.0156 569.91 39.839 569.91C39.6623 569.91 39.4858 569.91 39.3093 569.91C39.1329 569.91 38.9566 569.91 38.7804 569.91C38.6041 569.91 38.428 569.91 38.2521 569.91C38.0761 569.91 37.9002 569.91 37.7244 569.91C37.5487 569.91 37.373 569.91 37.1975 569.91C37.0219 569.91 36.8465 569.91 36.6712 569.91C36.4959 569.91 36.3207 569.91 36.1456 569.91C35.9705 569.91 35.7955 569.91 35.6207 569.91C35.4459 569.91 35.2711 569.91 35.0965 569.91C34.9219 569.91 34.7474 569.91 34.573 569.91C34.3986 569.91 34.2244 569.91 34.0502 569.91C33.8761 569.91 33.7021 569.91 33.5282 569.91C33.3543 569.91 33.1805 569.91 33.0068 569.91C32.8332 569.91 32.6596 569.91 32.4862 569.91C32.3128 569.91 32.1395 569.91 31.9663 569.91C31.7931 569.91 31.6201 569.91 31.4472 569.91C31.2742 569.91 31.1014 569.91 30.9288 569.91C30.7561 569.91 30.5835 569.91 30.4111 569.91C30.2387 569.91 30.0664 569.91 29.8942 569.91C29.722 569.91 29.55 569.91 29.378 569.91C29.2061 569.91 29.0343 569.91 28.8627 569.91C28.691 569.91 28.5194 569.91 28.348 569.91C28.1766 569.91 28.0053 569.91 27.8342 569.91C27.663 569.91 27.492 569.91 27.3211 569.91C27.1502 569.91 26.9795 569.91 26.8089 569.91C26.6382 569.91 26.4677 569.91 26.2974 569.91C26.127 569.91 25.9568 569.91 25.7867 569.91C25.6166 569.91 25.4466 569.91 25.2768 569.91C25.107 569.91 24.9373 569.91 24.7677 569.91C24.5981 569.91 24.4287 569.91 24.2594 569.91C24.0901 569.91 23.921 569.91 23.752 569.91C23.583 569.91 23.4141 569.91 23.2453 569.91C23.0766 569.91 22.908 569.91 22.7395 569.91C22.5711 569.91 22.4028 569.91 22.2346 569.91C22.0664 569.91 21.8983 569.91 21.7304 569.91C21.5625 569.91 21.3948 569.91 21.2271 569.91C21.0595 569.91 20.892 569.91 20.7247 569.91C20.5574 569.91 20.3902 569.91 20.2231 569.91C20.0561 569.91 19.8892 569.91 19.7224 569.91C19.5556 569.91 19.389 569.91 19.2226 569.91C19.0561 569.91 18.8898 569.91 18.7236 569.91C18.5574 569.91 18.3913 569.91 18.2255 569.91C18.0596 569.91 17.8938 569.91 17.7282 569.91C17.5626 569.91 17.3972 569.91 17.2319 569.91C17.0666 569.91 16.9014 569.91 16.7364 569.91C16.5714 569.91 16.4066 569.91 16.2419 569.91C16.0772 569.91 15.9127 569.91 15.7483 569.91C15.5839 569.91 15.4196 569.91 15.2555 569.91C15.0914 569.91 14.9275 569.91 14.7637 569.91C14.5999 569.91 14.4363 569.91 14.2728 569.91C14.1093 569.91 13.946 569.91 13.7828 569.91C13.6196 569.91 13.4566 569.91 13.2938 569.91C13.1309 569.91 12.9682 569.91 12.8057 569.91C12.6431 569.91 12.4807 569.91 12.3185 569.91C12.1563 569.91 11.9942 569.91 11.8323 569.91C11.6704 569.91 11.5086 569.91 11.347 569.91C11.1854 569.91 11.024 569.91 10.8627 569.91C10.7014 569.91 10.5403 569.91 10.3793 569.91C10.2184 569.91 10.0576 569.91 9.89694 569.91C9.73631 569.91 9.57584 569.91 9.41553 569.91C9.25523 569.91 9.09508 569.91 8.9351 569.91C8.77512 569.91 8.61531 569.91 8.45565 569.91C8.296 569.91 8.13652 569.91 7.9772 569.91C7.81787 569.91 7.65872 569.91 7.49973 569.91C7.34074 569.91 7.18192 569.91 7.02327 569.91C6.86461 569.91 6.70613 569.91 6.54781 569.91C6.38949 569.91 6.23134 569.91 6.07336 569.91C5.91538 569.91 5.75757 569.91 5.59993 569.91C5.44229 569.91 5.28482 569.91 5.12752 569.91C4.97023 569.91 4.8131 569.91 4.65614 569.91C4.49919 569.91 4.3424 569.91 4.18579 569.91C4.02918 569.91 3.87275 569.91 3.71648 569.91C3.56022 569.91 3.40413 569.91 3.24821 569.91C3.0923 569.91 2.93656 569.91 2.78099 569.91C2.62543 569.91 2.47004 569.91 2.31483 569.91C2.15962 569.91 2.00458 569.91 1.84972 569.91C1.69486 569.91 1.54018 569.91 1.38568 569.91C1.23118 569.91 1.07686 569.91 0.922711 569.91C0.768566 569.91 0.6146 569.91 0.460815 569.91C0.307029 569.91 0.153424 569.91 0 569.91V573.91ZM259.104 573.384L458.173 390.825L455.47 387.877L256.401 570.436L259.104 573.384ZM256.408 573.391L479.303 775.709L481.992 772.747L259.097 570.429L256.408 573.391ZM258.429 573.792L542.693 471.651L541.341 467.887L257.076 570.028L258.429 573.792ZM542.332 471.744L744.806 439.459L744.176 435.509L541.702 467.794L542.332 471.744ZM746.066 439.359H960.313V435.359H746.066V439.359ZM960.313 439.359H1211.19V435.359H960.313V439.359ZM1211.19 439.359H1606.41V435.359H1211.19V439.359ZM1606.41 439.359H1804.76V435.359H1606.41V439.359ZM256.957 573.745L507.346 682.27L508.936 678.6L258.548 570.075L256.957 573.745ZM508.141 682.435H702.069V678.435H508.141V682.435ZM702.017 682.434L1057.47 691.764L1057.57 687.766L702.122 678.436L702.017 682.434ZM1057.52 691.765H1229.36V687.765H1057.52V691.765ZM509.508 681.895L608.578 589.118L605.844 586.198L506.774 678.975L509.508 681.895ZM610.513 587.78L702.952 542.276L701.186 538.688L608.747 584.191L610.513 587.78ZM700.362 681.478L740.642 747.404L744.056 745.319L703.776 679.392L700.362 681.478ZM750.882 753.148H903.362V749.148H750.882V753.148ZM1058.83 691.281L1175.81 590.579L1173.2 587.548L1056.22 688.249L1058.83 691.281ZM1181.03 588.642H1377.41V584.642H1181.03V588.642ZM1383.39 587.045L1482.71 529.939L1480.71 526.472L1381.4 583.577L1383.39 587.045ZM1482.89 529.822L1607.59 438.976L1605.24 435.742L1480.53 526.589L1482.89 529.822ZM1480.93 530.047L1584.03 573.751L1585.59 570.069L1482.49 526.364L1480.93 530.047ZM1583.41 573.342L1657.09 645.145L1659.88 642.281L1586.21 570.478L1583.41 573.342ZM1665.47 648.552H1769.41V644.552H1665.47V648.552ZM1585.48 573.796L1672.72 542.94L1671.39 539.169L1584.14 570.025L1585.48 573.796ZM1675.39 542.482H1846V538.482H1675.39V542.482ZM902.055 752.662L966.993 808.671L969.606 805.642L904.668 749.633L902.055 752.662ZM974.831 811.584H1136.87V807.584H974.831V811.584ZM1066.36 854.798H1234.76V850.798H1066.36V854.798ZM1234.76 854.798H1403.16V850.798H1234.76V854.798ZM1140.16 812.293L1233.94 854.621L1235.58 850.975L1141.81 808.647L1140.16 812.293ZM903.362 753.148H1025.12V749.148H903.362V753.148ZM1025.12 753.148H1323.13V749.148H1025.12V753.148ZM480.078 776.145L612.391 815.43L613.53 811.596L481.217 772.311L480.078 776.145ZM612.391 815.43L743.311 854.302L744.45 850.467L613.53 811.596L612.391 815.43ZM611.111 814.275L651.449 912.156L655.147 910.632L614.81 812.751L611.111 814.275ZM655.824 917.526L744.153 977.221L746.393 973.906L658.064 914.212L655.824 917.526ZM745.273 977.564H914.163V973.564H745.273V977.564ZM746.727 854.798H905.816V850.798H746.727V854.798ZM905.816 854.798H1066.36V850.798H905.816V854.798ZM904.321 854.126L955.833 912.148L958.825 909.492L907.312 851.47L904.321 854.126ZM964.807 916.181H1098.76V912.181H964.807V916.181ZM703.614 541.752L743.818 492.857L740.728 490.317L700.524 539.212L703.614 541.752ZM749.997 489.938H901.891V485.938H749.997V489.938ZM910.054 486.734L961.673 438.825L958.952 435.893L907.333 483.802L910.054 486.734ZM702.069 542.482H761.229V538.482H702.069V542.482ZM761.229 542.482H820.39V538.482H761.229V542.482ZM759.658 541.719L815.816 613.038L818.958 610.564L762.801 539.245L759.658 541.719ZM825.244 617.615H942.147V613.615H825.244V617.615ZM943.365 617.201L1000.32 573.497L997.881 570.323L940.93 614.028L943.365 617.201ZM941.034 617.276L987.184 648.213L989.411 644.89L943.261 613.953L941.034 617.276ZM1212.65 438.728L1277.44 369.698L1274.52 366.96L1209.73 435.99L1212.65 438.728ZM1283.27 367.173H1427.15V363.173H1283.27V367.173ZM1435.41 363.868L1489.52 312.413L1486.76 309.514L1432.66 360.97L1435.41 363.868ZM1495.03 310.21H1606.41V306.21H1495.03V310.21ZM1209.89 438.873L1274.82 494.882L1277.44 491.853L1212.5 435.844L1209.89 438.873ZM1282.66 497.795H1403.16V493.795H1282.66V497.795ZM1016.85 257.912L1083.65 176.041L1080.55 173.513L1013.75 255.384L1016.85 257.912ZM1089.67 173.101L1218.6 170.256L1218.51 166.257L1089.58 169.102L1089.67 173.101ZM1220.2 169.402L1252.56 123.095L1249.28 120.803L1216.92 167.111L1220.2 169.402ZM1259.12 119.677H1416.9V115.677H1259.12V119.677ZM1217.17 169.701L1249.62 200.803L1252.39 197.915L1219.94 166.813L1217.17 169.701ZM1257.92 204.14H1380.08V200.14H1257.92V204.14ZM1218.56 258.648H1343.26V254.648H1218.56V258.648ZM1217.1 258.022L1274.53 318.733L1277.44 315.984L1220.01 255.274L1217.1 258.022ZM1283.25 322.486H1393.83V318.486H1283.25V322.486ZM1015.3 258.648H1116.93V254.648H1015.3V258.648ZM1116.93 258.648H1218.56V254.648H1116.93V258.648ZM1115.69 258.218L1162.33 295.047L1164.81 291.908L1118.17 255.078L1115.69 258.218ZM784.674 294.954L850.052 354.701L852.75 351.748L787.372 292.001L784.674 294.954ZM858.147 357.843H1015.3V353.843H858.147V357.843ZM1014.09 357.438L1053.64 387.334L1056.05 384.143L1016.51 354.247L1014.09 357.438ZM1060.88 389.762H1116.93V385.762H1060.88V389.762ZM1016.9 357.042L1034.52 333.544L1031.32 331.144L1013.7 354.643L1016.9 357.042ZM1040.92 330.343H1098.76V326.343H1040.92V330.343ZM786.34 295.452L900.979 277.037L900.344 273.088L785.706 291.503L786.34 295.452ZM900.979 277.037L1015.62 258.623L1014.98 254.673L900.344 273.088L900.979 277.037ZM902.478 275.899L943.964 185.789L940.331 184.116L898.845 274.226L902.478 275.899ZM543.711 470.832L575.461 420.206L572.072 418.081L540.323 468.707L543.711 470.832ZM580.266 416.704L661.322 396.084L660.336 392.207L579.28 412.827L580.266 416.704ZM461.367 389.033L622.842 342.542L621.735 338.698L460.26 385.189L461.367 389.033ZM622.842 342.542L786.576 295.4L785.47 291.556L621.735 338.698L622.842 342.542ZM624.263 340.94L639.728 245.674L635.78 245.033L620.314 340.299L624.263 340.94ZM638.904 246.99L722.234 188.408L719.933 185.136L636.603 243.717L638.904 246.99ZM726.835 186.953H813.541V182.953H726.835V186.953ZM824.73 179.289L856.131 98.2664L852.401 96.821L821 177.844L824.73 179.289ZM854.266 99.5437H983.094V95.5437H854.266V99.5437ZM992.921 94.4304L1023.77 50.4089L1020.5 48.1133L989.646 92.1348L992.921 94.4304ZM1030.32 47H1085.02V43H1030.32V47ZM637.892 247.349L729.701 240.965L729.424 236.975L637.615 243.358L637.892 247.349ZM852.715 98.8069L882.117 134.899L885.219 132.373L855.817 96.2805L852.715 98.8069ZM891.421 139.32H999.098V135.32H891.421V139.32ZM855.793 98.8354L885.2 64.0739L882.146 61.4905L852.739 96.252L855.793 98.8354ZM891.308 61.2408H942.147V57.2408H891.308V61.2408ZM743.633 976.708L781.398 1030.86L784.679 1028.58L746.914 974.42L743.633 976.708ZM791.241 1036H868.013V1032H791.241V1036ZM1321.64 752.483L1352.54 786.967L1355.52 784.298L1324.62 749.813L1321.64 752.483ZM1361.47 790.96H1481.71V786.96H1361.47V790.96ZM1324.73 752.348L1355.61 711.171L1352.41 708.771L1321.53 749.948L1324.73 752.348ZM1362.01 707.97H1416.9V703.97H1362.01V707.97ZM1418.48 707.199L1451.81 664.404L1448.65 661.946L1415.33 704.741L1418.48 707.199ZM1458.12 661.319H1506.75V657.319H1458.12V661.319ZM1415.59 707.483L1449.11 736.474L1451.73 733.449L1418.21 704.458L1415.59 707.483ZM1456.96 739.398H1506.75V735.398H1456.96V739.398ZM1506.75 739.398H1584.81V735.398H1506.75V739.398ZM481.483 776.045L559.52 740.131L557.847 736.497L479.811 772.411L481.483 776.045ZM562.864 739.398H622.289V735.398H562.864V739.398ZM1451.81 664.404C1453.33 662.457 1455.65 661.319 1458.12 661.319V657.319C1454.42 657.319 1450.93 659.027 1448.65 661.946L1451.81 664.404ZM1352.54 786.967C1354.81 789.508 1358.06 790.96 1361.47 790.96V786.96C1359.2 786.96 1357.03 785.992 1355.52 784.298L1352.54 786.967ZM882.117 134.899C884.396 137.696 887.813 139.32 891.421 139.32V135.32C889.016 135.32 886.738 134.237 885.219 132.373L882.117 134.899ZM1023.77 50.4089C1025.27 48.2722 1027.71 47 1030.32 47V43C1026.41 43 1022.74 44.9084 1020.5 48.1133L1023.77 50.4089ZM983.094 99.5437C987.008 99.5437 990.675 97.6353 992.921 94.4304L989.646 92.1348C988.148 94.2714 985.703 95.5437 983.094 95.5437V99.5437ZM813.541 186.953C818.495 186.953 822.94 183.908 824.73 179.289L821 177.844C819.807 180.923 816.843 182.953 813.541 182.953V186.953ZM575.461 420.206C576.553 418.465 578.273 417.21 580.266 416.704L579.28 412.827C576.291 413.587 573.71 415.469 572.072 418.081L575.461 420.206ZM1053.64 387.334C1055.72 388.909 1058.26 389.762 1060.88 389.762V385.762C1059.14 385.762 1057.44 385.193 1056.05 384.143L1053.64 387.334ZM850.052 354.701C852.263 356.722 855.151 357.843 858.147 357.843V353.843C856.15 353.843 854.225 353.095 852.75 351.748L850.052 354.701ZM1274.53 318.733C1276.8 321.129 1279.95 322.486 1283.25 322.486V318.486C1281.05 318.486 1278.95 317.581 1277.44 315.984L1274.53 318.733ZM1252.56 123.095C1254.06 120.953 1256.5 119.677 1259.12 119.677V115.677C1255.2 115.677 1251.53 117.591 1249.28 120.803L1252.56 123.095ZM744.806 439.459C745.223 439.392 745.644 439.359 746.066 439.359V435.359C745.433 435.359 744.801 435.409 744.176 435.509L744.806 439.459ZM1083.65 176.041C1085.13 174.227 1087.33 173.152 1089.67 173.101L1089.58 169.102C1086.07 169.179 1082.77 170.791 1080.55 173.513L1083.65 176.041ZM781.398 1030.86C783.642 1034.08 787.317 1036 791.241 1036V1032C788.625 1032 786.175 1030.72 784.679 1028.58L781.398 1030.86ZM743.818 492.857C745.338 491.009 747.605 489.938 749.997 489.938V485.938C746.408 485.938 743.008 487.545 740.728 490.317L743.818 492.857ZM1249.62 200.803C1251.85 202.944 1254.83 204.14 1257.92 204.14V200.14C1255.86 200.14 1253.88 199.343 1252.39 197.915L1249.62 200.803ZM651.449 912.156C652.347 914.337 653.869 916.205 655.824 917.526L658.064 914.212C656.761 913.331 655.746 912.086 655.147 910.632L651.449 912.156ZM1034.52 333.544C1036.03 331.529 1038.4 330.343 1040.92 330.343V326.343C1037.14 326.343 1033.59 328.122 1031.32 331.144L1034.52 333.544ZM1377.41 588.642C1379.51 588.642 1381.57 588.091 1383.39 587.045L1381.4 583.577C1380.19 584.275 1378.81 584.642 1377.41 584.642V588.642ZM815.816 613.038C818.091 615.928 821.566 617.615 825.244 617.615V613.615C822.792 613.615 820.475 612.49 818.958 610.564L815.816 613.038ZM1355.61 711.171C1357.12 709.156 1359.49 707.97 1362.01 707.97V703.97C1358.23 703.97 1354.67 705.749 1352.41 708.771L1355.61 711.171ZM458.173 390.825C459.085 389.989 460.178 389.375 461.367 389.033L460.26 385.189C458.477 385.703 456.837 386.623 455.47 387.877L458.173 390.825ZM1175.81 590.579C1177.26 589.329 1179.11 588.642 1181.03 588.642V584.642C1178.15 584.642 1175.38 585.673 1173.2 587.548L1175.81 590.579ZM722.234 188.408C723.581 187.461 725.188 186.953 726.835 186.953V182.953C724.364 182.953 721.954 183.715 719.933 185.136L722.234 188.408ZM1136.87 811.584C1138 811.584 1139.13 811.826 1140.16 812.293L1141.81 808.647C1140.25 807.947 1138.57 807.584 1136.87 807.584V811.584ZM901.891 489.938C904.919 489.938 907.835 488.794 910.054 486.734L907.333 483.802C905.854 485.175 903.91 485.938 901.891 485.938V489.938ZM740.642 747.404C742.822 750.972 746.702 753.148 750.882 753.148V749.148C748.095 749.148 745.509 747.697 744.056 745.319L740.642 747.404ZM743.311 854.302C744.42 854.631 745.57 854.798 746.727 854.798V850.798C745.956 850.798 745.189 850.686 744.45 850.467L743.311 854.302ZM1489.52 312.413C1491.01 310.998 1492.98 310.21 1495.03 310.21V306.21C1491.96 306.21 1488.99 307.393 1486.76 309.514L1489.52 312.413ZM1672.72 542.94C1673.58 542.637 1674.48 542.482 1675.39 542.482V538.482C1674.03 538.482 1672.67 538.714 1671.39 539.169L1672.72 542.94ZM885.2 64.0739C886.72 62.2771 888.954 61.2408 891.308 61.2408V57.2408C887.778 57.2408 884.426 58.7953 882.146 61.4905L885.2 64.0739ZM955.833 912.148C958.111 914.713 961.377 916.181 964.807 916.181V912.181C962.52 912.181 960.343 911.202 958.825 909.492L955.833 912.148ZM608.578 589.118C609.154 588.579 609.806 588.128 610.513 587.78L608.747 584.191C607.686 584.713 606.707 585.39 605.844 586.198L608.578 589.118ZM559.52 740.131C560.568 739.648 561.709 739.398 562.864 739.398V735.398C561.132 735.398 559.421 735.773 557.847 736.497L559.52 740.131ZM1274.82 494.882C1277 496.762 1279.78 497.795 1282.66 497.795V493.795C1280.74 493.795 1278.89 493.106 1277.44 491.853L1274.82 494.882ZM966.993 808.671C969.172 810.551 971.953 811.584 974.831 811.584V807.584C972.912 807.584 971.058 806.895 969.606 805.642L966.993 808.671ZM1277.44 369.698C1278.95 368.087 1281.06 367.173 1283.27 367.173V363.173C1279.96 363.173 1276.79 364.544 1274.52 366.96L1277.44 369.698ZM1657.09 645.145C1659.33 647.329 1662.34 648.552 1665.47 648.552V644.552C1663.38 644.552 1661.38 643.737 1659.88 642.281L1657.09 645.145ZM1449.11 736.474C1451.29 738.36 1454.08 739.398 1456.96 739.398V735.398C1455.04 735.398 1453.18 734.706 1451.73 733.449L1449.11 736.474ZM1427.15 367.173C1430.22 367.173 1433.18 365.99 1435.41 363.868L1432.66 360.97C1431.17 362.384 1429.2 363.173 1427.15 363.173V367.173Z" fill="black"></path></svg>