<svg xmlns="http://www.w3.org/2000/svg" width="1920" height="1080" viewBox="0 0 1920 1080" fill="none"><g clip-path="url(#clip0_62_8624)"><path d="M363.795 272.075C383.524 272.075 399.64 270.288 430.568 284.203C452.146 293.912 472.053 339.019 469.089 423.654C469.045 424.929 468.376 426.119 467.353 426.88C446.772 442.183 446.746 471.079 458.054 505.561C458.554 507.087 458.118 508.774 456.921 509.845L440.301 524.7C439.887 525.07 439.548 525.536 439.32 526.043C428.661 549.728 430.351 556.479 423.405 583.518C421.961 589.136 416.832 593.024 411.034 592.857C370.011 591.672 345.196 581.667 305 549.518L342.514 586.035C343.687 587.177 344.046 588.918 343.42 590.431L329.397 624.312M426.016 585.399L468.912 703.123C468.979 703.309 469.061 703.489 469.155 703.662L525.503 807.453C525.614 807.657 525.742 807.85 525.886 808.031L614.521 919.723C614.641 919.874 614.749 920.03 614.842 920.198C621.825 932.831 610.151 960.933 604.078 968.464C595.936 978.558 568.173 1005.51 554.504 1019M420.841 549.518C380.356 545.054 362.817 541.133 363.795 525.261C363.358 519.665 421.969 526.484 426.016 528" stroke="black" stroke-width="4" stroke-linecap="round" stroke-linejoin="round"></path><path d="M413 722L425.5 766.331L431 789" stroke="black" stroke-width="4" stroke-linecap="round" stroke-linejoin="round"></path><path d="M587 1104C541.221 1038.13 508.068 861.737 503.999 839.353C503.733 837.894 503.995 836.038 503.02 834.919C488.958 818.785 299.002 727.304 140.327 692.313C138.007 691.801 136.65 689.403 137.469 687.173C142.87 672.463 150.784 659.462 165.414 635.944C166.861 633.618 165.593 630.549 162.916 629.966C139.129 624.784 126.189 624.741 112.151 628.428C108.737 629.325 108.463 633.814 111.718 635.179C161.65 656.115 201.055 633.106 248.372 612.672C265.786 605.152 278.672 589.582 282.086 570.924C288.747 534.508 298.619 496.202 323.585 416.288L353.83 301.93C361.113 274.393 359.135 245.297 350.287 218.222C317.795 118.806 305.975 39.0526 136.01 19.8431C13.1976 14.9059 -41.6756 31.7894 -136 66.8705" stroke="black" stroke-width="4" stroke-linecap="round" stroke-linejoin="round"></path><path d="M1165 740C1165.73 780.419 1166.93 801.349 1174 828" stroke="black" stroke-width="4" stroke-linecap="round" stroke-linejoin="round"></path><path d="M1136.5 913.5C1162.56 938.02 1165.5 973.999 1189 984C1236.38 1004.16 1253.93 1001.2 1272.19 975.932C1272.39 975.65 1272.56 975.33 1272.69 975.004C1279.13 957.738 1278.88 947.909 1272.5 930.5" stroke="black" stroke-width="4" stroke-linecap="round" stroke-linejoin="round"></path><path d="M1482.66 715.425C1481.7 709.619 1451.69 710.287 1449.03 710.357C1448.89 710.361 1448.77 710.373 1448.63 710.391C1427.2 713.205 1427.45 697.9 1439.76 692.137C1454.49 686.658 1456.73 694.297 1461.83 709.467C1462.23 710.665 1462.05 711.988 1461.33 713.029L1399.11 803.272C1397.86 805.085 1398.32 807.567 1400.12 808.825L1457.93 849.075C1433.22 844.439 1402.41 820.725 1383.23 806.55C1364.15 792.453 1259.09 840.08 1186.57 837.479C1185.78 837.45 1185.02 837.171 1184.37 836.699C1159.06 818.086 1144.45 811.46 1118.24 815.662C1056.07 823.941 1049.14 842.337 1040.12 916.971C1040.04 917.586 1040.1 918.232 1040.34 918.803C1048.73 939.104 1091.8 943.997 1109.59 933.951C1109.97 933.733 1110.32 933.425 1110.61 933.083C1135.81 902.839 1120.59 912.382 1156.34 902.714C1157.44 902.416 1158.66 902.592 1159.63 903.204C1181.24 916.949 1194.67 919.889 1219.06 917.975C1219.47 917.942 1219.89 917.97 1220.29 918.063C1310.96 938.977 1455.74 929.671 1518.02 907.821C1519 907.478 1519.76 906.772 1520.22 905.84C1538.65 868.127 1553.81 831.603 1563.5 778.5M1572 681C1569.27 725.122 1572.71 736.835 1563.5 778.5M1563.5 778.5C1560.8 830.405 1560.02 857.322 1563.5 891" stroke="black" stroke-width="4" stroke-linecap="round" stroke-linejoin="round"></path><path d="M961.049 682.519C955.274 724.572 956.732 740.987 960.772 766.787C960.947 767.904 961.608 768.913 962.556 769.531C990.772 787.915 994.622 790.429 1015.64 817.636C945.264 765.407 914.792 748.219 840.169 696.487C839.882 696.288 839.615 696.048 839.389 695.781L775.722 620.681C774.96 619.781 773.821 619.263 772.642 619.272C731.848 619.589 713.682 626.461 719.145 672.236C719.306 673.58 720.171 674.779 721.391 675.366C759.083 693.501 777.725 707.279 804.06 737.855C804.247 738.071 804.415 738.317 804.551 738.568C884.853 886.918 970.407 954.649 1015.64 934.535C1060.92 914.403 1073.49 583.244 1025.25 570.174C977.01 557.104 969.748 548.417 921.62 552.462C911.874 543.522 968.91 540.942 982.874 526.681C983.508 526.032 983.808 525.157 983.751 524.251C982.631 506.234 961.049 465.047 961.049 432.021C961.049 325.749 944.274 287.433 865.51 279.192C769.755 274.142 761.437 380.129 748.878 420.947C748.783 421.256 748.658 421.526 748.493 421.804C730.915 451.413 730.736 516.26 730.131 522.172C730.098 522.498 729.87 522.605 729.542 522.605H699.586C698.382 522.605 697.236 522.055 696.476 521.121C665.707 483.313 643.535 456.61 605.086 412.958C603.942 411.659 603.75 409.758 604.63 408.266L708.543 232.067C708.716 231.772 708.932 231.497 709.175 231.255C743.624 197.022 759.243 174.251 783.333 130.925C783.52 130.589 783.665 130.208 783.746 129.832C788.86 106.054 777.841 103.906 739.924 96.2612C739.095 96.094 738.197 96.1977 737.429 96.5531C691.339 117.872 677.875 133.36 665.655 179.78C665.446 180.574 664.984 181.313 664.36 181.846C581.927 252.266 547.466 300.776 497.815 394.053C497.3 395.02 497.203 396.195 497.551 397.234C537.515 516.479 578.045 568.795 654.877 656.181C655.72 657.139 656.065 658.479 655.791 659.725C631.82 768.757 627.846 834.659 625 933.5" stroke="black" stroke-width="4" stroke-linecap="round" stroke-linejoin="round"></path><path d="M1496.65 572.275C1458.35 562.379 1433.63 558.232 1376.95 557.126C1375.93 557.106 1374.93 556.684 1374.2 555.982C1355.31 537.818 1351.77 537.553 1346.81 520.861C1345.65 516.943 1350.98 501.255 1352.67 497.537C1359.37 482.883 1366.98 450.073 1369.29 389.106C1362.76 278.922 1227.04 262.393 1170.65 305.618C1155.54 317.201 1125.91 348.004 1126.67 368.576C1126.68 368.772 1126.67 368.964 1126.66 369.159C1125 389.463 1153.89 414.124 1151.95 428.574C1150.01 443.093 1186.21 557.04 1218.67 572.275C1251.13 587.51 1265.67 552.541 1296.5 548.999L1238.56 590.645C1237.79 591.199 1236.84 591.459 1235.9 591.386C1214 589.709 1201.29 591.247 1179.9 599.168C1179.15 599.445 1178.48 599.961 1178.02 600.613C1114.8 689.866 1098.12 739.836 1063 828.813M1660.41 855.124C1668.41 795.715 1675.65 738.279 1674.56 672.102C1674.53 670.279 1675.77 668.647 1677.52 668.132C1688.67 664.842 1696.44 661.651 1702.21 659.03C1723.87 649.206 1721.17 678.949 1697.4 678.564C1690.04 678.444 1682.41 678.008 1674.5 677.619C1641.13 679.712 1608.03 678.364 1561.74 673.385C1543.87 671.463 1529.28 658.332 1525.13 640.847L1515.44 599.969C1515.38 599.722 1515.3 599.473 1515.19 599.242C1486.43 535.168 1486.09 508.927 1474.98 497.865C1466.47 489.385 1457.08 479.085 1461.31 467.841C1478.14 423.136 1485.43 397.045 1496.65 352.169C1557.67 190.945 1624.01 181.885 1740.56 169.607C1744.38 169.205 1748.32 169.077 1752.14 169.394C1866.88 178.901 1897.59 285.776 1933 352.169M1660.41 855.124C1591.5 876.594 1558.86 892.721 1509.66 927.22C1509.41 927.391 1509.18 927.597 1508.98 927.819C1444.06 999.607 1413.02 1037.66 1375.35 1098M1660.41 855.124C1684 849.064 1694.72 846.746 1698 840C1701.66 832.455 1699.84 826.913 1690.5 834C1668.21 850.908 1681 860 1688 874.5" stroke="black" stroke-width="4" stroke-linecap="round" stroke-linejoin="round"></path><path d="M886.305 473.175C858.412 474.444 842.849 473.178 815 467C821.669 488.699 826.126 502.507 853.434 506.624C867.594 506.624 882.916 487.461 886.305 473.175Z" stroke="black" stroke-width="4" stroke-linecap="round" stroke-linejoin="round"></path><path d="M1219.57 526.693C1246.73 515.942 1252.38 504.767 1258 482.438C1243.8 484.836 1235.84 485.805 1221.59 492.472C1193.13 498.878 1192.62 499.772 1185.18 502.507C1195.13 515.198 1205.41 529.266 1219.57 526.693Z" stroke="black" stroke-width="4" stroke-linecap="round" stroke-linejoin="round"></path><path d="M619 936.501C751.747 924.502 826.224 923.414 959 932.001M1025 936.001C1078.9 942.745 1108.17 947.144 1159 956.001M1279.5 970.001C1339.4 980.907 1373.51 989.174 1435 1007" stroke="black" stroke-width="4" stroke-linecap="round" stroke-linejoin="round"></path><path d="M1078.48 969.537L1122.14 966.514C1125.96 966.25 1129.6 968.19 1131.51 971.511L1163.61 1027.42C1167.09 1033.49 1163.43 1041.17 1156.52 1042.28L1094.4 1052.23C1089.16 1053.07 1084.17 1049.66 1083.04 1044.48L1069.4 981.635C1068.11 975.677 1072.4 969.958 1078.48 969.537Z" fill="#7B1FA2" stroke="black" stroke-width="4"></path><path d="M1074.11 964.753L1125.64 978.613C1131.21 980.112 1134.37 986 1132.52 991.466L1111.91 1052.59C1110.15 1057.79 1104.53 1060.6 1099.32 1058.89L1035.1 1037.84C1028.95 1035.83 1026.31 1028.59 1029.71 1023.09L1063.01 969.156C1065.33 965.395 1069.84 963.605 1074.11 964.753Z" fill="#FF0266" stroke="black" stroke-width="4"></path><path d="M1081.82 953.988L1128.59 981.801L1064.52 1037.09C1061.15 1040 1056.26 1040.33 1052.53 1037.9L996.698 1001.52L1071.35 954.141C1074.53 952.121 1078.58 952.062 1081.82 953.988Z" fill="#69F0AE" stroke="black" stroke-width="4"></path><path d="M748.344 1021.29C741.593 1005.34 725.227 968.08 717.938 948.15C717.938 948.15 763.222 951.209 785.648 954.37C793.764 928.605 821.996 866.083 821.996 866.083L881.006 952.9C881.006 952.9 923.092 952.538 939.448 951.665C955.805 950.793 1002.78 949.299 1002.78 949.299L954.658 1044.34C932.034 1048.56 908.269 992.699 850.316 989.908C808.859 987.911 781.972 1008.26 748.344 1021.29Z" fill="#FFDE03"></path><path d="M778.924 1025.01C787.029 1042.19 762.143 1056.23 750.79 1027.21C747.141 1017.88 726.41 971.312 717.938 948.15M717.938 948.15C717.938 948.15 774.964 952.003 792.721 955.528C792.721 955.528 789.126 962.729 784.916 965.052C774.781 970.644 821.996 866.083 821.996 866.083M717.938 948.15L830.555 985.984M821.996 866.083L830.555 985.984M821.996 866.083L881.006 952.9M893.597 972.556L881.006 952.9M1002.78 949.299L954.658 1044.34C932.034 1048.56 908.269 992.699 850.316 989.908M1002.78 949.299C1002.78 949.299 955.805 950.793 939.448 951.665C923.092 952.538 881.006 952.9 881.006 952.9M1002.78 949.299L830.555 985.984M850.316 989.908C807.436 987.843 780.144 1009.69 744.857 1022.6C713.981 1033.91 664.647 1031.58 634.932 1015.1M850.316 989.908L830.555 985.984" stroke="black" stroke-width="4" stroke-linecap="round" stroke-linejoin="round"></path><path d="M477.24 1152.06C624.609 1289.99 318.442 1322.13 71.5694 1292.51C-37.7868 1302.3 -101.798 1104.68 -110.588 1006.46C-119.378 908.236 -159.916 757.345 -50.5596 747.559C63.409 738.086 406.509 823.81 394.751 862.76C426.978 891.17 473.304 1108.08 477.24 1152.06Z" fill="#F8F8F8"></path><path d="M-147.973 249C-153.161 47.2193 84.6222 -50.4112 236.8 146.223C320.525 217.249 224.693 401.544 160.897 476.746C97.1011 551.948 90.7241 858.026 6.99934 787C-79.7402 712.469 -183.97 584.962 -147.973 566C-150.356 523.104 -176.539 282.673 -147.973 249Z" fill="#F8F8F8"></path><path d="M1421 1148.5C1475.5 1192.5 1620.39 1213.17 1858.9 1203.63C1965.32 1213.42 2020.74 1094.77 2025.95 1035C2031.15 975.227 2065.38 884.345 1958.95 874.559C1848.06 864.804 1564.28 918.767 1577 942.999C1546.7 959.256 1423.33 1121.73 1421 1148.5Z" fill="#F8F8F8"></path><path d="M1972.83 570.246C1985.09 401.064 1915.7 308.959 1821.4 424.697C1815.24 555.332 1862 655.5 1799.5 762C1770.5 887 1751.14 1089.93 1823.27 1027.06C1898.03 961.125 2002.95 1012.62 1973.89 998.199C1977.56 962.181 1995.15 597.285 1972.83 570.246Z" fill="#F8F8F8"></path></g><defs><clipPath id="clip0_62_8624"><rect width="1920" height="1080" fill="white"></rect></clipPath></defs></svg>