<svg xmlns="http://www.w3.org/2000/svg" width="400" height="400" viewBox="0 0 400 400" fill="none"><path d="M236.074 165.357C222.669 174.294 215.699 190.703 236.074 204.454C247.245 232.381 268.022 224.863 280.321 211.905C287.224 201.986 291.694 190.58 293.369 178.612C295.044 166.643 293.877 154.449 289.961 143.016C270.323 157.817 252.83 154.186 236.074 165.357Z" stroke="#7B1FA2" stroke-width="3" stroke-linecap="round" stroke-linejoin="round"></path><path d="M197.212 125.936C211.666 142.96 219.318 165.357 184.834 180.404C169.05 215.636 145.044 202.589 129.082 183.755C113.119 164.921 106.997 114.597 121.016 88C146.999 109.95 179.104 104.644 197.212 125.936Z" stroke="#7B1FA2" stroke-width="3" stroke-linecap="round" stroke-linejoin="round"></path><path d="M264.001 182.113C230.489 198.869 213.733 243.552 213.733 243.552C201.937 199.086 177.656 158.927 143.76 127.823" stroke="#7B1FA2" stroke-width="3" stroke-linecap="round" stroke-linejoin="round"></path><path d="M105.832 213.525H80.2616C77.908 213.525 76 215.997 76 219.046V296.337C76 299.386 77.908 301.858 80.2616 301.858H105.832C108.185 301.858 110.093 299.386 110.093 296.337V219.046C110.093 215.997 108.185 213.525 105.832 213.525Z" stroke="#1E1E1E" stroke-width="3" stroke-linecap="round" stroke-linejoin="round"></path><path d="M110.771 285.704C230.61 325.662 186.418 326.075 323.014 257.778C319.241 252.711 314.005 248.924 308.013 246.926C302.02 244.929 295.559 244.817 289.501 246.607L239.971 263.05" stroke="#1E1E1E" stroke-width="3" stroke-linecap="round" stroke-linejoin="round"></path><path d="M110.771 224.266H144.283C163.296 224.938 181.311 232.944 194.551 246.607H228.063C229.697 246.314 231.376 246.383 232.98 246.809C234.585 247.234 236.077 248.007 237.35 249.072C238.624 250.138 239.648 251.469 240.351 252.974C241.054 254.478 241.418 256.118 241.418 257.778C241.418 259.438 241.054 261.079 240.351 262.583C239.648 264.087 238.624 265.419 237.35 266.484C236.077 267.549 234.585 268.322 232.98 268.748C231.376 269.174 229.697 269.242 228.063 268.949H166.624" stroke="#1E1E1E" stroke-width="3" stroke-linecap="round" stroke-linejoin="round"></path></svg>