<svg xmlns="http://www.w3.org/2000/svg" width="400" height="400" viewBox="0 0 400 400" fill="none"><path d="M217.378 271.5C218.206 271.5 218.878 270.828 218.878 270C218.878 269.172 218.206 268.5 217.378 268.5V271.5ZM161.956 270L160.695 270.813C160.971 271.241 161.446 271.5 161.956 271.5V270ZM151 253V251.5C150.451 251.5 149.946 251.8 149.683 252.282C149.42 252.764 149.442 253.351 149.739 253.813L151 253ZM238 253L239.45 253.385C239.569 252.935 239.473 252.455 239.189 252.085C238.905 251.716 238.466 251.5 238 251.5V253ZM232.039 269.615C231.827 270.416 232.303 271.237 233.104 271.45C233.905 271.662 234.726 271.185 234.939 270.385L232.039 269.615ZM217.378 268.5H161.956V271.5H217.378V268.5ZM163.216 269.187L152.261 252.187L149.739 253.813L160.695 270.813L163.216 269.187ZM151 254.5H238V251.5H151V254.5ZM236.55 252.615L232.039 269.615L234.939 270.385L239.45 253.385L236.55 252.615Z" fill="#1E1E1E"></path><path d="M188 253V126" stroke="#1E1E1E" stroke-width="3" stroke-linecap="round"></path><path d="M188 136H205" stroke="#1E1E1E" stroke-width="3" stroke-linecap="round"></path><path d="M189.324 166.705C189.713 165.973 189.436 165.065 188.705 164.676C187.973 164.287 187.065 164.564 186.676 165.295L189.324 166.705ZM155 228L153.676 227.295C153.428 227.76 153.443 228.321 153.714 228.772C153.985 229.224 154.473 229.5 155 229.5V228ZM171.5 229.5C172.328 229.5 173 228.828 173 228C173 227.172 172.328 226.5 171.5 226.5V229.5ZM186.676 165.295L153.676 227.295L156.324 228.705L189.324 166.705L186.676 165.295ZM155 229.5H171.5V226.5H155V229.5Z" fill="#1E1E1E"></path><path d="M189.297 150.246C188.88 149.53 187.962 149.287 187.246 149.703C186.53 150.12 186.287 151.038 186.703 151.754L189.297 150.246ZM238 237V238.5C238.537 238.5 239.033 238.213 239.3 237.748C239.568 237.283 239.567 236.71 239.297 236.246L238 237ZM203.385 235.5C202.556 235.5 201.885 236.172 201.885 237C201.885 237.828 202.556 238.5 203.385 238.5V235.5ZM186.703 151.754L236.703 237.754L239.297 236.246L189.297 150.246L186.703 151.754ZM238 235.5H203.385V238.5H238V235.5Z" fill="#1E1E1E"></path><path d="M142 270H79" stroke="#1E1E1E" stroke-width="3" stroke-linecap="round"></path><path d="M128 285H154" stroke="#7B1FA2" stroke-width="3" stroke-linecap="round"></path><path d="M170 285H270" stroke="#1E1E1E" stroke-width="3" stroke-linecap="round"></path><path d="M153 302H215" stroke="#1E1E1E" stroke-width="3" stroke-linecap="round"></path><path d="M231 302H245" stroke="#7B1FA2" stroke-width="3" stroke-linecap="round"></path><path d="M115.781 256.206C116.256 256.885 117.191 257.05 117.87 256.575C118.549 256.1 118.714 255.165 118.239 254.486L115.781 256.206ZM100.5 198.129C100.5 197.301 99.8284 196.629 99 196.629C98.1716 196.629 97.5 197.301 97.5 198.129H100.5ZM298 213.084V214.584C298.828 214.584 299.5 213.912 299.5 213.084H298ZM277.121 211.584C276.293 211.584 275.621 212.255 275.621 213.084C275.621 213.912 276.293 214.584 277.121 214.584V211.584ZM292.046 159.118L293.426 158.531C293.191 157.977 292.647 157.618 292.046 157.618V159.118ZM239.931 157.618C239.103 157.618 238.431 158.289 238.431 159.118C238.431 159.946 239.103 160.618 239.931 160.618V157.618ZM281.6 143.054C282.065 143.74 282.997 143.919 283.683 143.455C284.369 142.991 284.549 142.058 284.085 141.372L281.6 143.054ZM99.7572 185.776L98.2685 185.592C98.2158 186.018 98.3487 186.447 98.6334 186.769C98.9181 187.091 99.3273 187.276 99.7572 187.276V185.776ZM136.19 187.276C137.019 187.276 137.69 186.604 137.69 185.776C137.69 184.947 137.019 184.276 136.19 184.276V187.276ZM268.233 267.937C267.646 268.522 267.645 269.472 268.229 270.059C268.814 270.646 269.764 270.647 270.351 270.063L268.233 267.937ZM282.842 252.095L281.611 251.239L281.611 251.239L282.842 252.095ZM296.78 229.252C297.091 228.484 296.721 227.609 295.953 227.298C295.186 226.987 294.311 227.357 294 228.125L296.78 229.252ZM118.239 254.486C107.057 238.511 100.5 219.085 100.5 198.129H97.5C97.5 219.721 104.258 239.744 115.781 256.206L118.239 254.486ZM296.5 198.129V213.084H299.5V198.129H296.5ZM298 211.584H277.121V214.584H298V211.584ZM290.665 159.704C293.127 165.497 294.596 173.29 295.443 180.61C296.287 187.903 296.5 194.6 296.5 198.129H299.5C299.5 194.507 299.283 187.692 298.423 180.265C297.567 172.864 296.059 164.727 293.426 158.531L290.665 159.704ZM292.046 157.618H239.931V160.618H292.046V157.618ZM199.479 99.5C233.673 99.5 263.817 116.777 281.6 143.054L284.085 141.372C265.766 114.304 234.708 96.5 199.479 96.5V99.5ZM101.246 185.959C107.262 137.235 148.946 99.5 199.479 99.5V96.5C147.421 96.5 104.469 135.374 98.2685 185.592L101.246 185.959ZM99.7572 187.276H136.19V184.276H99.7572V187.276ZM269.292 269C270.351 270.063 270.351 270.062 270.351 270.062C270.351 270.062 270.351 270.062 270.351 270.062C270.352 270.061 270.352 270.061 270.353 270.06C270.354 270.059 270.355 270.058 270.357 270.056C270.361 270.052 270.366 270.047 270.373 270.041C270.386 270.027 270.404 270.009 270.428 269.984C270.476 269.935 270.546 269.864 270.638 269.77C270.82 269.581 271.086 269.302 271.428 268.934C272.112 268.198 273.1 267.106 274.329 265.666C276.785 262.788 280.204 258.522 284.074 252.951L281.611 251.239C277.803 256.721 274.446 260.908 272.047 263.719C270.847 265.124 269.887 266.185 269.231 266.892C268.902 267.245 268.65 267.51 268.481 267.684C268.396 267.772 268.333 267.837 268.291 267.879C268.27 267.9 268.255 267.915 268.245 267.925C268.24 267.93 268.237 267.934 268.235 267.936C268.234 267.937 268.233 267.937 268.233 267.938C268.233 267.938 268.233 267.938 268.233 267.938C268.233 267.938 268.233 267.938 268.233 267.938C268.233 267.938 268.233 267.937 269.292 269ZM284.074 252.951C287.81 247.573 290.985 241.647 293.22 237.083C294.339 234.798 295.227 232.845 295.836 231.462C296.141 230.77 296.376 230.22 296.535 229.842C296.614 229.653 296.675 229.507 296.716 229.407C296.737 229.358 296.753 229.319 296.763 229.293C296.769 229.28 296.773 229.27 296.776 229.263C296.777 229.26 296.778 229.257 296.779 229.255C296.779 229.254 296.78 229.253 296.78 229.253C296.78 229.252 296.78 229.252 296.78 229.252C296.78 229.252 296.78 229.252 295.39 228.688C294 228.125 294 228.125 294 228.125C294 228.125 294 228.125 294 228.125C294 228.125 294 228.126 293.999 228.126C293.999 228.127 293.998 228.129 293.997 228.132C293.995 228.137 293.991 228.146 293.987 228.157C293.977 228.181 293.963 228.216 293.944 228.262C293.905 228.356 293.847 228.495 293.77 228.678C293.617 229.042 293.388 229.577 293.09 230.253C292.495 231.606 291.624 233.521 290.526 235.764C288.325 240.258 285.226 246.035 281.611 251.239L284.074 252.951Z" fill="#7B1FA2"></path><path d="M251 270H321" stroke="#1E1E1E" stroke-width="3" stroke-linecap="round"></path></svg>