<svg xmlns="http://www.w3.org/2000/svg" width="400" height="400" viewBox="0 0 400 400" fill="none"><g clip-path="url(#clip0_1717_14043)"><path d="M153.5 257C160.404 257 166 250.508 166 242.5C166 234.492 160.404 228 153.5 228C146.596 228 141 234.492 141 242.5C141 250.508 146.596 257 153.5 257Z" stroke="#1E1E1E" stroke-width="3" stroke-linecap="round" stroke-linejoin="round"></path><path d="M183 292C181.328 284.564 177.521 277.972 172.179 273.264C166.837 268.556 160.265 266 153.5 266C146.735 266 140.163 268.556 134.821 273.264C129.479 277.972 125.672 284.564 124 292" stroke="#1E1E1E" stroke-width="3" stroke-linecap="round" stroke-linejoin="round"></path><path d="M257.5 258C266.613 258 274 251.956 274 244.5C274 237.044 266.613 231 257.5 231C248.387 231 241 237.044 241 244.5C241 251.956 248.387 258 257.5 258Z" stroke="#1E1E1E" stroke-width="3" stroke-linecap="round" stroke-linejoin="round"></path><path d="M224 292C225.87 284.564 230.129 277.972 236.105 273.264C242.08 268.556 249.432 266 257 266C264.568 266 271.92 268.556 277.895 273.264C283.871 277.972 288.13 284.564 290 292" stroke="#1E1E1E" stroke-width="3" stroke-linecap="round" stroke-linejoin="round"></path><path d="M204.5 251C211.956 251 218 244.732 218 237C218 229.268 211.956 223 204.5 223C197.044 223 191 229.268 191 237C191 244.732 197.044 251 204.5 251Z" stroke="#7B1FA2" stroke-width="3" stroke-linecap="round" stroke-linejoin="round"></path><path d="M234 275C230.948 270.109 226.681 266.071 221.605 263.271C216.529 260.47 210.813 259 205 259C199.187 259 193.471 260.47 188.395 263.271C183.319 266.071 179.052 270.109 176 275" stroke="#1E1E1E" stroke-width="3" stroke-linecap="round" stroke-linejoin="round"></path><path d="M172 121L160 132" stroke="#7B1FA2" stroke-width="3" stroke-linecap="round" stroke-linejoin="round"></path><path d="M160 121L172 132" stroke="#7B1FA2" stroke-width="3" stroke-linecap="round" stroke-linejoin="round"></path><path d="M246 129L235 140" stroke="#1E1E1E" stroke-width="3" stroke-linecap="round" stroke-linejoin="round"></path><path d="M235 129L246 140" stroke="#1E1E1E" stroke-width="3" stroke-linecap="round" stroke-linejoin="round"></path><path d="M283 158L272 169" stroke="#1E1E1E" stroke-width="3" stroke-linecap="round" stroke-linejoin="round"></path><path d="M272 158L283 169" stroke="#1E1E1E" stroke-width="3" stroke-linecap="round" stroke-linejoin="round"></path><path d="M135.298 145.242L129.702 159.758" stroke="#1E1E1E" stroke-width="3" stroke-linecap="round" stroke-linejoin="round"></path><path d="M125.413 149.296L139.588 155.704" stroke="#1E1E1E" stroke-width="3" stroke-linecap="round" stroke-linejoin="round"></path><path d="M230 199C235.859 184.218 246.89 172.119 261 165" stroke="#1E1E1E" stroke-width="3" stroke-linecap="round" stroke-linejoin="round"></path><path d="M183 132L185.889 133.5C194.021 137.656 201.024 143.801 206.277 151.389C211.53 158.978 214.869 167.775 216 177" stroke="#7B1FA2" stroke-width="3" stroke-linecap="round" stroke-linejoin="round"></path><path d="M147 149C159.65 151.536 171.435 157.295 181.221 165.722C191.006 174.15 198.462 184.963 202.871 197.118L205 203" stroke="#1E1E1E" stroke-width="3" stroke-linecap="round" stroke-linejoin="round"></path><path d="M92.0146 214.362L90.5295 214.151C90.4587 214.649 90.6426 215.15 91.0192 215.484L92.0146 214.362ZM94.3307 198.06L93.9301 196.614C93.3553 196.774 92.9295 197.258 92.8456 197.849L94.3307 198.06ZM118.349 191.404L119.675 190.704C119.346 190.081 118.627 189.77 117.948 189.959L118.349 191.404ZM131.178 215.712L131.88 217.038C132.611 216.651 132.891 215.744 132.505 215.012L131.178 215.712ZM107.606 228.192L106.611 229.314C107.079 229.73 107.755 229.811 108.308 229.518L107.606 228.192ZM93.4997 214.573L95.8158 198.271L92.8456 197.849L90.5295 214.151L93.4997 214.573ZM94.7313 199.505L118.749 192.85L117.948 189.959L93.9301 196.614L94.7313 199.505ZM117.022 192.104L129.851 216.413L132.505 215.012L119.675 190.704L117.022 192.104ZM130.476 214.387L106.904 226.867L108.308 229.518L131.88 217.038L130.476 214.387ZM108.602 227.07L93.01 213.24L91.0192 215.484L106.611 229.314L108.602 227.07Z" fill="#7B1FA2"></path><path d="M261 197.019L260.029 195.875C259.693 196.16 259.5 196.578 259.5 197.019H261ZM276.333 184L277.274 182.832C276.714 182.38 275.911 182.391 275.363 182.857L276.333 184ZM301 203.87L302.206 204.762C302.684 204.116 302.567 203.207 301.941 202.702L301 203.87ZM288.333 221L287.935 222.446C288.533 222.611 289.171 222.391 289.539 221.892L288.333 221ZM261 213.463H259.5C259.5 214.138 259.951 214.73 260.601 214.909L261 213.463ZM261.971 198.162L277.304 185.143L275.363 182.857L260.029 195.875L261.971 198.162ZM275.392 185.168L300.059 205.039L301.941 202.702L277.274 182.832L275.392 185.168ZM299.794 202.979L287.127 220.108L289.539 221.892L302.206 204.762L299.794 202.979ZM288.732 219.554L261.399 212.017L260.601 214.909L287.935 222.446L288.732 219.554ZM262.5 213.463V197.019H259.5V213.463H262.5Z" fill="#1E1E1E"></path><path d="M318.667 149L298 160.205L322 178L318.667 149Z" stroke="#1E1E1E" stroke-width="3" stroke-linecap="round" stroke-linejoin="round"></path><path d="M304 109.432C304 109.432 303.17 125.353 296.335 133.322C294.6 135.29 292.493 136.892 290.137 138.033C287.78 139.175 285.222 139.834 282.61 139.973C279.998 140.111 277.384 139.726 274.921 138.839C272.459 137.953 270.196 136.583 268.265 134.809C265.13 131.974 263.244 128.002 263.022 123.769C262.8 119.535 264.26 115.386 267.08 112.235C268.198 110.986 269.549 109.971 271.056 109.248C272.564 108.524 274.198 108.106 275.867 108.018C277.535 107.929 279.204 108.172 280.779 108.732C282.354 109.293 283.804 110.159 285.045 111.283C286.039 112.181 286.847 113.268 287.423 114.48C287.999 115.693 288.331 117.007 288.402 118.349C288.472 119.69 288.279 121.033 287.833 122.3C287.388 123.566 286.698 124.732 285.804 125.731C284.357 127.341 282.335 128.308 280.179 128.422C278.024 128.535 275.912 127.786 274.305 126.337C273.669 125.762 273.152 125.067 272.784 124.291C272.415 123.515 272.203 122.673 272.158 121.815C272.113 120.956 272.237 120.097 272.523 119.286C272.808 118.476 273.25 117.73 273.823 117.091C274.28 116.58 274.834 116.164 275.451 115.868C276.068 115.572 276.738 115.401 277.421 115.365C278.104 115.328 278.788 115.428 279.433 115.658C280.077 115.887 280.671 116.242 281.179 116.703" stroke="#7B1FA2" stroke-width="3" stroke-linecap="round" stroke-linejoin="round"></path><path d="M177.932 197.452C178.765 201.411 178.032 205.531 175.895 208.904C173.759 212.277 170.392 214.628 166.537 215.44C162.681 216.251 158.653 215.456 155.338 213.23C152.022 211.005 149.692 207.53 148.858 203.57C147.431 196.79 153.936 178.893 156.287 172.754C156.377 172.521 156.521 172.314 156.708 172.153C156.895 171.991 157.119 171.88 157.359 171.83C157.599 171.779 157.848 171.791 158.084 171.863C158.321 171.935 158.536 172.066 158.712 172.244C163.342 176.916 176.505 190.671 177.932 197.452Z" stroke="#1E1E1E" stroke-width="3" stroke-linecap="round" stroke-linejoin="round"></path><path d="M81.3732 162.741L84.4727 124.271L107.738 127.893L99.7038 165.594L81.3732 162.741Z" stroke="#1E1E1E" stroke-width="3" stroke-linecap="round" stroke-linejoin="round"></path></g><defs><clipPath id="clip0_1717_14043"><rect width="400" height="400" fill="white"></rect></clipPath></defs></svg>