<svg xmlns="http://www.w3.org/2000/svg" width="400" height="400" viewBox="0 0 400 400" fill="none"><g clip-path="url(#clip0_1717_13917)"><path d="M198 126C206.837 126 214 118.837 214 110C214 101.163 206.837 94 198 94C189.163 94 182 101.163 182 110C182 118.837 189.163 126 198 126Z" stroke="#7B1FA2" stroke-width="3" stroke-linecap="round" stroke-linejoin="round"></path><path d="M230 157C228.187 150.136 224.057 144.051 218.262 139.705C212.468 135.359 205.338 133 198 133C190.662 133 183.532 135.359 177.738 139.705C171.943 144.051 167.813 150.136 166 157H230Z" stroke="#1E1E1E" stroke-width="3" stroke-linecap="round" stroke-linejoin="round"></path><path d="M149 273C157.837 273 165 266.06 165 257.5C165 248.94 157.837 242 149 242C140.163 242 133 248.94 133 257.5C133 266.06 140.163 273 149 273Z" stroke="#7B1FA2" stroke-width="3" stroke-linecap="round" stroke-linejoin="round"></path><path d="M181 305C179.187 297.85 175.057 291.512 169.262 286.985C163.468 282.458 156.338 280 149 280C141.662 280 134.532 282.458 128.738 286.985C122.943 291.512 118.813 297.85 117 305H181Z" stroke="#1E1E1E" stroke-width="3" stroke-linecap="round" stroke-linejoin="round"></path><path d="M249 273C257.837 273 265 266.06 265 257.5C265 248.94 257.837 242 249 242C240.163 242 233 248.94 233 257.5C233 266.06 240.163 273 249 273Z" stroke="#7B1FA2" stroke-width="3" stroke-linecap="round" stroke-linejoin="round"></path><path d="M281 305C279.187 297.85 275.057 291.512 269.262 286.985C263.468 282.458 256.338 280 249 280C241.662 280 234.532 282.458 228.738 286.985C222.943 291.512 218.813 297.85 217 305H281Z" stroke="#1E1E1E" stroke-width="3" stroke-linecap="round" stroke-linejoin="round"></path><path d="M220 273C206.526 278.333 191.474 278.333 178 273" stroke="#1E1E1E" stroke-width="3" stroke-linecap="round" stroke-linejoin="round"></path><path d="M231 174C239.701 179.778 246.597 187.782 250.93 197.133C255.263 206.484 256.864 216.819 255.558 227" stroke="#1E1E1E" stroke-width="3" stroke-linecap="round" stroke-linejoin="round"></path><path d="M167 174C158.299 179.778 151.403 187.782 147.07 197.133C142.737 206.484 141.136 216.819 142.442 227" stroke="#1E1E1E" stroke-width="3" stroke-linecap="round" stroke-linejoin="round"></path><path d="M201.252 202.566L206.245 212.532L215.706 212.423C216.184 212.399 216.658 212.524 217.063 212.779C217.467 213.035 217.783 213.409 217.968 213.851C218.152 214.293 218.195 214.781 218.092 215.248C217.989 215.715 217.744 216.14 217.391 216.463L209.283 225.14L213.975 235.551C214.182 236.028 214.233 236.557 214.123 237.065C214.012 237.573 213.745 238.033 213.358 238.381C212.972 238.729 212.487 238.947 211.97 239.004C211.454 239.061 210.932 238.955 210.479 238.7L199.395 232.634L188.45 238.963C188.003 239.229 187.484 239.348 186.967 239.303C186.449 239.258 185.958 239.052 185.564 238.713C185.17 238.375 184.891 237.921 184.769 237.417C184.646 236.912 184.684 236.381 184.879 235.899L189.312 225.375L180.981 216.889C180.621 216.575 180.366 216.157 180.251 215.693C180.136 215.229 180.167 214.741 180.339 214.295C180.512 213.849 180.818 213.467 181.215 213.201C181.612 212.935 182.082 212.798 182.56 212.808L192.034 212.712L196.781 202.621C196.987 202.207 197.303 201.858 197.694 201.612C198.086 201.367 198.537 201.233 198.999 201.228C199.462 201.222 199.917 201.344 200.314 201.58C200.711 201.816 201.036 202.157 201.252 202.566V202.566Z" stroke="#7B1FA2" stroke-width="3" stroke-linecap="round" stroke-linejoin="round"></path><path d="M174.793 197.437L180.228 202.738" stroke="#1E1E1E" stroke-width="3" stroke-linecap="round" stroke-linejoin="round"></path><path d="M223.104 196.836L217.803 202.27" stroke="#1E1E1E" stroke-width="3" stroke-linecap="round" stroke-linejoin="round"></path><path d="M201.432 181L196.131 186.435" stroke="#1E1E1E" stroke-width="3" stroke-linecap="round" stroke-linejoin="round"></path><path d="M201.499 186.368L196.064 181.067" stroke="#1E1E1E" stroke-width="3" stroke-linecap="round" stroke-linejoin="round"></path><path d="M168.367 220.333L163.066 225.768" stroke="#1E1E1E" stroke-width="3" stroke-linecap="round" stroke-linejoin="round"></path><path d="M168.435 225.701L163 220.4" stroke="#1E1E1E" stroke-width="3" stroke-linecap="round" stroke-linejoin="round"></path><path d="M230.098 219.566L235.532 224.867" stroke="#1E1E1E" stroke-width="3" stroke-linecap="round" stroke-linejoin="round"></path><path d="M230.164 224.934L235.465 219.499" stroke="#1E1E1E" stroke-width="3" stroke-linecap="round" stroke-linejoin="round"></path></g><defs><clipPath id="clip0_1717_13917"><rect width="400" height="400" fill="white"></rect></clipPath></defs></svg>