<svg xmlns="http://www.w3.org/2000/svg" width="400" height="400" viewBox="0 0 400 400" fill="none"><path d="M158.99 276.701V225.127" stroke="#7B1FA2" stroke-width="3" stroke-linecap="round"></path><path d="M177.8 246.364C177.8 246.364 177.039 242.332 175.341 240.903C171.733 237.869 171.126 239.689 166.977 237.869C163.156 236.193 159.598 229.375 159.598 229.375" stroke="#7B1FA2" stroke-width="3" stroke-linecap="round"></path><path d="M200.856 215.419V289.443H312.5V189.935H303.398" stroke="#1E1E1E" stroke-width="3" stroke-linecap="round"></path><path d="M200.25 186.295V112.271H88V209.958H97.7081" stroke="#1E1E1E" stroke-width="3" stroke-linecap="round"></path><path d="M186.294 199.643H109.843V312.5H212.385V303.398" stroke="#1E1E1E" stroke-width="3" stroke-linecap="round"></path><path d="M213.598 199.643H290.05V88H189.328V96.4946" stroke="#1E1E1E" stroke-width="3" stroke-linecap="round"></path><path d="M226.947 128.046L227.685 126.74C227.221 126.478 226.652 126.481 226.191 126.75C225.731 127.019 225.447 127.512 225.447 128.046H226.947ZM226.947 158.99H225.447C225.447 159.519 225.726 160.009 226.181 160.28C226.635 160.55 227.199 160.561 227.664 160.308L226.947 158.99ZM254.858 143.822L255.574 145.14C256.053 144.879 256.353 144.379 256.358 143.834C256.363 143.289 256.071 142.784 255.596 142.516L254.858 143.822ZM225.447 128.046V158.99H228.447V128.046H225.447ZM227.664 160.308L255.574 145.14L254.142 142.504L226.231 157.673L227.664 160.308ZM255.596 142.516L227.685 126.74L226.209 129.352L254.12 145.127L255.596 142.516Z" fill="#7B1FA2"></path><path d="M108.63 151.103H178.407" stroke="#7B1FA2" stroke-width="3" stroke-linecap="round"></path><path d="M108.63 166.271H178.407" stroke="#1E1E1E" stroke-width="3" stroke-linecap="round"></path><path d="M108.023 181.44H164.452" stroke="#7B1FA2" stroke-width="3" stroke-linecap="round"></path><path d="M247.577 262.139L282.769 226.34L297.938 240.296V274.881H216.025V268.813L241.509 242.723L251.824 253.038" stroke="#1E1E1E" stroke-width="3" stroke-linecap="round"></path><circle cx="148.069" cy="274.881" r="11.2419" stroke="#7B1FA2" stroke-width="3"></circle><circle cx="256.679" cy="222.093" r="8.20811" stroke="#7B1FA2" stroke-width="3"></circle><rect x="128.546" y="132.793" width="5.06757" height="5.06757" rx="0.5" fill="#7B1FA2" stroke="#7B1FA2"></rect><rect x="197.716" y="197.109" width="5.06757" height="5.06757" rx="0.5" fill="#1E1E1E" stroke="#1E1E1E"></rect><rect x="117.624" y="132.793" width="5.06757" height="5.06757" rx="0.5" fill="#7B1FA2" stroke="#7B1FA2"></rect><rect x="106.703" y="132.793" width="5.06757" height="5.06757" rx="0.5" fill="#7B1FA2" stroke="#7B1FA2"></rect></svg>