<svg xmlns="http://www.w3.org/2000/svg" width="400" height="400" viewBox="0 0 400 400" fill="none"><path d="M249.75 228.187C249.75 239.923 245.088 251.178 236.789 259.477C228.491 267.775 217.236 272.437 205.5 272.437C193.764 272.437 182.509 267.775 174.211 259.477C165.912 251.178 161.25 239.923 161.25 228.187V183.937C161.25 172.202 165.912 160.947 174.211 152.648C182.509 144.35 193.764 139.688 205.5 139.688C217.236 139.688 228.491 144.35 236.789 152.648C245.088 160.947 249.75 172.202 249.75 183.937V228.187Z" stroke="#1E1E1E" stroke-width="3" stroke-linecap="round" stroke-linejoin="round"></path><path d="M146.5 213.438V228.188C146.431 235.955 147.909 243.658 150.849 250.848C153.789 258.038 158.133 264.57 163.625 270.063C169.118 275.555 175.65 279.898 182.84 282.839C190.029 285.779 197.733 287.257 205.5 287.188C213.268 287.256 220.971 285.777 228.16 282.837C235.349 279.896 241.881 275.553 247.373 270.06C252.866 264.568 257.209 258.036 260.15 250.847C263.09 243.658 264.569 235.955 264.5 228.188V213.438" stroke="#7B1FA2" stroke-width="3" stroke-linecap="round" stroke-linejoin="round"></path><path d="M205.5 287.188V309.312" stroke="#1E1E1E" stroke-width="3" stroke-linecap="round" stroke-linejoin="round"></path><path d="M205.5 139.688V161.812" stroke="#1E1E1E" stroke-width="3" stroke-linecap="round" stroke-linejoin="round"></path><path d="M220.257 142.21L220.25 161.813" stroke="#1E1E1E" stroke-width="3" stroke-linecap="round" stroke-linejoin="round"></path><path d="M190.75 142.21V161.813" stroke="#1E1E1E" stroke-width="3" stroke-linecap="round" stroke-linejoin="round"></path><path d="M146.5 228.188H264.5" stroke="#7B1FA2" stroke-width="3" stroke-linecap="round" stroke-linejoin="round"></path><path d="M161.25 183.938H190.75" stroke="#1E1E1E" stroke-width="3" stroke-linecap="round" stroke-linejoin="round"></path><path d="M161.25 198.688H190.75" stroke="#1E1E1E" stroke-width="3" stroke-linecap="round" stroke-linejoin="round"></path><path d="M249.75 183.938H220.25" stroke="#1E1E1E" stroke-width="3" stroke-linecap="round" stroke-linejoin="round"></path><path d="M249.75 198.688H220.25" stroke="#1E1E1E" stroke-width="3" stroke-linecap="round" stroke-linejoin="round"></path><path d="M161.25 213.438H190.75" stroke="#1E1E1E" stroke-width="3" stroke-linecap="round" stroke-linejoin="round"></path><path d="M249.75 213.438H220.25" stroke="#1E1E1E" stroke-width="3" stroke-linecap="round" stroke-linejoin="round"></path><line x1="155.882" y1="133.878" x2="116.878" y2="90.1178" stroke="#7B1FA2" stroke-width="3" stroke-linecap="round"></line><line x1="255.672" y1="133.904" x2="288.904" y2="88.3283" stroke="#7B1FA2" stroke-width="3" stroke-linecap="round"></line><line x1="205.5" y1="122.5" x2="205.5" y2="67.5" stroke="#1E1E1E" stroke-width="3" stroke-linecap="round"></line></svg>