<svg xmlns="http://www.w3.org/2000/svg" width="400" height="400" viewBox="0 0 400 400" fill="none"><g clip-path="url(#clip0_1717_13993)"><path d="M100 239L120.513 207L152 227.853" stroke="#1E1E1E" stroke-width="3" stroke-linecap="round" stroke-linejoin="round"></path><path d="M210 118C216.045 117.98 222.076 118.65 228 120" stroke="#1E1E1E" stroke-width="3" stroke-linecap="round" stroke-linejoin="round"></path><path d="M245 125C250.616 127.436 255.977 130.451 261 134" stroke="#1E1E1E" stroke-width="3" stroke-linecap="round" stroke-linejoin="round"></path><path d="M129.297 166.673C131.723 161.101 134.708 155.79 138.207 150.821" stroke="#7B1FA2" stroke-width="3" stroke-linecap="round" stroke-linejoin="round"></path><path d="M274 145C278.129 149.278 281.815 153.969 285 159" stroke="#1E1E1E" stroke-width="3" stroke-linecap="round" stroke-linejoin="round"></path><path d="M149.624 137.587C154.037 133.392 158.866 129.657 164.037 126.44" stroke="#7B1FA2" stroke-width="3" stroke-linecap="round" stroke-linejoin="round"></path><path d="M293 175C295.279 180.491 296.955 186.188 298 192" stroke="#1E1E1E" stroke-width="3" stroke-linecap="round" stroke-linejoin="round"></path><path d="M299 210C298.86 216.063 298.19 222.094 297 228" stroke="#1E1E1E" stroke-width="3" stroke-linecap="round" stroke-linejoin="round"></path><path d="M291 244C288.531 249.639 285.516 255.001 282 260" stroke="#1E1E1E" stroke-width="3" stroke-linecap="round" stroke-linejoin="round"></path><path d="M270 273C265.702 277.158 261.011 280.844 256 284" stroke="#1E1E1E" stroke-width="3" stroke-linecap="round" stroke-linejoin="round"></path><path d="M240 291C234.166 293.36 228.135 295.035 222 296" stroke="#1E1E1E" stroke-width="3" stroke-linecap="round" stroke-linejoin="round"></path><path d="M205 296C198.918 295.644 192.887 294.639 187 293" stroke="#1E1E1E" stroke-width="3" stroke-linecap="round" stroke-linejoin="round"></path><path d="M171 287C165.34 284.493 159.979 281.477 155 278" stroke="#1E1E1E" stroke-width="3" stroke-linecap="round" stroke-linejoin="round"></path><path d="M142 266C138.191 261.371 134.84 256.345 132 251" stroke="#1E1E1E" stroke-width="3" stroke-linecap="round" stroke-linejoin="round"></path><path d="M125 235C122.341 225.953 120.991 216.505 121 207" stroke="#1E1E1E" stroke-width="3" stroke-linecap="round" stroke-linejoin="round"></path><circle cx="121" cy="187" r="17" fill="#7B1FA2"></circle><circle cx="187" cy="120" r="15.5" fill="#FAF9FF" stroke="#7B1FA2" stroke-width="3"></circle></g><defs><clipPath id="clip0_1717_13993"><rect width="400" height="400" fill="white"></rect></clipPath></defs></svg>