<svg xmlns="http://www.w3.org/2000/svg" width="719" height="363" viewBox="0 0 719 363" fill="none"><ellipse cx="296.137" cy="91.7981" rx="145.005" ry="91.7981" fill="#FFDE03"></ellipse><path d="M430.047 256.249C318.051 284.215 236.935 310.334 130.834 345.661C102.037 355.248 130.426 382.697 334.195 336.83C438.822 313.28 482.952 354.492 530.108 345.661C508.818 336.831 493.413 240.426 430.047 256.249Z" fill="#F8F8F8"></path><path d="M247.273 169.324C160.042 191.106 90.0268 214.036 7.38645 241.551C-15.0427 249.019 7.06858 270.398 165.781 234.674C247.273 216.33 355.165 218.623 391.894 211.745C340.244 195.695 296.628 156.999 247.273 169.324Z" fill="#F8F8F8"></path><path d="M43.6437 227.455C133.059 233.834 344.8 159.882 295.82 192.702C246.84 225.522 289.187 116.819 289.187 116.819C285.46 116.819 280.067 111.022 289.187 111.022C294.118 111.022 290.845 96.9432 290.845 96.9432C290.845 96.9432 287.532 92.1114 295.82 88.6619C305.769 84.5212 298.307 75.4116 302.453 75.4116C306.598 75.4116 301.859 83.1716 308.257 87.0056C316.548 91.9744 319.035 95.287 300.795 95.287C294.968 95.287 303.282 99.4277 311.573 99.4277C319.864 99.4277 313.231 109.365 313.231 109.365C313.231 109.365 321.549 108.537 319.035 113.506C316.52 118.475 311.655 112.841 311.573 119.303C311.19 149.313 335.204 179.495 363.806 192.702C405.851 212.115 612.126 234.795 594.091 217.411C576.055 200.028 548.31 226.327 499.012 251.805C441.357 281.602 358.664 325.519 271.01 335.447C192.413 344.35 81.1986 353.995 43.6438 327.414C-40.3439 267.969 165.224 239.708 376.808 235.616C483.864 233.545 631.488 259.808 717.876 235.616" stroke="black" stroke-width="2" stroke-linecap="round"></path></svg>