<svg xmlns="http://www.w3.org/2000/svg" width="455" height="333" viewBox="0 0 455 333" fill="none"><ellipse cx="227.488" cy="166.5" rx="203.812" ry="115.984" transform="rotate(-15.5929 227.488 166.5)" fill="#FFDE03"></ellipse><path d="M444.184 155.582H184.235C170.005 155.582 155.166 153.387 144.412 144.068C128.666 130.425 124.944 112.943 130.593 94.3277C135.478 78.2319 150.804 66.2012 167.585 67.3497C187.016 68.6795 197.506 81.6592 197.506 99.6914" stroke="black" stroke-width="4" stroke-linecap="round"></path><path d="M122.708 161.466L66.7567 161.466C51.9983 161.466 35.5641 159.64 26.8944 147.696C22.2423 141.287 20.4636 134.013 21.1562 126.3C22.6763 109.373 40.5979 94.3608 56.0747 101.382C63.7942 104.883 67.8833 112.475 67.8833 122.119" stroke="black" stroke-width="4" stroke-linecap="round"></path><path d="M390.194 222.398L220.384 222.398C213.137 222.398 205.429 224.079 201.244 229.995C191.355 243.976 200.108 261.901 217.679 261.901" stroke="black" stroke-width="4" stroke-linecap="round"></path><path d="M414.769 187.519H142.967C132.375 187.519 121.554 188.76 112.425 194.132C80.8044 212.739 72.5847 249.893 87.9487 278.391C89.9273 282.061 92.563 285.359 95.74 288.059C116.716 305.886 146.299 305.255 160.923 286.623C165.467 280.833 166.483 275.938 167.985 268.733V268.733C171.929 249.819 154.842 228.445 135.523 228.761C125.916 228.917 118.75 233.242 113.883 240.889" stroke="black" stroke-width="4" stroke-linecap="round"></path></svg>