<svg xmlns="http://www.w3.org/2000/svg" width="1920" height="1080" viewBox="0 0 1920 1080" fill="none"><rect width="1920" height="1080" fill="white"></rect><circle cx="838.5" cy="629.5" r="177" stroke="#7B1FA2" stroke-width="3"></circle><circle cx="1080.5" cy="629.5" r="177" stroke="#7B1FA2" stroke-width="3"></circle><circle cx="959.5" cy="413.5" r="177" stroke="#7B1FA2" stroke-width="3"></circle><path d="M967.153 551.902C964.024 556.22 959.702 552.795 957.988 551.157L957.318 550.413C953.965 546.913 950.537 545.201 941 545.201V535C954.412 535 957.392 541.552 959.18 547.807L959.925 546.764L967.898 535H979C979 535 968.271 550.338 967.153 551.902Z" fill="#1E1E1E"></path><path d="M951.535 556.098C954.582 551.78 958.79 555.205 960.459 556.843L961.112 557.587C964.376 561.087 967.714 562.799 977 562.799L977 573C963.941 573 961.039 566.448 959.298 560.193L958.573 561.236L950.81 573L940 573C940 573 950.447 557.662 951.535 556.098Z" fill="#7B1FA2"></path><path d="M1168.5 645.43C1168.5 658.072 1163.48 670.196 1154.54 679.135C1145.6 688.075 1133.48 693.097 1120.83 693.097C1108.19 693.097 1096.07 688.075 1087.13 679.135C1078.19 670.196 1073.17 658.072 1073.17 645.43H1168.5Z" stroke="#7B1FA2" stroke-width="3" stroke-linecap="round" stroke-linejoin="round"></path><path d="M1084.06 675.763H1107.83C1110.13 675.763 1112.34 674.85 1113.96 673.225C1115.59 671.6 1116.5 669.395 1116.5 667.097C1116.5 664.798 1115.59 662.594 1113.96 660.968C1112.34 659.343 1110.13 658.43 1107.83 658.43C1105.53 658.43 1103.33 657.517 1101.7 655.892C1100.08 654.266 1099.17 652.062 1099.17 649.763V645.43" stroke="#7B1FA2" stroke-width="3" stroke-linecap="round" stroke-linejoin="round"></path><path d="M1163.3 667.097H1146.83C1144.54 667.097 1142.33 668.01 1140.71 669.635C1139.08 671.26 1138.17 673.465 1138.17 675.763V689.847" stroke="#7B1FA2" stroke-width="3" stroke-linecap="round" stroke-linejoin="round"></path><path d="M1171.88 626.489L1163.15 614.642C1166.02 616.93 1170.14 613.584 1167.3 609.481L1157.23 595.787C1157.03 595.518 1156.77 595.3 1156.47 595.149C1156.17 594.999 1155.84 594.921 1155.5 594.921C1155.16 594.921 1154.83 594.999 1154.53 595.149C1154.23 595.3 1153.97 595.518 1153.77 595.787L1143.7 609.481C1140.86 613.584 1145 616.93 1147.85 614.642L1139.1 626.489C1138.68 626.952 1138.39 627.516 1138.25 628.127C1138.12 628.737 1138.14 629.372 1138.32 629.97C1138.5 630.569 1138.84 631.11 1139.29 631.541C1139.74 631.972 1140.3 632.278 1140.91 632.43H1170.08C1170.69 632.278 1171.25 631.972 1171.7 631.541C1172.15 631.11 1172.49 630.569 1172.67 629.97C1172.85 629.372 1172.87 628.737 1172.73 628.127C1172.6 627.516 1172.3 626.952 1171.88 626.489Z" stroke="#7B1FA2" stroke-width="3" stroke-linecap="round" stroke-linejoin="round"></path><path d="M1155.49 632.43V645.43" stroke="#7B1FA2" stroke-width="3" stroke-linecap="round" stroke-linejoin="round"></path><path d="M1135.78 638.93L1114.89 614.819C1114.68 614.584 1114.43 614.396 1114.15 614.267C1113.87 614.138 1113.56 614.071 1113.25 614.071C1112.94 614.071 1112.63 614.138 1112.35 614.267C1112.07 614.396 1111.82 614.584 1111.61 614.819L1099.44 628.864" stroke="#7B1FA2" stroke-width="3" stroke-linecap="round" stroke-linejoin="round"></path><path d="M1107.89 638.93L1094.83 623.508C1094.63 623.271 1094.38 623.08 1094.1 622.948C1093.82 622.816 1093.52 622.746 1093.21 622.742C1092.9 622.738 1092.59 622.801 1092.3 622.927C1092.02 623.052 1091.77 623.237 1091.56 623.469L1077.85 638.93" stroke="#7B1FA2" stroke-width="3" stroke-linecap="round" stroke-linejoin="round"></path><path d="M916.5 408.625C925.406 408.625 932.625 401.406 932.625 392.5C932.625 383.594 925.406 376.375 916.5 376.375C907.594 376.375 900.375 383.594 900.375 392.5C900.375 401.406 907.594 408.625 916.5 408.625Z" stroke="#7B1FA2" stroke-width="3" stroke-linecap="round" stroke-linejoin="round"></path><path d="M975.625 376.375H943.375V408.625H975.625V376.375Z" stroke="#7B1FA2" stroke-width="3" stroke-linecap="round" stroke-linejoin="round"></path><path d="M1002.5 376.375L986.375 408.625H1018.62L1002.5 376.375Z" stroke="#7B1FA2" stroke-width="3" stroke-linecap="round" stroke-linejoin="round"></path><path d="M967.562 349.5H951.438" stroke="#7B1FA2" stroke-width="3" stroke-linecap="round" stroke-linejoin="round"></path><path d="M975.625 319.938C975.505 315.699 973.767 311.667 970.769 308.669C967.77 305.671 963.739 303.933 959.5 303.812C955.261 303.933 951.23 305.671 948.231 308.669C945.233 311.667 943.495 315.699 943.375 319.938C943.435 322.685 944.211 325.369 945.625 327.725C947.038 330.082 949.042 332.029 951.438 333.375V338.75H967.562V333.375C969.957 332.028 971.96 330.081 973.374 327.724C974.788 325.368 975.563 322.685 975.625 319.938Z" stroke="#7B1FA2" stroke-width="3" stroke-linecap="round" stroke-linejoin="round"></path><path d="M916.5 376.375V362.938C916.5 362.225 916.783 361.541 917.287 361.037C917.791 360.533 918.475 360.25 919.188 360.25H999.812C1000.53 360.25 1001.21 360.533 1001.71 361.037C1002.22 361.541 1002.5 362.225 1002.5 362.938V376.375" stroke="#7B1FA2" stroke-width="3" stroke-linecap="round" stroke-linejoin="round"></path><path d="M959.5 349.5V373.688" stroke="#7B1FA2" stroke-width="3" stroke-linecap="round" stroke-linejoin="round"></path><path d="M959.5 290.375V295.75" stroke="#7B1FA2" stroke-width="3" stroke-linecap="round" stroke-linejoin="round"></path><path d="M980.404 299.034L976.604 302.834" stroke="#7B1FA2" stroke-width="3" stroke-linecap="round" stroke-linejoin="round"></path><path d="M989.062 317.25H983.688" stroke="#7B1FA2" stroke-width="3" stroke-linecap="round" stroke-linejoin="round"></path><path d="M938.597 299.034L942.397 302.834" stroke="#7B1FA2" stroke-width="3" stroke-linecap="round" stroke-linejoin="round"></path><path d="M929.938 317.25H935.312" stroke="#7B1FA2" stroke-width="3" stroke-linecap="round" stroke-linejoin="round"></path><g clip-path="url(#clip0_709_9063)"><path d="M796.667 693.667C796.522 689.951 797.147 686.245 798.503 682.782C799.859 679.32 801.916 676.175 804.545 673.545C807.175 670.916 810.32 668.858 813.783 667.503C817.245 666.147 820.951 665.522 824.667 665.667C828.383 665.522 832.089 666.147 835.551 667.503C839.014 668.858 842.159 670.916 844.789 673.545C847.418 676.175 849.475 679.32 850.831 682.782C852.187 686.245 852.812 689.951 852.667 693.667H796.667Z" stroke="#7B1FA2" stroke-width="3" stroke-linecap="round" stroke-linejoin="round"></path><path d="M824.676 658.667C834.986 658.667 843.343 650.309 843.343 640C843.343 629.691 834.986 621.333 824.676 621.333C814.367 621.333 806.01 629.691 806.01 640C806.01 650.309 814.367 658.667 824.676 658.667Z" stroke="#7B1FA2" stroke-width="3" stroke-linecap="round" stroke-linejoin="round"></path><path d="M751.102 651.667H796.718" stroke="#7B1FA2" stroke-width="3" stroke-linecap="round" stroke-linejoin="round"></path><path d="M752.959 605H824.112" stroke="#7B1FA2" stroke-width="3" stroke-linecap="round" stroke-linejoin="round"></path><path d="M799.051 628.333H745.343" stroke="#7B1FA2" stroke-width="3" stroke-linecap="round" stroke-linejoin="round"></path><path d="M785.051 672.667C774.135 672.016 763.896 667.157 756.488 659.111C749.081 651.066 745.082 640.461 745.333 629.528C745.348 619.413 748.908 609.624 755.395 601.864C761.882 594.104 770.885 588.864 780.837 587.057C790.789 585.25 801.059 586.989 809.861 591.973C818.662 596.957 825.437 604.87 829.007 614.333" stroke="#7B1FA2" stroke-width="3" stroke-linecap="round" stroke-linejoin="round"></path><path d="M784.916 586.478C762.516 610.875 762.558 642.679 785.051 672.667" stroke="#7B1FA2" stroke-width="3" stroke-linecap="round" stroke-linejoin="round"></path><path d="M792.191 586.487C800.567 595.491 806.002 606.832 807.773 619" stroke="#7B1FA2" stroke-width="3" stroke-linecap="round" stroke-linejoin="round"></path></g><defs><clipPath id="clip0_709_9063"><rect width="112" height="112" fill="white" transform="translate(743 584)"></rect></clipPath></defs></svg>