<svg xmlns="http://www.w3.org/2000/svg" width="685" height="622" viewBox="0 0 685 622" fill="none"><circle cx="221.5" cy="418.5" r="177" stroke="#7B1FA2" stroke-width="3"></circle><circle cx="463.5" cy="418.5" r="177" stroke="#7B1FA2" stroke-width="3"></circle><circle cx="342.5" cy="202.5" r="177" stroke="#7B1FA2" stroke-width="3"></circle><path d="M350.153 340.902C347.024 345.22 342.702 341.795 340.988 340.157L340.318 339.413C336.965 335.913 333.537 334.201 324 334.201V324C337.412 324 340.392 330.552 342.18 336.807L342.925 335.764L350.898 324H362C362 324 351.271 339.338 350.153 340.902Z" fill="#1E1E1E"></path><path d="M334.535 345.098C337.582 340.78 341.79 344.205 343.459 345.843L344.112 346.587C347.376 350.087 350.714 351.799 360 351.799L360 362C346.941 362 344.039 355.448 342.298 349.193L341.573 350.236L333.81 362L323 362C323 362 333.447 346.662 334.535 345.098Z" fill="#7B1FA2"></path><path d="M551.5 434.43C551.5 447.072 546.478 459.196 537.539 468.135C528.6 477.075 516.476 482.097 503.834 482.097C491.192 482.097 479.067 477.075 470.128 468.135C461.189 459.196 456.167 447.072 456.167 434.43H551.5Z" stroke="#7B1FA2" stroke-width="3" stroke-linecap="round" stroke-linejoin="round"></path><path d="M467.061 464.763H490.833C493.132 464.763 495.336 463.85 496.961 462.225C498.587 460.6 499.5 458.395 499.5 456.097C499.5 453.798 498.587 451.594 496.961 449.968C495.336 448.343 493.132 447.43 490.833 447.43C488.535 447.43 486.33 446.517 484.705 444.892C483.08 443.266 482.167 441.062 482.167 438.763V434.43" stroke="#7B1FA2" stroke-width="3" stroke-linecap="round" stroke-linejoin="round"></path><path d="M546.3 456.097H529.834C527.535 456.097 525.331 457.01 523.705 458.635C522.08 460.26 521.167 462.465 521.167 464.763V478.847" stroke="#7B1FA2" stroke-width="3" stroke-linecap="round" stroke-linejoin="round"></path><path d="M554.885 415.489L546.149 403.642C549.017 405.93 553.138 402.584 550.296 398.481L540.234 384.787C540.032 384.518 539.77 384.3 539.469 384.149C539.169 383.999 538.837 383.921 538.5 383.921C538.164 383.921 537.832 383.999 537.531 384.149C537.231 384.3 536.969 384.518 536.767 384.787L526.701 398.481C523.858 402.584 528.001 405.93 530.848 403.642L522.103 415.489C521.683 415.952 521.39 416.516 521.253 417.127C521.116 417.737 521.139 418.372 521.321 418.97C521.502 419.569 521.836 420.11 522.289 420.541C522.742 420.972 523.299 421.278 523.906 421.43H553.082C553.689 421.278 554.246 420.972 554.699 420.541C555.152 420.11 555.485 419.569 555.667 418.97C555.848 418.372 555.872 417.737 555.735 417.127C555.598 416.516 555.305 415.952 554.885 415.489Z" stroke="#7B1FA2" stroke-width="3" stroke-linecap="round" stroke-linejoin="round"></path><path d="M538.487 421.43V434.43" stroke="#7B1FA2" stroke-width="3" stroke-linecap="round" stroke-linejoin="round"></path><path d="M518.783 427.93L497.888 403.819C497.684 403.584 497.433 403.396 497.15 403.267C496.868 403.138 496.561 403.071 496.25 403.071C495.939 403.071 495.632 403.138 495.349 403.267C495.067 403.396 494.815 403.584 494.612 403.819L482.439 417.864" stroke="#7B1FA2" stroke-width="3" stroke-linecap="round" stroke-linejoin="round"></path><path d="M490.894 427.93L477.833 412.508C477.632 412.271 477.383 412.08 477.103 411.948C476.822 411.816 476.516 411.746 476.206 411.742C475.896 411.738 475.588 411.801 475.305 411.927C475.021 412.052 474.767 412.237 474.561 412.469L460.851 427.93" stroke="#7B1FA2" stroke-width="3" stroke-linecap="round" stroke-linejoin="round"></path><path d="M299.5 197.625C308.406 197.625 315.625 190.406 315.625 181.5C315.625 172.594 308.406 165.375 299.5 165.375C290.594 165.375 283.375 172.594 283.375 181.5C283.375 190.406 290.594 197.625 299.5 197.625Z" stroke="#7B1FA2" stroke-width="3" stroke-linecap="round" stroke-linejoin="round"></path><path d="M358.625 165.375H326.375V197.625H358.625V165.375Z" stroke="#7B1FA2" stroke-width="3" stroke-linecap="round" stroke-linejoin="round"></path><path d="M385.5 165.375L369.375 197.625H401.625L385.5 165.375Z" stroke="#7B1FA2" stroke-width="3" stroke-linecap="round" stroke-linejoin="round"></path><path d="M350.562 138.5H334.438" stroke="#7B1FA2" stroke-width="3" stroke-linecap="round" stroke-linejoin="round"></path><path d="M358.625 108.938C358.505 104.699 356.767 100.667 353.769 97.6688C350.77 94.6705 346.739 92.933 342.5 92.8125C338.261 92.933 334.23 94.6705 331.231 97.6688C328.233 100.667 326.495 104.699 326.375 108.938C326.435 111.685 327.211 114.369 328.625 116.725C330.038 119.082 332.042 121.029 334.438 122.375V127.75H350.562V122.375C352.957 121.028 354.96 119.081 356.374 116.724C357.788 114.368 358.563 111.685 358.625 108.938Z" stroke="#7B1FA2" stroke-width="3" stroke-linecap="round" stroke-linejoin="round"></path><path d="M299.5 165.375V151.938C299.5 151.225 299.783 150.541 300.287 150.037C300.791 149.533 301.475 149.25 302.188 149.25H382.812C383.525 149.25 384.209 149.533 384.713 150.037C385.217 150.541 385.5 151.225 385.5 151.938V165.375" stroke="#7B1FA2" stroke-width="3" stroke-linecap="round" stroke-linejoin="round"></path><path d="M342.5 138.5V162.688" stroke="#7B1FA2" stroke-width="3" stroke-linecap="round" stroke-linejoin="round"></path><path d="M342.5 79.375V84.75" stroke="#7B1FA2" stroke-width="3" stroke-linecap="round" stroke-linejoin="round"></path><path d="M363.404 88.0342L359.604 91.8343" stroke="#7B1FA2" stroke-width="3" stroke-linecap="round" stroke-linejoin="round"></path><path d="M372.062 106.25H366.688" stroke="#7B1FA2" stroke-width="3" stroke-linecap="round" stroke-linejoin="round"></path><path d="M321.597 88.0342L325.397 91.8343" stroke="#7B1FA2" stroke-width="3" stroke-linecap="round" stroke-linejoin="round"></path><path d="M312.938 106.25H318.312" stroke="#7B1FA2" stroke-width="3" stroke-linecap="round" stroke-linejoin="round"></path><g clip-path="url(#clip0_709_9063)"><path d="M179.667 482.667C179.522 478.951 180.147 475.245 181.503 471.782C182.859 468.32 184.916 465.175 187.545 462.545C190.175 459.916 193.32 457.858 196.783 456.502C200.245 455.147 203.951 454.522 207.667 454.667C211.383 454.522 215.089 455.147 218.551 456.502C222.014 457.858 225.159 459.916 227.789 462.545C230.418 465.175 232.475 468.32 233.831 471.782C235.187 475.245 235.812 478.951 235.667 482.667H179.667Z" stroke="#7B1FA2" stroke-width="3" stroke-linecap="round" stroke-linejoin="round"></path><path d="M207.676 447.667C217.986 447.667 226.343 439.309 226.343 429C226.343 418.691 217.986 410.333 207.676 410.333C197.367 410.333 189.01 418.691 189.01 429C189.01 439.309 197.367 447.667 207.676 447.667Z" stroke="#7B1FA2" stroke-width="3" stroke-linecap="round" stroke-linejoin="round"></path><path d="M134.102 440.667H179.718" stroke="#7B1FA2" stroke-width="3" stroke-linecap="round" stroke-linejoin="round"></path><path d="M135.959 394H207.112" stroke="#7B1FA2" stroke-width="3" stroke-linecap="round" stroke-linejoin="round"></path><path d="M182.051 417.333H128.343" stroke="#7B1FA2" stroke-width="3" stroke-linecap="round" stroke-linejoin="round"></path><path d="M168.051 461.667C157.135 461.016 146.896 456.157 139.488 448.111C132.081 440.066 128.082 429.461 128.333 418.528C128.348 408.413 131.908 398.624 138.395 390.864C144.882 383.104 153.885 377.864 163.837 376.057C173.789 374.25 184.059 375.989 192.861 380.973C201.662 385.957 208.437 393.87 212.007 403.333" stroke="#7B1FA2" stroke-width="3" stroke-linecap="round" stroke-linejoin="round"></path><path d="M167.916 375.478C145.516 399.875 145.558 431.679 168.051 461.667" stroke="#7B1FA2" stroke-width="3" stroke-linecap="round" stroke-linejoin="round"></path><path d="M175.191 375.487C183.567 384.491 189.002 395.832 190.773 408" stroke="#7B1FA2" stroke-width="3" stroke-linecap="round" stroke-linejoin="round"></path></g><defs><clipPath id="clip0_709_9063"><rect width="112" height="112" fill="white" transform="translate(126 373)"></rect></clipPath></defs></svg>