<svg xmlns="http://www.w3.org/2000/svg" width="560" height="466" viewBox="0 0 560 466" fill="none"><ellipse cx="279.777" cy="232.678" rx="224.527" ry="143.5" transform="rotate(-9.2958 279.777 232.678)" fill="#69F0AE"></ellipse><path d="M390.636 116.147C364.625 121.231 352.281 125.62 332.277 134.868M406.754 155.52C398.652 160.125 393.466 161.965 381.243 161.823M457.6 195.318C425.588 198.006 411.898 203.263 387.339 212.511M484.551 240.619C475.889 245.244 470.924 247.82 445.077 249.666" stroke="black" stroke-width="4"></path><path d="M176.086 181.358C199.679 186.922 197.708 195.877 194.952 206.896C193.706 211.88 186.788 214.593 182.898 211.238L177.029 206.175C172.98 202.682 175.177 196.037 180.51 195.648L191.54 194.841C194.221 194.645 196.709 196.263 197.621 198.792C203.286 214.494 205.62 221.603 204.988 230.76C204.759 234.078 202.978 237.206 199.955 238.591C192.809 241.866 184.094 240.773 169.293 233.926C152.618 226.213 141.205 208.823 143.962 190.658C145.836 178.304 150.398 170.149 158.468 161.219C158.884 160.758 159.348 160.321 159.833 159.933C173.47 149.01 179.944 149.438 199.274 146.023M199.274 146.023L383.519 94.8645C386.405 94.0631 389.489 94.2747 392.213 95.5201C434.252 114.74 439.507 129.878 430.223 168.25C429.144 172.709 425.688 176.205 421.274 177.456L222.387 233.859C219.448 234.692 217.125 230.952 219.001 228.542C241.48 199.66 242.145 166.222 199.274 146.023Z" stroke="black" stroke-width="4"></path><path d="M216.406 271.728C247.288 279.007 244.573 289.952 243.339 304.892C243.097 307.816 239.669 309.515 237.297 307.788L233.528 305.044C230.557 302.881 229.001 299.271 229.469 295.627V295.627C230.17 290.164 232.824 285.14 236.941 281.481L244.752 274.539C245.509 273.866 246.504 273.454 247.516 273.46C270.39 273.607 256.361 306.308 251.604 323.082C250.696 326.284 249.007 329.393 246.015 330.848C237.628 334.926 227.361 333.491 209.045 324.652C192.494 316.665 181.321 299.478 183.435 281.223C185.208 265.913 190.315 256.362 199.872 245.815C200.289 245.354 200.755 244.917 201.239 244.528C216.317 232.444 223.44 232.925 244.778 229.161M244.778 229.161L448.284 172.742C451.168 171.942 454.258 172.159 456.981 173.398C503.967 194.777 509.629 211.483 499.133 254.384C498.042 258.842 494.585 262.346 490.17 263.596L269.188 326.169C266.249 327.001 263.946 323.271 265.848 320.879C291.284 288.89 292.461 251.609 244.778 229.161Z" stroke="black" stroke-width="4" stroke-linecap="round"></path><path d="M176.086 181.358C199.679 186.922 197.708 195.877 194.952 206.896C193.706 211.88 186.788 214.593 182.898 211.238L177.029 206.175C172.98 202.682 175.177 196.037 180.51 195.648L191.54 194.841C194.221 194.645 196.709 196.263 197.621 198.792C203.286 214.494 205.62 221.603 204.988 230.76C204.759 234.078 202.978 237.206 199.955 238.591C192.809 241.866 184.094 240.773 169.293 233.926C152.618 226.213 141.205 208.823 143.962 190.658C145.836 178.304 150.398 170.149 158.468 161.219C158.884 160.758 159.348 160.321 159.833 159.933C173.47 149.01 179.944 149.438 199.274 146.023M199.274 146.023L383.519 94.8645C386.405 94.0631 389.489 94.2747 392.213 95.5201C434.252 114.74 439.507 129.878 430.223 168.25C429.144 172.709 425.688 176.205 421.274 177.456L222.387 233.859C219.448 234.692 217.125 230.952 219.001 228.542C241.48 199.66 242.145 166.222 199.274 146.023Z" stroke="black" stroke-width="4" stroke-linecap="round"></path><path d="M104.786 249.836C125.059 254.617 122.552 264.388 117.896 275.182C116.188 279.141 105.676 279.506 104.088 275.498V275.498C103.802 274.776 103.732 273.985 103.918 273.232C106.73 261.808 112.526 259.832 125.431 260.122C125.903 260.132 126.4 260.205 126.853 260.34C147.881 266.583 136.044 289.075 131.568 303.053C130.554 306.221 128.885 309.358 125.862 310.744C118.715 314.019 110.001 312.926 95.2002 306.079C78.5247 298.365 67.1121 280.976 69.8684 262.811C71.743 250.457 76.3044 242.302 84.375 233.371C84.7913 232.911 85.2554 232.474 85.74 232.086C99.3766 221.162 105.851 221.591 125.18 218.175M125.18 218.175L147.328 212.953M125.18 218.175C167.514 238.121 167.397 270.975 145.744 299.605C143.846 302.114 146.43 305.996 149.403 304.967L182.348 293.568" stroke="black" stroke-width="4" stroke-linecap="round"></path></svg>