<svg xmlns="http://www.w3.org/2000/svg" width="531" height="531" viewBox="0 0 531 531" fill="none"><path d="M432.295 391.513C434.895 391.582 435.71 394.894 434.681 397.283C432.474 402.408 434.184 408.626 431.709 414.545C431.335 415.44 430.471 416.007 429.51 416.137C413.164 418.334 393.17 424.061 379.347 432.652C378.41 433.234 377.228 433.283 376.247 432.778C346.837 417.632 320.176 422.473 300.894 436.545C300.291 436.985 299.544 437.207 298.805 437.1C291.187 435.989 290.917 431.476 284.786 429.866C284.449 429.778 284.118 429.642 283.822 429.458C261.036 415.276 235.5 425.095 218.901 437.957C217.294 439.202 214.884 438.627 213.65 437.011C205.663 426.553 183.657 422.419 150.29 422.696C149.001 422.706 147.849 421.895 147.327 420.717C142.884 410.695 130.918 398.887 112.019 394.488C111.052 394.263 110.208 393.594 110.155 392.602C109.89 387.652 114.3 377.846 111.926 370.194C111.155 367.711 112.424 364.05 114.96 363.476C135.346 358.862 136.032 346.111 135.841 328.92C135.826 327.551 136.741 326.349 138.046 325.932C149.112 322.396 155.847 315.922 162.447 305.796C162.864 305.157 163.493 304.69 164.237 304.519C191.058 298.366 233.559 312.093 281.868 306.547C282.18 306.511 282.496 306.523 282.804 306.583C321.887 314.148 368.114 298.275 398.098 309.738C399.077 310.112 399.749 310.997 399.92 312.031C401.469 321.399 404.711 332.612 408.612 339.255C410.096 341.783 411.337 350.018 410.276 352.75C405.908 364.01 409.985 379.422 413.902 386.398C416.982 391.883 425.078 391.321 432.295 391.513Z" fill="#E0E0E0"></path><path d="M135.009 440.847C131.812 450.9 115.433 454.665 98.4262 449.257C74.6278 438.52 63.9611 426.589 73.4219 421.26C83.5657 417.369 95.6854 418.589 106.988 418.938C121.116 425.941 136.296 431.852 135.009 440.847Z" fill="#F8F8F8"></path><path d="M210.85 458.378C208.955 470.057 191.333 476.915 171.49 473.695C143.197 465.674 126.962 447.116 136.618 439.654C147.274 433.676 154.415 447.157 167.065 445.695C186.396 443.461 210.792 448.185 210.85 458.378Z" fill="#F8F8F8"></path><path d="M299.349 458.378C301.244 470.057 318.867 476.915 338.71 473.695C367.002 465.674 383.237 447.116 373.581 439.654C362.925 433.676 355.784 447.157 343.135 445.695C323.803 443.461 299.407 448.185 299.349 458.378Z" fill="#F8F8F8"></path><path d="M213.794 456.634C215.689 468.313 238.821 482.288 258.664 479.069C308.034 479.069 303.192 452.489 293.536 445.027C282.88 439.05 262.207 453.263 249.557 451.801C230.226 449.566 213.852 446.441 213.794 456.634Z" fill="#F8F8F8"></path><path d="M379.576 448.795C381.471 460.475 397.34 467.617 415.02 464.749C440.169 457.238 454.359 439.011 445.6 431.404C435.973 425.259 429.823 438.579 418.492 436.903C401.176 434.342 379.453 438.632 379.576 448.795Z" fill="#F8F8F8"></path><path d="M121 325.962C105.768 312.761 89.8529 312.533 78.2767 322.677C73.9907 326.433 73.5414 332.808 76.423 337.725C82.647 348.344 88.8947 352.84 97.9297 356.734C102.116 358.539 106.667 359.456 111.222 359.283C131.717 358.507 132.573 350.012 131.589 337.494C131.467 335.938 131.121 334.397 130.458 332.983C125.651 322.722 119.256 322.049 107.469 324.512" stroke="black" stroke-width="4" stroke-linecap="round"></path><path d="M141.878 293.386C128.215 289.871 117.919 294.779 113.118 304.36C110.578 309.428 113.074 315.452 117.959 318.33C124.119 321.959 129.079 322.901 134.973 322.758C139.556 322.647 144.083 321.409 148.047 319.107C158.465 313.058 154.378 309.824 150.062 303.591C149.166 302.297 148.176 301.051 146.948 300.067C140.179 294.641 133.645 292.986 126.771 298.461" stroke="black" stroke-width="4" stroke-linecap="round"></path><path d="M85.55 355.241C86.5373 355.736 87.7392 355.337 88.2345 354.35C88.7298 353.362 88.331 352.161 87.3437 351.665L85.55 355.241ZM85.8574 366.058C86.8133 365.504 87.1397 364.281 86.5863 363.325C86.0329 362.369 84.8093 362.042 83.8534 362.596L85.8574 366.058ZM107.488 376.902L109.446 376.494L107.488 376.902ZM102.647 368.057L101.083 369.304L102.647 368.057ZM86.7421 396.654L86.3995 394.684L86.7421 396.654ZM81.0692 358.131L81.2709 360.121L81.0692 358.131ZM87.3437 351.665C77.6452 346.8 67.6872 346.002 59.6241 348.688C51.5219 351.387 45.4002 357.601 43.639 366.46L47.5622 367.24C49.0176 359.919 54.0206 354.77 60.8882 352.483C67.7949 350.182 76.6517 350.776 85.55 355.241L87.3437 351.665ZM46.3753 377.077C51.0859 383.662 54.8481 388.212 58.8684 391.469C62.9442 394.772 67.1898 396.672 72.7433 398.14L73.7656 394.273C68.6021 392.908 64.9125 391.218 61.3867 388.361C57.8055 385.46 54.2998 381.28 49.6285 374.75L46.3753 377.077ZM87.0847 398.624C92.3257 397.713 96.4933 396.683 99.7542 395.45C103.01 394.219 105.482 392.742 107.21 390.867C110.806 386.963 110.597 382.015 109.446 376.494L105.53 377.31C106.65 382.683 106.431 385.809 104.268 388.157C103.116 389.407 101.271 390.6 98.3397 391.709C95.4129 392.815 91.5218 393.793 86.3995 394.684L87.0847 398.624ZM104.211 366.811C103.65 366.108 103.125 365.402 102.591 364.688C102.065 363.984 101.526 363.268 100.974 362.6C99.8849 361.283 98.6068 359.976 96.9613 359.185C93.392 357.467 89.2474 358.618 83.6712 362.715L86.0396 365.938C91.38 362.014 93.7967 362.101 95.2268 362.789C96.0809 363.2 96.912 363.964 97.8907 365.149C98.3727 365.732 98.8574 366.375 99.3882 367.084C99.9105 367.782 100.476 368.542 101.083 369.304L104.211 366.811ZM89.2345 357.128C89.1851 357.112 89.1359 357.096 89.0867 357.08L87.8472 360.883C87.8913 360.897 87.9351 360.911 87.9787 360.926L89.2345 357.128ZM80.8674 356.141C77.2288 356.51 74.5371 357.022 71.7637 358.437L73.5823 362C75.6943 360.922 77.7998 360.473 81.2709 360.121L80.8674 356.141ZM83.8534 362.596C83.4907 362.806 83.1909 362.989 82.9539 363.146C82.7597 363.274 82.4774 363.469 82.2532 363.699C82.1889 363.765 82.0824 363.881 81.9785 364.04C81.8989 364.161 81.6766 364.52 81.6438 365.038C81.5999 365.732 81.9165 366.418 82.5142 366.83C82.959 367.136 83.3964 367.176 83.5453 367.186C83.8822 367.208 84.1618 367.142 84.2472 367.122C84.3815 367.091 84.5082 367.051 84.6137 367.015C85.3724 366.758 86.7204 366.101 87.9842 365.318C88.6314 364.917 89.3052 364.454 89.9033 363.953C90.479 363.472 91.0937 362.867 91.5109 362.165C91.9276 361.464 92.3313 360.32 91.7615 359.107C91.2404 357.998 90.1706 357.438 89.2345 357.128L87.9787 360.926C88.5501 361.115 88.322 361.193 88.1411 360.808C87.9114 360.319 88.1538 359.985 88.0721 360.122C87.9908 360.259 87.77 360.523 87.3374 360.885C86.9272 361.228 86.42 361.582 85.8778 361.918C84.763 362.608 83.6989 363.102 83.3275 363.228C83.2917 363.24 83.2971 363.236 83.3327 363.228C83.3511 363.224 83.3956 363.214 83.4586 363.205C83.5117 363.198 83.6399 363.183 83.809 363.195C83.9324 363.203 84.3507 363.238 84.783 363.535C85.3681 363.938 85.6788 364.612 85.6358 365.29C85.6041 365.793 85.3897 366.132 85.3253 366.23C85.2366 366.366 85.1526 366.455 85.1182 366.49C85.0142 366.597 84.9731 366.606 85.162 366.481C85.3079 366.385 85.533 366.245 85.8574 366.058L83.8534 362.596ZM109.446 376.494C108.648 372.666 106.335 369.477 104.211 366.811L101.083 369.304C103.19 371.948 104.943 374.491 105.53 377.31L109.446 376.494ZM72.7433 398.14C77.4474 399.383 82.3706 399.444 87.0847 398.624L86.3995 394.684C82.1709 395.419 77.837 395.349 73.7656 394.273L72.7433 398.14ZM89.0867 357.08C86.4742 356.228 83.6608 355.858 80.8674 356.141L81.2709 360.121C83.4522 359.9 85.7056 360.185 87.8472 360.883L89.0867 357.08ZM43.639 366.46C42.8615 370.371 44.2865 374.158 46.3753 377.077L49.6285 374.75C47.9334 372.38 47.0715 369.708 47.5622 367.24L43.639 366.46Z" fill="black"></path><path d="M121.724 407.339C116.854 399.574 102.982 397.05 90.1013 399.001C68.4642 402.278 68.9719 430.431 88.7474 439.802C91.716 441.209 94.7798 442.373 97.9082 443.355C107.087 446.237 117.057 446.597 126.231 443.7C145.025 437.763 144.367 427.068 140.415 417.252C135.256 404.439 125.349 401.54 108.676 409.272" stroke="black" stroke-width="4" stroke-linecap="round"></path><path d="M190.593 431.262C168.538 419.728 153.938 425.307 139.865 438.539C134.985 443.127 134.94 451.107 140.421 454.959C146.475 459.213 151.794 460.205 159.745 462.087C172.537 465.116 186.17 468.662 198.426 463.908C200.956 462.927 202.954 461.794 204.551 460.498C215.209 451.852 208.747 430.431 195.19 428.292C190.107 427.491 184.968 430.035 180.537 438.772" stroke="black" stroke-width="4" stroke-linecap="round"></path><path d="M270.386 432.247C271.464 432.487 272.533 431.807 272.772 430.729C273.012 429.651 272.332 428.582 271.254 428.343L270.386 432.247ZM268.821 435.802L267.634 434.192L268.821 435.802ZM296.702 443.463L294.83 444.168L296.702 443.463ZM295.01 440.714L293.543 442.074L295.01 440.714ZM271.254 428.343C259.895 425.818 250.293 425.404 241.564 427.908C232.809 430.418 225.163 435.797 217.595 444.431L220.603 447.068C227.824 438.829 234.851 433.994 242.666 431.753C250.507 429.504 259.371 429.8 270.386 432.247L271.254 428.343ZM218.917 465.458C228.137 472.773 238.334 474.961 253.128 476.293L253.486 472.309C238.86 470.992 229.664 468.878 221.403 462.324L218.917 465.458ZM274.372 474.39C281.428 472.361 286.813 470.315 290.832 468.146C294.849 465.978 297.625 463.622 299.297 460.912C302.707 455.382 301.015 449.237 298.574 442.758L294.83 444.168C297.323 450.785 298.167 455.123 295.892 458.812C294.72 460.711 292.598 462.648 288.933 464.626C285.269 466.603 280.189 468.556 273.267 470.546L274.372 474.39ZM296.477 439.355C292.078 434.608 287.747 431.114 282.961 429.97C278.02 428.789 273.046 430.201 267.634 434.192L270.008 437.411C274.826 433.858 278.606 433.041 282.031 433.86C285.61 434.716 289.259 437.451 293.543 442.074L296.477 439.355ZM266.07 433.146C261.741 432.727 257.339 433.09 253.495 433.895L254.315 437.81C257.82 437.076 261.812 436.753 265.686 437.127L266.07 433.146ZM267.634 434.192C265.239 435.958 264.509 438.701 265.099 441.14C265.681 443.542 267.536 445.675 270.259 446.471L271.381 442.632C270.075 442.25 269.242 441.254 268.987 440.199C268.74 439.18 269.025 438.136 270.008 437.411L267.634 434.192ZM298.574 442.758C298.103 441.508 297.395 440.346 296.477 439.355L293.543 442.074C294.099 442.674 294.536 443.388 294.83 444.168L298.574 442.758ZM253.128 476.293C260.238 476.933 267.464 476.377 274.372 474.39L273.267 470.546C266.88 472.383 260.154 472.909 253.486 472.309L253.128 476.293ZM270.376 446.502C272.492 446.984 274.802 446.88 276.06 445.073C277.225 443.4 276.696 441.323 276.003 439.91C274.52 436.887 270.79 433.602 266.07 433.146L265.686 437.127C268.857 437.434 271.463 439.737 272.411 441.671C272.934 442.736 272.643 442.98 272.777 442.788C273.004 442.462 273.013 443 271.264 442.602L270.376 446.502ZM217.595 444.431C212.236 450.546 212.282 460.194 218.917 465.458L221.403 462.324C216.818 458.687 216.523 451.723 220.603 447.068L217.595 444.431Z" fill="black"></path><path d="M348.63 425.462C323.019 423.588 311.762 428.532 304.036 446.942C301.565 452.831 303.587 459.756 309.032 463.094C320.879 470.357 329.891 469.365 343.567 467.478C346.927 467.014 350.258 466.154 353.4 464.874C378.716 454.557 376.565 451.954 373.873 439.459C373.009 435.45 371.036 431.557 367.403 429.655C358.868 425.187 350.297 426.636 339.689 436.578" stroke="black" stroke-width="4" stroke-linecap="round"></path><path d="M414.353 426.129C400.482 423.552 390.246 427.283 383.134 441.663C380.014 447.969 382.8 455.576 389.087 458.733C400.111 464.27 408.231 464.655 418.606 463.115C423.049 462.456 427.343 460.889 431.158 458.517C450.903 446.241 448.81 439.048 441.055 428.072C440.141 426.779 439.027 425.622 437.697 424.763C426.489 417.523 411.747 417.438 403.238 430.778" stroke="black" stroke-width="4" stroke-linecap="round"></path><path d="M456.401 392.84C452.317 392.222 448.997 392.274 446.309 393.09C427.047 398.939 446.966 434.761 466.564 430.162V430.162C471.843 428.923 476.575 426.489 480.657 422.919C493.296 411.865 493.533 405.797 489.502 396.819C488.318 394.182 486.29 392.007 483.814 390.517C473.065 384.045 464.56 381.018 449.152 389.699" stroke="black" stroke-width="4" stroke-linecap="round"></path><path d="M428.665 347.889C429.729 347.592 430.351 346.49 430.055 345.425C429.759 344.361 428.656 343.739 427.592 344.035L428.665 347.889ZM438.421 352.08L438.3 354.077L438.421 352.08ZM443.312 356.766L445.306 356.607L445.306 356.607L443.312 356.766ZM438.24 358.342L437.156 360.023L438.24 358.342ZM457.559 345.83L456.461 347.502L457.559 345.83ZM454.109 344.14L453.481 346.038L454.109 344.14ZM455.625 383.135L456.501 384.933L455.625 383.135ZM427.592 344.035C419.249 346.359 414.132 349.625 411.778 354.97C409.512 360.114 410.066 366.704 411.518 374.892L415.457 374.193C413.988 365.912 413.723 360.477 415.438 356.582C417.065 352.888 420.729 350.099 428.665 347.889L427.592 344.035ZM424.098 388.311C431.412 389.945 437.086 390.319 442.196 389.644C447.309 388.97 451.722 387.263 456.501 384.933L454.749 381.337C450.15 383.579 446.179 385.084 441.673 385.679C437.164 386.274 431.982 385.974 424.97 384.407L424.098 388.311ZM464.96 379.069C473.503 370.767 476.088 364.094 473.612 358.044C472.445 355.191 470.241 352.767 467.651 350.578C465.054 348.383 461.896 346.285 458.657 344.158L456.461 347.502C459.733 349.651 462.687 351.62 465.069 353.633C467.457 355.651 469.098 357.575 469.91 359.559C471.393 363.182 470.47 368.137 462.172 376.201L464.96 379.069ZM454.737 342.241C451.769 341.259 449.125 340.582 446.794 340.335C444.461 340.089 442.311 340.26 440.424 341.11C436.524 342.868 434.714 347.032 433.817 352.818L437.77 353.43C438.632 347.87 440.16 345.617 442.068 344.757C443.086 344.298 444.457 344.111 446.374 344.313C448.294 344.516 450.63 345.096 453.481 346.038L454.737 342.241ZM445.306 356.607C445.293 356.449 445.277 356.29 445.258 356.129L441.286 356.605C441.3 356.717 441.31 356.824 441.318 356.925L445.306 356.607ZM438.541 350.084C433.595 349.786 429.886 350.564 424.747 353.392L426.676 356.897C431.191 354.411 434.152 353.827 438.3 354.077L438.541 350.084ZM445.258 356.129C444.836 352.613 441.763 350.278 438.541 350.084L438.3 354.077C439.913 354.174 441.131 355.312 441.286 356.605L445.258 356.129ZM437.156 360.023C438.624 360.969 440.499 361.371 442.131 360.976C442.971 360.772 443.841 360.329 444.476 359.526C445.131 358.7 445.391 357.676 445.306 356.607L441.318 356.925C441.335 357.133 441.281 357.118 441.34 357.043C441.38 356.993 441.373 357.044 441.189 357.088C440.772 357.19 440.009 357.103 439.323 356.661L437.156 360.023ZM433.817 352.818C433.366 355.732 434.801 358.505 437.156 360.023L439.323 356.661C438.17 355.917 437.583 354.64 437.77 353.43L433.817 352.818ZM458.657 344.158C457.457 343.371 456.141 342.705 454.737 342.241L453.481 346.038C454.513 346.38 455.516 346.881 456.461 347.502L458.657 344.158ZM456.501 384.933C459.575 383.435 462.47 381.489 464.96 379.069L462.172 376.201C460.024 378.289 457.49 380.001 454.749 381.337L456.501 384.933ZM411.518 374.892C412.675 381.414 417.53 386.843 424.098 388.311L424.97 384.407C420.079 383.314 416.351 379.232 415.457 374.193L411.518 374.892Z" fill="black"></path><path d="M418.29 315.373C405.377 308.709 402.944 317.019 406.55 329.898C407.729 334.111 410.982 337.459 415.17 338.724C422.99 341.086 428.662 340.945 433.59 339.862C440.796 338.279 448.144 334.034 450.404 327.01C452.125 321.658 448.874 318.025 441.42 312.783C440.664 312.252 439.861 311.79 439.006 311.438C427.979 306.897 413.16 307.001 411.765 315.373" stroke="black" stroke-width="4" stroke-linecap="round"></path><path d="M161.401 321.315C173.052 322.361 180.597 323.805 188.616 327.448C191.454 328.738 194.316 329.99 197.296 330.902L211.388 335.213C220.393 337.969 230.01 338.014 239.041 335.344L357.814 300.227C372.564 295.866 390.091 297.503 398.908 310.106C399.013 310.256 399.117 310.407 399.222 310.559C402.937 315.972 404.52 322.525 404.716 329.087C404.816 332.442 404.825 335.355 404.727 337.962C404.338 348.386 397.202 356.972 387.918 361.728C376.704 367.472 367.012 370.588 354.615 374.575L354.465 374.623C350.302 375.961 346.345 377.88 342.706 380.306L323.727 392.959C317.411 397.17 310.187 399.822 302.648 400.699L176.324 415.396C159.442 417.36 145.24 400.542 148.754 383.913C149.275 381.449 149.804 378.929 150.346 376.355C151.25 372.067 148.618 367.82 144.371 366.738C141.465 365.997 139.16 363.729 138.576 360.788C137.862 357.189 137.443 353.684 137.277 349.045C137.054 342.824 139.287 336.741 143.309 331.99C149.332 324.875 154.12 320.79 161.401 321.315Z" fill="white"></path><path d="M371.15 419.421C371.15 419.421 312.086 413.682 288.025 403.231C269.902 382.933 313.639 382.692 337.561 378.584C363.248 374.173 396.521 340.163 411.865 387.634C421.739 418.184 390.573 423.074 371.15 419.421Z" fill="#F8F8F8"></path><path d="M393.359 368.21L393.758 366.25L393.758 366.25L393.359 368.21ZM160.919 323.731L161.236 321.756L160.829 321.691L160.429 321.792L160.919 323.731ZM146.339 364.85L145.553 366.689L145.681 366.744L145.815 366.78L146.339 364.85ZM355.976 416.3L355.548 418.253L355.577 418.26L355.607 418.265L355.976 416.3ZM397.021 386.273C397.264 385.195 396.587 384.125 395.51 383.882C394.432 383.639 393.362 384.316 393.119 385.393L397.021 386.273ZM387.238 399.209L386.175 397.515L387.238 399.209ZM388.331 411.155L389.612 412.691L388.331 411.155ZM373.853 394.376L372.893 392.622L373.853 394.376ZM386.613 412.479L387.769 414.11L386.613 412.479ZM377.94 371.483L378.988 373.187L377.94 371.483ZM368.281 410.198L367.04 411.767L368.281 410.198ZM362.598 417.437L362.903 415.46L362.598 417.437ZM160.429 321.792C147.284 325.117 140.946 335.192 139.12 344.79C138.21 349.573 138.397 354.322 139.448 358.194C140.471 361.958 142.455 365.365 145.553 366.689L147.125 363.011C145.716 362.409 144.216 360.486 143.308 357.145C142.43 353.912 142.243 349.781 143.05 345.538C144.657 337.086 150.116 328.527 161.41 325.67L160.429 321.792ZM355.607 418.265C357.93 418.701 360.158 419.084 362.292 419.413L362.903 415.46C360.815 415.138 358.63 414.763 356.344 414.334L355.607 418.265ZM395.079 366.572C394.646 366.448 394.206 366.341 393.758 366.25L392.961 370.169C393.308 370.24 393.648 370.323 393.982 370.418L395.079 366.572ZM393.555 366.219C386.849 365.559 381.422 366.993 376.892 369.78L378.988 373.187C382.753 370.87 387.303 369.623 393.163 370.2L393.555 366.219ZM387.769 414.11C388.403 413.661 389.018 413.187 389.612 412.691L387.051 409.619C386.534 410.05 386.002 410.46 385.456 410.847L387.769 414.11ZM388.302 400.902C392.468 398.285 395.269 394.047 397.021 386.273L393.119 385.393C391.508 392.539 389.136 395.655 386.175 397.515L388.302 400.902ZM187.833 326.123C179.297 324.687 170.457 323.235 161.236 321.756L160.603 325.706C169.813 327.183 178.644 328.634 187.169 330.068L187.833 326.123ZM145.815 366.78C150.043 367.929 154.175 369.048 158.222 370.14L159.264 366.279C155.22 365.187 151.09 364.068 146.863 362.92L145.815 366.78ZM262.907 397.113C290.92 403.871 319.806 410.431 355.548 418.253L356.403 414.346C320.678 406.527 291.821 399.974 263.845 393.225L262.907 397.113ZM393.758 366.25C388.143 365.107 382.666 363.988 377.31 362.891L376.507 366.809C381.864 367.907 387.343 369.026 392.961 370.169L393.758 366.25ZM372.893 392.622C370.673 393.836 368.809 395.719 369.376 398.195C369.628 399.294 370.32 400.144 371.065 400.761C371.819 401.385 372.75 401.876 373.739 402.247C377.587 403.691 383.677 403.807 388.302 400.902L386.175 397.515C382.805 399.631 378.062 399.597 375.145 398.502C374.443 398.239 373.936 397.945 373.616 397.68C373.286 397.407 373.266 397.262 373.275 397.303C373.358 397.664 372.891 397.182 374.812 396.131L372.893 392.622ZM389.612 412.691C392.358 410.402 393.483 407.449 393.318 404.46C393.158 401.551 391.792 398.752 389.841 396.518C386.004 392.127 379.147 389.2 372.893 392.622L374.812 396.131C378.857 393.918 383.747 395.623 386.829 399.15C388.337 400.876 389.224 402.858 389.324 404.68C389.42 406.423 388.813 408.15 387.051 409.619L389.612 412.691ZM367.04 411.767C372.778 416.308 381.046 418.875 387.769 414.11L385.456 410.847C380.866 414.1 374.658 412.694 369.522 408.63L367.04 411.767ZM376.892 369.78C370.039 373.997 364.403 381.772 361.989 389.716C359.583 397.637 360.237 406.383 367.04 411.767L369.522 408.63C364.555 404.699 363.647 398.02 365.817 390.879C367.979 383.761 373.058 376.836 378.988 373.187L376.892 369.78ZM362.292 419.413C378.172 421.866 394.041 411.03 402.171 398.882C406.254 392.781 408.631 386.003 407.871 380.006C407.486 376.97 406.293 374.147 404.133 371.796C401.982 369.453 398.964 367.68 395.079 366.572L393.982 370.418C397.311 371.368 399.633 372.809 401.188 374.501C402.733 376.185 403.612 378.214 403.903 380.51C404.495 385.177 402.647 390.979 398.846 396.658C391.21 408.068 376.682 417.589 362.903 415.46L362.292 419.413Z" fill="black"></path><path d="M155.755 338.244C164.788 338.244 186.937 343.116 198.617 346.687M167.445 354.662C160.085 352.636 155.604 354.662 150.502 351.148M324.754 396.465C335.037 399.908 340.714 400.485 350.852 401.781" stroke="black" stroke-width="4"></path><path d="M281.015 395.257C281.015 395.257 196.895 420.567 163.094 417.005C128.786 383.356 197.891 377.375 251.052 375.201C280.735 373.986 300.589 353.936 337.801 366.985C368.248 366.985 303.587 392.203 281.015 395.257Z" fill="#F8F8F8"></path><path d="M375.286 298.202C291.406 323.07 244.518 335.431 160.208 365.06C142.349 383.575 157.778 414.347 172.759 414.347C253.441 397.035 288.111 388.567 366.727 366.75C370.438 365.576 373.794 364.449 376.819 363.35C400.619 354.701 405.77 321.51 388.481 303.007C384.588 298.84 380.025 296.797 375.286 298.202ZM375.286 298.202C368.186 301.287 364.318 306.573 362.204 312.966C357.713 326.546 359.613 342.792 368.295 354.158C368.773 354.783 369.267 355.323 369.797 355.799C375.613 361.02 385.357 357.756 388.095 350.435C388.492 349.372 388.838 348.277 389.13 347.168C392.105 335.874 369.873 328.733 370.971 340.361V340.361C371.781 348.933 383.53 344.832 386.738 336.841C390.417 327.676 390.555 317.699 380.157 312.921" stroke="black" stroke-width="4" stroke-linecap="round"></path><path d="M162.415 379.55C189.036 369.767 209.856 364.421 221.559 362.366M180.734 394.532C173.469 396.06 171.793 399.248 164.568 399.248" stroke="black" stroke-width="4"></path><path d="M377.575 211.342C383.818 213.552 389.104 218.385 390.144 224.925C402.174 300.541 380.21 354.527 285.315 368.918C204.977 381.102 108.914 279.247 119.025 217.598C120.333 209.622 127.203 204.173 134.653 201.04C200.475 173.359 141.918 133.879 151.397 95.7626C153.875 85.7988 166.1 84.1859 175.231 88.8809C232.323 118.237 206.41 69.0286 264.872 55.0373C277.34 52.0535 286.441 64.9176 283.712 77.4435C274.629 119.13 301.407 111.997 337.681 110.534C357.838 109.72 363.66 141.17 356.794 160.139C349.41 180.542 352.291 202.392 377.575 211.342Z" fill="#FF0266"></path><path d="M257.768 356.594C216.992 343.064 195.425 331.947 167.878 299.567C154.104 283.377 145.374 252.935 150.238 227.316C155.743 198.319 183.901 198.95 187.451 156.515C189.194 135.468 186.414 121.804 172.71 104.562C216.414 114.501 222.462 132.6 227.321 177.538C237.727 161.066 242.649 152.349 235.869 127.194C232.582 114.997 229.327 101.785 234.981 90.4882C241.499 77.4663 253.449 71.1272 268.401 69.0409C259.701 112.778 264.99 120.962 289.906 156.515C296.189 119.302 327.602 119.544 360.466 121.719C337.375 136.337 327.943 146.6 326.689 160.234C325.37 174.579 333.545 187.78 340.566 200.359C346.682 211.318 351.356 221.086 355.109 231.439C363.474 254.513 365.771 280.296 357.636 303.453C345.986 336.616 318.397 349.901 257.768 356.594ZM257.768 356.594C239.789 296.175 280.049 280.031 304.536 242.382C310.672 232.948 302.88 220.122 291.917 222.666V222.666C268.302 228.146 274.913 260.403 284.34 282.737C287.687 290.665 290.561 299.268 292.054 308.028C293.184 314.653 284.917 316.887 280.48 311.84C247.131 273.904 189.672 259.714 233.846 296.667C241.762 303.289 220.111 262.477 217.143 229.653C215.563 212.185 239.992 198.338 245.386 215.028V215.028C250.718 231.526 217.545 230.293 203.084 239.86C197.744 243.392 194.788 249.536 196.15 256.555" stroke="black" stroke-width="4" stroke-linecap="round"></path></svg>