<svg xmlns="http://www.w3.org/2000/svg" width="531" height="531" viewBox="0 0 531 531" fill="none"><path d="M114.915 397.427C105.971 367.408 124.471 356.82 165.716 346.693C166.208 346.572 166.733 346.487 167.237 346.442C258.914 338.37 284.71 329.047 379.815 347.483C380.492 347.614 381.191 347.825 381.824 348.099C414.16 362.08 422.332 382.908 426.951 405.845C429.124 416.637 423.815 427.668 414.017 432.687C379.017 450.617 358.78 452.219 321.63 433.871C317.826 431.993 313.203 432.594 310.085 435.47C268.8 473.55 262.138 475.327 202.054 463.499C198.67 462.833 195.404 461.583 192.398 459.892C177.127 451.302 163.399 444.899 159.045 435.232C156.022 428.519 150.923 420.224 143.747 418.577C131.896 415.857 122.433 409.145 116.051 399.829C115.551 399.099 115.167 398.274 114.915 397.427Z" fill="#7B1FA2"></path><path d="M269.548 129.757C221.298 128.907 198.915 139.484 173.896 149.455C172.599 149.972 172.24 151.598 173.374 152.413C200.212 171.713 355.013 172.865 369.236 155.514C369.87 154.741 369.428 153.691 368.529 153.255C338.535 138.698 300.49 130.302 269.548 129.757Z" fill="#7B1FA2" stroke="black" stroke-width="4"></path><path d="M172.642 330.957C184.288 314 225.393 317.109 245.255 312.681C269.838 309.516 281.403 302.2 295.701 282.39C297.673 279.659 299.776 277.023 302.098 274.583L338.693 236.138C341.733 232.943 344.707 229.507 345.862 225.25C350.978 206.379 335.286 181.003 359.174 168.076C363.241 165.875 366.895 163.772 370.169 161.79C377.857 157.135 391.422 164.974 390.049 173.855L369.172 308.923C368.564 312.854 368.513 316.85 369.019 320.795C371.429 339.571 361.15 357.981 342.861 362.866C291.067 376.701 231.015 375.255 191.313 365.399C180.993 362.838 173.648 354.161 171.403 343.768C170.46 339.403 170.113 334.638 172.642 330.957Z" fill="#F8F8F8"></path><path d="M145.725 135.685C185.505 179.368 365.108 177.05 390.298 144.923M145.725 135.685C193.175 101.901 356.332 103.712 390.298 144.923M145.725 135.685L172.75 343.804C173.031 345.966 174.998 347.518 177.158 347.219C185.118 346.118 190.245 344.446 194.368 339.537C196.907 336.514 198.902 331.752 198.643 327.813V327.813C197.967 317.531 180.672 328.966 182.14 339.165C182.717 343.172 184.157 347.998 186.344 354.109C186.718 355.155 187.489 355.986 188.52 356.398C230.121 373.002 321.357 374.045 354.882 345.545C356.658 344.035 357.652 341.841 357.872 339.521L358.561 332.291L390.298 144.923" stroke="black" stroke-width="4"></path><path d="M339.873 261.02C330.361 257.678 315.462 252.442 304.769 240.504C284.751 228.707 274.198 220.526 268.07 215.775C260.888 210.208 259.783 209.35 256.642 212.905C248.162 217.674 271.903 236.235 298.086 251.785C300.492 253.213 302.885 254.646 305.246 256.059C320.913 265.435 335.116 273.935 341.655 274.609C353.363 279.968 380.581 287.768 393.711 268.978C412.733 237.798 381.116 208.219 380.594 222.687C378.299 225.285 377.661 227.938 380.02 233.224C383.643 241.344 388.238 251.64 379.918 261.055C373.385 268.448 363.812 266.178 355.289 264.158C351.14 263.174 347.24 262.25 344.062 262.528C342.837 262.062 341.427 261.566 339.873 261.02Z" fill="white"></path><path fill-rule="evenodd" clip-rule="evenodd" d="M240.71 190.219C230.816 189.671 221.387 202.979 230.409 214.799C233.207 218.465 237.758 220.197 242.177 220.082C245.079 220.006 247.568 219.484 250.028 218.267C250.15 218.207 250.27 218.146 250.391 218.083C251.395 219.157 252.501 220.294 253.708 221.504L253.781 221.577L253.862 221.64C271.254 235.098 290.838 249.395 310.005 260.801C329.131 272.184 348.012 280.796 363.965 282.71C379.099 284.526 393.808 275.039 399.387 260.969C402.461 253.218 402.027 245.943 398.552 238.227C395.12 230.607 388.718 222.54 379.89 213.052L377.55 215.229C386.349 224.686 392.435 232.43 395.637 239.539C398.795 246.551 399.138 252.925 396.416 259.791C391.331 272.613 377.934 281.167 364.345 279.537C349.085 277.705 330.681 269.387 311.639 258.055C292.668 246.764 273.233 232.586 255.9 219.175C254.897 218.168 253.98 217.228 253.146 216.346C254.511 215.344 255.896 214.124 257.379 212.668C258.165 211.935 258.862 211.213 259.472 210.5C263.501 213.642 267.336 216.674 271.029 219.592C302.149 244.192 323.135 260.78 364.851 268.127C374.498 269.826 386.052 266.229 389.169 256.132C392.121 246.571 388.326 238.068 378.799 226.5C378.238 225.818 377.23 225.721 376.549 226.282C375.868 226.843 375.77 227.85 376.331 228.532C385.741 239.957 388.555 247.284 386.115 255.189C383.683 263.066 374.284 266.542 365.405 264.979C324.517 257.778 304.14 241.678 273.013 217.083C269.292 214.143 265.417 211.082 261.335 207.9C261.881 206.955 262.274 206.02 262.525 205.09C263.148 202.777 262.698 200.673 261.539 199.005C260.407 197.376 258.662 196.244 256.779 195.639C253.067 194.447 248.203 195.153 245.521 199.065C245.391 199.255 245.258 199.451 245.122 199.652C244.469 200.623 243.722 201.83 243.383 203.241C242.705 206.065 243.385 208.713 245.157 211.578C245.935 212.836 246.942 214.167 248.173 215.61C246.341 216.439 244.438 216.825 242.093 216.886C238.501 216.98 235.013 215.564 232.949 212.86C225.544 203.158 233.428 193.017 240.533 193.411C241.415 193.46 242.169 192.785 242.218 191.904C242.266 191.022 241.592 190.268 240.71 190.219ZM255.154 210.373C253.618 211.881 252.26 213.057 250.979 213.969C249.654 212.449 248.628 211.114 247.875 209.897C246.395 207.503 246.073 205.732 246.492 203.987C246.688 203.171 247.149 202.365 247.774 201.436C247.905 201.242 248.032 201.054 248.157 200.872C249.822 198.444 253.029 197.792 255.801 198.682C257.16 199.119 258.261 199.889 258.914 200.829C259.539 201.729 259.815 202.862 259.438 204.259C258.986 205.939 257.764 207.944 255.186 210.342L255.17 210.357L255.154 210.373Z" fill="black"></path></svg>