<svg xmlns="http://www.w3.org/2000/svg" width="531" height="531" viewBox="0 0 531 531" fill="none"><ellipse cx="266.052" cy="265.5" rx="212.381" ry="120.86" transform="rotate(-15.5929 266.052 265.5)" fill="#FFDE03"></ellipse><path d="M491.859 254.123H220.073C205.843 254.123 191.057 251.877 180.171 242.712C162.885 228.159 158.977 209.306 165.41 189.25C170.548 173.233 185.74 161.342 202.543 162.119C223.487 163.088 234.81 176.758 234.81 195.883" stroke="black" stroke-width="4" stroke-linecap="round"></path><path d="M156.866 260.254L97.6197 260.254C82.8613 260.254 66.5782 258.367 57.5893 246.662C52.0902 239.501 50.1246 231.262 51.1596 222.509C53.1556 205.632 70.6054 190.982 86.4162 197.214C95.1167 200.644 99.7367 208.789 99.7367 219.253" stroke="black" stroke-width="4" stroke-linecap="round"></path><path d="M435.597 323.748L258.181 323.748C250.934 323.748 243.27 325.441 238.98 331.281C228.238 345.903 237.358 364.912 255.829 364.912" stroke="black" stroke-width="4" stroke-linecap="round"></path><path d="M461.206 287.402H177.304C166.712 287.402 155.906 288.665 146.731 293.956C113.215 313.281 104.497 352.427 120.771 382.326C122.764 385.988 125.4 389.286 128.565 392C150.435 410.75 181.403 410.147 196.687 390.673C201.422 384.64 202.481 379.539 204.047 372.031V372.031C208.156 352.322 190.351 330.05 170.22 330.378C160.209 330.542 152.741 335.048 147.67 343.017" stroke="black" stroke-width="4" stroke-linecap="round"></path></svg>