<svg xmlns="http://www.w3.org/2000/svg" width="531" height="531" viewBox="0 0 531 531" fill="none"><g clip-path="url(#clip0_770_8831)"><ellipse cx="265.777" cy="264.678" rx="224.527" ry="143.5" transform="rotate(-9.2958 265.777 264.678)" fill="#69F0AE"></ellipse><path d="M376.636 148.147C350.625 153.231 338.281 157.62 318.277 166.868M392.754 187.52C384.652 192.125 379.466 193.965 367.243 193.822M443.6 227.318C411.588 230.006 397.898 235.263 373.339 244.511M470.551 272.619C461.889 277.244 456.924 279.82 431.077 281.666" stroke="black" stroke-width="4"></path><path d="M162.086 213.358C185.679 218.922 183.708 227.877 180.952 238.896C179.706 243.88 172.788 246.593 168.898 243.238L163.029 238.175C158.98 234.682 161.177 228.037 166.51 227.648L177.54 226.841C180.221 226.645 182.709 228.263 183.621 230.792C189.286 246.494 191.62 253.602 190.988 262.76C190.759 266.078 188.978 269.206 185.955 270.591C178.809 273.866 170.094 272.773 155.293 265.926C138.618 258.213 127.205 240.823 129.962 222.658C131.836 210.304 136.398 202.149 144.468 193.219C144.884 192.758 145.348 192.321 145.833 191.933C159.47 181.01 165.944 181.438 185.274 178.023M185.274 178.023L369.519 126.864C372.405 126.063 375.489 126.275 378.213 127.52C420.252 146.74 425.507 161.878 416.223 200.25C415.144 204.709 411.688 208.205 407.274 209.456L208.387 265.859C205.448 266.692 203.125 262.952 205.001 260.542C227.48 231.66 228.145 198.222 185.274 178.023Z" stroke="black" stroke-width="4"></path><path d="M202.406 303.727C233.288 311.007 230.573 321.952 229.339 336.892C229.097 339.816 225.669 341.515 223.297 339.788L219.528 337.044C216.557 334.881 215.001 331.271 215.469 327.627V327.627C216.17 322.164 218.824 317.14 222.941 313.481L230.752 306.539C231.509 305.866 232.504 305.454 233.516 305.46C256.39 305.607 242.361 338.308 237.604 355.082C236.696 358.284 235.007 361.393 232.015 362.848C223.628 366.926 213.361 365.491 195.045 356.652C178.494 348.665 167.321 331.478 169.435 313.223C171.208 297.913 176.315 288.362 185.872 277.814C186.289 277.354 186.755 276.916 187.239 276.528C202.317 264.444 209.44 264.924 230.778 261.161M230.778 261.161L434.284 204.742C437.168 203.942 440.258 204.159 442.981 205.398C489.967 226.776 495.629 243.483 485.133 286.384C484.042 290.842 480.585 294.346 476.17 295.596L255.188 358.169C252.249 359.001 249.946 355.271 251.848 352.879C277.284 320.89 278.461 283.609 230.778 261.161Z" stroke="black" stroke-width="4" stroke-linecap="round"></path><path d="M162.086 213.358C185.679 218.922 183.708 227.877 180.952 238.896C179.706 243.88 172.788 246.593 168.898 243.238L163.029 238.175C158.98 234.682 161.177 228.037 166.51 227.648L177.54 226.841C180.221 226.645 182.709 228.263 183.621 230.792C189.286 246.494 191.62 253.602 190.988 262.76C190.759 266.078 188.978 269.206 185.955 270.591C178.809 273.866 170.094 272.773 155.293 265.926C138.618 258.213 127.205 240.823 129.962 222.658C131.836 210.304 136.398 202.149 144.468 193.219C144.884 192.758 145.348 192.321 145.833 191.933C159.47 181.01 165.944 181.438 185.274 178.023M185.274 178.023L369.519 126.864C372.405 126.063 375.489 126.275 378.213 127.52C420.252 146.74 425.507 161.878 416.223 200.25C415.144 204.709 411.688 208.205 407.274 209.456L208.387 265.859C205.448 266.692 203.125 262.952 205.001 260.542C227.48 231.66 228.145 198.222 185.274 178.023Z" stroke="black" stroke-width="4" stroke-linecap="round"></path><path d="M90.7856 281.836C111.059 286.617 108.552 296.388 103.896 307.182C102.188 311.141 91.676 311.506 90.0879 307.498V307.498C89.8022 306.776 89.7324 305.985 89.9178 305.232C92.7295 293.808 98.5263 291.832 111.431 292.122C111.903 292.132 112.4 292.205 112.853 292.34C133.881 298.583 122.044 321.075 117.568 335.053C116.554 338.221 114.885 341.358 111.862 342.744C104.715 346.019 96.0007 344.926 81.2002 338.079C64.5247 330.365 53.1121 312.976 55.8684 294.811C57.743 282.457 62.3044 274.302 70.375 265.371C70.7913 264.911 71.2554 264.474 71.74 264.086C85.3766 253.162 91.8507 253.591 111.18 250.175M111.18 250.175L133.328 244.953M111.18 250.175C153.514 270.121 153.397 302.975 131.744 331.605C129.846 334.114 132.43 337.996 135.403 336.967L168.348 325.568" stroke="black" stroke-width="4" stroke-linecap="round"></path></g><defs><clipPath id="clip0_770_8831"><rect width="531" height="531" fill="white"></rect></clipPath></defs></svg>