<svg xmlns="http://www.w3.org/2000/svg" width="531" height="531" viewBox="0 0 531 531" fill="none"><g clip-path="url(#clip0_770_8831)"><ellipse cx="266.154" cy="272.392" rx="228.986" ry="126.178" transform="rotate(-9.2958 266.154 272.392)" fill="#69F0AE"></ellipse><path d="M412.757 206.983C406.215 214.658 370.48 219.134 367.962 219.134C347.571 219.134 374.819 190.742 362.868 184.024C356.438 180.409 340.051 180.73 336.528 172.122C331.708 160.347 210.16 179.218 201.824 169.634C198.301 165.584 366.259 122.134 377.331 122.134C381.862 122.134 410.45 137.901 416.583 159.625C421.087 175.577 415.777 203.438 412.757 206.983Z" fill="#F8F8F8"></path><path d="M482.324 289.634C475.991 298.009 434.262 307.634 431.824 307.634C412.084 307.634 445.324 283.634 426.824 275.134C419.289 271.672 411.503 253.411 408.092 244.018C403.426 231.169 359.496 242.481 351.425 232.023C348.015 227.603 431.858 203.134 442.577 203.134C446.963 203.134 479.029 220.313 484.967 244.018C489.327 261.424 485.249 285.767 482.324 289.634Z" fill="#F8F8F8"></path><path d="M368.96 149.281C342.95 154.365 330.605 158.754 310.601 168.002M385.078 188.654C376.976 193.259 371.79 195.1 359.568 194.957M435.924 228.453C403.913 231.14 390.222 236.398 365.663 245.646M462.875 273.753C454.213 278.379 449.248 280.954 423.402 282.8" stroke="black" stroke-width="4"></path><path d="M154.41 214.492C178.003 220.056 176.032 229.011 173.277 240.031C172.03 245.014 165.112 247.727 161.222 244.372L155.353 239.309C151.304 235.817 153.501 229.172 158.835 228.782L169.864 227.976C172.545 227.78 175.033 229.397 175.946 231.926C181.611 247.629 183.944 254.737 183.312 263.895C183.083 267.212 181.303 270.34 178.279 271.726C171.133 275.001 162.418 273.907 147.617 267.061C130.942 259.347 119.529 241.958 122.286 223.792C124.16 211.438 128.722 203.284 136.792 194.353C137.209 193.892 137.673 193.456 138.157 193.067C151.794 182.144 158.268 182.573 177.598 179.157M177.598 179.157L361.844 127.999C364.73 127.198 367.814 127.409 370.538 128.655C412.577 147.875 417.831 163.013 408.548 201.384C407.469 205.843 404.012 209.339 399.598 210.591L200.711 266.993C197.772 267.827 195.449 264.087 197.325 261.676C219.804 232.794 220.47 199.357 177.598 179.157Z" stroke="black" stroke-width="4"></path><path d="M194.73 304.862C225.612 312.142 222.897 323.087 221.663 338.027C221.421 340.951 217.993 342.649 215.621 340.922L211.852 338.179C208.881 336.016 207.325 332.406 207.793 328.761V328.761C208.495 323.298 211.148 318.274 215.265 314.615L223.076 307.673C223.833 307.001 224.828 306.588 225.84 306.595C248.714 306.741 234.685 339.442 229.928 356.217C229.02 359.418 227.332 362.528 224.339 363.983C215.952 368.061 205.685 366.625 187.369 357.786C170.818 349.799 159.645 332.613 161.759 314.358C163.532 299.047 168.639 289.496 178.196 278.949C178.613 278.489 179.079 278.051 179.564 277.662C194.641 265.579 201.765 266.059 223.102 262.296M223.102 262.296L426.609 205.876C429.492 205.077 432.582 205.294 435.305 206.533C482.291 227.911 487.953 244.617 477.457 287.519C476.367 291.976 472.91 295.48 468.494 296.731L247.513 359.303C244.573 360.135 242.27 356.405 244.172 354.014C269.608 322.025 270.785 284.743 223.102 262.296Z" stroke="black" stroke-width="4" stroke-linecap="round"></path><path d="M154.41 214.492C178.003 220.056 176.032 229.011 173.277 240.031C172.03 245.014 165.112 247.727 161.222 244.372L155.353 239.309C151.304 235.817 153.501 229.172 158.835 228.782L169.864 227.976C172.545 227.78 175.033 229.397 175.946 231.926C181.611 247.629 183.944 254.737 183.312 263.895C183.083 267.212 181.303 270.34 178.279 271.726C171.133 275.001 162.418 273.907 147.617 267.061C130.942 259.347 119.529 241.958 122.286 223.792C124.16 211.438 128.722 203.284 136.792 194.353C137.209 193.892 137.673 193.456 138.157 193.067C151.794 182.144 158.268 182.573 177.598 179.157M177.598 179.157L361.844 127.999C364.73 127.198 367.814 127.409 370.538 128.655C412.577 147.875 417.831 163.013 408.548 201.384C407.469 205.843 404.012 209.339 399.598 210.591L200.711 266.993C197.772 267.827 195.449 264.087 197.325 261.676C219.804 232.794 220.47 199.357 177.598 179.157Z" stroke="black" stroke-width="4" stroke-linecap="round"></path><path d="M83.1098 282.97C103.383 287.752 100.877 297.523 96.2199 308.316C94.5118 312.276 84.0002 312.641 82.4121 308.632V308.632C82.1264 307.911 82.0566 307.119 82.242 306.366C85.0538 294.943 90.8505 292.966 103.755 293.256C104.227 293.267 104.724 293.34 105.177 293.474C126.205 299.717 114.369 322.209 109.892 336.188C108.878 339.355 107.209 342.493 104.186 343.878C97.0397 347.153 88.3249 346.06 73.5244 339.213C56.8489 331.5 45.4363 314.11 48.1926 295.945C50.0672 283.591 54.6287 275.436 62.6992 266.506C63.1156 266.045 63.5796 265.608 64.0642 265.22C77.7008 254.297 84.175 254.725 103.505 251.31M103.505 251.31L125.653 246.087M103.505 251.31C145.839 271.256 145.721 304.11 124.068 332.739C122.171 335.248 124.754 339.13 127.727 338.102L160.672 326.703" stroke="black" stroke-width="4" stroke-linecap="round"></path></g><defs><clipPath id="clip0_770_8831"><rect width="531" height="531" fill="white"></rect></clipPath></defs></svg>