<svg xmlns="http://www.w3.org/2000/svg" width="1080" height="1080" viewBox="0 0 1080 1080" fill="none"><g clip-path="url(#clip0_881_189)"><path d="M374.188 857.929C526.119 951.757 572.206 1085.85 792.069 872.92C979.017 719.512 1069.78 607.466 970.939 488.698C968.12 485.312 964.835 482.182 961.323 479.522C862.039 404.34 738.646 408.898 609.376 524.54C470.15 410.513 253.434 418.702 201.147 537.769C142.498 671.325 222.257 764.102 374.188 857.929Z" fill="#FF0266"></path><path d="M337.775 468.216C439.593 466.539 507.828 477.08 600.935 535.463C611.887 542.331 626.155 540.884 635.76 532.231C699.012 475.251 761.479 459.286 874.386 461.038C904.517 461.506 933.524 474.897 951.234 499.28C985.71 546.745 992.287 580.415 984.322 623.189C981.202 639.943 973.78 655.62 964.248 669.747C863.105 819.643 774.044 874.509 621.286 959.897C614.219 963.847 605.651 964.415 598.131 961.416C419.023 889.989 322.265 834.172 215.87 666.534C208.288 654.588 203.802 640.819 203.679 626.67C203.183 569.818 217.316 535.449 254.293 499.952C276.487 478.646 307.014 468.723 337.775 468.216Z" fill="#FF0266" stroke="black" stroke-width="4"></path><path d="M900.697 573.147C897.914 566.886 895.092 561.393 892.148 556.56C881.629 557.437 875.29 558.335 874.78 575.327C874.691 578.301 875.511 581.263 877.114 583.769C883.997 594.527 889.459 596.436 896.856 591.113C902.408 587.119 903.475 579.397 900.697 573.147Z" fill="#FF0266"></path><path d="M823.907 519.813C864.348 524.851 883.302 534.01 900.697 573.147C903.475 579.397 902.408 587.119 896.856 591.113C889.459 596.436 883.997 594.527 877.114 583.769C875.511 581.263 874.691 578.301 874.78 575.327C875.333 556.875 882.761 557.402 894.951 556.324C901.376 555.756 908.013 557.713 912.131 562.679C944.005 601.119 935.227 622.142 916.335 634.365" stroke="black" stroke-width="4" stroke-linecap="round"></path><path d="M768.034 740.461C870.247 843.45 929.294 881.382 1049.5 954C971.9 1008.97 927.631 1038.96 819.5 1061C751.307 955.033 748.478 962.707 669.702 883.829C667.215 885.429 664.407 887.06 661.25 888.754C657.311 890.866 652.693 891.345 648.351 890.285C614.167 881.942 587.464 875.136 554.722 865.135L551.636 869.918C453.383 1034.39 489.801 983.109 445.923 1052.53C317.4 1058.27 251.531 1055.91 147.124 1040.02C267.995 946.095 314.355 901.419 424.892 790.941L427.192 788.923C388.926 741.113 379.813 697.604 408.32 626.846C413.465 614.077 424.411 604.476 437.76 601.114C479.77 590.535 515.083 590.555 553.969 602.452L558.37 600.196C602.508 574.096 633.978 568.073 677.416 591.976L679.34 592.096C689.539 573.902 702.281 562.868 703.541 563.026C706.012 563.335 756.529 744.359 768.034 740.461Z" fill="white"></path><path d="M1048.5 953.5C928.294 880.882 870.247 843.45 768.034 740.461C756.529 744.359 706.012 563.335 703.542 563.026C701.071 562.717 654.486 605.407 669.412 660.731C571.112 598.503 516.073 581.393 437.761 601.114C424.411 604.476 413.441 614.066 408.417 626.883C371.016 722.299 403.53 779.233 486.011 834.089C545.909 864.344 589.942 876.031 648.354 890.286C652.697 891.346 657.311 890.866 661.25 888.754C679.76 878.825 686.281 871.02 686.394 859.325C686.443 854.227 683.324 849.71 679.04 846.947C663.593 836.984 653.908 833.965 645.91 837.421C637.347 841.122 638.968 853.099 645.59 859.67C745.692 958.995 743.395 944.068 818 1060" stroke="black" stroke-width="4" stroke-linecap="round"></path><path d="M147.124 1040.02C267.996 946.095 314.356 901.419 424.892 790.941" stroke="black" stroke-width="4" stroke-linecap="round"></path><path d="M445.923 1052.53C489.801 983.109 453.383 1034.39 551.636 869.918" stroke="black" stroke-width="4" stroke-linecap="round"></path><path d="M558.371 600.196C602.509 574.096 633.979 568.073 677.417 591.976" stroke="black" stroke-width="4" stroke-linecap="round"></path><path d="M726 322C678.143 384.806 642.952 412.299 572.188 429.313C557.98 432.728 543.103 432.294 528.955 428.64C439.891 405.636 390.782 381.229 320.5 322C315.311 317.65 308.865 308.179 312.616 292.253C313.125 290.092 314.212 288.054 315.978 286.709C324.699 280.067 335.65 286.093 347.709 308.822C351.515 315.998 348.133 324.898 340.216 326.713C296.712 336.686 252.397 305.346 242 351" stroke="black" stroke-width="4" stroke-linecap="round"></path><path d="M544.039 275.012C519.02 287.803 504.238 290.877 478 286.5C546 340.5 595.5 330 621.5 286.5C606.793 289.937 598.232 288.621 585.03 276.415C583.489 274.991 581.225 274.575 579.389 275.59C575.485 277.747 572.546 280.066 568.91 283.351C566.968 285.105 564.021 285.113 562.031 283.413C556.635 278.804 552.959 276.707 548.059 274.778C546.755 274.264 545.287 274.373 544.039 275.012Z" stroke="black" stroke-width="4" stroke-linejoin="round"></path><path d="M385 110C431.351 133.33 452.291 129.547 479 110" stroke="black" stroke-width="4" stroke-linecap="round"></path><path d="M609 102C655.351 125.33 676.291 121.547 703 102" stroke="black" stroke-width="4" stroke-linecap="round"></path><path d="M557.5 126C555.283 152.017 560.866 170.389 581.5 209C568.264 209.839 549.201 213.7 544 223.5" stroke="black" stroke-width="4" stroke-linecap="round" stroke-linejoin="round"></path></g><defs><clipPath id="clip0_881_189"><rect width="1080" height="1080" fill="white"></rect></clipPath></defs></svg>