<svg xmlns="http://www.w3.org/2000/svg" width="1080" height="1080" viewBox="0 0 1080 1080" fill="none"><path d="M685.191 471.133C750.423 504.396 785.791 526.539 835.849 584.464C837.844 586.771 838.883 589.797 838.719 592.842C835.303 656.33 824.423 690.788 767.681 740.171" stroke="black" stroke-width="4" stroke-linecap="round" stroke-linejoin="round"></path><path d="M895.5 673C887.564 703.463 838.41 704.391 773.207 687.406C660 662 661.58 631.956 669.516 601.493C677.451 571.029 714.297 555.515 779.5 572.5C921 595.5 903.435 642.536 895.5 673Z" fill="#69F0AE"></path><path d="M858.959 635.981C835.366 641.545 837.337 650.5 840.093 661.52C841.339 666.503 848.257 669.216 852.147 665.861L858.016 660.798C862.065 657.305 859.868 650.661 854.535 650.271L843.505 649.465C840.824 649.269 838.336 650.886 837.423 653.415C831.758 669.118 829.425 676.226 830.057 685.383C830.286 688.701 832.067 691.829 835.09 693.215C842.236 696.49 850.951 695.396 865.752 688.55C882.427 680.836 893.84 663.447 891.083 645.281C889.209 632.927 884.647 624.773 876.577 615.842C876.16 615.381 875.696 614.944 875.212 614.556C861.575 603.633 855.101 604.061 835.771 600.646M835.771 600.646L651.525 549.488C648.639 548.686 645.556 548.898 642.832 550.143C600.793 569.364 595.538 584.502 604.822 622.873C605.901 627.332 609.357 630.828 613.771 632.08L812.658 688.482C815.597 689.315 817.92 685.576 816.044 683.165C793.565 654.283 792.899 620.846 835.771 600.646Z" stroke="black" stroke-width="4" stroke-linecap="round"></path><path d="M661.652 331.456C702.661 371.413 739.449 423.349 745.057 494.5C750.665 565.652 728.066 672.636 687.057 717.5C646.399 762.715 563.863 777.253 488.505 775.5C413.498 774.098 328.029 735.715 277.557 690.5C227.085 645.285 214.414 576.105 217.218 505.304C220.022 434.503 254.085 355.457 304.557 315.5C355.029 275.543 421.56 275.376 488.505 276.427C555.1 277.479 620.644 291.499 661.652 331.456Z" fill="#FFDE03"></path><path d="M459.057 589C496.557 647.5 601.557 672.5 632.557 608" stroke="black" stroke-width="4" stroke-linecap="round"></path><path d="M499.557 438C518.706 453.959 520.756 466.197 518.637 484.368C517.856 491.068 512.656 496.696 505.918 496.989C499.926 497.25 496.01 496.126 493.12 493.369C489.183 489.613 490.363 483.105 494.801 479.956C505.724 472.205 523.972 468.56 535.557 470" stroke="black" stroke-width="4" stroke-linecap="round"></path><path d="M601.057 449C620.206 464.959 622.256 477.197 620.137 495.368C619.356 502.068 614.156 507.696 607.418 507.989C601.426 508.25 597.51 507.126 594.62 504.369C590.683 500.613 591.863 494.105 596.301 490.956C607.224 483.205 625.472 479.56 637.057 481" stroke="black" stroke-width="4" stroke-linecap="round"></path><path d="M351.057 293C253.566 378.112 212.337 429.905 240.057 553C265.194 725.88 352.402 724.062 490.057 745C675.827 747.393 704.168 686.195 725.557 553C721.269 450.946 712.206 411.95 680.557 364.5" stroke="black" stroke-width="4"></path><path d="M677.296 211.777C683.661 213.476 689.016 218.238 690.463 224.666C709.946 311.227 722.729 383.153 543.144 383.153C397.909 383.153 282.568 321.852 327.429 211.432C330.509 203.852 337.313 198.501 345.047 195.832C438.591 163.554 351.468 116.481 371.659 71.7069C375.458 63.2841 386.288 62.0497 394.64 66.0014C478.595 105.723 437.006 43.8124 523.092 29.6229C536.074 27.4832 545.181 40.8529 541.706 53.5421C527.423 105.69 567.074 93.7238 618.693 92.9047C639.847 92.569 647.139 129.172 641.04 149.43C633.473 174.569 640.561 201.969 677.296 211.777Z" fill="#FF0266"></path><path d="M507.504 369.319C454.751 354.131 411.696 349.848 376.057 313.5C358.238 295.326 362.096 252.957 368.388 224.199C375.51 191.649 411.939 192.358 416.532 144.723C418.787 121.097 415.191 105.758 397.462 86.4039C454.003 97.5606 461.826 117.877 468.114 168.322C481.555 149.861 487.924 140.077 479.213 111.941C474.945 98.1539 470.854 82.9035 478.123 70.4346C486.576 55.9324 501.991 48.8628 521.259 46.53C510.004 95.6265 516.846 104.814 549.082 144.723C557.21 102.95 597.85 103.222 640.367 105.663C610.051 122.316 597.932 133.933 596.603 149.581C595.268 165.294 604.929 179.532 614.517 192.053C627.015 208.376 639.61 224.061 649.379 240.351C663.896 264.559 668.419 295.987 653.403 319.888C632.426 353.278 585.068 361.889 507.504 369.319ZM507.504 369.319C485.62 305.509 553.016 295.09 593.18 261.268C606.819 249.782 595.18 230.208 577.387 229.044V229.044C535.885 226.327 538.693 267.377 550.07 307.381C551.151 311.181 552.003 315.031 552.557 318.895C553.52 325.61 545.266 327.902 540.64 322.941C498.269 277.491 417.71 259.337 476.555 302.049C486.568 309.317 460.01 265.676 455.236 229.288C452.4 207.675 484.622 190.04 491.588 210.696V210.696C498.396 230.884 458.899 231.832 438.742 238.733C424.747 243.525 414.265 254.363 416.532 264.5" stroke="black" stroke-width="4" stroke-linecap="round"></path><path d="M392.557 732C427.503 798.763 434.394 834.139 439.057 896C388.387 954.36 306.557 993.5 286.557 998.5C274.063 994.67 271.597 989.933 275.057 977C316.48 978.254 329.057 1032 392.557 1021.5" stroke="black" stroke-width="4" stroke-linecap="round"></path><path d="M620.057 728.5C677.934 776.758 676.698 787.119 704.726 842.462C680.31 915.791 619.745 983.319 603.192 995.606C590.185 996.86 586.09 993.431 584.326 980.16C623.063 965.434 635.938 1014.21 690.557 980.16" stroke="black" stroke-width="4" stroke-linecap="round"></path><path d="M262.403 777.76C272.329 790.33 233.687 845.823 217 859C200.312 872.177 137.5 841 165.5 819.5C155.574 806.93 194.812 795.677 211.5 782.5C227 766 252.478 765.19 262.403 777.76Z" fill="#7B1FA2"></path><path d="M193.057 721.003C206.359 763.869 233.659 773.371 269.557 776.503M193.057 721.003C236.557 712.503 281.291 731.064 269.557 776.503M193.057 721.003L162.057 815.503C166.724 834.269 176.9 845.143 188.751 851.295C196.897 855.524 207.903 851.918 209.916 842.962C210.307 841.222 210.443 839.475 210.319 837.611C210.114 834.534 208.603 831.707 206.607 829.357C201.439 823.274 200.26 824.176 197.585 829.751C194.911 835.324 195.616 842.282 200.536 846.023V846.023C206.459 850.526 214.937 848.545 219.432 842.616L269.557 776.503" stroke="black" stroke-width="4"></path><path d="M299 768C308.501 789.001 313.422 804.818 303.499 817.5C294.5 824.5 293 817.5 279.219 797.148C262.22 758.501 226.196 771.94 248.999 762C268.499 753.5 276.166 750.134 299 768Z" fill="#7B1FA2"></path><path d="M328.898 789.385C331.892 792.913 330.871 797.382 328.049 799.777C325.227 802.173 322.184 801.154 319.189 797.627C317.792 795.98 317.298 792.711 316.64 788.725C316.406 787.306 317.703 785.989 319.136 786.12C322.477 786.425 326.666 786.756 328.898 789.385Z" fill="#7B1FA2"></path><path d="M330 821C332.998 824.524 332.82 833.102 330 835.5C327.181 837.899 318.08 834.524 315.081 831C313.662 829.331 315.229 824.44 315.304 819.809C315.328 818.371 316.661 817.053 318.089 817.221C322.062 817.69 327.698 818.294 330 821Z" fill="#7B1FA2"></path><path d="M314.557 528C245.342 551.896 207.245 568.921 149.638 619.344C147.343 621.353 145.895 624.206 145.635 627.244C140.214 690.592 146.21 726.226 195.557 783" stroke="black" stroke-width="4" stroke-linecap="round" stroke-linejoin="round"></path></svg>