<svg xmlns="http://www.w3.org/2000/svg" width="1080" height="1080" viewBox="0 0 1080 1080" fill="none"><g clip-path="url(#clip0_881_171)"><path d="M643 938.999C638.241 959.439 517.499 991 436.499 904C339.499 892.5 179.24 876.439 183.999 855.999C150 830.499 343.999 828 436.499 855.999C526.328 876.915 647.759 918.559 643 938.999Z" fill="#F8F8F8"></path><path d="M709 924.5C717 926.5 722.5 950.5 699.5 950.5C677.438 950.5 616.271 948.199 632.06 981.109C633.401 983.903 636.405 985.541 639.499 985.353C646.251 984.942 651.827 983.681 656.351 981.711C686.345 968.646 652.117 929.507 621.872 917.035C458.438 849.639 291.092 796.183 86.5 870C72.8593 877.199 72.3425 886.664 78.614 898.248C82.52 905.463 94.3767 907.96 95.5011 899.833C95.6454 898.79 95.6531 897.697 95.5569 896.541C94.9672 889.453 88.285 884.346 81.173 884.447C59.4836 884.756 49.3574 893.642 45.5 912.5" stroke="black" stroke-width="4" stroke-linecap="round"></path><path d="M679.982 358.956C839.76 524.96 654.294 645.7 402.634 608.102C257.863 608.102 27.1486 526.178 135.557 369.099C224.074 240.841 326.828 173.593 403.413 124.68C433.751 105.304 472.317 95.5098 502.428 115.236C578.701 165.204 603.825 279.83 679.982 358.956Z" fill="#69F0AE"></path><path d="M315.825 835C358.337 773.348 379.712 731.605 372.56 524.78C367.448 398.704 372.56 246.395 420.566 227.429V227.429C457.962 212.655 472.72 305.004 436.843 323.156C356.46 363.827 278.238 416.916 229.509 481.816C227.826 484.058 229.591 487.192 232.395 487.141C410.501 483.922 464.4 503.287 566.33 574.903" stroke="black" stroke-width="4" stroke-linecap="round" stroke-linejoin="round"></path><path d="M793.5 682C851 707 811.257 731.21 781.695 751.645C752.133 772.081 688 763 673 727.5C677.999 712 677.438 692.935 707 672.5C736.561 652.064 763.5 668.957 793.5 682Z" fill="#F8F8F8"></path><path d="M958.191 986C932.694 962.576 914.806 932.713 843.615 907.832C834.996 904.82 826.733 900.715 819.191 895.568C756.966 853.093 726.129 851.452 698 810C679.106 771.686 648.726 736.483 693.072 683.64C710.451 662.931 740.217 658.743 764.929 669.707C799.718 685.141 839.266 707.059 869.68 737.326C854.11 705.452 840.069 670.733 847.936 649.762C850.491 642.951 859.186 643.637 864.011 649.081C894.148 683.091 918.628 698.416 953.576 771.464C977.53 803.187 994.49 813.887 1029 824.219" stroke="black" stroke-width="4" stroke-linecap="round"></path><path d="M822.72 378.573C824.384 378.924 825.428 380.593 824.996 382.238C815.968 416.625 803.772 435.388 778.718 447.407C758.988 456.873 730.151 453.478 710.306 449.2C698.931 435.058 704.733 416.093 720.132 395.102C728.113 384.222 739.742 376.297 752.984 373.703C776.371 369.123 795.379 372.808 822.72 378.573Z" fill="#55CA91"></path><path d="M830.321 546.06C830.321 608.927 778.718 656.855 711.937 632.571C648.192 650.784 589 601.815 589 538.948C589 476.081 631.497 397.321 711.937 441.335C812.108 391.25 830.321 483.193 830.321 546.06Z" fill="#FF0266"></path><path d="M672.476 398.838C705.88 404.859 708.816 418.74 710.419 445.888M710.419 445.888C761.061 440.603 782.385 429.457 804.573 393.645C805.295 392.48 804.614 390.94 803.272 390.662C745.968 378.78 726.824 393.547 710.419 445.888ZM710.419 445.888C575.345 400.356 572.309 646.23 710.419 614.357C729.102 611.194 724.358 612.506 736.016 602.023C737.975 600.261 738.88 597.552 738.199 595.007C734.334 580.584 731.128 579.157 717.584 587.847C716.864 588.309 716.218 588.926 715.73 589.627C703.301 607.487 715.425 608.507 732.767 621.628C733.038 621.833 733.369 621.974 733.707 622.018C806.318 631.528 864.86 414.091 710.419 445.888Z" stroke="black" stroke-width="4" stroke-linecap="round"></path></g><defs><clipPath id="clip0_881_171"><rect width="1080" height="1080" fill="white"></rect></clipPath></defs></svg>