<svg xmlns="http://www.w3.org/2000/svg" width="1080" height="1080" viewBox="0 0 1080 1080" fill="none"><g clip-path="url(#clip0_881_180)"><path d="M243.778 232.733L468.643 582.184L98.2432 655.9L243.778 232.733Z" fill="#7B1FA2"></path><path d="M253.915 470.666C264.891 525.817 204.399 583.356 149.248 594.332C94.0967 605.308 65.1718 565.564 54.1958 510.413C43.2199 455.262 101.087 384.534 156.238 373.558C211.389 362.582 242.939 415.515 253.915 470.666Z" fill="#69F0AE"></path><path d="M279.301 519.48L341.478 507.106L470.023 631.369L341.901 656.867L279.301 519.48Z" fill="#FF0266"></path><path d="M53.2808 481.213C53.2808 481.213 37.4112 493.186 37.6218 505.876C37.8324 518.566 70.9651 506.096 125.577 524.609C165.241 538.054 213.764 564.189 193.332 589.476C172.901 614.762 162.8 563.003 187.605 531.172C212.411 499.342 246.304 487.708 264.442 494.035C304.32 507.944 316.163 581.68 278.443 628.362C247.474 666.69 195.207 598.896 416.842 492.107C476.395 466.543 388.991 460.433 388.991 460.433" stroke="black" stroke-width="4"></path><path d="M613.318 58.7314L826.386 127.979L744.082 499.399L531.014 430.152L613.318 58.7314Z" fill="#FF0266"></path><path d="M580.651 348.341C569.324 383.196 526.096 400.386 491.241 389.058C456.387 377.731 422.261 335.4 433.589 300.546C444.917 265.691 497.408 251.512 532.263 262.839C567.117 274.167 591.979 313.487 580.651 348.341Z" fill="#FFDE03"></path><path d="M885.848 354.711C873.792 391.803 833.95 412.1 796.857 400.045C759.764 387.99 739.467 348.147 751.523 311.055C763.578 273.962 800.41 262.929 837.502 274.984C874.595 287.039 897.903 317.618 885.848 354.711Z" fill="#E9E9E9"></path><path d="M745.519 400.003L769.245 551.107L632.859 506.781L745.519 400.003Z" fill="#7B1FA2"></path><path d="M583.616 205.273C516.028 195.256 457.86 225.856 445.44 264.069C421.484 337.78 516.511 395.991 564.943 384.846C613.375 373.701 778.511 268.615 757.862 232.457C737.213 196.299 682.044 237.262 668.495 278.949C657.049 314.168 662.589 364.089 709.921 360.268C723.141 359.201 743.718 353.933 765.643 346.39M765.643 346.39C822.221 326.924 852.491 287.952 830.959 275.418C809.427 262.884 760.658 298.699 765.643 346.39ZM765.643 346.39C792.249 368.26 882.662 443.295 759.743 431.513" stroke="black" stroke-width="4"></path><path d="M365.077 927.538L366.967 926.884L365.077 927.538ZM682.616 966.923L683.074 968.87L682.616 966.923ZM851.605 637.731C850.607 638.204 850.181 639.396 850.654 640.395C851.127 641.393 852.32 641.819 853.318 641.346L851.605 637.731ZM480.968 824.625C472.282 823.757 459.479 826.597 445.635 831.934C431.714 837.3 416.468 845.296 402.81 855.017C389.167 864.726 377 876.232 369.358 888.66C361.701 901.113 358.501 914.656 363.187 928.193L366.967 926.884C362.791 914.821 365.52 902.538 372.765 890.755C380.026 878.947 391.735 867.808 405.129 858.276C418.507 848.755 433.456 840.915 447.073 835.666C460.768 830.387 472.847 827.833 480.57 828.605L480.968 824.625ZM363.187 928.193C368.996 944.973 384.536 957.558 405.953 966.607C427.408 975.673 455.097 981.34 485.822 984.083C547.286 989.569 621.348 983.394 683.074 968.87L682.158 964.976C620.807 979.412 547.176 985.544 486.178 980.098C455.673 977.375 428.438 971.766 407.509 962.922C386.541 954.062 372.236 942.104 366.967 926.884L363.187 928.193ZM1007.08 693.692C1007.08 662.239 991.925 636.835 964.637 625.093C937.456 613.396 898.669 615.438 851.605 637.731L853.318 641.346C899.793 619.331 937.314 617.69 963.056 628.767C988.691 639.798 1003.08 663.625 1003.08 693.692H1007.08ZM918.475 831.123C945.242 804.974 967.344 778.354 982.77 754.468C998.136 730.674 1007.08 709.291 1007.08 693.692H1003.08C1003.08 708.068 994.702 728.618 979.41 752.298C964.177 775.884 942.279 802.277 915.68 828.262L918.475 831.123ZM683.074 968.87C738.281 955.88 792.086 928.797 839.446 896.048L837.17 892.758C790.1 925.308 736.752 952.131 682.158 964.976L683.074 968.87Z" fill="black"></path><rect x="392.156" y="856.154" width="151.385" height="160" fill="#7B1FA2"></rect><circle cx="692.459" cy="802" r="224" fill="#FFDE03"></circle><path d="M915.847 578L1038.96 791.231H792.738L915.847 578Z" fill="#69F0AE"></path><path d="M365.076 927.538C387.23 991.538 559.538 995.882 682.615 966.923C729.384 956.256 815.538 911.292 815.538 885.692C815.538 853.692 775.801 862.307 771.23 894.307C768.768 911.538 746.615 1003.85 800.768 991.538C854.922 979.231 916.461 821.692 889.384 836.461C862.307 851.231 845.076 947.231 879.538 937.384C907.107 929.507 941.692 853.692 917.076 826" stroke="black" stroke-width="4"></path></g><defs><clipPath id="clip0_881_180"><rect width="1080" height="1080" fill="white"></rect></clipPath></defs></svg>