<svg xmlns="http://www.w3.org/2000/svg" width="826" height="786" viewBox="0 0 826 786" fill="none"><path d="M709.429 613.31C712.022 613.516 712.74 616.798 711.1 618.817C702.772 629.077 708.508 642.861 702.436 655.726C702.023 656.602 701.172 657.172 700.211 657.296C670.021 661.197 632.583 671.876 607.272 688.017C606.342 688.61 605.157 688.654 604.18 688.141C550.242 659.815 501.345 668.811 466.231 694.824C465.631 695.268 464.882 695.484 464.141 695.395C449.315 693.608 449.226 684.99 437.52 682.121C437.182 682.039 436.845 681.9 436.55 681.715C394.155 655.046 346.407 674.625 316.495 698.873C314.915 700.153 312.525 699.585 311.476 697.844C298.774 676.775 257.595 668.619 193.594 669.307C192.306 669.321 191.142 668.514 190.66 667.319C183.15 648.703 160.881 626.056 125.055 618.129C124.085 617.915 123.239 617.257 123.072 616.279C121.462 606.858 132.902 584.49 123.925 569.648C122.579 567.423 123.728 563.973 126.289 563.529C169.058 556.113 169.665 531.668 169.245 498.272C169.228 496.902 170.142 495.693 171.455 495.303C192.783 488.97 205.352 476.902 217.774 457.634C218.187 456.992 218.818 456.525 219.56 456.346C267.953 444.695 345.191 469.926 433.044 459.742C433.356 459.706 433.672 459.718 433.98 459.778C505.106 473.706 589.44 444.377 643.577 466.035C644.55 466.424 645.222 467.301 645.385 468.336C648.62 488.896 656.553 514.959 665.711 524.981C667.688 527.145 669.29 533.853 667.711 536.322C654.672 556.702 662.927 589.759 670.822 603.819C677.168 615.12 695.321 612.189 709.429 613.31Z" fill="#E0E0E0"></path><path d="M167.767 702.031C162 720.165 132.457 726.956 101.781 717.2C58.8542 697.833 39.614 676.314 56.6791 666.701C74.976 659.682 96.8369 661.883 117.224 662.512C142.707 675.144 170.089 685.806 167.767 702.031Z" fill="#F8F8F8"></path><path d="M304.566 733.652C301.147 754.719 269.361 767.089 233.569 761.282C182.535 746.814 153.252 713.339 170.669 699.879C189.889 689.097 202.77 713.413 225.587 710.776C260.456 706.745 304.461 715.266 304.566 733.652Z" fill="#F8F8F8"></path><path d="M464.196 733.652C467.614 754.719 499.401 767.089 535.193 761.282C586.227 746.814 615.51 713.339 598.093 699.879C578.873 689.097 565.992 713.413 543.175 710.776C508.306 706.745 464.301 715.266 464.196 733.652Z" fill="#F8F8F8"></path><path d="M309.873 730.507C313.291 751.574 355.016 776.781 390.808 770.974C479.859 770.974 471.125 723.031 453.707 709.571C434.487 698.789 397.198 724.427 374.381 721.79C339.511 717.759 309.978 712.121 309.873 730.507Z" fill="#F8F8F8"></path><path d="M608.903 716.368C612.321 737.435 640.944 750.318 672.834 745.144C718.197 731.596 743.792 698.72 727.993 684.998C710.629 673.914 699.536 697.941 679.097 694.917C647.863 690.297 608.679 698.036 608.903 716.368Z" fill="#F8F8F8"></path><path d="M142.498 494.807C112.634 468.925 81.3163 470.689 60.1737 494.073C56.3518 498.3 55.8865 504.508 58.5229 509.56C72.1306 535.637 85.032 544.085 105.994 552.422C110.23 554.107 114.785 555.022 119.344 555.015C162.791 554.948 163.523 538.421 161.444 513.717C161.313 512.161 160.958 510.624 160.335 509.193C151.573 489.041 139.992 487.615 118.091 492.191" stroke="black" stroke-width="4" stroke-linecap="round"></path><path d="M180.155 436.048C152.454 428.921 132.424 440.991 125.521 462.649C123.8 468.05 126.186 473.817 130.837 477.059C147.014 488.332 158.014 489.87 173.255 488.743C177.827 488.405 182.313 487.179 186.395 485.093C212.277 471.87 202.577 466.09 193.847 452.873C192.98 451.56 191.977 450.324 190.774 449.309C178.037 438.57 165.803 434.929 152.906 445.2" stroke="black" stroke-width="4" stroke-linecap="round"></path><path d="M79.2746 546.181C80.2619 546.676 81.4638 546.277 81.9591 545.29C82.4544 544.303 82.0556 543.101 81.0683 542.605L79.2746 546.181ZM77.3008 564.007L78.3028 565.738L78.3972 565.683L78.4851 565.619L77.3008 564.007ZM79.1091 567.421L78.8125 569.399L79.1091 567.421ZM117.195 582.584L119.139 582.115L117.195 582.584ZM112.118 573.93L110.65 575.288L112.118 573.93ZM75.2682 623.206L75.5725 625.183L75.2682 623.206ZM81.2371 553.56L80.65 555.472L81.2371 553.56ZM73.1584 552.58L73.3327 554.572L73.1584 552.58ZM8.50406 581.631L6.86783 582.781L8.50406 581.631ZM81.0683 542.605C63.1407 533.612 44.8298 532.528 30.4547 537.979C16.0251 543.452 5.67628 555.489 3.90684 572.312L7.88489 572.73C9.4864 557.504 18.7635 546.691 31.8731 541.719C45.037 536.727 62.1785 537.604 79.2746 546.181L81.0683 542.605ZM6.86783 582.781C16.867 597.007 24.304 606.18 32.3602 612.448C40.4848 618.77 49.1125 622.043 61.2901 624.757L62.16 620.852C50.2832 618.206 42.2927 615.109 34.8166 609.292C27.2721 603.421 20.1258 594.687 10.1403 580.481L6.86783 582.781ZM75.5725 625.183C86.9106 623.438 95.6695 621.473 102.331 619.109C108.983 616.75 113.703 613.938 116.793 610.397C123.092 603.178 121.949 593.742 119.139 582.115L115.251 583.054C118.107 594.873 118.573 602.273 113.779 607.767C111.322 610.582 107.32 613.095 100.993 615.34C94.6755 617.581 86.1988 619.5 74.964 621.229L75.5725 625.183ZM113.586 572.571C111.047 569.828 109.01 566.925 106.889 564.141C104.831 561.437 102.659 558.799 99.9993 557.063C97.2265 555.253 94.0021 554.469 90.0174 555.278C86.1446 556.065 81.638 558.338 76.1166 562.395L78.4851 565.619C83.8097 561.706 87.7656 559.817 90.8138 559.198C93.7502 558.601 95.9055 559.167 97.8129 560.412C99.8335 561.731 101.642 563.853 103.707 566.564C105.71 569.194 107.939 572.359 110.65 575.288L113.586 572.571ZM76.2988 562.276C75.5721 562.697 74.8468 563.163 74.3114 563.67C73.903 564.056 72.8832 565.149 73.3503 566.64C73.5647 567.324 74.0196 567.776 74.3998 568.053C74.7804 568.331 75.2109 568.528 75.6191 568.677C76.4353 568.974 77.5118 569.204 78.8125 569.399L79.4056 565.443C78.186 565.26 77.4245 565.077 76.9891 564.919C76.7715 564.839 76.7229 564.797 76.7591 564.823C76.7948 564.849 77.04 565.037 77.1674 565.444C77.3081 565.893 77.2029 566.275 77.1105 566.468C77.0364 566.622 76.9745 566.657 77.0619 566.574C77.1371 566.503 77.2726 566.392 77.4933 566.241C77.7096 566.093 77.9781 565.926 78.3028 565.738L76.2988 562.276ZM91.8459 556.243C90.5037 554.99 88.7987 554.109 87.097 553.42C85.3909 552.729 83.5257 552.171 81.8241 551.648L80.65 555.472C82.4122 556.013 84.087 556.517 85.5959 557.128C87.1093 557.74 88.2945 558.4 89.1162 559.167L91.8459 556.243ZM72.9841 550.587C65.0135 551.285 59.783 552.077 54.4175 554.816L56.236 558.379C60.86 556.018 65.4144 555.265 73.3327 554.572L72.9841 550.587ZM78.8125 569.399C82.8727 570.007 87.5332 568.605 90.5351 566.357C92.0359 565.234 93.374 563.709 93.8035 561.847C94.2721 559.815 93.5594 557.843 91.8459 556.243L89.1162 559.167C89.9761 559.97 89.999 560.544 89.9059 560.948C89.7737 561.521 89.2527 562.321 88.1376 563.156C85.9077 564.825 82.3088 565.878 79.4056 565.443L78.8125 569.399ZM119.139 582.115C118.228 578.346 116.005 575.185 113.586 572.571L110.65 575.288C112.843 577.657 114.566 580.223 115.251 583.054L119.139 582.115ZM61.2901 624.757C65.9768 625.801 70.8557 625.909 75.5725 625.183L74.964 621.229C70.7095 621.884 66.3331 621.782 62.16 620.852L61.2901 624.757ZM81.8241 551.648C79.0286 550.79 76.022 550.321 72.9841 550.587L73.3327 554.572C75.7401 554.361 78.2203 554.726 80.65 555.472L81.8241 551.648ZM3.90684 572.312C3.50573 576.125 4.78288 579.815 6.86783 582.781L10.1403 580.481C8.48541 578.127 7.60573 575.384 7.88489 572.73L3.90684 572.312Z" fill="black"></path><path d="M143.805 641.591C131.521 622.005 87.4892 620.905 60.9942 634.509C41.5264 644.504 45.1581 671.121 61.678 685.474C76.5367 698.383 93.9189 705.273 112.096 709.653C121.448 711.907 131.235 712.157 140.639 710.131C186.013 700.356 185.363 678.953 177.519 659.472C168.214 636.36 150.343 631.13 120.269 645.078" stroke="black" stroke-width="4" stroke-linecap="round"></path><path d="M268.029 684.741C224.714 662.09 197.34 676.032 169.778 704.542C165.122 709.358 165.16 717.076 170.142 721.554C188.292 737.868 200.161 736.355 227.923 744.374C240.553 748.022 253.809 750.395 266.713 747.88C290.288 743.284 298.618 735.392 302.659 723.282C307.002 710.263 302.576 695.282 291.737 686.862C278.205 676.349 262.468 673.49 249.891 698.289" stroke="black" stroke-width="4" stroke-linecap="round"></path><path d="M412.301 684.95C413.379 685.19 414.448 684.51 414.687 683.432C414.927 682.353 414.247 681.285 413.169 681.045L412.301 684.95ZM459.39 706.671L461.261 705.965L459.39 706.671ZM456.425 701.854L457.893 700.496L456.425 701.854ZM389.503 763.062L389.654 761.067L389.503 763.062ZM314.111 737.121L312.699 738.537L314.111 737.121ZM413.169 681.045C391.243 676.173 373.183 675.74 356.871 681.351C340.552 686.965 326.256 698.535 311.669 717.133L314.816 719.602C329.128 701.354 342.839 690.408 358.172 685.134C373.513 679.856 390.75 680.161 412.301 684.95L413.169 681.045ZM312.699 738.537C332.609 758.386 353.555 762.337 389.351 765.056L389.654 761.067C353.966 758.357 334.334 754.458 315.523 735.704L312.699 738.537ZM410.605 763.207C425.297 759.365 436.419 755.555 444.682 751.582C452.933 747.614 458.477 743.415 461.839 738.719C468.698 729.14 465.925 718.327 461.261 705.965L457.519 707.377C462.235 719.879 464.085 728.712 458.587 736.391C455.771 740.323 450.892 744.157 442.948 747.977C435.015 751.792 424.169 755.525 409.593 759.337L410.605 763.207ZM457.893 700.496C449.992 691.959 442.447 685.943 434.29 683.982C425.978 681.985 417.477 684.289 407.942 691.321L410.317 694.54C419.257 687.947 426.561 686.238 433.356 687.871C440.306 689.542 447.171 694.8 454.957 703.212L457.893 700.496ZM404.013 689.74C396.387 689.003 388.612 689.641 381.814 691.065L382.635 694.98C389.093 693.627 396.459 693.029 403.628 693.722L404.013 689.74ZM407.942 691.321C404.19 694.089 403.052 698.353 403.978 702.181C404.896 705.973 407.832 709.363 412.173 710.633L413.296 706.794C410.371 705.939 408.458 703.685 407.866 701.24C407.283 698.832 407.976 696.267 410.317 694.54L407.942 691.321ZM461.261 705.965C460.502 703.951 459.365 702.086 457.893 700.496L454.957 703.212C456.068 704.413 456.936 705.832 457.519 707.377L461.261 705.965ZM389.351 765.056C396.456 765.595 403.686 765.016 410.605 763.207L409.593 759.337C403.128 761.028 396.344 761.575 389.654 761.067L389.351 765.056ZM412.291 710.664C415.96 711.499 419.195 711.138 420.867 708.736C422.447 706.467 421.821 703.458 420.64 701.049C418.181 696.034 411.904 690.503 404.013 689.74L403.628 693.722C409.971 694.335 415.123 698.883 417.049 702.81C418.059 704.871 417.865 706.048 417.585 706.451C417.397 706.72 416.482 707.516 413.179 706.764L412.291 710.664ZM311.669 717.133C306.67 723.506 306.859 732.716 312.699 738.537L315.523 735.704C311.22 731.415 310.976 724.497 314.816 719.602L311.669 717.133Z" fill="black"></path><path d="M553.082 674.281C503.419 670.647 483.68 681.226 469.608 720.917C467.474 726.937 469.466 733.694 474.633 737.447C500.875 756.508 518.288 753.613 548.011 749.505C551.371 749.041 554.709 748.178 557.858 746.917C610.962 725.639 602.809 722.159 597.593 694.498C596.833 690.468 594.804 686.691 591.371 684.45C574.477 673.424 557.923 674.68 536.956 694.33" stroke="black" stroke-width="4" stroke-linecap="round"></path><path d="M671.637 675.483C644.013 670.352 624.384 679.089 611.503 712.226C608.954 718.783 611.648 726.176 617.716 729.736C644.087 745.211 660.659 745.479 684.687 741.33C689.113 740.565 693.411 739.004 697.282 736.725C738.881 712.231 734.169 698.955 718.682 677.42C717.758 676.134 716.642 674.987 715.339 674.086C694.947 659.986 667.342 659.169 651.587 683.869" stroke="black" stroke-width="4" stroke-linecap="round"></path><path d="M747.48 615.439C728.167 612.513 718.313 617.904 713.703 634.645C708.247 654.455 720.653 675.889 740.21 682.193C751.892 685.959 759.366 684.564 771.63 681.276C776.976 679.842 782.023 677.369 786.304 673.86C815.614 649.833 814.972 638.571 805.679 619.395C804.418 616.794 802.414 614.618 799.956 613.098C779.086 600.193 763.628 593.308 734.404 609.773" stroke="black" stroke-width="4" stroke-linecap="round"></path><path d="M697.018 532.808C698.082 532.512 698.705 531.409 698.408 530.345C698.112 529.281 697.009 528.658 695.945 528.955L697.018 532.808ZM723.797 549.65L725.783 549.412L723.797 549.65ZM723.869 550.369L721.876 550.528L723.869 550.369ZM714.72 553.211L715.804 551.53L714.72 553.211ZM748.271 529.793L749.368 528.12L748.271 529.793ZM744.82 528.091L745.468 526.198L744.82 528.091ZM749.584 596.185L750.491 597.967L749.584 596.185ZM757.545 590.71L758.897 592.184L757.545 590.71ZM695.945 528.955C679.838 533.44 671.067 539.745 667.609 549.973C665.919 554.972 665.565 560.732 666.033 567.35C666.501 573.97 667.805 581.587 669.527 590.342L673.452 589.57C671.733 580.833 670.473 573.424 670.023 567.068C669.574 560.711 669.947 555.546 671.398 551.254C674.223 542.9 681.39 537.16 697.018 532.808L695.945 528.955ZM682.053 603.86C698.577 608.233 710.538 609.434 721.008 608.161C731.484 606.887 740.295 603.154 750.491 597.967L748.677 594.402C738.603 599.527 730.295 603.003 720.525 604.191C710.748 605.379 699.334 604.295 683.076 599.993L682.053 603.86ZM758.897 592.184C776.416 576.102 781.245 564.085 777.17 553.62C775.201 548.561 771.243 544.196 766.384 540.142C761.518 536.082 755.548 532.175 749.368 528.12L747.174 531.465C753.409 535.555 759.167 539.331 763.821 543.214C768.483 547.103 771.835 550.942 773.443 555.071C776.523 562.983 773.575 573.28 756.192 589.237L758.897 592.184ZM745.468 526.198C739.902 524.293 735.045 522.973 730.834 522.431C726.626 521.889 722.919 522.104 719.747 523.412C713.237 526.097 709.972 532.908 708.332 543.493L712.285 544.106C713.889 533.753 716.853 528.933 721.272 527.11C723.566 526.164 726.5 525.906 730.323 526.398C734.145 526.89 738.71 528.113 744.172 529.983L745.468 526.198ZM725.863 550.209C725.842 549.948 725.815 549.683 725.783 549.412L721.811 549.888C721.838 550.11 721.859 550.323 721.876 550.528L725.863 550.209ZM715.167 539.921C706.566 539.403 700.177 540.728 691.158 545.692L693.087 549.196C701.482 544.576 707.123 543.444 714.926 543.914L715.167 539.921ZM725.783 549.412C725.13 543.963 720.333 540.232 715.167 539.921L714.926 543.914C718.483 544.128 721.425 546.661 721.811 549.888L725.783 549.412ZM713.636 554.892C715.97 556.397 718.906 556.996 721.361 556.401C722.613 556.097 723.835 555.455 724.709 554.35C725.603 553.222 725.989 551.792 725.863 550.209L721.876 550.528C721.933 551.249 721.754 551.639 721.573 551.867C721.374 552.119 721.014 552.369 720.419 552.513C719.178 552.814 717.355 552.53 715.804 551.53L713.636 554.892ZM708.332 543.493C707.623 548.065 709.872 552.466 713.636 554.892L715.804 551.53C713.241 549.878 711.84 546.973 712.285 544.106L708.332 543.493ZM749.368 528.12C748.165 527.331 746.851 526.672 745.468 526.198L744.172 529.983C745.216 530.34 746.231 530.846 747.174 531.465L749.368 528.12ZM750.491 597.967C753.52 596.426 756.369 594.505 758.897 592.184L756.192 589.237C753.956 591.29 751.413 593.01 748.677 594.402L750.491 597.967ZM669.527 590.342C670.802 596.824 675.609 602.154 682.053 603.86L683.076 599.993C678.169 598.694 674.443 594.609 673.452 589.57L669.527 590.342Z" fill="black"></path><path d="M678.737 475.707C653.727 462.799 650.512 481.032 659.173 507.172C660.549 511.324 663.767 514.631 667.887 516.102C689.877 523.953 702.97 521.469 715.037 517.407C722.03 515.053 728.46 510.867 732.553 504.728C742.423 489.92 737.131 482.63 719.553 470.402C718.795 469.875 717.982 469.408 717.133 469.042C697.149 460.416 669.528 460.343 666.968 475.707" stroke="black" stroke-width="4" stroke-linecap="round"></path><path d="M215.372 486.423C238.025 488.459 252.075 491.326 267.864 499.098C270.661 500.475 273.535 501.702 276.516 502.614L316.633 514.889C325.639 517.644 335.256 517.689 344.287 515.019L588.526 442.806C603.276 438.445 619.883 440.658 631.005 451.282C636.905 456.919 642.784 463.889 648.639 473.762C651.988 479.409 653.64 485.893 653.944 492.45C654.706 508.883 654.558 520.007 653.119 529.31C651.525 539.618 644.355 547.978 635.302 553.16C608.25 568.645 587.751 574.789 558.569 584.202C554.407 585.545 550.449 587.466 546.81 589.892L500.445 620.802C494.13 625.012 486.906 627.665 479.367 628.542L242.29 656.124C211.839 659.667 186.221 629.331 192.56 599.336C193.499 594.892 194.453 590.346 195.431 585.703C197.061 577.968 192.314 570.308 184.654 568.355C179.413 567.019 175.254 562.928 174.201 557.623C172.87 550.916 172.107 544.39 171.829 535.601C171.491 524.922 175.32 514.503 182.194 506.324C193.316 493.094 202.02 485.462 215.372 486.423Z" fill="white"></path><path d="M593.703 663.384C593.703 663.384 487.167 653.032 443.766 634.181C411.076 597.568 489.967 597.133 533.117 589.723C579.449 581.767 639.467 520.421 667.143 606.048C684.953 661.152 628.737 669.972 593.703 663.384Z" fill="#F8F8F8"></path><path d="M633.768 571.011L634.167 569.051L633.768 571.011ZM214.502 490.782L214.819 488.807L214.412 488.742L214.012 488.843L214.502 490.782ZM188.203 564.951L187.417 566.79L187.544 566.844L187.679 566.881L188.203 564.951ZM566.337 657.753L565.909 659.707L565.938 659.713L565.968 659.719L566.337 657.753ZM638.805 603.239C639.048 602.161 638.371 601.091 637.293 600.848C636.216 600.605 635.145 601.282 634.903 602.359L638.805 603.239ZM618.456 615.576L618.65 613.585L618.456 615.576ZM593.66 650.466L592.522 652.11L593.66 650.466ZM615.616 654.444L614.734 652.649L615.616 654.444ZM594.702 586.434L593.224 585.086L594.702 586.434ZM580.106 634.228L578.165 634.709L580.106 634.228ZM214.012 488.843C191.045 494.652 179.966 512.215 176.761 529.069C175.161 537.478 175.498 545.796 177.325 552.523C179.123 559.142 182.508 564.692 187.417 566.79L188.989 563.112C185.769 561.736 182.868 557.671 181.185 551.474C179.531 545.386 179.193 537.686 180.69 529.816C183.678 514.109 193.877 498.062 214.993 492.721L214.012 488.843ZM565.968 659.719C585.955 663.47 601.977 665.014 614.568 664.491L614.402 660.495C602.235 661 586.544 659.51 566.706 655.788L565.968 659.719ZM660.123 597.572C656.866 583.396 647.892 571.844 634.167 569.051L633.369 572.971C645.089 575.356 653.198 585.293 656.225 598.468L660.123 597.572ZM633.964 569.02C615.548 567.206 602.971 574.403 593.224 585.086L596.179 587.782C605.263 577.826 616.665 571.336 633.572 573.001L633.964 569.02ZM578.165 634.709C580.342 643.494 585.439 647.206 592.522 652.11L594.799 648.821C587.736 643.931 583.834 640.955 582.048 633.747L578.165 634.709ZM616.499 656.238C623.708 652.693 630.176 646.903 634.731 640.786L631.523 638.397C627.291 644.08 621.295 649.422 614.734 652.649L616.499 656.238ZM618.65 613.585C608.177 612.568 599.947 614.183 595.103 618.138L597.633 621.237C601.261 618.274 608.183 616.588 618.263 617.567L618.65 613.585ZM613.537 633.103C619.496 631.209 624.759 628.864 629.074 624.305C633.382 619.754 636.56 613.2 638.805 603.239L634.903 602.359C632.746 611.929 629.802 617.718 626.169 621.555C622.544 625.385 618.046 627.473 612.325 629.291L613.537 633.103ZM262.781 496.682C247.389 494.093 231.447 491.473 214.819 488.807L214.186 492.757C230.804 495.421 246.736 498.039 262.117 500.627L262.781 496.682ZM187.679 566.881C195.305 568.952 202.758 570.971 210.055 572.942L211.098 569.08C203.802 567.11 196.351 565.092 188.727 563.021L187.679 566.881ZM398.841 621.583C449.354 633.769 501.446 645.599 565.909 659.707L566.764 655.8C502.318 641.695 450.255 629.872 399.779 617.695L398.841 621.583ZM634.167 569.051C624.037 566.989 614.158 564.971 604.496 562.992L603.693 566.91C613.356 568.89 623.237 570.909 633.369 572.971L634.167 569.051ZM595.103 618.138C592.633 620.155 591.474 622.635 592.043 625.243C592.569 627.652 594.459 629.567 596.618 630.915C600.963 633.626 607.793 634.929 613.537 633.103L612.325 629.291C607.812 630.726 602.192 629.678 598.736 627.521C596.995 626.435 596.147 625.286 595.951 624.39C595.799 623.692 595.935 622.623 597.633 621.237L595.103 618.138ZM634.731 640.786C639.253 634.712 638.899 628.108 635.448 622.934C632.068 617.867 625.822 614.282 618.65 613.585L618.263 617.567C624.41 618.164 629.496 621.219 632.12 625.153C634.672 628.98 634.993 633.736 631.523 638.397L634.731 640.786ZM592.522 652.11C599.268 656.781 608.296 660.272 616.499 656.238L614.734 652.649C608.564 655.683 601.22 653.268 594.799 648.821L592.522 652.11ZM593.224 585.086C581.239 598.223 573.787 617.043 578.165 634.709L582.048 633.747C578.085 617.758 584.795 600.26 596.179 587.782L593.224 585.086ZM614.568 664.491C630.342 663.837 643.483 654.574 651.77 641.849C660.05 629.133 663.616 612.776 660.123 597.572L656.225 598.468C659.451 612.512 656.165 627.769 648.418 639.667C640.676 651.555 628.613 659.905 614.402 660.495L614.568 664.491Z" fill="black"></path><path d="M205.187 516.96C221.48 516.96 261.432 525.748 282.499 532.189M226.272 546.573C212.998 542.919 204.915 546.573 195.713 540.236M510.021 621.977C528.569 628.187 538.808 629.227 557.094 631.566" stroke="black" stroke-width="4"></path><path d="M431.124 619.797C431.124 619.797 279.392 665.451 218.423 659.025C156.54 598.332 281.188 587.544 377.077 583.621C430.619 581.43 466.43 545.265 533.552 568.801C588.472 568.802 471.839 614.289 431.124 619.797Z" fill="#F8F8F8"></path><path d="M601.169 444.733C449.869 489.59 365.295 511.885 213.219 565.329C181.006 598.726 208.836 654.231 235.859 654.231C381.39 623.005 443.926 607.731 585.73 568.377C607.155 561.599 622.014 555.698 631.729 549.496C653.074 535.87 648.17 503.857 639.895 479.924C631.932 456.893 617.101 440.01 601.169 444.733ZM601.169 444.733C582.61 452.798 576.295 469.198 574.105 487.934C572.411 502.429 575.382 517.092 580.874 530.613C586.482 544.418 589.883 549.222 597.493 552.46C606.163 556.148 616.713 553.907 621.234 545.641C624.432 539.794 626.57 532.816 627.586 526.026C630.048 509.577 612.013 500.559 598.875 510.757C594.199 514.387 592.773 518.09 593.543 521.82C596.024 533.828 614.054 530.774 619.446 519.762C628.181 501.927 630.752 480.839 609.954 471.284" stroke="black" stroke-width="4" stroke-linecap="round"></path><path d="M217.199 591.466C265.218 573.819 302.773 564.177 323.882 560.471M250.243 618.49C237.139 621.247 234.116 626.997 221.082 626.997" stroke="black" stroke-width="4"></path><path d="M613.741 290.653C620.143 292.345 625.364 297.311 626.51 303.833C651.292 444.791 613.682 545.781 438.886 572.289C289.561 594.934 110.117 399.159 141.145 289.39C143.343 281.612 150.034 276.089 157.603 273.254C299.811 220.001 164.647 140.714 202.325 66.1912C206.958 57.0284 218.753 55.3915 227.718 60.3963C354.21 131.012 285.407 20.5424 423.277 2.23376C435.985 0.546151 445.251 13.4066 441.52 25.6714C405.425 144.326 486.926 98.0662 579.475 107.106C599.552 109.068 602.847 139.781 590.352 155.619C555.104 200.299 540.841 271.385 613.741 290.653Z" fill="#FF0266"></path><path d="M389.195 550.059C315.645 525.655 276.744 505.601 227.055 447.196C202.211 417.993 186.463 363.082 195.236 316.872C205.166 264.569 255.956 265.707 262.359 189.165C265.503 151.201 260.49 126.554 235.772 95.454C314.603 113.381 325.511 146.027 334.277 227.085C354.954 194.354 363.627 178.597 345.299 121.473C341.439 109.444 339.14 96.5967 342.582 84.442C352.024 51.0949 376.391 35.8446 408.373 31.3821C392.682 110.273 402.221 125.036 447.164 189.165C458.497 122.042 515.159 122.477 574.437 126.4C523.555 158.613 509.44 179.101 514.075 213.274C516.011 227.549 522.544 240.703 529.852 253.118C551.314 289.578 564.26 317.194 573.579 352.667C579.815 376.406 581.332 401.343 576.825 425.47C561.645 506.732 514.608 536.214 389.195 550.059ZM389.195 550.059C356.765 441.077 429.385 411.958 473.553 344.049C484.621 327.031 470.566 303.895 450.791 308.484V308.484C408.196 318.369 420.12 376.554 437.125 416.838C443.402 431.71 448.758 447.898 451.35 464.352C453.14 475.715 438.934 479.491 431.421 470.78C371.471 401.269 265.808 374.843 346.046 441.965C360.958 454.44 317.693 373.579 315.41 313.284C314.39 286.358 349.358 267.785 364.553 290.038C367.543 294.417 368.431 299.452 367.202 305.44C361.848 331.533 323.11 327.057 297.965 335.845C283.842 340.78 275.021 353.996 278.05 369.612" stroke="black" stroke-width="4" stroke-linecap="round"></path></svg>