<svg xmlns="http://www.w3.org/2000/svg" width="1920" height="1080" viewBox="0 0 1920 1080" fill="none"><g clip-path="url(#clip0_8_8408)"><path d="M708.657 1049.38C665.986 1138.69 683.938 1209.15 649.553 1192.72C615.168 1176.29 599.949 1094.1 642.62 1004.79C685.291 915.473 769.693 852.865 804.078 869.293C838.462 885.721 751.328 960.064 708.657 1049.38Z" fill="#F8F8F8"></path><path d="M271.411 1016.88C294.619 1204 214.095 1218.75 131.315 1143.1C89.6546 1136.63 119.444 1029.38 137.674 911.977C155.904 794.569 179.437 695.526 221.098 701.994C264.358 709.592 364.39 781.564 351.651 825.608C357.109 864.459 279.574 964.313 271.411 1016.88Z" fill="#F8F8F8"></path><path d="M573 987.881C498.988 906.102 471.895 863.377 451.504 724.275C451.454 723.94 451.429 723.59 451.428 723.251C451.351 697.333 445.497 673.295 462.756 630.168C464.14 626.708 462.703 622.713 459.364 621.058L417.684 600.399C413.032 598.092 407.576 601.477 407.576 606.67V608.045C407.576 611.679 410.388 614.72 414.014 614.958C496.753 620.388 536.392 590.239 565.382 577.626C568.972 576.064 570.883 571.999 569.585 568.305C558.234 536.01 555.928 516.55 565.988 476.11C566.89 472.484 564.859 468.738 561.299 467.606L532.574 458.477C530.594 457.848 528.994 456.367 528.212 454.443C514.007 419.467 506.816 398.803 504.83 365.273C504.741 363.763 505.157 362.26 506 361.005L525.859 331.424C527.888 328.4 527.21 324.271 524.304 322.077C429.853 250.791 331.207 289.775 266.206 332.658C238.691 350.811 220.6 380.119 214.981 412.601C200.795 494.608 210.674 550.259 264.642 610.555C266.719 612.876 267.096 616.305 265.487 618.972L206.197 717.266C205.854 717.835 205.59 718.463 205.42 719.105C158.435 896.735 137.937 991.025 131 1131" stroke="black" stroke-width="4"></path><path d="M671.5 1105.5C679.98 1041.65 705.885 993.28 770.039 910.594C770.34 910.207 770.725 909.864 771.144 909.61C849.036 862.412 880.192 832.006 881.922 802.25C882.087 799.41 879.081 797.677 876.529 798.935C827.468 823.107 802.094 833.071 741.457 853.667C738.2 854.773 735.137 851.531 736.459 848.355L755.215 803.296C756.9 799.249 751.787 795.831 748.691 798.934L644.764 903.092C644.626 903.23 644.498 903.379 644.382 903.536L564.292 1011.61L394.861 1212.55C392.556 1215.28 388.095 1213.85 387.815 1210.28L380.768 1120.35C393.332 921.428 445.254 859.715 412.607 791.009C412.498 790.778 412.409 790.537 412.341 790.291C406.133 767.826 367.964 742.806 292.693 755.764C285.777 756.955 271 752.098 271 743" stroke="black" stroke-width="4" stroke-linecap="round"></path><path d="M813.196 420.67L978.414 677.426L706.265 731.588L813.196 420.67Z" fill="#7B1FA2"></path><path d="M820.643 595.489C828.708 636.01 784.261 678.287 743.739 686.351C703.218 694.416 681.965 665.215 673.901 624.693C665.836 584.171 708.354 532.204 748.876 524.14C789.397 516.075 812.579 554.967 820.643 595.489Z" fill="#69F0AE"></path><path d="M839.294 631.354L884.978 622.263L979.426 713.564L885.29 732.299L839.294 631.354Z" fill="#FF0266"></path><path d="M673.229 603.239C673.229 603.239 661.569 612.036 661.723 621.359C661.878 630.683 686.222 621.521 726.348 635.123C755.49 645.002 791.142 664.205 776.131 682.783C761.119 701.362 753.697 663.333 771.923 639.946C790.148 616.558 815.051 608.01 828.378 612.659C857.678 622.879 866.38 677.055 838.665 711.355C815.911 739.516 777.508 689.705 940.353 611.242C984.108 592.46 919.889 587.97 919.889 587.97" stroke="black" stroke-width="3"></path><path d="M1096.66 240.394L1268.55 273.919L1239.91 569.918L1068.02 536.393L1096.66 240.394Z" fill="#FF0266"></path><path d="M1098.78 468.207C1093.29 496.326 1061.38 513.764 1033.26 508.28C1005.14 502.795 974.649 473.186 980.133 445.068C985.617 416.949 1025 400.969 1053.12 406.453C1081.24 411.937 1104.26 440.088 1098.78 468.207Z" fill="#FFDE03"></path><path d="M1336.19 444.206C1330.35 474.131 1301.36 493.658 1271.44 487.822C1241.52 481.985 1221.99 452.996 1227.82 423.071C1233.66 393.147 1261.19 381.093 1291.12 386.929C1321.04 392.765 1342.03 414.282 1336.19 444.206Z" fill="#E9E9E9"></path><path d="M1231.6 492.658L1264.34 607.653L1154.31 586.193L1231.6 492.658Z" fill="#7B1FA2"></path><path d="M1087.51 356.916C1034.12 355.553 991.885 384.812 985.872 415.641C974.274 475.107 1053.53 511.263 1090.05 498.022C1126.57 484.781 1244.74 387.581 1225.29 361.484C1205.84 335.387 1166.92 372.403 1160.36 406.034C1154.82 434.446 1163.85 472.656 1200.21 465.202C1210.37 463.121 1225.84 457.082 1242.13 449.15M1242.13 449.15C1284.19 428.68 1303.98 395.57 1286.08 387.887C1268.19 380.203 1233.74 412.618 1242.13 449.15ZM1242.13 449.15C1264.85 463.596 1342.12 513.244 1245.63 515.758" stroke="black" stroke-width="3"></path><path d="M1408.36 334.107L1409.78 333.617L1408.36 334.107ZM1616.49 359.922L1616.84 361.382L1616.49 359.922ZM1727.18 143.98C1726.43 144.335 1726.11 145.229 1726.47 145.978C1726.82 146.727 1727.71 147.046 1728.46 146.691L1727.18 143.98ZM1484.34 266.464C1478.6 265.89 1470.18 267.766 1461.1 271.266C1451.96 274.789 1441.95 280.038 1432.98 286.418C1424.03 292.791 1416.03 300.35 1411.01 308.525C1405.97 316.719 1403.85 325.656 1406.94 334.598L1409.78 333.617C1407.07 325.779 1408.83 317.788 1413.56 310.097C1418.3 302.386 1425.96 295.102 1434.72 288.863C1443.48 282.632 1453.26 277.501 1462.17 274.065C1471.14 270.608 1479.03 268.947 1484.04 269.449L1484.34 266.464ZM1406.94 334.598C1410.78 345.67 1421.02 353.949 1435.08 359.889C1449.17 365.842 1467.34 369.559 1487.49 371.358C1527.8 374.956 1576.36 370.906 1616.84 361.382L1616.15 358.462C1575.96 367.92 1527.71 371.937 1487.75 368.37C1467.77 366.586 1449.94 362.912 1436.25 357.126C1422.52 351.327 1413.21 343.519 1409.78 333.617L1406.94 334.598ZM1829.35 180.831C1829.35 160.149 1819.39 143.424 1801.42 135.693C1783.54 127.998 1758.05 129.355 1727.18 143.98L1728.46 146.691C1758.9 132.275 1783.43 131.218 1800.24 138.449C1816.96 145.646 1826.35 161.189 1826.35 180.831H1829.35ZM1771.22 271.046C1788.77 253.899 1803.27 236.44 1813.39 220.77C1823.47 205.168 1829.35 191.113 1829.35 180.831H1826.35C1826.35 190.196 1820.89 203.627 1810.87 219.142C1800.9 234.588 1786.55 251.876 1769.13 268.9L1771.22 271.046ZM1616.84 361.382C1653.05 352.861 1688.34 335.098 1719.4 313.622L1717.69 311.155C1686.85 332.48 1651.91 350.049 1616.15 358.462L1616.84 361.382Z" fill="black"></path><rect x="1426.11" y="287.318" width="99.2261" height="104.873" fill="#7B1FA2"></rect><circle cx="1622.95" cy="251.822" r="146.822" fill="#FFDE03"></circle><path d="M1769.37 105L1850.06 244.764H1688.67L1769.37 105Z" fill="#69F0AE"></path><path d="M1408.36 334.107C1422.88 376.056 1535.82 378.904 1616.49 359.922C1647.15 352.931 1703.62 323.459 1703.62 306.679C1703.62 285.704 1677.57 291.351 1674.58 312.326C1672.96 323.62 1658.44 384.124 1693.94 376.057C1729.43 367.989 1769.77 264.73 1752.02 274.41C1734.27 284.091 1722.98 347.015 1745.57 340.561C1763.64 335.398 1786.31 285.704 1770.17 267.553" stroke="black" stroke-width="3"></path></g><defs><clipPath id="clip0_8_8408"><rect width="1920" height="1080" fill="white"></rect></clipPath></defs></svg>