<svg xmlns="http://www.w3.org/2000/svg" width="252" height="252" viewBox="0 0 252 252" fill="none"><path d="M227.805 9H120.279C120.279 37.016 142.033 59.8197 168.759 59.8197H188.648V79.6915C188.648 107.707 210.402 130.511 237.128 130.511V18.773C237.128 13.235 232.777 9 227.805 9Z" fill="#0082FF"></path><path d="M174.666 65.0317H67.1406C67.1406 93.0477 88.8943 115.851 115.62 115.851H135.509V136.049C135.509 164.065 157.263 186.869 183.989 186.869V75.1305C183.989 69.5925 179.638 65.0317 174.666 65.0317Z" fill="url(#paint0_linear_841_229)"></path><path d="M121.525 121.064H14C14 149.08 35.7537 171.884 62.4797 171.884H82.058V191.755C82.058 219.771 103.812 242.575 130.538 242.575V130.511C130.849 125.625 126.498 121.064 121.525 121.064Z" fill="url(#paint1_linear_841_229)"></path><defs><linearGradient id="paint0_linear_841_229" x1="181.604" y1="65.2689" x2="133.668" y2="112.428" gradientUnits="userSpaceOnUse"><stop offset="0.18" stop-color="#0050D3"></stop><stop offset="1" stop-color="#0082FF"></stop></linearGradient><linearGradient id="paint1_linear_841_229" x1="131.462" y1="121.707" x2="76.1818" y2="173.016" gradientUnits="userSpaceOnUse"><stop offset="0.18" stop-color="#0050D3"></stop><stop offset="1" stop-color="#0082FF"></stop></linearGradient></defs></svg>