<svg xmlns="http://www.w3.org/2000/svg" width="1920" height="1080" viewBox="0 0 1920 1080" fill="none"><rect width="1920" height="1080" fill="white"></rect><path d="M32 646.5C46.0883 617.153 86.116 640.183 103.984 629.23C110.254 625.387 105.611 617.038 98.4743 615.266V615.266C84.7911 611.869 67.225 633.522 80.2884 638.825C81.6286 639.369 83.0152 639.923 84.4497 640.487C94.4437 644.418 105.824 643.023 115.571 638.513C164.092 616.061 307.537 568.367 503.123 575.176C508.621 575.367 514.023 576.749 519.146 578.754C589.742 606.372 730.502 600.787 754.5 600.5" stroke="black" stroke-width="4" stroke-linecap="round"></path><path d="M1186 615C1206.94 615 1225.45 614.058 1241.79 612.419C1322.96 604.282 1419.28 560.723 1500.81 563.462C1572.78 565.88 1657.94 569.774 1716.79 575.771C1727.26 576.837 1737.4 579.763 1746.74 584.612C1765.89 594.567 1776.12 601.77 1782.24 608.514C1790.85 618.019 1788.7 636.605 1776.13 639.155C1775.94 639.192 1775.76 639.224 1775.58 639.25C1761.56 641.341 1760.07 615.63 1773.02 609.869C1797.05 599.184 1829.22 634.753 1847.5 638.5" stroke="black" stroke-width="4" stroke-linecap="round"></path><path d="M1392.47 626.427C1383.53 596.408 1402.03 585.82 1443.27 575.693C1443.76 575.572 1444.29 575.487 1444.79 575.442C1536.47 567.37 1562.26 558.047 1657.37 576.483C1658.05 576.614 1658.75 576.825 1659.38 577.099C1691.71 591.08 1699.89 611.908 1704.51 634.845C1706.68 645.637 1701.37 656.668 1691.57 661.687C1656.57 679.617 1636.33 681.219 1599.18 662.871C1595.38 660.993 1590.76 661.594 1587.64 664.47C1546.36 702.55 1539.69 704.327 1479.61 692.499C1476.22 691.833 1472.96 690.583 1469.95 688.892C1454.68 680.302 1440.95 673.899 1436.6 664.232C1433.58 657.519 1428.48 649.224 1421.3 647.577C1409.45 644.857 1399.99 638.145 1393.61 628.829C1393.11 628.099 1392.72 627.274 1392.47 626.427Z" fill="#7B1FA2"></path><path d="M1547.1 358.757C1498.85 357.907 1476.47 368.484 1451.45 378.455C1450.15 378.972 1449.8 380.598 1450.93 381.413C1477.77 400.713 1632.57 401.865 1646.79 384.514C1647.42 383.741 1646.98 382.691 1646.08 382.255C1616.09 367.698 1578.04 359.302 1547.1 358.757Z" fill="#7B1FA2" stroke="black" stroke-width="4"></path><path d="M1450.2 559.957C1461.84 542.999 1502.95 546.109 1522.81 541.681C1547.39 538.516 1558.96 531.2 1573.26 511.39C1575.23 508.659 1577.33 506.022 1579.65 503.583L1616.25 465.137C1619.29 461.943 1622.26 458.507 1623.42 454.25C1628.53 435.379 1612.84 410.003 1636.73 397.076C1640.8 394.875 1644.45 392.772 1647.72 390.79C1655.41 386.135 1668.98 393.974 1667.6 402.855L1646.73 537.923C1646.12 541.854 1646.07 545.85 1646.57 549.795C1648.98 568.571 1638.7 586.981 1620.42 591.866C1568.62 605.701 1508.57 604.255 1468.87 594.399C1458.55 591.837 1451.2 583.161 1448.96 572.768C1448.01 568.403 1447.67 563.638 1450.2 559.957Z" fill="#F8F8F8"></path><path d="M1423.28 364.685C1463.06 408.368 1642.66 406.05 1667.85 373.923M1423.28 364.685C1470.73 330.9 1633.89 332.712 1667.85 373.923M1423.28 364.685L1450.3 572.804C1450.59 574.966 1452.55 576.518 1454.71 576.219C1462.67 575.118 1467.8 573.446 1471.92 568.537C1474.46 565.514 1476.46 560.752 1476.2 556.813V556.813C1475.52 546.531 1458.23 557.966 1459.7 568.165C1460.27 572.172 1461.71 576.998 1463.9 583.109C1464.27 584.155 1465.04 584.986 1466.07 585.398C1507.68 602.002 1598.91 603.045 1632.44 574.545C1634.21 573.035 1635.21 570.841 1635.43 568.521L1636.12 561.291L1667.85 373.923" stroke="black" stroke-width="4"></path><path d="M1617.43 490.02C1607.92 486.678 1593.02 481.442 1582.32 469.504C1562.31 457.707 1551.75 449.526 1545.62 444.775C1538.44 439.208 1537.34 438.35 1534.2 441.905C1525.72 446.674 1549.46 465.235 1575.64 480.785C1578.05 482.213 1580.44 483.646 1582.8 485.059C1598.47 494.435 1612.67 502.935 1619.21 503.609C1630.92 508.968 1658.14 516.768 1671.27 497.978C1690.29 466.798 1658.67 437.219 1658.15 451.687C1655.85 454.285 1655.22 456.938 1657.57 462.224C1661.2 470.344 1665.79 480.64 1657.47 490.055C1650.94 497.448 1641.37 495.178 1632.84 493.158C1628.7 492.174 1624.8 491.25 1621.62 491.528C1620.39 491.062 1618.98 490.566 1617.43 490.02Z" fill="white"></path><path fill-rule="evenodd" clip-rule="evenodd" d="M1518.26 419.219C1508.37 418.671 1498.94 431.979 1507.96 443.799C1510.76 447.465 1515.31 449.197 1519.73 449.082C1522.63 449.006 1525.12 448.484 1527.58 447.267C1527.7 447.207 1527.83 447.146 1527.95 447.083C1528.95 448.157 1530.06 449.294 1531.26 450.504L1531.34 450.577L1531.42 450.64C1548.81 464.098 1568.39 478.395 1587.56 489.801C1606.69 501.184 1625.57 509.796 1641.52 511.71C1656.65 513.526 1671.36 504.039 1676.94 489.969C1680.02 482.218 1679.58 474.943 1676.11 467.227C1672.67 459.607 1666.27 451.54 1657.45 442.052L1655.1 444.229C1663.9 453.686 1669.99 461.43 1673.19 468.539C1676.35 475.551 1676.69 481.925 1673.97 488.791C1668.89 501.613 1655.49 510.167 1641.9 508.537C1626.64 506.705 1608.24 498.387 1589.19 487.055C1570.22 475.764 1550.79 461.586 1533.45 448.175C1532.45 447.168 1531.54 446.228 1530.7 445.346C1532.07 444.344 1533.45 443.124 1534.93 441.668C1535.72 440.935 1536.42 440.213 1537.03 439.5C1541.06 442.642 1544.89 445.674 1548.58 448.592C1579.7 473.192 1600.69 489.78 1642.41 497.127C1652.05 498.826 1663.61 495.229 1666.72 485.132C1669.68 475.571 1665.88 467.068 1656.35 455.5C1655.79 454.818 1654.79 454.721 1654.1 455.282C1653.42 455.843 1653.32 456.85 1653.89 457.532C1663.3 468.957 1666.11 476.284 1663.67 484.189C1661.24 492.066 1651.84 495.542 1642.96 493.979C1602.07 486.778 1581.69 470.678 1550.57 446.083C1546.85 443.143 1542.97 440.082 1538.89 436.9C1539.44 435.955 1539.83 435.02 1540.08 434.09C1540.7 431.777 1540.25 429.673 1539.09 428.005C1537.96 426.376 1536.22 425.244 1534.33 424.639C1530.62 423.447 1525.76 424.153 1523.08 428.065C1522.95 428.255 1522.81 428.451 1522.68 428.652C1522.02 429.623 1521.28 430.83 1520.94 432.241C1520.26 435.065 1520.94 437.713 1522.71 440.578C1523.49 441.836 1524.5 443.167 1525.73 444.61C1523.9 445.439 1521.99 445.825 1519.65 445.886C1516.06 445.98 1512.57 444.564 1510.5 441.86C1503.1 432.158 1510.98 422.017 1518.09 422.411C1518.97 422.46 1519.72 421.785 1519.77 420.904C1519.82 420.022 1519.15 419.268 1518.26 419.219ZM1532.71 439.373C1531.17 440.881 1529.81 442.057 1528.53 442.969C1527.21 441.449 1526.18 440.114 1525.43 438.897C1523.95 436.503 1523.63 434.732 1524.05 432.987C1524.24 432.171 1524.7 431.365 1525.33 430.436C1525.46 430.242 1525.59 430.054 1525.71 429.872C1527.38 427.444 1530.58 426.792 1533.36 427.682C1534.71 428.119 1535.82 428.889 1536.47 429.829C1537.09 430.729 1537.37 431.862 1536.99 433.259C1536.54 434.939 1535.32 436.944 1532.74 439.342L1532.72 439.357L1532.71 439.373Z" fill="black"></path><ellipse cx="397.777" cy="540.678" rx="224.527" ry="143.5" transform="rotate(-9.2958 397.777 540.678)" fill="#69F0AE"></ellipse><path d="M508.636 424.147C482.625 429.231 470.281 433.62 450.277 442.868M524.754 463.52C516.652 468.125 511.466 469.965 499.243 469.823M575.6 503.318C543.588 506.006 529.898 511.263 505.339 520.511M602.551 548.619C593.889 553.244 588.924 555.82 563.077 557.666" stroke="black" stroke-width="4"></path><path d="M294.086 489.358C317.679 494.922 315.708 503.877 312.952 514.896C311.706 519.88 304.788 522.593 300.898 519.238L295.029 514.175C290.98 510.682 293.177 504.037 298.51 503.648L309.54 502.841C312.221 502.645 314.709 504.263 315.621 506.792C321.286 522.494 323.62 529.603 322.988 538.76C322.759 542.078 320.978 545.206 317.955 546.591C310.809 549.866 302.094 548.773 287.293 541.926C270.618 534.213 259.205 516.823 261.962 498.658C263.836 486.304 268.398 478.149 276.468 469.219C276.884 468.758 277.348 468.321 277.833 467.933C291.47 457.01 297.944 457.438 317.274 454.023M317.274 454.023L501.519 402.864C504.405 402.063 507.489 402.275 510.213 403.52C552.252 422.74 557.507 437.878 548.223 476.25C547.144 480.709 543.688 484.205 539.274 485.456L340.387 541.859C337.448 542.692 335.125 538.952 337.001 536.542C359.48 507.66 360.145 474.222 317.274 454.023Z" stroke="black" stroke-width="4"></path><path d="M334.406 579.728C365.288 587.007 362.573 597.952 361.339 612.892C361.097 615.816 357.669 617.515 355.297 615.788L351.528 613.044C348.557 610.881 347.001 607.271 347.469 603.627V603.627C348.17 598.164 350.824 593.14 354.941 589.481L362.752 582.539C363.509 581.866 364.504 581.454 365.516 581.46C388.39 581.607 374.361 614.308 369.604 631.082C368.696 634.284 367.007 637.393 364.015 638.848C355.628 642.926 345.361 641.491 327.045 632.652C310.494 624.665 299.321 607.478 301.435 589.223C303.208 573.913 308.315 564.362 317.872 553.815C318.289 553.354 318.755 552.917 319.239 552.528C334.317 540.444 341.44 540.925 362.778 537.161M362.778 537.161L566.284 480.742C569.168 479.942 572.258 480.159 574.981 481.398C621.967 502.777 627.629 519.483 617.133 562.384C616.042 566.842 612.585 570.346 608.17 571.596L387.188 634.169C384.249 635.001 381.946 631.271 383.848 628.879C409.284 596.89 410.461 559.609 362.778 537.161Z" stroke="black" stroke-width="4" stroke-linecap="round"></path><path d="M294.086 489.358C317.679 494.922 315.708 503.877 312.952 514.896C311.706 519.88 304.788 522.593 300.898 519.238L295.029 514.175C290.98 510.682 293.177 504.037 298.51 503.648L309.54 502.841C312.221 502.645 314.709 504.263 315.621 506.792C321.286 522.494 323.62 529.603 322.988 538.76C322.759 542.078 320.978 545.206 317.955 546.591C310.809 549.866 302.094 548.773 287.293 541.926C270.618 534.213 259.205 516.823 261.962 498.658C263.836 486.304 268.398 478.149 276.468 469.219C276.884 468.758 277.348 468.321 277.833 467.933C291.47 457.01 297.944 457.438 317.274 454.023M317.274 454.023L501.519 402.864C504.405 402.063 507.489 402.275 510.213 403.52C552.252 422.74 557.507 437.878 548.223 476.25C547.144 480.709 543.688 484.205 539.274 485.456L340.387 541.859C337.448 542.692 335.125 538.952 337.001 536.542C359.48 507.66 360.145 474.222 317.274 454.023Z" stroke="black" stroke-width="4" stroke-linecap="round"></path><path d="M222.786 557.836C243.059 562.617 240.552 572.388 235.896 583.182C234.188 587.141 223.676 587.506 222.088 583.498V583.498C221.802 582.776 221.732 581.985 221.918 581.232C224.73 569.808 230.526 567.832 243.431 568.122C243.903 568.132 244.4 568.205 244.853 568.34C265.881 574.583 254.044 597.075 249.568 611.053C248.554 614.221 246.885 617.358 243.862 618.744C236.715 622.019 228.001 620.926 213.2 614.079C196.525 606.365 185.112 588.976 187.868 570.811C189.743 558.457 194.304 550.302 202.375 541.371C202.791 540.911 203.255 540.474 203.74 540.086C217.377 529.162 223.851 529.591 243.18 526.175M243.18 526.175L265.328 520.953M243.18 526.175C285.514 546.121 285.397 578.975 263.744 607.605C261.846 610.114 264.43 613.996 267.403 612.967L300.348 601.568" stroke="black" stroke-width="4" stroke-linecap="round"></path><path d="M1299.43 875.31C1302.02 875.516 1302.74 878.798 1301.1 880.817C1292.77 891.077 1298.51 904.861 1292.44 917.726C1292.02 918.602 1291.17 919.172 1290.21 919.296C1260.02 923.197 1222.58 933.876 1197.27 950.017C1196.34 950.61 1195.16 950.654 1194.18 950.141C1140.24 921.815 1091.35 930.811 1056.23 956.824C1055.63 957.268 1054.88 957.484 1054.14 957.395C1039.31 955.608 1039.23 946.99 1027.52 944.121C1027.18 944.039 1026.84 943.9 1026.55 943.715C984.155 917.046 936.407 936.625 906.495 960.873C904.915 962.153 902.525 961.585 901.476 959.844C888.774 938.775 847.595 930.619 783.594 931.307C782.306 931.321 781.142 930.514 780.66 929.319C773.15 910.703 750.881 888.056 715.055 880.129C714.085 879.915 713.239 879.257 713.072 878.279C711.462 868.858 722.902 846.49 713.925 831.648C712.579 829.423 713.728 825.973 716.289 825.529C759.058 818.113 759.665 793.668 759.245 760.272C759.228 758.902 760.142 757.693 761.455 757.303C782.783 750.97 795.352 738.902 807.774 719.634C808.187 718.992 808.818 718.525 809.56 718.346C857.953 706.695 935.191 731.926 1023.04 721.742C1023.36 721.706 1023.67 721.718 1023.98 721.778C1095.11 735.706 1179.44 706.377 1233.58 728.035C1234.55 728.424 1235.22 729.301 1235.39 730.336C1238.62 750.896 1246.55 776.959 1255.71 786.981C1257.69 789.145 1259.29 795.853 1257.71 798.322C1244.67 818.702 1252.93 851.759 1260.82 865.819C1267.17 877.12 1285.32 874.189 1299.43 875.31Z" fill="#E0E0E0"></path><path d="M757.767 964.031C752 982.165 722.457 988.956 691.781 979.2C648.854 959.833 629.614 938.314 646.679 928.701C664.976 921.682 686.837 923.883 707.224 924.512C732.707 937.144 760.089 947.806 757.767 964.031Z" fill="#F8F8F8"></path><path d="M894.566 995.652C891.147 1016.72 859.361 1029.09 823.569 1023.28C772.535 1008.81 743.252 975.339 760.669 961.879C779.889 951.097 792.77 975.413 815.587 972.776C850.456 968.745 894.461 977.266 894.566 995.652Z" fill="#F8F8F8"></path><path d="M1054.2 995.652C1057.61 1016.72 1089.4 1029.09 1125.19 1023.28C1176.23 1008.81 1205.51 975.339 1188.09 961.879C1168.87 951.097 1155.99 975.413 1133.17 972.776C1098.31 968.745 1054.3 977.266 1054.2 995.652Z" fill="#F8F8F8"></path><path d="M899.873 992.507C903.291 1013.57 945.016 1038.78 980.808 1032.97C1069.86 1032.97 1061.12 985.031 1043.71 971.571C1024.49 960.789 987.198 986.427 964.381 983.79C929.511 979.759 899.978 974.121 899.873 992.507Z" fill="#F8F8F8"></path><path d="M1198.9 978.368C1202.32 999.435 1230.94 1012.32 1262.83 1007.14C1308.2 993.596 1333.79 960.72 1317.99 946.998C1300.63 935.914 1289.54 959.941 1269.1 956.917C1237.86 952.297 1198.68 960.036 1198.9 978.368Z" fill="#F8F8F8"></path><path d="M732.498 756.807C702.634 730.925 671.316 732.689 650.174 756.073C646.352 760.3 645.886 766.508 648.523 771.56C662.131 797.637 675.032 806.085 695.994 814.422C700.23 816.107 704.785 817.022 709.344 817.015C752.791 816.948 753.523 800.421 751.444 775.717C751.313 774.161 750.958 772.624 750.335 771.193C741.573 751.041 729.992 749.615 708.091 754.191" stroke="black" stroke-width="4" stroke-linecap="round"></path><path d="M770.155 698.048C742.454 690.921 722.424 702.991 715.521 724.649C713.8 730.05 716.186 735.817 720.837 739.059C737.014 750.332 748.014 751.87 763.255 750.743C767.827 750.405 772.313 749.179 776.395 747.093C802.277 733.87 792.577 728.09 783.847 714.873C782.98 713.56 781.977 712.324 780.774 711.309C768.037 700.57 755.803 696.929 742.906 707.2" stroke="black" stroke-width="4" stroke-linecap="round"></path><path d="M669.275 808.181C670.262 808.676 671.464 808.277 671.959 807.29C672.454 806.303 672.056 805.101 671.068 804.605L669.275 808.181ZM667.301 826.007L668.303 827.738L668.397 827.683L668.485 827.619L667.301 826.007ZM669.109 829.421L668.812 831.399L669.109 829.421ZM707.195 844.584L709.139 844.115L707.195 844.584ZM702.118 835.93L700.65 837.288L702.118 835.93ZM665.268 885.206L665.572 887.183L665.268 885.206ZM671.237 815.56L670.65 817.472L671.237 815.56ZM663.158 814.58L663.333 816.572L663.158 814.58ZM598.504 843.631L596.868 844.781L598.504 843.631ZM671.068 804.605C653.141 795.612 634.83 794.528 620.455 799.979C606.025 805.452 595.676 817.489 593.907 834.312L597.885 834.73C599.486 819.504 608.764 808.691 621.873 803.719C635.037 798.727 652.179 799.604 669.275 808.181L671.068 804.605ZM596.868 844.781C606.867 859.007 614.304 868.18 622.36 874.448C630.485 880.77 639.112 884.043 651.29 886.757L652.16 882.852C640.283 880.206 632.293 877.109 624.817 871.292C617.272 865.421 610.126 856.687 600.14 842.481L596.868 844.781ZM665.572 887.183C676.911 885.438 685.67 883.473 692.331 881.109C698.983 878.75 703.703 875.938 706.793 872.397C713.092 865.178 711.949 855.742 709.139 844.115L705.251 845.054C708.107 856.873 708.573 864.273 703.779 869.767C701.322 872.582 697.32 875.095 690.993 877.34C684.675 879.581 676.199 881.5 664.964 883.229L665.572 887.183ZM703.586 834.571C701.047 831.828 699.01 828.925 696.889 826.141C694.831 823.437 692.659 820.799 689.999 819.063C687.227 817.253 684.002 816.469 680.017 817.278C676.145 818.065 671.638 820.338 666.117 824.395L668.485 827.619C673.81 823.706 677.766 821.817 680.814 821.198C683.75 820.601 685.905 821.167 687.813 822.412C689.833 823.731 691.642 825.853 693.707 828.564C695.71 831.194 697.939 834.359 700.65 837.288L703.586 834.571ZM666.299 824.276C665.572 824.697 664.847 825.163 664.311 825.67C663.903 826.056 662.883 827.149 663.35 828.64C663.565 829.324 664.02 829.776 664.4 830.053C664.78 830.331 665.211 830.528 665.619 830.677C666.435 830.974 667.512 831.204 668.812 831.399L669.406 827.443C668.186 827.26 667.424 827.077 666.989 826.919C666.771 826.839 666.723 826.797 666.759 826.823C666.795 826.849 667.04 827.037 667.167 827.444C667.308 827.893 667.203 828.275 667.111 828.468C667.036 828.622 666.974 828.657 667.062 828.574C667.137 828.503 667.273 828.392 667.493 828.241C667.71 828.093 667.978 827.926 668.303 827.738L666.299 824.276ZM681.846 818.243C680.504 816.99 678.799 816.109 677.097 815.42C675.391 814.729 673.526 814.171 671.824 813.648L670.65 817.472C672.412 818.013 674.087 818.517 675.596 819.128C677.109 819.74 678.294 820.4 679.116 821.167L681.846 818.243ZM662.984 812.587C655.013 813.285 649.783 814.077 644.417 816.816L646.236 820.379C650.86 818.018 655.414 817.265 663.333 816.572L662.984 812.587ZM668.812 831.399C672.873 832.007 677.533 830.605 680.535 828.357C682.036 827.234 683.374 825.709 683.804 823.847C684.272 821.815 683.559 819.843 681.846 818.243L679.116 821.167C679.976 821.97 679.999 822.544 679.906 822.948C679.774 823.521 679.253 824.321 678.138 825.156C675.908 826.825 672.309 827.878 669.406 827.443L668.812 831.399ZM709.139 844.115C708.228 840.346 706.005 837.185 703.586 834.571L700.65 837.288C702.843 839.657 704.566 842.223 705.251 845.054L709.139 844.115ZM651.29 886.757C655.977 887.801 660.856 887.909 665.572 887.183L664.964 883.229C660.709 883.884 656.333 883.782 652.16 882.852L651.29 886.757ZM671.824 813.648C669.029 812.79 666.022 812.321 662.984 812.587L663.333 816.572C665.74 816.361 668.22 816.726 670.65 817.472L671.824 813.648ZM593.907 834.312C593.506 838.125 594.783 841.815 596.868 844.781L600.14 842.481C598.485 840.127 597.606 837.384 597.885 834.73L593.907 834.312Z" fill="black"></path><path d="M733.805 903.591C721.521 884.005 677.489 882.905 650.994 896.509C631.526 906.504 635.158 933.121 651.678 947.474C666.537 960.383 683.919 967.273 702.096 971.653C711.448 973.907 721.235 974.157 730.639 972.131C776.013 962.356 775.363 940.953 767.519 921.472C758.214 898.36 740.343 893.13 710.269 907.078" stroke="black" stroke-width="4" stroke-linecap="round"></path><path d="M858.029 946.741C814.714 924.09 787.34 938.032 759.778 966.542C755.122 971.358 755.16 979.076 760.142 983.554C778.292 999.868 790.161 998.355 817.923 1006.37C830.553 1010.02 843.809 1012.4 856.713 1009.88C880.288 1005.28 888.618 997.392 892.659 985.282C897.002 972.263 892.576 957.282 881.737 948.862C868.205 938.349 852.468 935.49 839.891 960.289" stroke="black" stroke-width="4" stroke-linecap="round"></path><path d="M1002.3 946.95C1003.38 947.19 1004.45 946.51 1004.69 945.432C1004.93 944.353 1004.25 943.285 1003.17 943.045L1002.3 946.95ZM1049.39 968.671L1051.26 967.965L1049.39 968.671ZM1046.42 963.854L1047.89 962.496L1046.42 963.854ZM979.503 1025.06L979.654 1023.07L979.503 1025.06ZM904.111 999.121L902.699 1000.54L904.111 999.121ZM1003.17 943.045C981.243 938.173 963.183 937.74 946.871 943.351C930.552 948.965 916.256 960.535 901.669 979.133L904.816 981.602C919.128 963.354 932.839 952.408 948.172 947.134C963.513 941.856 980.75 942.161 1002.3 946.95L1003.17 943.045ZM902.699 1000.54C922.609 1020.39 943.555 1024.34 979.351 1027.06L979.654 1023.07C943.966 1020.36 924.334 1016.46 905.523 997.704L902.699 1000.54ZM1000.6 1025.21C1015.3 1021.36 1026.42 1017.55 1034.68 1013.58C1042.93 1009.61 1048.48 1005.42 1051.84 1000.72C1058.7 991.14 1055.92 980.327 1051.26 967.965L1047.52 969.377C1052.24 981.879 1054.08 990.712 1048.59 998.391C1045.77 1002.32 1040.89 1006.16 1032.95 1009.98C1025.01 1013.79 1014.17 1017.53 999.593 1021.34L1000.6 1025.21ZM1047.89 962.496C1039.99 953.959 1032.45 947.943 1024.29 945.982C1015.98 943.985 1007.48 946.289 997.942 953.321L1000.32 956.54C1009.26 949.947 1016.56 948.238 1023.36 949.871C1030.31 951.542 1037.17 956.8 1044.96 965.212L1047.89 962.496ZM994.013 951.74C986.387 951.003 978.612 951.641 971.814 953.065L972.635 956.98C979.093 955.627 986.459 955.029 993.628 955.722L994.013 951.74ZM997.942 953.321C994.19 956.089 993.052 960.353 993.978 964.181C994.896 967.973 997.832 971.363 1002.17 972.633L1003.3 968.794C1000.37 967.939 998.458 965.685 997.866 963.24C997.283 960.832 997.976 958.267 1000.32 956.54L997.942 953.321ZM1051.26 967.965C1050.5 965.951 1049.36 964.086 1047.89 962.496L1044.96 965.212C1046.07 966.413 1046.94 967.832 1047.52 969.377L1051.26 967.965ZM979.351 1027.06C986.456 1027.6 993.686 1027.02 1000.6 1025.21L999.593 1021.34C993.128 1023.03 986.344 1023.58 979.654 1023.07L979.351 1027.06ZM1002.29 972.664C1005.96 973.499 1009.2 973.138 1010.87 970.736C1012.45 968.467 1011.82 965.458 1010.64 963.049C1008.18 958.034 1001.9 952.503 994.013 951.74L993.628 955.722C999.971 956.335 1005.12 960.883 1007.05 964.81C1008.06 966.871 1007.87 968.048 1007.58 968.451C1007.4 968.72 1006.48 969.516 1003.18 968.764L1002.29 972.664ZM901.669 979.133C896.67 985.506 896.859 994.716 902.699 1000.54L905.523 997.704C901.22 993.415 900.976 986.497 904.816 981.602L901.669 979.133Z" fill="black"></path><path d="M1143.08 936.281C1093.42 932.647 1073.68 943.226 1059.61 982.917C1057.47 988.937 1059.47 995.694 1064.63 999.447C1090.87 1018.51 1108.29 1015.61 1138.01 1011.51C1141.37 1011.04 1144.71 1010.18 1147.86 1008.92C1200.96 987.639 1192.81 984.159 1187.59 956.498C1186.83 952.468 1184.8 948.691 1181.37 946.45C1164.48 935.424 1147.92 936.68 1126.96 956.33" stroke="black" stroke-width="4" stroke-linecap="round"></path><path d="M1261.64 937.483C1234.01 932.352 1214.38 941.089 1201.5 974.226C1198.95 980.783 1201.65 988.176 1207.72 991.736C1234.09 1007.21 1250.66 1007.48 1274.69 1003.33C1279.11 1002.57 1283.41 1001 1287.28 998.725C1328.88 974.231 1324.17 960.955 1308.68 939.42C1307.76 938.134 1306.64 936.987 1305.34 936.086C1284.95 921.986 1257.34 921.169 1241.59 945.869" stroke="black" stroke-width="4" stroke-linecap="round"></path><path d="M1337.48 877.439C1318.17 874.513 1308.31 879.904 1303.7 896.645C1298.25 916.455 1310.65 937.889 1330.21 944.193C1341.89 947.959 1349.37 946.564 1361.63 943.276C1366.98 941.842 1372.02 939.369 1376.3 935.86C1405.61 911.833 1404.97 900.571 1395.68 881.395C1394.42 878.794 1392.41 876.618 1389.96 875.098C1369.09 862.193 1353.63 855.308 1324.4 871.773" stroke="black" stroke-width="4" stroke-linecap="round"></path><path d="M1287.02 794.808C1288.08 794.512 1288.7 793.409 1288.41 792.345C1288.11 791.281 1287.01 790.658 1285.95 790.955L1287.02 794.808ZM1313.8 811.65L1315.78 811.412L1313.8 811.65ZM1313.87 812.369L1311.88 812.528L1313.87 812.369ZM1304.72 815.211L1305.8 813.53L1304.72 815.211ZM1338.27 791.793L1339.37 790.12L1338.27 791.793ZM1334.82 790.091L1335.47 788.198L1334.82 790.091ZM1339.58 858.185L1340.49 859.967L1339.58 858.185ZM1347.54 852.71L1348.9 854.184L1347.54 852.71ZM1285.95 790.955C1269.84 795.44 1261.07 801.745 1257.61 811.973C1255.92 816.972 1255.57 822.732 1256.03 829.35C1256.5 835.97 1257.8 843.587 1259.53 852.342L1263.45 851.57C1261.73 842.833 1260.47 835.424 1260.02 829.068C1259.57 822.711 1259.95 817.546 1261.4 813.254C1264.22 804.9 1271.39 799.16 1287.02 794.808L1285.95 790.955ZM1272.05 865.86C1288.58 870.233 1300.54 871.434 1311.01 870.161C1321.48 868.887 1330.29 865.154 1340.49 859.967L1338.68 856.402C1328.6 861.527 1320.3 865.003 1310.52 866.191C1300.75 867.379 1289.33 866.295 1273.08 861.993L1272.05 865.86ZM1348.9 854.184C1366.42 838.102 1371.25 826.085 1367.17 815.62C1365.2 810.561 1361.24 806.196 1356.38 802.142C1351.52 798.082 1345.55 794.175 1339.37 790.12L1337.17 793.465C1343.41 797.555 1349.17 801.331 1353.82 805.214C1358.48 809.103 1361.84 812.942 1363.44 817.071C1366.52 824.983 1363.58 835.28 1346.19 851.237L1348.9 854.184ZM1335.47 788.198C1329.9 786.293 1325.04 784.973 1320.83 784.431C1316.63 783.889 1312.92 784.104 1309.75 785.412C1303.24 788.097 1299.97 794.908 1298.33 805.493L1302.28 806.106C1303.89 795.753 1306.85 790.933 1311.27 789.11C1313.57 788.164 1316.5 787.906 1320.32 788.398C1324.14 788.89 1328.71 790.113 1334.17 791.983L1335.47 788.198ZM1315.86 812.209C1315.84 811.948 1315.82 811.683 1315.78 811.412L1311.81 811.888C1311.84 812.11 1311.86 812.323 1311.88 812.528L1315.86 812.209ZM1305.17 801.921C1296.57 801.403 1290.18 802.728 1281.16 807.692L1283.09 811.196C1291.48 806.576 1297.12 805.444 1304.93 805.914L1305.17 801.921ZM1315.78 811.412C1315.13 805.963 1310.33 802.232 1305.17 801.921L1304.93 805.914C1308.48 806.128 1311.42 808.661 1311.81 811.888L1315.78 811.412ZM1303.64 816.892C1305.97 818.397 1308.91 818.996 1311.36 818.401C1312.61 818.097 1313.83 817.455 1314.71 816.35C1315.6 815.222 1315.99 813.792 1315.86 812.209L1311.88 812.528C1311.93 813.249 1311.75 813.639 1311.57 813.867C1311.37 814.119 1311.01 814.369 1310.42 814.513C1309.18 814.814 1307.35 814.53 1305.8 813.53L1303.64 816.892ZM1298.33 805.493C1297.62 810.065 1299.87 814.466 1303.64 816.892L1305.8 813.53C1303.24 811.878 1301.84 808.973 1302.28 806.106L1298.33 805.493ZM1339.37 790.12C1338.17 789.331 1336.85 788.672 1335.47 788.198L1334.17 791.983C1335.22 792.34 1336.23 792.846 1337.17 793.465L1339.37 790.12ZM1340.49 859.967C1343.52 858.426 1346.37 856.505 1348.9 854.184L1346.19 851.237C1343.96 853.29 1341.41 855.01 1338.68 856.402L1340.49 859.967ZM1259.53 852.342C1260.8 858.824 1265.61 864.154 1272.05 865.86L1273.08 861.993C1268.17 860.694 1264.44 856.609 1263.45 851.57L1259.53 852.342Z" fill="black"></path><path d="M1268.74 737.707C1243.73 724.799 1240.51 743.032 1249.17 769.172C1250.55 773.324 1253.77 776.631 1257.89 778.102C1279.88 785.953 1292.97 783.469 1305.04 779.407C1312.03 777.053 1318.46 772.867 1322.55 766.728C1332.42 751.92 1327.13 744.63 1309.55 732.402C1308.79 731.875 1307.98 731.408 1307.13 731.042C1287.15 722.416 1259.53 722.343 1256.97 737.707" stroke="black" stroke-width="4" stroke-linecap="round"></path><path d="M805.372 748.423C828.025 750.459 842.075 753.326 857.864 761.098C860.661 762.475 863.535 763.702 866.516 764.614L906.633 776.889C915.639 779.644 925.256 779.689 934.287 777.019L1178.53 704.806C1193.28 700.445 1209.88 702.658 1221.01 713.282C1226.91 718.919 1232.78 725.889 1238.64 735.762C1241.99 741.409 1243.64 747.893 1243.94 754.45C1244.71 770.883 1244.56 782.007 1243.12 791.31C1241.52 801.618 1234.36 809.978 1225.3 815.16C1198.25 830.645 1177.75 836.789 1148.57 846.202C1144.41 847.545 1140.45 849.466 1136.81 851.892L1090.45 882.802C1084.13 887.012 1076.91 889.665 1069.37 890.542L832.29 918.124C801.839 921.667 776.221 891.331 782.56 861.336C783.499 856.892 784.453 852.346 785.431 847.703C787.061 839.968 782.314 832.308 774.654 830.355C769.413 829.019 765.254 824.928 764.201 819.623C762.87 812.916 762.107 806.39 761.829 797.601C761.491 786.922 765.32 776.503 772.194 768.324C783.316 755.094 792.02 747.462 805.372 748.423Z" fill="white"></path><path d="M1183.7 925.384C1183.7 925.384 1077.17 915.032 1033.77 896.181C1001.08 859.568 1079.97 859.133 1123.12 851.723C1169.45 843.767 1229.47 782.421 1257.14 868.048C1274.95 923.152 1218.74 931.972 1183.7 925.384Z" fill="#F8F8F8"></path><path d="M1223.77 833.011L1224.17 831.051L1224.17 831.051L1223.77 833.011ZM804.502 752.782L804.819 750.807L804.412 750.742L804.012 750.843L804.502 752.782ZM778.203 826.951L777.417 828.79L777.544 828.844L777.679 828.881L778.203 826.951ZM1156.34 919.753L1155.91 921.707L1155.94 921.713L1155.97 921.719L1156.34 919.753ZM1228.8 865.239C1229.05 864.161 1228.37 863.091 1227.29 862.848C1226.22 862.605 1225.15 863.282 1224.9 864.359L1228.8 865.239ZM1208.46 877.576L1208.65 875.585L1208.46 877.576ZM1183.66 912.466L1182.52 914.11L1183.66 912.466ZM1205.62 916.444L1204.73 914.649L1205.62 916.444ZM1184.7 848.434L1183.22 847.086L1184.7 848.434ZM1170.11 896.228L1168.17 896.709L1170.11 896.228ZM804.012 750.843C781.045 756.652 769.966 774.215 766.761 791.069C765.161 799.478 765.498 807.796 767.325 814.523C769.123 821.142 772.508 826.692 777.417 828.79L778.989 825.112C775.769 823.736 772.868 819.671 771.185 813.474C769.531 807.386 769.193 799.686 770.69 791.816C773.678 776.109 783.877 760.062 804.993 754.721L804.012 750.843ZM1155.97 921.719C1175.96 925.47 1191.98 927.014 1204.57 926.491L1204.4 922.495C1192.23 923 1176.54 921.51 1156.71 917.788L1155.97 921.719ZM1250.12 859.572C1246.87 845.396 1237.89 833.844 1224.17 831.051L1223.37 834.971C1235.09 837.356 1243.2 847.293 1246.22 860.468L1250.12 859.572ZM1223.96 831.02C1205.55 829.206 1192.97 836.403 1183.22 847.086L1186.18 849.782C1195.26 839.826 1206.67 833.336 1223.57 835.001L1223.96 831.02ZM1168.17 896.709C1170.34 905.494 1175.44 909.206 1182.52 914.11L1184.8 910.821C1177.74 905.931 1173.83 902.955 1172.05 895.747L1168.17 896.709ZM1206.5 918.238C1213.71 914.693 1220.18 908.903 1224.73 902.786L1221.52 900.397C1217.29 906.08 1211.3 911.422 1204.73 914.649L1206.5 918.238ZM1208.65 875.585C1198.18 874.568 1189.95 876.183 1185.1 880.138L1187.63 883.237C1191.26 880.274 1198.18 878.588 1208.26 879.567L1208.65 875.585ZM1203.54 895.103C1209.5 893.209 1214.76 890.864 1219.07 886.305C1223.38 881.754 1226.56 875.2 1228.8 865.239L1224.9 864.359C1222.75 873.929 1219.8 879.718 1216.17 883.555C1212.54 887.385 1208.05 889.473 1202.33 891.291L1203.54 895.103ZM852.781 758.682C837.389 756.093 821.447 753.473 804.819 750.807L804.186 754.757C820.804 757.421 836.736 760.039 852.117 762.627L852.781 758.682ZM777.679 828.881C785.305 830.952 792.758 832.971 800.055 834.942L801.098 831.08C793.802 829.11 786.351 827.092 778.727 825.021L777.679 828.881ZM988.841 883.583C1039.35 895.769 1091.45 907.599 1155.91 921.707L1156.76 917.8C1092.32 903.695 1040.26 891.872 989.779 879.695L988.841 883.583ZM1224.17 831.051C1214.04 828.989 1204.16 826.971 1194.5 824.992L1193.69 828.91C1203.36 830.89 1213.24 832.909 1223.37 834.971L1224.17 831.051ZM1185.1 880.138C1182.63 882.155 1181.47 884.635 1182.04 887.243C1182.57 889.652 1184.46 891.567 1186.62 892.915C1190.96 895.626 1197.79 896.929 1203.54 895.103L1202.33 891.291C1197.81 892.726 1192.19 891.678 1188.74 889.521C1187 888.435 1186.15 887.286 1185.95 886.39C1185.8 885.692 1185.94 884.623 1187.63 883.237L1185.1 880.138ZM1224.73 902.786C1229.25 896.712 1228.9 890.108 1225.45 884.934C1222.07 879.867 1215.82 876.282 1208.65 875.585L1208.26 879.567C1214.41 880.164 1219.5 883.219 1222.12 887.153C1224.67 890.98 1224.99 895.736 1221.52 900.397L1224.73 902.786ZM1182.52 914.11C1189.27 918.781 1198.3 922.272 1206.5 918.238L1204.73 914.649C1198.56 917.683 1191.22 915.268 1184.8 910.821L1182.52 914.11ZM1183.22 847.086C1171.24 860.223 1163.79 879.043 1168.17 896.709L1172.05 895.747C1168.09 879.758 1174.79 862.26 1186.18 849.782L1183.22 847.086ZM1204.57 926.491C1220.34 925.837 1233.48 916.574 1241.77 903.849C1250.05 891.133 1253.62 874.776 1250.12 859.572L1246.22 860.468C1249.45 874.512 1246.17 889.769 1238.42 901.667C1230.68 913.555 1218.61 921.905 1204.4 922.495L1204.57 926.491Z" fill="black"></path><path d="M795.187 778.96C811.48 778.96 851.432 787.748 872.499 794.189M816.272 808.573C802.998 804.919 794.915 808.573 785.713 802.236M1100.02 883.977C1118.57 890.187 1128.81 891.227 1147.09 893.566" stroke="black" stroke-width="4"></path><path d="M1021.12 881.797C1021.12 881.797 869.392 927.451 808.423 921.025C746.54 860.332 871.188 849.544 967.077 845.621C1020.62 843.43 1056.43 807.265 1123.55 830.801C1178.47 830.802 1061.84 876.289 1021.12 881.797Z" fill="#F8F8F8"></path><path d="M1191.17 706.733C1039.87 751.59 955.295 773.885 803.219 827.329C771.006 860.726 798.836 916.231 825.859 916.231C971.39 885.005 1033.93 869.731 1175.73 830.377C1197.15 823.599 1212.01 817.698 1221.73 811.496C1243.07 797.87 1238.17 765.857 1229.9 741.924C1221.93 718.893 1207.1 702.01 1191.17 706.733ZM1191.17 706.733C1172.61 714.798 1166.29 731.198 1164.1 749.934C1162.41 764.429 1165.38 779.092 1170.87 792.613C1176.48 806.418 1179.88 811.222 1187.49 814.46C1196.16 818.148 1206.71 815.907 1211.23 807.641C1214.43 801.794 1216.57 794.816 1217.59 788.026C1220.05 771.577 1202.01 762.559 1188.88 772.757C1184.2 776.387 1182.77 780.09 1183.54 783.82C1186.02 795.828 1204.05 792.774 1209.45 781.762C1218.18 763.927 1220.75 742.839 1199.95 733.284" stroke="black" stroke-width="4" stroke-linecap="round"></path><path d="M807.199 853.466C855.218 835.819 892.773 826.177 913.882 822.471M840.243 880.49C827.139 883.247 824.116 888.997 811.082 888.997" stroke="black" stroke-width="4"></path><path d="M1203.74 552.653C1210.14 554.345 1215.36 559.311 1216.51 565.833C1241.29 706.791 1203.68 807.781 1028.89 834.289C879.56 856.934 700.117 661.159 731.145 551.39C733.343 543.612 740.034 538.089 747.603 535.254C889.811 482.001 754.647 402.714 792.325 328.191C796.958 319.028 808.753 317.392 817.718 322.396C944.21 393.012 875.407 282.542 1013.28 264.234C1025.99 262.546 1035.25 275.407 1031.52 287.671C995.425 406.326 1076.93 360.066 1169.47 369.106C1189.55 371.068 1192.85 401.781 1180.35 417.619C1145.1 462.299 1130.84 533.385 1203.74 552.653Z" fill="#FF0266"></path><path d="M979.195 812.059C905.645 787.655 866.744 767.601 817.055 709.196C792.211 679.993 776.463 625.082 785.236 578.872C795.166 526.569 845.956 527.707 852.359 451.165C855.503 413.201 850.49 388.554 825.772 357.454C904.603 375.381 915.511 408.027 924.277 489.085C944.954 456.354 953.627 440.597 935.299 383.473C931.439 371.444 929.14 358.597 932.582 346.442C942.024 313.095 966.391 297.845 998.373 293.382C982.682 372.273 992.221 387.036 1037.16 451.165C1048.5 384.042 1105.16 384.477 1164.44 388.4C1113.56 420.613 1099.44 441.101 1104.07 475.274C1106.01 489.549 1112.54 502.703 1119.85 515.118C1141.31 551.578 1154.26 579.194 1163.58 614.667C1169.81 638.406 1171.33 663.343 1166.83 687.47C1151.64 768.732 1104.61 798.214 979.195 812.059ZM979.195 812.059C946.765 703.077 1019.38 673.958 1063.55 606.049C1074.62 589.031 1060.57 565.895 1040.79 570.484V570.484C998.196 580.369 1010.12 638.554 1027.12 678.838C1033.4 693.71 1038.76 709.898 1041.35 726.352C1043.14 737.715 1028.93 741.491 1021.42 732.78C961.471 663.269 855.808 636.843 936.046 703.965C950.958 716.44 907.693 635.579 905.41 575.284C904.39 548.358 939.358 529.785 954.553 552.038C957.543 556.417 958.431 561.452 957.202 567.44C951.848 593.533 913.11 589.057 887.965 597.845C873.842 602.78 865.021 615.996 868.05 631.612" stroke="black" stroke-width="4" stroke-linecap="round"></path><ellipse cx="1225.49" cy="166.5" rx="203.812" ry="115.984" transform="rotate(-15.5929 1225.49 166.5)" fill="#FFDE03"></ellipse><path d="M1442.18 155.582H1182.23C1168 155.582 1153.17 153.387 1142.41 144.068C1126.67 130.425 1122.94 112.943 1128.59 94.3277C1133.48 78.2319 1148.8 66.2012 1165.59 67.3497C1185.02 68.6795 1195.51 81.6592 1195.51 99.6914" stroke="black" stroke-width="4" stroke-linecap="round"></path><path d="M1120.71 161.466L1064.76 161.466C1050 161.466 1033.56 159.64 1024.89 147.696C1020.24 141.287 1018.46 134.013 1019.16 126.3C1020.68 109.373 1038.6 94.3608 1054.07 101.382C1061.79 104.883 1065.88 112.475 1065.88 122.119" stroke="black" stroke-width="4" stroke-linecap="round"></path><path d="M1388.19 222.398L1218.38 222.398C1211.14 222.398 1203.43 224.079 1199.24 229.995C1189.35 243.976 1198.11 261.901 1215.68 261.901" stroke="black" stroke-width="4" stroke-linecap="round"></path><path d="M1412.77 187.519H1140.97C1130.37 187.519 1119.55 188.76 1110.43 194.132C1078.8 212.739 1070.58 249.893 1085.95 278.391C1087.93 282.061 1090.56 285.359 1093.74 288.059C1114.72 305.886 1144.3 305.255 1158.92 286.623C1163.47 280.833 1164.48 275.938 1165.99 268.733V268.733C1169.93 249.819 1152.84 228.445 1133.52 228.761C1123.92 228.917 1116.75 233.242 1111.88 240.889" stroke="black" stroke-width="4" stroke-linecap="round"></path></svg>