<svg xmlns="http://www.w3.org/2000/svg" width="1024" height="596" viewBox="0 0 1024 596" fill="none"><g clip-path="url(#clip0_866_9045)"><mask id="mask0_866_9045" style="mask-type:alpha" maskUnits="userSpaceOnUse" x="73" y="-11" width="858" height="566"><rect x="73" y="-11" width="858" height="566" fill="#C4C4C4"></rect></mask><g mask="url(#mask0_866_9045)"><path d="M626.403 181.889C624.542 185.799 625.473 191.65 626.318 195.672C627.787 202.101 630.028 208.256 632.976 213.955C634.873 217.808 637.108 221.409 638.909 225.318C640.716 229.312 642.177 233.505 643.27 237.835C645.318 246.368 646.602 255.125 647.101 263.966C647.826 273.81 648.309 283.767 648.442 293.682C648.853 313.569 648.442 333.455 648.019 353.327C647.814 363.284 647.947 373.227 647.874 383.184C647.802 393.141 647.234 403.042 644.249 412.352C643.838 413.618 645.59 414.167 646.001 412.901C651.221 396.812 649.384 379.148 649.686 362.271C650.037 342.399 650.605 322.541 650.423 302.669C650.339 292.74 650.073 282.811 649.529 272.896C649.164 263.88 648.288 254.902 646.907 246.02C645.626 237.725 643.176 229.732 639.658 222.365C637.712 218.469 635.477 214.785 633.616 210.805C632.104 207.634 630.784 204.345 629.665 200.96C628.1 196.555 627.308 191.831 627.333 187.065C627.367 185.995 627.504 184.934 627.744 183.9C627.744 183.732 627.986 183.113 627.95 183.197C627.913 183.282 627.95 183.099 628.022 183.029C628.59 181.847 627.019 180.778 626.463 181.96L626.403 181.889Z" fill="black"></path><path d="M649.3 395.659C657.44 356.434 658.137 315.616 651.343 276.046C649.639 266.286 647.246 256.793 644.83 247.244C642.854 239.526 639.774 232.251 635.72 225.726C627.527 212.464 616.049 202.31 603.652 194.884C602.319 193.947 600.906 193.174 599.435 192.578C598.138 192.22 596.804 192.078 595.472 192.156C592.895 192.163 590.384 193.113 588.295 194.87C587.221 195.806 586.387 197.066 585.884 198.514C585.382 199.961 585.229 201.542 585.443 203.084C585.794 205.812 587.002 208.456 589.527 208.976C590.92 209.207 592.34 209.053 593.672 208.526C595.057 207.782 596.237 206.603 597.079 205.123C597.899 203.936 598.397 202.492 598.511 200.975C598.625 199.457 598.35 197.935 597.72 196.6C596.415 193.675 593.901 191.65 591.497 190.046C590.015 188.986 588.376 188.256 586.664 187.895C584.564 187.483 582.437 187.294 580.308 187.332C574.018 187.438 567.827 189.173 562.184 192.409C557.496 195.222 551.962 199.905 550.428 206.065C549.473 209.862 551.527 213.378 554.053 215.474C557.388 218.188 561.629 219.369 565.58 220.199C574.554 221.996 583.698 222.341 592.754 221.226C597.997 220.635 603.108 219.088 608.376 218.652C613.463 218.09 618.594 218.566 623.54 220.059C630.004 222.21 635.164 227.442 641.495 229.903C648.745 232.716 656.562 230.972 663.389 227.484C673.973 221.95 683.688 214.397 692.134 205.137C696.49 200.571 700.323 195.371 703.54 189.667C704.998 186.955 706.212 184.075 707.164 181.074C707.656 179.877 707.888 178.559 707.841 177.234C707.689 175.844 707.277 174.509 706.633 173.325C705.916 171.981 704.94 170.85 703.782 170.023C702.625 169.195 701.317 168.693 699.963 168.557C696.665 168.233 693.33 170.329 690.647 172.382C685.246 176.531 681.779 182.705 678.565 189.09C675.677 194.898 672.995 200.847 669.732 206.374C666.808 211.339 663.256 216.346 658.471 218.933C656.094 220.213 653.466 220.733 650.859 220.438C649.917 220.34 647.73 220.185 647.162 219.383C646.673 218.354 646.334 217.237 646.159 216.078C645.913 215.056 645.716 214.018 645.567 212.97C644.359 204.265 646.932 195.419 650.4 187.824C652.183 183.984 654.202 180.3 656.441 176.798C658.586 173.094 661.083 169.683 663.884 166.63C666.558 163.944 670.024 162.573 673.55 162.805C675.139 162.929 676.674 163.525 678.009 164.535C679.556 165.8 679.749 168.416 679.217 170.385C678.142 174.604 674.686 176.855 671.255 177.712C666.796 178.838 662.253 177.248 658.157 175.223C656.096 174.216 654.08 173.089 652.116 171.848C650.293 170.581 648.613 169.055 647.114 167.305C644.199 164.322 641.941 160.571 640.528 156.364C639.598 153.213 638.922 147.785 641.362 145.281C642.408 144.361 643.686 143.869 644.997 143.881C646.308 143.894 647.579 144.411 648.612 145.352C649.628 146.498 650.423 147.884 650.944 149.416C651.708 151.282 652.296 153.239 652.696 155.253C653.476 159.322 653.68 163.511 653.3 167.657C652.718 175.235 650.575 182.539 647.053 188.949L648.261 188.57C639.187 183.296 627.721 177.994 622.815 166.926C621.533 164.044 620.862 160.847 620.858 157.601C620.731 156.363 620.938 155.11 621.45 154.015C622.178 152.897 623.187 152.071 624.338 151.652C625.602 151.109 626.998 151.159 628.231 151.792C629.464 152.424 630.438 153.589 630.947 155.042C631.538 156.7 631.792 158.495 631.687 160.286C631.582 162.077 631.122 163.815 630.343 165.364C626.597 173.578 617.523 174.675 610.418 173.212C606.88 172.358 603.395 171.221 599.991 169.809C596.366 168.501 592.886 167.122 589.31 165.871C585.552 164.577 581.746 163.424 577.928 162.355C575.028 161.553 570.787 160.864 570.002 156.8C569.811 155.216 569.954 153.602 570.42 152.098C570.885 150.593 571.658 149.243 572.672 148.164C574.738 145.9 578.375 146.055 581.033 146.336C586.935 147.138 592.382 150.419 596.354 155.562C600.112 160.33 603.386 167.98 602.057 174.633C601.316 178.18 599.692 181.394 597.387 183.871C595.083 186.348 592.202 187.978 589.105 188.556C582.416 189.842 575.552 188.941 569.277 185.954C566.159 184.446 563.219 182.48 560.529 180.103C559.163 178.901 557.864 177.6 556.638 176.208C555.205 174.895 554.052 173.216 553.267 171.299C552.313 168.079 554.403 165.069 556.554 163.325C558.68 161.572 561.286 160.791 563.876 161.131C577.082 162.355 589.141 169.57 599.58 178.753C610.02 187.937 619.384 199.329 628.434 210.565C630.125 212.661 632.36 214.546 634.898 213.266C637.181 212.112 638.523 209.243 639.429 206.684C641.845 199.835 638.958 193.183 634.85 188.148C632.724 185.563 630.281 183.359 627.6 181.608C626.585 180.947 625.667 182.775 626.694 183.436C629.922 185.525 632.769 188.324 635.079 191.678C637.29 194.955 639.248 199.427 638.366 203.702C637.81 206.403 636.094 211.634 633.134 211.592C631.273 211.592 629.944 209.356 628.784 207.936L625.051 203.323C615.058 191.101 604.51 179.034 592.053 170.259C585.922 165.83 579.231 162.551 572.225 160.541C568.89 159.523 565.462 158.971 562.015 158.895C559.386 159.062 556.874 160.211 554.85 162.172C553.81 163.022 552.946 164.131 552.319 165.417C551.692 166.704 551.318 168.137 551.225 169.612C551.225 173.564 554.149 176.461 556.445 178.88C561.772 184.58 568.307 188.527 575.379 190.314C578.909 191.165 582.526 191.431 586.12 191.101C589.478 190.967 592.764 189.922 595.714 188.049C598.508 186.062 600.781 183.221 602.287 179.836C603.774 176.624 604.35 172.946 603.93 169.33C602.42 154.999 590.144 143.284 577.795 144.17C574.823 144.381 572.37 145.07 570.473 147.897C568.763 150.319 567.93 153.422 568.153 156.547C568.576 160.33 571.246 162.425 574.194 163.452C578.158 164.858 582.254 165.73 586.277 167.038C590.301 168.346 594.179 169.851 598.106 171.257C601.986 172.892 605.959 174.213 609.995 175.209C617.1 176.616 626.053 175.884 630.741 168.627C634.064 163.48 635.297 154.099 629.751 150.19C625.703 147.377 619.384 150.457 619.142 156.153C618.514 171.004 629.714 179.794 639.767 185.898C642.292 187.431 644.866 188.865 647.416 190.342C647.62 190.466 647.857 190.497 648.08 190.43C648.304 190.362 648.497 190.201 648.624 189.976C655.402 177.839 658.29 159.598 651.717 146.561C651.171 145.33 650.383 144.267 649.417 143.458C648.451 142.649 647.335 142.117 646.159 141.906C645.054 141.668 643.917 141.732 642.837 142.093C641.757 142.455 640.764 143.103 639.936 143.988C637.979 146.294 637.798 150.26 638.136 153.298C638.708 157.348 640.187 161.152 642.425 164.324C647.259 171.623 654.315 176.306 661.842 178.936C668.27 181.186 677.054 180.511 680.486 172.65C681.694 169.837 681.948 165.772 679.906 163.381C677.864 160.991 674.275 160.4 671.629 160.667C664.513 161.384 660.223 167.783 656.163 173.901C647.887 186.39 639.743 203.646 645.386 219.651C645.639 220.382 645.784 221.057 646.401 221.395C646.985 221.683 647.598 221.886 648.225 221.999C649.547 222.372 650.901 222.57 652.261 222.59C654.768 222.611 657.246 221.972 659.51 220.719C664.138 218.202 667.654 213.519 670.578 208.793C673.76 203.35 676.696 197.717 679.374 191.917C682.48 185.574 685.706 179.077 690.925 174.759C693.717 172.467 697.462 169.823 700.99 170.821C702.333 171.209 703.545 172.057 704.469 173.256C705.393 174.454 705.987 175.948 706.174 177.544C706.086 178.958 705.74 180.334 705.159 181.58C704.622 183.116 704 184.61 703.298 186.052C701.859 189.03 700.197 191.853 698.332 194.491C690.732 205.362 680.788 214.18 670.361 221.057C663.111 225.853 655.269 230.002 646.703 229.045C640.093 228.3 635.031 223.42 629.195 220.269C619.855 215.263 609.452 215.797 599.544 217.808C595.787 218.635 591.99 219.19 588.174 219.468C583.539 219.726 578.895 219.66 574.267 219.271C569.519 218.992 564.817 218.048 560.263 216.458C557.351 215.361 553.594 213.645 552.361 210.003C550.416 204.307 556.928 198.611 560.396 195.939C565.473 192.314 571.208 190.123 577.143 189.54C581.094 189.09 586.035 188.865 589.612 191.087C592.173 192.676 595.279 194.744 596.427 198.049C596.668 198.894 596.76 199.787 596.698 200.675C596.635 201.563 596.419 202.427 596.063 203.215C595.706 204.003 595.216 204.699 594.623 205.262C594.029 205.824 593.344 206.241 592.608 206.487C591.159 206.853 589.407 207.162 588.319 205.699C587.483 204.325 587.086 202.653 587.195 200.974C587.352 197.444 590.337 195.222 592.983 194.477C594.279 194.138 595.609 194.014 596.934 194.111C598.574 194.279 600.162 194.865 601.586 195.827C607.932 199.464 613.936 203.857 619.505 208.934C630.379 218.947 639.199 232.041 643.163 247.623C645.579 257.398 647.996 267.088 649.784 277.087C651.481 286.984 652.691 296.986 653.409 307.043C654.825 326.791 654.42 346.66 652.2 366.308C651.098 375.933 649.569 385.486 647.621 394.928C647.355 396.25 649.095 396.812 649.373 395.49L649.3 395.659Z" fill="black"></path><path d="M643.355 418.836C642.533 410.51 646.049 402.592 651.595 397.459C654.425 394.696 657.858 392.901 661.512 392.273C665.166 391.645 668.898 392.208 672.293 393.901C679.76 397.712 685.511 404.997 692.326 410.074C699.504 415.54 707.527 419.328 715.948 421.227C730.725 424.349 746.541 419.933 757.27 407.276C762.695 400.741 766.263 392.425 767.492 383.451C769.148 372.58 769.281 361.287 769.716 350.289C770.622 327.182 770.791 304.061 770.791 280.941C770.791 258.776 770.791 236.598 770.38 214.419C769.498 171.131 766.477 127.336 755.18 85.8339C753.972 81.3616 752.389 76.9596 751.483 72.3748C750.734 68.5776 750.202 63.599 752.691 60.4487C755.349 57.0453 761.258 56.9328 764.858 57.861C768.459 58.7892 772.869 63.2615 770.791 68.0994C769.849 70.2934 767.661 71.3622 765.849 72.3186C763.626 73.5562 761.379 74.7094 759.083 75.7642C755.069 77.6487 750.942 79.1858 746.734 80.363C738.204 82.6836 729.106 83.1758 720.757 79.6739C717.313 78.2676 713.918 75.8486 712.649 71.6013C712.309 70.7955 712.227 69.8743 712.42 69.0048C712.613 68.1353 713.067 67.375 713.7 66.8618C715.368 65.6383 717.893 65.9195 719.742 66.018C727.715 66.5599 735.332 70.0424 741.491 75.9611C754.781 88.4497 759.482 109.222 756.799 128.363C755.651 136.492 752.848 149.458 743.387 146.561C734.374 143.847 732.513 132.23 731.921 122.948C731.691 119.095 731.377 114.805 732.851 111.205C734.325 107.605 737.769 106.719 739.992 109.799C742.215 112.879 742.711 117.112 742.747 120.782C742.876 124.538 742.379 128.286 741.285 131.822C740.077 135.395 737.467 138.362 733.915 137.603C730.362 136.843 727.873 132.441 726.206 128.897C724.164 124.397 722.654 119.517 720.95 114.833C719.113 109.756 717.325 104.679 715.428 99.6164C712.709 92.2188 709.145 83.443 702.137 80.4756C697.05 78.3097 689.861 79.5895 687.227 85.7354C685.548 89.6592 686.393 94.0612 687.868 97.8724C689.666 102.09 691.684 106.176 693.909 110.108C698.005 117.998 702.234 125.803 706.886 133.271C715.718 147.461 726.218 160.709 739.593 169.176C746.746 173.704 754.781 177.445 762.877 174.154C770.743 170.962 776.856 163.48 782.463 156.631C788.636 149.122 794.346 141.114 799.548 132.666C803.692 125.859 807.812 116.352 802.943 108.547C802.047 107.092 800.846 105.928 799.455 105.165C798.063 104.402 796.527 104.065 794.993 104.187C791.489 104.511 788.371 107 785.955 109.813C783.233 113.112 781.087 116.995 779.635 121.246C778.137 125.395 777.146 130.219 778.319 134.649C778.779 136.515 779.611 138.229 780.747 139.651C781.883 141.073 783.29 142.163 784.855 142.834C788.347 144.142 791.549 142.103 794.219 139.628C802.001 132.399 809.444 124.622 817.031 117.126L839.602 94.694L851.407 83.0352C854.464 80.0115 858.125 77.1002 860.275 73.0639C864.263 65.5961 858.608 57.9032 851.817 57.7204C847.673 57.6079 843.77 59.7174 840.218 61.9395C836.714 63.9762 833.506 66.6383 830.709 69.8293C826.009 75.5673 823.568 85.3838 828.631 91.8953C831.047 95.0175 834.672 96.4379 838.067 97.6755C841.861 99.0819 845.704 100.301 849.594 101.332C864.359 105.228 879.934 106.522 894.868 103.034C902.183 101.385 909.223 98.3846 915.723 94.1455C918.873 92.0659 921.854 89.6557 924.628 86.9449C925.836 85.8339 926.972 84.554 926.754 82.6414C926.56 81.772 926.199 80.965 925.699 80.2807C925.199 79.5964 924.573 79.0524 923.866 78.6894C909.367 68.6479 890.929 72.2483 875.391 76.5096C866.679 78.8864 858.076 81.685 849.316 83.7665C839.623 86.1007 829.806 87.6748 819.931 88.4778C810.216 89.2612 800.461 89.0588 790.776 87.8731C786.474 87.3246 781.641 86.7902 778.041 83.654C774.718 80.8412 772.748 75.4689 775.322 71.1794C777.739 67.1994 782.402 65.5539 786.366 65.2867C790.419 65.0354 794.46 66.0041 798.098 68.0994C805.674 72.4592 810.688 81.0803 812.911 90.3764C815.162 99.8598 814.708 109.937 811.618 119.095C808.392 128.531 802.085 135.409 795.536 141.808C789.35 147.855 783.321 153.888 778.222 161.244C773.528 168.043 769.508 175.435 766.236 183.282C759.544 199.724 755.33 217.382 753.779 235.486C749.61 278.719 758.43 321.726 763.988 364.226C765.197 373.551 766.659 383.058 766.079 392.523C765.571 400.595 763.263 409.076 757.017 413.52C753.863 415.77 750.057 417.078 747.846 420.749C746.034 423.758 745.719 427.78 748.063 430.481C749.495 431.925 751.088 433.136 752.8 434.081C754.902 435.441 757.037 436.72 759.204 437.92C763.081 440.054 767.059 441.932 771.117 443.546C786.45 449.636 803.861 452.589 819.943 449.171C826.78 447.927 833.284 444.887 838.961 440.283C841.493 438.152 843.716 435.565 845.547 432.618C847.431 429.553 849.727 425.179 849.051 421.227C848.374 417.275 844.338 415.798 841.414 414.434C828.954 408.698 815.666 405.791 802.266 405.869C802.026 405.869 801.796 405.98 801.626 406.178C801.456 406.376 801.36 406.644 801.36 406.924C801.36 407.204 801.456 407.472 801.626 407.67C801.796 407.868 802.026 407.979 802.266 407.979C811.741 407.929 821.177 409.391 830.31 412.324C834.848 413.757 839.29 415.572 843.601 417.753C845.885 418.934 847.734 420.411 847.226 423.73C846.804 425.908 846.033 427.974 844.955 429.82C837.391 444.109 821.055 448.271 807.631 448.37C789.473 448.547 771.56 443.483 755.494 433.631C751.99 431.451 746.154 428.695 748.837 422.957C750.855 418.667 755.47 417.514 758.72 414.898C764.097 410.566 766.647 403.422 767.517 396.109C768.531 387.671 767.517 379.092 766.538 370.668C765.148 359.304 763.493 347.997 761.862 336.689C758.624 314.187 755.434 291.685 754.612 268.888C753.332 232.322 758.938 192.775 779.08 163.41C784.112 156.411 789.739 150.021 795.875 144.339C802.146 138.235 808.417 131.794 812.053 123.089C818.844 106.859 817.092 84.7791 805.565 71.9529C802.894 68.9301 799.696 66.612 796.187 65.1559C792.678 63.6999 788.941 63.1401 785.23 63.5146C778.923 64.3022 770.658 69.2105 772.422 78.0847C774.319 87.5778 783.732 89.3357 790.679 90.1796C800.364 91.3653 810.119 91.5676 819.835 90.7843C829.219 90.0184 838.553 88.5669 847.782 86.4386C856.82 84.3712 865.688 81.5444 874.63 79.0551C882.93 76.7346 891.388 74.7375 900.003 74.5969C904.327 74.4779 908.647 74.9977 912.859 76.1439C914.635 76.6338 916.379 77.2683 918.079 78.0425C920 78.9145 922.912 80.0677 924.35 81.9382C926.041 84.2024 921.933 86.9168 920.725 88.0559C919.227 89.3404 917.688 90.5358 916.109 91.6422C912.815 93.9455 909.344 95.8898 905.742 97.4505C898.596 100.497 891.107 102.321 883.51 102.865C868.02 104.103 852.264 101.093 837.596 95.4816C833.778 94.0752 829.634 91.9657 828.22 87.1699C827.629 84.8685 827.52 82.4363 827.9 80.0756C828.281 77.7149 829.14 75.4942 830.407 73.5984C832.896 69.6043 836.533 66.8196 840.182 64.4429C844.012 61.9536 848.543 59.1408 853.098 59.9846C856.723 60.6878 860.614 64.3585 859.792 69.112C858.97 73.8656 854.234 77.5503 851.177 80.574L828.595 102.879L805.505 125.691C801.747 129.417 798.001 133.144 794.219 136.843C790.921 140.078 786.861 142.989 782.97 139.121C775.721 131.949 781.653 118.026 786.885 111.669C789.435 108.575 793.108 105.453 797.022 106.325C800.937 107.197 803.064 111.655 803.33 116.015C803.608 121.19 801.276 125.958 798.847 130.078C796.189 134.621 793.277 138.981 790.28 143.242C784.808 151.318 778.682 158.763 771.987 165.477C768.726 168.827 764.868 171.296 760.69 172.706C756.086 174.112 751.519 172.973 747.181 170.962C739.962 167.469 733.281 162.629 727.402 156.631C715.525 144.789 706.499 129.6 698.319 114.243C696.193 110.263 694.126 106.24 692.072 102.218C689.897 97.999 686.985 92.472 688.689 87.3387C691.226 79.6739 700.651 80.5599 705.194 84.8213C708.23 87.9555 710.628 91.8373 712.214 96.1848C714.099 100.77 715.706 105.523 717.398 110.249C719.282 115.424 721.159 120.581 723.028 125.719C724.254 129.508 726.068 133.003 728.381 136.027C729.375 137.373 730.644 138.405 732.072 139.027C733.5 139.649 735.04 139.841 736.549 139.586C737.856 139.242 739.076 138.548 740.112 137.559C741.148 136.571 741.972 135.314 742.518 133.89C745.078 127.287 745.431 119.81 743.508 112.921C742.687 110.108 741.261 107.155 738.675 106.114C737.49 105.669 736.215 105.67 735.031 106.116C733.846 106.563 732.813 107.433 732.078 108.603C730.314 111.303 729.939 115.044 729.915 118.321C729.893 122.957 730.298 127.582 731.123 132.118C732.61 140.092 737.02 147.813 744.499 148.91C752.28 150.049 755.99 141.878 757.597 134.34C761.439 116.268 759.095 95.7347 748.643 81.1506C743.912 74.5619 737.792 69.517 730.882 66.5102C727.463 65.0377 723.876 64.1609 720.237 63.9084C717.228 63.7115 712.879 63.3881 711.103 66.904C709.713 69.6324 710.873 73.0358 712.311 75.3423C714.314 78.3492 717.078 80.5481 720.213 81.6288C728.115 84.9057 736.73 84.7791 744.874 82.8945C753.175 80.9895 761.182 77.6424 768.628 72.9655C771.492 71.1372 773.461 68.1979 772.893 64.246C772.551 62.3103 771.758 60.5216 770.601 59.0754C769.444 57.6293 767.967 56.5815 766.332 56.0468C762.607 54.8152 758.653 54.8886 754.963 56.2577C753.56 56.7728 752.299 57.7121 751.31 58.9796C750.321 60.2471 749.638 61.7975 749.332 63.4725C748.804 67.2404 749.069 71.1013 750.105 74.7235C751.314 79.5755 752.872 84.2868 754.141 89.1107C759.482 109.955 763.182 131.322 765.197 152.946C769.534 196.628 768.991 240.859 768.942 284.766C768.942 307.887 768.701 331.008 767.734 354.1C767.263 364.972 767.263 376.363 764.967 386.967C763.029 395.899 758.58 403.82 752.329 409.469C739.207 421.466 721.699 422.436 706.414 415.883C698.102 412.31 690.961 406.657 684.061 400.3C678.322 395.012 671.882 389.499 664.197 389.668C651.619 389.935 640.032 403.914 641.494 418.723C641.627 420.059 643.44 420.13 643.307 418.723L643.355 418.836Z" fill="black"></path><path d="M86.899 393.502C84.5912 393.235 81.2081 392.438 80.5556 389.316C79.9998 386.644 81.7638 383.986 83.3104 382.284C89.4484 375.59 99.175 375.154 106.847 377.713C113.42 379.893 119.716 383.634 125.962 386.813C132.004 389.907 138.045 392.902 144.255 395.701C153.994 400.117 163.745 404.66 173.967 407.36C184.986 410.173 197.443 411.27 207.412 403.999L206.046 403.084C206.191 421.874 216.655 436.064 224.364 451.492C226.603 455.836 228.426 460.453 229.801 465.26L230.224 464.079C221.911 468.481 214.577 460.451 210.807 452.476C206.191 442.73 204.379 430.115 207.52 419.441C209.044 414.075 212.152 409.511 216.292 406.558C221.144 403.212 226.82 401.86 232.411 402.719C242.802 404.533 249.544 415.306 252.033 426.501C254.655 438.286 253.241 452.139 246.318 461.66C245.455 462.85 244.518 463.964 243.515 464.993L245.037 465.457C240.615 453.137 242.621 438.356 245.907 426.079C247.705 419.331 250.222 412.873 253.398 406.854C256.177 401.365 259.875 396.582 264.273 392.79C268.796 388.913 274.389 387.116 279.98 387.741C285.236 388.458 290.106 391.369 294.48 394.773C304.315 402.536 312.06 413.238 320.904 422.366C329.362 431.043 339.306 436.275 349.54 441.394C360.415 446.823 371.918 452.111 380.871 461.323C385.127 465.439 388.395 470.769 390.356 476.793C391.044 479.198 391.902 482.995 390.017 484.992C387.927 487.2 385.039 485.934 383.36 483.853C379.735 479.394 378.382 472.602 376.4 467.075C373.307 458.51 369.876 450.043 367.809 441.029C365.727 432.016 365.832 422.509 368.111 413.562C370.19 405.053 373.706 397.206 376.968 389.274C379.646 383.165 381.971 376.855 383.928 370.386C385.619 364.381 386.924 357.307 384.858 351.203C383.927 348.511 382.355 346.184 380.327 344.495C380.121 344.372 379.883 344.343 379.66 344.413C379.436 344.483 379.243 344.648 379.119 344.875C370.987 357.532 359.956 366.758 348.912 375.815C348.796 375.9 348.697 376.014 348.623 376.149C348.549 376.284 348.502 376.436 348.485 376.595C348.467 376.753 348.48 376.915 348.523 377.067C348.566 377.219 348.636 377.358 348.731 377.474C359.811 393.802 373.645 366.491 377.608 356.294C379.057 352.936 380.105 349.364 380.726 345.676C380.883 344.34 379.143 343.778 378.974 345.114C378.523 347.973 377.768 350.755 376.726 353.397C375.353 357.198 373.738 360.875 371.893 364.395C370.004 368.064 367.767 371.475 365.224 374.563C363.295 377.176 360.788 379.122 357.974 380.189C354.639 381.145 351.933 378.993 349.903 376.04L349.722 377.699C360.971 368.403 372.183 358.995 380.52 345.986L379.312 346.365C384.556 350.88 384.544 358.685 383.166 365.436C381.789 372.186 379.155 378.698 376.618 385.055C373.283 393.38 369.465 401.495 366.951 410.257C364.354 418.825 363.68 428.022 364.994 436.978C366.541 446.443 369.972 455.345 373.21 464.149C374.527 467.708 375.76 471.28 376.956 474.88C377.88 477.846 379.096 480.678 380.581 483.318C381.185 484.514 381.99 485.558 382.947 486.386C383.903 487.215 384.993 487.812 386.151 488.142C387.266 488.373 388.414 488.222 389.456 487.707C390.499 487.193 391.39 486.338 392.023 485.245C394.597 480.154 391.056 472.588 388.616 468.368C381.849 456.611 370.359 449.832 359.617 444.165C348.876 438.497 336.902 433.856 327.151 425.586C317.4 417.317 309.885 406.305 300.642 397.459C292.184 389.443 281.491 382.298 270.326 386.672C259.162 391.046 252.033 403.549 247.478 415.418C242.536 428.301 239.479 443.307 241.34 457.441C241.711 460.361 242.384 463.218 243.346 465.95C243.391 466.124 243.474 466.282 243.587 466.408C243.7 466.534 243.838 466.625 243.99 466.672C244.141 466.718 244.3 466.719 244.452 466.674C244.603 466.628 244.742 466.539 244.856 466.414C253.604 457.385 256.407 442.941 254.522 429.848C252.806 417.711 246.596 405.25 235.999 401.411C225.403 397.571 212.402 403.127 207.255 414.729C202.422 425.671 203.714 439.496 207.955 450.395C211.411 459.297 217.173 468.41 228.061 467.018C229.105 466.8 230.126 466.451 231.106 465.978C231.28 465.861 231.417 465.681 231.493 465.464C231.57 465.248 231.582 465.008 231.529 464.782C226.913 447.906 215.362 435.164 210.251 418.555C208.713 413.619 207.897 408.418 207.835 403.169C207.832 402.986 207.789 402.807 207.709 402.649C207.629 402.492 207.515 402.361 207.378 402.27C207.242 402.18 207.087 402.132 206.93 402.131C206.773 402.131 206.618 402.178 206.481 402.269C196.815 409.301 184.648 408.147 173.979 405.278C163.31 402.409 153.173 397.571 142.999 392.973C136.015 389.822 129.176 386.25 122.301 382.762C116.26 379.724 110.219 376.096 103.706 374.802C96.0577 373.269 86.6331 374.802 81.1718 381.834C79.4077 384.141 77.9457 387.46 78.9607 390.554C80.1689 394.224 83.8904 395.109 86.899 395.46C88.1073 395.587 88.1073 393.629 86.899 393.502Z" fill="black"></path><path d="M343.15 395.8C344.528 399.906 347.065 403.858 351.294 402.691C354.75 401.749 357.601 398.359 359.909 395.42C362.217 392.481 365.95 386.63 370.107 387.572C372.088 388.022 373.514 390.104 374.541 391.96C376.039 394.74 377.206 397.745 378.009 400.891C381.464 413.928 380.051 428.667 376.16 441.352C374.318 447.306 371.954 453.023 369.104 458.412C366.343 463.982 362.595 468.805 358.109 472.56C353.445 476.216 347.983 477.89 342.522 475.766C337.471 473.811 333.375 469.213 330.584 464.051C327.177 457.751 325.751 450.128 324.543 442.885C323.007 434.745 322.466 426.393 322.936 418.077C323.347 413.126 324.627 405.419 329.92 404.843C338.547 403.971 343.005 416.276 345.712 423.758C347.296 428.52 349.112 433.173 351.149 437.696C353.979 443.741 357.508 449.305 361.637 454.235C363.659 456.617 365.872 458.77 368.246 460.662C369.213 461.435 370.119 459.607 369.152 458.848C359.317 451 352.901 438.652 348.467 426.037C345.434 417.416 341.688 405.18 332.759 403.014C318.139 399.442 320.676 427.528 321.74 436.852C322.509 444.431 324.038 451.879 326.295 459.044C329.847 469.536 338.378 479.746 348.769 478.804C360.187 477.777 368.198 465.204 373.055 454.361C378.528 442.154 381.911 428.779 381.597 414.898C381.537 408.037 380.279 401.262 377.9 394.984C376.281 390.891 373.599 385.266 369.104 385.378C364.609 385.491 361.298 390.357 358.628 393.817C356.441 396.629 353.01 401.144 349.385 400.849C346.908 400.624 345.603 397.656 344.805 395.223C344.383 393.971 342.631 394.52 343.054 395.786L343.15 395.8Z" fill="black"></path><path d="M375.41 395.197C383.506 392.918 391.105 396.193 397.678 401.917C404.251 407.641 409.326 414.912 415.15 421.353C428.779 436.43 446.854 447.006 466.03 444.671C472.868 443.841 480.13 441.493 485.217 435.797C490.642 429.707 491.681 420.974 490.11 412.704C489.398 408.907 487.984 405.138 485.132 402.86C484.139 402.02 482.965 401.517 481.741 401.405C480.517 401.293 479.291 401.578 478.197 402.227C475.527 403.943 474.451 407.571 474.173 410.904C473.874 415.777 474.437 420.669 475.829 425.277C477.006 429.858 479.39 433.892 482.643 436.81C485.798 439.425 489.665 440.61 493.518 440.143C501.71 439.285 508.802 433.378 516.97 432.478C519.106 432.237 521.262 432.466 523.326 433.153C524.534 433.561 526.419 434.278 526.951 435.811C527.965 438.722 523.326 439.524 521.84 439.468C517.357 439.285 513.164 435.867 510.059 432.351C506.454 428.356 503.841 423.303 502.495 417.725C501.565 413.506 501.492 407.993 505.637 406.235C509.165 404.73 513.611 406.432 516.511 408.935C518.577 410.749 520.909 414.181 520.233 417.373C519.471 421.002 515.4 418.934 513.72 417.711C506.18 412.437 501.565 402.789 499.765 393.001C498.914 388.311 498.646 383.504 498.967 378.726C499.317 373.213 500.598 367.813 501.48 362.398C503.244 351.541 504.622 340.613 506.555 329.798C508.138 321.037 510.095 312.134 513.889 304.272C515.597 300.696 517.742 297.428 520.257 294.569C523.058 291.346 526.254 288.626 529.742 286.496C531.506 285.469 534.128 284.569 535.783 286.496C537.088 288.029 536.266 290.617 535.421 292.121C534.116 294.218 532.29 295.799 530.189 296.65C527.62 297.959 524.985 299.086 522.299 300.025C517.248 301.811 512.101 303.147 506.99 304.694L507.872 304.962C503.306 299.675 499.191 293.887 495.584 287.677C493.717 284.56 491.645 281.616 489.386 278.873C487.718 276.75 476.493 262.602 475.007 271.405C474.355 275.231 475.974 279.844 477.424 283.219C478.788 286.18 480.684 288.765 482.982 290.799C489.043 296.763 495.72 301.823 502.858 305.862C504.428 306.734 507.8 309.054 509.612 307.929C511.424 306.804 509.854 302.304 509.407 300.672C507.87 295.612 507.117 290.274 507.183 284.907C507.389 280.434 508.561 274.584 511.388 271.223C511.598 270.935 511.852 270.697 512.137 270.519C512.367 270.393 512.415 270.435 512.476 270.519C513.128 271.11 513.128 272.77 513.164 273.628C513.358 279.183 511.956 284.879 510.47 290.152C509.689 292.815 508.638 295.359 507.34 297.733C506.492 299.137 506.067 300.828 506.132 302.543C506.362 304.99 507.667 306.86 508.549 308.984C509.202 310.789 509.554 312.722 509.588 314.68C509.811 321.123 509.532 327.577 508.754 333.961C508.041 341.246 507.28 348.587 505.963 355.76C503.546 368.924 500.127 382.031 501.529 395.659C501.897 399.205 502.564 402.701 503.522 406.094C503.885 407.374 505.574 406.642 505.262 405.532C502.399 395.335 502.604 384.774 504.283 374.324C505.745 365.183 507.908 356.238 509.117 347.012C510.325 337.238 511.642 327.323 511.533 317.38C511.65 314.369 511.264 311.36 510.397 308.52C509.37 305.707 507.062 303.19 508.319 300.082C508.827 298.802 509.527 297.648 510.168 296.425C511.1 294.423 511.845 292.311 512.391 290.124C513.52 286.084 514.328 281.932 514.807 277.72C515.037 275.498 515.677 267.679 511.98 268.466C510.566 268.776 509.564 270.463 508.839 271.771C507.223 274.82 506.151 278.216 505.685 281.756C504.658 289.266 506.434 296.228 508.21 303.358C508.416 304.188 508.5 305.046 508.694 305.876C508.778 306.27 508.488 306.312 508.79 306.129H508.234C506.3 305.594 504.444 304.732 502.725 303.569C497.58 300.489 492.665 296.914 488.032 292.881C484.407 289.745 480.553 286.44 478.68 281.475C477.653 278.803 476.517 275.357 476.795 272.376C477.037 269.662 479.212 271.265 480.42 272.221C484.927 275.723 488.733 280.941 492.116 285.807C494.062 288.62 495.669 291.671 497.541 294.526C500.199 298.639 503.111 302.522 506.253 306.143C507.461 307.549 509.044 306.41 510.53 305.974C512.741 305.327 514.965 304.694 517.176 304.033C521.482 302.81 525.71 301.236 529.826 299.322C532.847 297.916 535.686 296.256 537.245 292.712C538.357 290.209 538.707 286.862 536.629 284.893C534.212 282.642 531.071 283.571 528.594 285.047C525.779 286.833 523.145 288.98 520.74 291.446C516.489 295.7 513.084 300.979 510.76 306.916C504.996 321.121 503.51 337.351 501.166 352.652C500.429 357.504 499.668 362.342 498.834 367.166C498.012 371.213 497.422 375.319 497.07 379.457C496.606 387.177 497.668 394.919 500.175 402.086C502.656 409.394 507.058 415.602 512.753 419.82C514.626 421.128 517.091 422.394 519.314 421.578C520.111 421.251 520.803 420.646 521.296 419.846C521.788 419.046 522.058 418.09 522.069 417.106C522.77 405.293 502.87 397.417 500.32 410.707C499.571 414.645 500.586 418.934 501.903 422.549C503.362 426.451 505.408 430.018 507.945 433.083C512.053 438.117 518.759 443.574 525.054 441.352C525.908 441.138 526.701 440.673 527.356 440.001C528.012 439.329 528.509 438.472 528.799 437.513C529.258 435.263 527.76 433.434 526.177 432.436C520.45 428.849 513.551 430.861 507.824 433.237C502.097 435.614 495.33 439.622 488.89 438.005C481.411 436.12 477.786 427.893 476.493 419.82C475.756 415.194 474.778 403.957 481.024 403.689C487.271 403.422 488.854 413.618 489.047 418.85C489.241 422.222 488.702 425.596 487.479 428.662C486.256 431.727 484.389 434.384 482.051 436.388C477.218 440.466 471.177 442.224 465.317 442.829C448.933 444.531 433.902 436.725 421.3 424.982C411.549 415.84 404.227 402.396 392.688 396.025C387.193 392.994 380.863 391.587 374.975 393.354C373.84 393.664 374.275 395.52 375.41 395.197Z" fill="black"></path><path d="M641.821 417.88C641.834 419.679 641.255 421.415 640.202 422.732C639.135 423.674 637.894 424.315 636.577 424.602C632.409 425.913 628.111 426.585 623.793 426.599C618.881 426.341 614.013 425.396 609.294 423.786C604.534 422.38 599.628 421.086 595 419.244C591.823 417.992 587.582 415.939 585.54 412.634C583.703 409.666 588.766 409.821 590.095 409.934C593.169 410.278 596.22 410.856 599.229 411.664C603.684 412.685 608.146 413.684 612.617 414.659C630.427 418.555 649.191 422.141 667.158 417.627C671.657 416.485 676.037 414.778 680.22 412.535C681.694 411.748 683.591 410.777 683.663 408.598C683.736 406.699 682.358 405.194 681.077 404.28C677.972 402.072 673.997 402.874 670.735 404.139C666.893 405.809 663.216 407.949 659.764 410.524C652.816 415.489 646.291 422.183 642.848 430.931C639.646 438.975 638.885 448.679 642.026 456.907C642.78 458.857 643.746 460.687 644.902 462.349L645.301 460.591C641.159 461.504 636.874 460.549 633.315 457.919L633.097 459.846C636.42 458.96 639.706 457.891 642.932 456.625C646.002 455.609 648.97 454.218 651.789 452.477C653.614 451.211 655.196 449.059 654.628 446.429C654.061 443.799 651.982 442.618 650.073 441.872C648.092 441.231 646.073 440.761 644.032 440.466C641.809 440.016 639.585 439.585 637.362 439.172C632.771 438.328 628.155 437.555 623.528 437.049C619.957 436.477 616.338 436.453 612.762 436.978C609.898 437.569 608.533 439.791 609.427 443.251C610.124 445.622 611.596 447.577 613.523 448.693C614.599 449.274 615.767 449.588 616.953 449.615C618.138 449.641 619.316 449.38 620.41 448.848C624.53 447.104 628.409 443.602 631.671 440.241C640.129 431.592 644.636 419.511 647.596 407.135C647.659 406.865 647.626 406.576 647.506 406.334C647.386 406.091 647.188 405.914 646.956 405.841C646.724 405.768 646.476 405.806 646.268 405.946C646.059 406.086 645.907 406.316 645.844 406.586C643.428 416.515 640.141 426.445 634.233 434.292C631.929 437.31 629.334 440.009 626.5 442.337C623.129 445.149 618.139 449.495 613.97 446.556C612.085 445.234 609.137 440.311 612.399 439.229C615.009 438.357 618.03 438.708 620.7 438.905C628.542 439.638 636.343 440.873 644.068 442.604C646.085 442.876 648.076 443.371 650.013 444.08C651.183 444.455 652.181 445.349 652.792 446.57C653.396 448.272 652.248 449.678 651.1 450.536C648.377 452.286 645.485 453.655 642.485 454.614C639.259 455.88 635.973 456.935 632.662 457.835C632.49 457.89 632.336 458.003 632.219 458.159C632.103 458.316 632.028 458.509 632.005 458.714C631.981 458.92 632.011 459.129 632.089 459.315C632.167 459.501 632.291 459.657 632.445 459.762C636.435 462.639 641.217 463.645 645.82 462.574C645.972 462.522 646.11 462.426 646.22 462.293C646.331 462.161 646.41 461.998 646.45 461.82C646.49 461.641 646.49 461.454 646.449 461.276C646.409 461.097 646.33 460.934 646.219 460.802C641.084 453.306 640.878 442.815 643.669 434.081C646.69 424.701 653.336 417.57 660.585 412.409C664.08 409.746 667.831 407.57 671.762 405.925C673.689 405.086 675.756 404.773 677.803 405.011C679.458 405.279 683.844 407.754 680.969 409.751C676.844 412.311 672.413 414.136 667.823 415.165C663.118 416.404 658.325 417.134 653.505 417.345C644.014 417.576 634.526 416.747 625.171 414.87C616.592 413.365 608.062 411.396 599.568 409.413C596.703 408.676 593.807 408.112 590.892 407.726C588.79 407.515 585.66 407.233 584.09 409.273C582.519 411.312 584.223 414.111 585.757 415.601C588.619 418.266 591.903 420.25 595.423 421.438C600.148 423.097 604.957 424.518 609.741 425.91C614.279 427.434 618.955 428.336 623.673 428.596C627.869 428.59 632.048 427.985 636.118 426.796C638.595 426.135 641.313 425.263 642.679 422.577C643.347 421.1 643.715 419.464 643.754 417.795C643.851 416.389 642.038 416.389 641.942 417.795L641.821 417.88Z" fill="black"></path><path d="M597.673 368.132L596.096 369.415L594.26 367.474L592.048 368.987L597.523 377.008L599.421 375.71L600.552 377.366L594.89 381.238L593.76 379.582L595.589 378.331L590.114 370.309L587.884 371.834L589.023 374.252L587.273 375.244L585.098 371.309L594.802 364.673L597.673 368.132Z" fill="black"></path><path d="M606.832 362.21C607.38 361.893 607.98 361.75 608.631 361.781L610.454 364.141L609.042 365.2L607.92 363.971C607.606 363.99 607.364 364.048 607.193 364.147C606.852 364.344 606.634 364.656 606.54 365.085C606.458 365.506 606.561 365.966 606.849 366.466L608.947 370.107L610.574 369.168L611.438 370.668L606.632 373.443L605.767 371.943L606.992 371.236L603.998 366.041L602.718 366.779L601.843 365.261L604.932 363.477L605.817 365.014C605.697 364.466 605.703 363.942 605.837 363.442C605.976 362.923 606.308 362.512 606.832 362.21Z" fill="black"></path><path d="M623.677 364.682C623.778 365.511 623.54 366.308 622.963 367.074C622.386 367.84 621.474 368.364 620.225 368.647C618.881 368.952 617.688 368.811 616.647 368.224C615.603 367.624 614.906 366.554 614.558 365.016C614.239 363.602 614.362 362.332 614.93 361.208C615.511 360.08 616.508 359.356 617.921 359.036C619.197 358.746 620.293 358.902 621.207 359.503C622.133 360.088 622.734 360.962 623.012 362.126C623.099 362.51 623.151 362.932 623.168 363.39L616.933 364.803C617.448 366.505 618.467 367.184 619.989 366.839C620.703 366.677 621.172 366.39 621.396 365.979C621.634 365.564 621.757 365.153 621.766 364.747L623.677 364.682ZM620.72 362.515C620.651 361.954 620.404 361.468 619.98 361.059C619.566 360.633 618.996 360.503 618.269 360.667C617.61 360.817 617.159 361.15 616.916 361.667C616.672 362.184 616.582 362.775 616.646 363.439L620.72 362.515Z" fill="black"></path><path d="M637.198 368.643C636.901 369.424 636.319 370.018 635.452 370.426C634.584 370.834 633.533 370.871 632.297 370.538C630.966 370.18 629.977 369.498 629.329 368.492C628.685 367.473 628.568 366.202 628.978 364.68C629.354 363.279 630.055 362.214 631.082 361.485C632.122 360.759 633.341 360.584 634.74 360.961C636.003 361.301 636.899 361.951 637.428 362.91C637.974 363.859 638.099 364.913 637.802 366.072C637.699 366.453 637.549 366.85 637.351 367.263L631.177 365.6C630.839 367.346 631.424 368.422 632.931 368.828C633.638 369.019 634.186 368.984 634.576 368.725C634.98 368.469 635.28 368.163 635.478 367.808L637.198 368.643ZM635.593 365.346C635.794 364.817 635.802 364.272 635.618 363.712C635.45 363.142 635.007 362.76 634.287 362.567C633.635 362.391 633.081 362.475 632.624 362.819C632.168 363.162 631.813 363.643 631.559 364.26L635.593 365.346Z" fill="black"></path><path d="M802.254 406.038C788.31 406.108 774.814 410.693 762.212 417.43C749.175 424.391 737.37 433.631 725.287 442.59C718.799 447.414 710.897 452.434 703.043 449.2L703.671 450.494C705.858 441.858 716.805 443.968 722.411 445.135C742.412 449.277 761.926 456.136 780.553 465.57C784.178 467.426 787.803 469.916 791.863 470.506C794.932 470.97 798.363 469.803 799.33 465.978C800.224 462.392 798.242 458.383 795.548 456.654C791.923 454.291 787.465 455.247 783.574 456.26C776.784 457.747 770.087 459.762 763.529 462.293C760.787 463.289 758.183 464.738 755.796 466.597C754.394 467.778 752.751 469.592 752.811 471.8C752.884 474.908 756.436 477.116 758.502 478.157C761.706 479.809 765.233 480.426 768.712 479.943C771.769 479.437 775.708 477.13 774.645 472.785C774.077 470.506 772.349 468.566 771.08 466.751C769.606 464.679 768.072 462.678 766.477 460.746C760.189 453.152 753.028 446.606 745.199 441.296C739.508 437.442 730.035 431.958 731.256 422.605C731.896 417.655 735.569 414.04 739.182 411.832C743.523 409.41 748.149 407.751 752.908 406.91C761.426 405.039 770.404 403.858 777.798 398.148C781.067 395.713 783.727 392.318 785.507 388.304C787.287 383.691 788.272 378.717 788.407 373.663C789.096 361.596 789.035 349.417 789.168 337.322C789.313 324.862 789.349 312.401 789.277 299.941C789.144 274.964 788.649 249.972 787.622 225.037C787.271 216.36 786.595 206.867 782.378 199.413C779.417 194.167 774.874 191.425 770.186 188.725C765.498 186.024 760.121 182.902 754.769 181.932C753.391 181.679 751.217 181.397 750.238 182.916C748.921 184.97 749.368 188.457 750.032 190.679C752.05 197.486 757.125 203.027 761.668 207.626C765.74 211.747 770.126 216.065 775.261 218.202C781.72 220.85 788.623 221.698 795.415 220.677C803.051 219.37 807.655 212.239 811.002 204.715C812.633 201.03 814.385 195.953 811.11 192.733C809.95 191.725 808.571 191.113 807.129 190.964C805.687 190.815 804.238 191.135 802.942 191.889C799.487 193.802 797.795 198.415 796.901 202.465C795.651 208.07 794.743 213.77 794.183 219.524C793.529 225.524 793.169 231.563 793.107 237.61C793.218 242.237 793.093 246.868 792.733 251.477C792.285 255.317 791.379 259.493 788.939 262.32C785.676 266.118 780.964 265.794 777.085 263.544C772.663 260.984 769.111 256.807 765.498 252.982L753.826 240.634L741.925 228.047C738.735 224.672 735.569 221.015 731.522 219.116C728.151 217.485 724.188 217.429 721.554 220.762C719.306 223.575 719.282 227.625 720.14 231.155C721.271 235.223 723.063 239 725.42 242.279C728.296 246.569 731.22 250.844 734.313 254.937C745.779 270.084 761.789 283.908 780.142 281.039C794.847 278.733 804.38 265.063 812.693 252.082C816.982 245.373 821.151 238.524 826.322 232.604C830.128 228.202 842.489 215.727 845.534 227.231C847.878 236.077 840.048 245.641 832.4 244.108L833.04 245.402C835.089 238.899 838.195 232.916 842.187 227.78C845.812 223.082 850.766 217.935 856.553 217.865C857.837 217.8 859.119 218.031 860.326 218.545C861.533 219.06 862.641 219.846 863.585 220.86C865.688 223.321 866.135 226.95 865.93 230.283C865.432 236.15 863.178 241.626 859.562 245.753C851.273 255.71 839.36 258.059 827.917 257.946C821.55 257.946 815.206 257.075 808.839 256.948C803.45 256.849 798.085 257.848 794.001 262.236C787.622 269.113 785.688 280.519 783.864 289.97C782.141 299.076 780.862 308.288 780.034 317.563C778.342 336.338 778.004 355.887 781.484 374.423C783.9 387.432 789.156 403 801.215 407.219C802.549 407.67 803.732 407.71 805.114 407.868C806.322 408.009 806.507 406.165 805.299 406.024C792.237 404.393 786.292 388.81 783.55 375.688C779.707 356.984 780.082 337.013 781.774 318.027C782.6 308.539 783.92 299.118 785.725 289.815C786.583 285.132 787.677 280.511 788.999 275.976C790.691 270.351 793.24 264.641 797.783 261.589C803.257 257.918 810.228 259.1 816.246 259.508C822.736 260.147 829.258 260.232 835.759 259.761C846.259 258.678 856.71 254.135 863.187 244.009C866.155 239.534 867.762 234.038 867.754 228.384C867.621 222.464 864.77 217.583 859.707 216.191C854.644 214.799 849.714 217.316 845.776 220.931C841.321 225.124 837.587 230.258 834.768 236.063C833.385 238.882 832.209 241.832 831.252 244.881C831.189 245.15 831.22 245.436 831.337 245.679C831.455 245.921 831.65 246.1 831.88 246.175C838.659 247.511 845.341 241.956 847.238 234.404C847.756 232.535 847.89 230.551 847.627 228.611C847.365 226.671 846.714 224.83 845.727 223.237C843.395 219.89 839.481 220.059 836.315 221.493C830.177 224.306 825.03 230.677 820.837 236.373C816.427 242.364 812.56 248.861 808.44 255.12C804.32 261.378 799.982 267.327 794.605 271.884C788.55 277.083 781.133 279.677 773.618 279.225C755.494 278.1 741.671 262.489 730.857 246.878C728.136 243.282 725.708 239.397 723.608 235.276C722.061 231.943 720.43 227.203 722.061 223.518C724.2 218.666 729.178 219.777 732.537 221.943C736.596 224.573 739.895 228.666 743.302 232.266L765.776 256.048C771.237 261.828 778.934 270.365 786.993 266.3C793.035 263.263 794.46 254.895 794.823 248.017C795.077 243.278 794.823 238.524 795.004 233.771C795.183 227.823 795.659 221.892 796.43 216.008C796.945 210.687 797.929 205.442 799.366 200.355C800.683 196.277 803.39 192.395 807.51 193.056C817.091 194.603 805.25 212.506 801.65 215.558C796.454 219.988 788.89 219.285 782.885 218.118C779.719 217.586 776.628 216.569 773.69 215.094C771.593 213.845 769.619 212.331 767.806 210.58C762.683 206.394 758.126 201.341 754.285 195.588C752.628 193.206 751.563 190.341 751.204 187.304C751.204 186.488 751.132 184.773 751.688 184.168C752.243 183.563 753.125 183.858 753.609 183.901C755.915 184.247 758.17 184.952 760.315 185.996C762.997 187.149 765.619 188.514 768.205 189.976C772.53 192.409 777.231 194.899 780.179 199.497C784.686 206.529 785.374 216.065 785.737 224.545C786.244 236.274 786.57 248.032 786.836 259.775C787.392 283.524 787.569 307.282 787.368 331.05C787.271 342.939 787.078 354.818 786.788 366.688C786.546 376.687 786.147 387.277 779.152 394.295C772.796 400.68 764.133 402.452 756.194 404.139C748.256 405.827 738.735 407.473 732.863 414.729C731.64 416.134 730.698 417.835 730.105 419.712C729.511 421.588 729.282 423.595 729.431 425.587C729.945 429.224 731.535 432.537 733.926 434.953C736.571 437.685 739.483 440.045 742.601 441.985C746.29 444.424 749.856 447.105 753.283 450.015C756.855 453.105 760.238 456.479 763.408 460.113C766.665 463.651 769.611 467.556 772.204 471.772C775.394 477.398 767.746 478.27 764.701 477.89C761.656 477.51 757.729 476.216 755.506 473.418C754.793 472.532 754.43 471.758 754.914 470.605C755.416 469.627 756.112 468.802 756.944 468.2C759.304 466.421 761.866 465.034 764.556 464.079C770.788 461.725 777.139 459.823 783.574 458.383C787.38 457.455 792.491 455.964 795.741 459.354C796.465 460.049 797.02 460.951 797.352 461.972C797.685 462.993 797.784 464.098 797.638 465.176C797.387 466.148 796.87 466.997 796.165 467.594C795.46 468.191 794.607 468.503 793.735 468.481C789.784 468.734 785.99 466.034 782.511 464.262C778.233 462.059 773.908 459.991 769.534 458.06C760.577 454.109 751.441 450.733 742.167 447.948C737.527 446.57 732.859 445.332 728.163 444.235C724.185 443.159 720.148 442.407 716.08 441.985C710.679 441.648 703.719 442.941 701.967 449.917C701.907 450.187 701.939 450.474 702.056 450.718C702.173 450.962 702.366 451.143 702.596 451.225C709.132 453.869 715.887 451.225 721.686 447.554C727.885 443.645 733.612 438.694 739.581 434.348C751.772 425.474 764.568 417.317 778.39 412.465C786.137 409.695 793.111 408.157 801.215 408.055C801.455 408.055 802.761 408.022 802.931 407.825C803.101 407.627 803.196 407.359 803.196 407.079C803.196 406.799 803.101 406.531 802.931 406.333C802.761 406.135 802.53 406.024 802.29 406.024L802.254 406.038Z" fill="black"></path><path d="M769.062 182.733C774.741 172.636 782.837 164.45 791.065 157.278C800.192 149.46 809.75 142.347 819.677 135.985C824.135 133.074 828.642 130.275 833.185 127.547C837.04 125.212 841.921 122.231 846.404 123.862C846.99 124.067 847.536 124.407 848.008 124.86C848.48 125.314 848.869 125.873 849.153 126.505C849.437 127.137 849.609 127.828 849.66 128.538C849.711 129.249 849.639 129.964 849.449 130.641C848.53 134.27 845.667 136.267 842.755 137.364C839.641 138.392 836.483 139.232 833.294 139.881C831.735 140.261 829.838 140.894 828.533 139.459C828.075 138.905 827.729 138.238 827.52 137.508C827.311 136.778 827.244 136.004 827.325 135.24C827.7 131.71 830.636 129.235 833.004 127.449C835.431 125.628 838.051 124.181 840.797 123.145C846.409 121.148 852.274 120.287 858.136 120.6C864.115 120.839 870.071 121.582 875.958 122.822C881.492 123.905 888.645 124.509 892.668 129.643C893.63 130.78 894.344 132.169 894.75 133.693C895.156 135.218 895.241 136.833 895 138.404C894.287 141.864 891.376 143.594 888.681 144.635C882.208 146.972 875.528 148.444 868.769 149.022C855.067 150.513 841.281 149.698 827.543 150.569C816.939 151.047 806.437 153.156 796.309 156.842C787.042 160.414 777.979 166.012 771.6 174.829C770.056 176.965 768.685 179.263 767.504 181.693C767.411 181.931 767.398 182.2 767.467 182.449C767.535 182.697 767.68 182.908 767.874 183.039C768.068 183.17 768.297 183.213 768.516 183.159C768.736 183.105 768.931 182.959 769.062 182.747C774.717 171.201 784.613 163.888 795.161 159.528C806.362 154.887 818.287 153.129 830.104 152.496C844.942 151.751 859.864 152.693 874.617 150.316C878.345 149.725 882.041 148.88 885.685 147.785C888.536 146.927 891.617 145.999 893.961 143.805C898.408 139.656 897.429 132.343 893.804 127.927C889.466 122.639 882.289 121.893 876.441 120.74C870.081 119.361 863.637 118.562 857.169 118.349C851.012 118.118 844.871 119.195 839.045 121.528C836.25 122.718 833.594 124.315 831.143 126.281C828.848 128.166 826.492 130.5 825.742 133.848C825.435 135.145 825.441 136.516 825.761 137.809C826.081 139.102 826.702 140.267 827.555 141.175C829.971 143.495 833.415 141.962 836.121 141.301C841.704 139.895 849.122 138.784 851.164 131.457C851.544 130.153 851.614 128.754 851.367 127.407C851.121 126.061 850.566 124.817 849.763 123.806C848.985 122.97 848.071 122.323 847.075 121.905C846.079 121.487 845.02 121.306 843.963 121.373C838.792 121.373 834.297 124.551 829.802 127.252C819.162 133.632 808.824 140.674 798.834 148.347C789.168 155.914 779.502 164.352 771.95 174.801C770.361 176.986 768.888 179.283 767.54 181.679C766.9 182.818 768.458 183.872 769.099 182.733H769.062Z" fill="black"></path><path d="M504.923 404.238C503.824 399.554 506.53 394.759 509.201 391.58C511.871 388.402 516.112 384.858 520.341 384.83C525.947 384.83 531.36 388.81 535.855 392.269C540.703 396.258 545.813 399.794 551.14 402.845C561.555 408.316 573.468 410.96 584.669 407.374C596.752 403.492 606.116 392.762 618.005 388.346C623.752 386.181 629.93 386.122 635.706 388.177C640.346 389.822 645.675 393.001 646.967 398.922C647.047 399.169 647.203 399.373 647.405 399.493C647.607 399.613 647.841 399.641 648.059 399.57C648.278 399.499 648.466 399.335 648.586 399.111C648.706 398.887 648.749 398.619 648.707 398.359C647.584 393.212 643.778 389.78 639.778 387.713C635.319 385.381 630.453 384.292 625.569 384.534C612.073 385.35 601.778 396.826 589.937 402.916C577.758 409.202 564.213 407.36 552.3 401.144C546.512 398.12 541.425 393.971 536.145 389.963C531.542 386.475 526.02 382.678 520.341 382.72C515.508 382.72 510.844 386.433 507.666 390.413C504.645 394.168 501.927 399.54 503.183 404.842C503.263 405.09 503.419 405.294 503.621 405.414C503.823 405.534 504.057 405.561 504.275 405.491C504.494 405.42 504.682 405.256 504.802 405.032C504.922 404.808 504.965 404.539 504.923 404.28V404.238Z" fill="black"></path><path d="M796.369 412.676C796.913 418.948 800.356 423.927 804.597 427.541C806.879 429.47 809.37 431.04 812.004 432.211C814.421 433.293 817.284 434.151 819.797 432.886C824.34 430.607 824.135 423.378 821.283 419.525C819.31 417.147 816.795 415.474 814.034 414.701C810.777 413.633 807.468 412.788 804.126 412.17C796.029 410.449 787.803 409.686 779.574 409.891C779.334 409.891 779.103 410.002 778.933 410.2C778.763 410.398 778.668 410.666 778.668 410.946C778.668 411.226 778.763 411.494 778.933 411.692C779.103 411.89 779.334 412.001 779.574 412.001C785.66 411.822 791.749 412.208 797.783 413.154C803.523 413.816 809.191 415.154 814.698 417.148C817.105 417.934 819.2 419.676 820.619 422.071C821.173 423.121 821.486 424.319 821.528 425.55C821.57 426.781 821.341 428.004 820.861 429.102C818.106 434.376 810.518 429.412 807.364 427.134C802.918 423.913 798.725 418.977 798.169 412.62C798.061 411.213 796.248 411.213 796.357 412.62L796.369 412.676Z" fill="black"></path><g style="mix-blend-mode:multiply"><path d="M448.551 393.085C448.551 472.399 384.632 536.697 305.785 536.697C226.938 536.697 163.02 472.399 163.02 393.085C163.02 313.77 226.938 249.473 305.785 249.473C384.632 249.473 448.551 313.77 448.551 393.085Z" fill="#69F0AE"></path></g><path d="M200.313 260.953C201.22 261.974 201.56 263.076 201.332 264.259C201.114 265.433 200.422 266.539 199.256 267.578C198.562 268.195 197.815 268.71 197.014 269.122C196.224 269.524 195.499 269.736 194.84 269.757L193.034 267.153L194.563 266.046L195.653 267.336C196.159 267.207 196.577 267.042 196.908 266.842C197.239 266.622 197.531 266.4 197.783 266.175C198.393 265.632 198.813 265.089 199.044 264.544C199.276 263.979 199.13 263.402 198.606 262.813C198.036 262.171 197.426 261.951 196.777 262.152C196.118 262.343 195.438 262.647 194.736 263.064C194.169 263.4 193.568 263.709 192.934 263.991C192.3 264.273 191.656 264.374 191.003 264.296C190.35 264.218 189.706 263.821 189.07 263.106C188.116 262.032 187.796 260.942 188.11 259.833C188.425 258.705 189.034 257.738 189.937 256.934C190.568 256.372 191.261 255.924 192.018 255.59C192.785 255.246 193.472 255.077 194.08 255.083L196.096 257.161L194.805 258.536L193.485 257.336C193.042 257.43 192.645 257.576 192.294 257.775C191.944 257.974 191.632 258.195 191.359 258.438C190.865 258.878 190.544 259.343 190.396 259.833C190.248 260.323 190.371 260.789 190.763 261.23C191.221 261.746 191.734 261.921 192.302 261.755C192.871 261.569 193.459 261.309 194.066 260.976C194.581 260.687 195.181 260.378 195.868 260.049C196.555 259.721 197.28 259.584 198.044 259.638C198.809 259.673 199.565 260.112 200.313 260.953Z" fill="#69F0AE"></path><path d="M215.741 251.092C216.142 251.824 216.217 252.653 215.966 253.579C215.714 254.504 215.062 255.33 214.007 256.056C212.872 256.838 211.712 257.15 210.528 256.991C209.335 256.821 208.293 256.087 207.399 254.787C206.578 253.593 206.222 252.368 206.332 251.112C206.453 249.849 207.11 248.806 208.304 247.984C209.381 247.242 210.456 246.981 211.528 247.199C212.604 247.398 213.487 247.987 214.176 248.965C214.4 249.29 214.604 249.662 214.79 250.081L209.525 253.708C210.634 255.098 211.832 255.35 213.118 254.464C213.72 254.049 214.049 253.609 214.104 253.143C214.171 252.669 214.134 252.242 213.991 251.862L215.741 251.092ZM212.193 250.177C211.92 249.681 211.511 249.322 210.965 249.1C210.423 248.858 209.845 248.948 209.232 249.371C208.675 249.754 208.38 250.231 208.346 250.802C208.312 251.372 208.447 251.954 208.752 252.547L212.193 250.177Z" fill="#69F0AE"></path><path d="M232.818 241.329C233.129 242.104 233.104 242.936 232.744 243.824C232.384 244.713 231.637 245.454 230.503 246.049C229.283 246.69 228.094 246.86 226.937 246.561C225.773 246.249 224.826 245.395 224.094 243.998C223.421 242.714 223.214 241.455 223.473 240.222C223.745 238.982 224.522 238.026 225.805 237.353C226.964 236.745 228.062 236.614 229.1 236.959C230.145 237.286 230.951 237.976 231.519 239.029C231.701 239.379 231.86 239.772 231.994 240.211L226.334 243.181C227.269 244.694 228.428 245.087 229.81 244.362C230.458 244.022 230.837 243.624 230.948 243.169C231.071 242.707 231.085 242.278 230.989 241.883L232.818 241.329ZM229.405 239.995C229.193 239.47 228.83 239.065 228.315 238.779C227.806 238.473 227.221 238.494 226.561 238.84C225.963 239.154 225.613 239.592 225.51 240.155C225.408 240.717 225.473 241.311 225.705 241.936L229.405 239.995Z" fill="#69F0AE"></path><path d="M254.851 235.329L251.43 236.6L250.798 234.897C250.725 235.51 250.509 236.101 250.15 236.67C249.8 237.221 249.222 237.646 248.418 237.944C247.258 238.375 246.188 238.322 245.209 237.785C244.243 237.242 243.502 236.278 242.988 234.892C242.518 233.625 242.421 232.392 242.696 231.193C242.98 229.976 243.807 229.113 245.178 228.604C245.877 228.344 246.517 228.271 247.1 228.385C247.69 228.481 248.206 228.718 248.646 229.095L246.978 224.6L245.06 225.313L244.457 223.689L248.492 222.19L252.943 234.19L254.248 233.706L254.851 235.329ZM249.843 232.323L249.593 231.65C249.306 230.915 248.864 230.411 248.267 230.137C247.67 229.863 247.056 229.844 246.423 230.079C245.711 230.343 245.231 230.829 244.984 231.537C244.745 232.227 244.796 233.034 245.139 233.958C245.487 234.895 245.969 235.527 246.585 235.854C247.215 236.176 247.839 236.222 248.459 235.992C249.184 235.722 249.654 235.21 249.868 234.454C250.083 233.698 250.075 232.988 249.843 232.323Z" fill="#69F0AE"></path><path d="M273.898 224.381L278.794 223.476L279.14 225.346L274.244 226.251L273.898 224.381Z" fill="#69F0AE"></path><path d="M310.386 223.157C310.396 224.523 309.925 225.575 308.974 226.314C308.037 227.052 306.788 227.427 305.228 227.437C304.3 227.443 303.399 227.337 302.526 227.117C301.666 226.897 300.982 226.578 300.473 226.159L300.83 223.009L302.709 223.187L302.679 224.877C303.144 225.113 303.567 225.265 303.947 225.333C304.341 225.387 304.707 225.413 305.045 225.41C305.86 225.405 306.534 225.274 307.067 225.017C307.613 224.746 307.884 224.216 307.878 223.427C307.872 222.568 307.559 222 306.938 221.723C306.317 221.431 305.606 221.21 304.803 221.061C304.156 220.938 303.501 220.774 302.838 220.567C302.176 220.36 301.625 220.011 301.186 219.522C300.746 219.032 300.523 218.308 300.517 217.35C300.506 215.914 300.984 214.883 301.95 214.257C302.93 213.617 304.025 213.293 305.234 213.285C306.078 213.279 306.894 213.4 307.683 213.649C308.486 213.897 309.114 214.224 309.567 214.629L309.714 217.522L307.838 217.703L307.636 215.93C307.241 215.708 306.846 215.555 306.451 215.473C306.057 215.391 305.677 215.352 305.312 215.354C304.651 215.359 304.103 215.496 303.669 215.766C303.235 216.037 303.02 216.468 303.025 217.059C303.029 217.749 303.3 218.219 303.836 218.469C304.386 218.705 304.999 218.898 305.675 219.048C306.252 219.171 306.907 219.336 307.64 219.542C308.373 219.749 309.008 220.125 309.546 220.67C310.098 221.202 310.378 222.031 310.386 223.157Z" fill="#69F0AE"></path><path d="M328.482 225.918C328.3 226.733 327.81 227.404 327.01 227.932C326.211 228.46 325.175 228.649 323.904 228.497C322.535 228.333 321.458 227.8 320.672 226.899C319.889 225.983 319.59 224.742 319.776 223.176C319.947 221.737 320.488 220.582 321.399 219.713C322.324 218.845 323.506 218.497 324.945 218.669C326.244 218.824 327.224 219.338 327.886 220.211C328.563 221.072 328.837 222.097 328.71 223.287C328.664 223.678 328.572 224.093 328.435 224.53L322.086 223.771C322.002 225.548 322.735 226.528 324.286 226.714C325.012 226.8 325.55 226.687 325.899 226.375C326.262 226.064 326.515 225.718 326.66 225.339L328.482 225.918ZM326.42 222.886C326.542 222.333 326.472 221.793 326.209 221.266C325.961 220.726 325.468 220.411 324.727 220.323C324.057 220.243 323.52 220.406 323.118 220.811C322.715 221.217 322.433 221.743 322.271 222.39L326.42 222.886Z" fill="#69F0AE"></path><path d="M347.773 229.832C347.496 230.619 346.929 231.228 346.073 231.657C345.216 232.087 344.166 232.151 342.922 231.849C341.582 231.524 340.575 230.868 339.902 229.879C339.232 228.877 339.083 227.609 339.453 226.077C339.794 224.667 340.468 223.585 341.475 222.83C342.497 222.078 343.711 221.873 345.12 222.215C346.391 222.523 347.304 223.15 347.857 224.095C348.427 225.03 348.579 226.08 348.311 227.246C348.219 227.63 348.078 228.03 347.89 228.448L341.676 226.941C341.382 228.695 341.994 229.756 343.512 230.124C344.223 230.296 344.77 230.248 345.154 229.979C345.551 229.713 345.844 229.4 346.032 229.04L347.773 229.832ZM346.085 226.576C346.272 226.042 346.266 225.498 346.067 224.943C345.885 224.377 345.432 224.007 344.707 223.831C344.051 223.672 343.499 223.77 343.051 224.125C342.604 224.48 342.261 224.969 342.024 225.592L346.085 226.576Z" fill="#69F0AE"></path><path d="M368.67 239.947L365.259 238.646L365.905 236.949C365.447 237.361 364.895 237.663 364.25 237.854C363.624 238.037 362.91 237.975 362.108 237.669C360.951 237.227 360.181 236.482 359.798 235.431C359.428 234.386 359.505 233.173 360.031 231.792C360.512 230.529 361.251 229.538 362.247 228.818C363.262 228.091 364.453 227.988 365.82 228.51C366.517 228.776 367.047 229.144 367.41 229.614C367.791 230.075 368.023 230.593 368.106 231.167L369.811 226.688L367.898 225.958L368.514 224.34L372.536 225.875L367.985 237.833L369.286 238.329L368.67 239.947ZM366.881 234.383L367.137 233.713C367.404 232.971 367.403 232.3 367.135 231.701C366.866 231.101 366.416 230.681 365.785 230.44C365.075 230.169 364.394 230.218 363.742 230.587C363.108 230.947 362.616 231.588 362.265 232.509C361.91 233.443 361.856 234.236 362.105 234.888C362.366 235.545 362.806 235.992 363.424 236.228C364.147 236.504 364.838 236.429 365.497 236.002C366.156 235.576 366.618 235.036 366.881 234.383Z" fill="#69F0AE"></path><path d="M379.994 245.349L375.471 243.065L376.25 241.519L377.513 242.156L382.491 232.276L381.153 231.601L381.932 230.055L385.267 231.739L379.51 243.165L380.773 243.803L379.994 245.349Z" fill="#69F0AE"></path><path d="M394.009 240.033L395.303 237.904L397.268 239.102L395.974 241.23L394.009 240.033ZM391.293 251.777L386.966 249.141L387.865 247.662L389.073 248.398L392.187 243.274L390.907 242.495L391.817 240.997L395.009 242.941L390.985 249.562L392.193 250.298L391.293 251.777Z" fill="#69F0AE"></path><path d="M408.083 263.739L404.067 260.65L405.121 259.277L406.225 260.126L408.487 257.18C409.036 256.465 409.293 255.864 409.259 255.377C409.234 254.878 408.993 254.453 408.535 254.101C407.966 253.663 407.373 253.5 406.756 253.611C406.15 253.73 405.635 254.054 405.213 254.581L402.912 257.578L404.033 258.44L402.979 259.813L398.947 256.711L400.001 255.338L401.122 256.201L404.772 251.446L403.601 250.545L404.668 249.155L407.629 251.433L406.691 252.656C407.918 252.144 409.1 252.325 410.238 253.201C410.952 253.75 411.398 254.439 411.577 255.269C411.756 256.099 411.49 256.978 410.779 257.904L408.016 261.504L409.137 262.366L408.083 263.739Z" fill="#69F0AE"></path><path d="M429.998 273.787L429.034 272.81L423.795 277.986C422.724 279.044 421.561 279.599 420.308 279.65C419.064 279.712 417.859 279.151 416.693 277.968C416.001 277.266 415.504 276.462 415.201 275.554C414.899 274.645 414.989 273.705 415.473 272.733L417.379 273.313C416.873 274.644 417.085 275.78 418.014 276.723C418.567 277.284 419.222 277.547 419.978 277.512C420.734 277.478 421.483 277.095 422.223 276.363L423.229 275.369C422.681 275.535 422.099 275.565 421.483 275.462C420.887 275.358 420.283 274.996 419.67 274.374C418.889 273.582 418.487 272.624 418.465 271.499C418.462 270.373 418.991 269.287 420.052 268.239C421.013 267.289 422.111 266.709 423.345 266.499C424.6 266.288 425.712 266.674 426.68 267.656C427.688 268.679 428.009 269.796 427.643 271.008L428.694 269.97L431.244 272.556L429.998 273.787ZM425.166 273.456L425.707 272.922C426.267 272.368 426.554 271.768 426.568 271.12C426.583 270.473 426.352 269.909 425.878 269.428C425.325 268.867 424.694 268.639 423.988 268.743C423.291 268.838 422.597 269.227 421.906 269.909C421.196 270.611 420.818 271.281 420.775 271.917C420.741 272.544 420.951 273.089 421.406 273.55C421.969 274.121 422.609 274.369 423.326 274.294C424.052 274.23 424.666 273.95 425.166 273.456Z" fill="#69F0AE"></path><path fill-rule="evenodd" clip-rule="evenodd" d="M86.0801 394.492C86.0801 393.948 86.5209 393.507 87.0647 393.507H910.296C910.84 393.507 911.281 393.948 911.281 394.492C911.281 395.037 910.84 395.478 910.296 395.478H87.0647C86.5209 395.478 86.0801 395.037 86.0801 394.492Z" fill="black"></path><path d="M480.451 467.896C480.451 469.262 479.973 470.311 479.016 471.043C478.074 471.775 476.822 472.141 475.261 472.141C474.332 472.141 473.432 472.029 472.56 471.804C471.702 471.578 471.02 471.254 470.514 470.832L470.893 467.685L472.771 467.875L472.729 469.565C473.193 469.804 473.615 469.959 473.995 470.03C474.389 470.086 474.754 470.114 475.092 470.114C475.908 470.114 476.583 469.987 477.117 469.734C477.666 469.466 477.94 468.938 477.94 468.15C477.94 467.291 477.631 466.721 477.012 466.439C476.393 466.144 475.683 465.918 474.881 465.763C474.234 465.637 473.58 465.468 472.919 465.257C472.258 465.045 471.709 464.693 471.273 464.201C470.837 463.708 470.619 462.983 470.619 462.025C470.619 460.589 471.104 459.561 472.075 458.942C473.06 458.308 474.157 457.991 475.366 457.991C476.21 457.991 477.026 458.118 477.814 458.372C478.615 458.625 479.241 458.956 479.691 459.364L479.818 462.258L477.94 462.427L477.75 460.653C477.357 460.427 476.963 460.272 476.569 460.188C476.175 460.103 475.795 460.061 475.43 460.061C474.769 460.061 474.22 460.195 473.784 460.462C473.348 460.73 473.13 461.159 473.13 461.751C473.13 462.441 473.397 462.912 473.932 463.166C474.48 463.405 475.092 463.602 475.767 463.757C476.344 463.884 476.998 464.053 477.729 464.264C478.461 464.475 479.094 464.855 479.628 465.404C480.177 465.939 480.451 466.77 480.451 467.896Z" fill="black"></path><path d="M485.912 463.145C486.616 462.807 487.242 462.574 487.79 462.448C488.339 462.321 488.972 462.258 489.689 462.258C490.744 462.258 491.609 462.525 492.284 463.06C492.973 463.595 493.318 464.398 493.318 465.468V469.734C493.318 470.297 493.55 470.579 494.014 470.579C494.141 470.579 494.302 470.55 494.499 470.494L494.52 471.74C494.056 472.008 493.55 472.141 493.001 472.141C491.806 472.141 491.159 471.515 491.06 470.262V470.22C490.779 470.712 490.378 471.156 489.858 471.55C489.351 471.944 488.718 472.141 487.959 472.141C487.298 472.141 486.644 471.944 485.997 471.55C485.364 471.142 485.047 470.438 485.047 469.438C485.047 468.27 485.511 467.502 486.44 467.136C487.368 466.756 488.374 466.566 489.457 466.566C489.724 466.566 489.998 466.573 490.28 466.587C490.561 466.601 490.821 466.622 491.06 466.65V466.122C491.06 465.559 490.962 465.052 490.765 464.602C490.568 464.151 490.076 463.926 489.288 463.926C488.993 463.926 488.711 463.947 488.444 463.989C488.191 464.032 487.945 464.116 487.706 464.243L487.326 465.7L485.511 465.51L485.912 463.145ZM491.06 468.171V467.833C490.821 467.805 490.575 467.777 490.322 467.749C490.069 467.72 489.809 467.706 489.541 467.706C488.979 467.706 488.472 467.805 488.022 468.002C487.586 468.199 487.368 468.593 487.368 469.185C487.368 470.044 487.825 470.473 488.74 470.473C489.274 470.473 489.78 470.283 490.259 469.903C490.737 469.509 491.004 468.931 491.06 468.171Z" fill="black"></path><path d="M509.312 466.946C509.312 468.298 508.953 469.502 508.236 470.558C507.533 471.614 506.443 472.141 504.966 472.141C503.601 472.141 502.61 471.649 501.991 470.663V474.655H503.869V476.429H498.32V474.655H499.733V464.179H498.256V462.448H501.991V464.327C502.258 463.764 502.645 463.278 503.151 462.87C503.672 462.462 504.368 462.258 505.24 462.258C506.45 462.258 507.427 462.673 508.173 463.504C508.932 464.32 509.312 465.468 509.312 466.946ZM506.97 467.178C506.97 466.165 506.738 465.397 506.274 464.876C505.81 464.341 505.219 464.074 504.501 464.074C503.742 464.074 503.144 464.363 502.708 464.94C502.272 465.517 502.04 466.193 502.012 466.967L501.991 467.706C501.991 468.495 502.216 469.128 502.666 469.607C503.13 470.086 503.721 470.325 504.438 470.325C505.24 470.325 505.859 470.044 506.295 469.48C506.745 468.917 506.97 468.15 506.97 467.178Z" fill="black"></path><path d="M518.542 471.93H513.478V470.199H514.892V459.132H513.394V457.4H517.128V470.199H518.542V471.93Z" fill="black"></path><path d="M524.098 460.484V457.991H526.397V460.484H524.098ZM527.874 471.93H522.811V470.199H524.224V464.201H522.726V462.448H526.461V470.199H527.874V471.93Z" fill="black"></path><path d="M543.571 471.93H538.508V470.199H539.9V466.481C539.9 465.58 539.738 464.947 539.415 464.581C539.091 464.201 538.641 464.011 538.065 464.011C537.347 464.011 536.778 464.243 536.356 464.707C535.948 465.172 535.737 465.742 535.723 466.418V470.199H537.136V471.93H532.051V470.199H533.465V464.201H531.988V462.448H535.723V463.989C536.384 462.835 537.432 462.258 538.866 462.258C539.766 462.258 540.54 462.532 541.187 463.081C541.834 463.63 542.158 464.489 542.158 465.658V470.199H543.571V471.93Z" fill="black"></path><path d="M558.486 464.201H557.115V471.571C557.115 473.078 556.693 474.296 555.849 475.225C555.019 476.154 553.774 476.619 552.115 476.619C551.13 476.619 550.209 476.408 549.351 475.985C548.493 475.563 547.888 474.838 547.536 473.81L549.288 472.86C549.878 474.155 550.835 474.803 552.157 474.803C552.945 474.803 553.592 474.521 554.098 473.958C554.604 473.395 554.858 472.592 554.858 471.55V470.135C554.59 470.642 554.203 471.078 553.697 471.445C553.205 471.797 552.523 471.973 551.651 471.973C550.539 471.973 549.576 471.585 548.76 470.811C547.958 470.023 547.557 468.882 547.557 467.39C547.557 466.038 547.916 464.848 548.633 463.82C549.365 462.779 550.42 462.258 551.798 462.258C553.233 462.258 554.253 462.814 554.858 463.926V462.448H558.486V464.201ZM554.858 467.411V466.65C554.858 465.862 554.632 465.235 554.182 464.771C553.732 464.306 553.17 464.074 552.494 464.074C551.707 464.074 551.102 464.363 550.68 464.94C550.258 465.503 550.047 466.27 550.047 467.242C550.047 468.241 550.258 468.981 550.68 469.459C551.102 469.924 551.636 470.156 552.284 470.156C553.085 470.156 553.711 469.875 554.161 469.311C554.625 468.748 554.858 468.115 554.858 467.411Z" fill="black"></path><path d="M830.708 362.868L828.811 363.048L828.411 360.869H824.397V365.048H830.029V366.927H824.397V370.066H826.574V371.965H820.682V370.066H822.18V360.869H820.682V358.97H830.309L830.708 362.868Z" fill="black"></path><path d="M843.468 367.487C843.468 368.886 843.022 370.019 842.13 370.886C841.251 371.739 840.106 372.165 838.694 372.165C837.323 372.165 836.218 371.752 835.379 370.926C834.553 370.099 834.141 368.98 834.141 367.567C834.141 366.261 834.533 365.141 835.319 364.208C836.105 363.262 837.27 362.788 838.814 362.788C840.372 362.788 841.537 363.255 842.31 364.188C843.082 365.121 843.468 366.221 843.468 367.487ZM841.251 367.427C841.251 366.467 841.018 365.734 840.552 365.228C840.099 364.721 839.507 364.468 838.774 364.468C838.015 364.468 837.423 364.741 836.997 365.288C836.571 365.821 836.358 366.54 836.358 367.447C836.358 368.3 836.557 369.02 836.957 369.606C837.37 370.192 837.975 370.486 838.774 370.486C839.547 370.486 840.152 370.206 840.592 369.646C841.031 369.073 841.251 368.333 841.251 367.427Z" fill="black"></path><path d="M852.826 362.848C853.426 362.848 853.985 363.015 854.504 363.348L854.884 366.147L853.226 366.347L852.886 364.808C852.62 364.674 852.394 364.608 852.207 364.608C851.834 364.608 851.508 364.761 851.229 365.068C850.962 365.374 850.829 365.801 850.829 366.347V370.326H852.607V371.965H847.354V370.326H848.692V364.648H847.294V362.988H850.669V364.668C850.829 364.161 851.082 363.735 851.428 363.388C851.788 363.028 852.254 362.848 852.826 362.848Z" fill="black"></path><path d="M867.239 369.226C867.16 370.013 866.773 370.699 866.081 371.285C865.389 371.872 864.437 372.165 863.225 372.165C861.92 372.165 860.848 371.785 860.009 371.026C859.17 370.252 858.751 369.12 858.751 367.627C858.751 366.254 859.13 365.108 859.889 364.188C860.662 363.268 861.734 362.808 863.105 362.808C864.343 362.808 865.322 363.182 866.041 363.928C866.773 364.661 867.146 365.594 867.16 366.727C867.16 367.1 867.12 367.5 867.04 367.927H860.988C861.108 369.606 861.907 370.446 863.385 370.446C864.077 370.446 864.57 370.279 864.863 369.946C865.169 369.613 865.369 369.259 865.462 368.886L867.239 369.226ZM864.962 366.607C865.016 366.074 864.889 365.574 864.583 365.108C864.29 364.628 863.791 364.388 863.085 364.388C862.446 364.388 861.96 364.601 861.627 365.028C861.294 365.454 861.088 365.981 861.008 366.607H864.962Z" fill="black"></path><path d="M878.954 369.286C878.954 370.219 878.568 370.932 877.796 371.425C877.037 371.919 876.065 372.165 874.88 372.165C874.241 372.165 873.595 372.092 872.943 371.945C872.303 371.799 871.724 371.579 871.205 371.285L871.524 368.966L873.202 369.126L873.182 370.286C873.435 370.392 873.702 370.466 873.981 370.506C874.274 370.546 874.534 370.566 874.76 370.566C875.306 370.566 875.779 370.472 876.178 370.286C876.591 370.086 876.797 369.793 876.797 369.406C876.797 369.033 876.611 368.766 876.238 368.606C875.879 368.446 875.426 368.326 874.88 368.246C874.334 368.153 873.788 368.033 873.242 367.887C872.696 367.727 872.237 367.473 871.864 367.127C871.504 366.767 871.325 366.234 871.325 365.527C871.325 364.488 871.718 363.775 872.503 363.388C873.302 363.002 874.141 362.808 875.02 362.808C876.178 362.808 877.27 363.082 878.295 363.628L878.515 365.847L876.837 366.047L876.658 364.708C876.138 364.508 875.612 364.408 875.08 364.408C874.667 364.408 874.314 364.494 874.021 364.668C873.741 364.828 873.602 365.088 873.602 365.447C873.602 365.821 873.781 366.081 874.141 366.227C874.5 366.374 874.947 366.494 875.479 366.587C876.012 366.667 876.544 366.787 877.077 366.947C877.61 367.094 878.056 367.347 878.415 367.707C878.775 368.053 878.954 368.58 878.954 369.286Z" fill="black"></path><path d="M890.163 369.326C889.91 371.219 888.858 372.165 887.007 372.165C886.048 372.165 885.283 371.912 884.71 371.405C884.151 370.899 883.871 370.192 883.871 369.286V364.568H882.553V362.988H883.871V360.209H886.008V362.988H889.344V364.568H886.008V368.946C886.008 369.893 886.421 370.366 887.247 370.366C887.473 370.366 887.726 370.286 888.006 370.126C888.285 369.953 888.478 369.519 888.585 368.826L890.163 369.326Z" fill="black"></path></g></g><defs><clipPath id="clip0_866_9045"><rect width="1024" height="596" fill="white"></rect></clipPath></defs></svg>