<svg xmlns="http://www.w3.org/2000/svg" width="635" height="635" viewBox="0 0 635 635" fill="none"><path d="M143.784 490.706C35.8213 431.039 48.2028 276.285 158.697 178L199 219.5C129.055 284.273 110.224 387.732 151.641 483.005C153.877 488.15 148.694 493.42 143.784 490.706Z" fill="#69F0AE"></path><path d="M272.04 75.1079C286.838 88.1164 279.476 119.964 268.721 150.072C255.779 186.301 227.22 234.225 190.229 223.654C182.73 221.511 176.444 215.415 165.849 206.1C146.303 188.917 141.422 171.958 151.444 147.188C158.963 128.605 174.375 114.558 190.454 102.586C218.302 81.851 252.57 57.9913 272.04 75.1079Z" fill="#69F0AE"></path><path d="M157.452 180C45.5567 324.243 57.1895 390.651 150.385 495C107.405 379.015 112.6 317.594 189 216.308" stroke="black" stroke-width="4" stroke-linecap="round"></path><path d="M162.523 182.631C139.954 160.035 176.934 105.479 215.925 93.5636C220.913 92.0392 225.703 89.7584 229.564 86.252C236.68 79.7893 241.677 76.7148 248.092 77.0498C254.88 77.4043 261.227 81.497 264.171 87.6238C280.87 122.38 244.37 220.043 195.611 219.02C192.422 218.953 189.206 217.947 186.975 215.667C182.976 211.578 181.228 205.187 180.004 191.899" stroke="black" stroke-width="4" stroke-linecap="round"></path><path d="M284.694 78.4551C399.46 32.9311 511.392 140.931 517.286 288.863L459.563 293.624C453.853 198.349 385.72 117.985 285.652 89.414C280.257 87.8737 279.479 80.5237 284.694 78.4551Z" fill="#7B1FA2"></path><path d="M524.915 441.329C505.47 444.503 485.537 418.597 469.103 391.173C449.327 358.174 430.429 305.684 462.08 283.815C468.497 279.381 477.198 278.395 491.122 276.121C516.805 271.928 533.008 278.923 545.784 302.392C555.368 319.998 556.437 340.824 555.48 360.847C553.821 395.528 550.501 437.152 524.915 441.329Z" fill="#7B1FA2"></path><path d="M517.043 286.396C476.063 109.006 417.413 75.7564 278.056 80.9521C394.769 121.648 438.964 164.634 469.108 287.53" stroke="black" stroke-width="4" stroke-linecap="round"></path><path d="M511.365 288.451C543.151 285.359 561.826 348.565 546.279 386.256C544.291 391.077 543.012 396.226 543.27 401.436C543.746 411.037 542.949 416.849 538.617 421.593C534.034 426.613 526.843 428.918 520.24 427.303C482.784 418.141 430.498 327.938 462.244 290.915C464.32 288.493 467.139 286.647 470.317 286.371C476.015 285.877 482.062 288.584 493.106 296.074" stroke="black" stroke-width="4" stroke-linecap="round"></path><path d="M547.067 431.57C532.437 554.165 384.164 601.151 251.28 535.88L274.584 482.856C361.079 523.211 464.193 501.575 536.974 427.193C540.898 423.183 547.731 425.999 547.067 431.57Z" fill="#FF0266"></path><path d="M113.581 469.974C120.051 451.364 152.323 446.175 184.265 444.785C222.7 443.113 277.854 451.495 282.01 489.741C282.852 497.496 279.576 505.616 274.943 518.942C266.398 543.522 252.531 554.438 225.81 554.494C205.764 554.537 186.942 545.558 169.792 535.18C140.088 517.204 105.069 494.461 113.581 469.974Z" fill="#FF0266"></path><path d="M253.565 536.841C429.061 585.292 486.231 549.556 548.033 424.544C456.663 507.789 397.817 526.177 275.397 494.152" stroke="black" stroke-width="4" stroke-linecap="round"></path><path d="M254.46 530.87C242.041 560.292 177.569 546.61 151.832 514.989C148.54 510.944 144.621 507.368 139.918 505.114C131.249 500.959 126.518 497.49 124.409 491.422C122.178 485.002 123.576 477.58 128.141 472.544C154.036 443.972 258.253 440.957 275.689 486.504C276.829 489.483 277.11 492.841 275.839 495.767C273.559 501.012 268.3 505.04 256.454 511.184" stroke="black" stroke-width="4" stroke-linecap="round"></path><path d="M164 483.146C173.049 488.402 177.949 489.778 181.886 487.357C184.667 485.648 185.893 482.203 185.973 478.94C186.01 477.403 185.635 476.729 184.207 477.1C180.098 478.165 176.461 482.198 176.771 486.431C176.832 487.257 177.066 488.126 177.552 489.091C178.036 490.05 178.75 490.883 179.57 491.579C184.424 495.701 187.384 493.326 191 493.258" stroke="black" stroke-width="4" stroke-linecap="round"></path><path d="M512.276 361.603C513.106 371.915 514.746 376.692 518.91 378.553C521.894 379.887 525.442 378.941 528.162 377.13C529.383 376.317 529.707 375.643 528.663 374.717C525.486 371.9 520.045 371.215 516.769 373.916C516.153 374.424 515.596 375.091 515.1 376.001C514.586 376.945 514.309 378.008 514.205 379.078C513.598 385.352 517.201 386.429 519.299 389.338" stroke="black" stroke-width="4" stroke-linecap="round"></path><path d="M206.024 143.746C213.974 137.125 216.933 133.031 216.054 128.555C215.424 125.348 212.606 122.994 209.558 121.814C208.19 121.285 207.453 121.409 207.298 122.796C206.827 127.016 209.402 131.857 213.498 132.978C214.268 133.188 215.134 133.259 216.164 133.14C217.232 133.016 218.26 132.63 219.194 132.098C224.671 128.978 223.474 125.413 224.643 122.023" stroke="black" stroke-width="4" stroke-linecap="round"></path></svg>