<svg xmlns="http://www.w3.org/2000/svg" width="353" height="350" viewBox="0 0 353 350" fill="none"><path d="M256.458 273.122C242.83 284.004 226.535 291.04 209.745 295.756C124.394 319.725 109.561 309.759 67.1187 245.251C27.1491 196.85 62.1508 117.418 116.388 66.1984C124.15 58.8691 132.965 52.6712 142.661 48.2047C202.595 20.5941 248.683 42.9071 277.981 89.5056C284.403 99.7198 288.578 111.19 291.388 122.923C310.532 202.864 297.021 240.735 256.458 273.122Z" fill="#69F0AE"></path><path d="M169.076 283.895L116.882 269.942C116.36 269.802 115.91 269.45 115.655 268.973C101.562 242.636 122.298 217.075 162.35 219.183C120.322 188.327 135.194 147.076 188.951 133.53C155.911 109.406 158.479 91.7111 178.496 63.9808C179.011 63.2679 179.941 62.9704 180.772 63.2595L237.695 83.081C238.46 83.3474 238.991 84.0673 239.029 84.8765C240.643 119.177 228.862 128.803 188.951 133.53C236.487 175.026 203.315 211.203 162.35 219.183C187.116 241.314 193.615 271.794 170.477 283.747C170.048 283.968 169.542 284.019 169.076 283.895Z" fill="white"></path><path d="M166.164 283.401L158.023 280.551C157.216 280.269 157.117 279.159 157.842 278.707C179.584 265.154 173.653 249.709 159.159 218.651C209.167 189.923 204.911 172.366 188.419 131.934C218.329 121.104 229.774 101.515 225.573 82.1649C225.403 81.3804 226.154 80.6859 226.912 80.9497L236.731 84.3652C237.114 84.4983 237.38 84.8628 237.4 85.2675C239.127 119.511 224.935 126.608 188.419 131.934C231.512 184.602 217.148 208.543 159.159 218.651C184.567 230.826 193.827 266.792 167.015 283.308C166.762 283.464 166.445 283.499 166.164 283.401Z" fill="#F8F8F8"></path><path d="M127.768 245.966L171.926 259.798" stroke="black" stroke-width="2" stroke-linecap="round"></path><path d="M139.473 233.197C152.819 237.738 162.187 241.078 170.861 243.655" stroke="black" stroke-width="2" stroke-linecap="round"></path><path d="M117.66 267.596C109.148 239.399 117.659 226.631 159.688 218.651C211.824 208.752 226.218 184.565 191.077 134.594C159.688 110.653 160.915 89.7728 180.437 65.4329" stroke="black" stroke-width="2" stroke-linecap="round"></path><path d="M168.731 281.96C190.543 269.192 185.223 243.123 161.283 218.119C126.17 181.446 134.15 146.83 190.543 132.466C226.188 129.806 236.619 117.694 236.828 86.1813" stroke="black" stroke-width="2" stroke-linecap="round"></path><path d="M179.905 105.333C189.675 109.029 198.632 111.589 211.826 115.974" stroke="black" stroke-width="2" stroke-linecap="round"></path><path d="M160.785 159.926C170.555 163.622 184.268 167.449 197.461 171.834" stroke="black" stroke-width="2" stroke-linecap="round"></path><path d="M124.044 261.212C132.557 264.936 152.88 271.191 166.073 275.576" stroke="black" stroke-width="2" stroke-linecap="round"></path><path d="M154.389 194.307C164.159 198.002 169.37 198.838 182.564 203.223" stroke="black" stroke-width="2" stroke-linecap="round"></path><path d="M174.053 147.894C179.906 149.49 180.012 149.361 193.205 153.746" stroke="black" stroke-width="2" stroke-linecap="round"></path><path d="M148.007 173.027C156.379 175.908 184.484 184.51 198.526 189.391" stroke="black" stroke-width="2" stroke-linecap="round"></path><path d="M179.906 89.3733C192.726 94.7687 205.96 97.8021 222.467 103.205" stroke="black" stroke-width="2" stroke-linecap="round"></path><path d="M183.196 73.1036C197.142 78.1239 215.975 83.292 230.446 89.3733" stroke="black" stroke-width="2" stroke-linecap="round"></path></svg>