<svg xmlns="http://www.w3.org/2000/svg" width="1239" height="928" viewBox="0 0 1239 928" fill="none"><path d="M757.016 817.337C733.185 860.677 618.323 936.06 423.134 921.088C237.207 941.05 116.343 921.088 83.0015 817.337C49.6597 713.586 159.498 706.5 280.5 738.838C302.204 730.062 323.551 723.77 343.769 719.577C421.038 703.552 549.367 712.563 627.781 721.427C714.052 731.179 781.193 773.367 757.016 817.337Z" fill="#69F0AE"></path><path d="M2 792.211C2 708.342 50.3945 749.783 84.3345 799.079C101.552 824.087 115.024 861.261 92.3133 881.411C87.7345 885.474 82.7611 885.001 78.3497 875.923C42.4896 802.125 70.621 774.165 114.885 740.079C139.252 721.315 187.18 725.943 225.346 733.896C261.95 741.524 300.073 740.767 336.069 730.65C380.511 718.159 416.735 715.262 456.509 721.162C497.745 727.28 539.68 725.008 581.207 721.354C615.619 718.326 639.795 726.881 675.516 735.997C675.701 736.044 675.89 736.107 676.067 736.18C738.136 761.912 766.099 780.728 765.731 812.763C765.256 854.083 754.349 874.597 742.322 881.374C717.326 895.46 721.714 847.111 747.059 833.663C792.274 809.674 828.495 811.621 802.032 709" stroke="black" stroke-width="4" stroke-linecap="round" stroke-linejoin="round"></path><path d="M158.682 803.5C163.305 808.513 166.499 809.354 168.447 819M168.447 819C170.649 809.387 170.55 802.063 169.038 793M168.447 819C172.277 811.667 174.495 809.082 178.507 807.5" stroke="black" stroke-width="4" stroke-linecap="round" stroke-linejoin="round"></path><path d="M415.527 865.5C420.151 870.513 423.345 871.354 425.292 881M425.292 881C427.495 871.387 427.396 864.063 425.884 855M425.292 881C429.123 873.667 431.34 871.082 435.353 869.5" stroke="black" stroke-width="4" stroke-linecap="round" stroke-linejoin="round"></path><path d="M509.033 803.5C513.657 808.513 516.851 809.354 518.798 819M518.798 819C521.001 809.387 520.901 802.063 519.39 793M518.798 819C522.628 811.667 524.846 809.082 528.859 807.5" stroke="black" stroke-width="4" stroke-linecap="round" stroke-linejoin="round"></path><path d="M228.516 862C233.851 866.569 234.703 871.794 235.913 881.5C236.988 872.986 238.793 870.188 243.903 868.5" stroke="black" stroke-width="4" stroke-linecap="round" stroke-linejoin="round"></path><path d="M346.285 791C351.62 795.569 352.473 800.794 353.683 810.5C354.757 801.986 356.563 799.188 361.672 797.5" stroke="black" stroke-width="4" stroke-linecap="round" stroke-linejoin="round"></path><path d="M648.701 831C654.036 835.569 654.889 840.794 656.099 850.5C657.173 841.986 658.979 839.188 664.088 837.5" stroke="black" stroke-width="4" stroke-linecap="round" stroke-linejoin="round"></path><path d="M373.67 498.985C398.246 563.982 332.688 633 282.135 633C231.581 633 165.198 589.445 190.599 498.985C205.943 444.341 227.797 415.061 250.265 396.788C275.527 376.242 313.878 375.131 331.961 402.209C348.896 427.567 360.425 463.953 373.67 498.985Z" fill="#69F0AE"></path><path d="M590.104 258.412C643 368 559 529 471.674 529C406.267 529 305.987 388.324 353.244 258.412C386.176 167.877 402.229 104.254 433.803 55.7262C459.813 15.7514 513.664 16.6538 528.828 61.8703C546.623 114.931 557.791 191.467 590.104 258.412Z" fill="#69F0AE"></path><path d="M669.745 558.801C690.062 627.767 681.5 685 594.072 701C552.279 701 462.5 632.5 518.399 558.801C531.821 541.105 542.406 526.009 551.056 512.821C584.591 461.689 637.747 450.995 655.462 509.52C660.288 525.461 664.876 542.273 669.745 558.801Z" fill="#69F0AE"></path><path d="M266.622 753C281.112 719.726 288.397 697.197 285.959 585.572C284.217 517.527 285.959 435.325 302.32 425.089V425.089C321.422 413.139 314.142 453.657 295.573 466.418C268.324 485.146 241.415 508.185 223.503 555.498C222.508 558.128 224.53 560.9 227.341 560.842C284.804 559.655 296.013 570.99 326.714 601" stroke="#7B1FA2" stroke-width="6" stroke-linecap="round" stroke-linejoin="round"></path><path d="M440.279 710C454.657 650.409 461.886 610.062 459.467 410.151C457.738 288.29 443.231 164.831 459.467 146.5V146.5C478.618 124.877 509.675 149.765 505.086 178.282C497.653 224.472 472.416 291.192 388.393 370.242C385.643 372.829 387.564 377.606 391.338 377.503C449.148 375.924 503.092 389.511 552 434.5" stroke="#7B1FA2" stroke-width="6" stroke-linecap="round" stroke-linejoin="round"></path><path d="M574.146 786C583.286 760.086 587.881 742.541 586.343 655.609C585.244 602.617 586.343 538.598 596.664 530.627V530.627C611.866 518.884 606.521 557.091 589.825 566.59C575.711 574.62 561.447 586.381 547.128 622.891C546.087 625.545 548.145 628.371 550.995 628.31C586.69 627.536 606.957 634.093 628 663" stroke="#7B1FA2" stroke-width="5" stroke-linecap="round" stroke-linejoin="round"></path><path d="M221.333 648.912C221.333 688.248 202.256 706.781 178.723 706.781C155.19 706.781 137 688.248 137 648.912C144.398 617.54 169.254 657.32 187.6 631.389C205.946 605.459 221.333 609.576 221.333 648.912Z" fill="#69F0AE"></path><path d="M171.325 756.694C179.65 737.952 181.871 723.846 181.976 693.17C181.977 692.931 181.955 692.68 181.912 692.444C177.864 670.067 171.901 663.671 152.979 666.556M187.008 666.556C190.292 652.553 194.729 651 204.466 652.689" stroke="black" stroke-width="4" stroke-linecap="round" stroke-linejoin="round"></path><circle cx="204" cy="195" r="71" fill="#FFDE03"></circle><path d="M502 700C502.781 708.592 505 712.5 504 722" stroke="black" stroke-width="4" stroke-linecap="round"></path><path d="M500.677 679.005C491.728 679.277 486.212 692.26 484.049 698.595C483.544 700.073 484.92 701.428 486.425 701.011C490.144 699.981 496.155 698.444 500.677 697.911C506.478 697.228 514.876 697.603 518.375 697.807C519.121 697.85 519.649 697.11 519.326 696.436C517.167 691.939 510.017 678.721 500.677 679.005Z" stroke="black" stroke-width="4"></path><path d="M468.957 695.249C468.775 702.068 470.156 705.342 468.491 712.71" stroke="black" stroke-width="4" stroke-linecap="round"></path><path d="M469.74 678.625C463.079 678.045 457.787 686.719 455.344 691.626C454.647 693.025 455.85 694.535 457.396 694.306C460.396 693.862 464.73 693.319 468.008 693.32C472.4 693.322 478.563 694.299 481.445 694.801C482.181 694.93 482.79 694.251 482.541 693.546C481.136 689.567 476.825 679.243 469.74 678.625Z" stroke="black" stroke-width="4"></path><path d="M529.078 700.258C528.925 705.271 529.931 707.683 528.686 713.095" stroke="black" stroke-width="4" stroke-linecap="round"></path><path d="M529.702 688.037C525.166 687.623 521.472 693.054 519.513 696.718C518.777 698.097 519.967 699.61 521.516 699.401C523.628 699.117 526.299 698.828 528.387 698.837C531.414 698.849 535.582 699.497 537.837 699.889C538.573 700.018 539.182 699.34 538.927 698.638C537.774 695.469 534.684 688.491 529.702 688.037Z" stroke="black" stroke-width="4"></path><path d="M355.03 512.076C356.594 512.395 357.581 513.967 357.114 515.494C355.035 522.29 352.167 526.19 346.786 528.771C342.128 531.006 335.32 530.205 330.636 529.195C322.878 519.55 342.464 509.555 354.6 511.989C354.742 512.018 354.885 512.047 355.03 512.076Z" fill="#55CA91"></path><path d="M358.968 552.06C358.968 566.901 346.786 578.215 331.021 572.482C315.973 576.782 302 565.222 302 550.381C302 535.54 312.032 516.948 331.021 527.338C354.668 515.515 358.968 537.219 358.968 552.06Z" fill="#FF0266"></path><path d="M321.706 517.306C329.591 518.728 330.284 522.004 330.663 528.413M330.663 528.413C341.732 527.258 346.867 524.917 351.725 517.865C352.503 516.737 351.84 515.209 350.488 514.98C338.573 512.969 334.328 516.718 330.663 528.413ZM330.663 528.413C298.776 517.664 298.06 575.707 330.663 568.183C332.786 567.823 333.628 567.709 334.237 567.41C336.602 566.251 338.125 561.93 335.758 560.772C335.176 560.487 334.392 560.717 333.197 561.408C332.457 561.836 331.813 562.435 331.384 563.175C329.445 566.513 331.981 566.993 335.621 569.663C335.896 569.864 336.219 570.006 336.558 570.034C353.512 571.445 366.838 520.965 330.663 528.413Z" stroke="black" stroke-width="4" stroke-linecap="round"></path><path d="M573.03 295.076C574.594 295.395 575.581 296.967 575.114 298.494C573.035 305.29 570.167 309.19 564.786 311.771C560.128 314.006 553.32 313.205 548.636 312.195C540.878 302.55 560.464 292.555 572.6 294.989C572.742 295.018 572.885 295.047 573.03 295.076Z" fill="#55CA91"></path><path d="M576.968 335.06C576.968 349.901 564.786 361.215 549.021 355.482C533.973 359.782 520 348.222 520 333.381C520 318.54 530.032 299.948 549.021 310.338C572.668 298.515 576.968 320.219 576.968 335.06Z" fill="#FF0266"></path><path d="M539.706 300.306C547.591 301.728 548.284 305.004 548.663 311.413M548.663 311.413C559.732 310.258 564.867 307.917 569.725 300.865C570.503 299.737 569.84 298.209 568.488 297.98C556.573 295.969 552.328 299.718 548.663 311.413ZM548.663 311.413C516.776 300.664 516.06 358.707 548.663 351.183C550.786 350.823 551.628 350.709 552.237 350.41C554.602 349.251 556.125 344.93 553.758 343.772C553.176 343.487 552.392 343.717 551.197 344.408C550.457 344.836 549.813 345.435 549.384 346.175C547.445 349.513 549.981 349.993 553.621 352.663C553.896 352.864 554.219 353.006 554.558 353.034C571.512 354.445 584.838 303.965 548.663 311.413Z" stroke="black" stroke-width="4" stroke-linecap="round"></path><path d="M667.03 572.076C668.594 572.395 669.581 573.967 669.114 575.494C667.035 582.29 664.167 586.19 658.786 588.771C654.128 591.006 647.32 590.205 642.636 589.195C634.878 579.55 654.464 569.555 666.6 571.989C666.742 572.018 666.885 572.047 667.03 572.076Z" fill="#55CA91"></path><path d="M670.968 612.06C670.968 626.901 658.786 638.215 643.021 632.482C627.973 636.782 614 625.222 614 610.381C614 595.54 624.032 576.948 643.021 587.338C666.668 575.515 670.968 597.219 670.968 612.06Z" fill="#FF0266"></path><path d="M633.706 577.306C641.591 578.728 642.284 582.004 642.663 588.413M642.663 588.413C653.732 587.258 658.867 584.917 663.725 577.865C664.503 576.737 663.84 575.209 662.488 574.98C650.573 572.969 646.328 576.718 642.663 588.413ZM642.663 588.413C610.776 577.664 610.06 635.707 642.663 628.183C644.786 627.823 645.628 627.709 646.237 627.41C648.602 626.251 650.125 621.93 647.758 620.772C647.176 620.487 646.392 620.717 645.197 621.408C644.457 621.836 643.813 622.435 643.384 623.175C641.445 626.513 643.981 626.993 647.621 629.663C647.896 629.864 648.219 630.006 648.558 630.034C665.512 631.445 678.838 580.965 642.663 588.413Z" stroke="black" stroke-width="4" stroke-linecap="round"></path><path d="M667.03 572.076C668.594 572.395 669.581 573.967 669.114 575.494C667.035 582.29 664.167 586.19 658.786 588.771C654.128 591.006 647.32 590.205 642.636 589.195C634.878 579.55 654.464 569.555 666.6 571.989C666.742 572.018 666.885 572.047 667.03 572.076Z" fill="#55CA91"></path><path d="M670.968 612.06C670.968 626.901 658.786 638.215 643.021 632.482C627.973 636.782 614 625.222 614 610.381C614 595.54 624.032 576.948 643.021 587.338C666.668 575.515 670.968 597.219 670.968 612.06Z" fill="#FF0266"></path><path d="M633.706 577.306C641.591 578.728 642.284 582.004 642.663 588.413M642.663 588.413C653.732 587.258 658.867 584.917 663.725 577.865C664.503 576.737 663.84 575.209 662.488 574.98C650.573 572.969 646.328 576.718 642.663 588.413ZM642.663 588.413C610.776 577.664 610.06 635.707 642.663 628.183C644.786 627.823 645.628 627.709 646.237 627.41C648.602 626.251 650.125 621.93 647.758 620.772C647.176 620.487 646.392 620.717 645.197 621.408C644.457 621.836 643.813 622.435 643.384 623.175C641.445 626.513 643.981 626.993 647.621 629.663C647.896 629.864 648.219 630.006 648.558 630.034C665.512 631.445 678.838 580.965 642.663 588.413Z" stroke="black" stroke-width="4" stroke-linecap="round"></path><path d="M594.172 325.172C592.609 326.734 592.609 329.266 594.172 330.828L619.627 356.284C621.19 357.846 623.722 357.846 625.284 356.284C626.846 354.722 626.846 352.19 625.284 350.627L602.657 328L625.284 305.373C626.846 303.81 626.846 301.278 625.284 299.716C623.722 298.154 621.19 298.154 619.627 299.716L594.172 325.172ZM1016 332C1018.21 332 1020 330.209 1020 328C1020 325.791 1018.21 324 1016 324V332ZM597 332H1016V324H597V332Z" fill="#FF0266"></path><path d="M725.56 526C724.973 526 724.48 525.8 724.08 525.4C723.68 525 723.48 524.507 723.48 523.92V496.84C723.48 496.227 723.68 495.733 724.08 495.36C724.48 494.96 724.973 494.76 725.56 494.76H743.64C744.253 494.76 744.747 494.947 745.12 495.32C745.493 495.667 745.68 496.133 745.68 496.72C745.68 497.28 745.493 497.733 745.12 498.08C744.747 498.427 744.253 498.6 743.64 498.6H727.64V508.32H739.12C739.733 508.32 740.227 508.507 740.6 508.88C740.973 509.227 741.16 509.68 741.16 510.24C741.16 510.8 740.973 511.267 740.6 511.64C740.227 511.987 739.733 512.16 739.12 512.16H727.64V523.92C727.64 524.507 727.44 525 727.04 525.4C726.64 525.8 726.147 526 725.56 526ZM753.04 526C752.453 526 751.96 525.813 751.56 525.44C751.187 525.04 751 524.547 751 523.96V506.16C751 505.547 751.187 505.053 751.56 504.68C751.96 504.307 752.453 504.12 753.04 504.12C753.653 504.12 754.147 504.307 754.52 504.68C754.893 505.053 755.08 505.547 755.08 506.16V523.96C755.08 524.547 754.893 525.04 754.52 525.44C754.147 525.813 753.653 526 753.04 526ZM753.04 500.56C752.32 500.56 751.693 500.307 751.16 499.8C750.653 499.267 750.4 498.64 750.4 497.92C750.4 497.2 750.653 496.587 751.16 496.08C751.693 495.547 752.32 495.28 753.04 495.28C753.76 495.28 754.373 495.547 754.88 496.08C755.413 496.587 755.68 497.2 755.68 497.92C755.68 498.64 755.413 499.267 754.88 499.8C754.373 500.307 753.76 500.56 753.04 500.56ZM771.79 526.16C769.79 526.16 768.017 525.693 766.47 524.76C764.95 523.8 763.75 522.493 762.87 520.84C761.99 519.16 761.55 517.24 761.55 515.08C761.55 512.893 762.017 510.973 762.95 509.32C763.91 507.64 765.217 506.333 766.87 505.4C768.524 504.44 770.43 503.96 772.59 503.96C774.724 503.96 776.617 504.44 778.27 505.4C779.924 506.333 781.217 507.64 782.15 509.32C783.11 510.973 783.59 512.893 783.59 515.08H781.23C781.23 517.24 780.817 519.16 779.99 520.84C779.19 522.493 778.084 523.8 776.67 524.76C775.257 525.693 773.63 526.16 771.79 526.16ZM772.51 535.08C770.617 535.08 768.844 534.707 767.19 533.96C765.537 533.213 764.137 532.12 762.99 530.68C762.644 530.227 762.51 529.76 762.59 529.28C762.697 528.8 762.964 528.413 763.39 528.12C763.87 527.8 764.364 527.693 764.87 527.8C765.404 527.907 765.83 528.173 766.15 528.6C766.87 529.507 767.777 530.213 768.87 530.72C769.964 531.227 771.204 531.48 772.59 531.48C773.87 531.48 775.044 531.173 776.11 530.56C777.204 529.947 778.07 529.04 778.71 527.84C779.35 526.64 779.67 525.173 779.67 523.44V517.76L780.99 514.24L783.59 515.08V523.72C783.59 525.827 783.124 527.733 782.19 529.44C781.257 531.173 779.95 532.547 778.27 533.56C776.617 534.573 774.697 535.08 772.51 535.08ZM772.59 522.56C773.977 522.56 775.204 522.24 776.27 521.6C777.337 520.96 778.164 520.08 778.75 518.96C779.364 517.84 779.67 516.547 779.67 515.08C779.67 513.613 779.364 512.32 778.75 511.2C778.164 510.053 777.337 509.16 776.27 508.52C775.204 507.88 773.977 507.56 772.59 507.56C771.204 507.56 769.977 507.88 768.91 508.52C767.844 509.16 767.004 510.053 766.39 511.2C765.777 512.32 765.47 513.613 765.47 515.08C765.47 516.547 765.777 517.84 766.39 518.96C767.004 520.08 767.844 520.96 768.91 521.6C769.977 522.24 771.204 522.56 772.59 522.56ZM798.863 526.2C797.023 526.2 795.369 525.813 793.903 525.04C792.463 524.24 791.316 523.08 790.463 521.56C789.636 520.04 789.223 518.173 789.223 515.96V506.12C789.223 505.533 789.409 505.053 789.783 504.68C790.183 504.28 790.676 504.08 791.263 504.08C791.849 504.08 792.329 504.28 792.703 504.68C793.103 505.053 793.303 505.533 793.303 506.12V515.96C793.303 517.453 793.583 518.693 794.143 519.68C794.703 520.64 795.463 521.36 796.423 521.84C797.383 522.293 798.463 522.52 799.663 522.52C800.809 522.52 801.823 522.293 802.703 521.84C803.609 521.387 804.329 520.773 804.863 520C805.396 519.227 805.663 518.36 805.663 517.4H808.183C808.183 519.053 807.769 520.547 806.943 521.88C806.143 523.213 805.036 524.267 803.623 525.04C802.236 525.813 800.649 526.2 798.863 526.2ZM807.703 526C807.116 526 806.623 525.813 806.223 525.44C805.849 525.04 805.663 524.547 805.663 523.96V506.12C805.663 505.507 805.849 505.013 806.223 504.64C806.623 504.267 807.116 504.08 807.703 504.08C808.316 504.08 808.809 504.267 809.183 504.64C809.556 505.013 809.743 505.507 809.743 506.12V523.96C809.743 524.547 809.556 525.04 809.183 525.44C808.809 525.813 808.316 526 807.703 526ZM818.888 512.32C818.888 510.72 819.275 509.293 820.048 508.04C820.848 506.76 821.915 505.747 823.248 505C824.581 504.253 826.048 503.88 827.648 503.88C829.248 503.88 830.435 504.147 831.208 504.68C832.008 505.187 832.315 505.8 832.128 506.52C832.048 506.893 831.888 507.187 831.648 507.4C831.435 507.587 831.181 507.707 830.888 507.76C830.595 507.813 830.275 507.8 829.928 507.72C828.221 507.373 826.688 507.347 825.328 507.64C823.968 507.933 822.888 508.48 822.088 509.28C821.315 510.08 820.928 511.093 820.928 512.32H818.888ZM818.928 526C818.288 526 817.795 525.84 817.448 525.52C817.101 525.173 816.928 524.667 816.928 524V506.12C816.928 505.48 817.101 504.987 817.448 504.64C817.795 504.293 818.288 504.12 818.928 504.12C819.595 504.12 820.088 504.293 820.408 504.64C820.755 504.96 820.928 505.453 820.928 506.12V524C820.928 524.64 820.755 525.133 820.408 525.48C820.088 525.827 819.595 526 818.928 526ZM843.9 526.16C841.953 526.16 840.206 525.68 838.66 524.72C837.113 523.733 835.886 522.413 834.98 520.76C834.1 519.08 833.66 517.187 833.66 515.08C833.66 512.973 834.14 511.08 835.1 509.4C836.086 507.72 837.406 506.4 839.06 505.44C840.74 504.453 842.62 503.96 844.7 503.96C846.78 503.96 848.646 504.453 850.3 505.44C851.953 506.4 853.26 507.72 854.22 509.4C855.206 511.08 855.7 512.973 855.7 515.08H854.14C854.14 517.187 853.686 519.08 852.78 520.76C851.9 522.413 850.686 523.733 849.14 524.72C847.593 525.68 845.846 526.16 843.9 526.16ZM844.7 522.56C846.06 522.56 847.273 522.24 848.34 521.6C849.406 520.933 850.246 520.04 850.86 518.92C851.473 517.773 851.78 516.493 851.78 515.08C851.78 513.64 851.473 512.36 850.86 511.24C850.246 510.093 849.406 509.2 848.34 508.56C847.273 507.893 846.06 507.56 844.7 507.56C843.366 507.56 842.153 507.893 841.06 508.56C839.993 509.2 839.14 510.093 838.5 511.24C837.886 512.36 837.58 513.64 837.58 515.08C837.58 516.493 837.886 517.773 838.5 518.92C839.14 520.04 839.993 520.933 841.06 521.6C842.153 522.24 843.366 522.56 844.7 522.56ZM853.66 526.04C853.073 526.04 852.58 525.853 852.18 525.48C851.806 525.08 851.62 524.587 851.62 524V517.88L852.38 513.64L855.7 515.08V524C855.7 524.587 855.5 525.08 855.1 525.48C854.726 525.853 854.246 526.04 853.66 526.04ZM869.732 526C868.399 526 867.199 525.667 866.132 525C865.065 524.307 864.225 523.373 863.612 522.2C862.999 521.027 862.692 519.707 862.692 518.24V499.16C862.692 498.573 862.879 498.093 863.252 497.72C863.625 497.347 864.105 497.16 864.692 497.16C865.279 497.16 865.759 497.347 866.132 497.72C866.505 498.093 866.692 498.573 866.692 499.16V518.24C866.692 519.307 866.985 520.2 867.572 520.92C868.159 521.64 868.879 522 869.732 522H871.092C871.572 522 871.972 522.187 872.292 522.56C872.639 522.933 872.812 523.413 872.812 524C872.812 524.587 872.585 525.067 872.132 525.44C871.705 525.813 871.145 526 870.452 526H869.732ZM860.852 508.36C860.292 508.36 859.839 508.2 859.492 507.88C859.145 507.56 858.972 507.16 858.972 506.68C858.972 506.147 859.145 505.72 859.492 505.4C859.839 505.08 860.292 504.92 860.852 504.92H870.092C870.652 504.92 871.105 505.08 871.452 505.4C871.799 505.72 871.972 506.147 871.972 506.68C871.972 507.16 871.799 507.56 871.452 507.88C871.105 508.2 870.652 508.36 870.092 508.36H860.852ZM880.267 526C879.68 526 879.187 525.813 878.787 525.44C878.413 525.04 878.227 524.547 878.227 523.96V506.16C878.227 505.547 878.413 505.053 878.787 504.68C879.187 504.307 879.68 504.12 880.267 504.12C880.88 504.12 881.373 504.307 881.747 504.68C882.12 505.053 882.307 505.547 882.307 506.16V523.96C882.307 524.547 882.12 525.04 881.747 525.44C881.373 525.813 880.88 526 880.267 526ZM880.267 500.56C879.547 500.56 878.92 500.307 878.387 499.8C877.88 499.267 877.627 498.64 877.627 497.92C877.627 497.2 877.88 496.587 878.387 496.08C878.92 495.547 879.547 495.28 880.267 495.28C880.987 495.28 881.6 495.547 882.107 496.08C882.64 496.587 882.907 497.2 882.907 497.92C882.907 498.64 882.64 499.267 882.107 499.8C881.6 500.307 880.987 500.56 880.267 500.56ZM897.297 525.96C896.47 525.96 895.83 525.52 895.377 524.64L886.897 506.76C886.684 506.307 886.657 505.867 886.817 505.44C887.004 504.987 887.35 504.64 887.857 504.4C888.31 504.16 888.764 504.12 889.217 504.28C889.697 504.44 890.057 504.747 890.297 505.2L898.217 522.28H896.297L904.137 505.2C904.377 504.747 904.737 504.44 905.217 504.28C905.724 504.12 906.23 504.16 906.737 504.4C907.217 504.613 907.537 504.947 907.697 505.4C907.857 505.853 907.83 506.307 907.617 506.76L899.137 524.64C898.737 525.52 898.124 525.96 897.297 525.96ZM921.31 526.16C919.096 526.16 917.123 525.693 915.39 524.76C913.683 523.8 912.336 522.493 911.35 520.84C910.39 519.16 909.91 517.24 909.91 515.08C909.91 512.893 910.363 510.973 911.27 509.32C912.203 507.64 913.483 506.333 915.11 505.4C916.736 504.44 918.603 503.96 920.71 503.96C922.79 503.96 924.576 504.427 926.07 505.36C927.563 506.267 928.696 507.533 929.47 509.16C930.27 510.76 930.67 512.613 930.67 514.72C930.67 515.227 930.496 515.653 930.15 516C929.803 516.32 929.363 516.48 928.83 516.48H912.71V513.28H928.71L927.07 514.4C927.043 513.067 926.776 511.88 926.27 510.84C925.763 509.773 925.043 508.933 924.11 508.32C923.176 507.707 922.043 507.4 920.71 507.4C919.19 507.4 917.883 507.733 916.79 508.4C915.723 509.067 914.91 509.987 914.35 511.16C913.79 512.307 913.51 513.613 913.51 515.08C913.51 516.547 913.843 517.853 914.51 519C915.176 520.147 916.096 521.053 917.27 521.72C918.443 522.387 919.79 522.72 921.31 522.72C922.136 522.72 922.976 522.573 923.83 522.28C924.71 521.96 925.416 521.6 925.95 521.2C926.35 520.907 926.776 520.76 927.23 520.76C927.71 520.733 928.123 520.867 928.47 521.16C928.923 521.56 929.163 522 929.19 522.48C929.216 522.96 929.003 523.373 928.55 523.72C927.643 524.44 926.51 525.027 925.15 525.48C923.816 525.933 922.536 526.16 921.31 526.16ZM952.792 526C951.619 526 950.579 525.68 949.672 525.04C948.766 524.4 948.059 523.533 947.552 522.44C947.046 521.32 946.792 520.04 946.792 518.6V496.76C946.792 496.173 946.979 495.693 947.352 495.32C947.726 494.947 948.206 494.76 948.792 494.76C949.379 494.76 949.859 494.947 950.232 495.32C950.606 495.693 950.792 496.173 950.792 496.76V518.6C950.792 519.587 950.979 520.4 951.352 521.04C951.726 521.68 952.206 522 952.792 522H953.792C954.326 522 954.752 522.187 955.072 522.56C955.419 522.933 955.592 523.413 955.592 524C955.592 524.587 955.339 525.067 954.832 525.44C954.326 525.813 953.672 526 952.872 526H952.792ZM967.493 526.16C965.547 526.16 963.8 525.68 962.253 524.72C960.707 523.733 959.48 522.413 958.573 520.76C957.693 519.08 957.253 517.187 957.253 515.08C957.253 512.973 957.733 511.08 958.693 509.4C959.68 507.72 961 506.4 962.653 505.44C964.333 504.453 966.213 503.96 968.293 503.96C970.373 503.96 972.24 504.453 973.893 505.44C975.547 506.4 976.853 507.72 977.813 509.4C978.8 511.08 979.293 512.973 979.293 515.08H977.733C977.733 517.187 977.28 519.08 976.373 520.76C975.493 522.413 974.28 523.733 972.733 524.72C971.187 525.68 969.44 526.16 967.493 526.16ZM968.293 522.56C969.653 522.56 970.867 522.24 971.933 521.6C973 520.933 973.84 520.04 974.453 518.92C975.067 517.773 975.373 516.493 975.373 515.08C975.373 513.64 975.067 512.36 974.453 511.24C973.84 510.093 973 509.2 971.933 508.56C970.867 507.893 969.653 507.56 968.293 507.56C966.96 507.56 965.747 507.893 964.653 508.56C963.587 509.2 962.733 510.093 962.093 511.24C961.48 512.36 961.173 513.64 961.173 515.08C961.173 516.493 961.48 517.773 962.093 518.92C962.733 520.04 963.587 520.933 964.653 521.6C965.747 522.24 966.96 522.56 968.293 522.56ZM977.253 526.04C976.667 526.04 976.173 525.853 975.773 525.48C975.4 525.08 975.213 524.587 975.213 524V517.88L975.973 513.64L979.293 515.08V524C979.293 524.587 979.093 525.08 978.693 525.48C978.32 525.853 977.84 526.04 977.253 526.04ZM989.286 535.6C989.019 535.6 988.699 535.52 988.326 535.36C987.152 534.827 986.832 533.987 987.366 532.84L999.566 505.28C1000.1 504.16 1000.94 503.84 1002.09 504.32C1003.29 504.827 1003.62 505.667 1003.09 506.84L990.846 534.36C990.526 535.187 990.006 535.6 989.286 535.6ZM994.006 525.12C993.499 525.333 993.019 525.36 992.566 525.2C992.139 525.013 991.792 524.667 991.526 524.16L982.366 506.76C982.099 506.253 982.059 505.773 982.246 505.32C982.459 504.84 982.819 504.493 983.326 504.28C983.832 504.067 984.312 504.053 984.766 504.24C985.219 504.4 985.566 504.733 985.806 505.24L994.566 522.64C994.832 523.147 994.926 523.64 994.846 524.12C994.792 524.573 994.512 524.907 994.006 525.12ZM1016.43 526.16C1014.21 526.16 1012.24 525.693 1010.51 524.76C1008.8 523.8 1007.45 522.493 1006.47 520.84C1005.51 519.16 1005.03 517.24 1005.03 515.08C1005.03 512.893 1005.48 510.973 1006.39 509.32C1007.32 507.64 1008.6 506.333 1010.23 505.4C1011.85 504.44 1013.72 503.96 1015.83 503.96C1017.91 503.96 1019.69 504.427 1021.19 505.36C1022.68 506.267 1023.81 507.533 1024.59 509.16C1025.39 510.76 1025.79 512.613 1025.79 514.72C1025.79 515.227 1025.61 515.653 1025.27 516C1024.92 516.32 1024.48 516.48 1023.95 516.48H1007.83V513.28H1023.83L1022.19 514.4C1022.16 513.067 1021.89 511.88 1021.39 510.84C1020.88 509.773 1020.16 508.933 1019.23 508.32C1018.29 507.707 1017.16 507.4 1015.83 507.4C1014.31 507.4 1013 507.733 1011.91 508.4C1010.84 509.067 1010.03 509.987 1009.47 511.16C1008.91 512.307 1008.63 513.613 1008.63 515.08C1008.63 516.547 1008.96 517.853 1009.63 519C1010.29 520.147 1011.21 521.053 1012.39 521.72C1013.56 522.387 1014.91 522.72 1016.43 522.72C1017.25 522.72 1018.09 522.573 1018.95 522.28C1019.83 521.96 1020.53 521.6 1021.07 521.2C1021.47 520.907 1021.89 520.76 1022.35 520.76C1022.83 520.733 1023.24 520.867 1023.59 521.16C1024.04 521.56 1024.28 522 1024.31 522.48C1024.33 522.96 1024.12 523.373 1023.67 523.72C1022.76 524.44 1021.63 525.027 1020.27 525.48C1018.93 525.933 1017.65 526.16 1016.43 526.16ZM1032.95 512.32C1032.95 510.72 1033.34 509.293 1034.11 508.04C1034.91 506.76 1035.98 505.747 1037.31 505C1038.64 504.253 1040.11 503.88 1041.71 503.88C1043.31 503.88 1044.5 504.147 1045.27 504.68C1046.07 505.187 1046.38 505.8 1046.19 506.52C1046.11 506.893 1045.95 507.187 1045.71 507.4C1045.5 507.587 1045.24 507.707 1044.95 507.76C1044.66 507.813 1044.34 507.8 1043.99 507.72C1042.28 507.373 1040.75 507.347 1039.39 507.64C1038.03 507.933 1036.95 508.48 1036.15 509.28C1035.38 510.08 1034.99 511.093 1034.99 512.32H1032.95ZM1032.99 526C1032.35 526 1031.86 525.84 1031.51 525.52C1031.16 525.173 1030.99 524.667 1030.99 524V506.12C1030.99 505.48 1031.16 504.987 1031.51 504.64C1031.86 504.293 1032.35 504.12 1032.99 504.12C1033.66 504.12 1034.15 504.293 1034.47 504.64C1034.82 504.96 1034.99 505.453 1034.99 506.12V524C1034.99 524.64 1034.82 525.133 1034.47 525.48C1034.15 525.827 1033.66 526 1032.99 526Z" fill="black"></path><path d="M650.76 310C650.013 310 649.44 309.68 649.04 309.04C648.64 308.4 648.6 307.72 648.92 307L660.16 280.16C660.56 279.227 661.213 278.76 662.12 278.76C663.08 278.76 663.733 279.227 664.08 280.16L675.36 307.08C675.653 307.827 675.6 308.507 675.2 309.12C674.827 309.707 674.253 310 673.48 310C673.08 310 672.693 309.893 672.32 309.68C671.973 309.44 671.72 309.12 671.56 308.72L661.64 284.08H662.76L652.68 308.72C652.493 309.147 652.213 309.467 651.84 309.68C651.493 309.893 651.133 310 650.76 310ZM652.88 303.12L654.48 299.68H670.16L671.76 303.12H652.88ZM681.765 319.36C681.178 319.36 680.685 319.16 680.285 318.76C679.912 318.387 679.725 317.907 679.725 317.32V299.08C679.752 296.973 680.245 295.08 681.205 293.4C682.165 291.72 683.472 290.4 685.125 289.44C686.778 288.453 688.645 287.96 690.725 287.96C692.832 287.96 694.712 288.453 696.365 289.44C698.018 290.4 699.325 291.72 700.285 293.4C701.272 295.08 701.765 296.973 701.765 299.08C701.765 301.187 701.312 303.08 700.405 304.76C699.525 306.413 698.312 307.733 696.765 308.72C695.218 309.68 693.472 310.16 691.525 310.16C689.952 310.16 688.498 309.84 687.165 309.2C685.858 308.533 684.738 307.64 683.805 306.52V317.32C683.805 317.907 683.618 318.387 683.245 318.76C682.872 319.16 682.378 319.36 681.765 319.36ZM690.725 306.56C692.085 306.56 693.298 306.24 694.365 305.6C695.432 304.933 696.272 304.04 696.885 302.92C697.525 301.773 697.845 300.493 697.845 299.08C697.845 297.64 697.525 296.36 696.885 295.24C696.272 294.093 695.432 293.2 694.365 292.56C693.298 291.893 692.085 291.56 690.725 291.56C689.392 291.56 688.178 291.893 687.085 292.56C686.018 293.2 685.178 294.093 684.565 295.24C683.952 296.36 683.645 297.64 683.645 299.08C683.645 300.493 683.952 301.773 684.565 302.92C685.178 304.04 686.018 304.933 687.085 305.6C688.178 306.24 689.392 306.56 690.725 306.56ZM709.89 319.36C709.303 319.36 708.81 319.16 708.41 318.76C708.037 318.387 707.85 317.907 707.85 317.32V299.08C707.877 296.973 708.37 295.08 709.33 293.4C710.29 291.72 711.597 290.4 713.25 289.44C714.903 288.453 716.77 287.96 718.85 287.96C720.957 287.96 722.837 288.453 724.49 289.44C726.143 290.4 727.45 291.72 728.41 293.4C729.397 295.08 729.89 296.973 729.89 299.08C729.89 301.187 729.437 303.08 728.53 304.76C727.65 306.413 726.437 307.733 724.89 308.72C723.343 309.68 721.597 310.16 719.65 310.16C718.077 310.16 716.623 309.84 715.29 309.2C713.983 308.533 712.863 307.64 711.93 306.52V317.32C711.93 317.907 711.743 318.387 711.37 318.76C710.997 319.16 710.503 319.36 709.89 319.36ZM718.85 306.56C720.21 306.56 721.423 306.24 722.49 305.6C723.557 304.933 724.397 304.04 725.01 302.92C725.65 301.773 725.97 300.493 725.97 299.08C725.97 297.64 725.65 296.36 725.01 295.24C724.397 294.093 723.557 293.2 722.49 292.56C721.423 291.893 720.21 291.56 718.85 291.56C717.517 291.56 716.303 291.893 715.21 292.56C714.143 293.2 713.303 294.093 712.69 295.24C712.077 296.36 711.77 297.64 711.77 299.08C711.77 300.493 712.077 301.773 712.69 302.92C713.303 304.04 714.143 304.933 715.21 305.6C716.303 306.24 717.517 306.56 718.85 306.56ZM741.175 310C740.002 310 738.962 309.68 738.055 309.04C737.148 308.4 736.442 307.533 735.935 306.44C735.428 305.32 735.175 304.04 735.175 302.6V280.76C735.175 280.173 735.362 279.693 735.735 279.32C736.108 278.947 736.588 278.76 737.175 278.76C737.762 278.76 738.242 278.947 738.615 279.32C738.988 279.693 739.175 280.173 739.175 280.76V302.6C739.175 303.587 739.362 304.4 739.735 305.04C740.108 305.68 740.588 306 741.175 306H742.175C742.708 306 743.135 306.187 743.455 306.56C743.802 306.933 743.975 307.413 743.975 308C743.975 308.587 743.722 309.067 743.215 309.44C742.708 309.813 742.055 310 741.255 310H741.175ZM750.407 310C749.821 310 749.327 309.813 748.927 309.44C748.554 309.04 748.367 308.547 748.367 307.96V290.16C748.367 289.547 748.554 289.053 748.927 288.68C749.327 288.307 749.821 288.12 750.407 288.12C751.021 288.12 751.514 288.307 751.887 288.68C752.261 289.053 752.447 289.547 752.447 290.16V307.96C752.447 308.547 752.261 309.04 751.887 309.44C751.514 309.813 751.021 310 750.407 310ZM750.407 284.56C749.687 284.56 749.061 284.307 748.527 283.8C748.021 283.267 747.767 282.64 747.767 281.92C747.767 281.2 748.021 280.587 748.527 280.08C749.061 279.547 749.687 279.28 750.407 279.28C751.127 279.28 751.741 279.547 752.247 280.08C752.781 280.587 753.047 281.2 753.047 281.92C753.047 282.64 752.781 283.267 752.247 283.8C751.741 284.307 751.127 284.56 750.407 284.56ZM769.958 310.16C767.824 310.16 765.918 309.68 764.238 308.72C762.584 307.733 761.278 306.413 760.318 304.76C759.384 303.08 758.918 301.187 758.918 299.08C758.918 296.92 759.384 295 760.318 293.32C761.251 291.64 762.531 290.333 764.158 289.4C765.784 288.44 767.651 287.96 769.758 287.96C771.331 287.96 772.771 288.267 774.078 288.88C775.384 289.467 776.558 290.36 777.598 291.56C777.971 291.987 778.104 292.427 777.998 292.88C777.891 293.333 777.598 293.733 777.118 294.08C776.744 294.347 776.331 294.44 775.878 294.36C775.424 294.253 775.011 294.013 774.638 293.64C773.331 292.253 771.704 291.56 769.758 291.56C768.398 291.56 767.198 291.88 766.158 292.52C765.118 293.133 764.304 294 763.718 295.12C763.131 296.24 762.838 297.56 762.838 299.08C762.838 300.52 763.131 301.8 763.718 302.92C764.331 304.04 765.171 304.933 766.238 305.6C767.304 306.24 768.544 306.56 769.958 306.56C770.891 306.56 771.704 306.453 772.398 306.24C773.118 306 773.771 305.64 774.358 305.16C774.784 304.813 775.224 304.627 775.678 304.6C776.131 304.547 776.531 304.667 776.878 304.96C777.331 305.333 777.584 305.76 777.638 306.24C777.691 306.693 777.531 307.107 777.158 307.48C775.238 309.267 772.838 310.16 769.958 310.16ZM793.181 310.16C791.234 310.16 789.488 309.68 787.941 308.72C786.394 307.733 785.168 306.413 784.261 304.76C783.381 303.08 782.941 301.187 782.941 299.08C782.941 296.973 783.421 295.08 784.381 293.4C785.368 291.72 786.688 290.4 788.341 289.44C790.021 288.453 791.901 287.96 793.981 287.96C796.061 287.96 797.928 288.453 799.581 289.44C801.234 290.4 802.541 291.72 803.501 293.4C804.488 295.08 804.981 296.973 804.981 299.08H803.421C803.421 301.187 802.968 303.08 802.061 304.76C801.181 306.413 799.968 307.733 798.421 308.72C796.874 309.68 795.128 310.16 793.181 310.16ZM793.981 306.56C795.341 306.56 796.554 306.24 797.621 305.6C798.688 304.933 799.528 304.04 800.141 302.92C800.754 301.773 801.061 300.493 801.061 299.08C801.061 297.64 800.754 296.36 800.141 295.24C799.528 294.093 798.688 293.2 797.621 292.56C796.554 291.893 795.341 291.56 793.981 291.56C792.648 291.56 791.434 291.893 790.341 292.56C789.274 293.2 788.421 294.093 787.781 295.24C787.168 296.36 786.861 297.64 786.861 299.08C786.861 300.493 787.168 301.773 787.781 302.92C788.421 304.04 789.274 304.933 790.341 305.6C791.434 306.24 792.648 306.56 793.981 306.56ZM802.941 310.04C802.354 310.04 801.861 309.853 801.461 309.48C801.088 309.08 800.901 308.587 800.901 308V301.88L801.661 297.64L804.981 299.08V308C804.981 308.587 804.781 309.08 804.381 309.48C804.008 309.853 803.528 310.04 802.941 310.04ZM819.013 310C817.68 310 816.48 309.667 815.413 309C814.346 308.307 813.506 307.373 812.893 306.2C812.28 305.027 811.973 303.707 811.973 302.24V283.16C811.973 282.573 812.16 282.093 812.533 281.72C812.906 281.347 813.386 281.16 813.973 281.16C814.56 281.16 815.04 281.347 815.413 281.72C815.786 282.093 815.973 282.573 815.973 283.16V302.24C815.973 303.307 816.266 304.2 816.853 304.92C817.44 305.64 818.16 306 819.013 306H820.373C820.853 306 821.253 306.187 821.573 306.56C821.92 306.933 822.093 307.413 822.093 308C822.093 308.587 821.866 309.067 821.413 309.44C820.986 309.813 820.426 310 819.733 310H819.013ZM810.133 292.36C809.573 292.36 809.12 292.2 808.773 291.88C808.426 291.56 808.253 291.16 808.253 290.68C808.253 290.147 808.426 289.72 808.773 289.4C809.12 289.08 809.573 288.92 810.133 288.92H819.373C819.933 288.92 820.386 289.08 820.733 289.4C821.08 289.72 821.253 290.147 821.253 290.68C821.253 291.16 821.08 291.56 820.733 291.88C820.386 292.2 819.933 292.36 819.373 292.36H810.133ZM829.548 310C828.961 310 828.468 309.813 828.068 309.44C827.694 309.04 827.508 308.547 827.508 307.96V290.16C827.508 289.547 827.694 289.053 828.068 288.68C828.468 288.307 828.961 288.12 829.548 288.12C830.161 288.12 830.654 288.307 831.028 288.68C831.401 289.053 831.588 289.547 831.588 290.16V307.96C831.588 308.547 831.401 309.04 831.028 309.44C830.654 309.813 830.161 310 829.548 310ZM829.548 284.56C828.828 284.56 828.201 284.307 827.668 283.8C827.161 283.267 826.908 282.64 826.908 281.92C826.908 281.2 827.161 280.587 827.668 280.08C828.201 279.547 828.828 279.28 829.548 279.28C830.268 279.28 830.881 279.547 831.388 280.08C831.921 280.587 832.188 281.2 832.188 281.92C832.188 282.64 831.921 283.267 831.388 283.8C830.881 284.307 830.268 284.56 829.548 284.56ZM849.098 310.16C846.938 310.16 845.031 309.693 843.378 308.76C841.725 307.8 840.418 306.493 839.458 304.84C838.525 303.16 838.058 301.24 838.058 299.08C838.058 296.893 838.525 294.973 839.458 293.32C840.418 291.64 841.725 290.333 843.378 289.4C845.031 288.44 846.938 287.96 849.098 287.96C851.231 287.96 853.125 288.44 854.778 289.4C856.431 290.333 857.725 291.64 858.658 293.32C859.618 294.973 860.098 296.893 860.098 299.08C860.098 301.24 859.631 303.16 858.698 304.84C857.765 306.493 856.471 307.8 854.818 308.76C853.165 309.693 851.258 310.16 849.098 310.16ZM849.098 306.56C850.485 306.56 851.711 306.24 852.778 305.6C853.845 304.96 854.671 304.08 855.258 302.96C855.871 301.84 856.178 300.547 856.178 299.08C856.178 297.613 855.871 296.32 855.258 295.2C854.671 294.053 853.845 293.16 852.778 292.52C851.711 291.88 850.485 291.56 849.098 291.56C847.711 291.56 846.485 291.88 845.418 292.52C844.351 293.16 843.511 294.053 842.898 295.2C842.285 296.32 841.978 297.613 841.978 299.08C841.978 300.547 842.285 301.84 842.898 302.96C843.511 304.08 844.351 304.96 845.418 305.6C846.485 306.24 847.711 306.56 849.098 306.56ZM884.65 310.04C884.064 310.04 883.57 309.853 883.17 309.48C882.797 309.08 882.61 308.587 882.61 308V298.16C882.61 296.64 882.33 295.4 881.77 294.44C881.21 293.48 880.45 292.773 879.49 292.32C878.557 291.84 877.477 291.6 876.25 291.6C875.13 291.6 874.117 291.827 873.21 292.28C872.304 292.733 871.584 293.347 871.05 294.12C870.517 294.867 870.25 295.733 870.25 296.72H867.73C867.73 295.04 868.13 293.547 868.93 292.24C869.757 290.907 870.877 289.853 872.29 289.08C873.704 288.307 875.29 287.92 877.05 287.92C878.89 287.92 880.53 288.32 881.97 289.12C883.437 289.893 884.584 291.04 885.41 292.56C886.264 294.08 886.69 295.947 886.69 298.16V308C886.69 308.587 886.49 309.08 886.09 309.48C885.717 309.853 885.237 310.04 884.65 310.04ZM868.21 310.04C867.624 310.04 867.13 309.853 866.73 309.48C866.357 309.08 866.17 308.587 866.17 308V290.16C866.17 289.547 866.357 289.053 866.73 288.68C867.13 288.307 867.624 288.12 868.21 288.12C868.824 288.12 869.317 288.307 869.69 288.68C870.064 289.053 870.25 289.547 870.25 290.16V308C870.25 308.587 870.064 309.08 869.69 309.48C869.317 309.853 868.824 310.04 868.21 310.04ZM910.355 310C909.181 310 908.141 309.68 907.235 309.04C906.328 308.4 905.621 307.533 905.115 306.44C904.608 305.32 904.355 304.04 904.355 302.6V280.76C904.355 280.173 904.541 279.693 904.915 279.32C905.288 278.947 905.768 278.76 906.355 278.76C906.941 278.76 907.421 278.947 907.795 279.32C908.168 279.693 908.355 280.173 908.355 280.76V302.6C908.355 303.587 908.541 304.4 908.915 305.04C909.288 305.68 909.768 306 910.355 306H911.355C911.888 306 912.315 306.187 912.635 306.56C912.981 306.933 913.155 307.413 913.155 308C913.155 308.587 912.901 309.067 912.395 309.44C911.888 309.813 911.235 310 910.435 310H910.355ZM925.056 310.16C923.109 310.16 921.363 309.68 919.816 308.72C918.269 307.733 917.043 306.413 916.136 304.76C915.256 303.08 914.816 301.187 914.816 299.08C914.816 296.973 915.296 295.08 916.256 293.4C917.243 291.72 918.563 290.4 920.216 289.44C921.896 288.453 923.776 287.96 925.856 287.96C927.936 287.96 929.803 288.453 931.456 289.44C933.109 290.4 934.416 291.72 935.376 293.4C936.363 295.08 936.856 296.973 936.856 299.08H935.296C935.296 301.187 934.843 303.08 933.936 304.76C933.056 306.413 931.843 307.733 930.296 308.72C928.749 309.68 927.003 310.16 925.056 310.16ZM925.856 306.56C927.216 306.56 928.429 306.24 929.496 305.6C930.563 304.933 931.403 304.04 932.016 302.92C932.629 301.773 932.936 300.493 932.936 299.08C932.936 297.64 932.629 296.36 932.016 295.24C931.403 294.093 930.563 293.2 929.496 292.56C928.429 291.893 927.216 291.56 925.856 291.56C924.523 291.56 923.309 291.893 922.216 292.56C921.149 293.2 920.296 294.093 919.656 295.24C919.043 296.36 918.736 297.64 918.736 299.08C918.736 300.493 919.043 301.773 919.656 302.92C920.296 304.04 921.149 304.933 922.216 305.6C923.309 306.24 924.523 306.56 925.856 306.56ZM934.816 310.04C934.229 310.04 933.736 309.853 933.336 309.48C932.963 309.08 932.776 308.587 932.776 308V301.88L933.536 297.64L936.856 299.08V308C936.856 308.587 936.656 309.08 936.256 309.48C935.883 309.853 935.403 310.04 934.816 310.04ZM946.848 319.6C946.581 319.6 946.261 319.52 945.888 319.36C944.715 318.827 944.395 317.987 944.928 316.84L957.128 289.28C957.661 288.16 958.501 287.84 959.648 288.32C960.848 288.827 961.181 289.667 960.648 290.84L948.408 318.36C948.088 319.187 947.568 319.6 946.848 319.6ZM951.568 309.12C951.061 309.333 950.581 309.36 950.128 309.2C949.701 309.013 949.355 308.667 949.088 308.16L939.928 290.76C939.661 290.253 939.621 289.773 939.808 289.32C940.021 288.84 940.381 288.493 940.888 288.28C941.395 288.067 941.875 288.053 942.328 288.24C942.781 288.4 943.128 288.733 943.368 289.24L952.128 306.64C952.395 307.147 952.488 307.64 952.408 308.12C952.355 308.573 952.075 308.907 951.568 309.12ZM973.989 310.16C971.776 310.16 969.803 309.693 968.069 308.76C966.363 307.8 965.016 306.493 964.029 304.84C963.069 303.16 962.589 301.24 962.589 299.08C962.589 296.893 963.043 294.973 963.949 293.32C964.883 291.64 966.163 290.333 967.789 289.4C969.416 288.44 971.283 287.96 973.389 287.96C975.469 287.96 977.256 288.427 978.749 289.36C980.243 290.267 981.376 291.533 982.149 293.16C982.949 294.76 983.349 296.613 983.349 298.72C983.349 299.227 983.176 299.653 982.829 300C982.483 300.32 982.043 300.48 981.509 300.48H965.389V297.28H981.389L979.749 298.4C979.723 297.067 979.456 295.88 978.949 294.84C978.443 293.773 977.723 292.933 976.789 292.32C975.856 291.707 974.723 291.4 973.389 291.4C971.869 291.4 970.563 291.733 969.469 292.4C968.403 293.067 967.589 293.987 967.029 295.16C966.469 296.307 966.189 297.613 966.189 299.08C966.189 300.547 966.523 301.853 967.189 303C967.856 304.147 968.776 305.053 969.949 305.72C971.123 306.387 972.469 306.72 973.989 306.72C974.816 306.72 975.656 306.573 976.509 306.28C977.389 305.96 978.096 305.6 978.629 305.2C979.029 304.907 979.456 304.76 979.909 304.76C980.389 304.733 980.803 304.867 981.149 305.16C981.603 305.56 981.843 306 981.869 306.48C981.896 306.96 981.683 307.373 981.229 307.72C980.323 308.44 979.189 309.027 977.829 309.48C976.496 309.933 975.216 310.16 973.989 310.16ZM990.513 296.32C990.513 294.72 990.9 293.293 991.673 292.04C992.473 290.76 993.54 289.747 994.873 289C996.206 288.253 997.673 287.88 999.273 287.88C1000.87 287.88 1002.06 288.147 1002.83 288.68C1003.63 289.187 1003.94 289.8 1003.75 290.52C1003.67 290.893 1003.51 291.187 1003.27 291.4C1003.06 291.587 1002.81 291.707 1002.51 291.76C1002.22 291.813 1001.9 291.8 1001.55 291.72C999.846 291.373 998.313 291.347 996.953 291.64C995.593 291.933 994.513 292.48 993.713 293.28C992.94 294.08 992.553 295.093 992.553 296.32H990.513ZM990.553 310C989.913 310 989.42 309.84 989.073 309.52C988.726 309.173 988.553 308.667 988.553 308V290.12C988.553 289.48 988.726 288.987 989.073 288.64C989.42 288.293 989.913 288.12 990.553 288.12C991.22 288.12 991.713 288.293 992.033 288.64C992.38 288.96 992.553 289.453 992.553 290.12V308C992.553 308.64 992.38 309.133 992.033 309.48C991.713 309.827 991.22 310 990.553 310Z" fill="black"></path><path d="M671.172 541.172C669.609 542.734 669.609 545.266 671.172 546.828L696.627 572.284C698.19 573.846 700.722 573.846 702.284 572.284C703.846 570.722 703.846 568.19 702.284 566.627L679.657 544L702.284 521.373C703.846 519.81 703.846 517.278 702.284 515.716C700.722 514.154 698.19 514.154 696.627 515.716L671.172 541.172ZM1066 548C1068.21 548 1070 546.209 1070 544C1070 541.791 1068.21 540 1066 540L1066 548ZM674 548L1066 548L1066 540L674 540L674 548Z" fill="#7B1FA2"></path><path d="M883.24 793C882.653 793 882.16 792.8 881.76 792.4C881.36 792 881.16 791.507 881.16 790.92V761.76H885.32V790.92C885.32 791.507 885.12 792 884.72 792.4C884.32 792.8 883.827 793 883.24 793ZM872.52 765.6C871.96 765.6 871.493 765.427 871.12 765.08C870.773 764.707 870.6 764.24 870.6 763.68C870.6 763.12 870.773 762.667 871.12 762.32C871.493 761.947 871.96 761.76 872.52 761.76H893.92C894.48 761.76 894.933 761.947 895.28 762.32C895.653 762.667 895.84 763.12 895.84 763.68C895.84 764.24 895.653 764.707 895.28 765.08C894.933 765.427 894.48 765.6 893.92 765.6H872.52ZM902.085 785.04C901.499 785.04 901.005 784.853 900.605 784.48C900.232 784.08 900.045 783.587 900.045 783V763.8C900.045 763.187 900.232 762.693 900.605 762.32C901.005 761.947 901.499 761.76 902.085 761.76C902.699 761.76 903.192 761.947 903.565 762.32C903.939 762.693 904.125 763.187 904.125 763.8V783C904.125 783.587 903.939 784.08 903.565 784.48C903.192 784.853 902.699 785.04 902.085 785.04ZM918.525 793.04C917.939 793.04 917.445 792.853 917.045 792.48C916.672 792.08 916.485 791.587 916.485 791V781.16C916.485 779.64 916.205 778.4 915.645 777.44C915.085 776.48 914.325 775.773 913.365 775.32C912.432 774.84 911.352 774.6 910.125 774.6C909.005 774.6 907.992 774.827 907.085 775.28C906.179 775.733 905.459 776.347 904.925 777.12C904.392 777.867 904.125 778.733 904.125 779.72H901.605C901.605 778.04 902.005 776.547 902.805 775.24C903.632 773.907 904.752 772.853 906.165 772.08C907.579 771.307 909.165 770.92 910.925 770.92C912.765 770.92 914.405 771.32 915.845 772.12C917.312 772.893 918.459 774.04 919.285 775.56C920.139 777.08 920.565 778.947 920.565 781.16V791C920.565 791.587 920.365 792.08 919.965 792.48C919.592 792.853 919.112 793.04 918.525 793.04ZM902.085 793.04C901.499 793.04 901.005 792.853 900.605 792.48C900.232 792.08 900.045 791.587 900.045 791V773.16C900.045 772.547 900.232 772.053 900.605 771.68C901.005 771.307 901.499 771.12 902.085 771.12C902.699 771.12 903.192 771.307 903.565 771.68C903.939 772.053 904.125 772.547 904.125 773.16V791C904.125 791.587 903.939 792.08 903.565 792.48C903.192 792.853 902.699 793.04 902.085 793.04ZM937.63 793.16C935.417 793.16 933.443 792.693 931.71 791.76C930.003 790.8 928.657 789.493 927.67 787.84C926.71 786.16 926.23 784.24 926.23 782.08C926.23 779.893 926.683 777.973 927.59 776.32C928.523 774.64 929.803 773.333 931.43 772.4C933.057 771.44 934.923 770.96 937.03 770.96C939.11 770.96 940.897 771.427 942.39 772.36C943.883 773.267 945.017 774.533 945.79 776.16C946.59 777.76 946.99 779.613 946.99 781.72C946.99 782.227 946.817 782.653 946.47 783C946.123 783.32 945.683 783.48 945.15 783.48H929.03V780.28H945.03L943.39 781.4C943.363 780.067 943.097 778.88 942.59 777.84C942.083 776.773 941.363 775.933 940.43 775.32C939.497 774.707 938.363 774.4 937.03 774.4C935.51 774.4 934.203 774.733 933.11 775.4C932.043 776.067 931.23 776.987 930.67 778.16C930.11 779.307 929.83 780.613 929.83 782.08C929.83 783.547 930.163 784.853 930.83 786C931.497 787.147 932.417 788.053 933.59 788.72C934.763 789.387 936.11 789.72 937.63 789.72C938.457 789.72 939.297 789.573 940.15 789.28C941.03 788.96 941.737 788.6 942.27 788.2C942.67 787.907 943.097 787.76 943.55 787.76C944.03 787.733 944.443 787.867 944.79 788.16C945.243 788.56 945.483 789 945.51 789.48C945.537 789.96 945.323 790.373 944.87 790.72C943.963 791.44 942.83 792.027 941.47 792.48C940.137 792.933 938.857 793.16 937.63 793.16ZM961.333 793.16C959.173 793.16 957.266 792.693 955.613 791.76C953.959 790.8 952.653 789.493 951.693 787.84C950.759 786.16 950.293 784.24 950.293 782.08C950.293 779.893 950.759 777.973 951.693 776.32C952.653 774.64 953.959 773.333 955.613 772.4C957.266 771.44 959.173 770.96 961.333 770.96C963.466 770.96 965.359 771.44 967.013 772.4C968.666 773.333 969.959 774.64 970.893 776.32C971.853 777.973 972.333 779.893 972.333 782.08C972.333 784.24 971.866 786.16 970.933 787.84C969.999 789.493 968.706 790.8 967.053 791.76C965.399 792.693 963.493 793.16 961.333 793.16ZM961.333 789.56C962.719 789.56 963.946 789.24 965.013 788.6C966.079 787.96 966.906 787.08 967.493 785.96C968.106 784.84 968.413 783.547 968.413 782.08C968.413 780.613 968.106 779.32 967.493 778.2C966.906 777.053 966.079 776.16 965.013 775.52C963.946 774.88 962.719 774.56 961.333 774.56C959.946 774.56 958.719 774.88 957.653 775.52C956.586 776.16 955.746 777.053 955.133 778.2C954.519 779.32 954.213 780.613 954.213 782.08C954.213 783.547 954.519 784.84 955.133 785.96C955.746 787.08 956.586 787.96 957.653 788.6C958.719 789.24 959.946 789.56 961.333 789.56ZM980.365 779.32C980.365 777.72 980.751 776.293 981.525 775.04C982.325 773.76 983.391 772.747 984.725 772C986.058 771.253 987.525 770.88 989.125 770.88C990.725 770.88 991.911 771.147 992.685 771.68C993.485 772.187 993.791 772.8 993.605 773.52C993.525 773.893 993.365 774.187 993.125 774.4C992.911 774.587 992.658 774.707 992.365 774.76C992.071 774.813 991.751 774.8 991.405 774.72C989.698 774.373 988.165 774.347 986.805 774.64C985.445 774.933 984.365 775.48 983.565 776.28C982.791 777.08 982.405 778.093 982.405 779.32H980.365ZM980.405 793C979.765 793 979.271 792.84 978.925 792.52C978.578 792.173 978.405 791.667 978.405 791V773.12C978.405 772.48 978.578 771.987 978.925 771.64C979.271 771.293 979.765 771.12 980.405 771.12C981.071 771.12 981.565 771.293 981.885 771.64C982.231 771.96 982.405 772.453 982.405 773.12V791C982.405 791.64 982.231 792.133 981.885 792.48C981.565 792.827 981.071 793 980.405 793ZM1006.54 793.16C1004.32 793.16 1002.35 792.693 1000.62 791.76C998.91 790.8 997.563 789.493 996.576 787.84C995.616 786.16 995.136 784.24 995.136 782.08C995.136 779.893 995.59 777.973 996.496 776.32C997.43 774.64 998.71 773.333 1000.34 772.4C1001.96 771.44 1003.83 770.96 1005.94 770.96C1008.02 770.96 1009.8 771.427 1011.3 772.36C1012.79 773.267 1013.92 774.533 1014.7 776.16C1015.5 777.76 1015.9 779.613 1015.9 781.72C1015.9 782.227 1015.72 782.653 1015.38 783C1015.03 783.32 1014.59 783.48 1014.06 783.48H997.936V780.28H1013.94L1012.3 781.4C1012.27 780.067 1012 778.88 1011.5 777.84C1010.99 776.773 1010.27 775.933 1009.34 775.32C1008.4 774.707 1007.27 774.4 1005.94 774.4C1004.42 774.4 1003.11 774.733 1002.02 775.4C1000.95 776.067 1000.14 776.987 999.576 778.16C999.016 779.307 998.736 780.613 998.736 782.08C998.736 783.547 999.07 784.853 999.736 786C1000.4 787.147 1001.32 788.053 1002.5 788.72C1003.67 789.387 1005.02 789.72 1006.54 789.72C1007.36 789.72 1008.2 789.573 1009.06 789.28C1009.94 788.96 1010.64 788.6 1011.18 788.2C1011.58 787.907 1012 787.76 1012.46 787.76C1012.94 787.733 1013.35 787.867 1013.7 788.16C1014.15 788.56 1014.39 789 1014.42 789.48C1014.44 789.96 1014.23 790.373 1013.78 790.72C1012.87 791.44 1011.74 792.027 1010.38 792.48C1009.04 792.933 1007.76 793.16 1006.54 793.16ZM1029.06 793C1027.73 793 1026.53 792.667 1025.46 792C1024.39 791.307 1023.55 790.373 1022.94 789.2C1022.33 788.027 1022.02 786.707 1022.02 785.24V766.16C1022.02 765.573 1022.21 765.093 1022.58 764.72C1022.95 764.347 1023.43 764.16 1024.02 764.16C1024.61 764.16 1025.09 764.347 1025.46 764.72C1025.83 765.093 1026.02 765.573 1026.02 766.16V785.24C1026.02 786.307 1026.31 787.2 1026.9 787.92C1027.49 788.64 1028.21 789 1029.06 789H1030.42C1030.9 789 1031.3 789.187 1031.62 789.56C1031.97 789.933 1032.14 790.413 1032.14 791C1032.14 791.587 1031.91 792.067 1031.46 792.44C1031.03 792.813 1030.47 793 1029.78 793H1029.06ZM1020.18 775.36C1019.62 775.36 1019.17 775.2 1018.82 774.88C1018.47 774.56 1018.3 774.16 1018.3 773.68C1018.3 773.147 1018.47 772.72 1018.82 772.4C1019.17 772.08 1019.62 771.92 1020.18 771.92H1029.42C1029.98 771.92 1030.43 772.08 1030.78 772.4C1031.13 772.72 1031.3 773.147 1031.3 773.68C1031.3 774.16 1031.13 774.56 1030.78 774.88C1030.43 775.2 1029.98 775.36 1029.42 775.36H1020.18ZM1039.59 793C1039.01 793 1038.51 792.813 1038.11 792.44C1037.74 792.04 1037.55 791.547 1037.55 790.96V773.16C1037.55 772.547 1037.74 772.053 1038.11 771.68C1038.51 771.307 1039.01 771.12 1039.59 771.12C1040.21 771.12 1040.7 771.307 1041.07 771.68C1041.45 772.053 1041.63 772.547 1041.63 773.16V790.96C1041.63 791.547 1041.45 792.04 1041.07 792.44C1040.7 792.813 1040.21 793 1039.59 793ZM1039.59 767.56C1038.87 767.56 1038.25 767.307 1037.71 766.8C1037.21 766.267 1036.95 765.64 1036.95 764.92C1036.95 764.2 1037.21 763.587 1037.71 763.08C1038.25 762.547 1038.87 762.28 1039.59 762.28C1040.31 762.28 1040.93 762.547 1041.43 763.08C1041.97 763.587 1042.23 764.2 1042.23 764.92C1042.23 765.64 1041.97 766.267 1041.43 766.8C1040.93 767.307 1040.31 767.56 1039.59 767.56ZM1059.15 793.16C1057.01 793.16 1055.11 792.68 1053.43 791.72C1051.77 790.733 1050.47 789.413 1049.51 787.76C1048.57 786.08 1048.11 784.187 1048.11 782.08C1048.11 779.92 1048.57 778 1049.51 776.32C1050.44 774.64 1051.72 773.333 1053.35 772.4C1054.97 771.44 1056.84 770.96 1058.95 770.96C1060.52 770.96 1061.96 771.267 1063.27 771.88C1064.57 772.467 1065.75 773.36 1066.79 774.56C1067.16 774.987 1067.29 775.427 1067.19 775.88C1067.08 776.333 1066.79 776.733 1066.31 777.08C1065.93 777.347 1065.52 777.44 1065.07 777.36C1064.61 777.253 1064.2 777.013 1063.83 776.64C1062.52 775.253 1060.89 774.56 1058.95 774.56C1057.59 774.56 1056.39 774.88 1055.35 775.52C1054.31 776.133 1053.49 777 1052.91 778.12C1052.32 779.24 1052.03 780.56 1052.03 782.08C1052.03 783.52 1052.32 784.8 1052.91 785.92C1053.52 787.04 1054.36 787.933 1055.43 788.6C1056.49 789.24 1057.73 789.56 1059.15 789.56C1060.08 789.56 1060.89 789.453 1061.59 789.24C1062.31 789 1062.96 788.64 1063.55 788.16C1063.97 787.813 1064.41 787.627 1064.87 787.6C1065.32 787.547 1065.72 787.667 1066.07 787.96C1066.52 788.333 1066.77 788.76 1066.83 789.24C1066.88 789.693 1066.72 790.107 1066.35 790.48C1064.43 792.267 1062.03 793.16 1059.15 793.16ZM1082.37 793.16C1080.42 793.16 1078.68 792.68 1077.13 791.72C1075.58 790.733 1074.36 789.413 1073.45 787.76C1072.57 786.08 1072.13 784.187 1072.13 782.08C1072.13 779.973 1072.61 778.08 1073.57 776.4C1074.56 774.72 1075.88 773.4 1077.53 772.44C1079.21 771.453 1081.09 770.96 1083.17 770.96C1085.25 770.96 1087.12 771.453 1088.77 772.44C1090.42 773.4 1091.73 774.72 1092.69 776.4C1093.68 778.08 1094.17 779.973 1094.17 782.08H1092.61C1092.61 784.187 1092.16 786.08 1091.25 787.76C1090.37 789.413 1089.16 790.733 1087.61 791.72C1086.06 792.68 1084.32 793.16 1082.37 793.16ZM1083.17 789.56C1084.53 789.56 1085.74 789.24 1086.81 788.6C1087.88 787.933 1088.72 787.04 1089.33 785.92C1089.94 784.773 1090.25 783.493 1090.25 782.08C1090.25 780.64 1089.94 779.36 1089.33 778.24C1088.72 777.093 1087.88 776.2 1086.81 775.56C1085.74 774.893 1084.53 774.56 1083.17 774.56C1081.84 774.56 1080.62 774.893 1079.53 775.56C1078.46 776.2 1077.61 777.093 1076.97 778.24C1076.36 779.36 1076.05 780.64 1076.05 782.08C1076.05 783.493 1076.36 784.773 1076.97 785.92C1077.61 787.04 1078.46 787.933 1079.53 788.6C1080.62 789.24 1081.84 789.56 1083.17 789.56ZM1092.13 793.04C1091.54 793.04 1091.05 792.853 1090.65 792.48C1090.28 792.08 1090.09 791.587 1090.09 791V784.88L1090.85 780.64L1094.17 782.08V791C1094.17 791.587 1093.97 792.08 1093.57 792.48C1093.2 792.853 1092.72 793.04 1092.13 793.04ZM1105.44 793C1104.27 793 1103.23 792.68 1102.32 792.04C1101.41 791.4 1100.71 790.533 1100.2 789.44C1099.69 788.32 1099.44 787.04 1099.44 785.6V763.76C1099.44 763.173 1099.63 762.693 1100 762.32C1100.37 761.947 1100.85 761.76 1101.44 761.76C1102.03 761.76 1102.51 761.947 1102.88 762.32C1103.25 762.693 1103.44 763.173 1103.44 763.76V785.6C1103.44 786.587 1103.63 787.4 1104 788.04C1104.37 788.68 1104.85 789 1105.44 789H1106.44C1106.97 789 1107.4 789.187 1107.72 789.56C1108.07 789.933 1108.24 790.413 1108.24 791C1108.24 791.587 1107.99 792.067 1107.48 792.44C1106.97 792.813 1106.32 793 1105.52 793H1105.44ZM1129.15 793C1127.98 793 1126.94 792.68 1126.03 792.04C1125.12 791.4 1124.42 790.533 1123.91 789.44C1123.4 788.32 1123.15 787.04 1123.15 785.6V763.76C1123.15 763.173 1123.34 762.693 1123.71 762.32C1124.08 761.947 1124.56 761.76 1125.15 761.76C1125.74 761.76 1126.22 761.947 1126.59 762.32C1126.96 762.693 1127.15 763.173 1127.15 763.76V785.6C1127.15 786.587 1127.34 787.4 1127.71 788.04C1128.08 788.68 1128.56 789 1129.15 789H1130.15C1130.68 789 1131.11 789.187 1131.43 789.56C1131.78 789.933 1131.95 790.413 1131.95 791C1131.95 791.587 1131.7 792.067 1131.19 792.44C1130.68 792.813 1130.03 793 1129.23 793H1129.15ZM1143.85 793.16C1141.91 793.16 1140.16 792.68 1138.61 791.72C1137.07 790.733 1135.84 789.413 1134.93 787.76C1134.05 786.08 1133.61 784.187 1133.61 782.08C1133.61 779.973 1134.09 778.08 1135.05 776.4C1136.04 774.72 1137.36 773.4 1139.01 772.44C1140.69 771.453 1142.57 770.96 1144.65 770.96C1146.73 770.96 1148.6 771.453 1150.25 772.44C1151.91 773.4 1153.21 774.72 1154.17 776.4C1155.16 778.08 1155.65 779.973 1155.65 782.08H1154.09C1154.09 784.187 1153.64 786.08 1152.73 787.76C1151.85 789.413 1150.64 790.733 1149.09 791.72C1147.55 792.68 1145.8 793.16 1143.85 793.16ZM1144.65 789.56C1146.01 789.56 1147.23 789.24 1148.29 788.6C1149.36 787.933 1150.2 787.04 1150.81 785.92C1151.43 784.773 1151.73 783.493 1151.73 782.08C1151.73 780.64 1151.43 779.36 1150.81 778.24C1150.2 777.093 1149.36 776.2 1148.29 775.56C1147.23 774.893 1146.01 774.56 1144.65 774.56C1143.32 774.56 1142.11 774.893 1141.01 775.56C1139.95 776.2 1139.09 777.093 1138.45 778.24C1137.84 779.36 1137.53 780.64 1137.53 782.08C1137.53 783.493 1137.84 784.773 1138.45 785.92C1139.09 787.04 1139.95 787.933 1141.01 788.6C1142.11 789.24 1143.32 789.56 1144.65 789.56ZM1153.61 793.04C1153.03 793.04 1152.53 792.853 1152.13 792.48C1151.76 792.08 1151.57 791.587 1151.57 791V784.88L1152.33 780.64L1155.65 782.08V791C1155.65 791.587 1155.45 792.08 1155.05 792.48C1154.68 792.853 1154.2 793.04 1153.61 793.04ZM1165.65 802.6C1165.38 802.6 1165.06 802.52 1164.69 802.36C1163.51 801.827 1163.19 800.987 1163.73 799.84L1175.93 772.28C1176.46 771.16 1177.3 770.84 1178.45 771.32C1179.65 771.827 1179.98 772.667 1179.45 773.84L1167.21 801.36C1166.89 802.187 1166.37 802.6 1165.65 802.6ZM1170.37 792.12C1169.86 792.333 1169.38 792.36 1168.93 792.2C1168.5 792.013 1168.15 791.667 1167.89 791.16L1158.73 773.76C1158.46 773.253 1158.42 772.773 1158.61 772.32C1158.82 771.84 1159.18 771.493 1159.69 771.28C1160.19 771.067 1160.67 771.053 1161.13 771.24C1161.58 771.4 1161.93 771.733 1162.17 772.24L1170.93 789.64C1171.19 790.147 1171.29 790.64 1171.21 791.12C1171.15 791.573 1170.87 791.907 1170.37 792.12ZM1192.79 793.16C1190.57 793.16 1188.6 792.693 1186.87 791.76C1185.16 790.8 1183.81 789.493 1182.83 787.84C1181.87 786.16 1181.39 784.24 1181.39 782.08C1181.39 779.893 1181.84 777.973 1182.75 776.32C1183.68 774.64 1184.96 773.333 1186.59 772.4C1188.21 771.44 1190.08 770.96 1192.19 770.96C1194.27 770.96 1196.05 771.427 1197.55 772.36C1199.04 773.267 1200.17 774.533 1200.95 776.16C1201.75 777.76 1202.15 779.613 1202.15 781.72C1202.15 782.227 1201.97 782.653 1201.63 783C1201.28 783.32 1200.84 783.48 1200.31 783.48H1184.19V780.28H1200.19L1198.55 781.4C1198.52 780.067 1198.25 778.88 1197.75 777.84C1197.24 776.773 1196.52 775.933 1195.59 775.32C1194.65 774.707 1193.52 774.4 1192.19 774.4C1190.67 774.4 1189.36 774.733 1188.27 775.4C1187.2 776.067 1186.39 776.987 1185.83 778.16C1185.27 779.307 1184.99 780.613 1184.99 782.08C1184.99 783.547 1185.32 784.853 1185.99 786C1186.65 787.147 1187.57 788.053 1188.75 788.72C1189.92 789.387 1191.27 789.72 1192.79 789.72C1193.61 789.72 1194.45 789.573 1195.31 789.28C1196.19 788.96 1196.89 788.6 1197.43 788.2C1197.83 787.907 1198.25 787.76 1198.71 787.76C1199.19 787.733 1199.6 787.867 1199.95 788.16C1200.4 788.56 1200.64 789 1200.67 789.48C1200.69 789.96 1200.48 790.373 1200.03 790.72C1199.12 791.44 1197.99 792.027 1196.63 792.48C1195.29 792.933 1194.01 793.16 1192.79 793.16ZM1209.31 779.32C1209.31 777.72 1209.7 776.293 1210.47 775.04C1211.27 773.76 1212.34 772.747 1213.67 772C1215 771.253 1216.47 770.88 1218.07 770.88C1219.67 770.88 1220.86 771.147 1221.63 771.68C1222.43 772.187 1222.74 772.8 1222.55 773.52C1222.47 773.893 1222.31 774.187 1222.07 774.4C1221.86 774.587 1221.6 774.707 1221.31 774.76C1221.02 774.813 1220.7 774.8 1220.35 774.72C1218.64 774.373 1217.11 774.347 1215.75 774.64C1214.39 774.933 1213.31 775.48 1212.51 776.28C1211.74 777.08 1211.35 778.093 1211.35 779.32H1209.31ZM1209.35 793C1208.71 793 1208.22 792.84 1207.87 792.52C1207.52 792.173 1207.35 791.667 1207.35 791V773.12C1207.35 772.48 1207.52 771.987 1207.87 771.64C1208.22 771.293 1208.71 771.12 1209.35 771.12C1210.02 771.12 1210.51 771.293 1210.83 771.64C1211.18 771.96 1211.35 772.453 1211.35 773.12V791C1211.35 791.64 1211.18 792.133 1210.83 792.48C1210.51 792.827 1210.02 793 1209.35 793Z" fill="black"></path><path d="M824.172 808.172C822.609 809.734 822.609 812.266 824.172 813.828L849.627 839.284C851.19 840.846 853.722 840.846 855.284 839.284C856.846 837.722 856.846 835.19 855.284 833.627L832.657 811L855.284 788.373C856.846 786.81 856.846 784.278 855.284 782.716C853.722 781.154 851.19 781.154 849.627 782.716L824.172 808.172ZM1235 815C1237.21 815 1239 813.209 1239 811C1239 808.791 1237.21 807 1235 807V815ZM827 815H1235V807H827V815Z" fill="#69F0AE"></path></svg>