<svg xmlns="http://www.w3.org/2000/svg" width="1305" height="954" viewBox="0 0 1305 954" fill="none"><path d="M794.016 817.337C770.185 860.677 655.323 936.06 460.134 921.088C274.207 941.05 153.343 921.088 120.002 817.337C86.6598 713.586 196.498 706.5 317.5 738.838C339.204 730.062 360.551 723.77 380.769 719.577C458.038 703.552 586.367 712.563 664.781 721.427C751.052 731.179 818.193 773.367 794.016 817.337Z" fill="#69F0AE"></path><path d="M36 822.5C54.5714 789.484 77.3098 777.962 98.5454 792.557C123.567 809.754 134.795 853.381 110.17 871.14C105.62 874.421 100.525 873.623 95.5 865.5C79 838.829 107.621 774.165 151.885 740.079C176.252 721.315 224.18 725.943 262.346 733.896C298.95 741.524 337.073 740.767 373.069 730.65C417.511 718.159 453.735 715.262 493.509 721.162C534.745 727.28 576.68 725.008 618.207 721.354C652.619 718.325 676.795 726.881 712.516 735.997C712.701 736.044 712.89 736.107 713.067 736.18C775.136 761.912 803.099 780.728 802.731 812.763C802.256 854.083 791.349 874.597 779.322 881.374C754.326 895.46 757.738 843.252 785.7 836.825C825.658 827.639 852.877 870.488 839 904.5" stroke="black" stroke-width="4" stroke-linecap="round" stroke-linejoin="round"></path><path d="M195.682 803.5C200.305 808.513 203.499 809.354 205.447 819M205.447 819C207.649 809.387 207.55 802.063 206.038 793M205.447 819C209.277 811.667 211.495 809.082 215.507 807.5" stroke="black" stroke-width="4" stroke-linecap="round" stroke-linejoin="round"></path><path d="M452.527 865.5C457.151 870.513 460.345 871.354 462.292 881M462.292 881C464.495 871.387 464.396 864.063 462.884 855M462.292 881C466.123 873.667 468.34 871.082 472.353 869.5" stroke="black" stroke-width="4" stroke-linecap="round" stroke-linejoin="round"></path><path d="M546.033 803.5C550.657 808.513 553.851 809.354 555.798 819M555.798 819C558.001 809.387 557.901 802.063 556.39 793M555.798 819C559.628 811.667 561.846 809.082 565.859 807.5" stroke="black" stroke-width="4" stroke-linecap="round" stroke-linejoin="round"></path><path d="M265.516 862C270.851 866.569 271.703 871.794 272.913 881.5C273.988 872.986 275.793 870.188 280.903 868.5" stroke="black" stroke-width="4" stroke-linecap="round" stroke-linejoin="round"></path><path d="M383.285 791C388.62 795.569 389.473 800.794 390.683 810.5C391.757 801.986 393.563 799.188 398.672 797.5" stroke="black" stroke-width="4" stroke-linecap="round" stroke-linejoin="round"></path><path d="M685.701 831C691.036 835.569 691.889 840.794 693.099 850.5C694.173 841.986 695.979 839.188 701.088 837.5" stroke="black" stroke-width="4" stroke-linecap="round" stroke-linejoin="round"></path><path d="M410.67 498.985C435.246 563.982 369.688 633 319.135 633C268.581 633 202.198 589.445 227.599 498.985C242.943 444.341 264.797 415.061 287.265 396.788C312.527 376.242 350.878 375.131 368.961 402.209C385.896 427.567 397.425 463.953 410.67 498.985Z" fill="#69F0AE"></path><path d="M627.105 258.412C680.001 368 609.84 497.066 523.478 510C430 524 342.989 388.324 390.245 258.412C423.178 167.877 439.231 104.254 470.805 55.7262C496.814 15.7514 550.666 16.6538 565.83 61.8703C583.625 114.931 594.792 191.467 627.105 258.412Z" fill="#69F0AE"></path><path d="M706.745 558.801C727.062 627.767 718.5 685 631.072 701C589.279 701 499.5 632.5 555.399 558.801C568.821 541.105 579.406 526.009 588.056 512.821C621.591 461.689 674.747 450.995 692.463 509.52C697.288 525.461 701.876 542.273 706.745 558.801Z" fill="#69F0AE"></path><path d="M303.622 753C318.112 719.726 325.397 697.197 322.959 585.572C321.217 517.527 322.959 435.325 339.32 425.089V425.089C358.422 413.139 351.142 453.657 332.573 466.418C305.324 485.146 278.415 508.185 260.503 555.498C259.508 558.128 261.53 560.9 264.341 560.842C321.804 559.655 333.013 570.99 363.714 601" stroke="#7B1FA2" stroke-width="6" stroke-linecap="round" stroke-linejoin="round"></path><path d="M477.279 710C491.657 650.409 498.886 610.062 496.467 410.151C494.738 288.29 480.231 164.831 496.467 146.5V146.5C515.618 124.877 546.675 149.765 542.086 178.282C534.653 224.472 509.416 291.192 425.393 370.242C422.643 372.829 424.564 377.606 428.338 377.503C486.148 375.924 540.092 389.511 589 434.5" stroke="#7B1FA2" stroke-width="6" stroke-linecap="round" stroke-linejoin="round"></path><path d="M611.146 786C620.286 760.087 624.881 742.541 623.343 655.609C622.244 602.617 623.343 538.598 633.664 530.627V530.627C648.866 518.884 643.521 557.091 626.825 566.59C612.711 574.62 598.447 586.381 584.128 622.891C583.087 625.545 585.145 628.372 587.995 628.31C623.69 627.536 643.957 634.094 665 663" stroke="#7B1FA2" stroke-width="5" stroke-linecap="round" stroke-linejoin="round"></path><path d="M258.333 648.912C258.333 688.248 239.256 706.781 215.723 706.781C192.19 706.781 174 688.248 174 648.912C181.398 617.54 206.254 657.32 224.6 631.389C242.946 605.459 258.333 609.576 258.333 648.912Z" fill="#69F0AE"></path><path d="M208.325 756.694C216.65 737.952 218.871 723.846 218.976 693.17C218.977 692.931 218.955 692.68 218.912 692.444C214.864 670.067 208.901 663.671 189.979 666.556M224.008 666.556C227.292 652.553 231.729 651 241.466 652.689" stroke="black" stroke-width="4" stroke-linecap="round" stroke-linejoin="round"></path><circle cx="241" cy="195" r="71" fill="#FFDE03"></circle><path d="M539 700C539.781 708.592 542 712.5 541 722" stroke="black" stroke-width="4" stroke-linecap="round"></path><path d="M537.677 679.005C528.728 679.277 523.212 692.26 521.049 698.595C520.544 700.073 521.92 701.428 523.425 701.011C527.144 699.981 533.155 698.444 537.677 697.911C543.478 697.228 551.876 697.603 555.375 697.807C556.121 697.85 556.649 697.11 556.326 696.436C554.167 691.939 547.017 678.721 537.677 679.005Z" stroke="black" stroke-width="4"></path><path d="M505.957 695.249C505.775 702.068 507.156 705.342 505.491 712.71" stroke="black" stroke-width="4" stroke-linecap="round"></path><path d="M506.74 678.625C500.079 678.045 494.787 686.719 492.344 691.626C491.647 693.025 492.85 694.535 494.396 694.306C497.396 693.862 501.73 693.319 505.008 693.32C509.4 693.322 515.563 694.299 518.445 694.801C519.181 694.93 519.79 694.251 519.541 693.546C518.136 689.567 513.825 679.243 506.74 678.625Z" stroke="black" stroke-width="4"></path><path d="M566.078 700.258C565.925 705.271 566.931 707.683 565.686 713.095" stroke="black" stroke-width="4" stroke-linecap="round"></path><path d="M566.702 688.037C562.166 687.623 558.472 693.054 556.513 696.718C555.777 698.097 556.967 699.61 558.516 699.401C560.628 699.117 563.299 698.828 565.387 698.837C568.414 698.849 572.582 699.497 574.837 699.889C575.573 700.018 576.182 699.34 575.927 698.638C574.774 695.469 571.684 688.491 566.702 688.037Z" stroke="black" stroke-width="4"></path><path d="M610.03 264.077C611.594 264.395 612.581 265.967 612.114 267.494C610.035 274.29 607.167 278.19 601.786 280.772C597.128 283.006 590.32 282.205 585.636 281.195V281.195C577.878 271.55 597.464 261.555 609.6 263.99C609.742 264.018 609.885 264.047 610.03 264.077Z" fill="#55CA91"></path><path d="M613.968 304.06C613.968 318.901 601.786 330.215 586.021 324.483C570.973 328.782 557 317.222 557 302.381C557 287.541 567.032 268.948 586.021 279.338C609.668 267.515 613.968 289.219 613.968 304.06Z" fill="#FF0266"></path><path d="M576.706 269.306C584.591 270.728 585.284 274.005 585.663 280.413M585.663 280.413C596.732 279.258 601.867 276.917 606.725 269.866C607.503 268.737 606.84 267.209 605.488 266.981C593.573 264.969 589.328 268.718 585.663 280.413ZM585.663 280.413C553.776 269.665 553.06 327.707 585.663 320.183C587.786 319.824 588.628 319.709 589.237 319.41C591.602 318.251 593.125 313.93 590.758 312.772C590.176 312.487 589.392 312.718 588.197 313.408C587.457 313.836 586.813 314.435 586.384 315.175C584.445 318.513 586.981 318.994 590.621 321.663C590.896 321.865 591.219 322.006 591.558 322.034C608.512 323.445 621.838 272.965 585.663 280.413Z" stroke="black" stroke-width="4" stroke-linecap="round"></path><path d="M921.905 853.632C920.539 853.632 919.27 853.44 918.097 853.056C916.945 852.651 915.942 852.085 915.089 851.36C914.235 850.635 913.585 849.792 913.137 848.832C912.966 848.491 912.955 848.181 913.105 847.904C913.275 847.605 913.553 847.403 913.937 847.296C914.235 847.211 914.523 847.243 914.801 847.392C915.099 847.541 915.323 847.765 915.473 848.064C915.793 848.683 916.262 849.237 916.881 849.728C917.499 850.219 918.235 850.603 919.089 850.88C919.942 851.136 920.881 851.264 921.905 851.264C923.035 851.264 924.038 851.083 924.913 850.72C925.787 850.336 926.47 849.792 926.961 849.088C927.473 848.363 927.729 847.488 927.729 846.464C927.729 845.163 927.249 844.043 926.289 843.104C925.329 842.165 923.825 841.568 921.777 841.312C919.281 841.013 917.329 840.245 915.921 839.008C914.513 837.749 913.809 836.213 913.809 834.4C913.809 833.099 914.15 831.968 914.833 831.008C915.537 830.048 916.497 829.312 917.713 828.8C918.929 828.267 920.326 828 921.905 828C923.078 828 924.145 828.192 925.105 828.576C926.065 828.939 926.897 829.429 927.601 830.048C928.326 830.645 928.913 831.307 929.361 832.032C929.574 832.373 929.638 832.704 929.553 833.024C929.489 833.344 929.307 833.589 929.009 833.76C928.689 833.909 928.358 833.931 928.017 833.824C927.697 833.717 927.451 833.515 927.281 833.216C926.961 832.725 926.555 832.267 926.065 831.84C925.595 831.392 925.019 831.04 924.337 830.784C923.654 830.528 922.833 830.389 921.873 830.368C920.187 830.368 918.833 830.731 917.809 831.456C916.785 832.16 916.273 833.195 916.273 834.56C916.273 835.285 916.465 835.957 916.849 836.576C917.233 837.173 917.862 837.696 918.737 838.144C919.633 838.571 920.827 838.891 922.321 839.104C924.987 839.488 926.961 840.309 928.241 841.568C929.542 842.805 930.193 844.427 930.193 846.432C930.193 847.584 929.979 848.608 929.553 849.504C929.147 850.4 928.561 851.157 927.793 851.776C927.046 852.373 926.161 852.832 925.137 853.152C924.134 853.472 923.057 853.632 921.905 853.632Z" fill="black"></path><path d="M936.66 853.312C936.319 853.312 936.02 853.195 935.764 852.96C935.529 852.704 935.412 852.405 935.412 852.064V829.568C935.412 829.205 935.529 828.907 935.764 828.672C936.02 828.437 936.319 828.32 936.66 828.32C937.172 828.32 937.545 828.533 937.78 828.96L948.564 850.4H947.476L958.068 828.96C958.324 828.533 958.697 828.32 959.188 828.32C959.529 828.32 959.817 828.437 960.052 828.672C960.287 828.907 960.404 829.205 960.404 829.568V852.064C960.404 852.405 960.287 852.704 960.052 852.96C959.817 853.195 959.529 853.312 959.188 853.312C958.825 853.312 958.516 853.195 958.26 852.96C958.025 852.704 957.908 852.405 957.908 852.064V832.8L958.452 832.832L949.012 852.128C948.777 852.533 948.415 852.736 947.924 852.736C947.391 852.736 947.007 852.48 946.772 851.968L937.268 832.96L937.908 832.8V852.064C937.908 852.405 937.78 852.704 937.524 852.96C937.289 853.195 937.001 853.312 936.66 853.312Z" fill="black"></path><path d="M968.066 853.312C967.704 853.312 967.405 853.195 967.17 852.96C966.936 852.725 966.818 852.427 966.818 852.064V829.568C966.818 829.205 966.936 828.907 967.17 828.672C967.405 828.437 967.704 828.32 968.066 828.32C968.429 828.32 968.728 828.437 968.962 828.672C969.197 828.907 969.314 829.205 969.314 829.568V852.064C969.314 852.427 969.197 852.725 968.962 852.96C968.728 853.195 968.429 853.312 968.066 853.312Z" fill="black"></path><path d="M976.973 853.312C976.631 853.312 976.333 853.195 976.077 852.96C975.842 852.725 975.725 852.427 975.725 852.064V829.568C975.725 829.227 975.842 828.939 976.077 828.704C976.333 828.448 976.631 828.32 976.973 828.32C977.314 828.32 977.602 828.448 977.837 828.704C978.093 828.939 978.221 829.227 978.221 829.568V850.944H990.733C991.074 850.944 991.362 851.061 991.597 851.296C991.853 851.509 991.981 851.787 991.981 852.128C991.981 852.469 991.853 852.757 991.597 852.992C991.362 853.205 991.074 853.312 990.733 853.312H976.973Z" fill="black"></path><path d="M997.223 853.312C996.86 853.312 996.561 853.195 996.327 852.96C996.092 852.725 995.975 852.427 995.975 852.064V829.568C995.975 829.205 996.092 828.907 996.327 828.672C996.561 828.437 996.86 828.32 997.223 828.32H1012.23C1012.57 828.32 1012.86 828.437 1013.09 828.672C1013.35 828.885 1013.48 829.173 1013.48 829.536C1013.48 829.856 1013.35 830.133 1013.09 830.368C1012.86 830.603 1012.57 830.72 1012.23 830.72H998.471V839.552H1008.49C1008.85 839.552 1009.15 839.669 1009.38 839.904C1009.62 840.139 1009.73 840.427 1009.73 840.768C1009.73 841.109 1009.62 841.397 1009.38 841.632C1009.15 841.867 1008.85 841.984 1008.49 841.984H998.471V850.912H1012.23C1012.57 850.912 1012.86 851.029 1013.09 851.264C1013.35 851.499 1013.48 851.776 1013.48 852.096C1013.48 852.459 1013.35 852.757 1013.09 852.992C1012.86 853.205 1012.57 853.312 1012.23 853.312H997.223Z" fill="black"></path><path d="M1025.81 853.632C1024.45 853.632 1023.18 853.44 1022 853.056C1020.85 852.651 1019.85 852.085 1018.99 851.36C1018.14 850.635 1017.49 849.792 1017.04 848.832C1016.87 848.491 1016.86 848.181 1017.01 847.904C1017.18 847.605 1017.46 847.403 1017.84 847.296C1018.14 847.211 1018.43 847.243 1018.71 847.392C1019.01 847.541 1019.23 847.765 1019.38 848.064C1019.7 848.683 1020.17 849.237 1020.79 849.728C1021.41 850.219 1022.14 850.603 1022.99 850.88C1023.85 851.136 1024.79 851.264 1025.81 851.264C1026.94 851.264 1027.94 851.083 1028.82 850.72C1029.69 850.336 1030.38 849.792 1030.87 849.088C1031.38 848.363 1031.63 847.488 1031.63 846.464C1031.63 845.163 1031.15 844.043 1030.19 843.104C1029.23 842.165 1027.73 841.568 1025.68 841.312C1023.19 841.013 1021.23 840.245 1019.83 839.008C1018.42 837.749 1017.71 836.213 1017.71 834.4C1017.71 833.099 1018.06 831.968 1018.74 831.008C1019.44 830.048 1020.4 829.312 1021.62 828.8C1022.83 828.267 1024.23 828 1025.81 828C1026.98 828 1028.05 828.192 1029.01 828.576C1029.97 828.939 1030.8 829.429 1031.51 830.048C1032.23 830.645 1032.82 831.307 1033.27 832.032C1033.48 832.373 1033.54 832.704 1033.46 833.024C1033.39 833.344 1033.21 833.589 1032.91 833.76C1032.59 833.909 1032.26 833.931 1031.92 833.824C1031.6 833.717 1031.36 833.515 1031.19 833.216C1030.87 832.725 1030.46 832.267 1029.97 831.84C1029.5 831.392 1028.93 831.04 1028.24 830.784C1027.56 830.528 1026.74 830.389 1025.78 830.368C1024.09 830.368 1022.74 830.731 1021.71 831.456C1020.69 832.16 1020.18 833.195 1020.18 834.56C1020.18 835.285 1020.37 835.957 1020.75 836.576C1021.14 837.173 1021.77 837.696 1022.64 838.144C1023.54 838.571 1024.73 838.891 1026.23 839.104C1028.89 839.488 1030.87 840.309 1032.15 841.568C1033.45 842.805 1034.1 844.427 1034.1 846.432C1034.1 847.584 1033.89 848.608 1033.46 849.504C1033.05 850.4 1032.47 851.157 1031.7 851.776C1030.95 852.373 1030.07 852.832 1029.04 853.152C1028.04 853.472 1026.96 853.632 1025.81 853.632Z" fill="black"></path><path d="M829.887 669.731C828.358 668.137 825.825 668.084 824.231 669.613L798.247 694.53C796.653 696.059 796.6 698.591 798.129 700.185C799.658 701.78 802.19 701.833 803.784 700.304L826.881 678.156L849.029 701.252C850.558 702.847 853.09 702.9 854.685 701.371C856.279 699.842 856.332 697.31 854.803 695.715L829.887 669.731ZM1272 815C1274.21 815 1276 813.209 1276 811C1276 808.791 1274.21 807 1272 807V815ZM823 672.416C821.985 720.872 824.769 756.533 837.532 780.073C844.012 792.023 853.051 800.852 865.295 806.633C877.448 812.37 892.532 815 910.999 815V807C893.217 807 879.422 804.456 868.71 799.398C858.089 794.384 850.278 786.796 844.565 776.26C832.944 754.827 829.979 721.238 830.999 672.584L823 672.416ZM910.999 815H1272V807H910.999V815Z" fill="#69F0AE"></path><path d="M920.24 793C919.653 793 919.16 792.8 918.76 792.4C918.36 792 918.16 791.507 918.16 790.92V761.76H922.32V790.92C922.32 791.507 922.12 792 921.72 792.4C921.32 792.8 920.826 793 920.24 793ZM909.52 765.6C908.96 765.6 908.493 765.427 908.12 765.08C907.773 764.707 907.6 764.24 907.6 763.68C907.6 763.12 907.773 762.667 908.12 762.32C908.493 761.947 908.96 761.76 909.52 761.76H930.92C931.48 761.76 931.933 761.947 932.28 762.32C932.653 762.667 932.84 763.12 932.84 763.68C932.84 764.24 932.653 764.707 932.28 765.08C931.933 765.427 931.48 765.6 930.92 765.6H909.52Z" fill="black"></path><path d="M939.085 785.04C938.498 785.04 938.005 784.853 937.605 784.48C937.232 784.08 937.045 783.587 937.045 783V763.8C937.045 763.187 937.232 762.693 937.605 762.32C938.005 761.947 938.498 761.76 939.085 761.76C939.698 761.76 940.192 761.947 940.565 762.32C940.938 762.693 941.125 763.187 941.125 763.8V783C941.125 783.587 940.938 784.08 940.565 784.48C940.192 784.853 939.698 785.04 939.085 785.04ZM955.525 793.04C954.938 793.04 954.445 792.853 954.045 792.48C953.672 792.08 953.485 791.587 953.485 791V781.16C953.485 779.64 953.205 778.4 952.645 777.44C952.085 776.48 951.325 775.773 950.365 775.32C949.432 774.84 948.352 774.6 947.125 774.6C946.005 774.6 944.992 774.827 944.085 775.28C943.178 775.733 942.458 776.347 941.925 777.12C941.392 777.867 941.125 778.733 941.125 779.72H938.605C938.605 778.04 939.005 776.547 939.805 775.24C940.632 773.907 941.752 772.853 943.165 772.08C944.578 771.307 946.165 770.92 947.925 770.92C949.765 770.92 951.405 771.32 952.845 772.12C954.312 772.893 955.458 774.04 956.285 775.56C957.138 777.08 957.565 778.947 957.565 781.16V791C957.565 791.587 957.365 792.08 956.965 792.48C956.592 792.853 956.112 793.04 955.525 793.04ZM939.085 793.04C938.498 793.04 938.005 792.853 937.605 792.48C937.232 792.08 937.045 791.587 937.045 791V773.16C937.045 772.547 937.232 772.053 937.605 771.68C938.005 771.307 938.498 771.12 939.085 771.12C939.698 771.12 940.192 771.307 940.565 771.68C940.938 772.053 941.125 772.547 941.125 773.16V791C941.125 791.587 940.938 792.08 940.565 792.48C940.192 792.853 939.698 793.04 939.085 793.04Z" fill="black"></path><path d="M974.63 793.16C972.416 793.16 970.443 792.693 968.71 791.76C967.003 790.8 965.656 789.493 964.67 787.84C963.71 786.16 963.23 784.24 963.23 782.08C963.23 779.893 963.683 777.973 964.59 776.32C965.523 774.64 966.803 773.333 968.43 772.4C970.056 771.44 971.923 770.96 974.03 770.96C976.11 770.96 977.896 771.427 979.39 772.36C980.883 773.267 982.016 774.533 982.79 776.16C983.59 777.76 983.99 779.613 983.99 781.72C983.99 782.227 983.816 782.653 983.47 783C983.123 783.32 982.683 783.48 982.15 783.48H966.03V780.28H982.03L980.39 781.4C980.363 780.067 980.096 778.88 979.59 777.84C979.083 776.773 978.363 775.933 977.43 775.32C976.496 774.707 975.363 774.4 974.03 774.4C972.51 774.4 971.203 774.733 970.11 775.4C969.043 776.067 968.23 776.987 967.67 778.16C967.11 779.307 966.83 780.613 966.83 782.08C966.83 783.547 967.163 784.853 967.83 786C968.496 787.147 969.416 788.053 970.59 788.72C971.763 789.387 973.11 789.72 974.63 789.72C975.456 789.72 976.296 789.573 977.15 789.28C978.03 788.96 978.736 788.6 979.27 788.2C979.67 787.907 980.096 787.76 980.55 787.76C981.03 787.733 981.443 787.867 981.79 788.16C982.243 788.56 982.483 789 982.51 789.48C982.536 789.96 982.323 790.373 981.87 790.72C980.963 791.44 979.83 792.027 978.47 792.48C977.136 792.933 975.856 793.16 974.63 793.16Z" fill="black"></path><path d="M998.332 793.16C996.172 793.16 994.265 792.693 992.612 791.76C990.959 790.8 989.652 789.493 988.692 787.84C987.759 786.16 987.292 784.24 987.292 782.08C987.292 779.893 987.759 777.973 988.692 776.32C989.652 774.64 990.959 773.333 992.612 772.4C994.265 771.44 996.172 770.96 998.332 770.96C1000.47 770.96 1002.36 771.44 1004.01 772.4C1005.67 773.333 1006.96 774.64 1007.89 776.32C1008.85 777.973 1009.33 779.893 1009.33 782.08C1009.33 784.24 1008.87 786.16 1007.93 787.84C1007 789.493 1005.71 790.8 1004.05 791.76C1002.4 792.693 1000.49 793.16 998.332 793.16ZM998.332 789.56C999.719 789.56 1000.95 789.24 1002.01 788.6C1003.08 787.96 1003.91 787.08 1004.49 785.96C1005.11 784.84 1005.41 783.547 1005.41 782.08C1005.41 780.613 1005.11 779.32 1004.49 778.2C1003.91 777.053 1003.08 776.16 1002.01 775.52C1000.95 774.88 999.719 774.56 998.332 774.56C996.945 774.56 995.719 774.88 994.652 775.52C993.585 776.16 992.745 777.053 992.132 778.2C991.519 779.32 991.212 780.613 991.212 782.08C991.212 783.547 991.519 784.84 992.132 785.96C992.745 787.08 993.585 787.96 994.652 788.6C995.719 789.24 996.945 789.56 998.332 789.56Z" fill="black"></path><path d="M1017.36 779.32C1017.36 777.72 1017.75 776.293 1018.52 775.04C1019.32 773.76 1020.39 772.747 1021.72 772C1023.06 771.253 1024.52 770.88 1026.12 770.88C1027.72 770.88 1028.91 771.147 1029.68 771.68C1030.48 772.187 1030.79 772.8 1030.6 773.52C1030.52 773.893 1030.36 774.187 1030.12 774.4C1029.91 774.587 1029.66 774.707 1029.36 774.76C1029.07 774.813 1028.75 774.8 1028.4 774.72C1026.7 774.373 1025.16 774.347 1023.8 774.64C1022.44 774.933 1021.36 775.48 1020.56 776.28C1019.79 777.08 1019.4 778.093 1019.4 779.32H1017.36ZM1017.4 793C1016.76 793 1016.27 792.84 1015.92 792.52C1015.58 792.173 1015.4 791.667 1015.4 791V773.12C1015.4 772.48 1015.58 771.987 1015.92 771.64C1016.27 771.293 1016.76 771.12 1017.4 771.12C1018.07 771.12 1018.56 771.293 1018.88 771.64C1019.23 771.96 1019.4 772.453 1019.4 773.12V791C1019.4 791.64 1019.23 792.133 1018.88 792.48C1018.56 792.827 1018.07 793 1017.4 793Z" fill="black"></path><path d="M1043.54 793.16C1041.32 793.16 1039.35 792.693 1037.62 791.76C1035.91 790.8 1034.56 789.493 1033.58 787.84C1032.62 786.16 1032.14 784.24 1032.14 782.08C1032.14 779.893 1032.59 777.973 1033.5 776.32C1034.43 774.64 1035.71 773.333 1037.34 772.4C1038.96 771.44 1040.83 770.96 1042.94 770.96C1045.02 770.96 1046.8 771.427 1048.3 772.36C1049.79 773.267 1050.92 774.533 1051.7 776.16C1052.5 777.76 1052.9 779.613 1052.9 781.72C1052.9 782.227 1052.72 782.653 1052.38 783C1052.03 783.32 1051.59 783.48 1051.06 783.48H1034.94V780.28H1050.94L1049.3 781.4C1049.27 780.067 1049 778.88 1048.5 777.84C1047.99 776.773 1047.27 775.933 1046.34 775.32C1045.4 774.707 1044.27 774.4 1042.94 774.4C1041.42 774.4 1040.11 774.733 1039.02 775.4C1037.95 776.067 1037.14 776.987 1036.58 778.16C1036.02 779.307 1035.74 780.613 1035.74 782.08C1035.74 783.547 1036.07 784.853 1036.74 786C1037.4 787.147 1038.32 788.053 1039.5 788.72C1040.67 789.387 1042.02 789.72 1043.54 789.72C1044.36 789.72 1045.2 789.573 1046.06 789.28C1046.94 788.96 1047.64 788.6 1048.18 788.2C1048.58 787.907 1049 787.76 1049.46 787.76C1049.94 787.733 1050.35 787.867 1050.7 788.16C1051.15 788.56 1051.39 789 1051.42 789.48C1051.44 789.96 1051.23 790.373 1050.78 790.72C1049.87 791.44 1048.74 792.027 1047.38 792.48C1046.04 792.933 1044.76 793.16 1043.54 793.16Z" fill="black"></path><path d="M1066.06 793C1064.73 793 1063.53 792.667 1062.46 792C1061.39 791.307 1060.55 790.373 1059.94 789.2C1059.33 788.027 1059.02 786.707 1059.02 785.24V766.16C1059.02 765.573 1059.21 765.093 1059.58 764.72C1059.95 764.347 1060.43 764.16 1061.02 764.16C1061.61 764.16 1062.09 764.347 1062.46 764.72C1062.83 765.093 1063.02 765.573 1063.02 766.16V785.24C1063.02 786.307 1063.31 787.2 1063.9 787.92C1064.49 788.64 1065.21 789 1066.06 789H1067.42C1067.9 789 1068.3 789.187 1068.62 789.56C1068.97 789.933 1069.14 790.413 1069.14 791C1069.14 791.587 1068.91 792.067 1068.46 792.44C1068.03 792.813 1067.47 793 1066.78 793H1066.06ZM1057.18 775.36C1056.62 775.36 1056.17 775.2 1055.82 774.88C1055.47 774.56 1055.3 774.16 1055.3 773.68C1055.3 773.147 1055.47 772.72 1055.82 772.4C1056.17 772.08 1056.62 771.92 1057.18 771.92H1066.42C1066.98 771.92 1067.43 772.08 1067.78 772.4C1068.13 772.72 1068.3 773.147 1068.3 773.68C1068.3 774.16 1068.13 774.56 1067.78 774.88C1067.43 775.2 1066.98 775.36 1066.42 775.36H1057.18Z" fill="black"></path><path d="M1076.59 793C1076.01 793 1075.51 792.813 1075.11 792.44C1074.74 792.04 1074.55 791.547 1074.55 790.96V773.16C1074.55 772.547 1074.74 772.053 1075.11 771.68C1075.51 771.307 1076.01 771.12 1076.59 771.12C1077.21 771.12 1077.7 771.307 1078.07 771.68C1078.45 772.053 1078.63 772.547 1078.63 773.16V790.96C1078.63 791.547 1078.45 792.04 1078.07 792.44C1077.7 792.813 1077.21 793 1076.59 793ZM1076.59 767.56C1075.87 767.56 1075.25 767.307 1074.71 766.8C1074.21 766.267 1073.95 765.64 1073.95 764.92C1073.95 764.2 1074.21 763.587 1074.71 763.08C1075.25 762.547 1075.87 762.28 1076.59 762.28C1077.31 762.28 1077.93 762.547 1078.43 763.08C1078.97 763.587 1079.23 764.2 1079.23 764.92C1079.23 765.64 1078.97 766.267 1078.43 766.8C1077.93 767.307 1077.31 767.56 1076.59 767.56Z" fill="black"></path><path d="M1096.14 793.16C1094.01 793.16 1092.1 792.68 1090.42 791.72C1088.77 790.733 1087.46 789.413 1086.5 787.76C1085.57 786.08 1085.1 784.187 1085.1 782.08C1085.1 779.92 1085.57 778 1086.5 776.32C1087.44 774.64 1088.72 773.333 1090.34 772.4C1091.97 771.44 1093.84 770.96 1095.94 770.96C1097.52 770.96 1098.96 771.267 1100.26 771.88C1101.57 772.467 1102.74 773.36 1103.78 774.56C1104.16 774.987 1104.29 775.427 1104.18 775.88C1104.08 776.333 1103.78 776.733 1103.3 777.08C1102.93 777.347 1102.52 777.44 1102.06 777.36C1101.61 777.253 1101.2 777.013 1100.82 776.64C1099.52 775.253 1097.89 774.56 1095.94 774.56C1094.58 774.56 1093.38 774.88 1092.34 775.52C1091.3 776.133 1090.49 777 1089.9 778.12C1089.32 779.24 1089.02 780.56 1089.02 782.08C1089.02 783.52 1089.32 784.8 1089.9 785.92C1090.52 787.04 1091.36 787.933 1092.42 788.6C1093.49 789.24 1094.73 789.56 1096.14 789.56C1097.08 789.56 1097.89 789.453 1098.58 789.24C1099.3 789 1099.96 788.64 1100.54 788.16C1100.97 787.813 1101.41 787.627 1101.86 787.6C1102.32 787.547 1102.72 787.667 1103.06 787.96C1103.52 788.333 1103.77 788.76 1103.82 789.24C1103.88 789.693 1103.72 790.107 1103.34 790.48C1101.42 792.267 1099.02 793.16 1096.14 793.16Z" fill="black"></path><path d="M1119.37 793.16C1117.42 793.16 1115.67 792.68 1114.13 791.72C1112.58 790.733 1111.35 789.413 1110.45 787.76C1109.57 786.08 1109.13 784.187 1109.13 782.08C1109.13 779.973 1109.61 778.08 1110.57 776.4C1111.55 774.72 1112.87 773.4 1114.53 772.44C1116.21 771.453 1118.09 770.96 1120.17 770.96C1122.25 770.96 1124.11 771.453 1125.77 772.44C1127.42 773.4 1128.73 774.72 1129.69 776.4C1130.67 778.08 1131.17 779.973 1131.17 782.08H1129.61C1129.61 784.187 1129.15 786.08 1128.25 787.76C1127.37 789.413 1126.15 790.733 1124.61 791.72C1123.06 792.68 1121.31 793.16 1119.37 793.16ZM1120.17 789.56C1121.53 789.56 1122.74 789.24 1123.81 788.6C1124.87 787.933 1125.71 787.04 1126.33 785.92C1126.94 784.773 1127.25 783.493 1127.25 782.08C1127.25 780.64 1126.94 779.36 1126.33 778.24C1125.71 777.093 1124.87 776.2 1123.81 775.56C1122.74 774.893 1121.53 774.56 1120.17 774.56C1118.83 774.56 1117.62 774.893 1116.53 775.56C1115.46 776.2 1114.61 777.093 1113.97 778.24C1113.35 779.36 1113.05 780.64 1113.05 782.08C1113.05 783.493 1113.35 784.773 1113.97 785.92C1114.61 787.04 1115.46 787.933 1116.53 788.6C1117.62 789.24 1118.83 789.56 1120.17 789.56ZM1129.13 793.04C1128.54 793.04 1128.05 792.853 1127.65 792.48C1127.27 792.08 1127.09 791.587 1127.09 791V784.88L1127.85 780.64L1131.17 782.08V791C1131.17 791.587 1130.97 792.08 1130.57 792.48C1130.19 792.853 1129.71 793.04 1129.13 793.04Z" fill="black"></path><path d="M1142.44 793C1141.27 793 1140.23 792.68 1139.32 792.04C1138.41 791.4 1137.71 790.533 1137.2 789.44C1136.69 788.32 1136.44 787.04 1136.44 785.6V763.76C1136.44 763.173 1136.63 762.693 1137 762.32C1137.37 761.947 1137.85 761.76 1138.44 761.76C1139.03 761.76 1139.51 761.947 1139.88 762.32C1140.25 762.693 1140.44 763.173 1140.44 763.76V785.6C1140.44 786.587 1140.63 787.4 1141 788.04C1141.37 788.68 1141.85 789 1142.44 789H1143.44C1143.97 789 1144.4 789.187 1144.72 789.56C1145.07 789.933 1145.24 790.413 1145.24 791C1145.24 791.587 1144.99 792.067 1144.48 792.44C1143.97 792.813 1143.32 793 1142.52 793H1142.44Z" fill="black"></path><path d="M1166.15 793C1164.98 793 1163.94 792.68 1163.03 792.04C1162.12 791.4 1161.42 790.533 1160.91 789.44C1160.4 788.32 1160.15 787.04 1160.15 785.6V763.76C1160.15 763.173 1160.34 762.693 1160.71 762.32C1161.08 761.947 1161.56 761.76 1162.15 761.76C1162.74 761.76 1163.22 761.947 1163.59 762.32C1163.96 762.693 1164.15 763.173 1164.15 763.76V785.6C1164.15 786.587 1164.34 787.4 1164.71 788.04C1165.08 788.68 1165.56 789 1166.15 789H1167.15C1167.68 789 1168.11 789.187 1168.43 789.56C1168.78 789.933 1168.95 790.413 1168.95 791C1168.95 791.587 1168.7 792.067 1168.19 792.44C1167.68 792.813 1167.03 793 1166.23 793H1166.15Z" fill="black"></path><path d="M1180.85 793.16C1178.91 793.16 1177.16 792.68 1175.61 791.72C1174.07 790.733 1172.84 789.413 1171.93 787.76C1171.05 786.08 1170.61 784.187 1170.61 782.08C1170.61 779.973 1171.09 778.08 1172.05 776.4C1173.04 774.72 1174.36 773.4 1176.01 772.44C1177.69 771.453 1179.57 770.96 1181.65 770.96C1183.73 770.96 1185.6 771.453 1187.25 772.44C1188.91 773.4 1190.21 774.72 1191.17 776.4C1192.16 778.08 1192.65 779.973 1192.65 782.08H1191.09C1191.09 784.187 1190.64 786.08 1189.73 787.76C1188.85 789.413 1187.64 790.733 1186.09 791.72C1184.55 792.68 1182.8 793.16 1180.85 793.16ZM1181.65 789.56C1183.01 789.56 1184.23 789.24 1185.29 788.6C1186.36 787.933 1187.2 787.04 1187.81 785.92C1188.43 784.773 1188.73 783.493 1188.73 782.08C1188.73 780.64 1188.43 779.36 1187.81 778.24C1187.2 777.093 1186.36 776.2 1185.29 775.56C1184.23 774.893 1183.01 774.56 1181.65 774.56C1180.32 774.56 1179.11 774.893 1178.01 775.56C1176.95 776.2 1176.09 777.093 1175.45 778.24C1174.84 779.36 1174.53 780.64 1174.53 782.08C1174.53 783.493 1174.84 784.773 1175.45 785.92C1176.09 787.04 1176.95 787.933 1178.01 788.6C1179.11 789.24 1180.32 789.56 1181.65 789.56ZM1190.61 793.04C1190.03 793.04 1189.53 792.853 1189.13 792.48C1188.76 792.08 1188.57 791.587 1188.57 791V784.88L1189.33 780.64L1192.65 782.08V791C1192.65 791.587 1192.45 792.08 1192.05 792.48C1191.68 792.853 1191.2 793.04 1190.61 793.04Z" fill="black"></path><path d="M1202.64 802.6C1202.38 802.6 1202.06 802.52 1201.68 802.36C1200.51 801.827 1200.19 800.987 1200.72 799.84L1212.92 772.28C1213.46 771.16 1214.3 770.84 1215.44 771.32C1216.64 771.827 1216.98 772.667 1216.44 773.84L1204.2 801.36C1203.88 802.187 1203.36 802.6 1202.64 802.6ZM1207.36 792.12C1206.86 792.333 1206.38 792.36 1205.92 792.2C1205.5 792.013 1205.15 791.667 1204.88 791.16L1195.72 773.76C1195.46 773.253 1195.42 772.773 1195.6 772.32C1195.82 771.84 1196.18 771.493 1196.68 771.28C1197.19 771.067 1197.67 771.053 1198.12 771.24C1198.58 771.4 1198.92 771.733 1199.16 772.24L1207.92 789.64C1208.19 790.147 1208.28 790.64 1208.2 791.12C1208.15 791.573 1207.87 791.907 1207.36 792.12Z" fill="black"></path><path d="M1229.79 793.16C1227.57 793.16 1225.6 792.693 1223.87 791.76C1222.16 790.8 1220.81 789.493 1219.83 787.84C1218.87 786.16 1218.39 784.24 1218.39 782.08C1218.39 779.893 1218.84 777.973 1219.75 776.32C1220.68 774.64 1221.96 773.333 1223.59 772.4C1225.21 771.44 1227.08 770.96 1229.19 770.96C1231.27 770.96 1233.05 771.427 1234.55 772.36C1236.04 773.267 1237.17 774.533 1237.95 776.16C1238.75 777.76 1239.15 779.613 1239.15 781.72C1239.15 782.227 1238.97 782.653 1238.63 783C1238.28 783.32 1237.84 783.48 1237.31 783.48H1221.19V780.28H1237.19L1235.55 781.4C1235.52 780.067 1235.25 778.88 1234.75 777.84C1234.24 776.773 1233.52 775.933 1232.59 775.32C1231.65 774.707 1230.52 774.4 1229.19 774.4C1227.67 774.4 1226.36 774.733 1225.27 775.4C1224.2 776.067 1223.39 776.987 1222.83 778.16C1222.27 779.307 1221.99 780.613 1221.99 782.08C1221.99 783.547 1222.32 784.853 1222.99 786C1223.65 787.147 1224.57 788.053 1225.75 788.72C1226.92 789.387 1228.27 789.72 1229.79 789.72C1230.61 789.72 1231.45 789.573 1232.31 789.28C1233.19 788.96 1233.89 788.6 1234.43 788.2C1234.83 787.907 1235.25 787.76 1235.71 787.76C1236.19 787.733 1236.6 787.867 1236.95 788.16C1237.4 788.56 1237.64 789 1237.67 789.48C1237.69 789.96 1237.48 790.373 1237.03 790.72C1236.12 791.44 1234.99 792.027 1233.63 792.48C1232.29 792.933 1231.01 793.16 1229.79 793.16Z" fill="black"></path><path d="M1246.31 779.32C1246.31 777.72 1246.7 776.293 1247.47 775.04C1248.27 773.76 1249.34 772.747 1250.67 772C1252 771.253 1253.47 770.88 1255.07 770.88C1256.67 770.88 1257.86 771.147 1258.63 771.68C1259.43 772.187 1259.74 772.8 1259.55 773.52C1259.47 773.893 1259.31 774.187 1259.07 774.4C1258.86 774.587 1258.6 774.707 1258.31 774.76C1258.02 774.813 1257.7 774.8 1257.35 774.72C1255.64 774.373 1254.11 774.347 1252.75 774.64C1251.39 774.933 1250.31 775.48 1249.51 776.28C1248.74 777.08 1248.35 778.093 1248.35 779.32H1246.31ZM1246.35 793C1245.71 793 1245.22 792.84 1244.87 792.52C1244.52 792.173 1244.35 791.667 1244.35 791V773.12C1244.35 772.48 1244.52 771.987 1244.87 771.64C1245.22 771.293 1245.71 771.12 1246.35 771.12C1247.02 771.12 1247.51 771.293 1247.83 771.64C1248.18 771.96 1248.35 772.453 1248.35 773.12V791C1248.35 791.64 1248.18 792.133 1247.83 792.48C1247.51 792.827 1247.02 793 1246.35 793Z" fill="black"></path><path d="M760.447 597C760.085 597 759.786 596.883 759.551 596.648C759.317 596.413 759.199 596.115 759.199 595.752V573.256C759.199 572.893 759.317 572.595 759.551 572.36C759.786 572.125 760.085 572.008 760.447 572.008H775.455C775.797 572.008 776.085 572.125 776.319 572.36C776.575 572.573 776.703 572.861 776.703 573.224C776.703 573.544 776.575 573.821 776.319 574.056C776.085 574.291 775.797 574.408 775.455 574.408H761.695V583.24H771.711C772.074 583.24 772.373 583.357 772.607 583.592C772.842 583.827 772.959 584.115 772.959 584.456C772.959 584.797 772.842 585.085 772.607 585.32C772.373 585.555 772.074 585.672 771.711 585.672H761.695V594.6H775.455C775.797 594.6 776.085 594.717 776.319 594.952C776.575 595.187 776.703 595.464 776.703 595.784C776.703 596.147 776.575 596.445 776.319 596.68C776.085 596.893 775.797 597 775.455 597H760.447Z" fill="black"></path><path d="M784.811 597C783.958 597 783.19 596.765 782.507 596.296C781.846 595.827 781.323 595.176 780.939 594.344C780.577 593.512 780.395 592.552 780.395 591.464V573.224C780.395 572.861 780.502 572.573 780.715 572.36C780.95 572.125 781.249 572.008 781.611 572.008C781.974 572.008 782.262 572.125 782.475 572.36C782.71 572.573 782.827 572.861 782.827 573.224V591.464C782.827 592.381 783.009 593.128 783.371 593.704C783.755 594.28 784.235 594.568 784.811 594.568H785.611C785.931 594.568 786.187 594.685 786.379 594.92C786.571 595.133 786.667 595.421 786.667 595.784C786.667 596.147 786.529 596.445 786.251 596.68C785.995 596.893 785.654 597 785.227 597H784.811Z" fill="black"></path><path d="M797.034 597.16C795.306 597.16 793.77 596.787 792.426 596.04C791.103 595.272 790.058 594.216 789.29 592.872C788.543 591.528 788.17 589.992 788.17 588.264C788.17 586.515 788.522 584.979 789.226 583.656C789.951 582.312 790.943 581.256 792.202 580.488C793.461 579.72 794.911 579.336 796.554 579.336C798.175 579.336 799.583 579.709 800.778 580.456C801.994 581.181 802.933 582.195 803.594 583.496C804.255 584.797 804.586 586.28 804.586 587.944C804.586 588.285 804.479 588.563 804.266 588.776C804.053 588.968 803.775 589.064 803.434 589.064H789.834V587.016H803.69L802.314 588.008C802.335 586.771 802.111 585.661 801.642 584.68C801.173 583.699 800.501 582.931 799.626 582.376C798.773 581.821 797.749 581.544 796.554 581.544C795.338 581.544 794.271 581.832 793.354 582.408C792.437 582.984 791.722 583.784 791.21 584.808C790.719 585.811 790.474 586.963 790.474 588.264C790.474 589.565 790.751 590.717 791.306 591.72C791.882 592.723 792.661 593.512 793.642 594.088C794.623 594.664 795.754 594.952 797.034 594.952C797.802 594.952 798.57 594.824 799.338 594.568C800.127 594.291 800.757 593.949 801.226 593.544C801.461 593.352 801.727 593.256 802.026 593.256C802.325 593.235 802.581 593.309 802.794 593.48C803.071 593.736 803.21 594.013 803.21 594.312C803.231 594.611 803.114 594.867 802.858 595.08C802.154 595.677 801.258 596.179 800.17 596.584C799.082 596.968 798.037 597.16 797.034 597.16Z" fill="black"></path><path d="M832.402 597C832.04 597 831.741 596.893 831.506 596.68C831.272 596.445 831.154 596.147 831.154 595.784V586.568C831.154 585.053 830.76 583.859 829.97 582.984C829.181 582.088 828.168 581.64 826.93 581.64C825.608 581.64 824.52 582.088 823.666 582.984C822.834 583.859 822.429 585.032 822.45 586.504H820.242C820.264 585.075 820.573 583.816 821.17 582.728C821.768 581.64 822.589 580.797 823.634 580.2C824.68 579.603 825.864 579.304 827.186 579.304C828.445 579.304 829.554 579.603 830.514 580.2C831.496 580.797 832.253 581.64 832.786 582.728C833.341 583.816 833.618 585.096 833.618 586.568V595.784C833.618 596.147 833.501 596.445 833.266 596.68C833.053 596.893 832.765 597 832.402 597ZM810.002 597C809.618 597 809.309 596.893 809.074 596.68C808.861 596.445 808.754 596.147 808.754 595.784V580.744C808.754 580.381 808.861 580.083 809.074 579.848C809.309 579.613 809.618 579.496 810.002 579.496C810.365 579.496 810.653 579.613 810.866 579.848C811.101 580.083 811.218 580.381 811.218 580.744V595.784C811.218 596.147 811.101 596.445 810.866 596.68C810.653 596.893 810.365 597 810.002 597ZM821.234 597C820.872 597 820.573 596.893 820.338 596.68C820.104 596.445 819.986 596.147 819.986 595.784V586.568C819.986 585.053 819.592 583.859 818.802 582.984C818.013 582.088 817 581.64 815.762 581.64C814.44 581.64 813.352 582.077 812.498 582.952C811.645 583.805 811.218 584.925 811.218 586.312H809.458C809.501 584.947 809.8 583.741 810.354 582.696C810.93 581.629 811.709 580.797 812.69 580.2C813.672 579.603 814.781 579.304 816.018 579.304C817.277 579.304 818.386 579.603 819.346 580.2C820.328 580.797 821.085 581.64 821.618 582.728C822.173 583.816 822.45 585.096 822.45 586.568V595.784C822.45 596.147 822.333 596.445 822.098 596.68C821.885 596.893 821.597 597 821.234 597Z" fill="black"></path><path d="M847.003 597.16C845.275 597.16 843.739 596.787 842.395 596.04C841.072 595.272 840.027 594.216 839.259 592.872C838.512 591.528 838.139 589.992 838.139 588.264C838.139 586.515 838.491 584.979 839.195 583.656C839.92 582.312 840.912 581.256 842.171 580.488C843.429 579.72 844.88 579.336 846.523 579.336C848.144 579.336 849.552 579.709 850.747 580.456C851.963 581.181 852.901 582.195 853.563 583.496C854.224 584.797 854.555 586.28 854.555 587.944C854.555 588.285 854.448 588.563 854.235 588.776C854.021 588.968 853.744 589.064 853.403 589.064H839.803V587.016H853.659L852.283 588.008C852.304 586.771 852.08 585.661 851.611 584.68C851.141 583.699 850.469 582.931 849.595 582.376C848.741 581.821 847.717 581.544 846.523 581.544C845.307 581.544 844.24 581.832 843.323 582.408C842.405 582.984 841.691 583.784 841.179 584.808C840.688 585.811 840.443 586.963 840.443 588.264C840.443 589.565 840.72 590.717 841.275 591.72C841.851 592.723 842.629 593.512 843.611 594.088C844.592 594.664 845.723 594.952 847.003 594.952C847.771 594.952 848.539 594.824 849.307 594.568C850.096 594.291 850.725 593.949 851.195 593.544C851.429 593.352 851.696 593.256 851.995 593.256C852.293 593.235 852.549 593.309 852.763 593.48C853.04 593.736 853.179 594.013 853.179 594.312C853.2 594.611 853.083 594.867 852.827 595.08C852.123 595.677 851.227 596.179 850.139 596.584C849.051 596.968 848.005 597.16 847.003 597.16Z" fill="black"></path><path d="M873.731 597C873.368 597 873.07 596.883 872.835 596.648C872.6 596.413 872.483 596.125 872.483 595.784V587.464C872.483 586.141 872.227 585.053 871.715 584.2C871.224 583.347 870.542 582.707 869.667 582.28C868.814 581.853 867.843 581.64 866.755 581.64C865.71 581.64 864.76 581.843 863.907 582.248C863.075 582.653 862.414 583.208 861.923 583.912C861.432 584.616 861.187 585.416 861.187 586.312H859.427C859.47 584.968 859.832 583.773 860.515 582.728C861.198 581.661 862.104 580.829 863.235 580.232C864.366 579.613 865.624 579.304 867.011 579.304C868.526 579.304 869.88 579.624 871.075 580.264C872.27 580.883 873.208 581.8 873.891 583.016C874.595 584.232 874.947 585.715 874.947 587.464V595.784C874.947 596.125 874.83 596.413 874.595 596.648C874.36 596.883 874.072 597 873.731 597ZM859.971 597C859.587 597 859.278 596.893 859.043 596.68C858.83 596.445 858.723 596.147 858.723 595.784V580.744C858.723 580.36 858.83 580.061 859.043 579.848C859.278 579.613 859.587 579.496 859.971 579.496C860.334 579.496 860.622 579.613 860.835 579.848C861.07 580.061 861.187 580.36 861.187 580.744V595.784C861.187 596.147 861.07 596.445 860.835 596.68C860.622 596.893 860.334 597 859.971 597Z" fill="black"></path><path d="M887.227 597C886.097 597 885.083 596.733 884.187 596.2C883.313 595.667 882.619 594.941 882.107 594.024C881.595 593.085 881.339 592.019 881.339 590.824V575.176C881.339 574.813 881.446 574.515 881.659 574.28C881.894 574.045 882.193 573.928 882.555 573.928C882.918 573.928 883.217 574.045 883.451 574.28C883.686 574.515 883.803 574.813 883.803 575.176V590.824C883.803 591.912 884.123 592.808 884.763 593.512C885.403 594.195 886.225 594.536 887.227 594.536H888.091C888.433 594.536 888.71 594.653 888.923 594.888C889.137 595.123 889.243 595.421 889.243 595.784C889.243 596.147 889.115 596.445 888.859 596.68C888.603 596.893 888.283 597 887.899 597H887.227ZM879.259 582.28C878.939 582.28 878.673 582.184 878.459 581.992C878.246 581.779 878.139 581.523 878.139 581.224C878.139 580.904 878.246 580.648 878.459 580.456C878.673 580.243 878.939 580.136 879.259 580.136H887.419C887.739 580.136 888.006 580.243 888.219 580.456C888.433 580.648 888.539 580.904 888.539 581.224C888.539 581.523 888.433 581.779 888.219 581.992C888.006 582.184 887.739 582.28 887.419 582.28H879.259Z" fill="black"></path><path d="M900.966 597.16C899.324 597.16 897.852 596.776 896.55 596.008C895.249 595.219 894.214 594.152 893.446 592.808C892.7 591.464 892.326 589.949 892.326 588.264C892.326 586.557 892.71 585.032 893.478 583.688C894.268 582.344 895.334 581.288 896.678 580.52C898.022 579.731 899.537 579.336 901.222 579.336C902.908 579.336 904.412 579.731 905.734 580.52C907.078 581.288 908.134 582.344 908.902 583.688C909.692 585.032 910.097 586.557 910.118 588.264L909.126 589.032C909.126 590.568 908.764 591.955 908.038 593.192C907.334 594.408 906.364 595.379 905.126 596.104C903.91 596.808 902.524 597.16 900.966 597.16ZM901.222 594.92C902.46 594.92 903.558 594.632 904.518 594.056C905.5 593.48 906.268 592.691 906.822 591.688C907.398 590.664 907.686 589.523 907.686 588.264C907.686 586.984 907.398 585.843 906.822 584.84C906.268 583.837 905.5 583.048 904.518 582.472C903.558 581.875 902.46 581.576 901.222 581.576C900.006 581.576 898.908 581.875 897.926 582.472C896.945 583.048 896.166 583.837 895.59 584.84C895.014 585.843 894.726 586.984 894.726 588.264C894.726 589.523 895.014 590.664 895.59 591.688C896.166 592.691 896.945 593.48 897.926 594.056C898.908 594.632 900.006 594.92 901.222 594.92ZM908.87 597C908.508 597 908.209 596.893 907.974 596.68C907.74 596.445 907.622 596.147 907.622 595.784V590.312L908.23 587.784L910.118 588.264V595.784C910.118 596.147 910.001 596.445 909.766 596.68C909.532 596.893 909.233 597 908.87 597Z" fill="black"></path><path d="M918.686 597C917.833 597 917.065 596.765 916.382 596.296C915.721 595.827 915.198 595.176 914.814 594.344C914.452 593.512 914.27 592.552 914.27 591.464V573.224C914.27 572.861 914.377 572.573 914.59 572.36C914.825 572.125 915.124 572.008 915.486 572.008C915.849 572.008 916.137 572.125 916.35 572.36C916.585 572.573 916.702 572.861 916.702 573.224V591.464C916.702 592.381 916.884 593.128 917.246 593.704C917.63 594.28 918.11 594.568 918.686 594.568H919.486C919.806 594.568 920.062 594.685 920.254 594.92C920.446 595.133 920.542 595.421 920.542 595.784C920.542 596.147 920.404 596.445 920.126 596.68C919.87 596.893 919.529 597 919.102 597H918.686Z" fill="black"></path><path d="M934.885 597C934.522 597 934.223 596.883 933.989 596.648C933.754 596.413 933.637 596.115 933.637 595.752V573.256C933.637 572.893 933.754 572.595 933.989 572.36C934.223 572.125 934.522 572.008 934.885 572.008H949.893C950.234 572.008 950.522 572.125 950.757 572.36C951.013 572.573 951.141 572.861 951.141 573.224C951.141 573.544 951.013 573.821 950.757 574.056C950.522 574.291 950.234 574.408 949.893 574.408H936.133V583.24H946.149C946.511 583.24 946.81 583.357 947.045 583.592C947.279 583.827 947.397 584.115 947.397 584.456C947.397 584.797 947.279 585.085 947.045 585.32C946.81 585.555 946.511 585.672 946.149 585.672H936.133V594.6H949.893C950.234 594.6 950.522 594.717 950.757 594.952C951.013 595.187 951.141 595.464 951.141 595.784C951.141 596.147 951.013 596.445 950.757 596.68C950.522 596.893 950.234 597 949.893 597H934.885Z" fill="black"></path><path d="M962.321 597C961.19 597 960.177 596.733 959.281 596.2C958.406 595.667 957.713 594.941 957.201 594.024C956.689 593.085 956.433 592.019 956.433 590.824V575.176C956.433 574.813 956.54 574.515 956.753 574.28C956.988 574.045 957.286 573.928 957.649 573.928C958.012 573.928 958.31 574.045 958.545 574.28C958.78 574.515 958.897 574.813 958.897 575.176V590.824C958.897 591.912 959.217 592.808 959.857 593.512C960.497 594.195 961.318 594.536 962.321 594.536H963.185C963.526 594.536 963.804 594.653 964.017 594.888C964.23 595.123 964.337 595.421 964.337 595.784C964.337 596.147 964.209 596.445 963.953 596.68C963.697 596.893 963.377 597 962.993 597H962.321ZM954.353 582.28C954.033 582.28 953.766 582.184 953.553 581.992C953.34 581.779 953.233 581.523 953.233 581.224C953.233 580.904 953.34 580.648 953.553 580.456C953.766 580.243 954.033 580.136 954.353 580.136H962.513C962.833 580.136 963.1 580.243 963.313 580.456C963.526 580.648 963.633 580.904 963.633 581.224C963.633 581.523 963.526 581.779 963.313 581.992C963.1 582.184 962.833 582.28 962.513 582.28H954.353Z" fill="black"></path><path d="M969.596 589.864C969.212 589.864 968.903 589.747 968.668 589.512C968.455 589.277 968.348 588.979 968.348 588.616V573.256C968.348 572.872 968.455 572.573 968.668 572.36C968.903 572.125 969.212 572.008 969.596 572.008C969.959 572.008 970.247 572.125 970.46 572.36C970.695 572.573 970.812 572.872 970.812 573.256V588.616C970.812 588.979 970.695 589.277 970.46 589.512C970.247 589.747 969.959 589.864 969.596 589.864ZM983.356 597C982.993 597 982.695 596.883 982.46 596.648C982.225 596.413 982.108 596.125 982.108 595.784V587.464C982.108 586.141 981.852 585.053 981.34 584.2C980.849 583.347 980.167 582.707 979.292 582.28C978.439 581.853 977.468 581.64 976.38 581.64C975.335 581.64 974.385 581.843 973.532 582.248C972.7 582.653 972.039 583.208 971.548 583.912C971.057 584.616 970.812 585.416 970.812 586.312H969.052C969.095 584.968 969.457 583.773 970.14 582.728C970.823 581.661 971.729 580.829 972.86 580.232C973.991 579.613 975.249 579.304 976.636 579.304C978.151 579.304 979.505 579.624 980.7 580.264C981.895 580.883 982.833 581.8 983.516 583.016C984.22 584.232 984.572 585.715 984.572 587.464V595.784C984.572 596.125 984.455 596.413 984.22 596.648C983.985 596.883 983.697 597 983.356 597ZM969.596 597C969.212 597 968.903 596.893 968.668 596.68C968.455 596.445 968.348 596.147 968.348 595.784V580.744C968.348 580.36 968.455 580.061 968.668 579.848C968.903 579.613 969.212 579.496 969.596 579.496C969.959 579.496 970.247 579.613 970.46 579.848C970.695 580.061 970.812 580.36 970.812 580.744V595.784C970.812 596.147 970.695 596.445 970.46 596.68C970.247 596.893 969.959 597 969.596 597Z" fill="black"></path><path d="M991.764 597C991.38 597 991.071 596.893 990.836 596.68C990.623 596.445 990.516 596.136 990.516 595.752V580.744C990.516 580.36 990.623 580.061 990.836 579.848C991.071 579.613 991.38 579.496 991.764 579.496C992.127 579.496 992.415 579.613 992.628 579.848C992.863 580.061 992.98 580.36 992.98 580.744V595.752C992.98 596.136 992.863 596.445 992.628 596.68C992.415 596.893 992.127 597 991.764 597ZM991.732 576.168C991.263 576.168 990.858 575.997 990.516 575.656C990.175 575.315 990.004 574.899 990.004 574.408C990.004 573.875 990.175 573.459 990.516 573.16C990.879 572.84 991.295 572.68 991.764 572.68C992.212 572.68 992.607 572.84 992.948 573.16C993.311 573.459 993.492 573.875 993.492 574.408C993.492 574.899 993.322 575.315 992.98 575.656C992.639 575.997 992.223 576.168 991.732 576.168Z" fill="black"></path><path d="M1007.06 597.16C1005.38 597.16 1003.87 596.776 1002.55 596.008C1001.25 595.219 1000.21 594.152 999.446 592.808C998.7 591.464 998.326 589.949 998.326 588.264C998.326 586.557 998.689 585.032 999.414 583.688C1000.14 582.344 1001.13 581.288 1002.39 580.52C1003.65 579.731 1005.1 579.336 1006.74 579.336C1008.04 579.336 1009.24 579.592 1010.33 580.104C1011.44 580.616 1012.41 581.384 1013.24 582.408C1013.47 582.664 1013.56 582.941 1013.49 583.24C1013.43 583.517 1013.25 583.763 1012.95 583.976C1012.72 584.147 1012.45 584.211 1012.15 584.168C1011.87 584.104 1011.63 583.944 1011.41 583.688C1010.18 582.28 1008.62 581.576 1006.74 581.576C1005.55 581.576 1004.49 581.864 1003.57 582.44C1002.68 583.016 1001.97 583.805 1001.46 584.808C1000.97 585.811 1000.73 586.963 1000.73 588.264C1000.73 589.544 1000.99 590.685 1001.53 591.688C1002.06 592.691 1002.81 593.48 1003.77 594.056C1004.73 594.632 1005.82 594.92 1007.06 594.92C1007.89 594.92 1008.65 594.813 1009.33 594.6C1010.04 594.365 1010.66 594.013 1011.19 593.544C1011.45 593.331 1011.71 593.213 1011.99 593.192C1012.27 593.171 1012.52 593.256 1012.76 593.448C1013.01 593.683 1013.15 593.949 1013.17 594.248C1013.22 594.547 1013.12 594.803 1012.89 595.016C1011.33 596.445 1009.39 597.16 1007.06 597.16Z" fill="black"></path><path d="M1024.4 597.16C1023.14 597.16 1021.89 596.947 1020.65 596.52C1019.42 596.093 1018.41 595.453 1017.65 594.6C1017.41 594.344 1017.31 594.056 1017.36 593.736C1017.4 593.416 1017.56 593.139 1017.84 592.904C1018.14 592.691 1018.45 592.605 1018.77 592.648C1019.09 592.691 1019.35 592.829 1019.57 593.064C1020.08 593.661 1020.75 594.12 1021.58 594.44C1022.43 594.76 1023.37 594.92 1024.4 594.92C1025.98 594.92 1027.12 594.653 1027.82 594.12C1028.53 593.565 1028.89 592.904 1028.91 592.136C1028.91 591.368 1028.55 590.739 1027.82 590.248C1027.1 589.736 1025.9 589.341 1024.24 589.064C1022.08 588.723 1020.5 588.125 1019.5 587.272C1018.5 586.419 1018 585.405 1018 584.232C1018 583.144 1018.29 582.237 1018.86 581.512C1019.44 580.787 1020.21 580.243 1021.17 579.88C1022.13 579.517 1023.18 579.336 1024.33 579.336C1025.76 579.336 1026.99 579.581 1028.01 580.072C1029.06 580.563 1029.9 581.224 1030.54 582.056C1030.75 582.333 1030.84 582.621 1030.8 582.92C1030.75 583.219 1030.58 583.464 1030.29 583.656C1030.03 583.805 1029.73 583.859 1029.39 583.816C1029.07 583.752 1028.79 583.592 1028.56 583.336C1028.02 582.717 1027.41 582.269 1026.7 581.992C1026 581.693 1025.19 581.544 1024.27 581.544C1023.1 581.544 1022.16 581.789 1021.45 582.28C1020.75 582.749 1020.4 583.347 1020.4 584.072C1020.4 584.563 1020.53 584.989 1020.78 585.352C1021.06 585.715 1021.52 586.035 1022.16 586.312C1022.82 586.589 1023.74 586.824 1024.91 587.016C1026.51 587.272 1027.77 587.656 1028.69 588.168C1029.62 588.659 1030.29 589.245 1030.67 589.928C1031.07 590.589 1031.28 591.315 1031.28 592.104C1031.28 593.107 1030.98 593.992 1030.38 594.76C1029.81 595.507 1028.99 596.093 1027.95 596.52C1026.93 596.947 1025.74 597.16 1024.4 597.16Z" fill="black"></path><path d="M1044.78 582.152C1044.53 582.152 1044.31 582.077 1044.14 581.928C1043.97 581.757 1043.89 581.555 1043.89 581.32V572.648C1043.89 572.371 1044 572.157 1044.24 572.008C1044.5 571.859 1044.76 571.805 1045.04 571.848C1045.34 571.869 1045.56 572.019 1045.71 572.296L1050.19 580.072H1049.26L1053.65 572.296C1053.78 572.04 1053.99 571.901 1054.29 571.88C1054.59 571.837 1054.85 571.891 1055.09 572.04C1055.34 572.168 1055.47 572.371 1055.47 572.648V581.32C1055.47 581.555 1055.38 581.757 1055.18 581.928C1055.01 582.077 1054.81 582.152 1054.58 582.152C1054.32 582.152 1054.11 582.077 1053.94 581.928C1053.76 581.757 1053.68 581.555 1053.68 581.32V574.248L1054.29 574.216L1050.45 581.032C1050.28 581.352 1050.01 581.501 1049.65 581.48C1049.28 581.459 1049.02 581.288 1048.85 580.968L1045.1 574.344L1045.71 574.28V581.32C1045.71 581.555 1045.62 581.757 1045.42 581.928C1045.25 582.077 1045.04 582.152 1044.78 582.152ZM1037.74 582.152C1037.49 582.152 1037.27 582.077 1037.1 581.928C1036.93 581.757 1036.85 581.555 1036.85 581.32V571.848H1038.64V581.32C1038.64 581.555 1038.55 581.757 1038.38 581.928C1038.21 582.077 1038 582.152 1037.74 582.152ZM1033.87 573.384C1033.64 573.384 1033.43 573.309 1033.26 573.16C1033.11 573.011 1033.04 572.829 1033.04 572.616C1033.04 572.403 1033.11 572.221 1033.26 572.072C1033.43 571.923 1033.64 571.848 1033.87 571.848H1041.58C1041.84 571.848 1042.04 571.923 1042.19 572.072C1042.36 572.221 1042.45 572.403 1042.45 572.616C1042.45 572.829 1042.36 573.011 1042.19 573.16C1042.04 573.309 1041.84 573.384 1041.58 573.384H1033.87Z" fill="black"></path><path d="M704.052 415.226C702.52 413.634 699.988 413.586 698.396 415.118L672.462 440.086C670.87 441.618 670.822 444.15 672.354 445.742C673.886 447.333 676.418 447.382 678.01 445.849L701.063 423.656L723.257 446.709C724.789 448.3 727.321 448.349 728.912 446.816C730.504 445.284 730.552 442.752 729.02 441.161L704.052 415.226ZM1103 560C1105.21 560 1107 558.209 1107 556C1107 553.791 1105.21 552 1103 552V560ZM697.171 417.924C696.254 466.202 698.771 501.654 710.267 525.049C716.102 536.924 724.279 545.775 735.445 551.592C746.53 557.367 760.269 560 777.022 560V552C761.041 552 748.702 549.478 739.141 544.497C729.66 539.557 722.621 532.051 717.447 521.521C706.924 500.105 704.249 466.557 705.17 418.076L697.171 417.924ZM777.022 560H1103V552H777.022V560Z" fill="#7B1FA2"></path><path d="M762.56 539C761.974 539 761.48 538.8 761.08 538.4C760.68 538 760.48 537.507 760.48 536.92V509.84C760.48 509.227 760.68 508.733 761.08 508.36C761.48 507.96 761.974 507.76 762.56 507.76H780.64C781.254 507.76 781.747 507.947 782.12 508.32C782.494 508.667 782.68 509.133 782.68 509.72C782.68 510.28 782.494 510.733 782.12 511.08C781.747 511.427 781.254 511.6 780.64 511.6H764.64V521.32H776.12C776.734 521.32 777.227 521.507 777.6 521.88C777.974 522.227 778.16 522.68 778.16 523.24C778.16 523.8 777.974 524.267 777.6 524.64C777.227 524.987 776.734 525.16 776.12 525.16H764.64V536.92C764.64 537.507 764.44 538 764.04 538.4C763.64 538.8 763.147 539 762.56 539Z" fill="black"></path><path d="M790.04 539C789.454 539 788.96 538.813 788.56 538.44C788.187 538.04 788 537.547 788 536.96V519.16C788 518.547 788.187 518.053 788.56 517.68C788.96 517.307 789.454 517.12 790.04 517.12C790.654 517.12 791.147 517.307 791.52 517.68C791.894 518.053 792.08 518.547 792.08 519.16V536.96C792.08 537.547 791.894 538.04 791.52 538.44C791.147 538.813 790.654 539 790.04 539ZM790.04 513.56C789.32 513.56 788.694 513.307 788.16 512.8C787.654 512.267 787.4 511.64 787.4 510.92C787.4 510.2 787.654 509.587 788.16 509.08C788.694 508.547 789.32 508.28 790.04 508.28C790.76 508.28 791.374 508.547 791.88 509.08C792.414 509.587 792.68 510.2 792.68 510.92C792.68 511.64 792.414 512.267 791.88 512.8C791.374 513.307 790.76 513.56 790.04 513.56Z" fill="black"></path><path d="M808.791 539.16C806.791 539.16 805.017 538.693 803.471 537.76C801.951 536.8 800.751 535.493 799.871 533.84C798.991 532.16 798.551 530.24 798.551 528.08C798.551 525.893 799.017 523.973 799.951 522.32C800.911 520.64 802.217 519.333 803.871 518.4C805.524 517.44 807.431 516.96 809.591 516.96C811.724 516.96 813.617 517.44 815.271 518.4C816.924 519.333 818.217 520.64 819.151 522.32C820.111 523.973 820.591 525.893 820.591 528.08H818.231C818.231 530.24 817.817 532.16 816.991 533.84C816.191 535.493 815.084 536.8 813.671 537.76C812.257 538.693 810.631 539.16 808.791 539.16ZM809.511 548.08C807.617 548.08 805.844 547.707 804.191 546.96C802.537 546.213 801.137 545.12 799.991 543.68C799.644 543.227 799.511 542.76 799.591 542.28C799.697 541.8 799.964 541.413 800.391 541.12C800.871 540.8 801.364 540.693 801.871 540.8C802.404 540.907 802.831 541.173 803.151 541.6C803.871 542.507 804.777 543.213 805.871 543.72C806.964 544.227 808.204 544.48 809.591 544.48C810.871 544.48 812.044 544.173 813.111 543.56C814.204 542.947 815.071 542.04 815.711 540.84C816.351 539.64 816.671 538.173 816.671 536.44V530.76L817.991 527.24L820.591 528.08V536.72C820.591 538.827 820.124 540.733 819.191 542.44C818.257 544.173 816.951 545.547 815.271 546.56C813.617 547.573 811.697 548.08 809.511 548.08ZM809.591 535.56C810.977 535.56 812.204 535.24 813.271 534.6C814.337 533.96 815.164 533.08 815.751 531.96C816.364 530.84 816.671 529.547 816.671 528.08C816.671 526.613 816.364 525.32 815.751 524.2C815.164 523.053 814.337 522.16 813.271 521.52C812.204 520.88 810.977 520.56 809.591 520.56C808.204 520.56 806.977 520.88 805.911 521.52C804.844 522.16 804.004 523.053 803.391 524.2C802.777 525.32 802.471 526.613 802.471 528.08C802.471 529.547 802.777 530.84 803.391 531.96C804.004 533.08 804.844 533.96 805.911 534.6C806.977 535.24 808.204 535.56 809.591 535.56Z" fill="black"></path><path d="M835.863 539.2C834.023 539.2 832.37 538.813 830.903 538.04C829.463 537.24 828.316 536.08 827.463 534.56C826.636 533.04 826.223 531.173 826.223 528.96V519.12C826.223 518.533 826.41 518.053 826.783 517.68C827.183 517.28 827.676 517.08 828.263 517.08C828.85 517.08 829.33 517.28 829.703 517.68C830.103 518.053 830.303 518.533 830.303 519.12V528.96C830.303 530.453 830.583 531.693 831.143 532.68C831.703 533.64 832.463 534.36 833.423 534.84C834.383 535.293 835.463 535.52 836.663 535.52C837.81 535.52 838.823 535.293 839.703 534.84C840.61 534.387 841.33 533.773 841.863 533C842.396 532.227 842.663 531.36 842.663 530.4H845.183C845.183 532.053 844.77 533.547 843.943 534.88C843.143 536.213 842.036 537.267 840.623 538.04C839.236 538.813 837.65 539.2 835.863 539.2ZM844.703 539C844.116 539 843.623 538.813 843.223 538.44C842.85 538.04 842.663 537.547 842.663 536.96V519.12C842.663 518.507 842.85 518.013 843.223 517.64C843.623 517.267 844.116 517.08 844.703 517.08C845.316 517.08 845.81 517.267 846.183 517.64C846.556 518.013 846.743 518.507 846.743 519.12V536.96C846.743 537.547 846.556 538.04 846.183 538.44C845.81 538.813 845.316 539 844.703 539Z" fill="black"></path><path d="M855.889 525.32C855.889 523.72 856.275 522.293 857.049 521.04C857.849 519.76 858.915 518.747 860.249 518C861.582 517.253 863.049 516.88 864.649 516.88C866.249 516.88 867.435 517.147 868.209 517.68C869.009 518.187 869.315 518.8 869.129 519.52C869.049 519.893 868.889 520.187 868.649 520.4C868.435 520.587 868.182 520.707 867.889 520.76C867.595 520.813 867.275 520.8 866.929 520.72C865.222 520.373 863.689 520.347 862.329 520.64C860.969 520.933 859.889 521.48 859.089 522.28C858.315 523.08 857.929 524.093 857.929 525.32H855.889ZM855.929 539C855.289 539 854.795 538.84 854.449 538.52C854.102 538.173 853.929 537.667 853.929 537V519.12C853.929 518.48 854.102 517.987 854.449 517.64C854.795 517.293 855.289 517.12 855.929 517.12C856.595 517.12 857.089 517.293 857.409 517.64C857.755 517.96 857.929 518.453 857.929 519.12V537C857.929 537.64 857.755 538.133 857.409 538.48C857.089 538.827 856.595 539 855.929 539Z" fill="black"></path><path d="M880.9 539.16C878.953 539.16 877.207 538.68 875.66 537.72C874.113 536.733 872.887 535.413 871.98 533.76C871.1 532.08 870.66 530.187 870.66 528.08C870.66 525.973 871.14 524.08 872.1 522.4C873.087 520.72 874.407 519.4 876.06 518.44C877.74 517.453 879.62 516.96 881.7 516.96C883.78 516.96 885.647 517.453 887.3 518.44C888.953 519.4 890.26 520.72 891.22 522.4C892.207 524.08 892.7 525.973 892.7 528.08H891.14C891.14 530.187 890.687 532.08 889.78 533.76C888.9 535.413 887.687 536.733 886.14 537.72C884.593 538.68 882.847 539.16 880.9 539.16ZM881.7 535.56C883.06 535.56 884.273 535.24 885.34 534.6C886.407 533.933 887.247 533.04 887.86 531.92C888.473 530.773 888.78 529.493 888.78 528.08C888.78 526.64 888.473 525.36 887.86 524.24C887.247 523.093 886.407 522.2 885.34 521.56C884.273 520.893 883.06 520.56 881.7 520.56C880.367 520.56 879.153 520.893 878.06 521.56C876.993 522.2 876.14 523.093 875.5 524.24C874.887 525.36 874.58 526.64 874.58 528.08C874.58 529.493 874.887 530.773 875.5 531.92C876.14 533.04 876.993 533.933 878.06 534.6C879.153 535.24 880.367 535.56 881.7 535.56ZM890.66 539.04C890.073 539.04 889.58 538.853 889.18 538.48C888.807 538.08 888.62 537.587 888.62 537V530.88L889.38 526.64L892.7 528.08V537C892.7 537.587 892.5 538.08 892.1 538.48C891.727 538.853 891.247 539.04 890.66 539.04Z" fill="black"></path><path d="M906.732 539C905.399 539 904.199 538.667 903.132 538C902.066 537.307 901.226 536.373 900.612 535.2C899.999 534.027 899.692 532.707 899.692 531.24V512.16C899.692 511.573 899.879 511.093 900.252 510.72C900.626 510.347 901.106 510.16 901.692 510.16C902.279 510.16 902.759 510.347 903.132 510.72C903.506 511.093 903.692 511.573 903.692 512.16V531.24C903.692 532.307 903.986 533.2 904.572 533.92C905.159 534.64 905.879 535 906.732 535H908.092C908.572 535 908.972 535.187 909.292 535.56C909.639 535.933 909.812 536.413 909.812 537C909.812 537.587 909.586 538.067 909.132 538.44C908.706 538.813 908.146 539 907.452 539H906.732ZM897.852 521.36C897.292 521.36 896.839 521.2 896.492 520.88C896.146 520.56 895.972 520.16 895.972 519.68C895.972 519.147 896.146 518.72 896.492 518.4C896.839 518.08 897.292 517.92 897.852 517.92H907.092C907.652 517.92 908.106 518.08 908.452 518.4C908.799 518.72 908.972 519.147 908.972 519.68C908.972 520.16 908.799 520.56 908.452 520.88C908.106 521.2 907.652 521.36 907.092 521.36H897.852Z" fill="black"></path><path d="M917.267 539C916.68 539 916.187 538.813 915.787 538.44C915.414 538.04 915.227 537.547 915.227 536.96V519.16C915.227 518.547 915.414 518.053 915.787 517.68C916.187 517.307 916.68 517.12 917.267 517.12C917.88 517.12 918.374 517.307 918.747 517.68C919.12 518.053 919.307 518.547 919.307 519.16V536.96C919.307 537.547 919.12 538.04 918.747 538.44C918.374 538.813 917.88 539 917.267 539ZM917.267 513.56C916.547 513.56 915.92 513.307 915.387 512.8C914.88 512.267 914.627 511.64 914.627 510.92C914.627 510.2 914.88 509.587 915.387 509.08C915.92 508.547 916.547 508.28 917.267 508.28C917.987 508.28 918.6 508.547 919.107 509.08C919.64 509.587 919.907 510.2 919.907 510.92C919.907 511.64 919.64 512.267 919.107 512.8C918.6 513.307 917.987 513.56 917.267 513.56Z" fill="black"></path><path d="M934.297 538.96C933.471 538.96 932.831 538.52 932.377 537.64L923.897 519.76C923.684 519.307 923.657 518.867 923.817 518.44C924.004 517.987 924.351 517.64 924.857 517.4C925.311 517.16 925.764 517.12 926.217 517.28C926.697 517.44 927.057 517.747 927.297 518.2L935.217 535.28H933.297L941.137 518.2C941.377 517.747 941.737 517.44 942.217 517.28C942.724 517.12 943.231 517.16 943.737 517.4C944.217 517.613 944.537 517.947 944.697 518.4C944.857 518.853 944.831 519.307 944.617 519.76L936.137 537.64C935.737 538.52 935.124 538.96 934.297 538.96Z" fill="black"></path><path d="M958.31 539.16C956.097 539.16 954.123 538.693 952.39 537.76C950.683 536.8 949.337 535.493 948.35 533.84C947.39 532.16 946.91 530.24 946.91 528.08C946.91 525.893 947.363 523.973 948.27 522.32C949.203 520.64 950.483 519.333 952.11 518.4C953.737 517.44 955.603 516.96 957.71 516.96C959.79 516.96 961.577 517.427 963.07 518.36C964.563 519.267 965.697 520.533 966.47 522.16C967.27 523.76 967.67 525.613 967.67 527.72C967.67 528.227 967.497 528.653 967.15 529C966.803 529.32 966.363 529.48 965.83 529.48H949.71V526.28H965.71L964.07 527.4C964.043 526.067 963.777 524.88 963.27 523.84C962.763 522.773 962.043 521.933 961.11 521.32C960.177 520.707 959.043 520.4 957.71 520.4C956.19 520.4 954.883 520.733 953.79 521.4C952.723 522.067 951.91 522.987 951.35 524.16C950.79 525.307 950.51 526.613 950.51 528.08C950.51 529.547 950.843 530.853 951.51 532C952.177 533.147 953.097 534.053 954.27 534.72C955.443 535.387 956.79 535.72 958.31 535.72C959.137 535.72 959.977 535.573 960.83 535.28C961.71 534.96 962.417 534.6 962.95 534.2C963.35 533.907 963.777 533.76 964.23 533.76C964.71 533.733 965.123 533.867 965.47 534.16C965.923 534.56 966.163 535 966.19 535.48C966.217 535.96 966.003 536.373 965.55 536.72C964.643 537.44 963.51 538.027 962.15 538.48C960.817 538.933 959.537 539.16 958.31 539.16Z" fill="black"></path><path d="M989.793 539C988.619 539 987.579 538.68 986.673 538.04C985.766 537.4 985.059 536.533 984.553 535.44C984.046 534.32 983.793 533.04 983.793 531.6V509.76C983.793 509.173 983.979 508.693 984.353 508.32C984.726 507.947 985.206 507.76 985.793 507.76C986.379 507.76 986.859 507.947 987.233 508.32C987.606 508.693 987.793 509.173 987.793 509.76V531.6C987.793 532.587 987.979 533.4 988.353 534.04C988.726 534.68 989.206 535 989.793 535H990.793C991.326 535 991.753 535.187 992.073 535.56C992.419 535.933 992.593 536.413 992.593 537C992.593 537.587 992.339 538.067 991.833 538.44C991.326 538.813 990.673 539 989.873 539H989.793Z" fill="black"></path><path d="M1004.49 539.16C1002.55 539.16 1000.8 538.68 999.254 537.72C997.707 536.733 996.481 535.413 995.574 533.76C994.694 532.08 994.254 530.187 994.254 528.08C994.254 525.973 994.734 524.08 995.694 522.4C996.681 520.72 998.001 519.4 999.654 518.44C1001.33 517.453 1003.21 516.96 1005.29 516.96C1007.37 516.96 1009.24 517.453 1010.89 518.44C1012.55 519.4 1013.85 520.72 1014.81 522.4C1015.8 524.08 1016.29 525.973 1016.29 528.08H1014.73C1014.73 530.187 1014.28 532.08 1013.37 533.76C1012.49 535.413 1011.28 536.733 1009.73 537.72C1008.19 538.68 1006.44 539.16 1004.49 539.16ZM1005.29 535.56C1006.65 535.56 1007.87 535.24 1008.93 534.6C1010 533.933 1010.84 533.04 1011.45 531.92C1012.07 530.773 1012.37 529.493 1012.37 528.08C1012.37 526.64 1012.07 525.36 1011.45 524.24C1010.84 523.093 1010 522.2 1008.93 521.56C1007.87 520.893 1006.65 520.56 1005.29 520.56C1003.96 520.56 1002.75 520.893 1001.65 521.56C1000.59 522.2 999.734 523.093 999.094 524.24C998.481 525.36 998.174 526.64 998.174 528.08C998.174 529.493 998.481 530.773 999.094 531.92C999.734 533.04 1000.59 533.933 1001.65 534.6C1002.75 535.24 1003.96 535.56 1005.29 535.56ZM1014.25 539.04C1013.67 539.04 1013.17 538.853 1012.77 538.48C1012.4 538.08 1012.21 537.587 1012.21 537V530.88L1012.97 526.64L1016.29 528.08V537C1016.29 537.587 1016.09 538.08 1015.69 538.48C1015.32 538.853 1014.84 539.04 1014.25 539.04Z" fill="black"></path><path d="M1026.29 548.6C1026.02 548.6 1025.7 548.52 1025.33 548.36C1024.15 547.827 1023.83 546.987 1024.37 545.84L1036.57 518.28C1037.1 517.16 1037.94 516.84 1039.09 517.32C1040.29 517.827 1040.62 518.667 1040.09 519.84L1027.85 547.36C1027.53 548.187 1027.01 548.6 1026.29 548.6ZM1031.01 538.12C1030.5 538.333 1030.02 538.36 1029.57 538.2C1029.14 538.013 1028.79 537.667 1028.53 537.16L1019.37 519.76C1019.1 519.253 1019.06 518.773 1019.25 518.32C1019.46 517.84 1019.82 517.493 1020.33 517.28C1020.83 517.067 1021.31 517.053 1021.77 517.24C1022.22 517.4 1022.57 517.733 1022.81 518.24L1031.57 535.64C1031.83 536.147 1031.93 536.64 1031.85 537.12C1031.79 537.573 1031.51 537.907 1031.01 538.12Z" fill="black"></path><path d="M1053.43 539.16C1051.21 539.16 1049.24 538.693 1047.51 537.76C1045.8 536.8 1044.45 535.493 1043.47 533.84C1042.51 532.16 1042.03 530.24 1042.03 528.08C1042.03 525.893 1042.48 523.973 1043.39 522.32C1044.32 520.64 1045.6 519.333 1047.23 518.4C1048.85 517.44 1050.72 516.96 1052.83 516.96C1054.91 516.96 1056.69 517.427 1058.19 518.36C1059.68 519.267 1060.81 520.533 1061.59 522.16C1062.39 523.76 1062.79 525.613 1062.79 527.72C1062.79 528.227 1062.61 528.653 1062.27 529C1061.92 529.32 1061.48 529.48 1060.95 529.48H1044.83V526.28H1060.83L1059.19 527.4C1059.16 526.067 1058.89 524.88 1058.39 523.84C1057.88 522.773 1057.16 521.933 1056.23 521.32C1055.29 520.707 1054.16 520.4 1052.83 520.4C1051.31 520.4 1050 520.733 1048.91 521.4C1047.84 522.067 1047.03 522.987 1046.47 524.16C1045.91 525.307 1045.63 526.613 1045.63 528.08C1045.63 529.547 1045.96 530.853 1046.63 532C1047.29 533.147 1048.21 534.053 1049.39 534.72C1050.56 535.387 1051.91 535.72 1053.43 535.72C1054.25 535.72 1055.09 535.573 1055.95 535.28C1056.83 534.96 1057.53 534.6 1058.07 534.2C1058.47 533.907 1058.89 533.76 1059.35 533.76C1059.83 533.733 1060.24 533.867 1060.59 534.16C1061.04 534.56 1061.28 535 1061.31 535.48C1061.33 535.96 1061.12 536.373 1060.67 536.72C1059.76 537.44 1058.63 538.027 1057.27 538.48C1055.93 538.933 1054.65 539.16 1053.43 539.16Z" fill="black"></path><path d="M1069.95 525.32C1069.95 523.72 1070.34 522.293 1071.11 521.04C1071.91 519.76 1072.98 518.747 1074.31 518C1075.64 517.253 1077.11 516.88 1078.71 516.88C1080.31 516.88 1081.5 517.147 1082.27 517.68C1083.07 518.187 1083.38 518.8 1083.19 519.52C1083.11 519.893 1082.95 520.187 1082.71 520.4C1082.5 520.587 1082.24 520.707 1081.95 520.76C1081.66 520.813 1081.34 520.8 1080.99 520.72C1079.28 520.373 1077.75 520.347 1076.39 520.64C1075.03 520.933 1073.95 521.48 1073.15 522.28C1072.38 523.08 1071.99 524.093 1071.99 525.32H1069.95ZM1069.99 539C1069.35 539 1068.86 538.84 1068.51 538.52C1068.16 538.173 1067.99 537.667 1067.99 537V519.12C1067.99 518.48 1068.16 517.987 1068.51 517.64C1068.86 517.293 1069.35 517.12 1069.99 517.12C1070.66 517.12 1071.15 517.293 1071.47 517.64C1071.82 517.96 1071.99 518.453 1071.99 519.12V537C1071.99 537.64 1071.82 538.133 1071.47 538.48C1071.15 538.827 1070.66 539 1069.99 539Z" fill="black"></path><path d="M702.464 336C702.123 336 701.824 335.883 701.568 335.648C701.334 335.392 701.216 335.093 701.216 334.752V311.008H703.712V334.752C703.712 335.093 703.595 335.392 703.36 335.648C703.126 335.883 702.827 336 702.464 336ZM693.632 313.28C693.291 313.28 693.014 313.173 692.8 312.96C692.587 312.747 692.48 312.48 692.48 312.16C692.48 311.819 692.587 311.541 692.8 311.328C693.014 311.115 693.291 311.008 693.632 311.008H711.328C711.67 311.008 711.947 311.115 712.16 311.328C712.374 311.541 712.48 311.819 712.48 312.16C712.48 312.48 712.374 312.747 712.16 312.96C711.947 313.173 711.67 313.28 711.328 313.28H693.632Z" fill="black"></path><path d="M718.973 336.16C717.245 336.16 715.709 335.787 714.365 335.04C713.042 334.272 711.997 333.216 711.229 331.872C710.482 330.528 710.109 328.992 710.109 327.264C710.109 325.515 710.461 323.979 711.165 322.656C711.89 321.312 712.882 320.256 714.141 319.488C715.399 318.72 716.85 318.336 718.493 318.336C720.114 318.336 721.522 318.709 722.717 319.456C723.933 320.181 724.871 321.195 725.533 322.496C726.194 323.797 726.525 325.28 726.525 326.944C726.525 327.285 726.418 327.563 726.205 327.776C725.991 327.968 725.714 328.064 725.373 328.064H711.773V326.016H725.629L724.253 327.008C724.274 325.771 724.05 324.661 723.581 323.68C723.111 322.699 722.439 321.931 721.565 321.376C720.711 320.821 719.687 320.544 718.493 320.544C717.277 320.544 716.21 320.832 715.293 321.408C714.375 321.984 713.661 322.784 713.149 323.808C712.658 324.811 712.413 325.963 712.413 327.264C712.413 328.565 712.69 329.717 713.245 330.72C713.821 331.723 714.599 332.512 715.581 333.088C716.562 333.664 717.693 333.952 718.973 333.952C719.741 333.952 720.509 333.824 721.277 333.568C722.066 333.291 722.695 332.949 723.165 332.544C723.399 332.352 723.666 332.256 723.965 332.256C724.263 332.235 724.519 332.309 724.733 332.48C725.01 332.736 725.149 333.013 725.149 333.312C725.17 333.611 725.053 333.867 724.797 334.08C724.093 334.677 723.197 335.179 722.109 335.584C721.021 335.968 719.975 336.16 718.973 336.16Z" fill="black"></path><path d="M737.541 336C736.41 336 735.397 335.733 734.501 335.2C733.626 334.667 732.933 333.941 732.421 333.024C731.909 332.085 731.653 331.019 731.653 329.824V314.176C731.653 313.813 731.76 313.515 731.973 313.28C732.208 313.045 732.506 312.928 732.869 312.928C733.232 312.928 733.53 313.045 733.765 313.28C734 313.515 734.117 313.813 734.117 314.176V329.824C734.117 330.912 734.437 331.808 735.077 332.512C735.717 333.195 736.538 333.536 737.541 333.536H738.405C738.746 333.536 739.024 333.653 739.237 333.888C739.45 334.123 739.557 334.421 739.557 334.784C739.557 335.147 739.429 335.445 739.173 335.68C738.917 335.893 738.597 336 738.213 336H737.541ZM729.573 321.28C729.253 321.28 728.986 321.184 728.773 320.992C728.56 320.779 728.453 320.523 728.453 320.224C728.453 319.904 728.56 319.648 728.773 319.456C728.986 319.243 729.253 319.136 729.573 319.136H737.733C738.053 319.136 738.32 319.243 738.533 319.456C738.746 319.648 738.853 319.904 738.853 320.224C738.853 320.523 738.746 320.779 738.533 320.992C738.32 321.184 738.053 321.28 737.733 321.28H729.573Z" fill="black"></path><path d="M744.816 328.864C744.432 328.864 744.123 328.747 743.888 328.512C743.675 328.277 743.568 327.979 743.568 327.616V312.256C743.568 311.872 743.675 311.573 743.888 311.36C744.123 311.125 744.432 311.008 744.816 311.008C745.179 311.008 745.467 311.125 745.68 311.36C745.915 311.573 746.032 311.872 746.032 312.256V327.616C746.032 327.979 745.915 328.277 745.68 328.512C745.467 328.747 745.179 328.864 744.816 328.864ZM758.576 336C758.213 336 757.915 335.883 757.68 335.648C757.445 335.413 757.328 335.125 757.328 334.784V326.464C757.328 325.141 757.072 324.053 756.56 323.2C756.069 322.347 755.387 321.707 754.512 321.28C753.659 320.853 752.688 320.64 751.6 320.64C750.555 320.64 749.605 320.843 748.752 321.248C747.92 321.653 747.259 322.208 746.768 322.912C746.277 323.616 746.032 324.416 746.032 325.312H744.272C744.315 323.968 744.677 322.773 745.36 321.728C746.043 320.661 746.949 319.829 748.08 319.232C749.211 318.613 750.469 318.304 751.856 318.304C753.371 318.304 754.725 318.624 755.92 319.264C757.115 319.883 758.053 320.8 758.736 322.016C759.44 323.232 759.792 324.715 759.792 326.464V334.784C759.792 335.125 759.675 335.413 759.44 335.648C759.205 335.883 758.917 336 758.576 336ZM744.816 336C744.432 336 744.123 335.893 743.888 335.68C743.675 335.445 743.568 335.147 743.568 334.784V319.744C743.568 319.36 743.675 319.061 743.888 318.848C744.123 318.613 744.432 318.496 744.816 318.496C745.179 318.496 745.467 318.613 745.68 318.848C745.915 319.061 746.032 319.36 746.032 319.744V334.784C746.032 335.147 745.915 335.445 745.68 335.68C745.467 335.893 745.179 336 744.816 336Z" fill="black"></path><path d="M766.984 336C766.6 336 766.291 335.893 766.056 335.68C765.843 335.445 765.736 335.136 765.736 334.752V319.744C765.736 319.36 765.843 319.061 766.056 318.848C766.291 318.613 766.6 318.496 766.984 318.496C767.347 318.496 767.635 318.613 767.848 318.848C768.083 319.061 768.2 319.36 768.2 319.744V334.752C768.2 335.136 768.083 335.445 767.848 335.68C767.635 335.893 767.347 336 766.984 336ZM766.952 315.168C766.483 315.168 766.078 314.997 765.736 314.656C765.395 314.315 765.224 313.899 765.224 313.408C765.224 312.875 765.395 312.459 765.736 312.16C766.099 311.84 766.515 311.68 766.984 311.68C767.432 311.68 767.827 311.84 768.168 312.16C768.531 312.459 768.712 312.875 768.712 313.408C768.712 313.899 768.542 314.315 768.2 314.656C767.859 314.997 767.443 315.168 766.952 315.168Z" fill="black"></path><path d="M786.698 336C786.442 336 786.229 335.957 786.058 335.872C785.909 335.787 785.749 335.637 785.578 335.424L780.042 328.384L779.082 327.552L773.514 320.48C773.28 320.203 773.162 319.915 773.162 319.616C773.184 319.317 773.29 319.061 773.482 318.848C773.674 318.613 773.952 318.496 774.314 318.496C774.677 318.496 774.986 318.624 775.242 318.88L780.618 325.76L781.482 326.464L787.434 334.08C787.712 334.421 787.829 334.741 787.786 335.04C787.744 335.339 787.605 335.573 787.37 335.744C787.157 335.915 786.933 336 786.698 336ZM774.026 336C773.685 336 773.408 335.893 773.194 335.68C773.002 335.467 772.896 335.211 772.874 334.912C772.874 334.613 772.992 334.325 773.226 334.048L779.114 326.688L780.49 328.512L774.89 335.616C774.698 335.872 774.41 336 774.026 336ZM781.514 327.68L779.946 326.08L785.482 319.072C785.632 318.859 785.792 318.709 785.962 318.624C786.154 318.539 786.346 318.496 786.538 318.496C786.901 318.496 787.178 318.613 787.37 318.848C787.562 319.061 787.648 319.328 787.626 319.648C787.626 319.947 787.52 320.235 787.306 320.512L781.514 327.68Z" fill="black"></path><path d="M802.948 336C802.586 336 802.287 335.883 802.052 335.648C801.818 335.413 801.7 335.115 801.7 334.752V312.256C801.7 311.893 801.818 311.595 802.052 311.36C802.287 311.125 802.586 311.008 802.948 311.008H817.956C818.298 311.008 818.586 311.125 818.82 311.36C819.076 311.573 819.204 311.861 819.204 312.224C819.204 312.544 819.076 312.821 818.82 313.056C818.586 313.291 818.298 313.408 817.956 313.408H804.196V322.24H814.212C814.575 322.24 814.874 322.357 815.108 322.592C815.343 322.827 815.46 323.115 815.46 323.456C815.46 323.797 815.343 324.085 815.108 324.32C814.874 324.555 814.575 324.672 814.212 324.672H804.196V333.6H817.956C818.298 333.6 818.586 333.717 818.82 333.952C819.076 334.187 819.204 334.464 819.204 334.784C819.204 335.147 819.076 335.445 818.82 335.68C818.586 335.893 818.298 336 817.956 336H802.948Z" fill="black"></path><path d="M831.121 336C830.779 336 830.481 335.883 830.225 335.648C829.99 335.392 829.873 335.093 829.873 334.752V311.008H832.369V334.752C832.369 335.093 832.251 335.392 832.017 335.648C831.782 335.883 831.483 336 831.121 336ZM822.289 313.28C821.947 313.28 821.67 313.173 821.457 312.96C821.243 312.747 821.137 312.48 821.137 312.16C821.137 311.819 821.243 311.541 821.457 311.328C821.67 311.115 821.947 311.008 822.289 311.008H839.985C840.326 311.008 840.603 311.115 840.817 311.328C841.03 311.541 841.137 311.819 841.137 312.16C841.137 312.48 841.03 312.747 840.817 312.96C840.603 313.173 840.326 313.28 839.985 313.28H822.289Z" fill="black"></path><path d="M846.073 336C845.711 336 845.412 335.883 845.177 335.648C844.943 335.413 844.825 335.115 844.825 334.752V312.256C844.825 311.893 844.943 311.595 845.177 311.36C845.412 311.125 845.711 311.008 846.073 311.008C846.436 311.008 846.735 311.125 846.969 311.36C847.204 311.595 847.321 311.893 847.321 312.256V322.24H862.937V312.256C862.937 311.893 863.055 311.595 863.289 311.36C863.524 311.125 863.823 311.008 864.185 311.008C864.548 311.008 864.847 311.125 865.081 311.36C865.316 311.595 865.433 311.893 865.433 312.256V334.752C865.433 335.115 865.316 335.413 865.081 335.648C864.847 335.883 864.548 336 864.185 336C863.823 336 863.524 335.883 863.289 335.648C863.055 335.413 862.937 335.115 862.937 334.752V324.48H847.321V334.752C847.321 335.115 847.204 335.413 846.969 335.648C846.735 335.883 846.436 336 846.073 336Z" fill="black"></path><path d="M883.377 336.32C881.521 336.32 879.815 336 878.257 335.36C876.7 334.72 875.345 333.824 874.193 332.672C873.063 331.52 872.177 330.165 871.537 328.608C870.919 327.051 870.609 325.344 870.609 323.488C870.609 321.653 870.919 319.957 871.537 318.4C872.177 316.843 873.063 315.488 874.193 314.336C875.345 313.184 876.7 312.288 878.257 311.648C879.815 311.008 881.521 310.688 883.377 310.688C885.212 310.688 886.908 311.008 888.465 311.648C890.023 312.288 891.377 313.184 892.529 314.336C893.681 315.488 894.567 316.843 895.185 318.4C895.825 319.957 896.145 321.653 896.145 323.488C896.145 325.344 895.825 327.051 895.185 328.608C894.567 330.165 893.681 331.52 892.529 332.672C891.377 333.824 890.023 334.72 888.465 335.36C886.908 336 885.212 336.32 883.377 336.32ZM883.377 333.952C884.849 333.952 886.215 333.696 887.473 333.184C888.732 332.651 889.82 331.915 890.737 330.976C891.676 330.016 892.401 328.907 892.913 327.648C893.425 326.368 893.681 324.981 893.681 323.488C893.681 322.016 893.425 320.651 892.913 319.392C892.401 318.112 891.676 317.003 890.737 316.064C889.82 315.104 888.732 314.368 887.473 313.856C886.215 313.323 884.849 313.056 883.377 313.056C881.884 313.056 880.508 313.323 879.249 313.856C877.991 314.368 876.892 315.104 875.953 316.064C875.036 317.003 874.321 318.112 873.809 319.392C873.297 320.651 873.041 322.016 873.041 323.488C873.041 324.981 873.297 326.368 873.809 327.648C874.321 328.907 875.036 330.016 875.953 330.976C876.892 331.915 877.991 332.651 879.249 333.184C880.508 333.696 881.884 333.952 883.377 333.952Z" fill="black"></path><path d="M908.974 336.32C907.609 336.32 906.34 336.128 905.166 335.744C904.014 335.339 903.012 334.773 902.158 334.048C901.305 333.323 900.654 332.48 900.206 331.52C900.036 331.179 900.025 330.869 900.174 330.592C900.345 330.293 900.622 330.091 901.006 329.984C901.305 329.899 901.593 329.931 901.87 330.08C902.169 330.229 902.393 330.453 902.542 330.752C902.862 331.371 903.332 331.925 903.95 332.416C904.569 332.907 905.305 333.291 906.158 333.568C907.012 333.824 907.95 333.952 908.974 333.952C910.105 333.952 911.108 333.771 911.982 333.408C912.857 333.024 913.54 332.48 914.03 331.776C914.542 331.051 914.798 330.176 914.798 329.152C914.798 327.851 914.318 326.731 913.358 325.792C912.398 324.853 910.894 324.256 908.846 324C906.35 323.701 904.398 322.933 902.99 321.696C901.582 320.437 900.878 318.901 900.878 317.088C900.878 315.787 901.22 314.656 901.902 313.696C902.606 312.736 903.566 312 904.782 311.488C905.998 310.955 907.396 310.688 908.974 310.688C910.148 310.688 911.214 310.88 912.174 311.264C913.134 311.627 913.966 312.117 914.67 312.736C915.396 313.333 915.982 313.995 916.43 314.72C916.644 315.061 916.708 315.392 916.622 315.712C916.558 316.032 916.377 316.277 916.078 316.448C915.758 316.597 915.428 316.619 915.086 316.512C914.766 316.405 914.521 316.203 914.35 315.904C914.03 315.413 913.625 314.955 913.134 314.528C912.665 314.08 912.089 313.728 911.406 313.472C910.724 313.216 909.902 313.077 908.942 313.056C907.257 313.056 905.902 313.419 904.878 314.144C903.854 314.848 903.342 315.883 903.342 317.248C903.342 317.973 903.534 318.645 903.918 319.264C904.302 319.861 904.932 320.384 905.806 320.832C906.702 321.259 907.897 321.579 909.39 321.792C912.057 322.176 914.03 322.997 915.31 324.256C916.612 325.493 917.262 327.115 917.262 329.12C917.262 330.272 917.049 331.296 916.622 332.192C916.217 333.088 915.63 333.845 914.862 334.464C914.116 335.061 913.23 335.52 912.206 335.84C911.204 336.16 910.126 336.32 908.974 336.32Z" fill="black"></path><path d="M931.41 321.152C931.154 321.152 930.94 321.077 930.77 320.928C930.599 320.757 930.514 320.555 930.514 320.32V311.648C930.514 311.371 930.631 311.157 930.866 311.008C931.122 310.859 931.388 310.805 931.666 310.848C931.964 310.869 932.188 311.019 932.338 311.296L936.818 319.072H935.89L940.274 311.296C940.402 311.04 940.615 310.901 940.914 310.88C941.212 310.837 941.479 310.891 941.714 311.04C941.97 311.168 942.098 311.371 942.098 311.648V320.32C942.098 320.555 942.002 320.757 941.81 320.928C941.639 321.077 941.436 321.152 941.202 321.152C940.946 321.152 940.732 321.077 940.562 320.928C940.391 320.757 940.306 320.555 940.306 320.32V313.248L940.914 313.216L937.074 320.032C936.903 320.352 936.636 320.501 936.274 320.48C935.911 320.459 935.644 320.288 935.474 319.968L931.73 313.344L932.338 313.28V320.32C932.338 320.555 932.242 320.757 932.05 320.928C931.879 321.077 931.666 321.152 931.41 321.152ZM924.37 321.152C924.114 321.152 923.9 321.077 923.73 320.928C923.559 320.757 923.474 320.555 923.474 320.32V310.848H925.266V320.32C925.266 320.555 925.18 320.757 925.01 320.928C924.839 321.077 924.626 321.152 924.37 321.152ZM920.498 312.384C920.263 312.384 920.06 312.309 919.89 312.16C919.74 312.011 919.666 311.829 919.666 311.616C919.666 311.403 919.74 311.221 919.89 311.072C920.06 310.923 920.263 310.848 920.498 310.848H928.21C928.466 310.848 928.668 310.923 928.818 311.072C928.988 311.221 929.074 311.403 929.074 311.616C929.074 311.829 928.988 312.011 928.818 312.16C928.668 312.309 928.466 312.384 928.21 312.384H920.498Z" fill="black"></path><path d="M1197.86 435.752C1199.38 437.355 1201.91 437.423 1203.51 435.903L1229.64 411.138C1231.24 409.619 1231.31 407.087 1229.79 405.484C1228.27 403.88 1225.74 403.812 1224.14 405.332L1200.91 427.345L1178.9 404.12C1177.38 402.516 1174.85 402.449 1173.24 403.968C1171.64 405.488 1171.57 408.02 1173.09 409.623L1197.86 435.752ZM1093.78 295L1093.78 291H1093.78L1093.78 295ZM624 291C621.791 291 620 292.791 620 295C620 297.209 621.791 299 624 299L624 291ZM1204.76 433.107C1206.05 384.801 1202.51 349.038 1186.15 325.437C1169.49 301.397 1140.39 291 1093.78 291L1093.78 299C1139.5 299 1165.18 309.223 1179.58 329.994C1194.28 351.203 1198.06 384.44 1196.76 432.893L1204.76 433.107ZM1093.78 291L624 291L624 299L1093.78 299L1093.78 291Z" fill="#FF0266"></path><path d="M694.76 279C694.014 279 693.44 278.68 693.04 278.04C692.64 277.4 692.6 276.72 692.92 276L704.16 249.16C704.56 248.227 705.214 247.76 706.12 247.76C707.08 247.76 707.734 248.227 708.08 249.16L719.36 276.08C719.654 276.827 719.6 277.507 719.2 278.12C718.827 278.707 718.254 279 717.48 279C717.08 279 716.694 278.893 716.32 278.68C715.974 278.44 715.72 278.12 715.56 277.72L705.64 253.08H706.76L696.68 277.72C696.494 278.147 696.214 278.467 695.84 278.68C695.494 278.893 695.134 279 694.76 279ZM696.88 272.12L698.48 268.68H714.16L715.76 272.12H696.88Z" fill="black"></path><path d="M725.765 288.36C725.179 288.36 724.685 288.16 724.285 287.76C723.912 287.387 723.725 286.907 723.725 286.32V268.08C723.752 265.973 724.245 264.08 725.205 262.4C726.165 260.72 727.472 259.4 729.125 258.44C730.779 257.453 732.645 256.96 734.725 256.96C736.832 256.96 738.712 257.453 740.365 258.44C742.019 259.4 743.325 260.72 744.285 262.4C745.272 264.08 745.765 265.973 745.765 268.08C745.765 270.187 745.312 272.08 744.405 273.76C743.525 275.413 742.312 276.733 740.765 277.72C739.219 278.68 737.472 279.16 735.525 279.16C733.952 279.16 732.499 278.84 731.165 278.2C729.859 277.533 728.739 276.64 727.805 275.52V286.32C727.805 286.907 727.619 287.387 727.245 287.76C726.872 288.16 726.379 288.36 725.765 288.36ZM734.725 275.56C736.085 275.56 737.299 275.24 738.365 274.6C739.432 273.933 740.272 273.04 740.885 271.92C741.525 270.773 741.845 269.493 741.845 268.08C741.845 266.64 741.525 265.36 740.885 264.24C740.272 263.093 739.432 262.2 738.365 261.56C737.299 260.893 736.085 260.56 734.725 260.56C733.392 260.56 732.179 260.893 731.085 261.56C730.019 262.2 729.179 263.093 728.565 264.24C727.952 265.36 727.645 266.64 727.645 268.08C727.645 269.493 727.952 270.773 728.565 271.92C729.179 273.04 730.019 273.933 731.085 274.6C732.179 275.24 733.392 275.56 734.725 275.56Z" fill="black"></path><path d="M753.89 288.36C753.304 288.36 752.81 288.16 752.41 287.76C752.037 287.387 751.85 286.907 751.85 286.32V268.08C751.877 265.973 752.37 264.08 753.33 262.4C754.29 260.72 755.597 259.4 757.25 258.44C758.904 257.453 760.77 256.96 762.85 256.96C764.957 256.96 766.837 257.453 768.49 258.44C770.144 259.4 771.45 260.72 772.41 262.4C773.397 264.08 773.89 265.973 773.89 268.08C773.89 270.187 773.437 272.08 772.53 273.76C771.65 275.413 770.437 276.733 768.89 277.72C767.344 278.68 765.597 279.16 763.65 279.16C762.077 279.16 760.624 278.84 759.29 278.2C757.984 277.533 756.864 276.64 755.93 275.52V286.32C755.93 286.907 755.744 287.387 755.37 287.76C754.997 288.16 754.504 288.36 753.89 288.36ZM762.85 275.56C764.21 275.56 765.424 275.24 766.49 274.6C767.557 273.933 768.397 273.04 769.01 271.92C769.65 270.773 769.97 269.493 769.97 268.08C769.97 266.64 769.65 265.36 769.01 264.24C768.397 263.093 767.557 262.2 766.49 261.56C765.424 260.893 764.21 260.56 762.85 260.56C761.517 260.56 760.304 260.893 759.21 261.56C758.144 262.2 757.304 263.093 756.69 264.24C756.077 265.36 755.77 266.64 755.77 268.08C755.77 269.493 756.077 270.773 756.69 271.92C757.304 273.04 758.144 273.933 759.21 274.6C760.304 275.24 761.517 275.56 762.85 275.56Z" fill="black"></path><path d="M785.175 279C784.002 279 782.962 278.68 782.055 278.04C781.149 277.4 780.442 276.533 779.935 275.44C779.429 274.32 779.175 273.04 779.175 271.6V249.76C779.175 249.173 779.362 248.693 779.735 248.32C780.109 247.947 780.589 247.76 781.175 247.76C781.762 247.76 782.242 247.947 782.615 248.32C782.989 248.693 783.175 249.173 783.175 249.76V271.6C783.175 272.587 783.362 273.4 783.735 274.04C784.109 274.68 784.589 275 785.175 275H786.175C786.709 275 787.135 275.187 787.455 275.56C787.802 275.933 787.975 276.413 787.975 277C787.975 277.587 787.722 278.067 787.215 278.44C786.709 278.813 786.055 279 785.255 279H785.175Z" fill="black"></path><path d="M794.408 279C793.821 279 793.328 278.813 792.928 278.44C792.554 278.04 792.368 277.547 792.368 276.96V259.16C792.368 258.547 792.554 258.053 792.928 257.68C793.328 257.307 793.821 257.12 794.408 257.12C795.021 257.12 795.514 257.307 795.888 257.68C796.261 258.053 796.448 258.547 796.448 259.16V276.96C796.448 277.547 796.261 278.04 795.888 278.44C795.514 278.813 795.021 279 794.408 279ZM794.408 253.56C793.688 253.56 793.061 253.307 792.528 252.8C792.021 252.267 791.768 251.64 791.768 250.92C791.768 250.2 792.021 249.587 792.528 249.08C793.061 248.547 793.688 248.28 794.408 248.28C795.128 248.28 795.741 248.547 796.248 249.08C796.781 249.587 797.048 250.2 797.048 250.92C797.048 251.64 796.781 252.267 796.248 252.8C795.741 253.307 795.128 253.56 794.408 253.56Z" fill="black"></path><path d="M813.958 279.16C811.825 279.16 809.918 278.68 808.238 277.72C806.585 276.733 805.278 275.413 804.318 273.76C803.385 272.08 802.918 270.187 802.918 268.08C802.918 265.92 803.385 264 804.318 262.32C805.251 260.64 806.531 259.333 808.158 258.4C809.785 257.44 811.651 256.96 813.758 256.96C815.331 256.96 816.771 257.267 818.078 257.88C819.385 258.467 820.558 259.36 821.598 260.56C821.971 260.987 822.105 261.427 821.998 261.88C821.891 262.333 821.598 262.733 821.118 263.08C820.745 263.347 820.331 263.44 819.878 263.36C819.425 263.253 819.011 263.013 818.638 262.64C817.331 261.253 815.705 260.56 813.758 260.56C812.398 260.56 811.198 260.88 810.158 261.52C809.118 262.133 808.305 263 807.718 264.12C807.131 265.24 806.838 266.56 806.838 268.08C806.838 269.52 807.131 270.8 807.718 271.92C808.331 273.04 809.171 273.933 810.238 274.6C811.305 275.24 812.545 275.56 813.958 275.56C814.891 275.56 815.705 275.453 816.398 275.24C817.118 275 817.771 274.64 818.358 274.16C818.785 273.813 819.225 273.627 819.678 273.6C820.131 273.547 820.531 273.667 820.878 273.96C821.331 274.333 821.585 274.76 821.638 275.24C821.691 275.693 821.531 276.107 821.158 276.48C819.238 278.267 816.838 279.16 813.958 279.16Z" fill="black"></path><path d="M837.181 279.16C835.235 279.16 833.488 278.68 831.941 277.72C830.395 276.733 829.168 275.413 828.261 273.76C827.381 272.08 826.941 270.187 826.941 268.08C826.941 265.973 827.421 264.08 828.381 262.4C829.368 260.72 830.688 259.4 832.341 258.44C834.021 257.453 835.901 256.96 837.981 256.96C840.061 256.96 841.928 257.453 843.581 258.44C845.235 259.4 846.541 260.72 847.501 262.4C848.488 264.08 848.981 265.973 848.981 268.08H847.421C847.421 270.187 846.968 272.08 846.061 273.76C845.181 275.413 843.968 276.733 842.421 277.72C840.875 278.68 839.128 279.16 837.181 279.16ZM837.981 275.56C839.341 275.56 840.555 275.24 841.621 274.6C842.688 273.933 843.528 273.04 844.141 271.92C844.755 270.773 845.061 269.493 845.061 268.08C845.061 266.64 844.755 265.36 844.141 264.24C843.528 263.093 842.688 262.2 841.621 261.56C840.555 260.893 839.341 260.56 837.981 260.56C836.648 260.56 835.435 260.893 834.341 261.56C833.275 262.2 832.421 263.093 831.781 264.24C831.168 265.36 830.861 266.64 830.861 268.08C830.861 269.493 831.168 270.773 831.781 271.92C832.421 273.04 833.275 273.933 834.341 274.6C835.435 275.24 836.648 275.56 837.981 275.56ZM846.941 279.04C846.355 279.04 845.861 278.853 845.461 278.48C845.088 278.08 844.901 277.587 844.901 277V270.88L845.661 266.64L848.981 268.08V277C848.981 277.587 848.781 278.08 848.381 278.48C848.008 278.853 847.528 279.04 846.941 279.04Z" fill="black"></path><path d="M863.013 279C861.68 279 860.48 278.667 859.413 278C858.347 277.307 857.507 276.373 856.893 275.2C856.28 274.027 855.973 272.707 855.973 271.24V252.16C855.973 251.573 856.16 251.093 856.533 250.72C856.907 250.347 857.387 250.16 857.973 250.16C858.56 250.16 859.04 250.347 859.413 250.72C859.787 251.093 859.973 251.573 859.973 252.16V271.24C859.973 272.307 860.267 273.2 860.853 273.92C861.44 274.64 862.16 275 863.013 275H864.373C864.853 275 865.253 275.187 865.573 275.56C865.92 275.933 866.093 276.413 866.093 277C866.093 277.587 865.867 278.067 865.413 278.44C864.987 278.813 864.427 279 863.733 279H863.013ZM854.133 261.36C853.573 261.36 853.12 261.2 852.773 260.88C852.427 260.56 852.253 260.16 852.253 259.68C852.253 259.147 852.427 258.72 852.773 258.4C853.12 258.08 853.573 257.92 854.133 257.92H863.373C863.933 257.92 864.387 258.08 864.733 258.4C865.08 258.72 865.253 259.147 865.253 259.68C865.253 260.16 865.08 260.56 864.733 260.88C864.387 261.2 863.933 261.36 863.373 261.36H854.133Z" fill="black"></path><path d="M873.548 279C872.962 279 872.468 278.813 872.068 278.44C871.695 278.04 871.508 277.547 871.508 276.96V259.16C871.508 258.547 871.695 258.053 872.068 257.68C872.468 257.307 872.962 257.12 873.548 257.12C874.162 257.12 874.655 257.307 875.028 257.68C875.402 258.053 875.588 258.547 875.588 259.16V276.96C875.588 277.547 875.402 278.04 875.028 278.44C874.655 278.813 874.162 279 873.548 279ZM873.548 253.56C872.828 253.56 872.202 253.307 871.668 252.8C871.162 252.267 870.908 251.64 870.908 250.92C870.908 250.2 871.162 249.587 871.668 249.08C872.202 248.547 872.828 248.28 873.548 248.28C874.268 248.28 874.882 248.547 875.388 249.08C875.922 249.587 876.188 250.2 876.188 250.92C876.188 251.64 875.922 252.267 875.388 252.8C874.882 253.307 874.268 253.56 873.548 253.56Z" fill="black"></path><path d="M893.098 279.16C890.938 279.16 889.032 278.693 887.378 277.76C885.725 276.8 884.418 275.493 883.458 273.84C882.525 272.16 882.058 270.24 882.058 268.08C882.058 265.893 882.525 263.973 883.458 262.32C884.418 260.64 885.725 259.333 887.378 258.4C889.032 257.44 890.938 256.96 893.098 256.96C895.232 256.96 897.125 257.44 898.778 258.4C900.432 259.333 901.725 260.64 902.658 262.32C903.618 263.973 904.098 265.893 904.098 268.08C904.098 270.24 903.632 272.16 902.698 273.84C901.765 275.493 900.472 276.8 898.818 277.76C897.165 278.693 895.258 279.16 893.098 279.16ZM893.098 275.56C894.485 275.56 895.712 275.24 896.778 274.6C897.845 273.96 898.672 273.08 899.258 271.96C899.872 270.84 900.178 269.547 900.178 268.08C900.178 266.613 899.872 265.32 899.258 264.2C898.672 263.053 897.845 262.16 896.778 261.52C895.712 260.88 894.485 260.56 893.098 260.56C891.712 260.56 890.485 260.88 889.418 261.52C888.352 262.16 887.512 263.053 886.898 264.2C886.285 265.32 885.978 266.613 885.978 268.08C885.978 269.547 886.285 270.84 886.898 271.96C887.512 273.08 888.352 273.96 889.418 274.6C890.485 275.24 891.712 275.56 893.098 275.56Z" fill="black"></path><path d="M928.651 279.04C928.064 279.04 927.571 278.853 927.171 278.48C926.797 278.08 926.611 277.587 926.611 277V267.16C926.611 265.64 926.331 264.4 925.771 263.44C925.211 262.48 924.451 261.773 923.491 261.32C922.557 260.84 921.477 260.6 920.251 260.6C919.131 260.6 918.117 260.827 917.211 261.28C916.304 261.733 915.584 262.347 915.051 263.12C914.517 263.867 914.251 264.733 914.251 265.72H911.731C911.731 264.04 912.131 262.547 912.931 261.24C913.757 259.907 914.877 258.853 916.291 258.08C917.704 257.307 919.291 256.92 921.051 256.92C922.891 256.92 924.531 257.32 925.971 258.12C927.437 258.893 928.584 260.04 929.411 261.56C930.264 263.08 930.691 264.947 930.691 267.16V277C930.691 277.587 930.491 278.08 930.091 278.48C929.717 278.853 929.237 279.04 928.651 279.04ZM912.211 279.04C911.624 279.04 911.131 278.853 910.731 278.48C910.357 278.08 910.171 277.587 910.171 277V259.16C910.171 258.547 910.357 258.053 910.731 257.68C911.131 257.307 911.624 257.12 912.211 257.12C912.824 257.12 913.317 257.307 913.691 257.68C914.064 258.053 914.251 258.547 914.251 259.16V277C914.251 277.587 914.064 278.08 913.691 278.48C913.317 278.853 912.824 279.04 912.211 279.04Z" fill="black"></path><path d="M954.355 279C953.182 279 952.142 278.68 951.235 278.04C950.328 277.4 949.622 276.533 949.115 275.44C948.608 274.32 948.355 273.04 948.355 271.6V249.76C948.355 249.173 948.542 248.693 948.915 248.32C949.288 247.947 949.768 247.76 950.355 247.76C950.942 247.76 951.422 247.947 951.795 248.32C952.168 248.693 952.355 249.173 952.355 249.76V271.6C952.355 272.587 952.542 273.4 952.915 274.04C953.288 274.68 953.768 275 954.355 275H955.355C955.888 275 956.315 275.187 956.635 275.56C956.982 275.933 957.155 276.413 957.155 277C957.155 277.587 956.902 278.067 956.395 278.44C955.888 278.813 955.235 279 954.435 279H954.355Z" fill="black"></path><path d="M969.056 279.16C967.11 279.16 965.363 278.68 963.816 277.72C962.27 276.733 961.043 275.413 960.136 273.76C959.256 272.08 958.816 270.187 958.816 268.08C958.816 265.973 959.296 264.08 960.256 262.4C961.243 260.72 962.563 259.4 964.216 258.44C965.896 257.453 967.776 256.96 969.856 256.96C971.936 256.96 973.803 257.453 975.456 258.44C977.11 259.4 978.416 260.72 979.376 262.4C980.363 264.08 980.856 265.973 980.856 268.08H979.296C979.296 270.187 978.843 272.08 977.936 273.76C977.056 275.413 975.843 276.733 974.296 277.72C972.75 278.68 971.003 279.16 969.056 279.16ZM969.856 275.56C971.216 275.56 972.43 275.24 973.496 274.6C974.563 273.933 975.403 273.04 976.016 271.92C976.63 270.773 976.936 269.493 976.936 268.08C976.936 266.64 976.63 265.36 976.016 264.24C975.403 263.093 974.563 262.2 973.496 261.56C972.43 260.893 971.216 260.56 969.856 260.56C968.523 260.56 967.31 260.893 966.216 261.56C965.15 262.2 964.296 263.093 963.656 264.24C963.043 265.36 962.736 266.64 962.736 268.08C962.736 269.493 963.043 270.773 963.656 271.92C964.296 273.04 965.15 273.933 966.216 274.6C967.31 275.24 968.523 275.56 969.856 275.56ZM978.816 279.04C978.23 279.04 977.736 278.853 977.336 278.48C976.963 278.08 976.776 277.587 976.776 277V270.88L977.536 266.64L980.856 268.08V277C980.856 277.587 980.656 278.08 980.256 278.48C979.883 278.853 979.403 279.04 978.816 279.04Z" fill="black"></path><path d="M990.848 288.6C990.582 288.6 990.262 288.52 989.888 288.36C988.715 287.827 988.395 286.987 988.928 285.84L1001.13 258.28C1001.66 257.16 1002.5 256.84 1003.65 257.32C1004.85 257.827 1005.18 258.667 1004.65 259.84L992.408 287.36C992.088 288.187 991.568 288.6 990.848 288.6ZM995.568 278.12C995.062 278.333 994.582 278.36 994.128 278.2C993.702 278.013 993.355 277.667 993.089 277.16L983.928 259.76C983.662 259.253 983.622 258.773 983.809 258.32C984.022 257.84 984.382 257.493 984.888 257.28C985.395 257.067 985.875 257.053 986.328 257.24C986.782 257.4 987.128 257.733 987.368 258.24L996.128 275.64C996.395 276.147 996.488 276.64 996.408 277.12C996.355 277.573 996.075 277.907 995.568 278.12Z" fill="black"></path><path d="M1017.99 279.16C1015.78 279.16 1013.8 278.693 1012.07 277.76C1010.36 276.8 1009.02 275.493 1008.03 273.84C1007.07 272.16 1006.59 270.24 1006.59 268.08C1006.59 265.893 1007.04 263.973 1007.95 262.32C1008.88 260.64 1010.16 259.333 1011.79 258.4C1013.42 257.44 1015.28 256.96 1017.39 256.96C1019.47 256.96 1021.26 257.427 1022.75 258.36C1024.24 259.267 1025.38 260.533 1026.15 262.16C1026.95 263.76 1027.35 265.613 1027.35 267.72C1027.35 268.227 1027.18 268.653 1026.83 269C1026.48 269.32 1026.04 269.48 1025.51 269.48H1009.39V266.28H1025.39L1023.75 267.4C1023.72 266.067 1023.46 264.88 1022.95 263.84C1022.44 262.773 1021.72 261.933 1020.79 261.32C1019.86 260.707 1018.72 260.4 1017.39 260.4C1015.87 260.4 1014.56 260.733 1013.47 261.4C1012.4 262.067 1011.59 262.987 1011.03 264.16C1010.47 265.307 1010.19 266.613 1010.19 268.08C1010.19 269.547 1010.52 270.853 1011.19 272C1011.86 273.147 1012.78 274.053 1013.95 274.72C1015.12 275.387 1016.47 275.72 1017.99 275.72C1018.82 275.72 1019.66 275.573 1020.51 275.28C1021.39 274.96 1022.1 274.6 1022.63 274.2C1023.03 273.907 1023.46 273.76 1023.91 273.76C1024.39 273.733 1024.8 273.867 1025.15 274.16C1025.6 274.56 1025.84 275 1025.87 275.48C1025.9 275.96 1025.68 276.373 1025.23 276.72C1024.32 277.44 1023.19 278.027 1021.83 278.48C1020.5 278.933 1019.22 279.16 1017.99 279.16Z" fill="black"></path><path d="M1034.51 265.32C1034.51 263.72 1034.9 262.293 1035.67 261.04C1036.47 259.76 1037.54 258.747 1038.87 258C1040.21 257.253 1041.67 256.88 1043.27 256.88C1044.87 256.88 1046.06 257.147 1046.83 257.68C1047.63 258.187 1047.94 258.8 1047.75 259.52C1047.67 259.893 1047.51 260.187 1047.27 260.4C1047.06 260.587 1046.81 260.707 1046.51 260.76C1046.22 260.813 1045.9 260.8 1045.55 260.72C1043.85 260.373 1042.31 260.347 1040.95 260.64C1039.59 260.933 1038.51 261.48 1037.71 262.28C1036.94 263.08 1036.55 264.093 1036.55 265.32H1034.51ZM1034.55 279C1033.91 279 1033.42 278.84 1033.07 278.52C1032.73 278.173 1032.55 277.667 1032.55 277V259.12C1032.55 258.48 1032.73 257.987 1033.07 257.64C1033.42 257.293 1033.91 257.12 1034.55 257.12C1035.22 257.12 1035.71 257.293 1036.03 257.64C1036.38 257.96 1036.55 258.453 1036.55 259.12V277C1036.55 277.64 1036.38 278.133 1036.03 278.48C1035.71 278.827 1035.22 279 1034.55 279Z" fill="black"></path></svg>