<svg xmlns="http://www.w3.org/2000/svg" width="448" height="472" viewBox="0 0 448 472" fill="none"><path d="M72.4697 384.427C63.5256 354.408 82.0259 343.82 123.271 333.693C123.762 333.572 124.288 333.487 124.792 333.442C216.468 325.37 242.265 316.047 337.369 334.483C338.046 334.614 338.745 334.825 339.378 335.099C371.715 349.08 379.886 369.908 384.506 392.845C386.679 403.637 381.369 414.668 371.572 419.687C336.571 437.617 316.335 439.219 279.185 420.871C275.381 418.993 270.758 419.594 267.639 422.47C226.355 460.55 219.692 462.327 159.609 450.499C156.225 449.833 152.959 448.583 149.953 446.892C134.681 438.302 120.953 431.899 116.6 422.232C113.577 415.519 108.477 407.224 101.301 405.577C89.4512 402.857 79.988 396.145 73.6055 386.829C73.1058 386.099 72.7222 385.274 72.4697 384.427Z" fill="#7B1FA2"></path><path d="M227.103 116.757C178.852 115.907 156.47 126.484 131.451 136.455C130.154 136.972 129.795 138.598 130.929 139.413C157.767 158.713 312.568 159.865 326.791 142.514C327.425 141.741 326.983 140.691 326.084 140.255C296.09 125.698 258.044 117.302 227.103 116.757Z" fill="#7B1FA2" stroke="black" stroke-width="4"></path><path d="M130.196 317.957C141.843 300.999 182.948 304.109 202.81 299.681C227.392 296.516 238.958 289.2 253.256 269.39C255.227 266.659 257.331 264.022 259.653 261.583L296.247 223.137C299.288 219.943 302.262 216.507 303.416 212.25C308.533 193.379 292.841 168.003 316.729 155.076C320.795 152.875 324.45 150.772 327.724 148.79C335.411 144.135 348.977 151.974 347.604 160.855L326.726 295.923C326.119 299.854 326.067 303.85 326.574 307.795C328.984 326.571 318.704 344.981 300.416 349.866C248.622 363.701 188.57 362.255 148.867 352.399C138.548 349.837 131.203 341.161 128.958 330.768C128.015 326.403 127.668 321.638 130.196 317.957Z" fill="#F8F8F8"></path><path d="M103.28 122.685C143.059 166.368 322.662 164.05 347.852 131.923M103.28 122.685C150.73 88.9004 313.887 90.7122 347.852 131.923M103.28 122.685L130.305 330.804C130.586 332.966 132.553 334.518 134.713 334.219C142.673 333.118 147.8 331.446 151.923 326.537C154.462 323.514 156.457 318.752 156.198 314.813V314.813C155.522 304.531 138.227 315.966 139.695 326.165C140.272 330.172 141.712 334.998 143.899 341.109C144.273 342.155 145.043 342.986 146.075 343.398C187.676 360.002 278.912 361.045 312.437 332.545C314.213 331.035 315.206 328.841 315.427 326.521L316.115 319.291L347.852 131.923" stroke="black" stroke-width="4"></path><path d="M297.428 248.02C287.915 244.678 273.017 239.442 262.324 227.504C242.306 215.707 231.753 207.526 225.625 202.775C218.443 197.208 217.338 196.35 214.197 199.905C205.717 204.674 229.458 223.235 255.641 238.785C258.046 240.213 260.44 241.646 262.8 243.059C278.467 252.435 292.67 260.935 299.209 261.609C310.918 266.968 338.135 274.768 351.266 255.978C370.287 224.798 338.671 195.219 338.149 209.687C335.854 212.285 335.216 214.938 337.574 220.224C341.198 228.344 345.792 238.64 337.473 248.055C330.94 255.448 321.367 253.178 312.844 251.158C308.695 250.174 304.795 249.25 301.616 249.528C300.392 249.062 298.982 248.566 297.428 248.02Z" fill="white"></path><path fill-rule="evenodd" clip-rule="evenodd" d="M198.265 177.219C188.371 176.671 178.942 189.979 187.963 201.799C190.761 205.465 195.313 207.197 199.731 207.082C202.634 207.006 205.123 206.484 207.583 205.267C207.704 205.207 207.825 205.146 207.946 205.083C208.95 206.157 210.056 207.294 211.263 208.504L211.335 208.577L211.417 208.64C228.808 222.098 248.393 236.395 267.559 247.801C286.686 259.184 305.567 267.796 321.519 269.71C336.654 271.526 351.363 262.039 356.942 247.969C360.015 240.218 359.581 232.943 356.106 225.227C352.675 217.607 346.273 209.54 337.445 200.052L335.105 202.229C343.903 211.686 349.99 219.43 353.192 226.539C356.35 233.551 356.693 239.925 353.97 246.791C348.886 259.613 335.489 268.167 321.9 266.537C306.639 264.705 288.235 256.387 269.194 245.055C250.223 233.764 230.788 219.586 213.454 206.175C212.452 205.168 211.535 204.228 210.701 203.346C212.065 202.344 213.451 201.124 214.934 199.668C215.72 198.935 216.416 198.213 217.026 197.5C221.056 200.642 224.891 203.674 228.583 206.592C259.704 231.192 280.69 247.78 322.406 255.127C332.053 256.826 343.607 253.229 346.724 243.132C349.675 233.571 345.881 225.068 336.353 213.5C335.792 212.818 334.785 212.721 334.104 213.282C333.422 213.843 333.325 214.85 333.886 215.532C343.295 226.957 346.11 234.284 343.669 242.189C341.238 250.066 331.839 253.542 322.96 251.979C282.071 244.778 261.695 228.678 230.567 204.083C226.846 201.143 222.972 198.082 218.89 194.9C219.435 193.955 219.829 193.02 220.08 192.09C220.703 189.777 220.253 187.673 219.093 186.005C217.961 184.376 216.217 183.244 214.333 182.639C210.622 181.447 205.758 182.153 203.076 186.065C202.945 186.255 202.812 186.451 202.677 186.652C202.024 187.623 201.277 188.83 200.938 190.241C200.26 193.065 200.94 195.713 202.711 198.578C203.489 199.836 204.497 201.167 205.728 202.61C203.896 203.439 201.993 203.825 199.648 203.886C196.056 203.98 192.568 202.564 190.504 199.86C183.099 190.158 190.983 180.017 198.088 180.411C198.969 180.46 199.723 179.785 199.772 178.904C199.821 178.022 199.146 177.268 198.265 177.219ZM212.709 197.373C211.173 198.881 209.815 200.057 208.533 200.969C207.209 199.449 206.183 198.114 205.43 196.897C203.95 194.503 203.627 192.732 204.046 190.987C204.242 190.171 204.704 189.365 205.329 188.436C205.459 188.242 205.587 188.054 205.712 187.872C207.377 185.444 210.583 184.792 213.356 185.682C214.715 186.119 215.815 186.889 216.469 187.829C217.094 188.729 217.369 189.862 216.993 191.259C216.541 192.939 215.319 194.944 212.74 197.342L212.724 197.357L212.709 197.373Z" fill="black"></path></svg>