<svg xmlns="http://www.w3.org/2000/svg" width="1307" height="691" viewBox="0 0 1307 691" fill="none"><path d="M872.351 179.276C926.062 270.322 782.783 367 672.294 367C561.806 367 416.722 305.99 472.237 179.276C520.328 69.5086 597.683 32.8059 666.291 9.86115C686.572 3.07861 708.71 0.973919 728.542 8.97493C798.143 37.0552 831.514 110.054 872.351 179.276Z" fill="#69F0AE"></path><path d="M643.5 524C674 477.5 655.332 435.033 651.234 282.357C648.306 189.29 651.234 76.8572 678.734 62.8572V62.8572C708.402 47.7538 698.464 101.732 670.335 119.536C629.969 145.084 592.496 178.539 547.209 258.182C545.677 260.877 547.685 264.251 550.784 264.176C651.375 261.741 704.433 267.024 762.234 319.357" stroke="black" stroke-width="4" stroke-linecap="round" stroke-linejoin="round"></path><path d="M958.951 400.256C960.616 400.6 961.664 402.272 961.189 403.905C958.266 413.964 954.251 419.642 946.5 423.36C940 426.479 930.5 425.36 923.962 423.951C922.68 422.356 922.06 420.576 922.003 418.646C921.605 405.158 938.381 397.001 951.736 398.934C953.998 399.262 956.365 399.721 958.951 400.256Z" fill="#55CA91"></path><path d="M963.5 455.86C963.5 476.571 946.5 492.36 924.5 484.36C903.5 490.36 884 474.228 884 453.517C884 432.807 898 406.86 924.5 421.36C957.5 404.86 963.5 435.15 963.5 455.86Z" fill="#FF0266"></path><path d="M911.5 407.36C922.505 409.344 923.472 413.917 924 422.86M924 422.86C939.916 421.199 947.042 417.781 954.01 407.226C954.765 406.082 954.099 404.555 952.751 404.306C935.294 401.089 929.225 406.189 924 422.86ZM924 422.86C879.501 407.86 878.501 488.86 924 478.36C928.592 477.583 928.888 477.626 930.337 476.264C932.257 474.46 933.401 471.62 932.211 469.269C931.245 467.359 929.954 467.433 927.096 469.166C926.365 469.61 925.728 470.208 925.272 470.931C922.052 476.044 925.76 476.598 931.084 480.547C931.357 480.749 931.682 480.89 932.021 480.924C955.779 483.321 974.63 412.436 924 422.86Z" stroke="black" stroke-width="4" stroke-linecap="round"></path><path d="M421 433.772C421 464.976 395.704 479.678 364.5 479.678C333.296 479.678 308 464.976 308 433.772C308 402.568 347.628 447.897 364.5 419.254C381.372 390.612 421 402.568 421 433.772Z" fill="#69F0AE"></path><path d="M354.692 518.845C365.684 504.062 368.65 492.919 368.813 468.833C368.816 468.439 368.758 468.031 368.642 467.654C363.276 450.162 355.318 445.163 330.365 447.436M375.487 447.436C379.842 436.342 385.724 435.112 398.636 436.449" stroke="black" stroke-width="4" stroke-linecap="round" stroke-linejoin="round"></path><path d="M632 435.144C632 442.858 586.16 395.894 535.902 395.894C485.644 395.894 450 442.858 450 435.144C450 427.43 485.644 367 535.902 367C586.16 367 632 427.43 632 435.144Z" fill="#7B1FA2"></path><path d="M861 435.144C861 442.858 815.16 395.894 764.902 395.894C714.644 395.894 679 442.858 679 435.144C679 427.43 714.644 367 764.902 367C815.16 367 861 427.43 861 435.144Z" fill="#FF0266"></path><path d="M481.523 558.546C477.91 547.51 482.493 539.893 492.893 545.06C522.744 559.891 590.77 602.22 665.5 602.22C742.942 602.22 800.534 557.689 823.371 544.152C830.258 540.07 834.24 545.636 833.142 553.566C824.881 613.247 757.737 690.72 665.5 690.72C574.52 690.72 503.696 626.276 481.523 558.546Z" fill="#B6671E"></path><path d="M1001.31 469C1000.42 469 999.728 468.616 999.248 467.848C998.768 467.08 998.72 466.264 999.104 465.4L1012.59 433.192C1013.07 432.072 1013.86 431.512 1014.94 431.512C1016.1 431.512 1016.88 432.072 1017.3 433.192L1030.83 465.496C1031.18 466.392 1031.12 467.208 1030.64 467.944C1030.19 468.648 1029.5 469 1028.58 469C1028.1 469 1027.63 468.872 1027.18 468.616C1026.77 468.328 1026.46 467.944 1026.27 467.464L1014.37 437.896H1015.71L1003.62 467.464C1003.39 467.976 1003.06 468.36 1002.61 468.616C1002.19 468.872 1001.76 469 1001.31 469ZM1003.86 460.744L1005.78 456.616H1024.59L1026.51 460.744H1003.86ZM1040.01 469C1039.3 469 1038.71 468.76 1038.23 468.28C1037.75 467.8 1037.51 467.208 1037.51 466.504V434.008C1037.51 433.272 1037.75 432.68 1038.23 432.232C1038.71 431.752 1039.3 431.512 1040.01 431.512H1049.61C1052.01 431.512 1054.13 432.04 1055.99 433.096C1057.85 434.152 1059.29 435.624 1060.31 437.512C1061.37 439.368 1061.89 441.512 1061.89 443.944C1061.89 446.28 1061.37 448.36 1060.31 450.184C1059.29 452.008 1057.85 453.432 1055.99 454.456C1054.13 455.48 1052.01 455.992 1049.61 455.992H1042.5V466.504C1042.5 467.208 1042.26 467.8 1041.78 468.28C1041.33 468.76 1040.74 469 1040.01 469ZM1042.5 451.384H1049.61C1051.08 451.384 1052.37 451.064 1053.49 450.424C1054.61 449.784 1055.49 448.904 1056.13 447.784C1056.77 446.664 1057.09 445.384 1057.09 443.944C1057.09 442.408 1056.77 441.064 1056.13 439.912C1055.49 438.728 1054.61 437.8 1053.49 437.128C1052.37 436.456 1051.08 436.12 1049.61 436.12H1042.5V451.384ZM1070.87 469C1070.17 469 1069.58 468.76 1069.1 468.28C1068.62 467.8 1068.38 467.208 1068.38 466.504V434.008C1068.38 433.272 1068.62 432.68 1069.1 432.232C1069.58 431.752 1070.17 431.512 1070.87 431.512H1080.47C1082.87 431.512 1085 432.04 1086.86 433.096C1088.71 434.152 1090.15 435.624 1091.18 437.512C1092.23 439.368 1092.76 441.512 1092.76 443.944C1092.76 446.28 1092.23 448.36 1091.18 450.184C1090.15 452.008 1088.71 453.432 1086.86 454.456C1085 455.48 1082.87 455.992 1080.47 455.992H1073.37V466.504C1073.37 467.208 1073.13 467.8 1072.65 468.28C1072.2 468.76 1071.61 469 1070.87 469ZM1073.37 451.384H1080.47C1081.94 451.384 1083.24 451.064 1084.36 450.424C1085.48 449.784 1086.36 448.904 1087 447.784C1087.64 446.664 1087.96 445.384 1087.96 443.944C1087.96 442.408 1087.64 441.064 1087 439.912C1086.36 438.728 1085.48 437.8 1084.36 437.128C1083.24 436.456 1081.94 436.12 1080.47 436.12H1073.37V451.384ZM1101.69 469C1100.99 469 1100.39 468.76 1099.91 468.28C1099.47 467.8 1099.24 467.208 1099.24 466.504V434.008C1099.24 433.304 1099.48 432.712 1099.96 432.232C1100.44 431.752 1101.02 431.512 1101.69 431.512C1102.39 431.512 1102.99 431.752 1103.47 432.232C1103.95 432.712 1104.19 433.304 1104.19 434.008V464.008H1121.56C1122.27 464.008 1122.86 464.248 1123.34 464.728C1123.82 465.208 1124.06 465.8 1124.06 466.504C1124.06 467.208 1123.82 467.8 1123.34 468.28C1122.86 468.76 1122.27 469 1121.56 469H1101.69ZM1133.45 469C1132.74 469 1132.15 468.776 1131.67 468.328C1131.22 467.848 1131 467.256 1131 466.552V445.192C1131 444.456 1131.22 443.864 1131.67 443.416C1132.15 442.968 1132.74 442.744 1133.45 442.744C1134.18 442.744 1134.78 442.968 1135.22 443.416C1135.67 443.864 1135.9 444.456 1135.9 445.192V466.552C1135.9 467.256 1135.67 467.848 1135.22 468.328C1134.78 468.776 1134.18 469 1133.45 469ZM1133.45 438.472C1132.58 438.472 1131.83 438.168 1131.19 437.56C1130.58 436.92 1130.28 436.168 1130.28 435.304C1130.28 434.44 1130.58 433.704 1131.19 433.096C1131.83 432.456 1132.58 432.136 1133.45 432.136C1134.31 432.136 1135.05 432.456 1135.66 433.096C1136.3 433.704 1136.62 434.44 1136.62 435.304C1136.62 436.168 1136.3 436.92 1135.66 437.56C1135.05 438.168 1134.31 438.472 1133.45 438.472ZM1157.87 469.192C1155.31 469.192 1153.02 468.616 1151 467.464C1149.02 466.28 1147.45 464.696 1146.3 462.712C1145.18 460.696 1144.62 458.424 1144.62 455.896C1144.62 453.304 1145.18 451 1146.3 448.984C1147.42 446.968 1148.96 445.4 1150.91 444.28C1152.86 443.128 1155.1 442.552 1157.63 442.552C1159.52 442.552 1161.24 442.92 1162.81 443.656C1164.38 444.36 1165.79 445.432 1167.04 446.872C1167.48 447.384 1167.64 447.912 1167.52 448.456C1167.39 449 1167.04 449.48 1166.46 449.896C1166.01 450.216 1165.52 450.328 1164.97 450.232C1164.43 450.104 1163.93 449.816 1163.48 449.368C1161.92 447.704 1159.96 446.872 1157.63 446.872C1156 446.872 1154.56 447.256 1153.31 448.024C1152.06 448.76 1151.08 449.8 1150.38 451.144C1149.68 452.488 1149.32 454.072 1149.32 455.896C1149.32 457.624 1149.68 459.16 1150.38 460.504C1151.12 461.848 1152.12 462.92 1153.4 463.72C1154.68 464.488 1156.17 464.872 1157.87 464.872C1158.99 464.872 1159.96 464.744 1160.8 464.488C1161.66 464.2 1162.44 463.768 1163.15 463.192C1163.66 462.776 1164.19 462.552 1164.73 462.52C1165.28 462.456 1165.76 462.6 1166.17 462.952C1166.72 463.4 1167.02 463.912 1167.08 464.488C1167.15 465.032 1166.96 465.528 1166.51 465.976C1164.2 468.12 1161.32 469.192 1157.87 469.192ZM1186.7 469.192C1184.36 469.192 1182.26 468.616 1180.41 467.464C1178.55 466.28 1177.08 464.696 1175.99 462.712C1174.94 460.696 1174.41 458.424 1174.41 455.896C1174.41 453.368 1174.98 451.096 1176.14 449.08C1177.32 447.064 1178.9 445.48 1180.89 444.328C1182.9 443.144 1185.16 442.552 1187.66 442.552C1190.15 442.552 1192.39 443.144 1194.38 444.328C1196.36 445.48 1197.93 447.064 1199.08 449.08C1200.26 451.096 1200.86 453.368 1200.86 455.896H1198.98C1198.98 458.424 1198.44 460.696 1197.35 462.712C1196.3 464.696 1194.84 466.28 1192.98 467.464C1191.13 468.616 1189.03 469.192 1186.7 469.192ZM1187.66 464.872C1189.29 464.872 1190.74 464.488 1192.02 463.72C1193.3 462.92 1194.31 461.848 1195.05 460.504C1195.78 459.128 1196.15 457.592 1196.15 455.896C1196.15 454.168 1195.78 452.632 1195.05 451.288C1194.31 449.912 1193.3 448.84 1192.02 448.072C1190.74 447.272 1189.29 446.872 1187.66 446.872C1186.06 446.872 1184.6 447.272 1183.29 448.072C1182.01 448.84 1180.98 449.912 1180.22 451.288C1179.48 452.632 1179.11 454.168 1179.11 455.896C1179.11 457.592 1179.48 459.128 1180.22 460.504C1180.98 461.848 1182.01 462.92 1183.29 463.72C1184.6 464.488 1186.06 464.872 1187.66 464.872ZM1198.41 469.048C1197.7 469.048 1197.11 468.824 1196.63 468.376C1196.18 467.896 1195.96 467.304 1195.96 466.6V459.256L1196.87 454.168L1200.86 455.896V466.6C1200.86 467.304 1200.62 467.896 1200.14 468.376C1199.69 468.824 1199.11 469.048 1198.41 469.048ZM1218.65 469C1217.05 469 1215.61 468.6 1214.33 467.8C1213.05 466.968 1212.05 465.848 1211.31 464.44C1210.57 463.032 1210.21 461.448 1210.21 459.688V436.792C1210.21 436.088 1210.43 435.512 1210.88 435.064C1211.33 434.616 1211.9 434.392 1212.61 434.392C1213.31 434.392 1213.89 434.616 1214.33 435.064C1214.78 435.512 1215.01 436.088 1215.01 436.792V459.688C1215.01 460.968 1215.36 462.04 1216.06 462.904C1216.77 463.768 1217.63 464.2 1218.65 464.2H1220.29C1220.86 464.2 1221.34 464.424 1221.73 464.872C1222.14 465.32 1222.35 465.896 1222.35 466.6C1222.35 467.304 1222.08 467.88 1221.53 468.328C1221.02 468.776 1220.35 469 1219.52 469H1218.65ZM1208 447.832C1207.33 447.832 1206.78 447.64 1206.37 447.256C1205.95 446.872 1205.74 446.392 1205.74 445.816C1205.74 445.176 1205.95 444.664 1206.37 444.28C1206.78 443.896 1207.33 443.704 1208 443.704H1219.09C1219.76 443.704 1220.3 443.896 1220.72 444.28C1221.13 444.664 1221.34 445.176 1221.34 445.816C1221.34 446.392 1221.13 446.872 1220.72 447.256C1220.3 447.64 1219.76 447.832 1219.09 447.832H1208ZM1232.26 469C1231.55 469 1230.96 468.776 1230.48 468.328C1230.03 467.848 1229.81 467.256 1229.81 466.552V445.192C1229.81 444.456 1230.03 443.864 1230.48 443.416C1230.96 442.968 1231.55 442.744 1232.26 442.744C1232.99 442.744 1233.58 442.968 1234.03 443.416C1234.48 443.864 1234.7 444.456 1234.7 445.192V466.552C1234.7 467.256 1234.48 467.848 1234.03 468.328C1233.58 468.776 1232.99 469 1232.26 469ZM1232.26 438.472C1231.39 438.472 1230.64 438.168 1230 437.56C1229.39 436.92 1229.09 436.168 1229.09 435.304C1229.09 434.44 1229.39 433.704 1230 433.096C1230.64 432.456 1231.39 432.136 1232.26 432.136C1233.12 432.136 1233.86 432.456 1234.46 433.096C1235.1 433.704 1235.42 434.44 1235.42 435.304C1235.42 436.168 1235.1 436.92 1234.46 437.56C1233.86 438.168 1233.12 438.472 1232.26 438.472ZM1256.68 469.192C1254.08 469.192 1251.8 468.632 1249.81 467.512C1247.83 466.36 1246.26 464.792 1245.11 462.808C1243.99 460.792 1243.43 458.488 1243.43 455.896C1243.43 453.272 1243.99 450.968 1245.11 448.984C1246.26 446.968 1247.83 445.4 1249.81 444.28C1251.8 443.128 1254.08 442.552 1256.68 442.552C1259.24 442.552 1261.51 443.128 1263.49 444.28C1265.48 445.4 1267.03 446.968 1268.15 448.984C1269.3 450.968 1269.88 453.272 1269.88 455.896C1269.88 458.488 1269.32 460.792 1268.2 462.808C1267.08 464.792 1265.52 466.36 1263.54 467.512C1261.56 468.632 1259.27 469.192 1256.68 469.192ZM1256.68 464.872C1258.34 464.872 1259.81 464.488 1261.09 463.72C1262.37 462.952 1263.36 461.896 1264.07 460.552C1264.8 459.208 1265.17 457.656 1265.17 455.896C1265.17 454.136 1264.8 452.584 1264.07 451.24C1263.36 449.864 1262.37 448.792 1261.09 448.024C1259.81 447.256 1258.34 446.872 1256.68 446.872C1255.01 446.872 1253.54 447.256 1252.26 448.024C1250.98 448.792 1249.97 449.864 1249.24 451.24C1248.5 452.584 1248.13 454.136 1248.13 455.896C1248.13 457.656 1248.5 459.208 1249.24 460.552C1249.97 461.896 1250.98 462.952 1252.26 463.72C1253.54 464.488 1255.01 464.872 1256.68 464.872ZM1300.3 469.048C1299.6 469.048 1299 468.824 1298.52 468.376C1298.08 467.896 1297.85 467.304 1297.85 466.6V454.792C1297.85 452.968 1297.52 451.48 1296.84 450.328C1296.17 449.176 1295.26 448.328 1294.11 447.784C1292.99 447.208 1291.69 446.92 1290.22 446.92C1288.88 446.92 1287.66 447.192 1286.57 447.736C1285.48 448.28 1284.62 449.016 1283.98 449.944C1283.34 450.84 1283.02 451.88 1283.02 453.064H1280C1280 451.048 1280.48 449.256 1281.44 447.688C1282.43 446.088 1283.77 444.824 1285.47 443.896C1287.16 442.968 1289.07 442.504 1291.18 442.504C1293.39 442.504 1295.36 442.984 1297.08 443.944C1298.84 444.872 1300.22 446.248 1301.21 448.072C1302.24 449.896 1302.75 452.136 1302.75 454.792V466.6C1302.75 467.304 1302.51 467.896 1302.03 468.376C1301.58 468.824 1301 469.048 1300.3 469.048ZM1280.57 469.048C1279.87 469.048 1279.28 468.824 1278.8 468.376C1278.35 467.896 1278.12 467.304 1278.12 466.6V445.192C1278.12 444.456 1278.35 443.864 1278.8 443.416C1279.28 442.968 1279.87 442.744 1280.57 442.744C1281.31 442.744 1281.9 442.968 1282.35 443.416C1282.8 443.864 1283.02 444.456 1283.02 445.192V466.6C1283.02 467.304 1282.8 467.896 1282.35 468.376C1281.9 468.824 1281.31 469.048 1280.57 469.048ZM1008.56 533C1007.15 533 1005.9 532.616 1004.82 531.848C1003.73 531.08 1002.88 530.04 1002.27 528.728C1001.66 527.384 1001.36 525.848 1001.36 524.12V497.912C1001.36 497.208 1001.58 496.632 1002.03 496.184C1002.48 495.736 1003.06 495.512 1003.76 495.512C1004.46 495.512 1005.04 495.736 1005.49 496.184C1005.94 496.632 1006.16 497.208 1006.16 497.912V524.12C1006.16 525.304 1006.38 526.28 1006.83 527.048C1007.28 527.816 1007.86 528.2 1008.56 528.2H1009.76C1010.4 528.2 1010.91 528.424 1011.3 528.872C1011.71 529.32 1011.92 529.896 1011.92 530.6C1011.92 531.304 1011.62 531.88 1011.01 532.328C1010.4 532.776 1009.62 533 1008.66 533H1008.56ZM1027.16 533.192C1024.83 533.192 1022.73 532.616 1020.87 531.464C1019.02 530.28 1017.55 528.696 1016.46 526.712C1015.4 524.696 1014.87 522.424 1014.87 519.896C1014.87 517.368 1015.45 515.096 1016.6 513.08C1017.79 511.064 1019.37 509.48 1021.35 508.328C1023.37 507.144 1025.63 506.552 1028.12 506.552C1030.62 506.552 1032.86 507.144 1034.84 508.328C1036.83 509.48 1038.39 511.064 1039.55 513.08C1040.73 515.096 1041.32 517.368 1041.32 519.896H1039.45C1039.45 522.424 1038.91 524.696 1037.82 526.712C1036.76 528.696 1035.31 530.28 1033.45 531.464C1031.59 532.616 1029.5 533.192 1027.16 533.192ZM1028.12 528.872C1029.75 528.872 1031.21 528.488 1032.49 527.72C1033.77 526.92 1034.78 525.848 1035.51 524.504C1036.25 523.128 1036.62 521.592 1036.62 519.896C1036.62 518.168 1036.25 516.632 1035.51 515.288C1034.78 513.912 1033.77 512.84 1032.49 512.072C1031.21 511.272 1029.75 510.872 1028.12 510.872C1026.52 510.872 1025.07 511.272 1023.75 512.072C1022.47 512.84 1021.45 513.912 1020.68 515.288C1019.95 516.632 1019.58 518.168 1019.58 519.896C1019.58 521.592 1019.95 523.128 1020.68 524.504C1021.45 525.848 1022.47 526.92 1023.75 527.72C1025.07 528.488 1026.52 528.872 1028.12 528.872ZM1038.87 533.048C1038.17 533.048 1037.58 532.824 1037.1 532.376C1036.65 531.896 1036.43 531.304 1036.43 530.6V523.256L1037.34 518.168L1041.32 519.896V530.6C1041.32 531.304 1041.08 531.896 1040.6 532.376C1040.15 532.824 1039.58 533.048 1038.87 533.048ZM1054.27 544.52C1053.95 544.52 1053.57 544.424 1053.12 544.232C1051.71 543.592 1051.33 542.584 1051.97 541.208L1066.61 508.136C1067.25 506.792 1068.26 506.408 1069.63 506.984C1071.07 507.592 1071.47 508.6 1070.83 510.008L1056.14 543.032C1055.76 544.024 1055.14 544.52 1054.27 544.52ZM1059.94 531.944C1059.33 532.2 1058.75 532.232 1058.21 532.04C1057.7 531.816 1057.28 531.4 1056.96 530.792L1045.97 509.912C1045.65 509.304 1045.6 508.728 1045.82 508.184C1046.08 507.608 1046.51 507.192 1047.12 506.936C1047.73 506.68 1048.3 506.664 1048.85 506.888C1049.39 507.08 1049.81 507.48 1050.1 508.088L1060.61 528.968C1060.93 529.576 1061.04 530.168 1060.94 530.744C1060.88 531.288 1060.54 531.688 1059.94 531.944ZM1087.8 533.192C1085.15 533.192 1082.78 532.632 1080.7 531.512C1078.65 530.36 1077.03 528.792 1075.85 526.808C1074.7 524.792 1074.12 522.488 1074.12 519.896C1074.12 517.272 1074.67 514.968 1075.75 512.984C1076.87 510.968 1078.41 509.4 1080.36 508.28C1082.31 507.128 1084.55 506.552 1087.08 506.552C1089.58 506.552 1091.72 507.112 1093.51 508.232C1095.31 509.32 1096.67 510.84 1097.59 512.792C1098.55 514.712 1099.03 516.936 1099.03 519.464C1099.03 520.072 1098.83 520.584 1098.41 521C1097.99 521.384 1097.47 521.576 1096.83 521.576H1077.48V517.736H1096.68L1094.71 519.08C1094.68 517.48 1094.36 516.056 1093.75 514.808C1093.15 513.528 1092.28 512.52 1091.16 511.784C1090.04 511.048 1088.68 510.68 1087.08 510.68C1085.26 510.68 1083.69 511.08 1082.38 511.88C1081.1 512.68 1080.12 513.784 1079.45 515.192C1078.78 516.568 1078.44 518.136 1078.44 519.896C1078.44 521.656 1078.84 523.224 1079.64 524.6C1080.44 525.976 1081.55 527.064 1082.95 527.864C1084.36 528.664 1085.98 529.064 1087.8 529.064C1088.79 529.064 1089.8 528.888 1090.83 528.536C1091.88 528.152 1092.73 527.72 1093.37 527.24C1093.85 526.888 1094.36 526.712 1094.91 526.712C1095.48 526.68 1095.98 526.84 1096.39 527.192C1096.94 527.672 1097.23 528.2 1097.26 528.776C1097.29 529.352 1097.03 529.848 1096.49 530.264C1095.4 531.128 1094.04 531.832 1092.41 532.376C1090.81 532.92 1089.27 533.192 1087.8 533.192ZM1108.59 516.584C1108.59 514.664 1109.05 512.952 1109.98 511.448C1110.94 509.912 1112.22 508.696 1113.82 507.8C1115.42 506.904 1117.18 506.456 1119.1 506.456C1121.02 506.456 1122.45 506.776 1123.37 507.416C1124.33 508.024 1124.7 508.76 1124.48 509.624C1124.38 510.072 1124.19 510.424 1123.9 510.68C1123.65 510.904 1123.34 511.048 1122.99 511.112C1122.64 511.176 1122.25 511.16 1121.84 511.064C1119.79 510.648 1117.95 510.616 1116.32 510.968C1114.69 511.32 1113.39 511.976 1112.43 512.936C1111.5 513.896 1111.04 515.112 1111.04 516.584H1108.59ZM1108.64 533C1107.87 533 1107.28 532.808 1106.86 532.424C1106.45 532.008 1106.24 531.4 1106.24 530.6V509.144C1106.24 508.376 1106.45 507.784 1106.86 507.368C1107.28 506.952 1107.87 506.744 1108.64 506.744C1109.44 506.744 1110.03 506.952 1110.41 507.368C1110.83 507.752 1111.04 508.344 1111.04 509.144V530.6C1111.04 531.368 1110.83 531.96 1110.41 532.376C1110.03 532.792 1109.44 533 1108.64 533Z" fill="black"></path><path d="M21.3282 465C20.6242 465 20.0322 464.76 19.5522 464.28C19.0722 463.8 18.8322 463.208 18.8322 462.504V430.008C18.8322 429.272 19.0722 428.68 19.5522 428.232C20.0322 427.752 20.6242 427.512 21.3282 427.512H43.0242C43.7602 427.512 44.3522 427.736 44.8002 428.184C45.2482 428.6 45.4722 429.16 45.4722 429.864C45.4722 430.536 45.2482 431.08 44.8002 431.496C44.3522 431.912 43.7602 432.12 43.0242 432.12H23.8242V443.784H37.6002C38.3362 443.784 38.9282 444.008 39.3762 444.456C39.8242 444.872 40.0482 445.416 40.0482 446.088C40.0482 446.76 39.8242 447.32 39.3762 447.768C38.9282 448.184 38.3362 448.392 37.6002 448.392H23.8242V462.504C23.8242 463.208 23.5842 463.8 23.1042 464.28C22.6242 464.76 22.0322 465 21.3282 465ZM55.3122 465C54.6082 465 54.0162 464.76 53.5362 464.28C53.0562 463.8 52.8162 463.208 52.8162 462.504V430.008C52.8162 429.272 53.0562 428.68 53.5362 428.232C54.0162 427.752 54.6082 427.512 55.3122 427.512C56.0482 427.512 56.6402 427.752 57.0882 428.232C57.5682 428.68 57.8082 429.272 57.8082 430.008V462.504C57.8082 463.208 57.5682 463.8 57.0882 464.28C56.6402 464.76 56.0482 465 55.3122 465ZM85.1544 465.48C82.5624 465.48 80.1304 465 77.8584 464.04C75.6184 463.048 73.6504 461.688 71.9544 459.96C70.2904 458.2 68.9784 456.152 68.0184 453.816C67.0904 451.48 66.6264 448.952 66.6264 446.232C66.6264 443.544 67.0904 441.048 68.0184 438.744C68.9784 436.408 70.2904 434.376 71.9544 432.648C73.6504 430.888 75.6184 429.512 77.8584 428.52C80.0984 427.528 82.5304 427.032 85.1544 427.032C87.6184 427.032 89.7304 427.352 91.4904 427.992C93.2824 428.632 95.0744 429.688 96.8664 431.16C97.1224 431.352 97.3144 431.56 97.4424 431.784C97.6024 431.976 97.6984 432.184 97.7304 432.408C97.7944 432.6 97.8264 432.84 97.8264 433.128C97.8264 433.736 97.6024 434.248 97.1544 434.664C96.7384 435.08 96.2104 435.304 95.5704 435.336C94.9624 435.368 94.3864 435.16 93.8424 434.712C92.6584 433.688 91.4264 432.904 90.1464 432.36C88.8984 431.816 87.2344 431.544 85.1544 431.544C83.2664 431.544 81.4904 431.928 79.8264 432.696C78.1624 433.464 76.6904 434.52 75.4104 435.864C74.1624 437.208 73.1864 438.776 72.4824 440.568C71.7784 442.328 71.4264 444.216 71.4264 446.232C71.4264 448.28 71.7784 450.2 72.4824 451.992C73.1864 453.752 74.1624 455.304 75.4104 456.648C76.6904 457.992 78.1624 459.048 79.8264 459.816C81.4904 460.552 83.2664 460.92 85.1544 460.92C86.7864 460.92 88.3224 460.648 89.7624 460.104C91.2344 459.528 92.6424 458.744 93.9864 457.752C94.5624 457.336 95.1224 457.16 95.6664 457.224C96.2424 457.256 96.7224 457.48 97.1064 457.896C97.4904 458.28 97.6824 458.824 97.6824 459.528C97.6824 459.848 97.6184 460.168 97.4904 460.488C97.3944 460.776 97.2024 461.048 96.9144 461.304C95.2184 462.712 93.3784 463.768 91.3944 464.472C89.4104 465.144 87.3304 465.48 85.1544 465.48ZM97.6824 459.528L92.8824 458.568V449.976H86.2584C85.5544 449.976 84.9624 449.768 84.4824 449.352C84.0024 448.936 83.7624 448.408 83.7624 447.768C83.7624 447.128 84.0024 446.6 84.4824 446.184C84.9624 445.768 85.5544 445.56 86.2584 445.56H95.2344C95.9704 445.56 96.5624 445.8 97.0104 446.28C97.4584 446.728 97.6824 447.32 97.6824 448.056V459.528ZM117.187 465.24C114.979 465.24 112.995 464.776 111.235 463.848C109.507 462.888 108.131 461.496 107.107 459.672C106.115 457.848 105.619 455.608 105.619 452.952V441.144C105.619 440.44 105.843 439.864 106.291 439.416C106.771 438.936 107.363 438.696 108.067 438.696C108.771 438.696 109.347 438.936 109.795 439.416C110.275 439.864 110.515 440.44 110.515 441.144V452.952C110.515 454.744 110.851 456.232 111.523 457.416C112.195 458.568 113.107 459.432 114.259 460.008C115.411 460.552 116.707 460.824 118.147 460.824C119.523 460.824 120.739 460.552 121.795 460.008C122.883 459.464 123.747 458.728 124.387 457.8C125.027 456.872 125.347 455.832 125.347 454.68H128.371C128.371 456.664 127.875 458.456 126.883 460.056C125.923 461.656 124.595 462.92 122.899 463.848C121.235 464.776 119.331 465.24 117.187 465.24ZM127.795 465C127.091 465 126.499 464.776 126.019 464.328C125.571 463.848 125.347 463.256 125.347 462.552V441.144C125.347 440.408 125.571 439.816 126.019 439.368C126.499 438.92 127.091 438.696 127.795 438.696C128.531 438.696 129.123 438.92 129.571 439.368C130.019 439.816 130.243 440.408 130.243 441.144V462.552C130.243 463.256 130.019 463.848 129.571 464.328C129.123 464.776 128.531 465 127.795 465ZM142.178 448.584C142.178 446.664 142.642 444.952 143.57 443.448C144.53 441.912 145.81 440.696 147.41 439.8C149.01 438.904 150.77 438.456 152.69 438.456C154.61 438.456 156.034 438.776 156.962 439.416C157.922 440.024 158.29 440.76 158.066 441.624C157.97 442.072 157.778 442.424 157.49 442.68C157.234 442.904 156.93 443.048 156.578 443.112C156.226 443.176 155.842 443.16 155.426 443.064C153.378 442.648 151.538 442.616 149.906 442.968C148.274 443.32 146.978 443.976 146.018 444.936C145.09 445.896 144.626 447.112 144.626 448.584H142.178ZM142.226 465C141.458 465 140.866 464.808 140.45 464.424C140.034 464.008 139.826 463.4 139.826 462.6V441.144C139.826 440.376 140.034 439.784 140.45 439.368C140.866 438.952 141.458 438.744 142.226 438.744C143.026 438.744 143.618 438.952 144.002 439.368C144.418 439.752 144.626 440.344 144.626 441.144V462.6C144.626 463.368 144.418 463.96 144.002 464.376C143.618 464.792 143.026 465 142.226 465ZM173.151 465.192C170.815 465.192 168.719 464.616 166.863 463.464C165.007 462.28 163.535 460.696 162.447 458.712C161.391 456.696 160.863 454.424 160.863 451.896C160.863 449.368 161.439 447.096 162.591 445.08C163.775 443.064 165.359 441.48 167.343 440.328C169.359 439.144 171.615 438.552 174.111 438.552C176.607 438.552 178.847 439.144 180.831 440.328C182.815 441.48 184.383 443.064 185.535 445.08C186.719 447.096 187.311 449.368 187.311 451.896H185.439C185.439 454.424 184.895 456.696 183.807 458.712C182.751 460.696 181.295 462.28 179.439 463.464C177.583 464.616 175.487 465.192 173.151 465.192ZM174.111 460.872C175.743 460.872 177.199 460.488 178.479 459.72C179.759 458.92 180.767 457.848 181.503 456.504C182.239 455.128 182.607 453.592 182.607 451.896C182.607 450.168 182.239 448.632 181.503 447.288C180.767 445.912 179.759 444.84 178.479 444.072C177.199 443.272 175.743 442.872 174.111 442.872C172.511 442.872 171.055 443.272 169.743 444.072C168.463 444.84 167.439 445.912 166.671 447.288C165.935 448.632 165.567 450.168 165.567 451.896C165.567 453.592 165.935 455.128 166.671 456.504C167.439 457.848 168.463 458.92 169.743 459.72C171.055 460.488 172.511 460.872 174.111 460.872ZM184.863 465.048C184.159 465.048 183.567 464.824 183.087 464.376C182.639 463.896 182.415 463.304 182.415 462.6V455.256L183.327 450.168L187.311 451.896V462.6C187.311 463.304 187.071 463.896 186.591 464.376C186.143 464.824 185.567 465.048 184.863 465.048ZM205.11 465C203.51 465 202.07 464.6 200.79 463.8C199.51 462.968 198.502 461.848 197.766 460.44C197.03 459.032 196.662 457.448 196.662 455.688V432.792C196.662 432.088 196.886 431.512 197.334 431.064C197.782 430.616 198.358 430.392 199.062 430.392C199.766 430.392 200.342 430.616 200.79 431.064C201.238 431.512 201.462 432.088 201.462 432.792V455.688C201.462 456.968 201.814 458.04 202.518 458.904C203.222 459.768 204.086 460.2 205.11 460.2H206.742C207.318 460.2 207.798 460.424 208.182 460.872C208.598 461.32 208.806 461.896 208.806 462.6C208.806 463.304 208.534 463.88 207.99 464.328C207.478 464.776 206.806 465 205.974 465H205.11ZM194.454 443.832C193.782 443.832 193.238 443.64 192.822 443.256C192.406 442.872 192.198 442.392 192.198 441.816C192.198 441.176 192.406 440.664 192.822 440.28C193.238 439.896 193.782 439.704 194.454 439.704H205.542C206.214 439.704 206.758 439.896 207.174 440.28C207.59 440.664 207.798 441.176 207.798 441.816C207.798 442.392 207.59 442.872 207.174 443.256C206.758 443.64 206.214 443.832 205.542 443.832H194.454ZM218.712 465C218.008 465 217.416 464.776 216.936 464.328C216.488 463.848 216.264 463.256 216.264 462.552V441.192C216.264 440.456 216.488 439.864 216.936 439.416C217.416 438.968 218.008 438.744 218.712 438.744C219.448 438.744 220.04 438.968 220.488 439.416C220.936 439.864 221.16 440.456 221.16 441.192V462.552C221.16 463.256 220.936 463.848 220.488 464.328C220.04 464.776 219.448 465 218.712 465ZM218.712 434.472C217.848 434.472 217.096 434.168 216.456 433.56C215.848 432.92 215.544 432.168 215.544 431.304C215.544 430.44 215.848 429.704 216.456 429.096C217.096 428.456 217.848 428.136 218.712 428.136C219.576 428.136 220.312 428.456 220.92 429.096C221.56 429.704 221.88 430.44 221.88 431.304C221.88 432.168 221.56 432.92 220.92 433.56C220.312 434.168 219.576 434.472 218.712 434.472ZM240.108 464.952C239.116 464.952 238.348 464.424 237.804 463.368L227.628 441.912C227.372 441.368 227.34 440.84 227.532 440.328C227.756 439.784 228.172 439.368 228.78 439.08C229.324 438.792 229.868 438.744 230.412 438.936C230.988 439.128 231.42 439.496 231.708 440.04L241.212 460.536H238.908L248.316 440.04C248.604 439.496 249.036 439.128 249.612 438.936C250.22 438.744 250.828 438.792 251.436 439.08C252.012 439.336 252.396 439.736 252.588 440.28C252.78 440.824 252.748 441.368 252.492 441.912L242.316 463.368C241.836 464.424 241.1 464.952 240.108 464.952ZM269.883 465.192C267.227 465.192 264.859 464.632 262.779 463.512C260.731 462.36 259.115 460.792 257.931 458.808C256.779 456.792 256.203 454.488 256.203 451.896C256.203 449.272 256.747 446.968 257.835 444.984C258.955 442.968 260.491 441.4 262.443 440.28C264.395 439.128 266.635 438.552 269.163 438.552C271.659 438.552 273.803 439.112 275.595 440.232C277.387 441.32 278.747 442.84 279.675 444.792C280.635 446.712 281.115 448.936 281.115 451.464C281.115 452.072 280.907 452.584 280.491 453C280.075 453.384 279.547 453.576 278.907 453.576H259.563V449.736H278.763L276.795 451.08C276.763 449.48 276.443 448.056 275.835 446.808C275.227 445.528 274.363 444.52 273.243 443.784C272.123 443.048 270.763 442.68 269.163 442.68C267.339 442.68 265.771 443.08 264.459 443.88C263.179 444.68 262.203 445.784 261.531 447.192C260.859 448.568 260.523 450.136 260.523 451.896C260.523 453.656 260.923 455.224 261.723 456.6C262.523 457.976 263.627 459.064 265.035 459.864C266.443 460.664 268.059 461.064 269.883 461.064C270.875 461.064 271.883 460.888 272.907 460.536C273.963 460.152 274.811 459.72 275.451 459.24C275.931 458.888 276.443 458.712 276.987 458.712C277.563 458.68 278.059 458.84 278.475 459.192C279.019 459.672 279.307 460.2 279.339 460.776C279.371 461.352 279.115 461.848 278.571 462.264C277.483 463.128 276.123 463.832 274.491 464.376C272.891 464.92 271.355 465.192 269.883 465.192ZM167.298 529C165.89 529 164.642 528.616 163.554 527.848C162.466 527.08 161.618 526.04 161.01 524.728C160.402 523.384 160.098 521.848 160.098 520.12V493.912C160.098 493.208 160.322 492.632 160.77 492.184C161.218 491.736 161.794 491.512 162.498 491.512C163.202 491.512 163.778 491.736 164.226 492.184C164.674 492.632 164.898 493.208 164.898 493.912V520.12C164.898 521.304 165.122 522.28 165.57 523.048C166.018 523.816 166.594 524.2 167.298 524.2H168.498C169.138 524.2 169.65 524.424 170.034 524.872C170.45 525.32 170.658 525.896 170.658 526.6C170.658 527.304 170.354 527.88 169.746 528.328C169.138 528.776 168.354 529 167.394 529H167.298ZM185.9 529.192C183.564 529.192 181.468 528.616 179.612 527.464C177.756 526.28 176.284 524.696 175.196 522.712C174.14 520.696 173.612 518.424 173.612 515.896C173.612 513.368 174.188 511.096 175.34 509.08C176.524 507.064 178.108 505.48 180.092 504.328C182.108 503.144 184.364 502.552 186.86 502.552C189.356 502.552 191.596 503.144 193.58 504.328C195.564 505.48 197.132 507.064 198.284 509.08C199.468 511.096 200.06 513.368 200.06 515.896H198.188C198.188 518.424 197.644 520.696 196.556 522.712C195.5 524.696 194.044 526.28 192.188 527.464C190.332 528.616 188.236 529.192 185.9 529.192ZM186.86 524.872C188.492 524.872 189.948 524.488 191.228 523.72C192.508 522.92 193.516 521.848 194.252 520.504C194.988 519.128 195.356 517.592 195.356 515.896C195.356 514.168 194.988 512.632 194.252 511.288C193.516 509.912 192.508 508.84 191.228 508.072C189.948 507.272 188.492 506.872 186.86 506.872C185.26 506.872 183.804 507.272 182.492 508.072C181.212 508.84 180.188 509.912 179.42 511.288C178.684 512.632 178.316 514.168 178.316 515.896C178.316 517.592 178.684 519.128 179.42 520.504C180.188 521.848 181.212 522.92 182.492 523.72C183.804 524.488 185.26 524.872 186.86 524.872ZM197.612 529.048C196.908 529.048 196.316 528.824 195.836 528.376C195.388 527.896 195.164 527.304 195.164 526.6V519.256L196.076 514.168L200.06 515.896V526.6C200.06 527.304 199.82 527.896 199.34 528.376C198.892 528.824 198.316 529.048 197.612 529.048ZM213.01 540.52C212.69 540.52 212.306 540.424 211.858 540.232C210.45 539.592 210.066 538.584 210.706 537.208L225.346 504.136C225.986 502.792 226.994 502.408 228.37 502.984C229.81 503.592 230.21 504.6 229.57 506.008L214.882 539.032C214.498 540.024 213.874 540.52 213.01 540.52ZM218.674 527.944C218.066 528.2 217.49 528.232 216.946 528.04C216.434 527.816 216.018 527.4 215.698 526.792L204.706 505.912C204.386 505.304 204.338 504.728 204.562 504.184C204.818 503.608 205.25 503.192 205.858 502.936C206.466 502.68 207.042 502.664 207.586 502.888C208.13 503.08 208.546 503.48 208.834 504.088L219.346 524.968C219.666 525.576 219.778 526.168 219.682 526.744C219.618 527.288 219.282 527.688 218.674 527.944ZM246.54 529.192C243.884 529.192 241.516 528.632 239.436 527.512C237.388 526.36 235.772 524.792 234.588 522.808C233.436 520.792 232.86 518.488 232.86 515.896C232.86 513.272 233.404 510.968 234.492 508.984C235.612 506.968 237.148 505.4 239.1 504.28C241.052 503.128 243.292 502.552 245.82 502.552C248.316 502.552 250.46 503.112 252.252 504.232C254.044 505.32 255.404 506.84 256.332 508.792C257.292 510.712 257.772 512.936 257.772 515.464C257.772 516.072 257.564 516.584 257.148 517C256.732 517.384 256.204 517.576 255.564 517.576H236.22V513.736H255.42L253.452 515.08C253.42 513.48 253.1 512.056 252.492 510.808C251.884 509.528 251.02 508.52 249.9 507.784C248.78 507.048 247.42 506.68 245.82 506.68C243.996 506.68 242.428 507.08 241.116 507.88C239.836 508.68 238.86 509.784 238.188 511.192C237.516 512.568 237.18 514.136 237.18 515.896C237.18 517.656 237.58 519.224 238.38 520.6C239.18 521.976 240.284 523.064 241.692 523.864C243.1 524.664 244.716 525.064 246.54 525.064C247.532 525.064 248.54 524.888 249.564 524.536C250.62 524.152 251.468 523.72 252.108 523.24C252.588 522.888 253.1 522.712 253.644 522.712C254.22 522.68 254.716 522.84 255.132 523.192C255.676 523.672 255.964 524.2 255.996 524.776C256.028 525.352 255.772 525.848 255.228 526.264C254.14 527.128 252.78 527.832 251.148 528.376C249.548 528.92 248.012 529.192 246.54 529.192ZM267.328 512.584C267.328 510.664 267.792 508.952 268.72 507.448C269.68 505.912 270.96 504.696 272.56 503.8C274.16 502.904 275.92 502.456 277.84 502.456C279.76 502.456 281.184 502.776 282.112 503.416C283.072 504.024 283.44 504.76 283.216 505.624C283.12 506.072 282.928 506.424 282.64 506.68C282.384 506.904 282.08 507.048 281.728 507.112C281.376 507.176 280.992 507.16 280.576 507.064C278.528 506.648 276.688 506.616 275.056 506.968C273.424 507.32 272.128 507.976 271.168 508.936C270.24 509.896 269.776 511.112 269.776 512.584H267.328ZM267.376 529C266.608 529 266.016 528.808 265.6 528.424C265.184 528.008 264.976 527.4 264.976 526.6V505.144C264.976 504.376 265.184 503.784 265.6 503.368C266.016 502.952 266.608 502.744 267.376 502.744C268.176 502.744 268.768 502.952 269.152 503.368C269.568 503.752 269.776 504.344 269.776 505.144V526.6C269.776 527.368 269.568 527.96 269.152 528.376C268.768 528.792 268.176 529 267.376 529Z" fill="black"></path><path d="M581.187 655.48C579.139 655.48 577.187 655.16 575.331 654.52C573.475 653.88 571.859 652.984 570.483 651.832C569.107 650.68 568.099 649.352 567.459 647.848C567.139 647.176 567.139 646.552 567.459 645.976C567.811 645.4 568.387 645.032 569.187 644.872C569.763 644.744 570.323 644.84 570.867 645.16C571.443 645.448 571.875 645.896 572.163 646.504C572.547 647.304 573.171 648.04 574.035 648.712C574.931 649.384 576.003 649.928 577.251 650.344C578.499 650.76 579.811 650.968 581.187 650.968C582.723 650.968 584.131 650.728 585.411 650.248C586.723 649.768 587.779 649.08 588.579 648.184C589.379 647.256 589.779 646.12 589.779 644.776C589.779 643.08 589.107 641.56 587.763 640.216C586.451 638.872 584.275 638.04 581.235 637.72C577.267 637.336 574.147 636.168 571.875 634.216C569.603 632.264 568.467 629.848 568.467 626.968C568.467 624.856 569.059 623.064 570.243 621.592C571.427 620.12 573.027 619 575.043 618.232C577.091 617.464 579.363 617.08 581.859 617.08C583.811 617.08 585.507 617.352 586.947 617.896C588.419 618.44 589.699 619.192 590.787 620.152C591.875 621.112 592.819 622.248 593.619 623.56C594.067 624.264 594.243 624.936 594.147 625.576C594.083 626.184 593.779 626.664 593.235 627.016C592.627 627.4 591.971 627.48 591.267 627.256C590.563 627.032 590.035 626.616 589.683 626.008C589.171 625.08 588.547 624.296 587.811 623.656C587.075 623.016 586.211 622.52 585.219 622.168C584.227 621.784 583.059 621.592 581.715 621.592C579.347 621.56 577.363 622.008 575.763 622.936C574.163 623.832 573.363 625.224 573.363 627.112C573.363 628.072 573.603 629 574.083 629.896C574.595 630.76 575.507 631.512 576.819 632.152C578.163 632.792 580.083 633.24 582.579 633.496C586.387 633.88 589.347 635.048 591.459 637C593.603 638.92 594.675 641.464 594.675 644.632C594.675 646.456 594.291 648.04 593.523 649.384C592.787 650.728 591.779 651.864 590.499 652.792C589.251 653.688 587.811 654.36 586.179 654.808C584.579 655.256 582.915 655.48 581.187 655.48ZM605.786 655C605.082 655 604.49 654.76 604.01 654.28C603.53 653.8 603.29 653.208 603.29 652.504V620.008C603.29 619.272 603.53 618.68 604.01 618.232C604.49 617.752 605.082 617.512 605.786 617.512C606.746 617.512 607.482 617.96 607.994 618.856L623.018 648.952H621.482L636.122 618.856C636.634 617.96 637.37 617.512 638.33 617.512C639.034 617.512 639.626 617.752 640.106 618.232C640.586 618.68 640.826 619.272 640.826 620.008V652.504C640.826 653.208 640.57 653.8 640.058 654.28C639.578 654.76 639.002 655 638.33 655C637.626 655 637.034 654.76 636.554 654.28C636.074 653.8 635.834 653.208 635.834 652.504V626.92L636.794 626.68L624.218 652.312C623.674 653.144 622.954 653.56 622.058 653.56C621.002 653.56 620.234 653.064 619.754 652.072L607.322 627.16L608.282 626.92V652.504C608.282 653.208 608.042 653.8 607.562 654.28C607.082 654.76 606.49 655 605.786 655ZM653.902 655C653.198 655 652.606 654.76 652.126 654.28C651.646 653.8 651.406 653.208 651.406 652.504V620.008C651.406 619.272 651.646 618.68 652.126 618.232C652.606 617.752 653.198 617.512 653.902 617.512C654.638 617.512 655.23 617.752 655.678 618.232C656.158 618.68 656.398 619.272 656.398 620.008V652.504C656.398 653.208 656.158 653.8 655.678 654.28C655.23 654.76 654.638 655 653.902 655ZM669.392 655C668.688 655 668.096 654.76 667.616 654.28C667.168 653.8 666.944 653.208 666.944 652.504V620.008C666.944 619.304 667.184 618.712 667.664 618.232C668.144 617.752 668.72 617.512 669.392 617.512C670.096 617.512 670.688 617.752 671.168 618.232C671.648 618.712 671.888 619.304 671.888 620.008V650.008H689.264C689.968 650.008 690.56 650.248 691.04 650.728C691.52 651.208 691.76 651.8 691.76 652.504C691.76 653.208 691.52 653.8 691.04 654.28C690.56 654.76 689.968 655 689.264 655H669.392ZM701.197 655C700.493 655 699.901 654.76 699.421 654.28C698.941 653.8 698.701 653.208 698.701 652.504V620.008C698.701 619.272 698.941 618.68 699.421 618.232C699.901 617.752 700.493 617.512 701.197 617.512H722.893C723.629 617.512 724.221 617.736 724.669 618.184C725.117 618.6 725.341 619.16 725.341 619.864C725.341 620.536 725.117 621.08 724.669 621.496C724.221 621.912 723.629 622.12 722.893 622.12H703.693V633.784H717.469C718.205 633.784 718.797 634.008 719.245 634.456C719.693 634.872 719.917 635.416 719.917 636.088C719.917 636.76 719.693 637.32 719.245 637.768C718.797 638.184 718.205 638.392 717.469 638.392H703.693V650.392H722.893C723.629 650.392 724.221 650.6 724.669 651.016C725.117 651.432 725.341 651.976 725.341 652.648C725.341 653.352 725.117 653.928 724.669 654.376C724.221 654.792 723.629 655 722.893 655H701.197ZM745.174 655.48C743.126 655.48 741.174 655.16 739.318 654.52C737.462 653.88 735.846 652.984 734.47 651.832C733.094 650.68 732.086 649.352 731.446 647.848C731.126 647.176 731.126 646.552 731.446 645.976C731.798 645.4 732.374 645.032 733.174 644.872C733.75 644.744 734.31 644.84 734.854 645.16C735.43 645.448 735.862 645.896 736.15 646.504C736.534 647.304 737.158 648.04 738.022 648.712C738.918 649.384 739.99 649.928 741.238 650.344C742.486 650.76 743.798 650.968 745.174 650.968C746.71 650.968 748.118 650.728 749.398 650.248C750.71 649.768 751.766 649.08 752.566 648.184C753.366 647.256 753.766 646.12 753.766 644.776C753.766 643.08 753.094 641.56 751.75 640.216C750.438 638.872 748.262 638.04 745.222 637.72C741.254 637.336 738.134 636.168 735.862 634.216C733.59 632.264 732.454 629.848 732.454 626.968C732.454 624.856 733.046 623.064 734.23 621.592C735.414 620.12 737.014 619 739.03 618.232C741.078 617.464 743.35 617.08 745.846 617.08C747.798 617.08 749.494 617.352 750.934 617.896C752.406 618.44 753.686 619.192 754.774 620.152C755.862 621.112 756.806 622.248 757.606 623.56C758.054 624.264 758.23 624.936 758.134 625.576C758.07 626.184 757.766 626.664 757.222 627.016C756.614 627.4 755.958 627.48 755.254 627.256C754.55 627.032 754.022 626.616 753.67 626.008C753.158 625.08 752.534 624.296 751.798 623.656C751.062 623.016 750.198 622.52 749.206 622.168C748.214 621.784 747.046 621.592 745.702 621.592C743.334 621.56 741.35 622.008 739.75 622.936C738.15 623.832 737.35 625.224 737.35 627.112C737.35 628.072 737.59 629 738.07 629.896C738.582 630.76 739.494 631.512 740.806 632.152C742.15 632.792 744.07 633.24 746.566 633.496C750.374 633.88 753.334 635.048 755.446 637C757.59 638.92 758.662 641.464 758.662 644.632C758.662 646.456 758.278 648.04 757.51 649.384C756.774 650.728 755.766 651.864 754.486 652.792C753.238 653.688 751.798 654.36 750.166 654.808C748.566 655.256 746.902 655.48 745.174 655.48Z" fill="black"></path></svg>