<svg xmlns="http://www.w3.org/2000/svg" width="512" height="512" viewBox="0 0 512 512" fill="none"><g clip-path="url(#clip0_1317_5767)"><circle cx="256" cy="256" r="247" fill="#FFDE03" stroke="black" stroke-width="18"></circle><path d="M117 356C166.5 439.5 300.5 453.5 373 356C269.162 362.18 213.015 361.163 117 356Z" fill="#E5E5E5" stroke="black" stroke-width="18" stroke-linecap="round" stroke-linejoin="round"></path><path d="M173 223.701C173 258.525 158.897 286.756 141.5 286.756C124.103 286.756 110 258.525 110 223.701C110 188.877 124.103 195.206 141.5 195.206C158.897 195.206 173 188.877 173 223.701Z" fill="black"></path><path d="M117.687 227.597C120.713 230.018 121.321 223.967 129.794 216.704C141.991 206.249 144.324 214.283 144.321 207.625C144.319 200.363 133.672 193.372 121.319 205.204C111.297 214.802 113.45 223.361 117.687 227.597Z" fill="#F8F8F8" fill-opacity="0.6"></path><path d="M337.422 223.945C337.422 258.769 323.319 287 305.922 287C288.525 287 274.422 258.769 274.422 223.945C274.422 189.121 288.525 195.45 305.922 195.45C323.319 195.45 337.422 189.121 337.422 223.945Z" fill="black"></path><path d="M283.687 228.755C286.713 231.176 287.321 225.125 295.794 217.862C307.991 207.407 310.324 215.441 310.321 208.783C310.319 201.521 299.672 194.53 287.319 206.362C277.297 215.96 279.45 224.519 283.687 228.755Z" fill="#F8F8F8" fill-opacity="0.6"></path></g><defs><clipPath id="clip0_1317_5767"><rect width="512" height="512" fill="white"></rect></clipPath></defs></svg>