<svg xmlns="http://www.w3.org/2000/svg" width="512" height="512" viewBox="0 0 512 512" fill="none"><path d="M122.232 143.843C180.791 176.925 161.272 236 94.3473 236C52.5196 236 33 207.995 33 179.286C33 124.939 113.867 37.5074 139.007 54.0488C161.272 68.6981 91.5588 126.514 122.232 143.843Z" fill="#FFDE03" stroke="black" stroke-width="18"></path><path d="M226.487 367.157C168.401 334.075 187.763 275 254.147 275C295.638 275 315 303.005 315 331.714C315 386.061 234.785 473.493 209.848 456.951C187.763 442.302 256.913 384.486 226.487 367.157Z" fill="#FFDE03" stroke="black" stroke-width="18"></path><path d="M390.487 144.157C332.401 111.075 351.763 52 418.147 52C459.638 52 479 80.0045 479 108.714C479 163.061 398.785 250.493 373.848 233.951C351.763 219.302 420.913 161.486 390.487 144.157Z" fill="#FFDE03" stroke="black" stroke-width="18"></path><path d="M126.9 205.974C126.983 205.745 127.015 205.48 126.991 205.238C125.51 190.526 99.2038 205.502 84.157 193.924C65.1503 179.299 77.8981 144.953 61.4403 147.737C37.2282 151.834 42.4699 195.478 62.3837 211.439C78.4487 224.315 119.321 227.069 126.9 205.974Z" fill="#F8F8F8" fill-opacity="0.6"></path><path d="M222.037 299.244C221.919 299.458 221.846 299.714 221.832 299.957C220.976 314.719 249.313 304.075 262.347 317.879C278.812 335.317 260.811 367.225 277.502 367.069C302.057 366.839 303.759 322.914 286.609 304.015C272.773 288.767 232.845 279.607 222.037 299.244Z" fill="#F8F8F8" fill-opacity="0.6"></path><path d="M386.037 78.2442C385.919 78.4576 385.846 78.7137 385.832 78.9569C384.976 93.7188 413.313 83.0749 426.347 96.8795C442.812 114.317 424.811 146.225 441.502 146.069C466.057 145.839 467.759 101.914 450.609 83.0146C436.773 67.7672 396.845 58.6067 386.037 78.2442Z" fill="#F8F8F8" fill-opacity="0.6"></path></svg>