<svg xmlns="http://www.w3.org/2000/svg" width="512" height="512" viewBox="0 0 512 512" fill="none"><path d="M301.335 284.736C269.384 316.687 228.037 334.618 190.672 344.613C154.864 354.192 123.303 356.324 108.468 356.764C108.907 341.928 111.039 310.368 120.618 274.559C130.613 237.194 148.545 195.847 180.496 163.896C212.446 131.946 253.794 114.014 291.159 104.019C326.967 94.44 358.528 92.308 373.363 91.8684C372.923 106.704 370.791 138.264 361.213 174.073C351.218 211.438 333.286 252.785 301.335 284.736Z" fill="#69F0AE" stroke="black" stroke-width="18"></path><path d="M295 272C340.408 272 382.529 288.676 416.172 308.16C448.419 326.835 472.346 347.782 483.165 358C472.346 368.218 448.419 389.165 416.172 407.84C382.529 427.324 340.408 444 295 444C249.592 444 207.471 427.324 173.828 407.84C141.581 389.165 117.654 368.218 106.835 358C117.654 347.782 141.581 326.835 173.828 308.16C207.471 288.676 249.592 272 295 272Z" fill="#69F0AE" stroke="black" stroke-width="18"></path><circle cx="109.5" cy="355.5" r="83.5" fill="#69F0AE" stroke="black" stroke-width="18"></circle><path d="M158.059 393.378C158.024 393.134 157.926 392.881 157.79 392.676C147.93 377.884 127.169 400.672 104 393C74.773 383.322 69.6582 344.539 52.9984 351.999C28.4892 362.974 58.7231 406.257 89.7019 417.05C114.7 425.761 161.505 417.142 158.059 393.378Z" fill="#F8F8F8" fill-opacity="0.6"></path><path d="M430.868 346.666C430.732 346.022 430.226 345.508 429.585 345.356C401.524 338.678 372.098 375.985 329.357 381.866C275.164 389.323 228.829 353.509 208.839 368.773C179.43 391.23 272.711 427.079 330.601 419.63C377.05 413.654 437.527 378.217 430.868 346.666Z" fill="#F8F8F8" fill-opacity="0.6"></path><path d="M167.405 278.337C167.865 278.809 168.567 278.973 169.19 278.759C196.475 269.4 201.398 222.141 234.374 194.321C276.186 159.048 334.49 164.543 343.223 140.956C356.071 106.256 258.075 125.828 213.134 163.072C177.074 192.955 144.91 255.233 167.405 278.337Z" fill="#F8F8F8" fill-opacity="0.6"></path></svg>