<?xml version="1.0" encoding="UTF-8"?>
<svg xmlns="http://www.w3.org/2000/svg" width="1600" height="900" viewBox="0 0 1600 900" fill="none">
  <rect x="804.684" y="384.73" width="624.316" height="315.874" rx="11.1485" fill="#F8F8F8"></rect>
  <rect x="964.164" y="263.336" width="245.267" height="111.485" rx="19.8195" stroke="black" stroke-width="22.297"></rect>
  <rect x="806.848" y="331.465" width="558.664" height="357.991" rx="19.8195" fill="#FF0266" stroke="black" stroke-width="22.297"></rect>
  <line x1="804.369" y1="466.486" x2="1376.66" y2="466.486" stroke="black" stroke-width="22.297"></line>
  <rect x="1005.04" y="428.086" width="163.511" height="70.6071" rx="14.8647" fill="black"></rect>
  <path d="M1272.82 662.153C1273.04 661.889 1273.35 661.659 1273.67 661.529C1291.78 654.065 1304.05 653.71 1312.57 653.117C1322.38 652.435 1328.33 643.895 1331.21 634.5C1337.03 615.48 1332.43 613.449 1340 591.139C1340.07 590.936 1340.18 590.714 1340.31 590.543C1345.83 583.174 1347.87 603.448 1348.49 638.295C1348.8 655.622 1334.68 669.908 1317.36 670.577C1289.48 671.655 1264.48 672.225 1272.82 662.153Z" fill="#F8F8F8" fill-opacity="0.6"></path>
  <path d="M899.527 662.294C899.309 662.03 898.991 661.8 898.675 661.67C880.562 654.206 868.298 653.851 859.769 653.257C849.968 652.575 844.01 644.035 841.134 634.64C835.312 615.621 839.909 613.589 832.341 591.279C832.272 591.077 832.159 590.855 832.031 590.684C826.511 583.315 824.472 603.589 823.851 638.436C823.542 655.763 837.668 670.048 854.984 670.718C882.864 671.796 907.86 672.366 899.527 662.294Z" fill="#F8F8F8" fill-opacity="0.6"></path>
  <path d="M876.668 359.363C876.396 359.579 876.009 359.765 875.623 359.874C869.884 361.482 865.507 362.575 862.138 363.325C850.766 365.856 843.374 371.738 840.219 379.56C835.811 390.487 839.461 392.541 832.364 406.714C832.281 406.881 832.144 407.063 831.986 407.204C826.861 411.752 824.753 400.094 823.992 379.377C823.476 365.312 840.835 353.099 861.592 352.945C876.164 352.837 883.623 353.834 876.668 359.363Z" fill="#F8F8F8" fill-opacity="0.6"></path>
  <path d="M1296.98 359.363C1297.25 359.579 1297.64 359.765 1298.02 359.874C1303.76 361.482 1308.14 362.575 1311.51 363.325C1322.88 365.856 1330.27 371.738 1333.43 379.56C1337.83 390.487 1334.18 392.541 1341.28 406.714C1341.36 406.881 1341.5 407.063 1341.66 407.204C1346.78 411.752 1348.89 400.094 1349.65 379.377C1350.17 365.312 1332.81 353.099 1312.05 352.945C1297.48 352.837 1290.02 353.834 1296.98 359.363Z" fill="#F8F8F8" fill-opacity="0.6"></path>
  <ellipse cx="440" cy="630" rx="244" ry="91" fill="#F8F8F8"></ellipse>
  <path d="M522.422 649.351L524.762 651.55L527.966 651.77C564.361 654.273 597.446 645.618 622.3 623.235C647.129 600.874 662.488 565.941 665.757 518.394C669.015 470.993 659.76 418.679 640.631 377.339C621.713 336.455 591.714 303.59 552.091 300.866L548.87 300.645L546.243 302.521C539.811 307.115 536.088 313.423 536.312 321.144C536.507 327.894 539.734 334.396 543.406 340.14C547.2 346.072 552.357 352.51 557.923 359.251C559.33 360.955 560.77 362.686 562.236 364.449C566.687 369.801 571.387 375.452 576.2 381.58C601.659 413.998 628.159 457.179 620.363 516.605L620.344 516.756L620.329 516.908C617.742 543.626 608.822 562.125 597.688 575.469C586.463 588.922 572.585 597.616 559.38 604.041C553.071 607.11 547.031 609.61 541.46 611.915L540.636 612.256C535.067 614.562 529.514 616.871 525.295 619.342C521.591 621.512 515.823 625.501 514.765 632.469C513.663 639.721 518.273 645.454 522.422 649.351Z" fill="#69F0AE" stroke="black" stroke-width="18"></path>
  <path d="M373.358 282H537.143C557.07 282 572.726 299.059 571.018 318.913L543.384 640.228C542.155 654.526 532.174 666.388 518.55 669.601C396.903 698.288 315.905 688.819 227.832 660.706C211.71 655.56 202.484 638.668 206.803 622.205C231.01 529.946 265.983 444.467 343.537 299.816C349.41 288.861 360.902 282 373.358 282Z" fill="#69F0AE" stroke="black" stroke-width="18"></path>
  <path d="M325.24 272H537.879C563.909 272 582.633 297.013 575.299 321.988L537.421 450.988C532.545 467.594 517.308 479 500.001 479H262.644C233.854 479 214.988 448.876 227.557 422.974L290.153 293.974C296.674 280.534 310.301 272 325.24 272Z" fill="#69F0AE" stroke="black" stroke-width="18"></path>
  <rect x="364.34" y="439" width="45.0364" height="80.2346" rx="11" transform="rotate(10.2961 364.34 439)" fill="#69F0AE" stroke="black" stroke-width="18"></rect>
  <path d="M348.715 455.492C342.434 435.867 305.179 454.594 283.217 434.994C255.711 410.445 290.68 375.108 272.214 378.994C253.211 382.993 231.688 428.971 260.715 455.492C284.262 477.007 351.115 462.992 348.715 455.492Z" fill="#F8F8F8" fill-opacity="0.6"></path>
  <path d="M424.187 453.488C434.843 435.851 467.722 452.59 489.684 432.989C517.191 408.44 508.129 383.994 530.129 383.996C539.626 383.997 541.214 426.966 512.186 453.488C488.639 475.003 416.629 465.996 424.187 453.488Z" fill="#F8F8F8" fill-opacity="0.6"></path>
  <path d="M580.618 348.46C578.726 352.674 572.196 354.581 592.419 375.898C617.748 402.597 610.461 413.661 629.998 417C638.433 418.441 638.403 389.248 611.651 360.509C589.95 337.194 583.097 342.941 580.618 348.46Z" fill="#F8F8F8" fill-opacity="0.6"></path>
  <path d="M365.435 491.177C365.891 488.696 369.064 487.85 371.118 489.313C375.204 492.224 379.537 492.602 386.075 490.943C388.29 490.381 390.448 492.241 390.034 494.489L387.833 506.465C387.034 510.81 382.864 513.686 378.518 512.887L369.87 511.297C365.525 510.498 362.65 506.328 363.448 501.982L365.435 491.177Z" fill="#F8F8F8" fill-opacity="0.6"></path>
</svg>
