<svg xmlns="http://www.w3.org/2000/svg" width="1920" height="1080" viewBox="0 0 1920 1080" fill="none"><circle cx="938" cy="540" r="540" fill="#FAF9FF"></circle><ellipse cx="791.747" cy="645.757" rx="190.747" ry="182.757" fill="#FFDE03"></ellipse><circle cx="793.744" cy="652.747" r="180.757" stroke="black" stroke-width="4"></circle><path d="M654.942 573.82C655.099 574.033 655.361 574.14 655.621 574.091C671.351 571.174 693.968 539.207 713.487 526.467C754.819 499.491 791.183 504.384 797.271 492.063C806.226 473.937 746.048 480.462 703.797 507.488C682.492 521.115 644.141 559.203 654.942 573.82Z" fill="#F8F8F8" fill-opacity="0.6"></path><path d="M454.5 763C781 606.501 1222.5 662.375 1428.5 745C1300 1113 693.5 1227 454.5 763Z" fill="#69F0AE"></path><path d="M457.5 773.499C784 617 1194 657 1427.5 752C1317.72 1070.33 730.24 1267.49 457.5 773.499Z" stroke="black" stroke-width="4"></path><path d="M852 929.001C833.382 926.006 814.631 917.96 806.956 907.615C801.309 900.002 809.159 891.513 818.005 888.107L1285.87 707.939C1290.87 706.013 1296.28 705.377 1301.55 706.377C1340.12 713.699 1402.65 734.665 1420.87 742.62C1424.5 744.204 1425.24 747.404 1423.75 751.066C1394.69 822.214 1370.04 858.091 1317 913.5C1283.81 943.999 1283.77 939.42 1243.54 941.47C1233.86 941.964 1225.3 947.76 1217.26 953.198L1217.03 953.353C1194.8 968.391 1153.39 972.094 1133.5 972.5C1090.54 973.378 1058.98 947.736 1022.1 932.885C1015.33 930.162 1007.81 930.543 1001 933.145C984.357 939.5 971.472 942.872 947 942.501C900.817 941.642 881.78 937.843 852 929.001Z" fill="#A29E90" fill-opacity="0.4"></path><path d="M902.344 754.111C964.066 604.219 980.533 460.566 987.62 282.798C987.837 277.367 992.343 273.067 997.778 273.151L1237.85 276.851C1243.23 276.934 1247.58 281.317 1247.7 286.703C1251.65 468.302 1265.17 586.033 1325.2 761.378C1326.79 766.03 1324.8 771.22 1320.44 773.5C1197.79 837.691 1074.85 864.808 906.532 766.594C902.233 764.086 900.449 758.713 902.344 754.111Z" fill="#845126"></path><path d="M1264.5 560.501C1288.5 709.501 1304 685.501 1319.5 765.501C1164 865 1181.66 708.311 1161 617.499C1140.34 526.688 1144 370.501 1213.5 370.5C1261.5 355.501 1238.08 396.475 1264.5 560.501Z" fill="#724723"></path><path d="M910.578 749.83C970.242 605.558 985.562 473.818 995.192 299.374C995.485 294.067 999.872 289.877 1005.19 289.877H1233.4C1238.85 289.877 1243.29 294.277 1243.41 299.722C1247.22 474.596 1259.86 594.284 1319.63 758.964C1321.36 763.739 1319.28 769.118 1314.73 771.369C1196.68 829.731 1077.35 856.679 914.772 762.335C910.457 759.831 908.671 754.44 910.578 749.83Z" stroke="black" stroke-width="4"></path><path d="M861.992 267.811C731.592 349.195 579.263 236.428 619.389 110.351C620.073 108.199 621.562 106.318 623.473 105.114C922.131 -83.0545 1275.45 31.1373 1418.56 305.754C1421.61 311.612 1418.08 318.754 1411.67 320.35C1383.81 327.294 1368.56 334.673 1339.28 306.513C1334.82 302.22 1327.56 302.42 1323.07 306.683C1250.13 375.897 968.396 419.654 877.16 271.411C874.001 266.279 867.104 264.62 861.992 267.811Z" fill="#69F0AE"></path><path d="M1307.18 246.194C1307.06 246.059 1306.92 245.954 1306.76 245.864C1275.79 228.506 1234.89 229.668 1194 293.501C1150.85 360.863 1061.45 315.532 1045.5 351.999C1031.5 384 1165 368.59 1209.5 357.499C1373.42 316.645 1324.35 264.373 1307.18 246.194Z" fill="#80CFA2"></path><path d="M1095.5 216.189C1095.4 215.757 1095.14 215.361 1094.77 215.117C1082.72 207.132 1073.37 224.68 1037.13 226.329C987.731 228.576 987.409 198.308 976.649 208.895C961.571 223.731 995.17 263.423 1022.16 266.438C1024.79 266.732 1027.42 267.052 1030.03 267.481C1057.86 272.051 1101.82 245.882 1095.5 216.189Z" fill="#80CFA2"></path><path d="M844.496 128.189C844.404 127.757 844.139 127.361 843.771 127.117C831.721 119.132 822.368 136.68 786.132 138.329C736.731 140.576 736.409 110.308 725.649 120.895C710.571 135.731 744.17 175.423 771.163 178.438C773.793 178.732 776.419 179.052 779.031 179.481C806.858 184.051 850.824 157.882 844.496 128.189Z" fill="#80CFA2"></path><path d="M1011.5 54.1888C1011.4 53.7573 1011.14 53.361 1010.77 53.1173C998.721 45.1322 989.368 62.6804 953.132 64.3289C903.731 66.5762 903.409 36.3082 892.649 46.8952C877.571 61.7308 911.17 101.423 938.163 104.438C940.793 104.732 943.419 105.052 946.031 105.481C973.858 110.051 1017.82 83.8818 1011.5 54.1888Z" fill="#80CFA2"></path><path d="M1254.5 104.189C1254.4 103.757 1254.14 103.361 1253.77 103.117C1241.72 95.1322 1232.37 112.68 1196.13 114.329C1146.73 116.576 1146.41 86.3082 1135.65 96.8952C1120.57 111.731 1154.17 151.423 1181.16 154.438C1183.79 154.732 1186.42 155.052 1189.03 155.481C1216.86 160.051 1260.82 133.882 1254.5 104.189Z" fill="#80CFA2"></path><path d="M863.088 258.97C732.951 340.899 587.601 231.472 627.886 105.351C628.574 103.2 630.065 101.317 631.975 100.113C930.458 -87.9907 1271.58 26.5514 1414.43 300.993C1417.52 306.929 1413.86 314.148 1407.24 315.17C1374.73 320.194 1364.36 318.295 1335.82 294.143C1330.9 289.978 1323.33 291.258 1319.26 296.262C1255.5 374.735 973.458 406.951 878.035 262.228C874.794 257.313 868.07 255.834 863.088 258.97Z" stroke="black" stroke-width="4"></path><path d="M808.925 251.775C810.944 252.195 812.213 254.221 811.648 256.204C807.602 270.396 802.058 278.356 791.236 283.548C782.267 287.851 769.16 286.308 760.139 284.363C757.632 281.246 756.961 277.614 757.732 273.611C760.827 257.554 778.765 247.777 795.034 249.421C799.341 249.857 803.822 250.714 808.925 251.775Z" fill="#55CA91"></path><path d="M814.691 328.391C814.691 356.967 791.235 378.752 760.881 367.714C731.905 375.993 705 353.734 705 325.158C705 296.582 724.317 260.782 760.881 280.789C806.413 258.023 814.691 299.815 814.691 328.391Z" fill="#FF0266"></path><path d="M742.944 261.473C758.127 264.21 759.462 270.519 760.19 282.859M760.19 282.859C782.347 280.547 792.157 275.767 801.855 260.896C802.762 259.505 801.955 257.653 800.323 257.345C775.88 252.731 767.446 259.711 760.19 282.859ZM760.19 282.859C698.793 262.163 697.413 373.924 760.19 359.436C767.039 358.277 766.962 358.44 769.455 356.048C771.759 353.837 773.049 350.499 771.822 347.552C770.428 344.207 768.658 344.173 764.274 346.866C763.391 347.409 762.62 348.136 762.06 349.008C757.403 356.25 762.59 356.964 770.034 362.505C770.365 362.751 770.76 362.922 771.17 362.965C803.992 366.455 830.111 268.464 760.19 282.859Z" stroke="black" stroke-width="4" stroke-linecap="round"></path><path d="M749.496 351.061C749.63 350.899 749.685 350.679 749.615 350.481C748.604 347.645 741.857 346.681 738.614 344.64C731.559 340.198 730.586 331.948 727.328 332.775C722.535 333.991 726.477 345.533 733.543 350.171C737.071 352.488 745.552 355.834 749.496 351.061Z" fill="#F8F8F8" fill-opacity="0.6"></path><path d="M656 800.5C663.812 805.513 669.209 806.354 672.5 816M672.5 816C676.222 806.387 676.054 799.063 673.5 790M672.5 816C678.972 808.667 682.719 806.082 689.5 804.5" stroke="black" stroke-width="4" stroke-linecap="round" stroke-linejoin="round"></path><path d="M1132 926.5C1139.81 931.513 1145.21 932.354 1148.5 942M1148.5 942C1152.22 932.387 1152.05 925.063 1149.5 916M1148.5 942C1154.97 934.667 1158.72 932.082 1165.5 930.5" stroke="black" stroke-width="4" stroke-linecap="round" stroke-linejoin="round"></path><path d="M790 973C799.015 977.569 800.455 982.794 802.5 992.5C804.315 983.986 807.366 981.188 816 979.5" stroke="black" stroke-width="4" stroke-linecap="round" stroke-linejoin="round"></path><path d="M1334 809C1343.01 813.569 1344.46 818.794 1346.5 828.5C1348.32 819.986 1351.37 817.188 1360 815.5" stroke="black" stroke-width="4" stroke-linecap="round" stroke-linejoin="round"></path><path d="M560.255 670.206C570.101 692.725 556.486 711.316 533.968 721.162C511.449 731.008 488.556 728.38 478.71 705.862C468.864 683.344 511.764 703.551 514.902 677.558C518.039 651.565 550.409 647.688 560.255 670.206Z" fill="#69F0AE"></path><path d="M539.248 752.523C542.508 738.418 541.146 729.449 533.708 712.093C533.552 711.73 533.337 711.382 533.079 711.083C523.727 700.243 516.399 699.181 499.16 708.667M531.722 694.429C531.364 685.049 535.221 682.305 544.961 679.196" stroke="black" stroke-width="4" stroke-linecap="round" stroke-linejoin="round"></path><path d="M1420.41 693.895C1412.1 717.024 1389.44 721.188 1366.31 712.88C1343.18 704.572 1328.34 686.939 1336.65 663.809C1344.96 640.679 1362.26 684.83 1382.4 668.091C1402.53 651.352 1428.72 670.765 1420.41 693.895Z" fill="#80CFA2"></path><path d="M1348.61 739.301C1360.67 731.287 1365.84 723.833 1372.35 706.109C1372.48 705.739 1372.57 705.337 1372.59 704.943C1373.23 690.641 1368.63 684.836 1349.59 679.892M1383.04 691.906C1389.22 684.842 1393.91 685.496 1403.12 689.925" stroke="black" stroke-width="4" stroke-linecap="round" stroke-linejoin="round"></path><path d="M1243.47 842.991L1243.98 843.471L1244.68 843.519C1258.84 844.492 1271.53 841.119 1281.01 832.581C1290.48 824.048 1296.48 810.601 1297.76 791.975C1299.04 773.38 1295.4 752.847 1287.91 736.665C1280.47 720.583 1268.92 708.206 1254.06 707.184L1253.35 707.136L1252.78 707.546C1250.58 709.117 1249.44 711.149 1249.51 713.59C1249.57 715.82 1250.65 718.096 1252.07 720.321C1253.52 722.588 1255.52 725.079 1257.73 727.764C1258.29 728.433 1258.85 729.116 1259.43 729.814C1261.21 731.946 1263.1 734.219 1265.03 736.675C1275.24 749.682 1286.11 767.298 1282.92 791.584L1282.92 791.617L1282.91 791.65C1281.86 802.583 1278.19 810.251 1273.54 815.82C1268.88 821.413 1263.13 824.993 1257.77 827.601C1255.22 828.844 1252.78 829.855 1250.57 830.769C1250.45 830.816 1250.34 830.862 1250.23 830.909C1247.98 831.839 1245.89 832.713 1244.33 833.628C1242.88 834.477 1241.22 835.729 1240.92 837.697C1240.61 839.728 1241.88 841.495 1243.47 842.991Z" fill="#80CFA2" stroke="black" stroke-width="3.927"></path><path d="M1183.08 696.452H1248.22C1257.09 696.452 1264.06 704.047 1263.3 712.887L1252.31 840.677C1251.77 847.027 1247.33 852.348 1241.2 853.793C1192.51 865.275 1160 861.485 1124.71 850.223C1117.48 847.912 1113.35 840.331 1115.28 832.961C1124.95 796.1 1138.92 761.98 1169.8 704.39C1172.42 699.506 1177.54 696.452 1183.08 696.452Z" fill="#80CFA2" stroke="black" stroke-width="3.927"></path><path d="M1163.95 692.475H1248.51C1259.95 692.475 1268.17 703.459 1264.95 714.427L1249.88 765.732C1247.74 773.024 1241.05 778.033 1233.45 778.033H1139.05C1126.41 778.033 1118.12 764.804 1123.64 753.43L1148.54 702.125C1151.4 696.223 1157.39 692.475 1163.95 692.475Z" fill="#80CFA2" stroke="black" stroke-width="3.927"></path><rect x="1179.5" y="760.51" width="17.9115" height="31.9102" rx="4.37482" transform="rotate(10.2961 1179.5 760.51)" fill="#80CFA2" stroke="black" stroke-width="3.927"></rect><path d="M1173.28 767.067C1170.78 759.262 1155.97 766.71 1147.23 758.915C1136.29 749.151 1150.2 735.097 1142.86 736.643C1135.3 738.233 1126.74 756.519 1138.28 767.067C1147.65 775.624 1174.24 770.05 1173.28 767.067Z" fill="#F8F8F8" fill-opacity="0.4"></path><path d="M1203.3 766.27C1207.54 759.256 1220.61 765.913 1229.35 758.118C1240.29 748.354 1236.68 738.632 1245.43 738.633C1249.21 738.633 1249.84 755.722 1238.3 766.27C1228.93 774.827 1200.29 771.245 1203.3 766.27Z" fill="#F8F8F8" fill-opacity="0.4"></path><path d="M1265.51 724.499C1264.76 726.175 1262.16 726.933 1270.2 735.411C1280.28 746.03 1277.38 750.43 1285.15 751.758C1288.5 752.331 1288.49 740.721 1277.85 729.291C1269.22 720.018 1266.5 722.304 1265.51 724.499Z" fill="#F8F8F8" fill-opacity="0.4"></path><path d="M1179.93 781.257C1180.11 780.271 1181.37 779.934 1182.19 780.516C1183.82 781.674 1185.54 781.824 1188.14 781.164C1189.02 780.941 1189.88 781.681 1189.71 782.575L1188.84 787.338C1188.52 789.066 1186.86 790.209 1185.13 789.892L1181.69 789.259C1179.97 788.942 1178.82 787.283 1179.14 785.555L1179.93 781.257Z" fill="#F8F8F8" fill-opacity="0.4"></path><path d="M884.509 531.625C884.898 569.476 897.764 586.546 923.588 588.204C925.555 588.33 926.991 590.203 926.472 592.105L924.909 597.836C924.653 598.777 923.93 599.543 923.014 599.879C884.539 613.989 881.437 621.829 875.057 663.96C875.02 664.205 874.95 664.457 874.854 664.685C862.522 694.218 861.516 712.405 850.028 736.698C849.243 738.356 847.131 738.917 845.552 737.983C841.825 735.779 837.155 733.222 835.158 730.129C834.66 729.359 834.778 728.383 835.25 727.596C839.659 720.248 846.279 708.226 842.5 706.338C839.088 704.633 834.22 715.296 827.277 720.64C825.605 721.926 824.196 720.684 825.14 718.796C827.799 713.476 832.827 704.577 833.531 699.814C833.708 698.617 832.655 697.824 831.678 698.538C828.201 701.078 822.821 709.825 818.683 714.658C817.223 716.363 815.553 715.226 816.271 713.1C818.105 707.677 821.174 700.73 821.885 693.91C822.095 691.897 820.093 690.686 818.632 692.086C813.589 696.918 809.727 707.07 805.671 711.71C804.473 713.081 802.587 712.263 802.138 710.498C797.808 693.461 796.732 685.397 792.5 686.337C788.58 687.644 793.387 705.266 791.716 717.389C791.404 719.657 788.734 720.137 787.399 718.276C782.988 712.128 780.291 707.12 776.757 708.572C775.898 708.925 775.491 709.882 775.622 710.802C776.186 714.746 778.73 720.809 784.261 732.818C784.417 733.157 784.638 733.47 784.908 733.729L797.5 745.837L812.309 761.141C812.436 761.272 812.549 761.415 812.647 761.569C813.918 763.566 812.166 766.158 809.813 765.906C785.655 763.321 775.992 776.039 770.164 808.9C770.058 809.501 770.141 810.141 770.399 810.695C780.568 832.497 788.225 845.027 808.039 859.135C810.335 860.769 809.458 864.473 806.658 864.794L786.327 867.127C785.206 867.256 784.244 868.005 783.879 869.073C780.311 879.518 781.392 886.024 791.679 896.974C792.201 897.529 792.923 897.859 793.683 897.899L848.716 900.77C849.536 900.813 850.303 901.19 850.837 901.814L855.41 907.149C855.795 907.598 856.31 907.925 856.879 908.084C881.834 915.066 898.446 916.398 929.099 915.872C930.254 915.852 931.312 915.169 931.761 914.104C934.721 907.08 935.319 901.753 932.326 892.214C931.719 890.279 933.062 888.242 935.087 888.149L984.623 885.855C984.873 885.843 985.131 885.864 985.377 885.915C1067.06 902.675 1104.02 867.757 1082.85 771.735C1082.43 769.849 1083.94 768.027 1085.65 767.127C1108.65 754.996 1075.93 620.359 1063.77 605.154C1063.57 604.909 1063.36 604.753 1063.09 604.593C1037.04 589.202 1021.22 582.819 990.855 577.973C990.302 577.884 989.772 577.646 989.36 577.267C986.77 574.882 985.814 572.973 985.016 570.25C984.678 569.097 985.121 567.861 986.078 567.135C994.975 560.39 1001.63 555.789 1002.82 551.121C1003.09 550.047 1003.6 548.987 1004.53 548.374C1013.3 542.543 1015.12 535.798 1014.52 521.204C1014.51 520.964 1014.53 520.712 1014.57 520.476C1018.34 501.375 1016.14 493.425 1008.44 482.463C1008.16 482.053 1007.97 481.577 1007.91 481.08C1007 473.731 1006.21 469.345 993.26 463.193C992.769 462.96 992.339 462.598 992.029 462.152C988.332 456.826 985.525 454.144 980 450.337C974.308 445.602 970.289 444.124 962.226 444.282C961.157 444.303 960.157 443.773 959.534 442.906C956.861 439.183 954.362 437.937 948.732 439.473C947.941 439.688 947.094 439.611 946.37 439.228C934.653 433.041 926.888 432.956 911.528 443.616C910.872 444.071 910.054 444.255 909.264 444.138C900.827 442.887 897.797 444.763 894.417 449.115C893.828 449.872 892.93 450.321 891.975 450.4C880.163 451.376 870.643 463.718 874 484.337C876.599 500.301 875.338 507.444 874.517 510.064C874.255 510.9 874.147 511.824 874.408 512.66C877.231 521.728 879.302 526.191 883.006 528.889C883.889 529.532 884.498 530.532 884.509 531.625Z" fill="white"></path><path d="M867.282 736.772C871.631 723.538 877.216 717.068 886.201 707.427C887.324 706.221 888.974 705.647 890.604 705.894L900.249 707.355C902.693 707.726 904.5 709.827 904.5 712.299V744.247C904.5 744.746 904.424 745.247 904.278 745.724C897.157 768.951 893.544 785.596 882.897 786.925C882.308 786.998 881.71 786.906 881.145 786.723C873.443 784.23 868.695 782.471 866.641 774.339C866.139 772.351 864.689 770.684 862.691 770.226C853.433 768.106 847.307 766.793 834.512 755.872C833.851 755.307 833.345 754.565 833.069 753.739C830.539 746.152 830.401 742.009 834.361 737.979C835.346 736.976 836.792 736.618 838.182 736.827L861.635 740.345C864.129 740.719 866.495 739.168 867.282 736.772Z" fill="#F3F3F3"></path><path d="M925.341 476.962C918.905 461.76 917.509 453.179 924.709 441.918C925.497 440.685 926.849 439.918 928.308 439.796C959.084 437.226 971.089 442.016 995 463C1010.57 476.05 1016.38 491.562 1016.01 524.769C1016 525.248 1015.93 525.738 1015.78 526.194C1009.44 546.168 999.556 555.388 985.631 567.978C984.895 568.643 984.293 569.524 984.344 570.515C984.982 582.957 1034.66 585.272 1064.21 606.067C1065.06 606.666 1065.68 607.541 1066 608.53C1087.67 675.199 1094.95 726.084 1090.6 760.783C1090.29 763.222 1088.19 765 1085.73 765H1063.21C1061.8 765 1060.45 764.414 1059.54 763.344C1054.36 757.26 1052.57 752.41 1053.53 744.468C1053.89 741.521 1051.92 738.708 1048.98 738.353C1026.3 735.621 1012.74 732.799 994.407 721.746C994.138 721.584 993.85 721.444 993.556 721.333C972.252 713.339 954.407 704.257 950.611 692.023C949.585 688.719 953.252 686.648 956.369 688.149C970.295 694.857 980.576 698.503 996.471 702.798C999.013 703.484 1001.68 702.064 1002.23 699.489C1003.88 691.786 1003.34 683.441 1001 670.999C997.112 647.769 993.402 635.393 970.576 622.596C969.878 622.204 969.265 621.653 968.82 620.987C962.435 611.434 959.102 604.957 962.945 577.39C962.98 577.135 962.997 576.866 962.994 576.609C962.82 563.123 963.517 556.749 955.139 529.454C955.048 529.158 954.925 528.86 954.784 528.585C950.26 519.782 949.543 511.608 953.599 499.018C954.352 496.684 953.433 494.108 951.301 492.895L927.453 479.326C926.51 478.79 925.764 477.961 925.341 476.962Z" fill="#F3F3F3"></path><path d="M977.254 757.051C969.372 743.029 946.747 737.829 945.921 726.671C945.708 723.79 949.149 722.678 951.69 724.053C1000.5 750.472 1029.63 761.204 1078.38 768.937C1080.53 769.278 1082.23 770.956 1082.58 773.102L1089.9 818.878C1089.97 819.291 1089.98 819.719 1089.94 820.135C1087.48 846.214 1083.18 858.424 1071.8 875.314C1071.28 876.088 1070.53 876.707 1069.68 877.079C1033.75 892.684 1016.24 891.951 987.127 886.126C986.715 886.043 986.287 886.011 985.868 886.034L937.94 888.578C934.374 888.768 932.322 892.715 934.214 895.743C934.725 896.561 934.974 897.521 934.911 898.484C934.429 905.839 933.478 909.715 931.343 913.701C930.557 915.169 929.002 916.033 927.338 916.082C900.807 916.866 885.129 916.286 859.271 909.821C858.443 909.613 857.674 909.192 857.055 908.605L850.039 901.958C849.055 901.026 847.734 900.534 846.38 900.59C826.495 901.408 814.53 901.082 793.967 897.185C793.333 897.065 792.712 896.816 792.176 896.456C779.939 888.237 780.144 882.023 784.371 869.696C785.034 867.763 786.839 866.454 788.882 866.383L813.119 865.548C814.023 865.516 814.899 865.721 815.691 866.156C821.691 869.456 848.452 884.113 852 885C854.55 885.638 856.287 883.43 857.212 881.746C857.806 880.663 858.594 879.653 859.686 879.075C872.799 872.137 879.75 874.646 889.738 878.297C892.066 879.148 894.5 877.422 894.5 874.943C894.5 873.229 895.733 871.748 897.407 871.381C953.591 859.043 969.624 833.939 1034.29 817.619C1037.59 816.787 1039.03 813.025 1036.26 811.065C1028.6 805.664 1015.97 804.068 1006.34 801.612C1003.45 800.875 1002.18 797.651 1003.52 794.989C1013.29 775.588 1004.88 790.263 977.838 757.906C977.62 757.645 977.421 757.348 977.254 757.051Z" fill="#F3F3F3"></path><path d="M808.449 798.891C809.409 793.496 809.388 787.625 815.451 783.62C817.185 782.474 818.587 780.594 818.072 778.581C817.49 776.306 816.069 773.57 812.38 768.518C811.418 767.2 811.85 765.324 813.31 764.595C814.057 764.221 814.947 764.234 815.69 764.618C841.305 777.873 857.474 781.995 884.517 786.8C886.835 787.212 889.131 785.942 890.015 783.759L898.348 763.186C900.201 758.611 906.859 759.203 907.875 764.033L911.595 781.701C912.113 784.16 914.378 785.843 916.887 785.714C946.656 784.181 972.336 791.104 1014.5 801C968.501 807.543 941.405 818.593 891.4 862.443C889.698 863.935 889.204 866.407 890.216 868.432L892.104 872.208C892.364 872.729 892.5 873.302 892.5 873.884C892.5 876.418 890.038 878.21 887.587 877.569C880.784 875.791 875.633 875.42 868.424 875.81C866.618 875.908 864.877 875.053 863.865 873.553C842.71 842.195 828.56 833.061 809.166 802.832C808.423 801.674 808.207 800.246 808.449 798.891Z" fill="#F3F3F3"></path><path d="M888.875 864.211C940.418 819.782 973.875 802.211 1014.37 802.211C1036.37 802.21 1055.87 825.712 1044.37 841.711" stroke="black" stroke-width="4" stroke-linecap="round" stroke-linejoin="round"></path><path d="M812.374 865.711C801.575 864.842 787.5 864.419 784.374 868.71C777 878.837 783.374 895.71 795.874 897.711C818.296 900.294 830.499 900.961 851.374 900.211" stroke="black" stroke-width="4" stroke-linecap="round" stroke-linejoin="round"></path><path d="M926.874 888.711C968.485 886.186 995.367 886.149 1037.37 863.711" stroke="black" stroke-width="4" stroke-linecap="round" stroke-linejoin="round"></path><path d="M981.5 883.838C1015.57 897.008 1051 890.5 1069 875.5C1094.5 849.5 1096 814.5 1082 767.5" stroke="black" stroke-width="4" stroke-linecap="round" stroke-linejoin="round"></path><path d="M809.875 766.711C790.655 760.933 784.158 769.389 773.374 792.211C760.657 828.909 800.875 858.711 849.874 883.711" stroke="black" stroke-width="4" stroke-linecap="round" stroke-linejoin="round"></path><path d="M893 879.338C880.157 875.761 866.874 874.144 858.874 878.712C851.874 882.711 847.875 901.711 856.374 907.713C864.874 913.714 927.416 919.931 930.875 914.211C934.333 908.491 936 900.838 934.875 895.211C934.114 891.407 925.5 888.338 918.5 886.838" stroke="black" stroke-width="4" stroke-linecap="round" stroke-linejoin="round"></path><path d="M842.375 791.211C867.375 817.711 870.375 845.211 891.875 872.211" stroke="black" stroke-width="4" stroke-linecap="round" stroke-linejoin="round"></path><path d="M950.374 575.212C937.89 586.305 928.877 590.129 912.406 587.072C907.096 586.087 902.258 583.292 898.783 579.16C888.201 566.576 882.983 552.38 884.375 529.211C877.869 526.671 878.928 527.632 876.874 521.212C872.487 514.094 871.873 510.316 876.874 504.212C872.265 496.69 871.089 492.587 873.874 485.712C870.203 473.172 872.486 469.336 876.874 462.712C878.875 453.212 885.414 449.691 893.374 449.712C899.959 443.452 904.016 443.333 911.374 444.212C924.685 432.366 933.875 434.211 947.875 439.213C954.838 437.091 958.621 438.902 960.375 444.212C971.406 443.202 977.875 444.212 980.874 453.212C987.375 453.212 990.439 456.47 992.374 462.712C1004.49 465.747 1007.25 471.092 1009.37 483.212C1014.67 487.162 1015.87 492.211 1014.37 496.712C1019.37 504.212 1017.67 516.264 1013.37 521.212C1017.87 528.211 1016.37 538.711 1010.87 538.711C1010.59 545.624 1009 548.103 1002.62 549.211C1002.39 556.604 1001.46 559.864 994.374 559.712C989.446 566.855 984.875 568.711 977.875 568.711C973.147 568.711 972.875 559.712 977.875 559.712C985.875 560.711 981.874 578.711 994.374 578.711C1027.14 585.211 1049 592.838 1062.87 605.211C1081.52 621.838 1098.87 754.211 1091.87 762.211C1083.37 776.211 1019.77 763.148 943.374 717.712C932.744 716.08 931.587 711.779 924.875 706.211C911.384 707.864 903.764 708.609 888.374 704.212C878.932 696.251 875.126 683.338 878.5 679.838C899.433 668.155 909.519 666.387 930.374 664.212C936.339 665.286 940.503 669.244 949.874 684.212C979.315 702.225 1007.86 705.774 1054.87 714.212L1031.87 699.711C1034.87 686.211 1038.37 656.711 1031.87 652.711C1024.37 649.21 1017.87 659.211 1024.37 661.212C1032.87 663.828 1038.48 662.375 1043.37 653.712M904.374 708.838C902.375 747.338 911.5 773.838 913.375 793.712C913.375 801.711 898.132 795.66 902.375 790.711C908.375 783.711 924.875 789.711 938.875 795.711" stroke="black" stroke-width="4" stroke-linecap="round" stroke-linejoin="round"></path><path d="M927.875 587.711C928.366 594.784 925.505 597.838 922.5 599.838C909.443 608.529 899 608.838 888 619.338C880.177 626.806 879 655.838 874 666.838" stroke="black" stroke-width="4" stroke-linecap="round" stroke-linejoin="round"></path><path d="M941.5 671.839C943.345 670.781 944.699 669.672 947 668.839M964.309 661.915C957.435 664.421 953.838 665.33 947 668.839M947 668.839C949.533 660.633 952.334 656.572 963.5 651.84L968.182 656.672L970.5 651.34C976 649.838 980.5 652.338 986.001 655.339C974.108 674.574 964.16 673.677 947 668.839Z" stroke="black" stroke-width="4" stroke-linecap="round" stroke-linejoin="round"></path><path d="M899 561.338C906.541 574.85 926.955 577.115 938 561.338C922.181 562.338 913.627 562.173 899 561.338Z" stroke="black" stroke-width="4" stroke-linecap="round" stroke-linejoin="round"></path><path d="M742.377 622.945C741.074 624.324 740.346 625.504 739.785 626.918C739.244 628.282 739.976 629.793 741.307 630.414L790.55 653.394C791.165 653.682 791.86 653.751 792.52 653.593L868.164 635.4C869.53 635.071 870.501 633.838 870.405 632.437C870.179 629.133 869.545 626.741 868.159 623.238C868.055 622.973 867.942 622.745 867.721 622.564C866.192 621.311 863.808 620.341 863.051 618.515C862.878 618.099 862.66 617.67 862.392 617.213C861.875 616.332 860.881 615.845 859.865 615.947C859.407 615.993 858.986 616.052 858.586 616.126C856.681 616.478 854.651 615.468 853.644 613.813C853.246 613.159 852.777 612.53 852.236 611.852C851.495 610.923 850.253 610.544 849.111 610.869C823.688 618.104 811.756 625.118 793.386 638.915C792.278 639.747 790.741 639.717 789.671 638.836C779.149 630.165 773.068 624.716 758.255 616.527C757.465 616.09 756.51 616.03 755.686 616.398C752.885 617.65 751.104 618.882 749.202 621.231C748.438 622.175 747.227 622.666 746.041 622.403L745.038 622.18C744.075 621.966 743.055 622.228 742.377 622.945Z" fill="#F8F8F8"></path><path d="M852 620.733C852 619.233 851.765 617.076 850 614.338C824.5 620.338 806 633.838 791 645.338C781 634.338 775.5 630.838 756 619.838C752.251 622.709 751.603 623.415 750 627.639M750 627.639C748.334 627.076 746.522 626.485 744.5 625.838C742.914 627.709 743.005 629.178 742.5 630.838M750 627.639C757.534 630.186 762.074 632.173 769.5 636.338M834 636.338C845.353 631.842 852.275 629.841 865 625.838C866.605 629.354 866.604 630.485 867 633.338M860.5 627.248C860.5 624.338 860.158 622.703 858.5 619.838C846.5 622.338 831 627.338 818 635.838" stroke="black" stroke-width="4" stroke-linecap="round" stroke-linejoin="round"></path><path d="M873.451 634.23C879.014 657.517 885.301 692.525 890.412 725.966C890.741 728.117 889.285 730.133 887.14 730.503L815.5 742.837C813.212 743.737 808.862 744.001 806 742.837C787.505 735.797 778.032 732.994 757.759 723.193C756.65 722.657 755.853 721.636 755.592 720.432C750.211 695.594 741.395 665.817 734.64 630.255C734.267 628.297 735.478 626.692 737.413 627.171C747.785 629.741 776.055 643.217 786 648.838C789.129 650.08 791.873 650.159 795 648.838C817.934 642.149 840.868 638.199 868.601 631.317C870.751 630.784 872.936 632.076 873.451 634.23Z" fill="#7B1FA2"></path><path d="M806.5 739.701L786 652.611M806.5 739.701L760 720.338L739 631.338L786 652.611M806.5 739.701C809.362 740.865 811.212 740.6 813.5 739.701M786 652.611C789.129 653.853 791.373 653.932 794.5 652.611M794.5 652.611L869.5 635.338L886 726.338L813.5 739.701M794.5 652.611L813.5 739.701" stroke="black" stroke-width="4" stroke-linejoin="round"></path><circle cx="836.249" cy="677.587" r="24.2432" transform="rotate(-11.4641 836.249 677.587)" fill="white"></circle><circle cx="836.249" cy="677.587" r="24.2432" transform="rotate(-11.4641 836.249 677.587)" stroke="#1E1E1E" stroke-width="4.80064"></circle><circle cx="836.249" cy="677.587" r="24.2432" transform="rotate(-11.4641 836.249 677.587)" stroke="black" stroke-opacity="0.2" stroke-width="4.80064"></circle><path d="M838.661 697.885L833.712 673.777" stroke="#1E1E1E" stroke-width="2.11953" stroke-linecap="round"></path><path d="M838.661 697.885L833.712 673.777" stroke="black" stroke-opacity="0.2" stroke-width="2.11953" stroke-linecap="round"></path><path d="M845.547 682.355C844.18 683.057 842.579 683.179 841.063 683.027C839.684 682.888 838.451 682.529 837.673 682.257C837.906 681.467 838.333 680.256 839.024 679.055C839.784 677.734 840.817 676.504 842.184 675.803C843.551 675.101 845.152 674.979 846.668 675.131C848.047 675.27 849.279 675.629 850.057 675.901C849.824 676.691 849.398 677.902 848.707 679.103C847.947 680.424 846.914 681.654 845.547 682.355Z" fill="#FFDE03"></path><path d="M845.547 682.355C844.18 683.057 842.579 683.179 841.063 683.027C839.684 682.888 838.451 682.529 837.673 682.257C837.906 681.467 838.333 680.256 839.024 679.055C839.784 677.734 840.817 676.504 842.184 675.803C843.551 675.101 845.152 674.979 846.668 675.131C848.047 675.27 849.279 675.629 850.057 675.901C849.824 676.691 849.398 677.902 848.707 679.103C847.947 680.424 846.914 681.654 845.547 682.355Z" stroke="#1E1E1E" stroke-width="2.11953"></path><path d="M845.547 682.355C844.18 683.057 842.579 683.179 841.063 683.027C839.684 682.888 838.451 682.529 837.673 682.257C837.906 681.467 838.333 680.256 839.024 679.055C839.784 677.734 840.817 676.504 842.184 675.803C843.551 675.101 845.152 674.979 846.668 675.131C848.047 675.27 849.279 675.629 850.057 675.901C849.824 676.691 849.398 677.902 848.707 679.103C847.947 680.424 846.914 681.654 845.547 682.355Z" stroke="black" stroke-opacity="0.2" stroke-width="2.11953"></path><path d="M825.925 684.686C827.387 684.977 828.914 684.668 830.292 684.123C831.543 683.629 832.6 682.967 833.262 682.503C832.829 681.82 832.105 680.804 831.14 679.867C830.076 678.836 828.784 677.965 827.322 677.674C825.861 677.383 824.334 677.692 822.956 678.237C821.705 678.732 820.647 679.393 819.986 679.857C820.419 680.54 821.142 681.556 822.108 682.493C823.172 683.524 824.464 684.395 825.925 684.686Z" fill="#7B1FA2"></path><path d="M825.925 684.686C827.387 684.977 828.914 684.668 830.292 684.123C831.543 683.629 832.6 682.967 833.262 682.503C832.829 681.82 832.105 680.804 831.14 679.867C830.076 678.836 828.784 677.965 827.322 677.674C825.861 677.383 824.334 677.692 822.956 678.237C821.705 678.732 820.647 679.393 819.986 679.857C820.419 680.54 821.142 681.556 822.108 682.493C823.172 683.524 824.464 684.395 825.925 684.686Z" stroke="#1E1E1E" stroke-width="2.11953"></path><path d="M825.925 684.686C827.387 684.977 828.914 684.668 830.292 684.123C831.543 683.629 832.6 682.967 833.262 682.503C832.829 681.82 832.105 680.804 831.14 679.867C830.076 678.836 828.784 677.965 827.322 677.674C825.861 677.383 824.334 677.692 822.956 678.237C821.705 678.732 820.647 679.393 819.986 679.857C820.419 680.54 821.142 681.556 822.108 682.493C823.172 683.524 824.464 684.395 825.925 684.686Z" stroke="black" stroke-opacity="0.2" stroke-width="2.11953"></path><path d="M842.842 669.977C841.699 671.624 839.923 672.72 838.12 673.439C836.449 674.105 834.835 674.416 833.872 674.553C833.663 673.603 833.389 671.982 833.428 670.183C833.47 668.243 833.875 666.196 835.018 664.549C836.161 662.901 837.937 661.805 839.739 661.086C841.41 660.42 843.025 660.11 843.988 659.972C844.196 660.923 844.471 662.543 844.432 664.342C844.39 666.282 843.985 668.329 842.842 669.977Z" fill="#FF0266"></path><path d="M842.842 669.977C841.699 671.624 839.923 672.72 838.12 673.439C836.449 674.105 834.835 674.416 833.872 674.553C833.663 673.603 833.389 671.982 833.428 670.183C833.47 668.243 833.875 666.196 835.018 664.549C836.161 662.901 837.937 661.805 839.739 661.086C841.41 660.42 843.025 660.11 843.988 659.972C844.196 660.923 844.471 662.543 844.432 664.342C844.39 666.282 843.985 668.329 842.842 669.977Z" stroke="#1E1E1E" stroke-width="2.11953"></path><path d="M842.842 669.977C841.699 671.624 839.923 672.72 838.12 673.439C836.449 674.105 834.835 674.416 833.872 674.553C833.663 673.603 833.389 671.982 833.428 670.183C833.47 668.243 833.875 666.196 835.018 664.549C836.161 662.901 837.937 661.805 839.739 661.086C841.41 660.42 843.025 660.11 843.988 659.972C844.196 660.923 844.471 662.543 844.432 664.342C844.39 666.282 843.985 668.329 842.842 669.977Z" stroke="black" stroke-opacity="0.2" stroke-width="2.11953"></path><path d="M848.319 695.934C848.329 695.986 848.341 696.17 848.068 696.526C847.797 696.881 847.323 697.296 846.626 697.726C845.242 698.583 843.178 699.379 840.766 699.868C838.355 700.357 836.144 700.428 834.535 700.179C833.726 700.053 833.127 699.856 832.74 699.635C832.35 699.413 832.288 699.239 832.278 699.187C832.267 699.135 832.256 698.951 832.529 698.594C832.8 698.24 833.274 697.825 833.97 697.394C835.355 696.538 837.419 695.741 839.83 695.252C842.242 694.763 844.453 694.693 846.062 694.942C846.871 695.067 847.469 695.265 847.857 695.486C848.247 695.708 848.308 695.882 848.319 695.934Z" fill="#69F0AE"></path><path d="M848.319 695.934C848.329 695.986 848.341 696.17 848.068 696.526C847.797 696.881 847.323 697.296 846.626 697.726C845.242 698.583 843.178 699.379 840.766 699.868C838.355 700.357 836.144 700.428 834.535 700.179C833.726 700.053 833.127 699.856 832.74 699.635C832.35 699.413 832.288 699.239 832.278 699.187C832.267 699.135 832.256 698.951 832.529 698.594C832.8 698.24 833.274 697.825 833.97 697.394C835.355 696.538 837.419 695.741 839.83 695.252C842.242 694.763 844.453 694.693 846.062 694.942C846.871 695.067 847.469 695.265 847.857 695.486C848.247 695.708 848.308 695.882 848.319 695.934Z" stroke="#1E1E1E" stroke-width="2.11953"></path><path d="M848.319 695.934C848.329 695.986 848.341 696.17 848.068 696.526C847.797 696.881 847.323 697.296 846.626 697.726C845.242 698.583 843.178 699.379 840.766 699.868C838.355 700.357 836.144 700.428 834.535 700.179C833.726 700.053 833.127 699.856 832.74 699.635C832.35 699.413 832.288 699.239 832.278 699.187C832.267 699.135 832.256 698.951 832.529 698.594C832.8 698.24 833.274 697.825 833.97 697.394C835.355 696.538 837.419 695.741 839.83 695.252C842.242 694.763 844.453 694.693 846.062 694.942C846.871 695.067 847.469 695.265 847.857 695.486C848.247 695.708 848.308 695.882 848.319 695.934Z" stroke="black" stroke-opacity="0.2" stroke-width="2.11953"></path><path d="M784.908 733.73L797.5 745.837L810.244 759.007C811.46 760.264 813.495 760.21 814.66 758.904C834.008 737.203 834.243 739.948 841 738.5C838.896 737.075 836.332 732.793 835.078 730.168C834.682 729.34 834.778 728.383 835.25 727.596C839.659 720.248 846.279 708.227 842.5 706.338C839.088 704.633 834.22 715.296 827.277 720.64C825.605 721.927 824.196 720.684 825.14 718.797C827.799 713.476 832.827 704.577 833.531 699.814C833.708 698.618 832.655 697.824 831.678 698.538C828.201 701.078 822.821 709.826 818.683 714.658C817.223 716.363 815.553 715.226 816.271 713.1C818.105 707.677 821.174 700.73 821.885 693.91C822.095 691.898 820.093 690.686 818.632 692.086C813.589 696.919 809.727 707.07 805.671 711.71C804.473 713.081 802.587 712.263 802.138 710.498C797.808 693.461 796.732 685.397 792.5 686.337C788.58 687.645 793.387 705.266 791.716 717.389C791.404 719.657 788.734 720.137 787.399 718.277C782.988 712.128 780.291 707.12 776.757 708.572C775.898 708.925 775.491 709.883 775.622 710.802C776.186 714.746 778.73 720.809 784.261 732.818C784.417 733.157 784.638 733.47 784.908 733.73Z" fill="white"></path><path d="M905 736.837C901.5 755.837 899.5 769.838 889.5 784.838C879.5 790.338 843.5 778.338 827 769.338C821.638 766.413 806.837 760.884 798.5 745.838C793 742.838 793.221 742.114 789 736.837C784.779 731.561 779.5 725.838 778 719.838C778 715.338 773.5 709.975 775.5 708.338C781 703.838 784.562 713.834 790.875 722.712C795.969 712.745 786 687.837 793 686.337C801.5 684.338 798.5 717.337 804.5 713.839C809 705.339 817 688.196 822.5 691.337C825.5 693.051 817.5 711.837 815 718.337C825.684 705.268 829.987 696.015 833 696.837C840 698.747 828.544 712.818 823.5 722.712C832.332 719.635 838.905 704.498 843.5 706.337C848.5 708.338 842.556 715.596 833 730.337M834.61 727.837C836.502 733.505 837.621 734.899 840 736.837" stroke="black" stroke-width="4" stroke-linecap="round" stroke-linejoin="round"></path><path d="M840.5 737.338L871 745.838C876.774 748.192 878.929 751.838 878.5 753.338C878.071 754.838 876.638 758.374 871 755.338C865.362 752.302 861.5 745.838 866 737.338" stroke="black" stroke-width="4" stroke-linecap="round" stroke-linejoin="round"></path><circle cx="938" cy="540" r="532" stroke="black" stroke-width="16"></circle><path d="M462.5 771.5C437.867 786.409 409.5 794.5 406.5 784.001C403.928 775.002 414.5 768.5 421 773.501C427.5 778.503 427.5 792.928 417 801C399.188 813.275 370 804 370 784.001" stroke="black" stroke-width="4" stroke-linecap="round"></path><path d="M1427.5 751.5C1452.5 761.5 1464 779 1459 793.5C1454 803.5 1439 794 1439 782.5C1439 771 1457.1 775 1470 775C1486.5 775 1490 764 1486.5 742.5" stroke="black" stroke-width="4" stroke-linecap="round"></path></svg>