<?xml version="1.0" encoding="UTF-8"?>
<svg xmlns="http://www.w3.org/2000/svg" width="1600" height="900" viewBox="0 0 1600 900" fill="none">
  <g clip-path="url(#clip0_1618_8380)">
    <circle cx="364" cy="403" r="166" fill="#FFDE03" stroke="black" stroke-width="18"></circle>
    <path d="M332.252 381.888C332.252 409.666 321.003 401.5 307.126 401.5C293.249 401.5 282 409.666 282 381.888C282 354.11 304.5 355.003 307.126 355.003C309.752 355.004 332.252 354.11 332.252 381.888Z" fill="black"></path>
    <path d="M329 374.5C320.02 374.5 312.5 380.598 312.5 391C312.5 380.654 305.148 374.5 296 374.5C305.316 374.5 312.5 369.991 312.5 358C312.5 369.991 320.02 374.5 329 374.5Z" fill="#F8F8F8" fill-opacity="0.6"></path>
    <path d="M446.252 381.888C446.252 409.666 435.003 401.5 421.126 401.5C407.249 401.5 396 409.666 396 381.888C396 354.11 418.5 355.003 421.126 355.003C423.752 355.004 446.252 354.11 446.252 381.888Z" fill="black"></path>
    <path d="M443 374.5C434.02 374.5 426.5 380.598 426.5 391C426.5 380.654 419.148 374.5 410 374.5C419.316 374.5 426.5 369.991 426.5 358C426.5 369.991 434.02 374.5 443 374.5Z" fill="#F8F8F8" fill-opacity="0.6"></path>
    <path d="M336 466.001C352.5 474.271 374 474.771 391.821 466" stroke="black" stroke-width="18" stroke-linecap="round"></path>
    <path d="M407.877 293.59C426.883 287.903 444.076 278.956 458.53 266.134C474.741 251.753 487.054 232.903 494.662 209.259C502.533 232.954 515.207 251.81 531.631 266.176C546.14 278.866 563.25 287.765 581.927 293.456C563.04 300.325 545.866 310.677 531.389 324.297C515.104 339.617 502.414 358.903 494.546 381.642C486.806 359.053 474.324 339.827 458.199 324.512C443.852 310.886 426.776 300.5 407.877 293.59Z" fill="#FF0266" stroke="black" stroke-width="18"></path>
    <path d="M194.815 514.998C205.676 510.933 215.613 505.197 224.23 497.515C234.263 488.571 242.174 477.29 247.652 463.58C253.306 477.331 261.428 488.621 271.594 497.557C280.217 505.135 290.087 510.823 300.772 514.877C289.917 519.679 279.974 526.195 271.353 534.346C261.311 543.84 253.196 555.425 247.544 568.849C241.984 555.524 234 543.986 224.067 534.505C215.526 526.354 205.649 519.823 194.815 514.998Z" fill="#FF0266" stroke="black" stroke-width="18"></path>
  </g>
  <path fill-rule="evenodd" clip-rule="evenodd" d="M799.5 774C932.877 774 1041 720.735 1041 676C1041 631.265 932.877 584 799.5 584C666.123 584 558 631.265 558 676C558 720.735 666.123 774 799.5 774ZM800 729C883.947 729 952 697.714 952 671.487C952 645.261 883.947 624 800 624C716.053 624 648 645.261 648 671.487C648 697.714 716.053 729 800 729Z" fill="#7B1FA2"></path>
  <path d="M1032 676C1032 683.53 1027.34 693.021 1015.92 703.573C1004.67 713.955 987.956 724.316 966.693 733.516C924.224 751.89 865.08 765 799.5 765V783C867.297 783 928.903 769.478 973.84 750.036C996.279 740.327 1014.93 728.984 1028.13 716.797C1041.14 704.78 1050 690.837 1050 676H1032ZM799.5 593C865.223 593 924.444 604.66 966.936 621.585C988.217 630.062 1004.89 639.699 1016.09 649.518C1027.43 659.475 1032 668.558 1032 676H1050C1050 661.074 1041.05 647.474 1027.96 635.987C1014.71 624.362 996.019 613.795 973.597 604.863C928.683 586.973 867.154 575 799.5 575V593ZM567 676C567 668.558 571.565 659.475 582.914 649.518C594.105 639.699 610.783 630.062 632.064 621.585C674.556 604.66 733.777 593 799.5 593V575C731.846 575 670.317 586.973 625.403 604.863C602.981 613.795 584.293 624.362 571.043 635.987C557.95 647.474 549 661.074 549 676H567ZM799.5 765C733.92 765 674.776 751.89 632.307 733.516C611.044 724.316 594.327 713.955 583.084 703.573C571.657 693.021 567 683.53 567 676H549C549 690.837 557.859 704.78 570.873 716.797C584.071 728.984 602.721 740.327 625.16 750.036C670.097 769.478 731.703 783 799.5 783V765ZM943 671.487C943 674.132 941.139 678.73 934.183 684.717C927.482 690.486 917.31 696.407 904.112 701.733C877.786 712.356 840.945 720 800 720V738C843.003 738 882.161 730.001 910.848 718.425C925.157 712.651 937.245 705.833 945.927 698.359C954.354 691.104 961 681.956 961 671.487H943ZM800 633C841.322 633 878.375 638.245 904.796 646.499C918.061 650.643 928.14 655.391 934.708 660.242C941.452 665.224 943 669.128 943 671.487H961C961 660.734 954.041 652.145 945.402 645.764C936.587 639.253 924.406 633.768 910.164 629.318C881.572 620.386 842.625 615 800 615V633ZM657 671.487C657 669.128 658.548 665.224 665.292 660.242C671.86 655.391 681.939 650.643 695.204 646.499C721.625 638.245 758.678 633 800 633V615C757.375 615 718.428 620.386 689.836 629.318C675.594 633.768 663.413 639.253 654.598 645.764C645.959 652.145 639 660.734 639 671.487H657ZM800 720C759.055 720 722.214 712.356 695.888 701.733C682.69 696.407 672.518 690.486 665.817 684.717C658.861 678.73 657 674.132 657 671.487H639C639 681.956 645.646 691.104 654.073 698.359C662.755 705.833 674.843 712.651 689.152 718.425C717.839 730.001 756.997 738 800 738V720Z" fill="black"></path>
  <path d="M671.001 728.002C662.5 711 651.029 725.071 605.501 695.002C585.166 681.571 608.856 652.675 592.003 654.142C591.907 654.151 591.8 654.169 591.707 654.193C574.985 658.648 572.36 685.037 591.849 702.501C612.501 722.502 676.5 743 671.001 728.002Z" fill="#F8F8F8" fill-opacity="0.6"></path>
  <circle cx="800" cy="527" r="166" fill="#FFDE03" stroke="black" stroke-width="18"></circle>
  <path d="M772 624.001C788.5 632.271 810 632.771 827.821 624" stroke="black" stroke-width="18" stroke-linecap="round"></path>
  <path d="M720 528.963C720 515.546 735.693 528.963 749.5 528.963C763.307 528.963 775.5 515.546 775.5 528.963C775.5 542.379 760 545.961 749.5 545.961C739 545.961 720 542.379 720 528.963Z" fill="black"></path>
  <path d="M825 528.963C825 515.546 840.693 528.963 854.5 528.963C868.307 528.963 880.5 515.546 880.5 528.963C880.5 542.379 865 545.961 854.5 545.961C844 545.961 825 542.379 825 528.963Z" fill="black"></path>
  <g clip-path="url(#clip1_1618_8380)">
    <circle cx="1231" cy="403" r="166" fill="#FFDE03" stroke="black" stroke-width="18"></circle>
    <path d="M1321.65 439.918C1285.22 453.767 1246.34 453.458 1213.14 448.221C1181.45 443.221 1155.53 433.821 1142.92 428.671C1148.93 416.446 1162.06 392.199 1182.42 367.411C1203.75 341.444 1232.61 315.379 1269.04 301.53C1305.47 287.681 1344.36 287.99 1377.56 293.227C1409.24 298.227 1435.17 307.627 1447.77 312.777C1441.77 325.002 1428.64 349.248 1408.28 374.037C1386.95 400.003 1358.08 426.068 1321.65 439.918Z" fill="#69F0AE" stroke="black" stroke-width="18"></path>
    <path d="M1216.9 387.45C1217.12 388.07 1217.7 388.508 1218.35 388.565C1243.32 390.744 1256.2 354.842 1292.59 344.429C1338.82 331.2 1340.67 342.783 1356.16 327.013C1378.96 303.814 1344.57 297.926 1295.12 311.607C1255.5 322.567 1207.37 360.826 1216.9 387.45Z" fill="#F8F8F8" fill-opacity="0.6"></path>
    <path d="M1106.48 361.668C1073.09 337.155 1051.02 302.213 1036.66 269.62C1022.93 238.457 1016.49 209.989 1013.91 196.119C1027.92 194.423 1057.01 192.045 1090.85 195.818C1126.25 199.764 1166.2 210.366 1199.58 234.88C1232.96 259.394 1255.04 294.335 1269.4 326.928C1283.13 358.091 1289.57 386.559 1292.14 400.429C1278.14 402.126 1249.05 404.503 1215.2 400.73C1179.81 396.784 1139.86 386.182 1106.48 361.668Z" fill="#69F0AE" stroke="black" stroke-width="18"></path>
    <path d="M1108.19 240.244C1107.91 240.796 1107.94 241.474 1108.28 241.992C1119.19 258.603 1143.95 266.814 1169.13 279.519C1201.19 295.698 1206.49 340.719 1224.87 337.436C1251.92 332.606 1222.25 268.77 1188.27 251.105C1161.03 236.941 1121.07 214.862 1108.19 240.244Z" fill="#F8F8F8" fill-opacity="0.6"></path>
    <path d="M1176.78 495.866C1190.57 508.136 1211.21 514.198 1230.69 510.353" stroke="black" stroke-width="18" stroke-linecap="round"></path>
  </g>
  <ellipse cx="364" cy="691" rx="111" ry="46" fill="#F8F8F8"></ellipse>
  <ellipse cx="1231" cy="691" rx="111" ry="46" fill="#F8F8F8"></ellipse>
  <defs>
    <clipPath id="clip0_1618_8380">
      <rect width="512" height="512" fill="white" transform="translate(108 147)"></rect>
    </clipPath>
    <clipPath id="clip1_1618_8380">
      <rect width="512" height="512" fill="white" transform="translate(975 147)"></rect>
    </clipPath>
  </defs>
</svg>
