<svg xmlns="http://www.w3.org/2000/svg" width="512" height="512" viewBox="0 0 512 512" fill="none"><circle cx="199.5" cy="317.5" r="140.5" fill="#FF0266" stroke="black" stroke-width="18"></circle><path d="M282.993 93.3152C286.505 91.3877 289.812 89.0806 292.859 86.3534C296.899 82.7379 300.333 78.5187 303.129 73.7039C306.003 78.5457 309.517 82.7775 313.616 86.3954C316.633 89.0569 319.89 91.3193 323.334 93.2187C319.775 95.4073 316.438 97.9585 313.376 100.865C309.37 104.667 305.896 109.02 303.039 113.87C300.233 109.07 296.818 104.75 292.87 100.967C289.838 98.0612 286.529 95.5082 282.993 93.3152Z" fill="#FF0266" stroke="black" stroke-width="18"></path><path d="M351.167 168.489C361.453 164.571 370.878 159.1 379.078 151.826C388.708 143.283 396.328 132.543 401.651 119.526C407.143 132.583 414.965 143.333 424.723 151.867C432.925 159.042 442.284 164.464 452.405 168.369C442.118 172.986 432.686 179.189 424.481 186.908C414.847 195.972 407.035 207.005 401.544 219.769C396.142 207.1 388.456 196.114 378.927 187.063C370.799 179.343 361.431 173.127 351.167 168.489Z" fill="#FF0266" stroke="black" stroke-width="18"></path><path d="M106.541 278.577C106.765 279.161 107.299 279.583 107.92 279.652C127.634 281.819 140.059 245.842 167.148 235.635C201.648 222.635 239.162 248.552 249.511 232.772C264.735 209.558 196.101 189.201 159.148 202.635C129.516 213.407 96.1877 251.678 106.541 278.577Z" fill="#F8F8F8" fill-opacity="0.6"></path></svg>