<svg xmlns="http://www.w3.org/2000/svg" width="800" height="800" viewBox="0 0 800 800" fill="none"><path d="M367.985 161.865C365.937 163.749 363.347 165.356 359.897 166.877C353.403 169.742 348 174.899 346.349 181.801C326.241 265.895 327.849 327.679 352.97 418.983C356.594 432.156 372.174 437.591 383.398 429.802L465.969 372.493C471.045 368.97 474.308 363.303 474.275 357.125C474.152 334.044 468.704 314.407 462.245 295.561C456.616 279.141 470.971 267.986 486.935 274.802C491.056 276.561 495.281 278.038 499.576 279.049C508.138 281.064 515.737 274.624 517.615 266.03C525.301 230.846 526.239 206.054 524.16 172.024C523.509 161.372 531.625 153.07 541.037 148.041C542.97 147.008 544.662 145.822 546.259 144.448C550.293 140.976 551.785 135.461 551.204 130.17C549.446 114.151 546.871 104.66 541.41 96.7325C538.285 92.1966 532.758 90.1559 527.251 90.2745C501.701 90.8246 486.287 92.0531 473.409 95.0728C465.137 97.0124 456.378 94.6527 450.023 89.0129C432.885 73.8034 414.758 70.2899 393.002 72.6868C391.264 72.8782 389.555 73.3203 387.969 74.0552C361.895 86.136 353.371 113.88 368.438 143.855C371.426 149.799 372.882 157.361 367.985 161.865Z" fill="#F8F8F8"></path><path d="M432.667 552.431L435.553 552.6L435.553 552.6L432.667 552.431ZM419.691 655.12L416.846 654.611L416.846 654.611L419.691 655.12ZM466.461 712.774L463.684 713.578L463.684 713.578L466.461 712.774ZM468.655 720.35L471.432 719.546L471.432 719.546L468.655 720.35ZM465.861 724.816L466.303 727.673L466.303 727.673L465.861 724.816ZM372.096 724.352L371.908 727.237L371.908 727.237L372.096 724.352ZM381.572 637.192L384.457 636.995L384.457 636.995L381.572 637.192ZM389.698 548.026L392.495 548.76L392.495 548.76L389.698 548.026ZM389.807 546.813L392.688 546.579L392.688 546.579L389.807 546.813ZM381.689 447.05L384.57 446.815L384.57 446.815L381.689 447.05ZM381.171 445.46L378.7 446.962L378.7 446.962L381.171 445.46ZM372.578 373.153C373.181 371.675 372.471 369.987 370.993 369.384C369.514 368.781 367.827 369.491 367.224 370.969L372.578 373.153ZM463.52 346.208C463.412 344.615 462.033 343.411 460.44 343.519C458.847 343.627 457.643 345.006 457.751 346.599L463.52 346.208ZM432.811 551.61L430.04 550.784L430.04 550.784L432.811 551.61ZM476.058 528.412L478.929 528.069L478.929 528.069L476.058 528.412ZM475.865 530.07L478.58 531.064L478.58 531.064L475.865 530.07ZM432.838 647.5L435.553 648.495L435.553 648.495L432.838 647.5ZM432.676 648.332L435.566 648.428L435.566 648.428L432.676 648.332ZM450.241 688.32L452.108 686.112L452.108 686.112L450.241 688.32ZM419.885 657.076L417.195 658.137L417.195 658.137L419.885 657.076ZM455.591 701.54L454.574 704.246L454.574 704.246L455.591 701.54ZM368.824 721.368L365.964 721.793L365.964 721.793L368.824 721.368ZM371.037 685.364L373.815 686.165L373.85 686.042L373.875 685.916L371.037 685.364ZM355.324 687.189L352.895 688.758L352.895 688.758L355.324 687.189ZM381.419 638.513L384.181 639.368L384.181 639.368L381.419 638.513ZM355.287 683.517L357.76 685.014L357.76 685.014L355.287 683.517ZM372.262 168.156L374.71 169.694L374.719 169.68L374.728 169.665L372.262 168.156ZM379.843 155.763L377.399 154.219L377.387 154.237L377.376 154.255L379.843 155.763ZM379.988 152.18L377.419 153.506L377.419 153.506L379.988 152.18ZM384.903 84.1242L386.675 86.4083L386.675 86.4083L384.903 84.1242ZM385.453 83.7751L384.153 81.1926L384.153 81.1926L385.453 83.7751ZM449.63 109.829L446.848 110.615L446.848 110.615L449.63 109.829ZM449.084 128.101L451.245 126.181L451.245 126.181L449.084 128.101ZM453.234 132.769L455.395 130.848L455.394 130.848L453.234 132.769ZM452.74 134.24L453.288 137.078L453.288 137.078L452.74 134.24ZM449.045 134.953L448.497 132.115L448.497 132.115L449.045 134.953ZM446.166 138.431L449.057 138.452L449.057 138.452L446.166 138.431ZM446.019 158.858L443.128 158.837L443.128 158.837L446.019 158.858ZM444.254 161.902L442.827 159.387L442.827 159.387L444.254 161.902ZM428.119 166.282L428.118 163.391L428.118 163.391L428.119 166.282ZM425.932 167.008L427.709 169.288L427.709 169.288L425.932 167.008ZM418.352 176.16L415.737 174.927L415.737 174.927L418.352 176.16ZM415.192 178.343L415.33 181.231L415.33 181.231L415.192 178.343ZM409.707 178.606L409.845 181.494L409.845 181.494L409.707 178.606ZM490.145 234.208L488.382 236.5C489.314 237.216 490.586 237.297 491.601 236.706C492.616 236.114 493.172 234.967 493.007 233.804L490.145 234.208ZM480.598 219.702L477.762 219.145L477.406 220.957L478.899 222.042L480.598 219.702ZM492.485 172.956L489.595 173.026L489.595 173.026L492.485 172.956ZM492.19 171.611L489.537 172.761L489.537 172.761L492.19 171.611ZM484.359 147.297L481.536 147.921L481.536 147.921L484.359 147.297ZM484.282 146.294L481.396 146.115L481.396 146.116L484.282 146.294ZM489.491 116.206L492.079 117.495L492.079 117.495L489.491 116.206ZM491.051 114.677L492.277 117.295L492.277 117.295L491.051 114.677ZM514.243 123.566L517.112 123.208L517.112 123.208L514.243 123.566ZM512.832 169.107L515.676 168.586L515.676 168.586L512.832 169.107ZM506.13 262.732L508.986 263.181L508.986 263.181L506.13 262.732ZM444.649 259.164L447.517 258.805L447.311 257.159L445.786 256.507L444.649 259.164ZM457.615 346.329C457.684 347.925 459.032 349.163 460.627 349.095C462.222 349.026 463.461 347.678 463.392 346.083L457.615 346.329ZM361.471 349.837C361.988 351.348 363.631 352.154 365.142 351.637C366.653 351.121 367.459 349.477 366.942 347.966L361.471 349.837ZM449.753 110.811L446.863 110.76L446.863 110.76L449.753 110.811ZM449.613 118.688L452.504 118.74L452.504 118.74L449.613 118.688ZM449.548 119.229L452.369 119.861L452.369 119.861L449.548 119.229ZM448.268 124.939L451.089 125.571L451.089 125.571L448.268 124.939ZM514.205 124.617L517.046 125.153L517.046 125.153L514.205 124.617ZM512.176 139.595L515.059 139.809L515.059 139.809L512.176 139.595ZM512.225 140.337L509.394 140.922L509.394 140.922L512.225 140.337ZM512.865 167.604L510.045 166.968L510.045 166.968L512.865 167.604ZM502.63 265.706L502.585 268.596L502.585 268.596L502.63 265.706ZM420.832 239.876L422.319 237.397C421.182 236.714 419.725 236.894 418.787 237.832C417.849 238.77 417.67 240.227 418.353 241.364L420.832 239.876ZM411.435 173.077L409.665 175.363L409.665 175.363L411.435 173.077ZM452.158 204.735L450.268 206.923L450.323 206.97L450.381 207.015L452.158 204.735ZM463.395 143.003C463.382 141.407 462.077 140.123 460.48 140.136C458.883 140.15 457.6 141.455 457.613 143.051L463.395 143.003ZM406.544 174.938L409.384 175.481L409.384 175.481L406.544 174.938ZM471.949 219.702L470.174 221.985L470.174 221.985L471.949 219.702ZM354.355 192.442C353.586 193.841 354.098 195.599 355.497 196.367C356.897 197.136 358.655 196.625 359.423 195.225L354.355 192.442ZM350.016 215.012C350.59 213.522 349.848 211.848 348.358 211.274C346.868 210.7 345.195 211.443 344.621 212.932L350.016 215.012ZM460.489 159.318L457.734 158.44L460.489 159.318ZM460.632 158.375L463.523 158.351L460.632 158.375ZM429.781 552.262C427.196 596.324 423.494 617.5 416.846 654.611L422.537 655.63C429.201 618.432 432.949 596.998 435.553 552.6L429.781 552.262ZM463.684 713.578L465.878 721.155L471.432 719.546L469.238 711.97L463.684 713.578ZM465.42 721.958C445.323 725.062 422.575 724.746 372.285 721.467L371.908 727.237C422.133 730.511 445.49 730.887 466.303 727.673L465.42 721.958ZM384.457 636.995C382.256 604.654 382.8 585.711 392.495 548.76L386.902 547.293C377.021 584.954 376.453 604.539 378.688 637.388L384.457 636.995ZM392.688 546.579L384.57 446.815L378.807 447.284L386.925 547.047L392.688 546.579ZM383.642 443.959C374.899 429.571 369.383 418.868 367.379 408.306C365.403 397.887 366.801 387.315 372.578 373.153L367.224 370.969C361.167 385.818 359.454 397.552 361.698 409.383C363.915 421.072 369.951 432.562 378.7 446.962L383.642 443.959ZM457.751 346.599C459.309 369.601 460.794 399.884 459.932 417.174L465.707 417.462C466.589 399.784 465.075 369.176 463.52 346.208L457.751 346.599ZM459.932 417.174C457.087 474.232 443.125 506.852 430.04 550.784L435.581 552.435C448.532 508.955 462.817 475.414 465.707 417.462L459.932 417.174ZM459.949 417.66L473.188 528.754L478.929 528.069L465.69 416.976L459.949 417.66ZM473.15 529.075L430.123 646.506L435.553 648.495L478.58 531.064L473.15 529.075ZM429.787 648.236C429.472 657.75 430.428 665.316 433.415 672.083C436.404 678.855 441.302 684.546 448.374 690.527L452.108 686.112C445.398 680.438 441.206 675.416 438.705 669.749C436.201 664.077 435.266 657.477 435.566 648.428L429.787 648.236ZM417.195 658.137C428.072 685.723 437.163 696.46 450.562 702.586L452.966 697.327C441.605 692.133 433.255 683.106 422.574 656.016L417.195 658.137ZM450.562 702.586C451.868 703.183 453.205 703.731 454.574 704.246L456.608 698.833C455.346 698.359 454.135 697.861 452.966 697.327L450.562 702.586ZM371.683 720.942C370.543 713.283 370.163 707.012 370.899 700.27L365.151 699.643C364.343 707.043 364.781 713.843 365.964 721.793L371.683 720.942ZM370.899 700.27C371.368 695.973 372.297 691.428 373.815 686.165L368.259 684.563C366.669 690.078 365.663 694.953 365.151 699.643L370.899 700.27ZM369.724 697.617C363.255 692.917 360.626 690.069 357.752 685.62L352.895 688.758C356.233 693.925 359.407 697.268 366.325 702.295L369.724 697.617ZM373.875 685.916C376.727 671.259 377.986 662.771 380.483 652.604L374.868 651.225C372.328 661.568 370.996 670.435 368.199 684.812L373.875 685.916ZM380.483 652.604C381.467 648.598 382.642 644.341 384.181 639.368L378.657 637.658C377.087 642.731 375.881 647.1 374.868 651.225L380.483 652.604ZM357.76 685.014C363.586 675.385 369.293 667.676 379.975 653.667L375.377 650.161C364.7 664.164 358.818 672.096 352.813 682.021L357.76 685.014ZM357.752 685.62C357.651 685.463 357.632 685.225 357.76 685.014L352.813 682.021C351.571 684.073 351.561 686.692 352.895 688.758L357.752 685.62ZM384.57 446.815C384.487 445.795 384.164 444.818 383.642 443.959L378.7 446.962C378.764 447.066 378.798 447.178 378.807 447.284L384.57 446.815ZM392.495 548.76C392.678 548.06 392.748 547.317 392.688 546.579L386.925 547.047C386.931 547.119 386.924 547.207 386.902 547.293L392.495 548.76ZM378.688 637.388C378.694 637.48 378.683 637.576 378.657 637.658L384.181 639.368C384.419 638.6 384.511 637.791 384.457 636.995L378.688 637.388ZM372.285 721.467C371.96 721.446 371.722 721.199 371.683 720.942L365.964 721.793C366.414 724.816 368.941 727.044 371.908 727.237L372.285 721.467ZM465.878 721.155C466.001 721.578 465.72 721.912 465.42 721.958L466.303 727.673C470.175 727.075 472.49 723.198 471.432 719.546L465.878 721.155ZM448.374 690.527C450.741 692.529 451.161 695.922 449.444 698.232L454.085 701.681C457.757 696.741 456.63 689.936 452.108 686.112L448.374 690.527ZM469.238 711.97C467.411 705.658 462.469 701.036 456.608 698.833L454.574 704.246C459.004 705.911 462.441 709.284 463.684 713.578L469.238 711.97ZM430.123 646.506C429.92 647.06 429.806 647.648 429.787 648.236L435.566 648.428C435.565 648.442 435.564 648.453 435.562 648.461C435.561 648.47 435.558 648.481 435.553 648.495L430.123 646.506ZM416.846 654.611C416.635 655.785 416.755 657.02 417.195 658.137L422.574 656.016C422.53 655.904 422.515 655.757 422.537 655.63L416.846 654.611ZM473.188 528.754C473.201 528.863 473.188 528.973 473.15 529.075L478.58 531.064C478.93 530.107 479.05 529.081 478.929 528.069L473.188 528.754ZM435.553 552.6C435.556 552.543 435.567 552.482 435.581 552.435L430.04 550.784C429.896 551.266 429.81 551.768 429.781 552.262L435.553 552.6ZM374.728 169.665L382.309 157.272L377.376 154.255L369.796 166.648L374.728 169.665ZM382.558 150.855C374.163 134.577 369.384 123.142 369.496 113.481C369.603 104.234 374.251 96.0494 386.675 86.4083L383.131 81.8401C370.006 92.0244 363.85 101.682 363.714 113.414C363.583 124.732 369.12 137.413 377.419 153.506L382.558 150.855ZM386.753 86.3575C397.594 80.9013 411.078 81.4087 422.766 86.2193C434.474 91.0381 443.834 99.9418 446.848 110.615L452.412 109.043C448.785 96.1975 437.811 86.1586 424.967 80.8722C412.103 75.5777 396.82 74.8174 384.153 81.1926L386.753 86.3575ZM446.923 130.022L451.073 134.69L455.394 130.848L451.245 126.181L446.923 130.022ZM452.191 131.401L448.497 132.115L449.594 137.792L453.288 137.078L452.191 131.401ZM443.275 138.41L443.128 158.837L448.91 158.879L449.057 138.452L443.275 138.41ZM442.827 159.387C440.332 160.802 438.335 161.772 436.162 162.41C434.004 163.045 431.54 163.39 428.118 163.391L428.12 169.173C431.947 169.172 434.982 168.784 437.793 167.958C440.591 167.136 443.035 165.916 445.68 164.417L442.827 159.387ZM424.155 164.727C420.04 167.932 417.76 170.636 415.737 174.927L420.967 177.393C422.547 174.042 424.196 172.024 427.709 169.288L424.155 164.727ZM415.053 175.455L409.568 175.718L409.845 181.494L415.33 181.231L415.053 175.455ZM493.007 233.804C492.527 230.404 491.743 227.546 489.999 224.842C488.285 222.183 485.788 219.899 482.297 217.363L478.899 222.042C482.169 224.416 483.996 226.201 485.139 227.975C486.254 229.703 486.863 231.643 487.282 234.612L493.007 233.804ZM483.435 220.26C485.063 211.972 488.015 205.015 490.688 197.477C493.33 190.025 495.602 182.222 495.375 172.886L489.595 173.026C489.795 181.299 487.805 188.307 485.238 195.545C482.702 202.697 479.497 210.307 477.762 219.145L483.435 220.26ZM487.167 146.473C488.272 128.629 488.781 124.116 492.079 117.495L486.903 114.917C482.994 122.764 482.487 128.488 481.396 146.115L487.167 146.473ZM492.277 117.295C497.94 114.644 502.521 114.113 505.617 115.149C508.406 116.082 510.702 118.545 511.374 123.925L517.112 123.208C516.243 116.257 512.897 111.488 507.452 109.665C502.313 107.946 496.069 109.135 489.825 112.058L492.277 117.295ZM509.988 169.629C517.977 213.166 507.951 232.567 503.274 262.282L508.986 263.181C513.479 234.634 523.901 213.413 515.676 168.586L509.988 169.629ZM441.78 259.523C443.217 271.006 446.869 284.023 450.243 298.267C453.646 312.628 456.856 328.544 457.615 346.329L463.392 346.083C462.61 327.756 459.304 311.427 455.87 296.934C452.408 282.322 448.903 269.874 447.517 258.805L441.78 259.523ZM446.863 110.76L446.722 118.637L452.504 118.74L452.644 110.862L446.863 110.76ZM446.727 118.596L445.447 124.307L451.089 125.571L452.369 119.861L446.727 118.596ZM511.364 124.081C510.318 129.63 509.653 134.523 509.292 139.381L515.059 139.809C515.401 135.2 516.033 130.525 517.046 125.153L511.364 124.081ZM509.394 140.922C511.401 150.641 511.968 158.44 510.045 166.968L515.685 168.24C517.86 158.598 517.151 149.893 515.056 139.752L509.394 140.922ZM502.676 262.815C467.947 262.27 446.499 251.904 422.319 237.397L419.344 242.355C443.94 257.112 466.414 268.029 502.585 268.596L502.676 262.815ZM409.665 175.363C411.649 176.899 413.58 178.395 415.463 179.855L419.006 175.285C417.122 173.825 415.19 172.327 413.206 170.791L409.665 175.363ZM415.463 179.855C422.17 185.055 427.238 188.889 431.857 192.379C436.476 195.87 440.637 199.011 445.551 202.842L449.106 198.281C444.153 194.42 439.958 191.254 435.343 187.766C430.728 184.279 425.683 180.462 419.006 175.285L415.463 179.855ZM445.438 202.749L450.268 206.923L454.049 202.548L449.219 198.374L445.438 202.749ZM450.083 201.44L463.243 160.197L457.734 158.44L444.574 199.683L450.083 201.44ZM463.523 158.351L463.395 143.003L457.613 143.051L457.74 158.399L463.523 158.351ZM418.353 241.364C421.523 246.644 424.651 250.462 428.669 253.639C432.646 256.783 437.36 259.19 443.511 261.822L445.786 256.507C439.772 253.932 435.622 251.765 432.255 249.103C428.929 246.473 426.231 243.251 423.311 238.388L418.353 241.364ZM446.722 118.637C446.723 118.623 446.724 118.61 446.727 118.597L452.369 119.861C452.452 119.493 452.497 119.117 452.504 118.74L446.722 118.637ZM503.274 262.282C503.222 262.616 502.945 262.819 502.676 262.815L502.585 268.596C505.794 268.647 508.495 266.302 508.986 263.181L503.274 262.282ZM515.676 168.586C515.657 168.485 515.658 168.36 515.685 168.24L510.045 166.968C509.851 167.828 509.825 168.741 509.988 169.629L515.676 168.586ZM511.374 123.925C511.377 123.946 511.379 124.003 511.364 124.081L517.046 125.153C517.161 124.543 517.196 123.881 517.112 123.208L511.374 123.925ZM492.079 117.495C492.127 117.398 492.203 117.33 492.277 117.295L489.825 112.058C488.547 112.657 487.522 113.674 486.903 114.917L492.079 117.495ZM487.182 146.673C487.169 146.616 487.163 146.54 487.167 146.473L481.396 146.116C481.359 146.712 481.405 147.329 481.536 147.921L487.182 146.673ZM495.375 172.886C495.355 172.054 495.174 171.227 494.842 170.462L489.537 172.761C489.572 172.842 489.593 172.935 489.595 173.026L495.375 172.886ZM409.384 175.481C409.395 175.424 409.412 175.401 409.422 175.389C409.438 175.372 409.464 175.351 409.5 175.337C409.537 175.323 409.568 175.322 409.588 175.324C409.599 175.326 409.623 175.33 409.665 175.363L413.206 170.791C409.677 168.059 404.539 170.033 403.705 174.394L409.384 175.481ZM409.568 175.718C409.531 175.72 409.51 175.714 409.495 175.707C409.475 175.698 409.452 175.682 409.429 175.656C409.407 175.63 409.393 175.602 409.385 175.576C409.379 175.555 409.375 175.526 409.384 175.481L403.705 174.394C402.981 178.176 405.968 181.68 409.845 181.494L409.568 175.718ZM415.737 174.927C415.662 175.085 415.558 175.211 415.447 175.298L419.023 179.842C419.848 179.193 420.515 178.353 420.967 177.393L415.737 174.927ZM415.447 175.298C415.312 175.404 415.177 175.449 415.053 175.455L415.33 181.231C416.725 181.164 418 180.647 419.023 179.842L415.447 175.298ZM428.118 163.391C426.753 163.391 425.335 163.808 424.155 164.727L427.709 169.288C427.774 169.238 427.909 169.173 428.12 169.173L428.118 163.391ZM443.128 158.837C443.126 159.096 442.99 159.295 442.827 159.387L445.68 164.417C447.698 163.272 448.894 161.138 448.91 158.879L443.128 158.837ZM448.497 132.115C445.472 132.699 443.297 135.343 443.275 138.41L449.057 138.452C449.06 138.118 449.295 137.85 449.594 137.792L448.497 132.115ZM451.073 134.69C450.056 133.546 450.648 131.699 452.191 131.401L453.288 137.078C456.185 136.519 457.33 133.025 455.395 130.848L451.073 134.69ZM451.245 126.181C451.1 126.018 451.04 125.791 451.089 125.571L445.447 124.307C444.992 126.337 445.54 128.466 446.923 130.022L451.245 126.181ZM446.848 110.615C446.855 110.639 446.864 110.687 446.863 110.76L452.644 110.863C452.654 110.272 452.585 109.656 452.412 109.043L446.848 110.615ZM386.675 86.4083C386.709 86.3823 386.74 86.3641 386.753 86.3575L384.153 81.1926C383.782 81.3792 383.437 81.6024 383.131 81.8401L386.675 86.4083ZM509.292 139.381C509.253 139.906 509.291 140.425 509.394 140.922L515.056 139.752C515.058 139.762 515.061 139.78 515.059 139.809L509.292 139.381ZM382.286 157.308C383.525 155.348 383.603 152.881 382.558 150.855L377.419 153.506C377.542 153.745 377.521 154.025 377.399 154.219L382.286 157.308ZM450.381 207.015C453.206 209.218 456.887 211.974 460.483 214.663C464.095 217.365 467.618 219.997 470.174 221.985L473.724 217.42C471.114 215.391 467.539 212.72 463.946 210.033C460.337 207.333 456.706 204.615 453.936 202.455L450.381 207.015ZM470.174 221.985C473.778 224.787 476.4 226.931 479.092 229.121C481.788 231.315 484.544 233.549 488.382 236.5L491.907 231.916C488.133 229.014 485.425 226.82 482.742 224.637C480.056 222.45 477.386 220.268 473.724 217.42L470.174 221.985ZM494.842 170.462C494.388 169.413 493.224 166.177 492.02 162.786C490.855 159.503 489.671 156.124 489.245 155.027L483.854 157.12C484.24 158.111 485.371 161.337 486.571 164.719C487.732 167.992 488.982 171.481 489.537 172.761L494.842 170.462ZM489.245 155.027C488.221 152.392 488.35 152.782 488.324 152.618C488.234 152.054 488.127 150.947 487.182 146.673L481.536 147.921C482.439 152.009 482.523 152.961 482.614 153.531C482.769 154.5 483.069 155.097 483.854 157.12L489.245 155.027ZM474.716 220.541C479.535 204.633 484.598 180.104 489.382 156.651L483.717 155.495C478.911 179.051 473.906 203.273 469.182 218.864L474.716 220.541ZM359.423 195.225C363.687 187.461 368.784 179.127 374.71 169.694L369.814 166.618C363.877 176.068 358.704 184.522 354.355 192.442L359.423 195.225ZM366.942 347.966C342.209 275.645 337.94 246.349 350.016 215.012L344.621 212.932C331.709 246.439 336.773 277.619 361.471 349.837L366.942 347.966ZM463.243 160.197C463.433 159.601 463.528 158.977 463.523 158.351L457.74 158.399C457.741 158.413 457.739 158.427 457.734 158.44L463.243 160.197Z" fill="black"></path><path d="M432.667 552.431L435.553 552.6L435.553 552.6L432.667 552.431ZM419.691 655.12L416.846 654.611L416.846 654.611L419.691 655.12ZM466.461 712.774L463.684 713.578L463.684 713.578L466.461 712.774ZM468.655 720.35L471.432 719.546L471.432 719.546L468.655 720.35ZM465.861 724.816L466.303 727.673L466.303 727.673L465.861 724.816ZM372.096 724.352L371.908 727.237L371.908 727.237L372.096 724.352ZM381.572 637.192L384.457 636.995L384.457 636.995L381.572 637.192ZM389.698 548.026L392.495 548.76L392.495 548.76L389.698 548.026ZM389.807 546.813L392.688 546.579L392.688 546.579L389.807 546.813ZM381.689 447.05L384.57 446.815L384.57 446.815L381.689 447.05ZM381.171 445.46L378.7 446.962L378.7 446.962L381.171 445.46ZM372.578 373.153C373.181 371.675 372.471 369.987 370.993 369.384C369.514 368.781 367.827 369.491 367.224 370.969L372.578 373.153ZM463.52 346.208C463.412 344.615 462.033 343.411 460.44 343.519C458.847 343.627 457.643 345.006 457.751 346.599L463.52 346.208ZM432.811 551.61L430.04 550.784L430.04 550.784L432.811 551.61ZM476.058 528.412L478.929 528.069L478.929 528.069L476.058 528.412ZM475.865 530.07L478.58 531.064L478.58 531.064L475.865 530.07ZM432.838 647.5L435.553 648.495L435.553 648.495L432.838 647.5ZM432.676 648.332L435.566 648.428L435.566 648.428L432.676 648.332ZM450.241 688.32L452.108 686.112L452.108 686.112L450.241 688.32ZM419.885 657.076L417.195 658.137L417.195 658.137L419.885 657.076ZM455.591 701.54L454.574 704.246L454.574 704.246L455.591 701.54ZM368.824 721.368L365.964 721.793L365.964 721.793L368.824 721.368ZM371.037 685.364L373.815 686.165L373.85 686.042L373.875 685.916L371.037 685.364ZM355.324 687.189L352.895 688.758L352.895 688.758L355.324 687.189ZM381.419 638.513L384.181 639.368L384.181 639.368L381.419 638.513ZM355.287 683.517L357.76 685.014L357.76 685.014L355.287 683.517ZM372.262 168.156L374.71 169.694L374.719 169.68L374.728 169.665L372.262 168.156ZM379.843 155.763L377.399 154.219L377.387 154.237L377.376 154.255L379.843 155.763ZM379.988 152.18L377.419 153.506L377.419 153.506L379.988 152.18ZM384.903 84.1242L386.675 86.4083L386.675 86.4083L384.903 84.1242ZM385.453 83.7751L384.153 81.1926L384.153 81.1926L385.453 83.7751ZM449.63 109.829L446.848 110.615L446.848 110.615L449.63 109.829ZM449.084 128.101L451.245 126.181L451.245 126.181L449.084 128.101ZM453.234 132.769L455.395 130.848L455.394 130.848L453.234 132.769ZM452.74 134.24L453.288 137.078L453.288 137.078L452.74 134.24ZM449.045 134.953L448.497 132.115L448.497 132.115L449.045 134.953ZM446.166 138.431L449.057 138.452L449.057 138.452L446.166 138.431ZM446.019 158.858L443.128 158.837L443.128 158.837L446.019 158.858ZM444.254 161.902L442.827 159.387L442.827 159.387L444.254 161.902ZM428.119 166.282L428.118 163.391L428.118 163.391L428.119 166.282ZM425.932 167.008L427.709 169.288L427.709 169.288L425.932 167.008ZM418.352 176.16L415.737 174.927L415.737 174.927L418.352 176.16ZM415.192 178.343L415.33 181.231L415.33 181.231L415.192 178.343ZM409.707 178.606L409.845 181.494L409.845 181.494L409.707 178.606ZM490.145 234.208L488.382 236.5C489.314 237.216 490.586 237.297 491.601 236.706C492.616 236.114 493.172 234.967 493.007 233.804L490.145 234.208ZM480.598 219.702L477.762 219.145L477.406 220.957L478.899 222.042L480.598 219.702ZM492.485 172.956L489.595 173.026L489.595 173.026L492.485 172.956ZM492.19 171.611L489.537 172.761L489.537 172.761L492.19 171.611ZM484.359 147.297L481.536 147.921L481.536 147.921L484.359 147.297ZM484.282 146.294L481.396 146.115L481.396 146.116L484.282 146.294ZM489.491 116.206L492.079 117.495L492.079 117.495L489.491 116.206ZM491.051 114.677L492.277 117.295L492.277 117.295L491.051 114.677ZM514.243 123.566L517.112 123.208L517.112 123.208L514.243 123.566ZM512.832 169.107L515.676 168.586L515.676 168.586L512.832 169.107ZM506.13 262.732L508.986 263.181L508.986 263.181L506.13 262.732ZM444.649 259.164L447.517 258.805L447.311 257.159L445.786 256.507L444.649 259.164ZM457.615 346.329C457.684 347.925 459.032 349.163 460.627 349.095C462.222 349.026 463.461 347.678 463.392 346.083L457.615 346.329ZM361.471 349.837C361.988 351.348 363.631 352.154 365.142 351.637C366.653 351.121 367.459 349.477 366.942 347.966L361.471 349.837ZM449.753 110.811L446.863 110.76L446.863 110.76L449.753 110.811ZM449.613 118.688L452.504 118.74L452.504 118.74L449.613 118.688ZM449.548 119.229L452.369 119.861L452.369 119.861L449.548 119.229ZM448.268 124.939L451.089 125.571L451.089 125.571L448.268 124.939ZM514.205 124.617L517.046 125.153L517.046 125.153L514.205 124.617ZM512.176 139.595L515.059 139.809L515.059 139.809L512.176 139.595ZM512.225 140.337L509.394 140.922L509.394 140.922L512.225 140.337ZM512.865 167.604L510.045 166.968L510.045 166.968L512.865 167.604ZM502.63 265.706L502.585 268.596L502.585 268.596L502.63 265.706ZM420.832 239.876L422.319 237.397C421.182 236.714 419.725 236.894 418.787 237.832C417.849 238.77 417.67 240.227 418.353 241.364L420.832 239.876ZM411.435 173.077L409.665 175.363L409.665 175.363L411.435 173.077ZM452.158 204.735L450.268 206.923L450.323 206.97L450.381 207.015L452.158 204.735ZM463.395 143.003C463.382 141.407 462.077 140.123 460.48 140.136C458.883 140.15 457.6 141.455 457.613 143.051L463.395 143.003ZM406.544 174.938L409.384 175.481L409.384 175.481L406.544 174.938ZM471.949 219.702L470.174 221.985L470.174 221.985L471.949 219.702ZM354.355 192.442C353.586 193.841 354.098 195.599 355.497 196.367C356.897 197.136 358.655 196.625 359.423 195.225L354.355 192.442ZM350.016 215.012C350.59 213.522 349.848 211.848 348.358 211.274C346.868 210.7 345.195 211.443 344.621 212.932L350.016 215.012ZM460.489 159.318L457.734 158.44L460.489 159.318ZM460.632 158.375L463.523 158.351L460.632 158.375ZM429.781 552.262C427.196 596.324 423.494 617.5 416.846 654.611L422.537 655.63C429.201 618.432 432.949 596.998 435.553 552.6L429.781 552.262ZM463.684 713.578L465.878 721.155L471.432 719.546L469.238 711.97L463.684 713.578ZM465.42 721.958C445.323 725.062 422.575 724.746 372.285 721.467L371.908 727.237C422.133 730.511 445.49 730.887 466.303 727.673L465.42 721.958ZM384.457 636.995C382.256 604.654 382.8 585.711 392.495 548.76L386.902 547.293C377.021 584.954 376.453 604.539 378.688 637.388L384.457 636.995ZM392.688 546.579L384.57 446.815L378.807 447.284L386.925 547.047L392.688 546.579ZM383.642 443.959C374.899 429.571 369.383 418.868 367.379 408.306C365.403 397.887 366.801 387.315 372.578 373.153L367.224 370.969C361.167 385.818 359.454 397.552 361.698 409.383C363.915 421.072 369.951 432.562 378.7 446.962L383.642 443.959ZM457.751 346.599C459.309 369.601 460.794 399.884 459.932 417.174L465.707 417.462C466.589 399.784 465.075 369.176 463.52 346.208L457.751 346.599ZM459.932 417.174C457.087 474.232 443.125 506.852 430.04 550.784L435.581 552.435C448.532 508.955 462.817 475.414 465.707 417.462L459.932 417.174ZM459.949 417.66L473.188 528.754L478.929 528.069L465.69 416.976L459.949 417.66ZM473.15 529.075L430.123 646.506L435.553 648.495L478.58 531.064L473.15 529.075ZM429.787 648.236C429.472 657.75 430.428 665.316 433.415 672.083C436.404 678.855 441.302 684.546 448.374 690.527L452.108 686.112C445.398 680.438 441.206 675.416 438.705 669.749C436.201 664.077 435.266 657.477 435.566 648.428L429.787 648.236ZM417.195 658.137C428.072 685.723 437.163 696.46 450.562 702.586L452.966 697.327C441.605 692.133 433.255 683.106 422.574 656.016L417.195 658.137ZM450.562 702.586C451.868 703.183 453.205 703.731 454.574 704.246L456.608 698.833C455.346 698.359 454.135 697.861 452.966 697.327L450.562 702.586ZM371.683 720.942C370.543 713.283 370.163 707.012 370.899 700.27L365.151 699.643C364.343 707.043 364.781 713.843 365.964 721.793L371.683 720.942ZM370.899 700.27C371.368 695.973 372.297 691.428 373.815 686.165L368.259 684.563C366.669 690.078 365.663 694.953 365.151 699.643L370.899 700.27ZM369.724 697.617C363.255 692.917 360.626 690.069 357.752 685.62L352.895 688.758C356.233 693.925 359.407 697.268 366.325 702.295L369.724 697.617ZM373.875 685.916C376.727 671.259 377.986 662.771 380.483 652.604L374.868 651.225C372.328 661.568 370.996 670.435 368.199 684.812L373.875 685.916ZM380.483 652.604C381.467 648.598 382.642 644.341 384.181 639.368L378.657 637.658C377.087 642.731 375.881 647.1 374.868 651.225L380.483 652.604ZM357.76 685.014C363.586 675.385 369.293 667.676 379.975 653.667L375.377 650.161C364.7 664.164 358.818 672.096 352.813 682.021L357.76 685.014ZM357.752 685.62C357.651 685.463 357.632 685.225 357.76 685.014L352.813 682.021C351.571 684.073 351.561 686.692 352.895 688.758L357.752 685.62ZM384.57 446.815C384.487 445.795 384.164 444.818 383.642 443.959L378.7 446.962C378.764 447.066 378.798 447.178 378.807 447.284L384.57 446.815ZM392.495 548.76C392.678 548.06 392.748 547.317 392.688 546.579L386.925 547.047C386.931 547.119 386.924 547.207 386.902 547.293L392.495 548.76ZM378.688 637.388C378.694 637.48 378.683 637.576 378.657 637.658L384.181 639.368C384.419 638.6 384.511 637.791 384.457 636.995L378.688 637.388ZM372.285 721.467C371.96 721.446 371.722 721.199 371.683 720.942L365.964 721.793C366.414 724.816 368.941 727.044 371.908 727.237L372.285 721.467ZM465.878 721.155C466.001 721.578 465.72 721.912 465.42 721.958L466.303 727.673C470.175 727.075 472.49 723.198 471.432 719.546L465.878 721.155ZM448.374 690.527C450.741 692.529 451.161 695.922 449.444 698.232L454.085 701.681C457.757 696.741 456.63 689.936 452.108 686.112L448.374 690.527ZM469.238 711.97C467.411 705.658 462.469 701.036 456.608 698.833L454.574 704.246C459.004 705.911 462.441 709.284 463.684 713.578L469.238 711.97ZM430.123 646.506C429.92 647.06 429.806 647.648 429.787 648.236L435.566 648.428C435.565 648.442 435.564 648.453 435.562 648.461C435.561 648.47 435.558 648.481 435.553 648.495L430.123 646.506ZM416.846 654.611C416.635 655.785 416.755 657.02 417.195 658.137L422.574 656.016C422.53 655.904 422.515 655.757 422.537 655.63L416.846 654.611ZM473.188 528.754C473.201 528.863 473.188 528.973 473.15 529.075L478.58 531.064C478.93 530.107 479.05 529.081 478.929 528.069L473.188 528.754ZM435.553 552.6C435.556 552.543 435.567 552.482 435.581 552.435L430.04 550.784C429.896 551.266 429.81 551.768 429.781 552.262L435.553 552.6ZM374.728 169.665L382.309 157.272L377.376 154.255L369.796 166.648L374.728 169.665ZM382.558 150.855C374.163 134.577 369.384 123.142 369.496 113.481C369.603 104.234 374.251 96.0494 386.675 86.4083L383.131 81.8401C370.006 92.0244 363.85 101.682 363.714 113.414C363.583 124.732 369.12 137.413 377.419 153.506L382.558 150.855ZM386.753 86.3575C397.594 80.9013 411.078 81.4087 422.766 86.2193C434.474 91.0381 443.834 99.9418 446.848 110.615L452.412 109.043C448.785 96.1975 437.811 86.1586 424.967 80.8722C412.103 75.5777 396.82 74.8174 384.153 81.1926L386.753 86.3575ZM446.923 130.022L451.073 134.69L455.394 130.848L451.245 126.181L446.923 130.022ZM452.191 131.401L448.497 132.115L449.594 137.792L453.288 137.078L452.191 131.401ZM443.275 138.41L443.128 158.837L448.91 158.879L449.057 138.452L443.275 138.41ZM442.827 159.387C440.332 160.802 438.335 161.772 436.162 162.41C434.004 163.045 431.54 163.39 428.118 163.391L428.12 169.173C431.947 169.172 434.982 168.784 437.793 167.958C440.591 167.136 443.035 165.916 445.68 164.417L442.827 159.387ZM424.155 164.727C420.04 167.932 417.76 170.636 415.737 174.927L420.967 177.393C422.547 174.042 424.196 172.024 427.709 169.288L424.155 164.727ZM415.053 175.455L409.568 175.718L409.845 181.494L415.33 181.231L415.053 175.455ZM493.007 233.804C492.527 230.404 491.743 227.546 489.999 224.842C488.285 222.183 485.788 219.899 482.297 217.363L478.899 222.042C482.169 224.416 483.996 226.201 485.139 227.975C486.254 229.703 486.863 231.643 487.282 234.612L493.007 233.804ZM483.435 220.26C485.063 211.972 488.015 205.015 490.688 197.477C493.33 190.025 495.602 182.222 495.375 172.886L489.595 173.026C489.795 181.299 487.805 188.307 485.238 195.545C482.702 202.697 479.497 210.307 477.762 219.145L483.435 220.26ZM487.167 146.473C488.272 128.629 488.781 124.116 492.079 117.495L486.903 114.917C482.994 122.764 482.487 128.488 481.396 146.115L487.167 146.473ZM492.277 117.295C497.94 114.644 502.521 114.113 505.617 115.149C508.406 116.082 510.702 118.545 511.374 123.925L517.112 123.208C516.243 116.257 512.897 111.488 507.452 109.665C502.313 107.946 496.069 109.135 489.825 112.058L492.277 117.295ZM509.988 169.629C517.977 213.166 507.951 232.567 503.274 262.282L508.986 263.181C513.479 234.634 523.901 213.413 515.676 168.586L509.988 169.629ZM441.78 259.523C443.217 271.006 446.869 284.023 450.243 298.267C453.646 312.628 456.856 328.544 457.615 346.329L463.392 346.083C462.61 327.756 459.304 311.427 455.87 296.934C452.408 282.322 448.903 269.874 447.517 258.805L441.78 259.523ZM446.863 110.76L446.722 118.637L452.504 118.74L452.644 110.862L446.863 110.76ZM446.727 118.596L445.447 124.307L451.089 125.571L452.369 119.861L446.727 118.596ZM511.364 124.081C510.318 129.63 509.653 134.523 509.292 139.381L515.059 139.809C515.401 135.2 516.033 130.525 517.046 125.153L511.364 124.081ZM509.394 140.922C511.401 150.641 511.968 158.44 510.045 166.968L515.685 168.24C517.86 158.598 517.151 149.893 515.056 139.752L509.394 140.922ZM502.676 262.815C467.947 262.27 446.499 251.904 422.319 237.397L419.344 242.355C443.94 257.112 466.414 268.029 502.585 268.596L502.676 262.815ZM409.665 175.363C411.649 176.899 413.58 178.395 415.463 179.855L419.006 175.285C417.122 173.825 415.19 172.327 413.206 170.791L409.665 175.363ZM415.463 179.855C422.17 185.055 427.238 188.889 431.857 192.379C436.476 195.87 440.637 199.011 445.551 202.842L449.106 198.281C444.153 194.42 439.958 191.254 435.343 187.766C430.728 184.279 425.683 180.462 419.006 175.285L415.463 179.855ZM445.438 202.749L450.268 206.923L454.049 202.548L449.219 198.374L445.438 202.749ZM450.083 201.44L463.243 160.197L457.734 158.44L444.574 199.683L450.083 201.44ZM463.523 158.351L463.395 143.003L457.613 143.051L457.74 158.399L463.523 158.351ZM418.353 241.364C421.523 246.644 424.651 250.462 428.669 253.639C432.646 256.783 437.36 259.19 443.511 261.822L445.786 256.507C439.772 253.932 435.622 251.765 432.255 249.103C428.929 246.473 426.231 243.251 423.311 238.388L418.353 241.364ZM446.722 118.637C446.723 118.623 446.724 118.61 446.727 118.597L452.369 119.861C452.452 119.493 452.497 119.117 452.504 118.74L446.722 118.637ZM503.274 262.282C503.222 262.616 502.945 262.819 502.676 262.815L502.585 268.596C505.794 268.647 508.495 266.302 508.986 263.181L503.274 262.282ZM515.676 168.586C515.657 168.485 515.658 168.36 515.685 168.24L510.045 166.968C509.851 167.828 509.825 168.741 509.988 169.629L515.676 168.586ZM511.374 123.925C511.377 123.946 511.379 124.003 511.364 124.081L517.046 125.153C517.161 124.543 517.196 123.881 517.112 123.208L511.374 123.925ZM492.079 117.495C492.127 117.398 492.203 117.33 492.277 117.295L489.825 112.058C488.547 112.657 487.522 113.674 486.903 114.917L492.079 117.495ZM487.182 146.673C487.169 146.616 487.163 146.54 487.167 146.473L481.396 146.116C481.359 146.712 481.405 147.329 481.536 147.921L487.182 146.673ZM495.375 172.886C495.355 172.054 495.174 171.227 494.842 170.462L489.537 172.761C489.572 172.842 489.593 172.935 489.595 173.026L495.375 172.886ZM409.384 175.481C409.395 175.424 409.412 175.401 409.422 175.389C409.438 175.372 409.464 175.351 409.5 175.337C409.537 175.323 409.568 175.322 409.588 175.324C409.599 175.326 409.623 175.33 409.665 175.363L413.206 170.791C409.677 168.059 404.539 170.033 403.705 174.394L409.384 175.481ZM409.568 175.718C409.531 175.72 409.51 175.714 409.495 175.707C409.475 175.698 409.452 175.682 409.429 175.656C409.407 175.63 409.393 175.602 409.385 175.576C409.379 175.555 409.375 175.526 409.384 175.481L403.705 174.394C402.981 178.176 405.968 181.68 409.845 181.494L409.568 175.718ZM415.737 174.927C415.662 175.085 415.558 175.211 415.447 175.298L419.023 179.842C419.848 179.193 420.515 178.353 420.967 177.393L415.737 174.927ZM415.447 175.298C415.312 175.404 415.177 175.449 415.053 175.455L415.33 181.231C416.725 181.164 418 180.647 419.023 179.842L415.447 175.298ZM428.118 163.391C426.753 163.391 425.335 163.808 424.155 164.727L427.709 169.288C427.774 169.238 427.909 169.173 428.12 169.173L428.118 163.391ZM443.128 158.837C443.126 159.096 442.99 159.295 442.827 159.387L445.68 164.417C447.698 163.272 448.894 161.138 448.91 158.879L443.128 158.837ZM448.497 132.115C445.472 132.699 443.297 135.343 443.275 138.41L449.057 138.452C449.06 138.118 449.295 137.85 449.594 137.792L448.497 132.115ZM451.073 134.69C450.056 133.546 450.648 131.699 452.191 131.401L453.288 137.078C456.185 136.519 457.33 133.025 455.395 130.848L451.073 134.69ZM451.245 126.181C451.1 126.018 451.04 125.791 451.089 125.571L445.447 124.307C444.992 126.337 445.54 128.466 446.923 130.022L451.245 126.181ZM446.848 110.615C446.855 110.639 446.864 110.687 446.863 110.76L452.644 110.863C452.654 110.272 452.585 109.656 452.412 109.043L446.848 110.615ZM386.675 86.4083C386.709 86.3823 386.74 86.3641 386.753 86.3575L384.153 81.1926C383.782 81.3792 383.437 81.6024 383.131 81.8401L386.675 86.4083ZM509.292 139.381C509.253 139.906 509.291 140.425 509.394 140.922L515.056 139.752C515.058 139.762 515.061 139.78 515.059 139.809L509.292 139.381ZM382.286 157.308C383.525 155.348 383.603 152.881 382.558 150.855L377.419 153.506C377.542 153.745 377.521 154.025 377.399 154.219L382.286 157.308ZM450.381 207.015C453.206 209.218 456.887 211.974 460.483 214.663C464.095 217.365 467.618 219.997 470.174 221.985L473.724 217.42C471.114 215.391 467.539 212.72 463.946 210.033C460.337 207.333 456.706 204.615 453.936 202.455L450.381 207.015ZM470.174 221.985C473.778 224.787 476.4 226.931 479.092 229.121C481.788 231.315 484.544 233.549 488.382 236.5L491.907 231.916C488.133 229.014 485.425 226.82 482.742 224.637C480.056 222.45 477.386 220.268 473.724 217.42L470.174 221.985ZM494.842 170.462C494.388 169.413 493.224 166.177 492.02 162.786C490.855 159.503 489.671 156.124 489.245 155.027L483.854 157.12C484.24 158.111 485.371 161.337 486.571 164.719C487.732 167.992 488.982 171.481 489.537 172.761L494.842 170.462ZM489.245 155.027C488.221 152.392 488.35 152.782 488.324 152.618C488.234 152.054 488.127 150.947 487.182 146.673L481.536 147.921C482.439 152.009 482.523 152.961 482.614 153.531C482.769 154.5 483.069 155.097 483.854 157.12L489.245 155.027ZM474.716 220.541C479.535 204.633 484.598 180.104 489.382 156.651L483.717 155.495C478.911 179.051 473.906 203.273 469.182 218.864L474.716 220.541ZM359.423 195.225C363.687 187.461 368.784 179.127 374.71 169.694L369.814 166.618C363.877 176.068 358.704 184.522 354.355 192.442L359.423 195.225ZM366.942 347.966C342.209 275.645 337.94 246.349 350.016 215.012L344.621 212.932C331.709 246.439 336.773 277.619 361.471 349.837L366.942 347.966ZM463.243 160.197C463.433 159.601 463.528 158.977 463.523 158.351L457.74 158.399C457.741 158.413 457.739 158.427 457.734 158.44L463.243 160.197Z" fill="black" fill-opacity="0.2"></path><path d="M370.693 165.239C359.609 168.399 353.097 169.816 340.336 171.022L354.792 218.725C370.983 205.069 384.64 195.639 406.832 181.14L404.664 172.467C386.044 178.301 377.621 178.912 356.96 189.091L370.693 165.239Z" fill="#7B1FA2"></path><path d="M351.95 277.913C371.373 372.139 422.105 396.732 305.468 430.071C254.954 444.51 194.788 364.837 181.951 277.913C169.114 190.99 190.461 159.448 247.402 151.039C286.185 145.312 330.781 134.549 351.95 185.275C361.861 209.024 347.857 250.195 351.95 277.913Z" fill="#7B1FA2"></path><path d="M422.733 247.637C401.251 281.367 390.147 300.042 365.634 332.202L377.921 371.955C404.538 327.323 416.473 304.493 442.248 261.37C435.743 257.756 430.946 256.305 422.733 247.637Z" fill="#7B1FA2"></path><path d="M371.649 168.883L333.425 180.135C332.358 180.449 331.205 180.146 330.412 179.366C327.744 176.74 325.338 174.632 322.886 172.884C312.815 165.707 299.506 166.151 287.196 167.33C241.591 171.696 228.444 175.152 215.929 186.384C209.743 191.936 205.374 199.228 202.544 207.043C196.812 222.875 193.857 237.049 196.185 249.051C197.195 254.261 200.781 258.456 205.002 261.672L209.138 264.823C215.579 346.012 232.46 376.268 257.584 397.587C265.213 404.06 274.414 408.43 284.149 410.739C326.794 420.852 340.404 409.436 368.528 372.391L438.038 260.483C438.907 259.084 438.495 257.247 437.113 256.353L429.725 251.572C428.314 250.659 426.428 251.074 425.53 252.495L364.155 349.626C341.88 276.535 337.089 247.491 346.505 215.566C346.706 214.884 347.15 214.294 347.746 213.906L405.338 176.483L340.731 200.869C339.218 201.44 337.524 200.718 336.887 199.232L336.516 198.365L336.331 197.946C335.686 196.485 336.291 194.773 337.711 194.042L362.422 181.308C362.852 181.086 363.223 180.765 363.503 180.37L371.649 168.883Z" fill="#7B1FA2"></path><path d="M305.804 214.507C305.607 241.327 300.252 254.697 288.529 270.164C283.8 276.404 275.94 279.302 268.145 278.558C245.181 276.366 229.515 276.207 209.138 264.823M209.138 264.823L205.002 261.672C200.781 258.456 197.195 254.261 196.185 249.051C193.857 237.049 196.812 222.875 202.544 207.043C205.374 199.228 209.743 191.936 215.929 186.384C228.444 175.152 241.591 171.696 287.196 167.33C299.506 166.151 312.815 165.707 322.886 172.884C325.338 174.632 327.744 176.74 330.412 179.366C331.205 180.146 332.358 180.449 333.425 180.135L371.649 168.883L363.503 180.37C363.223 180.765 362.852 181.086 362.422 181.308L337.711 194.042C336.291 194.773 335.686 196.485 336.331 197.946L336.516 198.365L336.887 199.232C337.524 200.718 339.218 201.44 340.731 200.869L405.338 176.483L347.746 213.906C347.15 214.294 346.706 214.884 346.505 215.566C337.089 247.491 341.88 276.535 364.155 349.626L425.53 252.495C426.428 251.074 428.314 250.659 429.725 251.572L437.113 256.353C438.495 257.247 438.907 259.084 438.038 260.483L368.528 372.391C340.404 409.436 326.794 420.852 284.149 410.739C274.414 408.43 265.213 404.06 257.584 397.587C232.46 376.268 215.579 346.012 209.138 264.823Z" stroke="black" stroke-width="5.78225" stroke-linecap="round" stroke-linejoin="round"></path><path d="M477.319 132.882C477.986 136.355 477.765 139.513 477.011 141.769C476.224 144.124 475.119 144.887 474.424 145.02C473.729 145.154 472.42 144.855 470.816 142.959C469.28 141.143 467.905 138.292 467.237 134.819C466.57 131.346 466.791 128.188 467.545 125.932C468.332 123.577 469.438 122.814 470.132 122.681C470.827 122.547 472.136 122.846 473.74 124.742C475.277 126.558 476.652 129.409 477.319 132.882Z" stroke="black" stroke-width="5.78225"></path><path d="M469.361 121.248C467.226 116.095 463.593 112.823 460.193 113.476C455.841 114.312 453.518 121.262 455.004 128.999C456.491 136.736 461.223 142.33 465.575 141.494C466.335 141.348 467.033 141.016 467.659 140.526" stroke="black" stroke-width="5.78225"></path><path d="M476.531 145.479L484.031 143.989M530.707 134.217L512.729 138.451" stroke="black" stroke-width="5.78225" stroke-linecap="round"></path><path d="M526.598 113.649C528.155 113.296 529.132 111.747 528.779 110.19C528.426 108.633 526.877 107.657 525.32 108.01L526.598 113.649ZM489.137 120.643C490.702 120.326 491.714 118.8 491.397 117.235C491.08 115.67 489.554 114.659 487.989 114.976L489.137 120.643ZM510.077 111.465C508.519 111.818 507.543 113.367 507.896 114.924C508.249 116.481 509.798 117.458 511.355 117.104L510.077 111.465ZM469.622 124.596L489.137 120.643L487.989 114.976L468.474 118.929L469.622 124.596ZM511.355 117.104L526.598 113.649L525.32 108.01L510.077 111.465L511.355 117.104Z" fill="black"></path><path d="M530.309 131.081C528.741 131.382 527.714 132.897 528.015 134.466C528.316 136.034 529.832 137.061 531.4 136.759L530.309 131.081ZM533.27 121.681C533.925 125.09 533.639 127.428 533.008 128.859C532.431 130.168 531.528 130.847 530.309 131.081L531.4 136.759C534.532 136.158 536.977 134.192 538.299 131.191C539.568 128.312 539.733 124.675 538.949 120.59L533.27 121.681ZM526.504 113.668C527.641 113.45 528.894 113.761 530.122 114.942C531.394 116.165 532.63 118.347 533.27 121.681L538.949 120.59C538.149 116.428 536.486 113.04 534.13 110.774C531.731 108.467 528.629 107.372 525.413 107.99L526.504 113.668Z" fill="black"></path><path d="M462.382 112.775L517.272 103.42" stroke="black" stroke-width="5.78225" stroke-linecap="round"></path><path d="M527.272 110.577C524.614 103.824 519.899 102.914 517.273 103.419" stroke="black" stroke-width="5.78225"></path></svg>