<svg xmlns="http://www.w3.org/2000/svg" width="1920" height="1080" viewBox="0 0 1920 1080" fill="none"><path d="M988.858 252.173C988.858 252.173 977.335 241.132 968.351 228.422C961.056 218.101 970.761 209.756 982.43 214.612C1073.3 252.423 1119.59 272.232 1275.16 280.545C1233.89 296.02 1213.26 326.972 1110.73 303.758C1011.43 273.452 988.858 252.173 988.858 252.173Z" fill="#F8F8F8"></path><path d="M351.128 248.948L351.146 250.948L351.278 250.947L351.41 250.929L351.128 248.948ZM324.048 211.549L322.596 210.173L324.048 211.549ZM247.592 216.658C248.277 215.791 248.129 214.534 247.263 213.849C246.396 213.164 245.138 213.311 244.453 214.178L247.592 216.658ZM326.592 235.53L327.497 237.314L326.592 235.53ZM351.41 250.929C441.7 238.098 500.183 234.333 598.198 168.979L595.979 165.651C498.793 230.453 441.135 234.138 350.847 246.968L351.41 250.929ZM851.44 155.19C977.295 223.366 1144.41 289.063 1283.67 279.961L1283.41 275.97C1145.33 284.994 979.058 219.772 853.345 151.673L851.44 155.19ZM351.111 246.949C332.943 247.109 322.796 242.364 319.013 236.214C315.364 230.28 317.036 221.858 325.5 212.924L322.596 210.173C313.65 219.617 310.53 230.057 315.606 238.31C320.55 246.346 332.648 251.112 351.146 250.948L351.111 246.949ZM325.5 212.924C328.487 209.771 332.757 207.357 337.002 206.102C341.32 204.826 345.182 204.869 347.522 206.052L349.328 202.483C345.665 200.63 340.605 200.866 335.868 202.266C331.058 203.688 326.141 206.432 322.596 210.173L325.5 212.924ZM325.687 233.747C307.48 242.982 291.636 248.599 278.591 251.285C265.507 253.978 255.407 253.689 248.58 251.315C241.865 248.981 238.436 244.715 238.039 239.158C237.626 233.37 240.457 225.685 247.592 216.658L244.453 214.178C237.058 223.535 233.533 232.203 234.05 239.443C234.583 246.913 239.369 252.348 247.267 255.094C255.052 257.8 265.963 257.968 279.397 255.202C292.871 252.428 309.055 246.668 327.497 237.314L325.687 233.747ZM347.522 206.052C348.951 206.775 349.738 207.555 350.156 208.279C350.562 208.985 350.712 209.799 350.577 210.789C350.29 212.895 348.737 215.579 346.075 218.562C340.824 224.446 332.234 230.426 325.687 233.747L327.497 237.314C334.359 233.834 343.392 227.576 349.06 221.225C351.857 218.091 354.087 214.658 354.54 211.329C354.776 209.601 354.536 207.868 353.621 206.282C352.718 204.714 351.253 203.457 349.328 202.483L347.522 206.052ZM598.198 168.979C673.591 118.708 771.83 112.066 851.44 155.19L853.345 151.673C772.365 107.806 672.541 114.6 595.979 165.651L598.198 168.979Z" fill="black"></path><path d="M790.254 78.7167C790.254 96.5229 777.359 114.827 753.499 114.827C729.639 114.827 709.006 96.5229 709.006 78.7167C709.006 60.9105 737.376 31 761.237 31C785.097 31 790.254 60.9105 790.254 78.7167Z" fill="#7B1FA2"></path><path d="M752.345 134.171C750.531 107.56 747.284 84.2953 752.12 52.226C752.253 51.3456 752.903 50.6042 753.782 50.4623C757.892 49.7986 760.393 51.6552 763.466 63.5682C763.657 64.3087 763.445 65.098 762.91 65.6447C754.463 74.2837 747.884 79.4206 735.969 86.5457C734.305 87.5406 734.591 90.049 736.449 90.6017C751.692 95.1357 760.151 96.7207 771.556 96.9003" stroke="black" stroke-width="4" stroke-linecap="round"></path><path d="M1113.95 206.391C1141.86 254.074 1088.53 269.584 1049.39 269.584C1023.99 269.584 978.542 257.046 978.542 219.323C978.542 181.6 1022.33 149.647 1061.46 149.647C1100.59 149.647 1084.54 156.13 1113.95 206.391Z" fill="#69F0AE"></path><path d="M560.447 261.942C562.082 265.648 562.595 269.714 562.789 273.76C563.74 293.625 568.127 311.497 551.669 311.497C534.665 311.497 491.723 312.973 486.435 294.895C485.704 292.394 485.616 289.737 485.15 287.174C482.107 270.399 483.715 259.117 514.271 237.343C533.068 223.948 552.225 243.314 560.447 261.942Z" fill="#FFDE03"></path><path d="M1492.39 180.295C1492.39 198.962 1467.96 196.612 1449.31 196.612C1430.66 196.612 1401.54 180.566 1401.54 161.9C1401.54 143.233 1437.06 118.697 1455.7 118.697C1474.35 118.697 1492.39 161.628 1492.39 180.295Z" fill="#FF0266"></path><path d="M1345.18 237.475C1345.18 237.475 1392.67 214.823 1419.14 209.249C1435.79 205.741 1475.54 199.8 1549.7 231.396C1602.69 270.684 1635.55 317.733 1661.67 355.043C1653.54 355.043 1586.18 333.557 1565.85 333.557C1561.2 310.909 1537.98 305.851 1529.71 303.616C1476.48 289.238 1345.18 237.475 1345.18 237.475Z" fill="#F8F8F8"></path><path d="M1255.71 352.733C1255.71 352.733 1524.21 315.57 1649 537.72C1724.69 672.471 1672.28 774.302 1559.34 861.723C1423.32 967.002 1206.4 951.37 1098.25 824.428C990.103 697.486 1489.48 572.684 1255.71 352.733Z" fill="#F8F8F8"></path><path d="M330.969 412.329C424.118 401.839 481.747 326.083 527.747 326.083C587.13 326.083 621.782 364.69 690.479 378.675" stroke="black" stroke-width="4" stroke-linecap="round"></path><path d="M1263.35 350.411C1263.35 350.411 1330.84 370.84 1379.78 419.466C1422.15 461.561 1451.45 507.192 1451.45 507.192" stroke="black" stroke-width="4" stroke-linecap="round"></path><path d="M1319.62 475.833C1367.82 482.221 1423.82 491.738 1482.83 520.864C1542.39 550.257 1625.47 613.52 1625.47 613.52" stroke="black" stroke-width="4" stroke-linecap="round"></path><path d="M1049.57 199.049L1051.53 198.643L1049.57 199.049ZM1023.08 224.69L1022.39 222.81L1023.08 224.69ZM1068.98 241.109C1069.68 241.963 1070.94 242.088 1071.79 241.388C1072.65 240.687 1072.77 239.427 1072.07 238.573L1068.98 241.109ZM1056.26 199.049L1058.01 200.012L1058.11 199.838L1058.17 199.649L1056.26 199.049ZM1051.48 296.83C1066.8 247.29 1054.72 214.054 1051.53 198.643L1047.61 199.454C1050.86 215.155 1062.61 247.287 1047.66 295.648L1051.48 296.83ZM1022.39 222.81C1021.14 223.267 1020.11 223.713 1019.32 224.16C1018.65 224.547 1017.75 225.153 1017.34 226.104C1017.09 226.68 1017.03 227.352 1017.27 228.013C1017.49 228.616 1017.89 229.028 1018.22 229.292C1018.84 229.793 1019.67 230.113 1020.43 230.344C1022.01 230.829 1024.27 231.213 1026.86 231.566C1029.47 231.923 1032.56 232.264 1035.82 232.634C1042.4 233.379 1049.75 234.247 1056.03 235.624C1059.17 236.312 1061.98 237.114 1064.25 238.062C1066.56 239.025 1068.12 240.061 1068.98 241.109L1072.07 238.573C1070.6 236.78 1068.33 235.432 1065.79 234.371C1063.21 233.294 1060.15 232.431 1056.89 231.717C1050.37 230.289 1042.82 229.401 1036.27 228.659C1032.98 228.286 1029.95 227.952 1027.4 227.603C1024.81 227.25 1022.83 226.899 1021.6 226.52C1021.3 226.429 1021.08 226.345 1020.92 226.272C1020.75 226.196 1020.7 226.156 1020.72 226.17C1020.73 226.18 1020.92 226.328 1021.03 226.653C1021.17 227.037 1021.13 227.42 1021.01 227.692C1020.86 228.036 1020.71 227.978 1021.31 227.633C1021.81 227.348 1022.6 226.993 1023.76 226.569L1022.39 222.81ZM1051.53 198.643C1050.94 195.793 1051.3 193.894 1051.86 192.802C1052.42 191.703 1053.13 191.453 1053.49 191.447C1053.79 191.443 1054.33 191.595 1054.71 192.553C1055.12 193.569 1055.29 195.469 1054.35 198.448L1058.17 199.649C1059.27 196.155 1059.3 193.236 1058.42 191.061C1057.52 188.828 1055.65 187.416 1053.43 187.448C1051.28 187.479 1049.38 188.865 1048.3 190.976C1047.22 193.093 1046.89 195.976 1047.61 199.454L1051.53 198.643ZM1054.51 198.086C1052.2 202.289 1049.64 206.426 1044.99 210.522C1040.32 214.632 1033.44 218.79 1022.39 222.81L1023.76 226.569C1035.13 222.431 1042.49 218.052 1047.63 213.524C1052.79 208.981 1055.62 204.376 1058.01 200.012L1054.51 198.086Z" fill="black"></path><path d="M453.01 507.522C485.612 507.523 744.86 543.155 812.822 609.404C889.556 684.203 907.894 794.649 918.928 885.242C929.961 975.834 1020.55 1020.55 1085.01 1049.59" stroke="black" stroke-width="4" stroke-linecap="round"></path><path d="M875.366 443.685C875.366 404.996 906.316 312.787 1014 293.442M974.023 443.685C964.996 337.29 1001.11 321.17 1049.47 295.377" stroke="black" stroke-width="4"></path><path d="M1345.44 335.999C1345.44 305.114 1356.04 231.505 1418.95 216.062M1393.81 330.196C1389.94 249.593 1414.56 232.783 1442.81 212.193" stroke="black" stroke-width="4"></path><path d="M847.644 313.434C847.644 258.624 777.358 155.452 707.718 134.173M777.358 336.647C769.62 219.29 728.997 174.797 671.608 140.622" stroke="black" stroke-width="4"></path><path d="M581.328 429.499C574.235 383.717 528.636 343.093 491.698 337.29M535.546 450.134C540.326 388.97 506.529 354.7 477.512 345.673" stroke="black" stroke-width="4"></path><path d="M727.702 477.219C752.889 477.219 901.435 476.317 972.734 544.926C1075.26 643.583 1158.18 652.373 1216.98 673.146C1260.97 688.692 1339.23 721.947 1378.5 701.819C1382.69 699.671 1386.22 697.609 1389.13 695.636M1389.13 695.636C1343.69 689.836 1302.78 681.954 1314.27 673.146C1336.62 656.007 1433.7 665.49 1389.13 695.636ZM1389.13 695.636C1437.9 701.861 1491.88 705.688 1491.88 705.688" stroke="black" stroke-width="4" stroke-linecap="round"></path><path d="M1445.69 211.552C1442.15 192.454 1445.69 140.888 1445.69 146.156C1445.69 146.156 1451.51 154.545 1466.93 158.011C1473.9 159.575 1458.28 169.865 1435.07 171.84" stroke="black" stroke-width="4" stroke-linecap="round"></path><path d="M530.668 326.085C532.609 305.98 535.326 267.723 530.668 265.625C524.847 263.003 526.884 286.604 511.747 286.75C496.611 286.895 534.889 286.313 543.331 295.636" stroke="black" stroke-width="4" stroke-linecap="round"></path><path d="M399.914 505.755C402.462 505.726 405.067 505.711 407.729 505.711C639.438 505.711 739.866 472.301 852.033 449.768C878.076 445.513 894.224 443.689 922.714 443.073M399.914 505.755C304.576 506.844 288.103 527.796 299.443 530.186C313.433 533.134 350.082 523.602 399.914 505.755ZM399.914 505.755C476.416 478.356 583.988 431.36 688.341 379.839C849.024 300.507 928.008 291.845 961.193 291.845C997.288 291.845 1098.2 295.925 1171.55 314.573M1171.55 314.573C1195.51 322.356 1231.59 335.807 1264.7 350.702C1343.49 331.666 1532.74 305.95 1659.42 355.364C1662.71 356.648 1576.56 212.593 1448.48 212.593C1397.1 212.593 1337.51 247.012 1291.82 273.409L1289.15 274.946C1239.06 303.873 1171.55 314.573 1171.55 314.573ZM1319.18 475.828C1275.49 469.445 1081.16 454.806 1041.83 448.614C995.51 441.321 921.901 442.787 921.901 442.787" stroke="black" stroke-width="4" stroke-linecap="round"></path></svg>