<svg xmlns="http://www.w3.org/2000/svg" width="3234" height="714" viewBox="0 0 3234 714" fill="none"><g clip-path="url(#clip0_1646_26866)"><rect width="3234" height="714" transform="translate(3234 714) rotate(-180)" fill="url(#paint0_linear_1646_26866)"></rect><rect width="1920" height="714" transform="translate(2577 714) rotate(-180)" fill="url(#paint1_linear_1646_26866)"></rect><circle cx="2306.98" cy="609.938" r="1.76787" transform="rotate(-180 2306.98 609.938)" fill="#FFDE03"></circle><circle cx="2563.32" cy="468.268" r="1.76787" transform="rotate(-180 2563.32 468.268)" fill="#FFDE03"></circle><circle cx="2320.24" cy="612.589" r="2.6518" transform="rotate(-180 2320.24 612.589)" fill="#FFDE03"></circle><circle cx="1491.11" cy="651.482" r="2.6518" transform="rotate(-180 1491.11 651.482)" fill="#FFDE03"></circle><circle cx="2292.84" cy="608.171" r="1.76787" transform="rotate(-180 2292.84 608.171)" fill="#FFDE03"></circle><circle cx="2547.41" cy="473.811" r="1.76787" transform="rotate(-180 2547.41 473.811)" fill="#FFDE03"></circle><circle cx="2289.3" cy="639.991" r="1.76787" transform="rotate(-180 2289.3 639.991)" fill="#FFDE03"></circle><circle cx="1460.17" cy="678.884" r="1.76787" transform="rotate(-180 1460.17 678.884)" fill="#FFDE03"></circle><circle cx="2545.64" cy="498.322" r="1.76787" transform="rotate(-180 2545.64 498.322)" fill="#FFDE03"></circle><circle cx="2204.44" cy="647.062" r="1.76787" transform="rotate(-180 2204.44 647.062)" fill="#FFDE03"></circle><circle cx="1375.32" cy="685.956" r="1.76787" transform="rotate(-180 1375.32 685.956)" fill="#FFDE03"></circle><circle cx="2455.48" cy="459.669" r="1.76787" transform="rotate(-180 2455.48 459.669)" fill="#FFDE03"></circle><circle cx="2211.52" cy="622.313" r="1.76787" transform="rotate(-180 2211.52 622.313)" fill="#FFDE03"></circle><circle cx="1382.39" cy="661.205" r="1.76787" transform="rotate(-180 1382.39 661.205)" fill="#FFDE03"></circle><circle cx="2467.86" cy="480.643" r="1.76787" transform="rotate(-180 2467.86 480.643)" fill="#FFDE03"></circle><circle cx="2289.3" cy="687.723" r="1.76787" transform="rotate(-180 2289.3 687.723)" fill="#FFDE03"></circle><circle cx="2545.64" cy="546.054" r="1.76787" transform="rotate(-180 2545.64 546.054)" fill="#FFDE03"></circle><circle cx="1988.76" cy="696.563" r="1.76787" transform="rotate(-180 1988.76 696.563)" fill="#FFDE03"></circle><circle cx="2245.11" cy="554.893" r="1.76787" transform="rotate(-180 2245.11 554.893)" fill="#FFDE03"></circle><circle cx="2005.56" cy="607.285" r="0.883933" transform="rotate(-180 2005.56 607.285)" fill="#FFDE03"></circle><circle cx="2261.9" cy="465.617" r="0.883933" transform="rotate(-180 2261.9 465.617)" fill="#FFDE03"></circle><circle cx="2276.04" cy="623.197" r="0.883933" transform="rotate(-180 2276.04 623.197)" fill="#FFDE03"></circle><circle cx="1446.91" cy="662.089" r="0.883933" transform="rotate(-180 1446.91 662.089)" fill="#FFDE03"></circle><circle cx="2532.38" cy="481.527" r="0.883933" transform="rotate(-180 2532.38 481.527)" fill="#FFDE03"></circle><circle cx="2451.06" cy="471.16" r="0.883933" transform="rotate(-180 2451.06 471.16)" fill="#FFDE03"></circle><circle cx="2268.97" cy="637.34" r="0.883933" transform="rotate(-180 2268.97 637.34)" fill="#FFDE03"></circle><circle cx="1439.84" cy="676.233" r="0.883933" transform="rotate(-180 1439.84 676.233)" fill="#FFDE03"></circle><circle cx="2525.31" cy="495.671" r="0.883933" transform="rotate(-180 2525.31 495.671)" fill="#FFDE03"></circle><circle cx="1676.74" cy="642.643" r="0.883933" transform="rotate(-180 1676.74 642.643)" fill="#FFDE03"></circle><circle cx="1933.08" cy="500.973" r="0.883933" transform="rotate(-180 1933.08 500.973)" fill="#FFDE03"></circle><circle cx="1724.47" cy="667.393" r="0.883933" transform="rotate(-180 1724.47 667.393)" fill="#FFDE03"></circle><circle cx="1980.81" cy="525.724" r="0.883933" transform="rotate(-180 1980.81 525.724)" fill="#FFDE03"></circle><circle cx="1782.81" cy="683.304" r="0.883933" transform="rotate(-180 1782.81 683.304)" fill="#FFDE03"></circle><circle cx="2039.15" cy="541.635" r="0.883933" transform="rotate(-180 2039.15 541.635)" fill="#FFDE03"></circle><circle cx="1798.72" cy="656.786" r="0.883933" transform="rotate(-180 1798.72 656.786)" fill="#FFDE03"></circle><circle cx="2055.06" cy="515.116" r="0.883933" transform="rotate(-180 2055.06 515.116)" fill="#FFDE03"></circle><circle cx="1533.33" cy="669.333" r="0.883933" transform="rotate(143.894 1533.33 669.333)" fill="#FFDE03"></circle><circle cx="1789.67" cy="527.665" r="0.883933" transform="rotate(143.894 1789.67 527.665)" fill="#FFDE03"></circle><circle cx="1903.02" cy="593.142" r="0.883933" transform="rotate(-180 1903.02 593.142)" fill="#FFDE03"></circle><circle cx="2159.36" cy="451.473" r="0.883933" transform="rotate(-180 2159.36 451.473)" fill="#FFDE03"></circle><circle cx="1934.85" cy="628.5" r="0.883933" transform="rotate(-180 1934.85 628.5)" fill="#FFDE03"></circle><circle cx="1105.72" cy="667.393" r="0.883933" transform="rotate(-180 1105.72 667.393)" fill="#FFDE03"></circle><circle cx="2191.19" cy="486.831" r="0.883933" transform="rotate(-180 2191.19 486.831)" fill="#FFDE03"></circle><circle cx="1964.9" cy="678.001" r="0.883933" transform="rotate(-180 1964.9 678.001)" fill="#FFDE03"></circle><circle cx="2221.24" cy="536.331" r="0.883933" transform="rotate(-180 2221.24 536.331)" fill="#FFDE03"></circle><circle cx="2005.56" cy="669.161" r="0.883933" transform="rotate(-180 2005.56 669.161)" fill="#FFDE03"></circle><circle cx="1176.43" cy="708.054" r="0.883933" transform="rotate(-180 1176.43 708.054)" fill="#FFDE03"></circle><circle cx="2261.9" cy="527.492" r="0.883933" transform="rotate(-180 2261.9 527.492)" fill="#FFDE03"></circle><circle cx="1679.39" cy="666.509" r="1.76787" transform="rotate(-180 1679.39 666.509)" fill="#FFDE03"></circle><circle cx="1935.73" cy="524.84" r="1.76787" transform="rotate(-180 1935.73 524.84)" fill="#FFDE03"></circle><circle cx="1909.21" cy="622.313" r="1.76787" transform="rotate(-180 1909.21 622.313)" fill="#FFDE03"></circle><circle cx="2165.55" cy="480.643" r="1.76787" transform="rotate(-180 2165.55 480.643)" fill="#FFDE03"></circle><circle cx="1604.74" cy="657.732" r="1.76787" transform="rotate(143.894 1604.74 657.732)" fill="#FFDE03"></circle><circle cx="1866.08" cy="533.217" r="1.76787" transform="rotate(143.894 1866.08 533.217)" fill="#FFDE03"></circle><circle cx="1661.71" cy="654.134" r="1.76787" transform="rotate(-180 1661.71 654.134)" fill="#FFDE03"></circle><circle cx="1918.05" cy="512.465" r="1.76787" transform="rotate(-180 1918.05 512.465)" fill="#FFDE03"></circle><circle cx="1799.6" cy="700.098" r="1.76787" transform="rotate(-180 1799.6 700.098)" fill="#FFDE03"></circle><circle cx="2055.94" cy="558.429" r="1.76787" transform="rotate(-180 2055.94 558.429)" fill="#FFDE03"></circle><circle cx="1583.17" cy="658.154" r="1.76787" transform="rotate(143.894 1583.17 658.154)" fill="#FFDE03"></circle><circle cx="1851.94" cy="519.073" r="1.76787" transform="rotate(143.894 1851.94 519.073)" fill="#FFDE03"></circle><circle cx="1679.39" cy="631.152" r="1.76787" transform="rotate(-180 1679.39 631.152)" fill="#FFDE03"></circle><circle cx="1935.73" cy="489.482" r="1.76787" transform="rotate(-180 1935.73 489.482)" fill="#FFDE03"></circle><circle cx="1583.9" cy="629.166" r="1.76787" transform="rotate(143.894 1583.9 629.166)" fill="#FFDE03"></circle><circle cx="1840.25" cy="487.497" r="1.76787" transform="rotate(143.894 1840.25 487.497)" fill="#FFDE03"></circle><circle cx="1628.12" cy="641.759" r="1.76787" transform="rotate(-180 1628.12 641.759)" fill="#FFDE03"></circle><circle cx="1875.62" cy="500.33" r="1.76787" transform="rotate(-180 1875.62 500.33)" fill="#FFDE03"></circle><circle cx="1548.73" cy="667.947" r="1.76787" transform="rotate(143.894 1548.73 667.947)" fill="#FFDE03"></circle><circle cx="1805.07" cy="526.278" r="1.76787" transform="rotate(143.894 1805.07 526.278)" fill="#FFDE03"></circle><circle cx="1617.51" cy="622.313" r="1.76787" transform="rotate(-180 1617.51 622.313)" fill="#FFDE03"></circle><circle cx="1873.85" cy="480.643" r="1.76787" transform="rotate(-180 1873.85 480.643)" fill="#FFDE03"></circle><circle cx="1528.7" cy="658.487" r="1.76787" transform="rotate(143.894 1528.7 658.487)" fill="#FFDE03"></circle><circle cx="1785.04" cy="516.82" r="1.76787" transform="rotate(143.894 1785.04 516.82)" fill="#FFDE03"></circle><circle cx="1601.6" cy="705.402" r="1.76787" transform="rotate(-180 1601.6 705.402)" fill="#FFDE03"></circle><circle cx="1857.94" cy="563.733" r="1.76787" transform="rotate(-180 1857.94 563.733)" fill="#FFDE03"></circle><circle cx="1821.15" cy="593.324" r="1.76787" transform="rotate(143.894 1821.15 593.324)" fill="#FFDE03"></circle><circle cx="1640.5" cy="710.706" r="1.76787" transform="rotate(-180 1640.5 710.706)" fill="#FFDE03"></circle><circle cx="1896.84" cy="569.036" r="1.76787" transform="rotate(-180 1896.84 569.036)" fill="#FFDE03"></circle><circle cx="1599.36" cy="716.36" r="1.76787" transform="rotate(143.894 1599.36 716.36)" fill="#FFDE03"></circle><circle cx="1855.7" cy="574.692" r="1.76787" transform="rotate(143.894 1855.7 574.692)" fill="#FFDE03"></circle><circle cx="2041.8" cy="594.026" r="1.76787" transform="rotate(-180 2041.8 594.026)" fill="#FFDE03"></circle><circle cx="2298.14" cy="452.358" r="1.76787" transform="rotate(-180 2298.14 452.358)" fill="#FFDE03"></circle><circle cx="2678.23" cy="141.215" r="1.76787" transform="rotate(-180 2678.23 141.215)" fill="#FFDE03"></circle><circle cx="2435.15" cy="285.536" r="2.6518" transform="rotate(-180 2435.15 285.536)" fill="#FFDE03"></circle><circle cx="1606.02" cy="324.428" r="2.6518" transform="rotate(-180 1606.02 324.428)" fill="#FFDE03"></circle><circle cx="2662.32" cy="146.758" r="1.76787" transform="rotate(-180 2662.32 146.758)" fill="#FFDE03"></circle><circle cx="2404.21" cy="312.937" r="1.76787" transform="rotate(-180 2404.21 312.937)" fill="#FFDE03"></circle><circle cx="1575.08" cy="351.831" r="1.76787" transform="rotate(-180 1575.08 351.831)" fill="#FFDE03"></circle><circle cx="2660.55" cy="171.268" r="1.76787" transform="rotate(-180 2660.55 171.268)" fill="#FFDE03"></circle><circle cx="2319.36" cy="320.009" r="1.76787" transform="rotate(-180 2319.36 320.009)" fill="#FFDE03"></circle><circle cx="1490.23" cy="358.901" r="1.76787" transform="rotate(-180 1490.23 358.901)" fill="#FFDE03"></circle><circle cx="2570.39" cy="132.615" r="1.76787" transform="rotate(-180 2570.39 132.615)" fill="#FFDE03"></circle><circle cx="2326.43" cy="295.259" r="1.76787" transform="rotate(-180 2326.43 295.259)" fill="#FFDE03"></circle><circle cx="1497.3" cy="334.152" r="1.76787" transform="rotate(-180 1497.3 334.152)" fill="#FFDE03"></circle><circle cx="2582.77" cy="153.59" r="1.76787" transform="rotate(-180 2582.77 153.59)" fill="#FFDE03"></circle><circle cx="2404.21" cy="360.67" r="1.76787" transform="rotate(-180 2404.21 360.67)" fill="#FFDE03"></circle><circle cx="1575.08" cy="399.562" r="1.76787" transform="rotate(-180 1575.08 399.562)" fill="#FFDE03"></circle><circle cx="2660.55" cy="219.001" r="1.76787" transform="rotate(-180 2660.55 219.001)" fill="#FFDE03"></circle><circle cx="2103.68" cy="369.509" r="1.76787" transform="rotate(-180 2103.68 369.509)" fill="#FFDE03"></circle><circle cx="1274.55" cy="408.402" r="1.76787" transform="rotate(-180 1274.55 408.402)" fill="#FFDE03"></circle><circle cx="2360.02" cy="227.84" r="1.76787" transform="rotate(-180 2360.02 227.84)" fill="#FFDE03"></circle><circle cx="2120.47" cy="280.231" r="0.883933" transform="rotate(-180 2120.47 280.231)" fill="#FFDE03"></circle><circle cx="2376.81" cy="138.563" r="0.883933" transform="rotate(-180 2376.81 138.563)" fill="#FFDE03"></circle><circle cx="2390.95" cy="296.143" r="0.883933" transform="rotate(-180 2390.95 296.143)" fill="#FFDE03"></circle><circle cx="1561.83" cy="335.036" r="0.883933" transform="rotate(-180 1561.83 335.036)" fill="#FFDE03"></circle><circle cx="2647.29" cy="154.473" r="0.883933" transform="rotate(-180 2647.29 154.473)" fill="#FFDE03"></circle><circle cx="2565.97" cy="144.106" r="0.883933" transform="rotate(-180 2565.97 144.106)" fill="#FFDE03"></circle><circle cx="2383.88" cy="310.286" r="0.883933" transform="rotate(-180 2383.88 310.286)" fill="#FFDE03"></circle><circle cx="1554.75" cy="349.179" r="0.883933" transform="rotate(-180 1554.75 349.179)" fill="#FFDE03"></circle><circle cx="2640.22" cy="168.617" r="0.883933" transform="rotate(-180 2640.22 168.617)" fill="#FFDE03"></circle><circle cx="1791.65" cy="315.589" r="0.883933" transform="rotate(-180 1791.65 315.589)" fill="#FFDE03"></circle><circle cx="2047.99" cy="173.92" r="0.883933" transform="rotate(-180 2047.99 173.92)" fill="#FFDE03"></circle><circle cx="1839.38" cy="340.34" r="0.883933" transform="rotate(-180 1839.38 340.34)" fill="#FFDE03"></circle><circle cx="2095.72" cy="198.67" r="0.883933" transform="rotate(-180 2095.72 198.67)" fill="#FFDE03"></circle><circle cx="1897.72" cy="356.25" r="0.883933" transform="rotate(-180 1897.72 356.25)" fill="#FFDE03"></circle><circle cx="2154.06" cy="214.581" r="0.883933" transform="rotate(-180 2154.06 214.581)" fill="#FFDE03"></circle><circle cx="1913.63" cy="329.732" r="0.883933" transform="rotate(-180 1913.63 329.732)" fill="#FFDE03"></circle><circle cx="2169.97" cy="188.062" r="0.883933" transform="rotate(-180 2169.97 188.062)" fill="#FFDE03"></circle><circle cx="1648.24" cy="342.279" r="0.883933" transform="rotate(143.894 1648.24 342.279)" fill="#FFDE03"></circle><circle cx="1904.59" cy="200.611" r="0.883933" transform="rotate(143.894 1904.59 200.611)" fill="#FFDE03"></circle><circle cx="2017.93" cy="266.089" r="0.883933" transform="rotate(-180 2017.93 266.089)" fill="#FFDE03"></circle><circle cx="2274.28" cy="124.42" r="0.883933" transform="rotate(-180 2274.28 124.42)" fill="#FFDE03"></circle><circle cx="2049.76" cy="301.446" r="0.883933" transform="rotate(-180 2049.76 301.446)" fill="#FFDE03"></circle><circle cx="1220.63" cy="340.34" r="0.883933" transform="rotate(-180 1220.63 340.34)" fill="#FFDE03"></circle><circle cx="2306.1" cy="159.777" r="0.883933" transform="rotate(-180 2306.1 159.777)" fill="#FFDE03"></circle><circle cx="2079.81" cy="350.947" r="0.883933" transform="rotate(-180 2079.81 350.947)" fill="#FFDE03"></circle><circle cx="1250.68" cy="389.84" r="0.883933" transform="rotate(-180 1250.68 389.84)" fill="#FFDE03"></circle><circle cx="2336.15" cy="209.277" r="0.883933" transform="rotate(-180 2336.15 209.277)" fill="#FFDE03"></circle><circle cx="2120.47" cy="342.107" r="0.883933" transform="rotate(-180 2120.47 342.107)" fill="#FFDE03"></circle><circle cx="1291.34" cy="381" r="0.883933" transform="rotate(-180 1291.34 381)" fill="#FFDE03"></circle><circle cx="2376.81" cy="200.437" r="0.883933" transform="rotate(-180 2376.81 200.437)" fill="#FFDE03"></circle><circle cx="1794.3" cy="339.456" r="1.76787" transform="rotate(-180 1794.3 339.456)" fill="#FFDE03"></circle><circle cx="2050.64" cy="197.786" r="1.76787" transform="rotate(-180 2050.64 197.786)" fill="#FFDE03"></circle><circle cx="2024.12" cy="295.259" r="1.76787" transform="rotate(-180 2024.12 295.259)" fill="#FFDE03"></circle><circle cx="2280.46" cy="153.59" r="1.76787" transform="rotate(-180 2280.46 153.59)" fill="#FFDE03"></circle><circle cx="1719.65" cy="330.678" r="1.76787" transform="rotate(143.894 1719.65 330.678)" fill="#FFDE03"></circle><circle cx="1980.99" cy="206.162" r="1.76787" transform="rotate(143.894 1980.99 206.162)" fill="#FFDE03"></circle><circle cx="1776.62" cy="327.081" r="1.76787" transform="rotate(-180 1776.62 327.081)" fill="#FFDE03"></circle><circle cx="2032.96" cy="185.411" r="1.76787" transform="rotate(-180 2032.96 185.411)" fill="#FFDE03"></circle><circle cx="1914.51" cy="373.045" r="1.76787" transform="rotate(-180 1914.51 373.045)" fill="#FFDE03"></circle><circle cx="2170.85" cy="231.376" r="1.76787" transform="rotate(-180 2170.85 231.376)" fill="#FFDE03"></circle><circle cx="1698.08" cy="331.1" r="1.76787" transform="rotate(143.894 1698.08 331.1)" fill="#FFDE03"></circle><circle cx="1966.85" cy="192.02" r="1.76787" transform="rotate(143.894 1966.85 192.02)" fill="#FFDE03"></circle><circle cx="1794.3" cy="304.097" r="1.76787" transform="rotate(-180 1794.3 304.097)" fill="#FFDE03"></circle><circle cx="2050.64" cy="162.428" r="1.76787" transform="rotate(-180 2050.64 162.428)" fill="#FFDE03"></circle><circle cx="1698.82" cy="302.112" r="1.76787" transform="rotate(143.894 1698.82 302.112)" fill="#FFDE03"></circle><circle cx="1955.16" cy="160.444" r="1.76787" transform="rotate(143.894 1955.16 160.444)" fill="#FFDE03"></circle><circle cx="1743.03" cy="314.705" r="1.76787" transform="rotate(-180 1743.03 314.705)" fill="#FFDE03"></circle><circle cx="1990.53" cy="173.275" r="1.76787" transform="rotate(-180 1990.53 173.275)" fill="#FFDE03"></circle><circle cx="1663.65" cy="340.894" r="1.76787" transform="rotate(143.894 1663.65 340.894)" fill="#FFDE03"></circle><circle cx="1919.99" cy="199.224" r="1.76787" transform="rotate(143.894 1919.99 199.224)" fill="#FFDE03"></circle><circle cx="1732.42" cy="295.259" r="1.76787" transform="rotate(-180 1732.42 295.259)" fill="#FFDE03"></circle><circle cx="1988.76" cy="153.59" r="1.76787" transform="rotate(-180 1988.76 153.59)" fill="#FFDE03"></circle><circle cx="1643.61" cy="331.434" r="1.76787" transform="rotate(143.894 1643.61 331.434)" fill="#FFDE03"></circle><circle cx="1899.95" cy="189.766" r="1.76787" transform="rotate(143.894 1899.95 189.766)" fill="#FFDE03"></circle><circle cx="1716.51" cy="378.348" r="1.76787" transform="rotate(-180 1716.51 378.348)" fill="#FFDE03"></circle><circle cx="1972.85" cy="236.679" r="1.76787" transform="rotate(-180 1972.85 236.679)" fill="#FFDE03"></circle><circle cx="1679.72" cy="407.94" r="1.76787" transform="rotate(143.894 1679.72 407.94)" fill="#FFDE03"></circle><circle cx="1936.06" cy="266.271" r="1.76787" transform="rotate(143.894 1936.06 266.271)" fill="#FFDE03"></circle><circle cx="1755.41" cy="383.652" r="1.76787" transform="rotate(-180 1755.41 383.652)" fill="#FFDE03"></circle><circle cx="2011.75" cy="241.982" r="1.76787" transform="rotate(-180 2011.75 241.982)" fill="#FFDE03"></circle><circle cx="1714.27" cy="389.307" r="1.76787" transform="rotate(143.894 1714.27 389.307)" fill="#FFDE03"></circle><circle cx="1970.61" cy="247.637" r="1.76787" transform="rotate(143.894 1970.61 247.637)" fill="#FFDE03"></circle><circle cx="2156.71" cy="266.972" r="1.76787" transform="rotate(-180 2156.71 266.972)" fill="#FFDE03"></circle><circle cx="2413.05" cy="125.304" r="1.76787" transform="rotate(-180 2413.05 125.304)" fill="#FFDE03"></circle><circle cx="1540.06" cy="73.4254" r="1.76787" transform="rotate(152.536 1540.06 73.4254)" fill="#FFDE03"></circle><circle cx="1553.04" cy="69.662" r="2.6518" transform="rotate(152.536 1553.04 69.662)" fill="#FFDE03"></circle><circle cx="835.294" cy="486.559" r="2.6518" transform="rotate(152.536 835.294 486.559)" fill="#FFDE03"></circle><circle cx="1526.69" cy="78.3785" r="1.76787" transform="rotate(152.536 1526.69 78.3785)" fill="#FFDE03"></circle><circle cx="1538.23" cy="108.246" r="1.76787" transform="rotate(152.536 1538.23 108.246)" fill="#FFDE03"></circle><circle cx="820.48" cy="525.14" r="1.76787" transform="rotate(152.536 820.48 525.14)" fill="#FFDE03"></circle><circle cx="1466.2" cy="153.654" r="1.76787" transform="rotate(152.536 1466.2 153.654)" fill="#FFDE03"></circle><circle cx="748.447" cy="570.55" r="1.76787" transform="rotate(152.536 748.447 570.55)" fill="#FFDE03"></circle><circle cx="1461.06" cy="128.433" r="1.76787" transform="rotate(152.536 1461.06 128.433)" fill="#FFDE03"></circle><circle cx="743.307" cy="545.33" r="1.76787" transform="rotate(152.536 743.307 545.33)" fill="#FFDE03"></circle><circle cx="1560.24" cy="150.597" r="1.76787" transform="rotate(152.536 1560.24 150.597)" fill="#FFDE03"></circle><circle cx="842.494" cy="567.493" r="1.76787" transform="rotate(152.536 842.494 567.493)" fill="#FFDE03"></circle><circle cx="1297.65" cy="297.046" r="1.76787" transform="rotate(152.536 1297.65 297.046)" fill="#FFDE03"></circle><circle cx="579.904" cy="713.94" r="1.76787" transform="rotate(152.536 579.904 713.94)" fill="#FFDE03"></circle><circle cx="1459.77" cy="53.1207" r="1.76787" transform="rotate(152.536 1459.77 53.1207)" fill="#FFDE03"></circle><circle cx="1271.38" cy="210.084" r="0.883933" transform="rotate(152.536 1271.38 210.084)" fill="#FFDE03"></circle><circle cx="1518.72" cy="99.4583" r="0.883933" transform="rotate(152.536 1518.72 99.4583)" fill="#FFDE03"></circle><circle cx="800.97" cy="516.353" r="0.883933" transform="rotate(152.536 800.97 516.353)" fill="#FFDE03"></circle><circle cx="1518.97" cy="115.269" r="0.883933" transform="rotate(152.536 1518.97 115.269)" fill="#FFDE03"></circle><circle cx="801.218" cy="532.164" r="0.883933" transform="rotate(152.536 801.218 532.164)" fill="#FFDE03"></circle><circle cx="995.923" cy="393.107" r="0.883933" transform="rotate(152.536 995.923 393.107)" fill="#FFDE03"></circle><circle cx="1158.04" cy="149.181" r="0.883933" transform="rotate(152.536 1158.04 149.181)" fill="#FFDE03"></circle><circle cx="1049.69" cy="393.053" r="0.883933" transform="rotate(152.536 1049.69 393.053)" fill="#FFDE03"></circle><circle cx="1211.81" cy="149.129" r="0.883933" transform="rotate(152.536 1211.81 149.129)" fill="#FFDE03"></circle><circle cx="1108.79" cy="380.265" r="0.883933" transform="rotate(152.536 1108.79 380.265)" fill="#FFDE03"></circle><circle cx="1270.91" cy="136.342" r="0.883933" transform="rotate(152.536 1270.91 136.342)" fill="#FFDE03"></circle><circle cx="1110.68" cy="349.398" r="0.883933" transform="rotate(152.536 1110.68 349.398)" fill="#FFDE03"></circle><circle cx="1272.8" cy="105.473" r="0.883933" transform="rotate(152.536 1272.8 105.473)" fill="#FFDE03"></circle><circle cx="880.991" cy="482.925" r="0.883933" transform="rotate(116.43 880.991 482.925)" fill="#FFDE03"></circle><circle cx="1043.11" cy="239" r="0.883933" transform="rotate(116.43 1043.11 239)" fill="#FFDE03"></circle><circle cx="1173.88" cy="244.824" r="0.883933" transform="rotate(152.536 1173.88 244.824)" fill="#FFDE03"></circle><circle cx="1335.99" cy="0.899714" r="0.883933" transform="rotate(152.536 1335.99 0.899714)" fill="#FFDE03"></circle><circle cx="1218.42" cy="261.52" r="0.883933" transform="rotate(152.536 1218.42 261.52)" fill="#FFDE03"></circle><circle cx="500.67" cy="678.416" r="0.883933" transform="rotate(152.536 500.67 678.416)" fill="#FFDE03"></circle><circle cx="1380.54" cy="17.595" r="0.883933" transform="rotate(152.536 1380.54 17.595)" fill="#FFDE03"></circle><circle cx="1267.92" cy="291.582" r="0.883933" transform="rotate(152.536 1267.92 291.582)" fill="#FFDE03"></circle><circle cx="550.166" cy="708.477" r="0.883933" transform="rotate(152.536 550.166 708.477)" fill="#FFDE03"></circle><circle cx="1430.03" cy="47.6565" r="0.883933" transform="rotate(152.536 1430.03 47.6565)" fill="#FFDE03"></circle><circle cx="1299.92" cy="264.987" r="0.883933" transform="rotate(152.536 1299.92 264.987)" fill="#FFDE03"></circle><circle cx="582.167" cy="681.881" r="0.883933" transform="rotate(152.536 582.167 681.881)" fill="#FFDE03"></circle><circle cx="1462.03" cy="21.0608" r="0.883933" transform="rotate(152.536 1462.03 21.0608)" fill="#FFDE03"></circle><circle cx="1009.28" cy="413.061" r="1.76787" transform="rotate(152.536 1009.28 413.061)" fill="#FFDE03"></circle><circle cx="1171.4" cy="169.134" r="1.76787" transform="rotate(152.536 1171.4 169.134)" fill="#FFDE03"></circle><circle cx="1192.82" cy="267.852" r="1.76787" transform="rotate(152.536 1192.82 267.852)" fill="#FFDE03"></circle><circle cx="1354.94" cy="23.9283" r="1.76787" transform="rotate(152.536 1354.94 23.9283)" fill="#FFDE03"></circle><circle cx="938.999" cy="439.7" r="1.76787" transform="rotate(116.43 938.999 439.7)" fill="#FFDE03"></circle><circle cx="1113.46" cy="208.69" r="1.76787" transform="rotate(116.43 1113.46 208.69)" fill="#FFDE03"></circle><circle cx="987.889" cy="410.233" r="1.76787" transform="rotate(152.536 987.889 410.233)" fill="#FFDE03"></circle><circle cx="1150" cy="166.308" r="1.76787" transform="rotate(152.536 1150 166.308)" fill="#FFDE03"></circle><circle cx="1131.44" cy="387.423" r="1.76787" transform="rotate(152.536 1131.44 387.423)" fill="#FFDE03"></circle><circle cx="1293.56" cy="143.497" r="1.76787" transform="rotate(152.536 1293.56 143.497)" fill="#FFDE03"></circle><circle cx="920.051" cy="450.023" r="1.76787" transform="rotate(116.43 920.051 450.023)" fill="#FFDE03"></circle><circle cx="1094.39" cy="202.663" r="1.76787" transform="rotate(116.43 1094.39 202.663)" fill="#FFDE03"></circle><circle cx="992.976" cy="381.687" r="1.76787" transform="rotate(152.536 992.976 381.687)" fill="#FFDE03"></circle><circle cx="1155.09" cy="137.762" r="1.76787" transform="rotate(152.536 1155.09 137.762)" fill="#FFDE03"></circle><circle cx="907.338" cy="423.962" r="1.76787" transform="rotate(116.43 907.338 423.962)" fill="#FFDE03"></circle><circle cx="1069.45" cy="180.035" r="1.76787" transform="rotate(116.43 1069.45 180.035)" fill="#FFDE03"></circle><circle cx="952.378" cy="414.744" r="1.76787" transform="rotate(152.536 952.378 414.744)" fill="#FFDE03"></circle><circle cx="1106.76" cy="175.108" r="1.76787" transform="rotate(152.536 1106.76 175.108)" fill="#FFDE03"></circle><circle cx="894.016" cy="474.593" r="1.76787" transform="rotate(116.43 894.016 474.593)" fill="#FFDE03"></circle><circle cx="1056.13" cy="230.667" r="1.76787" transform="rotate(116.43 1056.13 230.667)" fill="#FFDE03"></circle><circle cx="933.997" cy="402.38" r="1.76787" transform="rotate(152.536 933.997 402.38)" fill="#FFDE03"></circle><circle cx="1096.11" cy="158.456" r="1.76787" transform="rotate(152.536 1096.11 158.456)" fill="#FFDE03"></circle><circle cx="871.879" cy="475.44" r="1.76787" transform="rotate(116.43 871.879 475.44)" fill="#FFDE03"></circle><circle cx="1033.99" cy="231.513" r="1.76787" transform="rotate(116.43 1033.99 231.513)" fill="#FFDE03"></circle><circle cx="958.2" cy="483.444" r="1.76787" transform="rotate(152.536 958.2 483.444)" fill="#FFDE03"></circle><circle cx="1120.31" cy="239.519" r="1.76787" transform="rotate(152.536 1120.31 239.519)" fill="#FFDE03"></circle><circle cx="939.202" cy="526.669" r="1.76787" transform="rotate(116.43 939.202 526.669)" fill="#FFDE03"></circle><circle cx="1101.32" cy="282.743" r="1.76787" transform="rotate(116.43 1101.32 282.743)" fill="#FFDE03"></circle><circle cx="995.156" cy="470.213" r="1.76787" transform="rotate(152.536 995.156 470.213)" fill="#FFDE03"></circle><circle cx="1157.27" cy="226.288" r="1.76787" transform="rotate(152.536 1157.27 226.288)" fill="#FFDE03"></circle><circle cx="961.264" cy="494.202" r="1.76787" transform="rotate(116.43 961.264 494.202)" fill="#FFDE03"></circle><circle cx="1123.38" cy="250.276" r="1.76787" transform="rotate(116.43 1123.38 250.276)" fill="#FFDE03"></circle><circle cx="1297.42" cy="181.605" r="1.76787" transform="rotate(152.536 1297.42 181.605)" fill="#FFDE03"></circle><circle cx="1570.66" cy="595.151" r="2.6518" transform="rotate(-180 1570.66 595.151)" fill="#FFDE03"></circle><circle cx="1584.81" cy="570.401" r="2.6518" transform="rotate(-180 1584.81 570.401)" fill="#FFDE03"></circle><circle cx="1575.97" cy="549.187" r="2.6518" transform="rotate(-180 1575.97 549.187)" fill="#FFDE03"></circle><circle cx="1615.75" cy="466.98" r="1.76787" transform="rotate(-180 1615.75 466.98)" fill="#FFDE03"></circle><circle cx="1646.68" cy="413.06" r="0.883933" transform="rotate(-180 1646.68 413.06)" fill="#FFDE03"></circle><circle cx="1682.04" cy="352.954" r="2.6518" transform="rotate(-180 1682.04 352.954)" fill="#FFDE03"></circle><circle cx="1612.21" cy="383.89" r="1.76787" transform="rotate(-180 1612.21 383.89)" fill="#FFDE03"></circle><circle cx="1552.99" cy="397.15" r="2.6518" transform="rotate(-180 1552.99 397.15)" fill="#FFDE03"></circle><circle cx="1522.93" cy="397.15" r="2.6518" transform="rotate(-180 1522.93 397.15)" fill="#FFDE03"></circle><circle cx="1413.32" cy="390.079" r="2.6518" transform="rotate(-180 1413.32 390.079)" fill="#FFDE03"></circle><circle cx="1446.91" cy="466.096" r="2.6518" transform="rotate(-180 1446.91 466.096)" fill="#FFDE03"></circle><circle cx="1298.41" cy="473.169" r="2.6518" transform="rotate(-180 1298.41 473.169)" fill="#FFDE03"></circle><circle cx="1309.02" cy="591.616" r="2.6518" transform="rotate(-180 1309.02 591.616)" fill="#FFDE03"></circle><circle cx="1438.07" cy="589.847" r="2.6518" transform="rotate(-180 1438.07 589.847)" fill="#FFDE03"></circle><circle cx="1374.43" cy="383.007" r="0.883933" transform="rotate(-180 1374.43 383.007)" fill="#FFDE03"></circle><circle cx="1345.26" cy="389.195" r="1.76787" transform="rotate(-180 1345.26 389.195)" fill="#FFDE03"></circle><circle cx="1326.7" cy="381.239" r="2.6518" transform="rotate(-180 1326.7 381.239)" fill="#FFDE03"></circle><circle cx="1323.16" cy="361.794" r="2.6518" transform="rotate(-180 1323.16 361.794)" fill="#FFDE03"></circle><circle cx="1343.49" cy="343.23" r="1.76787" transform="rotate(-180 1343.49 343.23)" fill="#FFDE03"></circle><circle cx="1374.43" cy="347.65" r="2.6518" transform="rotate(-180 1374.43 347.65)" fill="#FFDE03"></circle><circle cx="1385.04" cy="363.561" r="0.883933" transform="rotate(-180 1385.04 363.561)" fill="#FFDE03"></circle><ellipse cx="2767.81" cy="444.281" rx="2.6518" ry="1.75313" transform="rotate(-180 2767.81 444.281)" fill="#FFDE03"></ellipse><ellipse cx="2736.88" cy="462.397" rx="1.76787" ry="1.16875" transform="rotate(-180 2736.88 462.397)" fill="#FFDE03"></ellipse><ellipse cx="2652.02" cy="467.071" rx="1.76787" ry="1.16875" transform="rotate(-180 2652.02 467.071)" fill="#FFDE03"></ellipse><ellipse cx="2659.09" cy="450.709" rx="1.76787" ry="1.16875" transform="rotate(-180 2659.09 450.709)" fill="#FFDE03"></ellipse><ellipse cx="2736.88" cy="493.952" rx="1.76787" ry="1.16875" transform="rotate(-180 2736.88 493.952)" fill="#FFDE03"></ellipse><ellipse cx="2436.34" cy="499.796" rx="1.76787" ry="1.16875" transform="rotate(-180 2436.34 499.796)" fill="#FFDE03"></ellipse><ellipse cx="2723.62" cy="451.294" rx="0.883933" ry="0.584377" transform="rotate(-180 2723.62 451.294)" fill="#FFDE03"></ellipse><ellipse cx="2716.55" cy="460.643" rx="0.883933" ry="0.584377" transform="rotate(-180 2716.55 460.643)" fill="#FFDE03"></ellipse><ellipse cx="2953.44" cy="438.437" rx="0.883933" ry="0.584377" transform="rotate(-180 2953.44 438.437)" fill="#FFDE03"></ellipse><ellipse cx="3209.78" cy="344.778" rx="0.883933" ry="0.584377" transform="rotate(-180 3209.78 344.778)" fill="#FFDE03"></ellipse><ellipse cx="3001.17" cy="454.799" rx="0.883933" ry="0.584377" transform="rotate(-180 3001.17 454.799)" fill="#FFDE03"></ellipse><ellipse cx="3059.51" cy="465.318" rx="0.883933" ry="0.584377" transform="rotate(-180 3059.51 465.318)" fill="#FFDE03"></ellipse><ellipse cx="3075.42" cy="447.787" rx="0.883933" ry="0.584377" transform="rotate(-180 3075.42 447.787)" fill="#FFDE03"></ellipse><ellipse cx="0.792843" cy="0.703018" rx="0.792843" ry="0.703018" transform="matrix(-0.900748 0.434342 -0.740931 -0.671581 2811.27 456.21)" fill="#FFDE03"></ellipse><ellipse cx="0.792843" cy="0.703018" rx="0.792843" ry="0.703018" transform="matrix(-0.900748 0.434342 -0.740931 -0.671581 3067.61 362.552)" fill="#FFDE03"></ellipse><ellipse cx="3179.73" cy="405.712" rx="0.883933" ry="0.584377" transform="rotate(-180 3179.73 405.712)" fill="#FFDE03"></ellipse><ellipse cx="3211.55" cy="429.087" rx="0.883933" ry="0.584377" transform="rotate(-180 3211.55 429.087)" fill="#FFDE03"></ellipse><ellipse cx="2382.42" cy="454.799" rx="0.883933" ry="0.584377" transform="rotate(-180 2382.42 454.799)" fill="#FFDE03"></ellipse><ellipse cx="2412.47" cy="487.525" rx="0.883933" ry="0.584377" transform="rotate(-180 2412.47 487.525)" fill="#FFDE03"></ellipse><ellipse cx="2453.14" cy="481.68" rx="0.883933" ry="0.584377" transform="rotate(-180 2453.14 481.68)" fill="#FFDE03"></ellipse><ellipse cx="2956.09" cy="454.215" rx="1.76787" ry="1.16875" transform="rotate(-180 2956.09 454.215)" fill="#FFDE03"></ellipse><ellipse cx="3212.43" cy="360.556" rx="1.76787" ry="1.16875" transform="rotate(-180 3212.43 360.556)" fill="#FFDE03"></ellipse><ellipse cx="3185.92" cy="424.996" rx="1.76787" ry="1.16875" transform="rotate(-180 3185.92 424.996)" fill="#FFDE03"></ellipse><ellipse cx="1.58569" cy="1.40604" rx="1.58569" ry="1.40604" transform="matrix(-0.900748 0.434342 -0.740931 -0.671581 2883.91 448.668)" fill="#FFDE03"></ellipse><ellipse cx="1.58569" cy="1.40604" rx="1.58569" ry="1.40604" transform="matrix(-0.900748 0.434342 -0.740931 -0.671581 3145.25 366.35)" fill="#FFDE03"></ellipse><ellipse cx="2938.41" cy="446.033" rx="1.76787" ry="1.16875" transform="rotate(-180 2938.41 446.033)" fill="#FFDE03"></ellipse><ellipse cx="3194.75" cy="352.374" rx="1.76787" ry="1.16875" transform="rotate(-180 3194.75 352.374)" fill="#FFDE03"></ellipse><ellipse cx="3076.31" cy="476.421" rx="1.76787" ry="1.16875" transform="rotate(-180 3076.31 476.421)" fill="#FFDE03"></ellipse><ellipse cx="1.58569" cy="1.40604" rx="1.58569" ry="1.40604" transform="matrix(-0.900748 0.434342 -0.740931 -0.671581 2862.34 448.946)" fill="#FFDE03"></ellipse><ellipse cx="2956.09" cy="430.84" rx="1.76787" ry="1.16875" transform="rotate(-180 2956.09 430.84)" fill="#FFDE03"></ellipse><ellipse cx="3212.43" cy="337.181" rx="1.76787" ry="1.16875" transform="rotate(-180 3212.43 337.181)" fill="#FFDE03"></ellipse><ellipse cx="1.58569" cy="1.40604" rx="1.58569" ry="1.40604" transform="matrix(-0.900748 0.434342 -0.740931 -0.671581 2863.08 429.783)" fill="#FFDE03"></ellipse><ellipse cx="1.58569" cy="1.40604" rx="1.58569" ry="1.40604" transform="matrix(-0.900748 0.434342 -0.740931 -0.671581 3119.42 336.124)" fill="#FFDE03"></ellipse><ellipse cx="2904.82" cy="437.853" rx="1.76787" ry="1.16875" transform="rotate(-180 2904.82 437.853)" fill="#FFDE03"></ellipse><ellipse cx="3152.33" cy="344.352" rx="1.76787" ry="1.16875" transform="rotate(-180 3152.33 344.352)" fill="#FFDE03"></ellipse><ellipse cx="1.58569" cy="1.40604" rx="1.58569" ry="1.40604" transform="matrix(-0.900748 0.434342 -0.740931 -0.671581 2827.91 455.421)" fill="#FFDE03"></ellipse><ellipse cx="1.58569" cy="1.40604" rx="1.58569" ry="1.40604" transform="matrix(-0.900748 0.434342 -0.740931 -0.671581 3084.25 361.762)" fill="#FFDE03"></ellipse><ellipse cx="2894.22" cy="424.996" rx="1.76787" ry="1.16875" transform="rotate(-180 2894.22 424.996)" fill="#FFDE03"></ellipse><ellipse cx="3150.56" cy="331.337" rx="1.76787" ry="1.16875" transform="rotate(-180 3150.56 331.337)" fill="#FFDE03"></ellipse><ellipse cx="1.58569" cy="1.40604" rx="1.58569" ry="1.40604" transform="matrix(-0.900748 0.434342 -0.740931 -0.671581 2807.88 449.168)" fill="#FFDE03"></ellipse><ellipse cx="1.58569" cy="1.40604" rx="1.58569" ry="1.40604" transform="matrix(-0.900748 0.434342 -0.740931 -0.671581 3064.22 355.509)" fill="#FFDE03"></ellipse><ellipse cx="2878.31" cy="479.928" rx="1.76787" ry="1.16875" transform="rotate(-180 2878.31 479.928)" fill="#FFDE03"></ellipse><ellipse cx="3134.65" cy="386.269" rx="1.76787" ry="1.16875" transform="rotate(-180 3134.65 386.269)" fill="#FFDE03"></ellipse><ellipse cx="1.58569" cy="1.40604" rx="1.58569" ry="1.40604" transform="matrix(-0.900748 0.434342 -0.740931 -0.671581 2843.99 499.746)" fill="#FFDE03"></ellipse><ellipse cx="1.58569" cy="1.40604" rx="1.58569" ry="1.40604" transform="matrix(-0.900748 0.434342 -0.740931 -0.671581 3100.33 406.087)" fill="#FFDE03"></ellipse><ellipse cx="2917.2" cy="483.434" rx="1.76787" ry="1.16875" transform="rotate(-180 2917.2 483.434)" fill="#FFDE03"></ellipse><ellipse cx="3173.54" cy="389.775" rx="1.76787" ry="1.16875" transform="rotate(-180 3173.54 389.775)" fill="#FFDE03"></ellipse><ellipse cx="1.58569" cy="1.40604" rx="1.58569" ry="1.40604" transform="matrix(-0.900748 0.434342 -0.740931 -0.671581 2878.53 487.428)" fill="#FFDE03"></ellipse><ellipse cx="1.58569" cy="1.40604" rx="1.58569" ry="1.40604" transform="matrix(-0.900748 0.434342 -0.740931 -0.671581 3134.88 393.769)" fill="#FFDE03"></ellipse><ellipse cx="2.63426" cy="1.77938" rx="2.63426" ry="1.77938" transform="matrix(-0.994799 -0.101856 -0.228087 0.973641 2995.71 635.103)" fill="#FFDE03"></ellipse><ellipse cx="1.75617" cy="1.18625" rx="1.75617" ry="1.18625" transform="matrix(-0.994799 -0.101856 -0.228087 0.973641 2968.32 614.558)" fill="#FFDE03"></ellipse><ellipse cx="1.75617" cy="1.18625" rx="1.75617" ry="1.18625" transform="matrix(-0.994799 -0.101856 -0.228087 0.973641 2885.55 601.353)" fill="#FFDE03"></ellipse><ellipse cx="1.75617" cy="1.18625" rx="1.75617" ry="1.18625" transform="matrix(-0.994799 -0.101856 -0.228087 0.973641 2888.75 618.237)" fill="#FFDE03"></ellipse><ellipse cx="1.75617" cy="1.18625" rx="1.75617" ry="1.18625" transform="matrix(-0.994799 -0.101856 -0.228087 0.973641 2975.63 583.374)" fill="#FFDE03"></ellipse><ellipse cx="1.75617" cy="1.18625" rx="1.75617" ry="1.18625" transform="matrix(-0.994799 -0.101856 -0.228087 0.973641 2679.98 547.189)" fill="#FFDE03"></ellipse><ellipse cx="0.878085" cy="0.593127" rx="0.878085" ry="0.593127" transform="matrix(-0.994799 -0.101856 -0.228087 0.973641 2951.64 624.677)" fill="#FFDE03"></ellipse><ellipse cx="0.878085" cy="0.593127" rx="0.878085" ry="0.593127" transform="matrix(-0.994799 -0.101856 -0.228087 0.973641 2946.82 614.722)" fill="#FFDE03"></ellipse><ellipse cx="0.878085" cy="0.593127" rx="0.878085" ry="0.593127" transform="matrix(-0.994799 -0.101856 -0.228087 0.973641 3175.78 660.636)" fill="#FFDE03"></ellipse><ellipse cx="0.878085" cy="0.593127" rx="0.878085" ry="0.593127" transform="matrix(-0.994799 -0.101856 -0.228087 0.973641 3226.74 649.296)" fill="#FFDE03"></ellipse><ellipse cx="0.749739" cy="0.748816" rx="0.749739" ry="0.748816" transform="matrix(-0.834979 -0.550281 -0.833384 0.552694 3038.39 629.175)" fill="#FFDE03"></ellipse><ellipse cx="0.878085" cy="0.593127" rx="0.878085" ry="0.593127" transform="matrix(-0.994799 -0.101856 -0.228087 0.973641 2615.27 586.688)" fill="#FFDE03"></ellipse><ellipse cx="0.878085" cy="0.593127" rx="0.878085" ry="0.593127" transform="matrix(-0.994799 -0.101856 -0.228087 0.973641 2652.55 557.39)" fill="#FFDE03"></ellipse><ellipse cx="0.878085" cy="0.593127" rx="0.878085" ry="0.593127" transform="matrix(-0.994799 -0.101856 -0.228087 0.973641 2691.38 567.279)" fill="#FFDE03"></ellipse><ellipse cx="1.75617" cy="1.18625" rx="1.75617" ry="1.18625" transform="matrix(-0.994799 -0.101856 -0.228087 0.973641 3183.06 644.823)" fill="#FFDE03"></ellipse><ellipse cx="1.49948" cy="1.49763" rx="1.49948" ry="1.49763" transform="matrix(-0.834979 -0.550281 -0.833384 0.552694 3108.43 643.979)" fill="#FFDE03"></ellipse><ellipse cx="1.75617" cy="1.18625" rx="1.75617" ry="1.18625" transform="matrix(-0.994799 -0.101856 -0.228087 0.973641 3163.7 651.12)" fill="#FFDE03"></ellipse><ellipse cx="1.49948" cy="1.49763" rx="1.49948" ry="1.49763" transform="matrix(-0.834979 -0.550281 -0.833384 0.552694 3087.18 641.521)" fill="#FFDE03"></ellipse><ellipse cx="1.75617" cy="1.18625" rx="1.75617" ry="1.18625" transform="matrix(-0.994799 -0.101856 -0.228087 0.973641 3177.65 667.924)" fill="#FFDE03"></ellipse><ellipse cx="1.49948" cy="1.49763" rx="1.49948" ry="1.49763" transform="matrix(-0.834979 -0.550281 -0.833384 0.552694 3083.47 660.533)" fill="#FFDE03"></ellipse><ellipse cx="1.75617" cy="1.18625" rx="1.75617" ry="1.18625" transform="matrix(-0.994799 -0.101856 -0.228087 0.973641 3128.61 655.806)" fill="#FFDE03"></ellipse><ellipse cx="1.49948" cy="1.49763" rx="1.49948" ry="1.49763" transform="matrix(-0.834979 -0.550281 -0.833384 0.552694 3054.65 631.638)" fill="#FFDE03"></ellipse><ellipse cx="1.75617" cy="1.18625" rx="1.75617" ry="1.18625" transform="matrix(-0.994799 -0.101856 -0.228087 0.973641 3115.15 667.438)" fill="#FFDE03"></ellipse><ellipse cx="1.49948" cy="1.49763" rx="1.49948" ry="1.49763" transform="matrix(-0.834979 -0.550281 -0.833384 0.552694 3033.4 635.791)" fill="#FFDE03"></ellipse><ellipse cx="1.75617" cy="1.18625" rx="1.75617" ry="1.18625" transform="matrix(-0.994799 -0.101856 -0.228087 0.973641 3112.14 611.543)" fill="#FFDE03"></ellipse><ellipse cx="1.49948" cy="1.49763" rx="1.49948" ry="1.49763" transform="matrix(-0.834979 -0.550281 -0.833384 0.552694 3080.8 589.462)" fill="#FFDE03"></ellipse><ellipse cx="1.75617" cy="1.18625" rx="1.75617" ry="1.18625" transform="matrix(-0.994799 -0.101856 -0.228087 0.973641 3151.39 612.014)" fill="#FFDE03"></ellipse><ellipse cx="1.49948" cy="1.49763" rx="1.49948" ry="1.49763" transform="matrix(-0.834979 -0.550281 -0.833384 0.552694 3112.09 605.131)" fill="#FFDE03"></ellipse><ellipse cx="1133.03" cy="315.883" rx="1.76787" ry="1.16875" transform="rotate(-180 1133.03 315.883)" fill="#FFDE03"></ellipse><ellipse cx="889.944" cy="411.295" rx="2.6518" ry="1.75313" transform="rotate(-180 889.944 411.295)" fill="#FFDE03"></ellipse><ellipse cx="60.815" cy="437.008" rx="2.6518" ry="1.75313" transform="rotate(-180 60.815 437.008)" fill="#FFDE03"></ellipse><ellipse cx="1117.11" cy="319.548" rx="1.76787" ry="1.16875" transform="rotate(-180 1117.11 319.548)" fill="#FFDE03"></ellipse><ellipse cx="859.006" cy="429.41" rx="1.76787" ry="1.16875" transform="rotate(-180 859.006 429.41)" fill="#FFDE03"></ellipse><ellipse cx="29.8774" cy="455.123" rx="1.76787" ry="1.16875" transform="rotate(-180 29.8774 455.123)" fill="#FFDE03"></ellipse><ellipse cx="1115.35" cy="335.751" rx="1.76787" ry="1.16875" transform="rotate(-180 1115.35 335.751)" fill="#FFDE03"></ellipse><ellipse cx="774.149" cy="434.085" rx="1.76787" ry="1.16875" transform="rotate(-180 774.149 434.085)" fill="#FFDE03"></ellipse><ellipse cx="1025.19" cy="310.197" rx="1.76787" ry="1.16875" transform="rotate(-180 1025.19 310.197)" fill="#FFDE03"></ellipse><ellipse cx="781.22" cy="417.723" rx="1.76787" ry="1.16875" transform="rotate(-180 781.22 417.723)" fill="#FFDE03"></ellipse><ellipse cx="1037.56" cy="324.064" rx="1.76787" ry="1.16875" transform="rotate(-180 1037.56 324.064)" fill="#FFDE03"></ellipse><ellipse cx="859.006" cy="460.966" rx="1.76787" ry="1.16875" transform="rotate(-180 859.006 460.966)" fill="#FFDE03"></ellipse><ellipse cx="29.8774" cy="486.679" rx="1.76787" ry="1.16875" transform="rotate(-180 29.8774 486.679)" fill="#FFDE03"></ellipse><ellipse cx="1115.35" cy="367.308" rx="1.76787" ry="1.16875" transform="rotate(-180 1115.35 367.308)" fill="#FFDE03"></ellipse><ellipse cx="558.469" cy="466.811" rx="1.76787" ry="1.16875" transform="rotate(-180 558.469 466.811)" fill="#FFDE03"></ellipse><ellipse cx="814.81" cy="373.152" rx="1.76787" ry="1.16875" transform="rotate(-180 814.81 373.152)" fill="#FFDE03"></ellipse><ellipse cx="575.264" cy="407.788" rx="0.883933" ry="0.584377" transform="rotate(-180 575.264 407.788)" fill="#FFDE03"></ellipse><ellipse cx="831.604" cy="314.129" rx="0.883933" ry="0.584377" transform="rotate(-180 831.604 314.129)" fill="#FFDE03"></ellipse><ellipse cx="845.747" cy="418.307" rx="0.883933" ry="0.584377" transform="rotate(-180 845.747 418.307)" fill="#FFDE03"></ellipse><ellipse cx="16.6185" cy="444.02" rx="0.883933" ry="0.584377" transform="rotate(-180 16.6185 444.02)" fill="#FFDE03"></ellipse><ellipse cx="1102.09" cy="324.648" rx="0.883933" ry="0.584377" transform="rotate(-180 1102.09 324.648)" fill="#FFDE03"></ellipse><ellipse cx="1020.77" cy="317.795" rx="0.883933" ry="0.584377" transform="rotate(-180 1020.77 317.795)" fill="#FFDE03"></ellipse><ellipse cx="838.676" cy="427.658" rx="0.883933" ry="0.584377" transform="rotate(-180 838.676 427.658)" fill="#FFDE03"></ellipse><ellipse cx="9.54698" cy="453.37" rx="0.883933" ry="0.584377" transform="rotate(-180 9.54698 453.37)" fill="#FFDE03"></ellipse><ellipse cx="1095.02" cy="333.999" rx="0.883933" ry="0.584377" transform="rotate(-180 1095.02 333.999)" fill="#FFDE03"></ellipse><ellipse cx="246.441" cy="431.164" rx="0.883933" ry="0.584377" transform="rotate(-180 246.441 431.164)" fill="#FFDE03"></ellipse><ellipse cx="502.781" cy="337.504" rx="0.883933" ry="0.584377" transform="rotate(-180 502.781 337.504)" fill="#FFDE03"></ellipse><ellipse cx="294.173" cy="447.526" rx="0.883933" ry="0.584377" transform="rotate(-180 294.173 447.526)" fill="#FFDE03"></ellipse><ellipse cx="550.514" cy="353.867" rx="0.883933" ry="0.584377" transform="rotate(-180 550.514 353.867)" fill="#FFDE03"></ellipse><ellipse cx="352.513" cy="458.045" rx="0.883933" ry="0.584377" transform="rotate(-180 352.513 458.045)" fill="#FFDE03"></ellipse><ellipse cx="608.853" cy="364.385" rx="0.883933" ry="0.584377" transform="rotate(-180 608.853 364.385)" fill="#FFDE03"></ellipse><ellipse cx="368.423" cy="440.513" rx="0.883933" ry="0.584377" transform="rotate(-180 368.423 440.513)" fill="#FFDE03"></ellipse><ellipse cx="624.764" cy="346.854" rx="0.883933" ry="0.584377" transform="rotate(-180 624.764 346.854)" fill="#FFDE03"></ellipse><ellipse cx="0.792843" cy="0.703018" rx="0.792843" ry="0.703018" transform="matrix(-0.900748 0.434342 -0.740931 -0.671581 104.273 448.937)" fill="#FFDE03"></ellipse><ellipse cx="0.792843" cy="0.703018" rx="0.792843" ry="0.703018" transform="matrix(-0.900748 0.434342 -0.740931 -0.671581 360.613 355.278)" fill="#FFDE03"></ellipse><ellipse cx="472.727" cy="398.438" rx="0.883933" ry="0.584377" transform="rotate(-180 472.727 398.438)" fill="#FFDE03"></ellipse><ellipse cx="729.068" cy="304.78" rx="0.883933" ry="0.584377" transform="rotate(-180 729.068 304.78)" fill="#FFDE03"></ellipse><ellipse cx="504.549" cy="421.813" rx="0.883933" ry="0.584377" transform="rotate(-180 504.549 421.813)" fill="#FFDE03"></ellipse><ellipse cx="760.89" cy="328.154" rx="0.883933" ry="0.584377" transform="rotate(-180 760.89 328.154)" fill="#FFDE03"></ellipse><ellipse cx="534.603" cy="454.539" rx="0.883933" ry="0.584377" transform="rotate(-180 534.603 454.539)" fill="#FFDE03"></ellipse><ellipse cx="790.943" cy="360.879" rx="0.883933" ry="0.584377" transform="rotate(-180 790.943 360.879)" fill="#FFDE03"></ellipse><ellipse cx="575.264" cy="448.695" rx="0.883933" ry="0.584377" transform="rotate(-180 575.264 448.695)" fill="#FFDE03"></ellipse><ellipse cx="831.604" cy="355.036" rx="0.883933" ry="0.584377" transform="rotate(-180 831.604 355.036)" fill="#FFDE03"></ellipse><ellipse cx="249.093" cy="446.942" rx="1.76787" ry="1.16875" transform="rotate(-180 249.093 446.942)" fill="#FFDE03"></ellipse><ellipse cx="505.433" cy="353.282" rx="1.76787" ry="1.16875" transform="rotate(-180 505.433 353.282)" fill="#FFDE03"></ellipse><ellipse cx="478.915" cy="417.723" rx="1.76787" ry="1.16875" transform="rotate(-180 478.915 417.723)" fill="#FFDE03"></ellipse><ellipse cx="735.256" cy="324.064" rx="1.76787" ry="1.16875" transform="rotate(-180 735.256 324.064)" fill="#FFDE03"></ellipse><ellipse cx="1.58569" cy="1.40604" rx="1.58569" ry="1.40604" transform="matrix(-0.900748 0.434342 -0.740931 -0.671581 176.914 441.395)" fill="#FFDE03"></ellipse><ellipse cx="1.58569" cy="1.40604" rx="1.58569" ry="1.40604" transform="matrix(-0.900748 0.434342 -0.740931 -0.671581 438.254 359.076)" fill="#FFDE03"></ellipse><ellipse cx="231.414" cy="438.76" rx="1.76787" ry="1.16875" transform="rotate(-180 231.414 438.76)" fill="#FFDE03"></ellipse><ellipse cx="487.754" cy="345.101" rx="1.76787" ry="1.16875" transform="rotate(-180 487.754 345.101)" fill="#FFDE03"></ellipse><ellipse cx="369.308" cy="469.148" rx="1.76787" ry="1.16875" transform="rotate(-180 369.308 469.148)" fill="#FFDE03"></ellipse><ellipse cx="625.648" cy="375.489" rx="1.76787" ry="1.16875" transform="rotate(-180 625.648 375.489)" fill="#FFDE03"></ellipse><ellipse cx="1.58569" cy="1.40604" rx="1.58569" ry="1.40604" transform="matrix(-0.900748 0.434342 -0.740931 -0.671581 155.341 441.673)" fill="#FFDE03"></ellipse><ellipse cx="1.58569" cy="1.40604" rx="1.58569" ry="1.40604" transform="matrix(-0.900748 0.434342 -0.740931 -0.671581 424.111 349.726)" fill="#FFDE03"></ellipse><ellipse cx="249.093" cy="423.567" rx="1.76787" ry="1.16875" transform="rotate(-180 249.093 423.567)" fill="#FFDE03"></ellipse><ellipse cx="505.433" cy="329.907" rx="1.76787" ry="1.16875" transform="rotate(-180 505.433 329.907)" fill="#FFDE03"></ellipse><ellipse cx="1.58569" cy="1.40604" rx="1.58569" ry="1.40604" transform="matrix(-0.900748 0.434342 -0.740931 -0.671581 156.079 422.51)" fill="#FFDE03"></ellipse><ellipse cx="1.58569" cy="1.40604" rx="1.58569" ry="1.40604" transform="matrix(-0.900748 0.434342 -0.740931 -0.671581 412.42 328.851)" fill="#FFDE03"></ellipse><ellipse cx="197.824" cy="430.579" rx="1.76787" ry="1.16875" transform="rotate(-180 197.824 430.579)" fill="#FFDE03"></ellipse><ellipse cx="445.326" cy="337.078" rx="1.76787" ry="1.16875" transform="rotate(-180 445.326 337.078)" fill="#FFDE03"></ellipse><ellipse cx="1.58569" cy="1.40604" rx="1.58569" ry="1.40604" transform="matrix(-0.900748 0.434342 -0.740931 -0.671581 120.908 448.147)" fill="#FFDE03"></ellipse><ellipse cx="1.58569" cy="1.40604" rx="1.58569" ry="1.40604" transform="matrix(-0.900748 0.434342 -0.740931 -0.671581 377.249 354.488)" fill="#FFDE03"></ellipse><ellipse cx="187.217" cy="417.723" rx="1.76787" ry="1.16875" transform="rotate(-180 187.217 417.723)" fill="#FFDE03"></ellipse><ellipse cx="443.558" cy="324.064" rx="1.76787" ry="1.16875" transform="rotate(-180 443.558 324.064)" fill="#FFDE03"></ellipse><ellipse cx="1.58569" cy="1.40604" rx="1.58569" ry="1.40604" transform="matrix(-0.900748 0.434342 -0.740931 -0.671581 100.875 441.895)" fill="#FFDE03"></ellipse><ellipse cx="1.58569" cy="1.40604" rx="1.58569" ry="1.40604" transform="matrix(-0.900748 0.434342 -0.740931 -0.671581 357.216 348.235)" fill="#FFDE03"></ellipse><ellipse cx="171.306" cy="472.654" rx="1.76787" ry="1.16875" transform="rotate(-180 171.306 472.654)" fill="#FFDE03"></ellipse><ellipse cx="427.647" cy="378.995" rx="1.76787" ry="1.16875" transform="rotate(-180 427.647 378.995)" fill="#FFDE03"></ellipse><ellipse cx="1.58569" cy="1.40604" rx="1.58569" ry="1.40604" transform="matrix(-0.900748 0.434342 -0.740931 -0.671581 136.985 492.473)" fill="#FFDE03"></ellipse><ellipse cx="1.58569" cy="1.40604" rx="1.58569" ry="1.40604" transform="matrix(-0.900748 0.434342 -0.740931 -0.671581 393.325 398.813)" fill="#FFDE03"></ellipse><ellipse cx="210.2" cy="476.16" rx="1.76787" ry="1.16875" transform="rotate(-180 210.2 476.16)" fill="#FFDE03"></ellipse><ellipse cx="466.54" cy="382.501" rx="1.76787" ry="1.16875" transform="rotate(-180 466.54 382.501)" fill="#FFDE03"></ellipse><ellipse cx="1.58569" cy="1.40604" rx="1.58569" ry="1.40604" transform="matrix(-0.900748 0.434342 -0.740931 -0.671581 171.534 480.154)" fill="#FFDE03"></ellipse><ellipse cx="1.58569" cy="1.40604" rx="1.58569" ry="1.40604" transform="matrix(-0.900748 0.434342 -0.740931 -0.671581 427.875 386.495)" fill="#FFDE03"></ellipse><ellipse cx="611.505" cy="399.023" rx="1.76787" ry="1.16875" transform="rotate(-180 611.505 399.023)" fill="#FFDE03"></ellipse><ellipse cx="867.845" cy="305.363" rx="1.76787" ry="1.16875" transform="rotate(-180 867.845 305.363)" fill="#FFDE03"></ellipse><ellipse cx="706.025" cy="536.032" rx="1.76787" ry="1.16875" transform="rotate(-180 706.025 536.032)" fill="#FFDE03"></ellipse><ellipse cx="462.944" cy="631.444" rx="2.6518" ry="1.75313" transform="rotate(-180 462.944 631.444)" fill="#FFDE03"></ellipse><ellipse cx="690.114" cy="539.697" rx="1.76787" ry="1.16875" transform="rotate(-180 690.114 539.697)" fill="#FFDE03"></ellipse><ellipse cx="432.006" cy="649.56" rx="1.76787" ry="1.16875" transform="rotate(-180 432.006 649.56)" fill="#FFDE03"></ellipse><ellipse cx="688.347" cy="555.901" rx="1.76787" ry="1.16875" transform="rotate(-180 688.347 555.901)" fill="#FFDE03"></ellipse><ellipse cx="347.149" cy="654.235" rx="1.76787" ry="1.16875" transform="rotate(-180 347.149 654.235)" fill="#FFDE03"></ellipse><ellipse cx="598.185" cy="530.347" rx="1.76787" ry="1.16875" transform="rotate(-180 598.185 530.347)" fill="#FFDE03"></ellipse><ellipse cx="354.22" cy="637.873" rx="1.76787" ry="1.16875" transform="rotate(-180 354.22 637.873)" fill="#FFDE03"></ellipse><ellipse cx="610.56" cy="544.214" rx="1.76787" ry="1.16875" transform="rotate(-180 610.56 544.214)" fill="#FFDE03"></ellipse><ellipse cx="432.006" cy="681.116" rx="1.76787" ry="1.16875" transform="rotate(-180 432.006 681.116)" fill="#FFDE03"></ellipse><ellipse cx="688.347" cy="587.457" rx="1.76787" ry="1.16875" transform="rotate(-180 688.347 587.457)" fill="#FFDE03"></ellipse><ellipse cx="131.469" cy="686.96" rx="1.76787" ry="1.16875" transform="rotate(-180 131.469 686.96)" fill="#FFDE03"></ellipse><ellipse cx="387.81" cy="593.301" rx="1.76787" ry="1.16875" transform="rotate(-180 387.81 593.301)" fill="#FFDE03"></ellipse><ellipse cx="148.264" cy="627.938" rx="0.883933" ry="0.584377" transform="rotate(-180 148.264 627.938)" fill="#FFDE03"></ellipse><ellipse cx="404.604" cy="534.279" rx="0.883933" ry="0.584377" transform="rotate(-180 404.604 534.279)" fill="#FFDE03"></ellipse><ellipse cx="418.747" cy="638.458" rx="0.883933" ry="0.584377" transform="rotate(-180 418.747 638.458)" fill="#FFDE03"></ellipse><ellipse cx="675.087" cy="544.798" rx="0.883933" ry="0.584377" transform="rotate(-180 675.087 544.798)" fill="#FFDE03"></ellipse><ellipse cx="593.766" cy="537.944" rx="0.883933" ry="0.584377" transform="rotate(-180 593.766 537.944)" fill="#FFDE03"></ellipse><ellipse cx="411.676" cy="647.807" rx="0.883933" ry="0.584377" transform="rotate(-180 411.676 647.807)" fill="#FFDE03"></ellipse><ellipse cx="668.016" cy="554.148" rx="0.883933" ry="0.584377" transform="rotate(-180 668.016 554.148)" fill="#FFDE03"></ellipse><ellipse cx="75.7811" cy="557.654" rx="0.883933" ry="0.584377" transform="rotate(-180 75.7811 557.654)" fill="#FFDE03"></ellipse><ellipse cx="123.514" cy="574.016" rx="0.883933" ry="0.584377" transform="rotate(-180 123.514 574.016)" fill="#FFDE03"></ellipse><ellipse cx="181.853" cy="584.536" rx="0.883933" ry="0.584377" transform="rotate(-180 181.853 584.536)" fill="#FFDE03"></ellipse><ellipse cx="197.764" cy="567.004" rx="0.883933" ry="0.584377" transform="rotate(-180 197.764 567.004)" fill="#FFDE03"></ellipse><ellipse cx="45.7274" cy="618.588" rx="0.883933" ry="0.584377" transform="rotate(-180 45.7274 618.588)" fill="#FFDE03"></ellipse><ellipse cx="302.068" cy="524.929" rx="0.883933" ry="0.584377" transform="rotate(-180 302.068 524.929)" fill="#FFDE03"></ellipse><ellipse cx="77.5492" cy="641.964" rx="0.883933" ry="0.584377" transform="rotate(-180 77.5492 641.964)" fill="#FFDE03"></ellipse><ellipse cx="333.889" cy="548.304" rx="0.883933" ry="0.584377" transform="rotate(-180 333.889 548.304)" fill="#FFDE03"></ellipse><ellipse cx="107.603" cy="674.688" rx="0.883933" ry="0.584377" transform="rotate(-180 107.603 674.688)" fill="#FFDE03"></ellipse><ellipse cx="363.943" cy="581.029" rx="0.883933" ry="0.584377" transform="rotate(-180 363.943 581.029)" fill="#FFDE03"></ellipse><ellipse cx="148.264" cy="668.844" rx="0.883933" ry="0.584377" transform="rotate(-180 148.264 668.844)" fill="#FFDE03"></ellipse><ellipse cx="404.604" cy="575.185" rx="0.883933" ry="0.584377" transform="rotate(-180 404.604 575.185)" fill="#FFDE03"></ellipse><ellipse cx="78.4331" cy="573.432" rx="1.76787" ry="1.16875" transform="rotate(-180 78.4331 573.432)" fill="#FFDE03"></ellipse><ellipse cx="51.915" cy="637.873" rx="1.76787" ry="1.16875" transform="rotate(-180 51.915 637.873)" fill="#FFDE03"></ellipse><ellipse cx="308.256" cy="544.214" rx="1.76787" ry="1.16875" transform="rotate(-180 308.256 544.214)" fill="#FFDE03"></ellipse><ellipse cx="1.58569" cy="1.40604" rx="1.58569" ry="1.40604" transform="matrix(-0.900748 0.434342 -0.740931 -0.671581 11.2542 579.226)" fill="#FFDE03"></ellipse><ellipse cx="60.7544" cy="565.251" rx="1.76787" ry="1.16875" transform="rotate(-180 60.7544 565.251)" fill="#FFDE03"></ellipse><ellipse cx="198.648" cy="595.639" rx="1.76787" ry="1.16875" transform="rotate(-180 198.648 595.639)" fill="#FFDE03"></ellipse><ellipse cx="78.4331" cy="550.057" rx="1.76787" ry="1.16875" transform="rotate(-180 78.4331 550.057)" fill="#FFDE03"></ellipse><ellipse cx="18.3256" cy="557.228" rx="1.76787" ry="1.16875" transform="rotate(-180 18.3256 557.228)" fill="#FFDE03"></ellipse><ellipse cx="16.5578" cy="544.214" rx="1.76787" ry="1.16875" transform="rotate(-180 16.5578 544.214)" fill="#FFDE03"></ellipse><ellipse cx="0.64693" cy="599.145" rx="1.76787" ry="1.16875" transform="rotate(-180 0.64693 599.145)" fill="#FFDE03"></ellipse><ellipse cx="39.54" cy="602.651" rx="1.76787" ry="1.16875" transform="rotate(-180 39.54 602.651)" fill="#FFDE03"></ellipse><ellipse cx="1.58569" cy="1.40604" rx="1.58569" ry="1.40604" transform="matrix(-0.900748 0.434342 -0.740931 -0.671581 0.875 606.645)" fill="#FFDE03"></ellipse><ellipse cx="184.505" cy="619.172" rx="1.76787" ry="1.16875" transform="rotate(-180 184.505 619.172)" fill="#FFDE03"></ellipse></g><defs><linearGradient id="paint0_linear_1646_26866" x1="1617" y1="0" x2="1617" y2="297.83" gradientUnits="userSpaceOnUse"><stop></stop><stop offset="1" stop-color="#000A49"></stop></linearGradient><linearGradient id="paint1_linear_1646_26866" x1="960" y1="0" x2="960" y2="297.83" gradientUnits="userSpaceOnUse"><stop></stop><stop offset="1" stop-color="#000A49"></stop></linearGradient><clipPath id="clip0_1646_26866"><rect width="3234" height="714" fill="white" transform="translate(3234 714) rotate(-180)"></rect></clipPath></defs></svg>