<svg xmlns="http://www.w3.org/2000/svg" width="512" height="512" viewBox="0 0 512 512" fill="none"><path fill-rule="evenodd" clip-rule="evenodd" d="M255.5 481C388.877 481 497 427.735 497 383C497 338.265 388.877 291 255.5 291C122.123 291 14 338.265 14 383C14 427.735 122.123 481 255.5 481ZM256 425C335.529 425 400 395.204 400 370.226C400 345.248 335.529 325 256 325C176.471 325 112 345.248 112 370.226C112 395.204 176.471 425 256 425Z" fill="#7B1FA2"></path><path d="M488 383C488 390.53 483.343 400.021 471.916 410.573C460.673 420.955 443.956 431.316 422.693 440.516C380.224 458.89 321.08 472 255.5 472V490C323.297 490 384.903 476.478 429.84 457.036C452.279 447.327 470.929 435.984 484.127 423.797C497.141 411.78 506 397.837 506 383H488ZM255.5 300C321.223 300 380.444 311.66 422.936 328.585C444.217 337.062 460.895 346.699 472.086 356.518C483.435 366.475 488 375.558 488 383H506C506 368.074 497.05 354.474 483.957 342.987C470.707 331.362 452.019 320.795 429.597 311.863C384.683 293.973 323.154 282 255.5 282V300ZM23 383C23 375.558 27.5653 366.475 38.9139 356.518C50.1051 346.699 66.7834 337.062 88.0642 328.585C130.556 311.66 189.777 300 255.5 300V282C187.846 282 126.317 293.973 81.4032 311.863C58.9811 320.795 40.2925 331.362 27.0426 342.987C13.9501 354.474 5 368.074 5 383H23ZM255.5 472C189.92 472 130.776 458.89 88.3074 440.516C67.044 431.316 50.3271 420.955 39.0839 410.573C27.6566 400.021 23 390.53 23 383H5C5 397.837 13.8588 411.78 26.8726 423.797C40.0705 435.984 58.7206 447.327 81.16 457.036C126.097 476.478 187.703 490 255.5 490V472ZM391 370.226C391 372.578 389.34 376.852 382.794 382.516C376.497 387.966 366.912 393.58 354.44 398.64C329.566 408.731 294.73 416 256 416V434C296.799 434 333.963 426.371 361.207 415.32C374.794 409.808 386.297 403.29 394.573 396.128C402.601 389.18 409 380.363 409 370.226H391ZM256 334C295.11 334 330.158 338.991 355.127 346.833C367.664 350.771 377.156 355.272 383.318 359.848C389.651 364.55 391 368.158 391 370.226H409C409 359.806 402.291 351.516 394.049 345.396C385.638 339.151 374.042 333.907 360.52 329.66C333.371 321.133 296.419 316 256 316V334ZM121 370.226C121 368.158 122.349 364.55 128.682 359.848C134.844 355.272 144.336 350.771 156.873 346.833C181.842 338.991 216.89 334 256 334V316C215.581 316 178.629 321.133 151.48 329.66C137.958 333.907 126.362 339.151 117.951 345.396C109.709 351.516 103 359.806 103 370.226H121ZM256 416C217.27 416 182.434 408.731 157.56 398.64C145.088 393.58 135.503 387.966 129.206 382.516C122.66 376.852 121 372.578 121 370.226H103C103 380.363 109.399 389.18 117.427 396.128C125.703 403.29 137.206 409.808 150.793 415.32C178.037 426.371 215.201 434 256 434V416Z" fill="black"></path><path d="M262.366 82.6383L256 76.2675L249.634 82.6383C229.487 102.8 204.801 132.144 185.086 163.371C165.586 194.257 150 228.447 150 257.931C150 316.505 197.452 364 256 364C314.548 364 362 316.505 362 257.931C362 228.578 347.949 195.873 329.059 165.535C310.011 134.945 285.297 105.586 262.366 82.6383Z" fill="#7B1FA2" stroke="black" stroke-width="18"></path><path d="M260.927 329.86C261.443 329.519 261.74 328.916 261.672 328.301C259.802 311.419 226.465 308.453 212.701 287.9C195.13 261.66 210.758 224.784 195.184 219.388C172.273 211.45 167.149 273.28 185.544 301.487C200.277 324.079 239.473 344.05 260.927 329.86Z" fill="#F8F8F8" fill-opacity="0.6"></path><path d="M178.636 451.694C178.559 451.582 178.445 451.451 178.343 451.361C151.415 427.545 129.384 439.427 69.5 402.5C42.6199 385.924 73.912 346.155 58.5016 352C29.5019 363.001 33.1609 393.821 58.5006 416.001C78.9874 433.934 191.742 470.751 178.636 451.694Z" fill="#F8F8F8" fill-opacity="0.6"></path></svg>